<?xml version="1.0" encoding="UTF-8"?>
<svg width="16" height="16" viewBox="0 0 16 16" xmlns="http://www.w3.org/2000/svg">
  <g transform="translate(0.020000000000000462, 14.9825) scale(0.015585937499999999, -0.015585937499999999)">
    <path d="M868 802L175 802L0 448L175 94L868 94Q932 94 978 140Q1024 186 1024 251L1024 645Q1024 710 979.5 756Q935 802 868 802ZM868 724Q901 724 923.5 701.5Q946 679 946 645L946 251Q946 217 923.5 194.5Q901 172 868 172L235 172Q235 172 210 212Q186 252 156.5 301Q127 350 103 392Q78 435 78 441L235 724L868 724ZM700 489Q680 538 627 544.5Q574 551 541 508Q506 461 531.5 410Q557 359 614 359L853 359L853 284L614 284Q550 287 510 320Q470 352 455.5 397.5Q441 443 452 491Q463 540 500 574Q536 607 580 616Q624 624 664.5 611.5Q705 599 736 567Q768 536 778 489Q778 489 739 489Q700 489 700 489ZM410 616L410 280L335 280L335 485L261 485L261 560L335 560L335 616L410 616Z" fill="#be2f31" />
  </g>
</svg>