<?xml version="1.0" encoding="UTF-8"?>
<svg width="16" height="16" viewBox="0 0 16 16" xmlns="http://www.w3.org/2000/svg">
  <g transform="translate(0.020000000000000462, 14.9825) scale(0.015585937499999999, -0.015585937499999999)">
    <path d="M233 727L233 169L93 169L93 541L0 541L0 681L93 681L93 727L233 727ZM689 495L833 495Q824 543 800 586Q776 628 739.5 659.5Q703 691 657 709Q611 727 559 727Q501 727 450 705Q399 683 361 645Q323 607 301 556Q279 506 279 448Q279 392 300 342Q322 292 358.5 254Q395 216 444 193Q493 171 549 169L1024 169L1024 308L559 308Q509 309 476 334Q443 359 429 394.5Q415 430 421 469Q426 509 452 540Q479 570 514 581Q549 592 583.5 585Q618 578 647 555Q676 532 689 494Z" fill="#a35f27" />
  </g>
</svg>