<?xml version="1.0" encoding="UTF-8"?>
<svg width="16" height="16" viewBox="0 0 16 16" xmlns="http://www.w3.org/2000/svg">
  <g transform="translate(0.5096975936692527, 14.55375) scale(0.01462890625, -0.01462890625)">
    <path d="M261 87Q249 87 247.5 99.5Q246 112 260 112Q336 114 339.5 136.5Q343 159 347 218L347 640L101 351L319 351L319 275L29 275Q4 275 0.5 286.5Q-3 298 15 319L418 800Q425 807 430.5 810.5Q436 814 442 814Q455 813 458.5 807.5Q462 802 484 804Q504 805 540 806Q576 806 616 805.5Q656 805 694 801Q732 798 756 790Q805 780 852 757Q900 734 937.5 693.5Q975 653 998 595Q1022 536 1024 455Q1025 417 1017 377Q1008 337 991 299.5Q974 262 948 228Q922 193 887 166Q836 126 767 104.5Q698 83 610 82Q578 82 518 85Q458 88 400 89Q340 89 319 88Q298 87 261 87ZM526 351Q537 351 546.5 355Q556 359 563 360Q568 361 571 356Q574 351 572 339Q569 327 564.5 312Q560 297 560 297Q558 287 551.5 281Q545 275 531 275L464 275Q464 275 465 224.5Q466 174 480 163Q506 138 543.5 134Q581 130 628 130Q683 130 739.5 151.5Q796 173 833 214Q869 253 883 311Q897 369 895 447Q894 499 880 542Q866 585 842 620Q818 655 785 682Q752 708 712 727Q641 761 565 759Q489 757 489 757Q477 756 469.5 750.5Q462 745 462 734L462 351L526 351Z" fill="#46788d" />
  </g>
</svg>