<?xml version="1.0" encoding="UTF-8"?>
<svg width="16" height="16" viewBox="0 0 16 16" xmlns="http://www.w3.org/2000/svg">
  <g transform="translate(0.5101762518825295, 14.55375) scale(0.01462890625, -0.01462890625)">
    <path d="M574 61Q550 66 532 88Q515 110 502 147Q489 184 479 234Q468 284 458 344Q405 336 334.5 321.5Q264 307 185 290Q172 256 150 207Q128 158 97 94Q80 56 39.5 66.5Q-1 77 0 117Q0 129 19.5 176Q39 223 77 304Q61 333 73.5 357Q86 381 119 388Q152 448 196 524Q240 600 283.5 668Q327 736 363 784Q400 831 418 835Q469 835 475 771.5Q481 708 506 606L582 250Q606 180 624 127Q642 74 574 61ZM393 647L246 411Q277 419 324 428.5Q371 438 434 450L393 647ZM842 727Q840 702 839 672.5Q838 643 839 612Q910 609 966.5 611Q1023 613 1024 565Q1024 547 1011 532Q998 517 980 518Q947 523 911.5 521.5Q876 520 840 521L840 400Q843 353 794 353.5Q745 354 749 400L748 519Q669 513 624.5 518.5Q580 524 580 562Q582 607 617 604.5Q652 602 748 610Q747 645 747.5 677.5Q748 710 752 735Q761 778 801.5 771.5Q842 765 842 727Z" fill="#6a9fb5" />
  </g>
</svg>