<?xml version="1.0" encoding="UTF-8"?>
<svg width="16" height="16" viewBox="0 0 16 16" xmlns="http://www.w3.org/2000/svg">
  <g transform="translate(0.5099999999999997, 14.55375) scale(0.01462890625, -0.01462890625)">
    <path d="M243 188L85 -8L46 -9L46 936L876 960L876 945L762 826L243 809L243 188ZM978 813L976 41L321 -64L321 786L978 813ZM579 473Q598 463 621 458.5Q644 454 670 458Q701 462 723 471.5Q745 481 760 491L673 740ZM881 146L791 402Q734 377 669.5 369Q605 361 544 376L438 78Q438 78 483.5 44.5Q529 11 670 41Q812 71 846.5 108.5Q881 146 881 146Z" fill="#d28445" />
  </g>
</svg>