<?xml version="1.0" encoding="UTF-8"?>
<svg width="16" height="16" viewBox="0 0 16 16" xmlns="http://www.w3.org/2000/svg">
  <g transform="translate(0.020000000000000462, 14.9825) scale(0.015585937499999999, -0.015585937499999999)">
    <path d="M451 561Q523 506 552.5 456.5Q582 407 561 325Q470 384 453 443.5Q436 503 451 561ZM425 639Q431 658 436 682.5Q441 707 440 736L358 736Q362 698 378.5 681Q395 664 425 639ZM588 247Q581 226 576.5 206Q572 186 572 166L652 166Q643 192 626.5 210.5Q610 229 588 247ZM546 275Q538 249 530.5 222Q523 195 523 166L420 166L388 275L205 275L169 160L0 166L209 736L308 736Q314 679 343 648Q372 617 409 590Q393 548 393 506Q393 464 410 423.5Q427 383 461 346Q495 308 546 275ZM360 392L305 590L243 392ZM1024 306Q1024 253 988 210Q952 167 893 166L701 166Q694 208 666 239.5Q638 271 604 296Q624 347 620 393Q617 439 596.5 478.5Q576 518 542 551Q508 584 467 609Q476 636 482.5 666.5Q489 697 489 736L599 736Q678 736 750.5 727.5Q823 719 877 662Q917 619 913 563Q909 507 860 467Q935 461 979.5 410.5Q1024 360 1024 306ZM745 526Q787 526 783 573Q779 620 700 621L612 621L639 526L745 526ZM785 381L681 380L713 279L828 279Q880 289 866.5 334Q853 379 785 381Z" fill="#90a959" />
  </g>
</svg>