<?xml version="1.0" encoding="UTF-8"?>
<svg width="16" height="16" viewBox="0 0 16 16" xmlns="http://www.w3.org/2000/svg">
  <g transform="translate(0.5078056640624986, 14.55375) scale(0.01462890625, -0.01462890625)">
    <path d="M1024 191L1024 728Q1027 764 1000 788Q973 812 943 822Q902 836 860 844Q818 852 775.5 854.5Q733 857 690 854Q647 852 605 847L605 948L535 948L0 855L0 41L532 -52L605 -52L605 73Q647 67 689 65Q732 63 774.5 65.5Q817 68 859 76Q901 84 941 97Q972 108 999.5 131.5Q1027 155 1024 191ZM353 263L331 350L224 353L203 270L134 275L237 642L319 648L433 257L353 263ZM605 811Q683 822 762.5 820Q842 818 918 794Q939 787 961.5 775Q984 763 989 739Q986 718 968.5 707.5Q951 697 934 689Q894 676 853 669Q812 661 770.5 658.5Q729 656 688 658Q646 661 605 667L605 811ZM605 444Q664 436 724 436.5Q784 437 844 444Q882 450 920 460.5Q958 471 989 496Q987 459 989 421Q991 383 986 346Q971 328 948 319Q925 310 903 304Q830 287 754.5 285Q679 283 605 293L605 444ZM986 160Q961 133 925 124Q889 115 855 108Q793 99 730 98.5Q667 98 604 107L605 258Q664 250 724 250Q784 250 843 258Q882 264 920 274.5Q958 285 989 310Q987 273 989 235Q991 197 986 160ZM986 532Q970 514 947 505Q924 496 902 490Q829 473 754 471.5Q679 470 605 479L605 630Q664 622 724 622.5Q784 623 843 630Q881 636 919.5 646.5Q958 657 989 682Q987 645 989 607Q991 569 986 532ZM238 416Q238 416 253.5 476.5Q269 537 275 579Q283 537 294 496.5Q305 456 315 415L238 416Z" fill="#8f5536" />
  </g>
</svg>