<?xml version="1.0" encoding="UTF-8"?>
<svg width="16" height="16" viewBox="0 0 16 16" xmlns="http://www.w3.org/2000/svg">
  <g transform="translate(1.0798437500000002, 14.9825) scale(0.015585937499999999, -0.015585937499999999)">
    <path d="M443 -64L888 192L888 704L443 960L0 704L0 192ZM720 347L758 340Q766 262 742.5 213.5Q719 165 670 158Q623 153 593 190Q563 227 546 285Q503 218 448 187Q393 156 338.5 156.5Q284 157 236 188Q187 218 157 273Q130 325 127 391Q124 457 144.5 519.5Q165 582 207 632Q250 681 312 698Q385 717 450 692Q515 667 543 585L576 670Q581 685 591.5 689.5Q602 694 608 694L704 693L745 686L599 378Q626 318 659 306.5Q692 295 720 347ZM469 405Q491 448 483 491Q474 534 448 560.5Q422 587 386 589Q351 591 320 552Q298 523 283 488Q268 452 262 414Q256 376 260 338Q264 299 279 265Q314 215 365 260Q416 305 469 405Z" fill="#46788d" />
  </g>
</svg>