<?xml version="1.0" encoding="UTF-8"?>
<svg width="16" height="16" viewBox="0 0 16 16" xmlns="http://www.w3.org/2000/svg">
  <g transform="translate(0.5808007812500016, 15.460888151575308) scale(0.016542968749999998, -0.016542968749999998)">
    <path d="M550 595Q550 595 562.5 617Q575 639 639 642Q693 638 729 600Q765 562 778 545Q778 545 739 533.5Q700 522 652 576Q596 626 573 610.5Q550 595 550 595ZM549 572Q549 572 550.5 553Q552 534 584 516Q606 503 601.5 498.5Q597 494 597 494Q597 494 606.5 495.5Q616 497 633 513Q658 535 654 550.5Q650 566 650 566Q650 566 628.5 586Q607 606 584 577Q584 577 576 572.5Q568 568 549 572ZM662 557Q662 557 656 531Q650 505 602 490Q602 490 644 495Q686 500 740 454Q740 454 748 485.5Q756 517 782 539Q779 538 744 527Q709 516 662 557ZM553 582Q553 582 566.5 576.5Q580 571 594 601Q594 601 580 605Q566 609 553 582ZM571 590Q571 588 570.5 586.5Q570 585 568 584Q566 584 564.5 585Q563 586 562 588Q562 590 562.5 591.5Q563 593 565 594Q567 594 568.5 593Q570 592 571 590ZM882 341Q885 410 877 460.5Q869 511 822 543Q791 577 761 618Q730 658 706.5 704.5Q683 751 671 802Q659 854 666 911Q677 993 683 953Q689 913 689 913Q689 913 692 888Q696 863 705 829Q714 795 728 760Q743 726 765 707Q877 608 891.5 535Q906 462 882 341ZM638 832Q638 832 656 771Q674 710 717 660Q762 609 768.5 600Q775 591 813 544Q813 544 808 546Q803 548 790 544Q790 544 761 581.5Q732 619 698 635Q698 635 668.5 672Q639 709 633 756Q622 832 627.5 846Q633 860 638 832ZM687 641Q687 641 660.5 671.5Q634 702 631 714Q624 735 621 739.5Q618 744 616 726Q615 716 623 683Q631 650 651 648Q664 647 675.5 644Q687 641 687 641ZM0 730Q-2 697 9.5 649Q21 601 39 577Q57 541 90 504Q123 466 169.5 438.5Q216 411 274 399Q332 386 401 399Q443 412 479 397Q515 382 542 359Q567 333 580.5 327.5Q594 322 611 332Q593 350 577 371Q561 392 562 419Q563 439 570 456.5Q577 474 590 485Q577 528 523.5 536.5Q470 545 439 542Q399 539 359.5 524Q320 509 284 505Q234 509 191 528Q149 546 115.5 577.5Q82 609 59 652Q35 695 23 748Q13 797 8 780Q3 763 0 730ZM122 428Q192 386 260.5 373.5Q329 361 387 382Q387 382 435 392.5Q483 403 557 335Q557 335 488 306Q419 277 339 280Q310 281 235 304Q160 327 101 387Q48 442 42.5 483Q37 524 61 488Q85 452 103.5 440Q122 428 122 428ZM286 264Q389 254 454 279.5Q519 305 564 325Q571 272 502.5 237.5Q434 203 370 208Q328 210 275 223Q222 236 185 275Q182 279 171.5 296Q161 313 200 289Q225 277 245 272.5Q265 268 286 264ZM579 320Q599 281 621.5 265Q644 249 698 225Q731 210 742.5 199.5Q754 189 746 175Q746 175 776.5 194.5Q807 214 826 243Q826 243 804 248Q781 253 748 263Q715 273 679 290Q643 306 616 329Q602 318 590.5 319Q579 320 579 320ZM574 315Q574 315 564 279.5Q554 244 489 214Q442 192 478.5 196.5Q515 201 545 215Q576 230 585 249.5Q594 269 590 287Q586 300 581.5 305.5Q577 311 574 315ZM880 335Q880 335 864.5 297.5Q849 260 832 245Q832 245 840 239.5Q848 234 852 210Q863 238 871.5 286.5Q880 335 880 335ZM830 236Q830 236 828 182Q826 128 742 58Q705 27 665.5 10.5Q626 -6 582 -15Q582 -15 520 -14Q458 -13 438 49Q438 49 458 42.5Q478 36 524 39Q590 44 644 63Q698 82 737 109.5Q776 137 800 170Q824 203 830 236ZM503 92Q503 92 517 73Q531 54 568 55Q600 55 640 69Q679 83 715.5 105.5Q752 128 781 159Q809 189 819 224Q819 224 766.5 177Q714 130 615 107Q551 92 527 92Q503 92 503 92ZM838 232Q849 222 850 183Q851 144 833 98Q815 52 772 8Q730 -36 653 -56Q653 -56 604 -63Q555 -70 508 -33Q539 -37 575 -30Q612 -23 647 -9Q682 5 712 23Q742 41 760 60Q800 101 822 143.5Q844 186 838 232ZM279 575Q356 607 423.5 609Q491 611 547 595Q547 595 544.5 591.5Q542 588 537 590Q536 590 538.5 586Q541 582 548 573Q490 596 422 594.5Q354 593 279 575ZM738 447Q738 447 726 456.5Q714 466 695 475Q685 479 673 483Q661 487 649 487Q634 487 620.5 487Q607 487 592 475Q567 444 570 412Q573 379 602.5 349Q632 319 686 294Q740 268 818 253Q810 254 771 290Q732 327 702 367.5Q672 408 671 436Q670 463 738 447ZM744 450Q744 450 747 462.5Q750 475 757 493Q765 511 778.5 526Q792 541 812 537Q843 525 865.5 474.5Q888 424 871 331Q863 302 848 278.5Q833 255 833 255Q835 255 833 308Q831 362 821.5 414Q812 466 794 489Q775 512 744 450ZM746 437Q691 458 691.5 411.5Q692 365 830 247Q829 280 825 332Q820 384 811 423.5Q802 463 786 475Q770 486 746 437Z" fill="#6a9fb5" />
  </g>
</svg>