<?xml version="1.0" encoding="UTF-8"?>
<svg width="16" height="16" viewBox="0 0 16 16" xmlns="http://www.w3.org/2000/svg">
  <g transform="translate(0.019548233695652506, 14.973693311737804) scale(0.015585937499999999, -0.015585937499999999)">
    <path d="M1024 447Q1024 370 994 301Q965 232 914 181Q863 130 794 100Q726 70 648 70L314 70Q249 70 192 95Q135 120 92 163Q49 206 25 264Q0 321 0 386Q2 463 32 525Q63 587 113.5 629Q164 671 230 690Q296 709 368 698Q462 801 577 819Q692 838 792 795.5Q892 753 959 660Q1026 567 1024 447ZM314 644Q261 644 214 624Q167 604 132.5 569Q98 534 77 487Q57 440 57 386Q57 333 77 286Q98 239 132.5 204Q167 169 214 148Q261 128 314 128L449 128Q430 140 412 156.5Q394 173 378 189L314 189Q273 189 237 205Q200 220 173 247.5Q146 275 130 311Q115 347 115 389Q115 430 130 466Q146 503 173 530Q200 557 237 572Q273 588 314 588Q409 583 448 536.5Q487 490 561 420Q582 400 601.5 419.5Q621 439 602 460Q507 560 459 599.5Q411 639 314 644ZM966 449Q966 557 909 633Q853 709 771 742.5Q689 776 596 763Q504 750 432 681Q446 675 459.5 668Q473 661 486 653Q551 703 624 709Q698 714 761 684Q824 654 866 593Q908 532 909 449Q911 369 868 306Q825 243 758 212.5Q691 182 612 191Q533 200 464 265L312 418Q291 437 271 418Q251 399 271 378L424 224Q495 153 588 137Q680 121 762.5 152.5Q845 184 904 260Q962 336 966 449Z" fill="#ac4142" />
  </g>
</svg>