<?xml version="1.0" encoding="UTF-8"?>
<svg width="16" height="16" viewBox="0 0 16 16" xmlns="http://www.w3.org/2000/svg">
  <g transform="translate(0.5099999999999998, 14.55375) scale(0.01462890625, -0.01462890625)">
    <path d="M778 531Q785 518 788 504Q791 490 791 475L655 475Q662 514 679 537Q696 560 729 559Q747 559 759.5 552Q772 545 778 531ZM281 459L396 459L336 685Q331 647 314 586Q297 525 281 459ZM1024 960L1024 -64L0 -64L0 960ZM549 229L390 763Q390 763 335.5 763Q281 763 281 763Q281 754 280.5 745.5Q280 737 279 733Q278 729 277.5 725.5Q277 722 277 719L137 229L219 229L259 380L414 380L457 229L549 229ZM873 470Q873 497 865 523.5Q857 550 842 577Q826 603 798.5 616.5Q771 630 731 630Q692 630 662 614.5Q632 599 610 569Q590 542 579 505Q568 468 567 428.5Q566 389 576 351Q586 313 608 283Q628 253 662 237.5Q696 222 744 222Q770 222 794.5 226Q819 230 842 240Q844 243 845 245Q846 247 846 251L846 311Q846 314 844.5 314.5Q843 315 839 315Q807 299 766 299.5Q725 300 701 313Q679 326 667 351.5Q655 377 655 408L782 408Q798 408 811.5 408.5Q825 409 835 409Q845 410 852 411Q859 412 864 413Q865 413 865.5 413Q866 413 867 414Q868 414 868.5 415Q869 416 870 417Q870 421 870.5 426Q871 431 871 438Q872 445 872.5 453.5Q873 462 873 470Z" fill="#825078" />
  </g>
</svg>