<?xml version="1.0" encoding="UTF-8"?>
<svg width="16" height="16" viewBox="0 0 16 16" xmlns="http://www.w3.org/2000/svg">
  <g transform="translate(0.011425622459350263, 14.99029296875) scale(0.015585937499999999, -0.015585937499999999)">
    <path d="M854 852L522 520Q511 510 501 520.5Q491 531 501 541L833 873Q843 883 853.5 873Q864 863 854 852ZM998 790L833 624Q823 613 833 603Q843 593 854 603L1020 769Q1030 780 1019.5 790Q1009 800 998 790ZM998 873L833 707Q823 696 833 686Q843 676 854 686L1020 852Q1030 863 1019.5 872.5Q1009 882 998 873ZM419 873L253 707Q243 696 253 686Q263 676 274 686L440 852Q450 863 440 873Q430 883 419 873ZM357 686L522 852Q532 862 522.5 872.5Q513 883 501 873L336 707Q326 696 336 686Q346 676 357 686ZM512 19Q575 19 636 42Q697 66 745.5 110.5Q794 155 825 219Q856 283 858 365L858 525L1020 686Q1030 697 1019.5 707Q1009 717 998 707L833 541Q831 539 829.5 536.5Q828 534 828 531L828 365Q827 289 798 230Q770 171 725.5 130.5Q681 90 625 69Q569 49 512 49Q460 49 405 68Q349 88 303.5 127.5Q258 167 228 226Q198 286 195 365L195 531Q195 537 191 541.5Q187 546 181 546L51 546L357 852Q367 862 357 872.5Q347 883 336 873L4 541Q-2 534 1.5 525Q5 516 15 516L166 516L166 365Q169 279 201 214Q233 149 282 106Q331 63 392 41Q452 19 512 19ZM236 638Q236 651 225 657.5Q214 664 202 658Q191 651 191 638.5Q191 626 202 619Q214 613 225 619.5Q236 626 236 638ZM319 638Q319 651 307.5 657.5Q296 664 285 658Q274 651 274 638.5Q274 626 285 619Q296 613 307.5 619.5Q319 626 319 638Z" fill="#4d9085" />
  </g>
</svg>