<?xml version="1.0" encoding="UTF-8"?>
<svg width="16" height="16" viewBox="0 0 16 16" xmlns="http://www.w3.org/2000/svg">
  <g transform="translate(0.5099999999999998, 14.55375) scale(0.01462890625, -0.01462890625)">
    <path d="M303 162L370 341L601 341L675 162L797 162L530 811L425 809L183 162L303 162ZM480 635L555 454L412 454L480 635ZM1024 831Q1024 876 992 908Q960 940 915 940L109 940Q64 940 32 908Q0 876 0 831L0 74Q0 3 38.5 -20.5Q77 -44 108 -44L935 -44Q961 -44 992.5 -18Q1024 8 1024 74ZM109 911L853 911Q882 911 901.5 883Q921 855 921 810Q921 787 921 693Q921 600 921 496Q921 392 921 309Q921 227 921 227Q921 159 881 111Q841 63 785 63L217 63Q147 63 98 111Q49 159 49 227Q49 227 49 319Q49 411 49 524.5Q49 638 49 736Q49 834 49 847Q49 871 66 891Q83 911 109 911Z" fill="#46788d" />
  </g>
</svg>