<?xml version="1.0" encoding="UTF-8"?>
<svg width="16" height="16" viewBox="0 0 16 16" xmlns="http://www.w3.org/2000/svg">
  <g transform="translate(0.5099999999999998, 14.55375) scale(0.01462890625, -0.01462890625)">
    <path d="M344 744L344 720L203 230L285 230L324 376L473 376L511 230L604 230L451 744L344 744ZM452 452L399 669L345 452ZM763 612L679 612L679 230L763 230ZM720 760Q699 760 685 746Q671 732 671 712Q671 691 685 677Q699 663 720 663Q740 663 754.5 677Q769 691 769 712Q769 732 754.5 746Q740 760 720 760ZM1024 -64L0 -64L0 960L1024 960Z" fill="#f4bf75" />
  </g>
</svg>