<?xml version="1.0" encoding="UTF-8"?>
<svg width="16" height="16" viewBox="0 0 16 16" xmlns="http://www.w3.org/2000/svg">
  <g transform="translate(3.8853125000000004, 14.981583180147059) scale(0.015585937499999999, -0.015585937499999999)">
    <path d="M528 -64L0 -64L0 -32L528 -32ZM528 113L0 113L0 145L528 145ZM2 510Q4 627 70 656Q136 685 214 688Q292 691 356 699Q421 706 420 779Q422 823 398 870Q374 917 301 923Q180 934 126.5 885Q73 836 69 757L35 757Q38 811 58 852Q78 893 112.5 918.5Q147 944 195 954Q243 964 302 957Q344 953 397.5 919Q451 885 454 786L454 428Q454 400 475.5 396.5Q497 393 527 397L527 363Q444 362 432.5 382Q421 402 421 473Q383 403 311 374Q239 345 169 352Q99 359 48 399Q-2 440 2 510ZM420 691Q388 660 324 659Q259 658 194.5 653Q130 648 82 621Q33 594 34 510Q34 459 60 432Q85 405 121.5 394Q158 383 196 384Q235 386 260 392Q324 409 371 459.5Q418 510 420 599L420 691Z" fill="#ff00cc" />
  </g>
</svg>