<?xml version="1.0" encoding="UTF-8"?>
<svg width="16" height="16" viewBox="0 0 16 16" xmlns="http://www.w3.org/2000/svg">
  <g transform="translate(0.5099999999999998, 14.55375) scale(0.01462890625, -0.01462890625)">
    <path d="M1012 177Q1009 179 1006.5 180.5Q1004 182 1003 183Q999 186 995 189.5Q991 193 987 197Q982 202 976.5 206.5Q971 211 965 216Q963 217 961 218.5Q959 220 957 221Q973 231 988.5 237.5Q1004 244 1019 248Q1021 248 1022 248.5Q1023 249 1024 249L1024 175Q1022 175 1020 175Q1018 175 1016 175Q1015 175 1014 176Q1013 177 1012 177ZM669 222Q669 222 669.5 221.5Q670 221 670 221Q672 218 674 216.5Q676 215 679 213Q680 212 680.5 211.5Q681 211 682 210Q685 209 687 207.5Q689 206 691 205Q695 204 698 203Q701 202 704 202Q702 234 702 271.5Q702 309 701 349Q701 423 699 502.5Q697 582 689 646Q680 719 663 755Q646 791 621 791Q618 791 615 790.5Q612 790 609 789Q571 779 523 773.5Q475 768 422 768Q377 768 313 774.5Q249 781 182 801Q120 820 74 848Q28 876 0 913L0 375Q7 375 14.5 375.5Q22 376 31 376Q38 376 45.5 375.5Q53 375 60 375Q62 375 64 375Q66 375 68 375Q84 375 100 374Q116 373 131 372Q144 387 171 407Q198 427 247 443Q271 451 295.5 455Q320 459 344 459Q362 459 379.5 457Q397 455 414 450Q471 435 521.5 395Q572 355 621 287Q625 285 629.5 281Q634 277 638 273Q637 277 636 280Q635 283 634 287Q624 321 612 352.5Q600 384 587 412Q564 459 538.5 494Q513 529 484 553Q467 567 436 585Q405 603 369 603Q367 603 364.5 603Q362 603 359 602Q359 602 358.5 602Q358 602 357 602Q350 602 346 607Q342 612 341 618Q341 624 344.5 629Q348 634 355 635Q359 635 362 635.5Q365 636 368 636Q395 636 422.5 626Q450 616 477 596Q504 575 524.5 552Q545 529 558 511Q581 478 600.5 437Q620 396 637 344Q648 313 655.5 281.5Q663 250 669 222ZM466 -39Q465 -39 463.5 -39Q462 -39 461 -39Q457 -39 452.5 -39.5Q448 -40 442 -41Q438 -46 433.5 -52Q429 -58 425 -64L575 -64Q574 -64 573 -63.5Q572 -63 571 -62Q546 -51 519 -45Q492 -39 466 -39ZM783 103Q792 103 798.5 111Q805 119 810 127L811 129Q814 133 817 138Q820 143 823 148Q827 154 831 160.5Q835 167 839 173Q860 205 875 213Q890 221 901 221Q904 221 906 221Q908 221 911 220Q939 244 967 259Q995 274 1024 281L1024 313Q1021 315 1019 316Q1017 317 1014 319Q1008 322 1002 325Q996 328 989 329Q984 331 979 331.5Q974 332 969 332Q939 332 913 314.5Q887 297 870 278Q848 256 829 226.5Q810 197 791 157L791 157Q785 146 779 133.5Q773 121 769 109Q771 107 773.5 105.5Q776 104 778 103Q779 103 780.5 103Q782 103 783 103ZM996 -20Q976 -29 955 -40Q934 -51 910 -64L1024 -64L1024 -11Q1017 -13 1010 -15.5Q1003 -18 996 -20ZM851 -39L851 -39Q853 -39 856.5 -38Q860 -37 864 -35Q869 -34 874.5 -32.5Q880 -31 885 -31Q889 -31 891.5 -32Q894 -33 896 -35Q898 -37 898.5 -39.5Q899 -42 899 -45Q914 -35 928.5 -26Q943 -17 957 -9Q974 0 990.5 8.5Q1007 17 1024 22L1024 56Q1024 56 1023.5 56Q1023 56 1023 56Q1022 57 1021 57Q1020 57 1019 57Q1007 59 995 60Q983 61 970 61Q959 61 948 60Q937 59 925 58Q910 56 894 53Q878 50 862 46Q841 33 840.5 4Q840 -25 842 -37Q844 -38 846 -38.5Q848 -39 851 -39ZM1024 349L1024 960L869 960Q851 949 821 920Q791 891 786 848Q784 833 781 745Q778 656 775 542.5Q772 429 769 315Q766 202 765 137Q766 139 767 141.5Q768 144 769 146Q784 182 800.5 211Q817 240 835 265Q867 309 892 326.5Q917 344 933 350Q943 354 954 356Q965 358 976 358Q988 358 999.5 355.5Q1011 353 1024 349ZM802 41Q808 44 813.5 46.5Q819 49 826 52Q838 76 856.5 97.5Q875 119 896 134Q913 146 932 154.5Q951 163 973 168Q974 174 972.5 179Q971 184 968 188Q964 192 958.5 194.5Q953 197 945 197Q941 197 936 196Q931 195 927 193Q922 192 917 189.5Q912 187 907 185Q876 159 847.5 127.5Q819 96 793 60Q792 56 790.5 50.5Q789 45 791 43Q791 42 792 41Q793 40 797 40Q798 40 799.5 40.5Q801 41 802 41ZM1024 88L1024 142Q1023 142 1022 142.5Q1021 143 1020 143Q1019 143 1017.5 143Q1016 143 1015 143L1015 143Q992 143 971.5 138.5Q951 134 932 125Q911 116 891 100Q871 84 856 64Q891 76 928 82.5Q965 89 1003 89Q1009 89 1014 89Q1019 89 1024 88ZM436 -5Q408 2 384 5.5Q360 9 339 9Q321 9 304.5 6.5Q288 4 275 -2Q273 -2 271.5 -2.5Q270 -3 268 -3Q262 -3 258 1.5Q254 6 253 11Q252 17 254.5 22Q257 27 263 29Q277 34 293.5 36.5Q310 39 328 39Q352 39 380 34.5Q408 30 439 21Q444 20 449 18.5Q454 17 459 15Q481 32 502 42Q523 52 543 55Q551 57 566 60Q581 63 590 67Q582 71 575 74Q568 77 561 79Q539 87 517.5 90.5Q496 94 475 94Q475 94 474.5 94Q474 94 473 94Q450 94 427.5 90.5Q405 87 384 80Q382 79 380 78Q378 77 375 76Q370 73 364.5 71Q359 69 354 69Q353 69 352 69Q351 69 351 69Q345 70 341.5 74Q338 78 338 84Q337 89 340 93.5Q343 98 348 101Q370 110 397 114.5Q424 119 455 119Q465 119 475.5 118.5Q486 118 497 117Q507 117 515.5 116.5Q524 116 531 116Q556 116 561 119Q566 122 566 122Q566 124 563 127Q560 130 553 133L552 133L552 133Q552 134 551.5 134Q551 134 550 135Q536 142 521 148Q506 154 491 158Q472 164 453.5 166.5Q435 169 417 169Q403 169 389.5 167.5Q376 166 363 163Q349 159 335 153.5Q321 148 307 141Q286 115 265.5 82Q245 49 228 9Q218 -13 211.5 -30.5Q205 -48 201 -64L287 -64Q317 -44 353 -31Q389 -18 427 -15L436 -5ZM587 36Q580 40 573 41.5Q566 43 559 43Q555 42 552.5 41.5Q550 41 547 41Q532 37 516.5 28Q501 19 485 5Q512 -5 540.5 -18.5Q569 -32 602 -51Q605 -44 606.5 -37Q608 -30 610 -23Q610 -4 606.5 11Q603 26 587 36ZM397 -49Q386 -52 375 -55.5Q364 -59 354 -64L386 -64Q386 -63 386.5 -62.5Q387 -62 388 -61Q390 -58 392.5 -55Q395 -52 397 -49ZM234 83Q217 64 201 42.5Q185 21 171 -3Q162 -19 154.5 -34.5Q147 -50 141 -64L167 -64Q174 -33 188 -3.5Q202 26 215 51Q220 59 224.5 67Q229 75 234 83ZM548 208Q541 211 534 214Q527 217 520 219Q508 222 494.5 224Q481 226 468 226Q463 226 458.5 226Q454 226 450 225Q440 224 428.5 221.5Q417 219 409 216Q394 210 379.5 202Q365 194 351 183Q365 186 378.5 187.5Q392 189 406 189Q443 189 481.5 178.5Q520 168 561 147Q566 145 570 144.5Q574 144 577 144Q581 144 584 145Q587 146 589 148Q590 149 591 150.5Q592 152 593 154Q585 171 573.5 185Q562 199 548 208ZM293 160L294 162Q295 163 297 165Q299 167 300 168Q329 198 359.5 216Q390 234 421 241Q422 242 422.5 242Q423 242 423 242Q423 242 423 242Q423 242 423 242Q407 244 393 244.5Q379 245 366 245Q363 245 360.5 245Q358 245 356 245Q290 243 231.5 221.5Q173 200 130 160Q86 121 54.5 66Q23 11 1 -64L107 -64Q107 -62 107 -60.5Q107 -59 108 -57Q122 -23 141 8.5Q160 40 182 67Q207 98 235 121Q263 144 293 160ZM605 256Q605 259 605.5 263Q606 267 606 272Q606 273 606 273.5Q606 274 605 274Q605 275 605 275.5Q605 276 605 277Q596 290 586.5 302.5Q577 315 566 327Q544 352 520 371.5Q496 391 469 405Q442 420 411.5 427.5Q381 435 350 435Q311 435 274 424Q237 413 204 392Q196 387 188.5 381Q181 375 173 368Q184 367 195 365.5Q206 364 217 362Q253 357 284.5 350Q316 343 343 334Q377 323 405.5 308.5Q434 294 459 277Q461 275 473.5 271Q486 267 498 267Q500 267 502 267Q504 267 506 268Q515 270 526.5 272.5Q538 275 550 275Q562 275 573 272Q584 269 594 263Q597 262 599.5 260Q602 258 605 256ZM185 229Q211 241 239 250Q267 259 297 263Q312 266 328 267Q344 268 360 268Q365 268 369.5 268Q374 268 379 268Q388 267 396.5 266.5Q405 266 413 265Q414 265 415 265Q416 265 417 265Q422 265 425 266.5Q428 268 429 270Q429 273 427 276.5Q425 280 418 283Q402 293 384.5 299.5Q367 306 350 311Q314 322 273 329.5Q232 337 185 342Q176 342 167.5 343Q159 344 150 344Q147 340 141.5 333.5Q136 327 131 327Q129 327 128 327.5Q127 328 126 329Q124 331 123.5 335Q123 339 124 345Q112 346 101.5 346Q91 346 80 346Q67 346 54 345.5Q41 345 27 344Q20 344 13 343.5Q6 343 0 342L0 26Q18 67 40 100Q62 133 90 161Q110 181 134 198Q158 215 185 229Z" fill="#ac4142" />
  </g>
</svg>