<?xml version="1.0" encoding="UTF-8"?>
<svg width="16" height="16" viewBox="0 0 16 16" xmlns="http://www.w3.org/2000/svg">
  <g transform="translate(0.020000000000000462, 14.9825) scale(0.015585937499999999, -0.015585937499999999)">
    <path d="M768 891L256 891L0 448L256 5L768 5L1024 448ZM294 369L372 447L372 339Q352 340 332.5 348Q313 356 294 369ZM600 348Q564 385 519 430Q474 475 424 524L247 348Q226 334 194.5 341.5Q163 349 135 369L425 656Q460 620 495 584Q530 548 565.5 512Q601 476 638 440Q674 404 711 369Q675 343 645 339.5Q615 336 600 348ZM769 348L627 490L612 476L546 542L627 623Q659 590 691 558Q723 526 755 494Q787 462 818 431Q850 399 881 369Q850 347 819 340.5Q788 334 769 348Z" fill="#46788d" />
  </g>
</svg>