<?xml version="1.0" encoding="UTF-8"?>
<svg width="16" height="16" viewBox="0 0 16 16" xmlns="http://www.w3.org/2000/svg">
  <g transform="translate(-0.01258877840909077, 14.676202445652175) scale(0.015585937499999999, -0.015585937499999999)">
    <path d="M986 320Q1000 294 994.5 262Q989 230 952 208Q943 130 886 123Q829 116 731 171L615 171Q616 161 606 134Q595 106 578.5 78Q562 50 541 28Q521 7 499 7Q476 7 441 25Q406 43 364 65Q322 87 274 107Q227 127 179 132Q18 150 10 192.5Q2 235 5 254Q7 265 26 293Q45 321 73 357Q101 393 134 435Q168 476 200 514Q242 591 276.5 615Q311 639 311 639Q311 639 309 664Q308 690 307.5 724Q307 758 309 792Q311 826 319 841Q364 861 412.5 835Q461 809 484 771L701 771Q743 804 775.5 825Q808 846 824 835Q848 818 848 773.5Q848 729 830 671L928 586L915 549L1024 360L986 320ZM682 553Q673 553 660 552Q647 551 637 547Q645 526 673.5 505.5Q702 485 722 486Q745 487 748 514Q751 541 751 541Q751 541 745 542.5Q739 544 733 546Q735 531 732 522Q729 513 724 509Q718 505 708 506.5Q698 508 691 514Q686 519 684.5 528Q683 537 685 545Q687 542 690 539.5Q693 537 698 536Q704 536 706 542Q708 548 708 548Q703 551 696 551.5Q689 552 682 553Z" fill="#7c4426" />
  </g>
</svg>