<?xml version="1.0" encoding="UTF-8"?>
<svg width="16" height="16" viewBox="0 0 16 16" xmlns="http://www.w3.org/2000/svg">
  <g transform="translate(-0.47372727382330015, 15.413158200034612) scale(0.016542968749999998, -0.016542968749999998)">
    <path d="M967 870L880 685Q834 752 777 797Q719 841 654 863.5Q589 886 517 886Q445 887 369 866Q263 836 198 774Q134 712 103.5 636.5Q73 561 73 481Q73 400 96 333L139 418Q127 488 140 551Q153 614 186 665Q219 716 270 753Q322 790 386 809Q468 836 544 827Q620 818 683 785Q746 752 792 702Q838 652 859 598Q875 562 882 527Q889 492 889 448Q890 309 806 214Q723 118 607.5 86.5Q492 55 371 98Q250 141 177 280L324 592L354 526L279 364Q266 337 293 324.5Q320 312 333 339L387 454L475 258Q489 231 518.5 229.5Q548 228 564 258L609 355L679 230Q693 214 706.5 214.5Q720 215 732 232L858 500Q856 520 848.5 540.5Q841 561 830 579L762 435L647 652Q632 678 604.5 676Q577 674 565 650L463 431L361 654Q349 679 323 677.5Q297 676 287 654L3 51Q-9 25 17.5 12Q44 -1 57 26L146 214Q239 71 376 32Q513 -8 640.5 33Q768 74 859 183Q949 293 949 447Q949 447 949 447.5Q949 448 949 448Q949 497 941 538Q933 579 915 620L1021 844Q1034 872 1006.5 884.5Q979 897 967 870ZM669 486L731 369L703 310L640 422L669 486ZM607 603L635 551L520 305L494 362L607 603Z" fill="#be2f31" />
  </g>
</svg>