<?xml version="1.0" encoding="UTF-8"?>
<svg width="16" height="16" viewBox="0 0 16 16" xmlns="http://www.w3.org/2000/svg">
  <g transform="translate(0.020000000000000462, 14.9825) scale(0.015585937499999999, -0.015585937499999999)">
    <path d="M907 393L748 803L475 803L0 93Q72 131 162 171Q252 210 364.5 248.5Q477 287 612 324Q747 361 907 393ZM578 563Q584 545 609 474.5Q634 404 640 387Q626 387 555.5 387Q485 387 466 387Q467 389 483 413Q499 438 518.5 468.5Q538 499 555 527Q573 555 578 563ZM744 93Q744 93 718.5 166Q693 239 683 266Q742 279 806 291Q870 303 938 314L1024 93L744 93Z" fill="#6a9fb5" />
  </g>
</svg>