<?xml version="1.0" encoding="UTF-8"?>
<svg width="16" height="16" viewBox="0 0 16 16" xmlns="http://www.w3.org/2000/svg">
  <g transform="translate(0.5099999999999998, 14.55375) scale(0.01462890625, -0.01462890625)">
    <path d="M594 549L594 631L702 631L702 56L594 56L594 149Q594 149 552 96Q510 43 396 42Q344 41 290 58Q236 75 192 111.5Q148 148 119 205Q91 262 90 342Q90 419 116 476Q142 533 185 570Q228 607 281 625Q334 644 388 644Q455 645 511.5 617.5Q568 590 594 549ZM594 343Q594 402 566 448Q538 495 495 521Q452 547 399 548Q346 550 297 521Q247 491 223 443Q198 395 198 342.5Q198 290 223 242Q247 194 297 164Q346 135 399 137Q452 138 495 164.5Q538 191 566 237Q594 283 594 343ZM816 751L816 -64L1024 306L1024 960L378 960L0 751Z" fill="#d28445" />
  </g>
</svg>