<?xml version="1.0" encoding="UTF-8"?>
<svg width="16" height="16" viewBox="0 0 16 16" xmlns="http://www.w3.org/2000/svg">
  <g transform="translate(0.020000000000000462, 13.771249999999998) scale(0.00890625, -0.00890625)">
    <path d="M941 1235Q941 1235 950.5 1244.5Q960 1254 960 1280Q960 1306 941 1325Q922 1344 896 1344Q870 1344 851 1325Q832 1306 832 1280Q832 1254 851 1235Q870 1216 896 1216Q922 1216 941 1235ZM1792 352L1792 0Q1792 -22 1772 -30Q1764 -32 1760 -32Q1748 -32 1737 -23L1644 70Q1525 -73 1325.5 -156.5Q1126 -240 896 -240Q666 -240 466.5 -156.5Q267 -73 148 70L55 -23Q46 -32 32 -32Q28 -32 20 -30Q0 -22 0 0L0 352Q0 366 9 375Q18 384 32 384L384 384Q406 384 414 364Q422 345 407 329L307 229Q374 138 496.5 75.5Q619 13 768 -7L768 640L576 640Q550 640 531 659Q512 678 512 704L512 832Q512 858 531 877Q550 896 576 896L768 896L768 1059Q710 1093 675 1151.5Q640 1210 640 1280Q640 1386 715 1461Q790 1536 896 1536Q1002 1536 1077 1461Q1152 1386 1152 1280Q1152 1210 1117 1151.5Q1082 1093 1024 1059L1024 896L1216 896Q1242 896 1261 877Q1280 858 1280 832L1280 704Q1280 678 1261 659Q1242 640 1216 640L1024 640L1024 -7Q1173 13 1295.5 75.5Q1418 138 1485 229L1385 329Q1370 345 1378 364Q1386 384 1408 384L1760 384Q1774 384 1783 375Q1792 366 1792 352Z" fill="#46788d" />
  </g>
</svg>