<?xml version="1.0" encoding="UTF-8"?>
<svg width="16" height="16" viewBox="0 0 16 16" xmlns="http://www.w3.org/2000/svg">
  <g transform="translate(1.7300000000000004, 13.13) scale(0.00890625, -0.00890625)">
    <path d="M466 1064.5Q466 1064.5 471.5 1058.75Q477 1053 493 1053Q509 1053 520.5 1064.5Q532 1076 532 1092Q532 1108 520.5 1119.5Q509 1131 493 1131Q477 1131 466 1119.5Q455 1108 455 1092Q455 1076 466 1064.5ZM887.5 1064.5Q887.5 1064.5 893.25 1058.75Q899 1053 915 1053Q931 1053 942 1064.5Q953 1076 953 1092Q953 1108 942 1119.5Q931 1131 915 1131Q899 1131 887.5 1119.5Q876 1108 876 1092Q876 1076 887.5 1064.5ZM103 869Q145 869 175 839Q205 809 205 767L205 337Q205 294 175.5 264Q146 234 103 234Q60 234 30 264Q0 294 0 337L0 767Q0 809 30 839Q60 869 103 869ZM1163 850L1163 184Q1163 138 1131 106Q1099 74 1054 74L979 74L979 -153Q979 -196 949 -226Q919 -256 876 -256Q833 -256 803 -226Q773 -196 773 -153L773 74L635 74L635 -153Q635 -196 605 -226Q575 -256 532 -256Q490 -256 460 -226Q430 -196 430 -153L429 74L355 74Q309 74 277 106Q245 138 245 184L245 850ZM931 1255Q1038 1200 1102 1101.5Q1166 1003 1166 886L241 886Q241 1003 305 1101.5Q369 1200 477 1255L406 1386Q399 1399 411 1406Q424 1412 431 1400L503 1268Q598 1310 704 1310Q810 1310 905 1268L977 1400Q984 1412 997 1406Q1009 1399 1002 1386ZM1408 767L1408 337Q1408 294 1378 264Q1348 234 1305 234Q1263 234 1233 264Q1203 294 1203 337L1203 767Q1203 810 1233 839.5Q1263 869 1305 869Q1348 869 1378 839.5Q1408 810 1408 767Z" fill="#90a959" />
  </g>
</svg>