<?xml version="1.0" encoding="UTF-8"?>
<svg width="16" height="16" viewBox="0 0 16 16" xmlns="http://www.w3.org/2000/svg">
  <g transform="translate(-1.0300000000000011, 15.899990234375002) scale(0.017636718750000002, -0.017636718750000002)">
    <path d="M0 515Q0 515 42 515Q84 515 121 518Q137 520 172.5 531.5Q208 543 251 553Q277 558 304 562.5Q331 567 345 569Q355 571 358.5 566Q362 561 348 539Q331 513 333.5 482.5Q336 452 345 431Q361 393 409.5 375.5Q458 358 498 357Q563 356 599 373.5Q635 391 657 423Q671 443 660 481Q649 519 641 547Q636 563 640.5 565Q645 567 651 567Q672 567 713.5 560.5Q755 554 831 535Q876 524 950 530Q1024 536 1024 536Q976 516 925 513Q875 511 830 515.5Q785 520 750 528Q716 535 700 537Q696 537 693.5 535Q691 533 690 525Q688 498 690 464.5Q692 431 681 412Q656 371 614 353Q572 335 528 328Q492 322 438.5 337Q385 352 352 377Q324 398 314.5 434Q305 470 310 531Q273 538 239 529Q205 520 193 517Q101 497 50.5 506Q0 515 0 515ZM501 510Q482 509 468.5 499.5Q455 490 450 470Q441 443 453 411Q465 379 501 377Q501 377 515.5 380.5Q530 384 539 406Q543 413 543.5 423Q544 433 545 446Q549 497 525 503.5Q501 510 501 510ZM514 402Q495 390 479.5 410Q464 430 464 441Q465 451 473.5 471Q482 491 499 489Q517 488 526.5 453.5Q536 419 514 402ZM147 468Q145 476 122.5 469Q100 462 100 462Q61 451 53 446.5Q45 442 104 450Q104 450 127 455.5Q150 461 147 468ZM162 409Q174 418 196 431.5Q218 445 212 449Q201 464 158 422.5Q115 381 111 355Q111 355 131 378Q151 401 162 409ZM252 383Q263 392 270.5 401Q278 410 279 415Q279 419 274 422Q269 425 264 420Q248 404 235 380.5Q222 357 229 335Q229 335 231 350.5Q233 366 252 383ZM721 409Q710 398 736.5 385Q763 372 773 335Q781 335 771 362Q761 389 740 404Q729 411 725 410Q721 409 721 409ZM881 362Q866 386 846.5 406Q827 426 813 436Q791 451 788 446.5Q785 442 791 436Q798 430 825 409.5Q852 389 870 365Q888 338 886 348Q884 358 881 362ZM974 463Q974 463 912.5 473Q851 483 849 472Q845 458 909.5 460.5Q974 463 974 463Z" fill="#6a9fb5" />
  </g>
</svg>