<?xml version="1.0" encoding="UTF-8"?>
<svg width="16" height="16" viewBox="0 0 16 16" xmlns="http://www.w3.org/2000/svg">
  <g transform="translate(0.5099999999999998, 14.55375) scale(0.01462890625, -0.01462890625)">
    <path d="M339 686L395 467L285 467L339 686ZM1024 960L1024 -64L0 -64L0 960ZM543 247L391 759L286 759Q285 739 284 732Q283 725 281 717L146 247L227 247L265 390Q265 390 340 390Q415 390 415 390L454 247ZM867 495Q867 550 845 582Q823 614 784.5 625.5Q746 637 694 630Q642 623 582 600Q584 580 584.5 566Q585 552 585 549L585 246L671 246L671 549Q723 564 755 552.5Q787 541 786 488L786 247L867 247L867 495Z" fill="#ac4142" />
  </g>
</svg>