<?xml version="1.0" encoding="UTF-8"?>
<svg width="16" height="16" viewBox="0 0 16 16" xmlns="http://www.w3.org/2000/svg">
  <g transform="translate(0.5101875500801274, 14.565115732406877) scale(0.01462890625, -0.01462890625)">
    <path d="M737 531L531 156Q592 48 651.5 5.5Q711 -37 809 -33Q856 -31 904 -1Q951 30 983 77Q1015 124 1023 181Q1031 238 1000 294L794 658Q789 640 765.5 591.5Q742 543 737 531ZM433 79Q349 -29 255 -33Q161 -38 94 17Q27 72 5 167Q-17 262 42 354Q42 354 69 402Q96 450 133.5 515.5Q171 581 211 651Q250 720 275 763Q313 829 356.5 870.5Q400 912 456 925Q523 942 594 910Q665 878 707 813Q736 768 750.5 720Q765 672 720 594Q717 589 674 511Q631 432 579 338.5Q527 245 483 165Q438 86 433 79ZM449 608Q495 581 541 608Q587 635 587 688Q587 741 541 767.5Q495 794 449 768Q403 741 403 687.5Q403 634 449 608Z" fill="#8f5536" />
  </g>
</svg>