<?xml version="1.0" encoding="UTF-8"?>
<svg width="16" height="16" viewBox="0 0 16 16" xmlns="http://www.w3.org/2000/svg">
  <g transform="translate(0.5099999999999998, 14.556064700356014) scale(0.01462890625, -0.01462890625)">
    <path d="M522 730L701 288L430 501L522 730ZM1024 448Q1024 301 952 185Q880 70 767.5 5.5Q655 -59 519 -64Q383 -69 255 5Q128 79 64 199Q0 319 0 448Q0 577 64 697Q128 817 255 891Q383 965 519 960Q655 955 767.5 890.5Q880 826 952 711Q1024 595 1024 448ZM840 186L564 849Q554 879 521.5 878.5Q489 878 478 849L175 121L279 121L398 421L756 133Q789 102 823 124Q857 146 840 186Z" fill="#4d9085" />
  </g>
</svg>