<?xml version="1.0" encoding="UTF-8"?>
<svg width="16" height="16" viewBox="0 0 16 16" xmlns="http://www.w3.org/2000/svg">
  <g transform="translate(0.5099999999999998, 14.55375) scale(0.01462890625, -0.01462890625)">
    <path d="M512 960Q406 960 313 920Q219 880 149.5 810.5Q80 741 40 647Q0 554 0 448Q0 342 40 249Q80 155 149.5 85.5Q219 16 313 -24Q406 -64 512 -64Q618 -64 711 -24Q805 16 874.5 85.5Q944 155 984 249Q1024 342 1024 448Q1024 554 984 647Q944 741 874.5 810.5Q805 880 711 920Q618 960 512 960ZM788 180Q780 177 768.5 175.5Q757 174 749 179L428 357L655 356L513 674L306 206Q297 186 280 178.5Q263 171 242 179Q215 188 210.5 207.5Q206 227 214 246L444 765Q444 765 444.5 765.5Q445 766 445 766Q454 786 473 798Q492 810 514 810Q536 810 554.5 797.5Q573 785 582 764L814 246Q822 227 814.5 208Q807 189 788 180Z" fill="#ac4142" />
  </g>
</svg>