<?xml version="1.0" encoding="UTF-8"?>
<svg width="16" height="16" viewBox="0 0 16 16" xmlns="http://www.w3.org/2000/svg">
  <g transform="translate(-1.0320350060096164, 15.903013671875001) scale(0.017636718750000002, -0.017636718750000002)">
    <path d="M172 367Q173 368 173.5 369.5Q174 371 174 372Q175 381 178.5 389.5Q182 398 186 407Q190 417 213 431.5Q236 446 250 451Q254 452 260.5 452.5Q267 453 275 453ZM391 524Q387 522 366.5 502.5Q346 483 339 477Q332 472 323.5 470.5Q315 469 315 469L297 450Q306 448 313 446.5Q320 445 323 443Q326 441 328 438.5Q330 436 331 433Q333 433 338.5 434Q344 435 347 437Q352 439 361.5 442Q371 445 378 440Q384 436 382 424Q380 412 382 411Q382 411 383.5 411Q385 411 386 410Q386 415 389.5 418Q393 421 393 421Q393 421 392.5 436Q392 451 392 461Q392 471 395.5 491Q399 511 399 517Q400 524 397.5 525Q395 526 391 524ZM393 369Q391 372 387.5 372.5Q384 373 381 374Q382 372 382.5 370.5Q383 369 383 367Q388 351 395.5 337Q403 323 403 323Q403 323 405.5 322Q408 321 410 325Q412 327 416.5 330Q421 333 426 336Q425 338 424 338.5Q423 339 423 339Q423 339 418.5 337.5Q414 336 407 338Q402 340 402 343Q402 346 403 351Q401 355 398.5 361Q396 367 393 369ZM342 394Q339 396 335 398.5Q331 401 329 402Q328 399 328.5 396Q329 393 330 391Q330 390 330 388.5Q330 387 330 386Q333 388 336 390Q339 392 342 394ZM290 453Q290 453 300 463.5Q310 474 313 479L281 452Q283 452 285 452Q287 452 289 451ZM639 753L335 498Q343 503 350.5 508Q358 513 365 517Q377 524 385.5 529Q394 534 394 534Q394 534 399.5 534.5Q405 535 408 532Q412 530 414 515.5Q416 501 418 484Q419 468 414.5 446Q410 424 410 424Q410 424 410.5 424Q411 424 415 422Q420 420 420 408.5Q420 397 415 394Q412 392 411.5 388Q411 384 412 380Q414 378 416 376.5Q418 375 420 373Q420 374 420.5 374Q421 374 422 375Q424 377 425 381.5Q426 386 429 395Q430 399 434.5 403Q439 407 445 410Q443 422 442.5 446Q442 470 441 472Q440 474 438.5 478Q437 482 437 488Q437 495 440 500.5Q443 506 447 508Q452 510 454.5 507Q457 504 458 499Q459 494 461 464Q463 434 464 419Q464 419 464.5 419Q465 419 465 419Q471 422 475.5 420.5Q480 419 483 416Q485 417 486 419.5Q487 422 488 425Q489 431 511.5 447.5Q534 464 539 469Q541 470 544 471Q547 472 550 472Q555 477 561 483Q567 489 571 492Q579 497 585.5 498Q592 499 592 499Q592 499 594.5 496Q597 493 604 484Q607 481 609.5 477Q612 473 615 469Q618 476 624 482.5Q630 489 641 490Q653 491 676 484Q699 477 706 471Q713 465 723.5 455Q734 445 740 439Q740 439 749.5 429.5Q759 420 762 419Q762 419 762 419Q762 419 762 419Q764 420 766 420.5Q768 421 768 421Q770 422 773.5 424Q777 426 781 429L643 753L639 753ZM700 367Q703 371 702 378Q701 385 697 392Q693 398 691.5 400Q690 402 686 402Q680 403 674.5 396.5Q669 390 679 378Q688 366 692.5 365Q697 364 700 367ZM1018 380Q1018 380 1010 387Q1002 394 993 398Q984 402 982 405Q980 408 975 409Q970 409 961.5 411Q953 413 946 416Q938 420 920.5 427.5Q903 435 894 440Q884 445 878 448.5Q872 452 870 455Q867 457 862.5 457Q858 457 850 455Q850 455 833 451Q816 447 808 443Q803 441 796.5 437.5Q790 434 783 430L786 423Q789 425 792 427Q795 429 798 430Q809 435 819.5 438.5Q830 442 842 443Q854 444 857 444.5Q860 445 860 445Q860 445 865 445Q870 445 876 442Q883 439 910.5 425Q938 411 943 409Q949 407 956.5 403Q964 399 970 395Q976 390 980 389.5Q984 389 984 389Q984 389 988 385Q992 381 999 377Q1005 373 1008 370.5Q1011 368 1015 367Q1019 366 1023 365.5Q1027 365 1018 380ZM600 455Q598 463 596 471.5Q594 480 594 483Q592 488 588.5 487.5Q585 487 580 481L580 481Q578 478 576 473.5Q574 469 572 466Q577 464 581 460.5Q585 457 588 452Q590 453 593 453.5Q596 454 600 455ZM569 376Q568 373 565.5 369Q563 365 560 362Q550 355 542 351Q534 347 538 346Q542 344 547.5 347.5Q553 351 559 354Q565 358 589.5 363Q614 368 614 368L614 368Q616 369 619 369.5Q622 370 625 371Q620 374 615.5 378Q611 382 609 386Q606 391 603 397.5Q600 404 600 412Q598 412 597 412.5Q596 413 594 413Q591 405 584.5 397Q578 389 571 380Q571 379 570.5 378Q570 377 569 376ZM673 154Q664 157 655 162.5Q646 168 645 170Q643 173 640.5 174.5Q638 176 638 176Q638 176 629 187Q620 198 613 211Q613 211 612.5 212.5Q612 214 611 217L872 217L784 422Q780 417 776.5 413.5Q773 410 771 409Q770 408 769 408Q768 408 767 409Q767 406 767.5 403.5Q768 401 768 401Q771 397 774 382Q777 367 776 359Q776 351 774.5 346Q773 341 772 340Q772 338 772.5 336.5Q773 335 774 334Q776 327 776 325Q776 323 778 323Q779 323 782 320.5Q785 318 787 316Q790 315 805.5 307Q821 299 830 292Q838 286 843 274.5Q848 263 852 249Q855 234 852.5 231.5Q850 229 847 229Q843 230 838 239.5Q833 249 832 260Q831 270 824 280.5Q817 291 810 297Q804 303 790.5 306Q777 309 775 311Q772 312 772 313.5Q772 315 772 315Q772 315 770 316.5Q768 318 767 321Q766 322 765.5 323Q765 324 765 326Q764 324 761.5 322.5Q759 321 754 321Q745 321 728 326Q711 331 699 335Q691 338 679 342.5Q667 347 658 351Q665 334 677.5 311Q690 288 691 286Q692 284 698 282Q704 280 708 278Q713 276 715.5 263.5Q718 251 722 248Q727 245 743 244Q759 243 768 241Q777 239 777.5 235.5Q778 232 775 230Q771 228 749 233Q727 238 719 239Q712 241 708 247Q704 253 701 259Q698 265 696 268.5Q694 272 688 271Q683 271 681.5 275Q680 279 674 277Q668 275 666.5 281.5Q665 288 656 304Q647 320 642 335Q637 350 634 351Q632 352 626 350.5Q620 349 616 347Q612 345 595.5 335.5Q579 326 574 321Q569 316 551 322.5Q533 329 528 331Q522 333 518.5 340Q515 347 515 352Q515 353 515.5 354Q516 355 517 357Q515 357 514 357Q513 357 512 357Q506 358 505 356Q504 354 502 349Q501 347 499.5 345.5Q498 344 496 344Q498 340 499 336.5Q500 333 501 330Q503 323 501.5 318Q500 313 503 311Q506 308 509 307.5Q512 307 518 312Q524 318 533.5 320Q543 322 552 320Q560 318 576 289.5Q592 261 598 247Q601 240 603.5 233.5Q606 227 609 222L598 222Q597 223 596.5 223.5Q596 224 595 225Q589 232 575.5 255Q562 278 558 285Q555 292 548.5 298.5Q542 305 538 301Q534 298 521.5 292.5Q509 287 503 289Q497 291 496.5 296.5Q496 302 496 302Q496 302 493 305Q490 308 486 308Q482 308 476 314.5Q470 321 469 332Q469 336 469 339Q469 342 469 344Q464 342 459.5 342Q455 342 455 342Q455 342 455 342Q455 342 455 341Q457 340 458 337.5Q459 335 459 332Q459 325 456.5 319.5Q454 314 448 311Q442 307 439 310Q436 313 432 309Q428 305 420.5 302.5Q413 300 411 305Q410 308 407 307.5Q404 307 399 307Q395 308 394.5 310.5Q394 313 394 313Q394 313 387.5 319.5Q381 326 374 336Q368 345 362 358.5Q356 372 356 379Q356 386 350.5 386Q345 386 341 385Q340 385 336.5 382.5Q333 380 328 376Q325 369 321 361.5Q317 354 311 347Q302 334 286.5 321Q271 308 259 304Q258 303 256 302.5Q254 302 252 302Q250 300 247.5 298.5Q245 297 243 295Q239 288 214 262.5Q189 237 187 234Q186 233 181.5 229.5Q177 226 171 222L161 222Q169 229 175 234.5Q181 240 183 243Q188 248 199.5 262Q211 276 221 290Q217 290 213 289.5Q209 289 207 289Q195 288 188 290.5Q181 293 181 293Q171 315 169 331.5Q167 348 170 359L0 217L155 217Q139 203 122.5 190Q106 177 101 175Q93 173 91.5 172.5Q90 172 96 169Q102 166 111.5 168Q121 170 125 176Q129 182 134.5 190.5Q140 199 145 203Q147 205 152 209Q157 213 163 217L602 217Q608 210 614 201.5Q620 193 626 186Q634 175 633 172.5Q632 170 634 170Q637 170 636.5 168.5Q636 167 638 165Q640 163 649 158Q658 153 661 150Q664 148 673 145Q682 142 683 144Q685 145 686 148Q687 151 687 151Q687 151 684 151Q681 151 673 154Z" fill="#cc00a3" />
  </g>
</svg>