<?xml version="1.0" encoding="UTF-8"?>
<svg width="16" height="16" viewBox="0 0 16 16" xmlns="http://www.w3.org/2000/svg">
  <g transform="translate(0.019628906250000355, 14.986328125) scale(0.015585937499999999, -0.015585937499999999)">
    <path d="M1024 448Q1023 547 1010 621Q996 694 945.5 741Q895 788 794 808Q693 829 518 823Q343 827 241 805Q139 784 86 737Q33 690 18 617Q2 545 0 448Q0 326 27 251Q54 177 115 136.5Q176 96 275 84Q374 71 518 73Q677 69 776 84Q876 99 931 141.5Q986 184 1005 258Q1025 333 1024 448ZM518 125Q380 125 290 134Q200 144 147 177.5Q94 211 73 275Q52 339 52 448Q52 557 73 621Q95 685 148 718.5Q201 752 291 761Q381 771 518 771Q655 771 743 763Q831 756 882 724Q933 692 952 627Q972 562 972 448Q972 333 953 269Q933 204 882.5 172Q832 140 744 132Q656 125 518 125ZM886 579Q873 587 873 602Q873 617 886 624Q899 632 912 624.5Q925 617 925 602Q925 587 912 579.5Q899 572 886 579ZM843 667Q843 682 830 689.5Q817 697 804 689Q791 682 791 667Q791 652 804 644Q817 637 830 644.5Q843 652 843 667ZM137 510Q137 525 124 532.5Q111 540 98 533Q85 525 85 510Q85 495 98 488Q111 480 124 487.5Q137 495 137 510ZM293 523Q293 538 280 545.5Q267 553 254 546Q241 539 241 523.5Q241 508 254 501Q267 493 280 500.5Q293 508 293 523ZM273 686Q273 701 260 708.5Q247 716 234 709Q221 701 221 686Q221 671 234 664Q247 656 260 663.5Q273 671 273 686ZM759 712Q759 727 746 734.5Q733 742 720 735Q707 727 707 712Q707 697 720 690Q733 682 746 689.5Q759 697 759 712ZM694 673Q694 688 680.5 695.5Q667 703 654 696Q641 688 641 673Q641 658 654 651Q667 643 680.5 650.5Q694 658 694 673ZM654 357Q654 372 641 379.5Q628 387 615 380Q602 372 602 357Q602 342 615 335Q628 327 641 334.5Q654 342 654 357ZM583 331Q583 346 570 353.5Q557 361 544 354Q531 346 531 331Q531 316 544 309Q557 301 570 308.5Q583 316 583 331ZM381 426Q381 441 368 448.5Q355 456 342 448Q329 441 329 426Q329 411 342 403Q355 396 368 403.5Q381 411 381 426ZM417 504Q417 519 404 526.5Q391 534 378 526Q365 519 365 504Q365 489 378 481Q391 474 404 481.5Q417 489 417 504ZM492 478Q492 493 479 500.5Q466 508 453 500Q440 493 440 478Q440 463 453 455Q466 448 479 455.5Q492 463 492 478ZM602 722Q602 737 589 744.5Q576 752 563 745Q550 737 550 722Q550 707 563 700Q576 692 589 699.5Q602 707 602 722ZM492 663Q492 678 479 685.5Q466 693 453 686Q440 679 440 663.5Q440 648 453 641Q466 633 479 640.5Q492 648 492 663ZM361 650Q361 665 348 672.5Q335 680 322 673Q309 665 309 650Q309 635 322 628Q335 620 348 627.5Q361 635 361 650ZM427 582Q427 597 413.5 604.5Q400 612 387 605Q374 597 374 582Q374 567 387 560Q400 552 413.5 559.5Q427 567 427 582ZM524 579Q524 594 511 601.5Q498 609 485 601Q472 594 472 579Q472 564 485 556Q498 549 511 556.5Q524 564 524 579ZM583 641Q583 656 570 663.5Q557 671 544 663Q531 656 531 641Q531 626 544 618Q557 611 570 618.5Q583 626 583 641ZM417 716Q417 731 404 738.5Q391 746 378 738Q365 731 365 716Q365 701 378 693Q391 686 404 693.5Q417 701 417 716ZM583 484Q583 499 570 506.5Q557 514 544 507Q531 499 531 484Q531 469 544 462Q557 454 570 461.5Q583 469 583 484ZM544 409Q544 424 531 432Q518 440 505 432Q492 425 492 409.5Q492 394 505 387Q518 379 531 387Q544 395 544 409ZM918 507Q918 522 905 529.5Q892 537 879 530Q866 522 866 507Q866 492 879 485Q892 477 905 484.5Q918 492 918 507ZM843 530Q843 545 830 552.5Q817 560 804 553Q791 545 791 530Q791 515 804 507Q817 500 830 507.5Q843 515 843 530ZM189 634Q189 649 176 656.5Q163 664 150 657Q137 649 137 634Q137 619 150 612Q163 604 176 611.5Q189 619 189 634ZM221 523Q221 538 208 545.5Q195 553 182 546Q169 539 169 523.5Q169 508 182 501Q195 493 208 500.5Q221 508 221 523ZM277 611Q277 626 264 633.5Q251 641 238 634Q225 626 225 611Q225 596 238 589Q251 581 264 588.5Q277 596 277 611ZM739 602Q739 617 726 624.5Q713 632 700 624Q687 617 687 602Q687 587 700 579Q713 572 726 579.5Q739 587 739 602ZM648 589Q648 604 635 611.5Q622 619 609 611Q596 604 596 589Q596 574 609 566Q622 559 635 566.5Q648 574 648 589ZM654 514Q654 529 641 536.5Q628 544 615 536Q602 529 602 514Q602 499 615 491Q628 484 641 491.5Q654 499 654 514ZM619 436Q619 451 606 458.5Q593 466 580 458Q567 451 567 435.5Q567 420 580 413Q593 406 606 413.5Q619 421 619 436ZM469 370Q469 385 456 392.5Q443 400 430 393Q417 385 417 370Q417 355 430 348Q443 340 456 347.5Q469 355 469 370ZM905 406Q905 421 892 428.5Q879 436 866 429Q853 421 853 406Q853 391 866 384Q879 376 892 383.5Q905 391 905 406ZM817 429Q817 444 804 451.5Q791 459 778 452Q765 444 765 429Q765 414 778 406Q791 399 804 406.5Q817 414 817 429ZM160 302Q160 317 146.5 324.5Q133 332 120 325Q107 317 107 302Q107 287 120 280Q133 272 146.5 279.5Q160 287 160 302ZM300 227Q300 242 286.5 249.5Q273 257 260 250Q247 242 247 227Q247 212 260 205Q273 197 286.5 204.5Q300 212 300 227ZM280 396Q280 411 267 419Q254 427 241 419Q228 412 228 396.5Q228 381 241 374Q254 366 267 373.5Q280 381 280 396ZM752 504Q752 519 739 526.5Q726 534 713 526Q700 519 700 504Q700 489 713 481Q726 474 739 481.5Q752 489 752 504ZM680 211Q680 226 667 233.5Q654 241 641 233Q628 226 628 211Q628 196 641 188Q654 181 667 188.5Q680 196 680 211ZM378 273Q378 288 365 295.5Q352 303 339 295Q326 288 326 273Q326 258 339 250Q352 243 365 250.5Q378 258 378 273ZM479 286Q479 301 466 308.5Q453 316 440 308Q427 301 427 286Q427 271 440 263Q453 256 466 263.5Q479 271 479 286ZM345 354Q345 369 332 376.5Q319 384 306 377Q293 369 293 354Q293 339 306 332Q319 324 332 331.5Q345 339 345 354ZM908 315Q908 330 895 337.5Q882 345 869 338Q856 330 856 315Q856 300 869 293Q882 285 895 292.5Q908 300 908 315ZM824 335Q824 350 811 357.5Q798 365 785 357Q772 350 772 335Q772 320 785 312Q798 305 811 312.5Q824 320 824 335ZM179 406Q179 421 166 428.5Q153 436 140 429Q127 421 127 406Q127 391 140 384Q153 376 166 383.5Q179 391 179 406ZM208 221Q208 236 195 243.5Q182 251 169 243Q156 236 156 221Q156 206 169 198Q182 191 195 198.5Q208 206 208 221ZM251 325Q251 340 238 347.5Q225 355 212 347Q199 340 199 325Q199 310 212 302Q225 295 238 302.5Q251 310 251 325ZM739 409Q739 424 726 432Q713 440 700 432Q687 425 687 409.5Q687 394 700 387Q713 379 726 387Q739 395 739 409ZM739 302Q739 317 726 324.5Q713 332 700 325Q687 317 687 302Q687 287 700 280Q713 272 726 279.5Q739 287 739 302ZM534 211Q534 226 521 233.5Q508 241 495 233Q482 226 482 211Q482 196 495 188Q508 181 521 188.5Q534 196 534 211ZM300 227Q300 242 286.5 249.5Q273 257 260 250Q247 242 247 227Q247 212 260 205Q273 197 286.5 204.5Q300 212 300 227ZM638 266Q638 281 625 288.5Q612 296 599 289Q586 281 586 266Q586 251 599 244Q612 236 625 243.5Q638 251 638 266ZM850 234Q850 249 837 256.5Q824 264 811 256Q798 249 798 234Q798 219 811 211Q824 204 837 211.5Q850 219 850 234ZM752 188Q752 203 739 210.5Q726 218 713 211Q700 203 700 188Q700 173 713 166Q726 158 739 165.5Q752 173 752 188ZM612 178Q612 193 599 200.5Q586 208 573 201Q560 193 560 178Q560 163 573 156Q586 148 599 155.5Q612 163 612 178ZM430 185Q430 200 417 207.5Q404 215 391 207Q378 200 378 185Q378 170 391 162Q404 155 417 162.5Q430 170 430 185Z" fill="#825078" />
  </g>
</svg>