<?xml version="1.0" encoding="UTF-8"?>
<svg width="16" height="16" viewBox="0 0 16 16" xmlns="http://www.w3.org/2000/svg">
  <g transform="translate(-0.46793212890624913, 15.410068359375) scale(0.016542968749999998, -0.016542968749999998)">
    <path d="M859 542Q839 554 839 577.5Q839 601 859 613Q879 625 899.5 613Q920 601 920 578Q920 554 899.5 542.5Q879 531 859 542ZM113 675L0 238Q-1 232 1 230.5Q3 229 6 228L50 216Q55 214 57.5 215.5Q60 217 61 222L95 360L203 360L237 222Q237 219 239.5 217Q242 215 247 216L291 227Q295 228 296.5 231Q298 234 297 238L184 675Q183 678 181 679.5Q179 681 176 681Q176 681 148.5 681Q121 681 121 681Q118 681 116.5 679Q115 677 113 675ZM108 416L149 581L188 416ZM794 589Q792 593 788.5 593.5Q785 594 782 592L740 571Q736 568 736 565.5Q736 563 737 559L849 362L849 232Q849 228 850.5 226Q852 224 857 224L901 224Q907 224 908 225.5Q909 227 910 232L910 362L1022 559Q1024 564 1024 566Q1024 568 1018 571L976 592Q972 594 969 592.5Q966 591 965 589L880 426ZM630 585L586 585Q581 585 579.5 582Q578 579 578 577L580 324L460 580Q458 583 456.5 584Q455 585 453 585L397 585Q393 585 391 582.5Q389 580 389 577L389 232Q389 227 391 225.5Q393 224 397 224L442 224Q447 224 449 226Q451 228 451 232L448 483L568 229Q569 226 570 225Q571 224 575 224L630 224Q635 224 637 226Q639 228 639 232L639 577Q639 581 636.5 583Q634 585 630 585Z" fill="#be2f31" />
  </g>
</svg>