<?xml version="1.0" encoding="UTF-8"?>
<svg width="16" height="16" viewBox="0 0 16 16" xmlns="http://www.w3.org/2000/svg">
  <g transform="translate(0.5114628906250003, 14.554414950284091) scale(0.01462890625, -0.01462890625)">
    <path d="M178 244Q169 273 187 315Q204 357 245.5 411Q287 465 350 530Q413 595 495 668Q537 706 591 741Q645 777 701.5 806.5Q758 836 812 859Q866 882 909 895Q909 895 906.5 874Q904 853 900 839Q909 858 917 879Q925 900 925 900Q967 911 987 912Q1007 913 1014 903Q1028 859 1022 819.5Q1016 780 990 744Q979 760 964 772.5Q949 785 932 796Q958 775 966.5 763Q975 751 977 728Q935 689 888 657Q841 625 793.5 594Q746 563 701 530Q655 497 616 457Q412 247 358.5 264Q305 281 198 232Q160 187 126.5 141Q93 95 65 48L3 -16L0 -14Q34 46 80 111.5Q126 177 178 244Z" fill="#ac4142" />
  </g>
</svg>