<?xml version="1.0" encoding="UTF-8"?>
<svg width="16" height="16" viewBox="0 0 16 16" xmlns="http://www.w3.org/2000/svg">
  <g transform="translate(1.2201171875000005, 14.983654513888888) scale(0.015585937499999999, -0.015585937499999999)">
    <path d="M296 666Q219 662 172 619Q124 576 108.5 519Q93 462 111 405Q129 347 182 314L144 248L0 332L0 677L251 822Q244 770 258.5 732Q273 694 296 666ZM687 314L725 248L870 332L870 677L628 817Q633 773 621 735Q609 697 582 666Q649 661 695 621Q742 580 760 525Q778 470 762 412Q746 354 687 314ZM355 262L290 262L129 -64L193 -64L355 262ZM477 24L529 -8L558 36L501 58L558 81L529 124L477 92L483 147L425 147L431 92L379 124L350 81L407 58L350 36L379 -8L431 24L425 -31L483 -31L477 24ZM729 24L781 -8L810 36L753 58L810 81L781 124L729 92L735 147L677 147L683 92L631 124L602 81L659 58L602 36L631 -8L683 24L677 -31L735 -31L729 24ZM607 792Q607 840 583 878Q560 916 523 937Q486 958 441 960Q396 962 354 937Q312 913 291 874Q270 834 270 791.5Q270 749 291 710Q312 670 354 646Q396 622 441 623Q486 625 523 646Q560 667 583 705Q607 743 607 792Z" fill="#6a9fb5" />
  </g>
</svg>