<?xml version="1.0" encoding="UTF-8"?>
<svg width="16" height="16" viewBox="0 0 16 16" xmlns="http://www.w3.org/2000/svg">
  <g transform="translate(0.5099999999999998, 14.55375) scale(0.01462890625, -0.01462890625)">
    <path d="M843 341Q832 341 821.5 339.5Q811 338 801 336L800 338L633 602Q660 627 676.5 662Q693 697 693 737Q693 813 640 866.5Q587 920 512 920Q437 920 384 866.5Q331 813 331 737Q331 697 347.5 662Q364 627 391 602L223 336Q213 338 202.5 339.5Q192 341 181 341Q106 341 53 287.5Q0 234 0 159Q0 83 53 29.5Q106 -24 181 -24Q256 -24 309 29.5Q362 83 362 159Q362 210 336 252.5Q310 295 268 319L430 575Q449 565 469.5 560Q490 555 512 555Q534 555 554.5 560Q575 565 594 575L756 319Q714 295 688 252.5Q662 210 662 159Q662 83 715 29.5Q768 -24 843 -24Q918 -24 971 29.5Q1024 83 1024 159Q1024 234 971 287.5Q918 341 843 341ZM181 72Q146 72 121 97Q96 122 96 157Q96 192 121 216.5Q146 241 181 241Q216 241 240.5 216.5Q265 192 265 157Q265 122 240.5 97Q216 72 181 72Z" fill="#6a9fb5" />
  </g>
</svg>