<?xml version="1.0" encoding="UTF-8"?>
<svg width="16" height="16" viewBox="0 0 16 16" xmlns="http://www.w3.org/2000/svg">
  <g transform="translate(1.0162344410380382, 14.992028377757354) scale(0.015585937499999999, -0.015585937499999999)">
    <path d="M504 585L444 416L537 416L562 343L422 343L398 276L304 276L453 669L556 669L705 276L611 276L504 585ZM890 121Q905 140 888 153Q871 166 857 148Q749 12 596 -14Q443 -39 310.5 23.5Q178 86 98 225Q18 364 55 557Q85 684 167 770Q250 856 356.5 892.5Q463 929 580 911Q696 894 793 814Q787 797 792.5 778.5Q798 760 816 750Q842 735 868 750Q894 765 894 795Q894 824 871 839.5Q848 855 823 845Q717 933 589 953Q462 973 345 933.5Q228 894 138 800Q47 706 15 567Q-29 382 49 229Q128 76 268 -1Q408 -78 579 -59Q750 -39 890 121Z" fill="#46788d" />
  </g>
</svg>