<?xml version="1.0" encoding="UTF-8"?>
<svg width="16" height="16" viewBox="0 0 16 16" xmlns="http://www.w3.org/2000/svg">
  <g transform="translate(0.5099999999999998, 14.55375) scale(0.01462890625, -0.01462890625)">
    <path d="M510 960Q405 960 312 920Q219 880 149.5 810.5Q80 741 40 648Q0 555 0 450Q0 343 40 249Q80 156 149.5 86Q219 16 312 -24Q405 -64 510 -64Q617 -64 711 -24Q804 16 874 86Q944 156 984 249Q1024 343 1024 450Q1024 555 984 648Q944 741 874 810.5Q804 880 711 920Q617 960 510 960ZM636 350Q594 296 527 287Q460 278 408 320Q355 360 348.5 427Q342 494 384 549Q429 601 496.5 610Q564 619 616 579Q669 537 675 469.5Q681 402 636 350ZM365 16L560 204Q505 192 450.5 203Q396 214 351 251Q299 291 276.5 352.5Q254 414 262 476L86 284Q86 284 73.5 315.5Q61 347 56 407L365 648Q399 673 439 686Q479 699 520 699.5Q561 700 600 687Q639 675 673 648Q710 619 732 578Q754 537 760.5 492Q767 447 757 401Q746 355 719 314L494 -8Q469 -8 428 -1Q387 6 365 16Z" fill="#6a9fb5" />
  </g>
</svg>