<?xml version="1.0" encoding="UTF-8"?>
<svg width="16" height="16" viewBox="0 0 16 16" xmlns="http://www.w3.org/2000/svg">
  <g transform="translate(0.020000000000000462, 14.986953125) scale(0.015585937499999999, -0.015585937499999999)">
    <path d="M508 617Q513 625 510 634.5Q507 644 499 649L437 684Q429 689 419.5 686.5Q410 684 405 676L119 178Q114 170 117 160.5Q120 151 128 146L190 110Q198 106 207.5 108.5Q217 111 222 119L508 617ZM794 511L881 348Q883 343 884.5 338.5Q886 334 888 330L1003 330Q1011 330 1017.5 336Q1024 342 1024 351L1024 490Q1024 498 1017.5 504.5Q1011 511 1003 511L794 511ZM496 511L392 330L675 330L591 511Q591 511 543.5 511Q496 511 496 511ZM261 511L21 511Q13 511 6.5 504.5Q0 498 0 490L0 351Q0 342 6.5 336Q13 330 21 330L157 330Q157 330 173 358Q189 386 209 420Q229 454 245 483Q261 511 261 511ZM170 83L108 119Q99 123 92.5 120Q86 117 85 107L74 14Q73 4 78 1Q83 -2 91 4L171 58Q179 64 178.5 71Q178 78 170 83ZM646 688Q624 723 599 766Q575 809 552.5 846Q530 883 512 906Q494 930 486 926Q475 920 484 885Q493 850 511 804.5Q529 759 550 713Q570 667 582 639Q594 611 620 552Q646 492 674.5 430.5Q703 369 727 321Q752 273 761 269Q789 251 823.5 276.5Q858 302 843 327L843 327Q816 379 789 430Q762 481 737 528Q712 575 689 615Q666 656 646 688ZM913 181L884 237Q879 247 868.5 250.5Q858 254 849 249L814 231Q804 226 801.5 216Q799 206 805 197L842 138Q848 129 858.5 126.5Q869 124 878 129L903 145Q912 150 915 160.5Q918 171 913 181ZM904 99Q897 93 888.5 77.5Q880 62 900 34Q919 6 953 -2.5Q987 -11 993 -30Q993 -30 994 -1Q996 27 989 57Q982 87 964 105Q945 122 904 99Z" fill="#75b5aa" />
  </g>
</svg>