<?xml version="1.0" encoding="UTF-8"?>
<svg width="16" height="16" viewBox="0 0 16 16" xmlns="http://www.w3.org/2000/svg">
  <g transform="translate(-0.012170973557691443, 14.979458841463416) scale(0.015585937499999999, -0.015585937499999999)">
    <path d="M989 1L35 1Q12 2 4 18.5Q-4 35 5 51L481 877Q490 893 510.5 894.5Q531 896 543 877L1019 51Q1029 33 1019.5 17.5Q1010 2 989 1ZM417 253Q417 218 437.5 206.5Q458 195 481 195Q504 195 528.5 203.5Q553 212 570 240L570 316L510 316Q464 316 440.5 302.5Q417 289 417 253ZM571 422L571 381L486 381Q427 381 378.5 351.5Q330 322 330 246Q330 170 367 145Q404 120 451 120Q513 120 542.5 152Q572 184 572 184L575 184L573 128L717 153L716 118L809 202L694 252L708 219L662 210L662 442Q662 517 612.5 538.5Q563 560 512 560Q456 560 410.5 555.5Q365 551 365 551L365 476Q377 478 416.5 482Q456 486 493 486Q531 486 551 469Q571 452 571 422Z" fill="#ac4142" />
  </g>
</svg>