<?xml version="1.0" encoding="UTF-8"?>
<svg width="16" height="16" viewBox="0 0 16 16" xmlns="http://www.w3.org/2000/svg">
  <g transform="translate(0.5099999999999998, 14.553113960597827) scale(0.01462890625, -0.01462890625)">
    <path d="M925 162Q914 135 900 110.5Q886 86 870 63Q848 32 830.5 10.5Q813 -11 799 -23Q778 -42 755 -52Q732 -62 708 -63Q691 -63 669.5 -58Q648 -53 624 -43Q599 -33 576.5 -28Q554 -23 533 -23Q512 -23 488.5 -28Q465 -33 440 -43Q415 -53 395 -58Q375 -63 359 -64Q336 -65 313 -54.5Q290 -44 266 -23Q251 -10 232.5 12.5Q214 35 192 66Q168 100 148.5 138.5Q129 177 114 222Q97 270 89 316.5Q81 363 81 408Q81 459 92 503.5Q103 548 125 585Q143 615 166 638.5Q189 662 219 679Q248 697 279.5 705.5Q311 714 345 715Q363 715 387.5 709Q412 703 442 692Q472 681 491.5 675Q511 669 519 669Q526 669 547.5 676Q569 683 605 696Q640 709 669 714Q698 719 722 717Q786 712 834.5 686.5Q883 661 916 615Q858 580 829.5 531Q801 482 801 419Q802 370 819.5 329Q837 288 872 256Q888 241 906 229.5Q924 218 943 209Q939 197 934.5 185Q930 173 925 162ZM728 940Q728 901 714 865Q700 829 672 796Q638 757 597.5 735.5Q557 714 513 718Q513 723 512.5 727.5Q512 732 512 737Q512 774 527.5 812Q543 850 571 882Q586 899 604 912.5Q622 926 644 937Q666 947 686.5 953Q707 959 727 960Q727 955 727.5 950Q728 945 728 940Z" fill="#aa759f" />
  </g>
</svg>