<?xml version="1.0" encoding="UTF-8"?>
<svg width="16" height="16" viewBox="0 0 16 16" xmlns="http://www.w3.org/2000/svg">
  <g transform="translate(0.020000000000000462, 14.9825) scale(0.015585937499999999, -0.015585937499999999)">
    <path d="M1024 448Q1024 498 1004 543Q984 587 950 620Q916 653 870 672Q824 691 771 691L771 691Q762 691 752 690Q742 689 733 688L733 688Q652 676 597 628Q542 580 512 535L512 535Q481 580 426.5 628Q372 676 291 688L291 688Q282 689 272 690Q262 691 253 691L253 691Q201 691 155 672Q109 653 74.5 620Q40 587 20 543Q0 498 0 448L0 448Q0 398 20 353Q40 309 74 276Q108 243 154 224Q200 205 252 205L252 205Q261 205 271 206Q281 207 290 208L290 208Q371 220 426 268Q481 316 511 361L511 361Q542 316 596.5 268Q651 220 732 208L732 208Q741 207 751 206Q761 205 770 205L770 205Q823 205 869 224Q916 243 950 276Q984 309 1004 353Q1024 397 1024 448L1024 448ZM279 293Q272 292 265.5 291.5Q259 291 253 291L253 291Q184 291 135 337Q86 383 86 448L86 448Q86 513 135 559Q184 605 253 605L253 605Q259 605 265.5 604.5Q272 604 279 603L279 603Q355 593 401.5 536Q448 479 464 448L464 448Q448 417 401.5 360Q355 303 279 293ZM560 448Q576 478 622.5 535.5Q669 593 745 603L745 603Q752 604 758.5 604.5Q765 605 771 605L771 605Q840 605 889 559Q938 513 938 448L938 448Q938 383 889 337Q840 291 771 291L771 291Q765 291 758.5 291.5Q752 292 745 293L745 293Q669 303 622.5 360Q576 417 560 448L560 448ZM183 423L334 423L334 471L183 471ZM789 423L839 423L839 471L789 471L789 523L739 523L739 471L689 471L689 423L739 423L739 371L789 371Z" fill="#4d9085" />
  </g>
</svg>