<?xml version="1.0" encoding="UTF-8"?>
<svg width="16" height="16" viewBox="0 0 16 16" xmlns="http://www.w3.org/2000/svg">
  <g transform="translate(0.9996571948746314, 14.123812400688559) scale(0.013671875, -0.013671875)">
    <path d="M744 350Q724 274 656 235Q588 196 512 216Q437 237 398 304.5Q359 372 379 448Q399 523 467 562.5Q535 602 610 581Q686 561 725 493.5Q764 426 744 350ZM845 475Q829 532 831 599Q833 666 849 726Q858 762 851 798Q844 834 825 865.5Q806 897 776 920Q746 944 710 954Q673 964 635 958Q598 953 565.5 935Q533 917 509 888Q485 860 475 823Q460 766 431 712Q402 658 363 616Q318 570 262.5 537Q207 504 144 487Q105 477 75 453Q45 429 26.5 397Q8 365 2 327Q-3 289 7 250Q17 212 41 182Q65 152 97 133.5Q129 115 167 109Q205 104 244 114Q301 129 365.5 130.5Q430 132 485 115Q553 94 603 64.5Q653 35 704 -15Q759 -69 837 -64Q915 -59 967 -7Q1020 46 1023.5 125Q1027 204 974 259Q929 305 897.5 355Q866 405 845 475Z" fill="#ee9e2e" />
  </g>
</svg>