<?xml version="1.0" encoding="UTF-8"?>
<svg width="16" height="16" viewBox="0 0 16 16" xmlns="http://www.w3.org/2000/svg">
  <g transform="translate(0.2634869791666681, 14.976611979166666) scale(0.015585937499999999, -0.015585937499999999)">
    <path d="M44 287Q9 288 9 253Q9 218 44 219L235 219L138 -16Q124 -48 156 -61Q188 -74 200 -42L308 219L437 219Q471 218 471 253Q471 288 437 287ZM564 960Q555 960 546.5 954.5Q538 949 534 939L330 449L35 449Q0 449 0 414.5Q0 380 35 381L509 381Q543 380 543 414.5Q543 449 509 449L404 449L565 836L926 -42Q938 -74 970 -61Q1002 -48 989 -16L597 938Q592 950 583 955Q574 960 564 960Z" fill="#6a9fb5" />
  </g>
</svg>