<?xml version="1.0" encoding="UTF-8"?>
<svg width="16" height="16" viewBox="0 0 16 16" xmlns="http://www.w3.org/2000/svg">
  <g transform="translate(-0.47195169856039065, 15.411249999999999) scale(0.016542968749999998, -0.016542968749999998)">
    <path d="M758 487L679 487L679 611L758 611L758 487ZM0 131L146 122L146 190L0 183ZM758 807L679 807L679 683L758 683ZM920 772L774 779L774 711L920 720L920 772ZM0 328L146 319L146 387L0 379ZM920 575L774 583L774 515L920 524L920 575ZM163 291L251 291L251 415L163 415ZM0 524L146 515L146 583L0 575ZM163 487L251 487L251 611L163 611L163 487ZM662 463L662 834Q662 850 650.5 861.5Q639 873 623 873L305 873Q289 873 277.5 861.5Q266 850 266 834L266 62Q266 46 277.5 34.5Q289 23 305 23L437 23Q358 74 339 141Q321 208 354 272Q387 336 467 388Q546 441 662 463ZM163 683L251 683L251 807L163 807ZM163 94L251 94L251 218L163 218ZM0 720L146 711L146 779L0 772ZM594 269Q601 269 604 265.5Q607 262 607 257L607 164L641 164L641 257Q641 271 632 283.5Q623 296 602 296L533 296L533 164L566 164L566 269L594 269ZM817 243L766 243Q766 270 792 271Q818 272 817 243ZM794 298Q768 298 750.5 280.5Q733 263 733 230Q733 192 752 177Q771 162 795 162Q813 162 825 167.5Q837 173 847 183L826 203Q810 186 787.5 191.5Q765 197 766 220L851 220Q853 256 838 277Q823 298 794 298ZM724 165L724 192L711 192Q705 192 702 195.5Q699 199 699 204L699 269L724 269L724 296L699 296L699 332L666 332L666 202Q666 188 675 176.5Q684 165 704 165L724 165ZM503 346L469 346L469 314L503 314ZM503 296L469 296L469 198Q469 185 476.5 175Q484 165 503 163L503 296ZM904 351L870 351L870 201Q870 188 877.5 178Q885 168 904 166ZM926 165L926 200Q961 220 978 253Q995 286 989 320Q980 371 931 397Q883 424 813.5 428Q744 432 665 415Q586 397 516 362L516 374Q586 416 669 436Q753 455 827 450Q901 445 956 415Q1010 385 1021 329Q1033 270 1000.5 225Q968 180 926 165ZM914 139L914 90Q867 64 805 47.5Q743 31 691 26Q625 20 571 26Q517 31 477.5 47.5Q438 64 413 91Q387 117 379 151Q367 204 386 248.5Q405 293 446 328L446 311Q423 286 409 249.5Q395 213 402 176Q409 139 436 116Q463 92 502 80.5Q541 69 588 67Q635 65 683 69Q742 75 806.5 94Q871 113 914 139Z" fill="#46788d" />
  </g>
</svg>