<?xml version="1.0" encoding="UTF-8"?>
<svg width="16" height="16" viewBox="0 0 16 16" xmlns="http://www.w3.org/2000/svg">
  <g transform="translate(-0.46999999999999886, 15.411249999999999) scale(0.016542968749999998, -0.016542968749999998)">
    <path d="M251 683L163 683L163 807L251 807ZM758 807L679 807L679 683L758 683ZM920 772L774 779L774 711L920 720L920 772ZM380 486L488 292L596 486L662 486L662 834Q662 850 650.5 861.5Q639 873 623 873L305 873Q289 873 277.5 861.5Q266 850 266 834L266 486L380 486ZM266 390L266 62Q266 46 277.5 34.5Q289 23 305 23L469 23L266 390ZM163 94L251 94L251 218L163 218ZM0 720L146 711L146 779L0 772ZM0 131L146 122L146 190L0 183ZM488 72L693 443L619 443L488 208L357 447L283 447L488 72ZM526 85L725 442L833 240L848 270L756 441L830 441L886 337L944 438L1020 438L922 266L1024 80L952 80L886 200L819 81L744 81L781 147L632 147L599 85L526 85ZM772 214L723 306L673 214ZM251 415L163 415L163 291L251 291ZM146 387L0 379L0 328L146 319ZM251 486L163 486L163 611L251 611L251 486ZM679 611L758 611L758 486L679 486ZM146 515L0 524L0 575L146 583L146 515ZM774 583L920 575L920 524L774 515L774 583Z" fill="#8f5536" />
  </g>
</svg>