<?xml version="1.0" encoding="UTF-8"?>
<svg width="16" height="16" viewBox="0 0 16 16" xmlns="http://www.w3.org/2000/svg">
  <g transform="translate(-0.46999999999999886, 15.4153857421875) scale(0.016542968749999998, -0.016542968749999998)">
    <path d="M758 706L679 706L679 830L758 830ZM0 154L146 144L146 213L0 205ZM758 583L758 633L679 633L679 554Q692 563 712 570Q732 577 758 583ZM920 794L774 802L774 734L920 743L920 794ZM0 546L146 537L146 605L0 598ZM163 706L251 706L251 830L163 830ZM0 350L146 341L146 409L0 401ZM163 509L251 509L251 633L163 633ZM397 45Q397 45 384 67Q370 89 358 129Q346 169 343 225Q340 280 361 347Q370 375 403.5 386Q437 397 464 384Q479 400 508.5 417.5Q538 435 559 432Q651 417 628.5 473.5Q606 530 662 539L662 856Q662 873 650.5 884.5Q639 896 623 896L305 896Q289 896 277.5 884.5Q266 873 266 856L266 84Q266 68 277.5 56.5Q289 45 305 45L397 45ZM0 743L146 734L146 802L0 794ZM163 313L251 313L251 437L163 437ZM163 117L251 117L251 241L163 241ZM469 347Q457 349 445.5 354Q434 359 415 344Q410 340 405.5 337Q401 334 398 328Q388 311 386 295.5Q384 280 383 268Q382 266 381.5 256Q381 246 381 232Q381 225 383 216Q385 207 385 198Q386 188 385 178.5Q384 169 385 160Q391 129 401 111.5Q411 94 411 94Q412 104 411.5 115Q411 126 410 138Q413 116 420 99Q427 82 438 66Q441 73 443 80Q445 87 445 93Q447 88 450.5 81.5Q454 75 457 69Q455 66 452 63.5Q449 61 445 58L426 59Q424 58 422.5 55Q421 52 421 52Q427 52 433.5 51Q440 50 446 48Q452 44 455.5 38Q459 32 475 29Q475 29 478.5 24.5Q482 20 483 17Q484 14 485 14.5Q486 15 486 15Q483 18 483 21Q483 24 481 29L486 31Q488 29 490 27Q492 25 494 24Q493 19 495.5 14Q498 9 501 9Q500 12 500 15Q500 18 500 21Q500 21 504.5 18.5Q509 16 512 18Q514 18 516 18Q518 18 518 18Q517 20 518 20.5Q519 21 519 21Q525 18 529 19.5Q533 21 534 19Q539 16 543 18Q547 20 550 25L555 24Q559 19 563 15.5Q567 12 570 5Q570 5 567 15Q564 25 565 26Q565 26 565.5 26.5Q566 27 567 27Q567 27 569 23.5Q571 20 571 21Q571 21 570.5 18Q570 15 574 12Q578 9 579.5 11Q581 13 581 13Q581 13 582 13.5Q583 14 586 12Q586 11 586.5 10Q587 9 588 8Q590 6 592.5 4Q595 2 596 1Q597 0 597 1Q597 2 597 3Q597 4 596 7.5Q595 11 595 11Q595 12 597.5 12Q600 12 601 14Q600 15 599 16.5Q598 18 596 18Q595 18 593.5 18Q592 18 592 18L588 25L592 27Q595 20 601 17.5Q607 15 617 16Q623 10 628.5 11.5Q634 13 641 12Q640 11 639 10.5Q638 10 638 9Q648 10 653.5 16.5Q659 23 659 29L670 28Q673 24 674.5 16.5Q676 9 673 6Q673 6 673 4.5Q673 3 674 4Q675 5 675.5 6Q676 7 676 7Q680 11 681 17.5Q682 24 678 29Q679 29 680 29Q681 29 681 30Q688 20 692.5 17Q697 14 701 11Q698 18 694.5 23Q691 28 689 31Q696 27 703 24Q710 21 715 21Q715 22 713 23.5Q711 25 709 27Q707 30 704 33Q701 36 701 36Q708 32 712.5 26Q717 20 720 13Q721 15 721 18Q721 21 720 24Q725 16 729 16Q733 16 736 13Q736 13 737 13.5Q738 14 736 15Q734 17 729 23Q724 29 723 32Q723 33 722.5 34Q722 35 721 35L722 36Q722 36 724 33Q726 30 729 27Q733 24 737 22.5Q741 21 742 19Q746 15 747 16Q748 17 748 18Q748 19 747 21.5Q746 24 743 25Q741 26 738 28Q735 30 734 30Q734 31 737 30Q740 29 740 29Q739 32 737 33.5Q735 35 734 36Q733 37 734.5 37.5Q736 38 736 38Q741 31 745.5 29Q750 27 760 30Q754 29 748 32.5Q742 36 741 38Q749 36 757.5 38Q766 40 773 44Q766 43 761.5 44Q757 45 754 44Q755 47 757.5 48.5Q760 50 760 50Q754 51 749 48.5Q744 46 743 45Q742 44 741.5 44.5Q741 45 741 45Q746 52 746 55Q746 58 746 58Q742 52 737 48.5Q732 45 730 44Q729 44 725.5 44Q722 44 722 44Q722 44 729.5 47Q737 50 739 55Q726 55 721 51Q716 47 715 47Q713 47 715.5 51.5Q718 56 718 56Q718 56 715.5 55.5Q713 55 710 52Q706 45 702.5 45.5Q699 46 699 46L720 60Q702 59 697.5 52Q693 45 681 45Q686 51 692 54.5Q698 58 700 66Q695 65 688 60Q681 55 676 53Q676 53 679 62Q682 71 681 77Q679 73 677 70Q675 67 671 61Q668 56 667 51.5Q666 47 666 47Q665 46 664.5 46Q664 46 664 47Q666 51 665.5 54.5Q665 58 663 61Q663 57 660.5 53.5Q658 50 655 49Q654 55 650.5 59Q647 63 647 68Q650 77 652 84.5Q654 92 656 92Q662 89 666.5 88Q671 87 676 88Q676 88 679.5 85Q683 82 687 81Q691 79 697.5 80Q704 81 704 81L715 74Q718 74 721 75.5Q724 77 729 79Q733 77 737 74.5Q741 72 744 72Q746 72 747 75Q748 78 751 79Q753 79 757 78.5Q761 78 763 79Q765 80 766 84Q767 88 770 90Q771 91 777.5 90Q784 89 789 92Q790 93 791 98Q792 103 792 103Q792 103 800.5 106.5Q809 110 810 117Q811 123 810 127Q809 131 809 131Q816 129 821 133.5Q826 138 829 145Q829 145 824.5 149Q820 153 818 155Q827 153 830 161Q833 169 841 172Q835 177 834 181Q833 185 830 189Q832 191 832 197.5Q832 204 830 206Q828 209 817.5 215Q807 221 798 222Q789 223 775 216Q761 209 744 214Q740 221 738 227.5Q736 234 736 240Q748 229 756.5 227.5Q765 226 771 224Q826 232 834 301Q842 370 854 384Q875 386 891 391Q907 396 915 404Q927 406 934.5 408.5Q942 411 941 416Q959 416 970.5 418.5Q982 421 983 427Q972 437 950 435Q928 433 907 443Q936 438 957 436.5Q978 435 993 444Q993 444 981 451.5Q969 459 958 459Q943 458 924.5 462Q906 466 906 466Q906 466 938 471Q970 476 983 478Q995 479 998.5 481Q1002 483 1002 483Q1002 483 990.5 490Q979 497 964 496Q955 496 936.5 492.5Q918 489 902 486Q892 485 886 485Q880 485 880 485Q880 485 902.5 492Q925 499 956 499Q1002 500 1013 508Q1024 516 1024 516Q1024 516 1014.5 521.5Q1005 527 978 528Q957 528 942.5 524Q928 520 913 518Q898 516 887.5 515.5Q877 515 877 515Q926 532 951 528.5Q976 525 997 544Q997 544 989.5 549Q982 554 971 552Q949 549 940.5 551.5Q932 554 910 549Q862 539 852 539Q842 539 842 539Q866 553 911.5 557Q957 561 966 568Q961 574 947 579Q933 584 915 581Q886 577 845 570Q804 563 783 551Q759 537 748.5 537.5Q738 538 729 536Q721 535 715 529.5Q709 524 700 518Q692 512 684 504Q676 496 671 485Q668 477 670.5 459.5Q673 442 672 429Q669 412 659 400.5Q649 389 637 389Q587 390 570.5 395.5Q554 401 519 379Q504 366 495.5 359Q487 352 487 352Q487 352 482 349Q477 346 469 347ZM619 114Q622 117 623.5 118Q625 119 627 119Q629 119 631.5 119.5Q634 120 636 121Q637 122 637.5 123Q638 124 638 124Q638 124 637 119.5Q636 115 634 113Q634 111 634 109Q634 107 633 106Q633 106 632.5 105.5Q632 105 632 104Q632 104 632 103.5Q632 103 632 101Q631 101 630.5 99.5Q630 98 631 97Q629 96 628.5 94.5Q628 93 629 91Q628 90 627.5 89Q627 88 628 86Q628 86 627 84.5Q626 83 627 81Q625 80 625 78.5Q625 77 625 76Q625 75 624.5 74.5Q624 74 624 74Q623 77 622 78Q621 79 621 79Q621 77 620 74.5Q619 72 618 70Q616 67 611.5 62.5Q607 58 603 56Q603 56 604.5 58.5Q606 61 608 63Q610 65 612 70Q614 75 614 76Q613 76 613 77Q613 78 613 78Q613 81 612 80.5Q611 80 611 80Q611 78 608 75Q605 72 602 69Q600 66 600.5 69Q601 72 599 72Q597 70 597 72Q597 74 597 74Q599 77 598.5 77.5Q598 78 598 78Q598 78 594.5 75.5Q591 73 587 70Q585 68 584 66Q583 64 582 64Q581 62 577 60Q573 58 573 58Q572 58 572 58.5Q572 59 572 59Q572 59 574 62Q576 65 577 69Q579 74 579 78Q579 82 580 85Q580 85 578.5 82Q577 79 574 77Q572 74 570 72.5Q568 71 567 70Q565 67 565 68.5Q565 70 565 70Q565 76 568 81.5Q571 87 575 89Q582 85 586.5 84Q591 83 595 85Q595 85 599.5 83.5Q604 82 607 81Q607 83 606 85.5Q605 88 604 89Q603 90 604.5 89Q606 88 609 89Q609 89 608 92Q607 95 608 96Q608 96 609 95.5Q610 95 610 95Q610 96 610 96.5Q610 97 610 97Q612 95 611 96.5Q610 98 610 100Q610 100 610 100Q610 100 610 100Q611 99 611.5 99.5Q612 100 611 101Q610 103 610 104Q610 105 610 105Q611 105 611.5 105Q612 105 613 104Q613 104 613 104.5Q613 105 614 106Q614 106 616.5 107.5Q619 109 619 114ZM464 74Q465 79 466 84Q467 89 467 92Q469 90 469.5 85Q470 80 472 77Q469 77 467 75.5Q465 74 464 74ZM551 105Q550 105 551 103Q552 101 550 98Q548 94 546.5 91.5Q545 89 540 82Q536 77 530.5 75Q525 73 525 73Q522 71 521 71.5Q520 72 520 72Q521 74 522.5 74.5Q524 75 523 76Q522 75 521.5 75Q521 75 520 75Q520 80 519 83Q518 86 516 86Q517 83 516 79Q515 75 515 72Q511 71 506.5 68.5Q502 66 499 63Q496 61 496.5 62.5Q497 64 497 64Q500 72 506 75Q512 78 509 80Q505 78 502 77Q499 76 493 72Q494 76 494.5 79.5Q495 83 493 83Q490 78 485 72.5Q480 67 475 63Q474 63 473 64Q472 65 472 65Q472 65 470.5 64.5Q469 64 467 63Q465 61 465.5 60Q466 59 465 58Q462 57 459.5 56.5Q457 56 456 58L459 60Q474 68 477 71.5Q480 75 488 79Q485 79 479 78Q473 77 473 77Q477 85 478.5 93Q480 101 479 107L484 96Q487 104 491 111.5Q495 119 491 131L497 124Q500 129 501 135Q502 141 501 147Q505 150 506.5 155Q508 160 508 166Q514 171 515.5 176Q517 181 517 187Q518 188 524 185Q530 182 536 183Q540 182 541.5 179.5Q543 177 550 174Q553 173 558.5 172.5Q564 172 566 170Q569 169 574.5 167Q580 165 582 167Q573 152 565 137Q557 122 551 105Z" fill="#46788d" />
  </g>
</svg>