<?xml version="1.0" encoding="UTF-8"?>
<svg width="16" height="16" viewBox="0 0 16 16" xmlns="http://www.w3.org/2000/svg">
  <g transform="translate(-0.46999999999999886, 15.411249999999999) scale(0.016542968749999998, -0.016542968749999998)">
    <path d="M0 183L146 190L146 122L0 131ZM920 772L774 779L774 711L920 720L920 772ZM758 807L679 807L679 683L758 683ZM0 328L146 319L146 387L0 379ZM920 575L774 583L774 515L920 524L920 575ZM163 94L251 94L251 218L163 218ZM163 683L251 683L251 807L163 807ZM163 487L251 487L251 611L163 611L163 487ZM0 720L146 711L146 779L0 772ZM0 524L146 515L146 583L0 575ZM163 291L251 291L251 415L163 415ZM927 403Q898 441 862.5 451.5Q827 462 804 462Q763 462 726 447Q689 432 661.5 403.5Q634 375 617 335Q601 294 601 244Q601 201 615 161Q628 121 654 90.5Q680 60 717 41Q755 23 803 23Q825 23 860 32.5Q895 42 927 79L927 35L1024 35L1024 451L927 451L927 403ZM816 374Q862 374 898 341Q934 308 934 240Q934 175 898 142Q862 109 816 109Q763 109 732 148.5Q701 188 701 241Q701 296 732 335Q763 374 816 374ZM758 512L758 611L679 611L679 485Q698 494 718 501Q738 508 758 512ZM662 474L662 834Q662 850 650.5 861.5Q639 873 623 873L305 873Q289 873 277.5 861.5Q266 850 266 834L266 62Q266 46 277.5 34.5Q289 23 305 23L638 23Q591 65 567 126Q543 187 545 251Q547 315 576 375Q605 434 662 474Z" fill="#6a9fb5" />
  </g>
</svg>