<?xml version="1.0" encoding="UTF-8"?>
<svg width="16" height="16" viewBox="0 0 16 16" xmlns="http://www.w3.org/2000/svg">
  <g transform="translate(-0.46999999999999886, 15.411249999999999) scale(0.016542968749999998, -0.016542968749999998)">
    <path d="M0 201L145 208L145 141L0 150L0 201ZM0 345L145 336L145 403L0 395L0 345ZM912 785L768 793L768 725L912 734ZM752 820L674 820L674 697L752 697ZM0 539L145 530L145 598L0 590ZM386 217L656 503L656 847Q656 863 645 874.5Q634 886 618 886L303 886Q287 886 275.5 874.5Q264 863 264 847L264 81Q264 65 275.5 53.5Q287 42 303 42L554 42L386 217ZM162 503L249 503L249 626L162 626ZM162 697L249 697L249 820L162 820ZM162 308L249 308L249 431L162 431ZM0 734L145 725L145 793L0 785L0 734ZM162 113L249 113L249 236L162 236ZM719 366L568 217L719 73L656 10L458 217L656 429ZM826 429L1024 217L826 10L763 73L914 217L763 366L826 429ZM674 503L752 503L752 626L674 626ZM768 530L912 539L912 590L768 598Z" fill="#75b5aa" />
  </g>
</svg>