<?xml version="1.0" encoding="UTF-8"?>
<svg width="16" height="16" viewBox="0 0 16 16" xmlns="http://www.w3.org/2000/svg">
  <g transform="translate(-0.46999999999999886, 15.411249999999999) scale(0.016542968749999998, -0.016542968749999998)">
    <path d="M0 379L146 387L146 319L0 328ZM662 279L662 311Q633 272 583.5 286.5Q534 301 540 352L566 443Q574 475 592 481Q610 487 658 487L662 487L662 834Q662 850 650.5 861.5Q639 873 623 873L305 873Q289 873 277.5 861.5Q266 850 266 834L266 62Q266 46 277.5 34.5Q289 23 305 23L461 23L662 278ZM758 807L679 807L679 683L758 683ZM758 487L758 611L679 611L679 487ZM920 772L774 779L774 711L920 720L920 772ZM920 575L774 583L774 515L920 524L920 575ZM0 131L146 122L146 190L0 183ZM163 487L251 487L251 611L163 611L163 487ZM163 291L251 291L251 415L163 415ZM163 683L251 683L251 807L163 807ZM163 94L251 94L251 218L163 218ZM0 524L146 515L146 583L0 575ZM0 720L146 711L146 779L0 772ZM618 456Q612 455 610 447.5Q608 440 606 432L582 345Q581 336 590.5 329Q600 322 618 327Q631 331 637.5 353Q644 375 674 391Q688 399 729 400Q770 401 811 401L539 54Q530 44 529.5 34.5Q529 25 544 25L1001 25Q1009 42 1015.5 63.5Q1022 85 1024 115Q1024 136 1010.5 142Q997 148 978 139Q978 139 957 101.5Q936 64 854 64Q811 63 766.5 63.5Q722 64 722 64L989 405Q993 410 1000 418Q1007 426 1007 429Q1007 434 1000 439Q993 444 981 444Q975 444 922 444Q869 444 807.5 444Q746 444 696 444Q646 444 646 444Q639 444 634.5 451Q630 458 618 456Z" fill="#6a9fb5" />
  </g>
</svg>