<?xml version="1.0" encoding="UTF-8"?>
<svg width="16" height="16" viewBox="0 0 16 16" xmlns="http://www.w3.org/2000/svg">
  <g transform="translate(-0.4709423210047454, 15.411249999999999) scale(0.016542968749999998, -0.016542968749999998)">
    <path d="M251 678L163 678L163 802L251 802ZM758 605L679 605L679 481L758 481L758 605ZM251 605L163 605L163 481L251 481L251 605ZM920 766L774 774L774 706L920 715L920 766ZM758 802L679 802L679 678L758 678ZM920 570L774 578L774 509L920 518L920 570ZM381 386L662 386L662 829Q662 845 650.5 856.5Q639 868 623 868L305 868Q289 868 277.5 856.5Q266 845 266 829L266 102L381 386ZM251 213L163 213L163 89L251 89ZM0 715L146 706L146 774L0 766ZM0 126L146 117L146 185L0 177ZM251 409L163 409L163 285L251 285ZM0 518L146 509L146 578L0 570ZM0 322L146 313L146 381L0 373ZM487 346L602 89L526 89L505 133L398 133L379 89L304 89L408 346ZM415 185L484 185L447 273L415 185ZM602 346L668 190L736 346L814 346L668 28L526 346L602 346ZM940 190L976 89L897 89L873 181L855 181L814 89L736 89L850 346L951 346Q1027 342 1024 272Q1021 202 940 190ZM929 296L902 296L874 235L908 235Q945 237 950.5 264.5Q956 292 929 296Z" fill="#825078" />
  </g>
</svg>