<?xml version="1.0" encoding="UTF-8"?>
<svg width="16" height="16" viewBox="0 0 16 16" xmlns="http://www.w3.org/2000/svg">
  <g transform="translate(-0.46999999999999886, 15.411249999999999) scale(0.016542968749999998, -0.016542968749999998)">
    <path d="M0 379L146 387L146 319L0 328ZM0 131L146 122L146 190L0 183ZM920 772L774 779L774 711L920 720ZM758 807L679 807L679 683L758 683ZM163 94L251 94L251 218L163 218L163 94ZM163 487L251 487L251 611L163 611L163 487ZM163 683L251 683L251 807L163 807ZM163 291L251 291L251 415L163 415ZM0 720L146 711L146 779L0 772ZM0 524L146 515L146 583L0 575L0 524ZM662 522L662 834Q662 850 650.5 861.5Q639 873 623 873L305 873Q289 873 277.5 861.5Q266 850 266 834L266 62Q266 46 277.5 34.5Q289 23 305 23L506 23L662 522ZM1000 23L1024 23L893 451L793 116L693 451L563 23L587 23Q593 49 601 74.5Q609 100 620 122Q634 153 652 167.5Q670 182 692 184Q721 187 745.5 157.5Q770 128 793 73Q817 127 840 156.5Q863 186 893 184Q919 183 939 163.5Q959 144 975 102Q982 82 988 62.5Q994 43 1000 23ZM758 498L758 611L679 611L679 498L758 498ZM920 575L774 583L774 515L920 524L920 575Z" fill="#6a9fb5" />
  </g>
</svg>