<?xml version="1.0" encoding="UTF-8"?>
<svg width="16" height="16" viewBox="0 0 16 16" xmlns="http://www.w3.org/2000/svg">
  <g transform="translate(0.020000000000000462, 14.9825) scale(0.015585937499999999, -0.015585937499999999)">
    <path d="M868 651Q808 648 776.5 619Q745 590 731 545Q706 465 689.5 412Q673 359 658 326Q644 369 633 423Q621 478 605 527Q589 576 564 610Q539 644 499 644L281 644Q246 644 206 613Q166 582 127.5 528Q89 474 55 402Q22 329 0 245L100 245Q162 248 193.5 277.5Q225 307 240 353Q251 388 260.5 419Q270 450 278 475Q297 503 307 526Q317 549 335 568L355 568Q369 526 380 472Q392 417 408 368.5Q424 320 449 287Q474 254 514 254L718 254Q749 254 781 281Q814 308 850.5 359.5Q887 411 929 484Q972 558 1024 651L868 651Z" fill="#90a959" />
  </g>
</svg>