<?xml version="1.0" encoding="UTF-8"?>
<svg width="16" height="16" viewBox="0 0 16 16" xmlns="http://www.w3.org/2000/svg">
  <g transform="translate(0.5705175781250005, 15.052001736111112) scale(0.015585937499999999, -0.015585937499999999)">
    <path d="M536 10L536 341L838 341Q766 323 716 285Q667 247 633 200Q599 153 576 103Q554 53 536 10ZM510 496L380 496Q407 528 428 564Q449 601 464.5 639Q480 677 491 717Q502 756 510 795ZM510 367L186 367Q244 386 289.5 415.5Q335 445 369 483L510 483ZM536 367L536 952Q536 965 524 964.5Q512 964 510 954Q498 867 477 765Q457 663 405.5 575Q354 487 262 428Q169 369 14 367Q0 366 0.5 353.5Q1 341 14 341L510 341L510 -45Q511 -56 520 -59Q529 -62 535 -50Q561 5 591 68Q621 132 666 188.5Q711 245 777 287Q843 329 940 341Q955 343 952.5 355.5Q950 368 939 367Z" fill="#ac4142" />
  </g>
</svg>