<?xml version="1.0" encoding="UTF-8"?>
<svg width="16" height="16" viewBox="0 0 16 16" xmlns="http://www.w3.org/2000/svg">
  <g transform="translate(1.58, 13.350000000000001) scale(0.008359375, -0.008359375)">
    <path d="M972 761Q972 869 918.5 930Q865 991 771 991Q708 991 647 960.5Q586 930 537 876Q488 822 457.5 739Q427 656 427 559Q427 447 480.5 386Q534 325 631 325Q727 325 807 391.5Q887 458 929.5 557.5Q972 657 972 761ZM1536 640Q1536 529 1499 443Q1462 357 1400.5 308Q1339 259 1269 233.5Q1199 208 1124 206Q1118 206 1108.5 205.5Q1099 205 1092 205Q997 205 950 258Q922 291 917 341Q865 275 785.5 231Q706 187 612 187Q451 187 362.5 282.5Q274 378 274 552Q274 709 340 842Q406 975 519 1052.5Q632 1130 765 1130Q852 1130 920 1094.5Q988 1059 1026 995L1028 1014L1039 1070Q1040 1076 1044.5 1082Q1049 1088 1054 1088L1172 1088Q1177 1088 1185 1077Q1190 1072 1188 1061L1068 447Q1063 423 1063 399Q1063 360 1075.5 347Q1088 334 1120 334Q1148 335 1177 339.5Q1206 344 1250 363.5Q1294 383 1327 413.5Q1360 444 1384 503Q1408 562 1408 640Q1408 932 1234 1106Q1060 1280 768 1280Q638 1280 519.5 1229Q401 1178 315.5 1092.5Q230 1007 179 888.5Q128 770 128 640Q128 510 179 391.5Q230 273 315.5 187.5Q401 102 519.5 51Q638 0 768 0Q996 0 1173 144Q1184 153 1197 152Q1210 151 1218 140L1259 91Q1267 79 1266 67Q1264 54 1254 45Q1152 -38 1026.5 -83Q901 -128 768 -128Q612 -128 470 -67Q328 -6 225 97Q122 200 61 342Q0 484 0 640Q0 796 61 938Q122 1080 225 1183Q328 1286 470 1347Q612 1408 768 1408Q1112 1408 1324 1196Q1536 984 1536 640Z" fill="#ac4142" />
  </g>
</svg>