<?xml version="1.0" encoding="UTF-8"?>
<svg width="16" height="16" viewBox="0 0 16 16" xmlns="http://www.w3.org/2000/svg">
  <g transform="translate(0.007981361126079627, 14.986115962161293) scale(0.015585937499999999, -0.015585937499999999)">
    <path d="M282 460Q270 491 259.5 521Q249 551 241 581Q120 556 65.5 502Q11 448 141 380Q165 366 152 343.5Q139 321 117 333Q39 372 14 418Q-10 464 8.5 506.5Q27 549 84 583Q141 617 228 632Q207 726 216 792Q225 858 258 889.5Q291 921 344 913Q396 905 462 851Q482 830 464 813Q446 796 428 810Q328 894 288.5 846Q249 798 280 641Q310 646 342 649Q374 652 407 653Q448 707 491 751Q534 795 576.5 826Q619 857 659 874Q698 892 732 893Q792 895 823 841.5Q854 788 833 679Q826 653 802.5 658.5Q779 664 781 690Q795 756 783 800Q771 844 731 840Q710 840 682 827Q653 815 620 791.5Q587 768 550 733Q514 698 476 653Q726 639 850 589Q974 539 1008.5 480.5Q1043 422 1005 368Q967 314 892 292Q864 284 857 308Q850 332 873 341Q977 382 970 429Q963 476 887 515Q811 554 687 579Q563 604 434 600Q410 569 387 533Q364 497 341 457Q443 243 542 138Q642 32 700.5 35.5Q759 39 758 152Q757 265 659 490Q651 515 672.5 525Q694 535 707 513Q754 420 779 334Q804 248 808.5 178.5Q813 109 797 60Q781 11 746 -8Q718 -23 673 -16Q628 -9 571 35Q514 79 447 166Q381 253 310 397Q271 315 249 238Q228 161 235 113Q242 65 281 57Q321 49 403 105Q431 119 441 96Q451 73 434 62Q343 -4 281 1Q219 6 195.5 64.5Q172 123 191 226Q211 329 282 460ZM367 598Q347 596 328.5 594Q310 592 293 590Q298 573 303.5 555Q309 537 316 519Q328 539 340.5 559Q353 579 367 598ZM572 441Q572 474 543.5 491Q515 508 486 491Q457 474 457 440.5Q457 407 486 391Q515 374 543.5 391Q572 408 572 441Z" fill="#90a959" />
  </g>
</svg>