<?xml version="1.0" encoding="UTF-8"?>
<svg width="16" height="16" viewBox="0 0 16 16" xmlns="http://www.w3.org/2000/svg">
  <g transform="translate(0.5099999999999998, 14.556268090420081) scale(0.01462890625, -0.01462890625)">
    <path d="M781 400L945 400L945 488L781 488ZM537 400L701 400L701 488L537 488ZM1024 279L458 279L458 610L701 610L701 658L497 658L497 780L984 780L984 658L781 658L781 610L1024 610L1024 279ZM139 763Q108 750 74.5 724.5Q41 699 0 658L69 589Q91 610 120 635.5Q149 661 179 674Q204 685 219.5 681.5Q235 678 247 666Q250 663 261 643.5Q272 624 280 589L10 169L93 116L283 412Q284 369 288.5 326Q293 283 305 246Q327 183 373 150.5Q419 118 486 118L1024 118L1024 216L486 216Q419 216 400 272.5Q381 329 381 468Q387 520 382 569Q377 618 361 660Q348 693 335 711.5Q322 730 319 733Q284 771 236.5 778.5Q189 786 139 763Z" fill="#ee9e2e" />
  </g>
</svg>