<?xml version="1.0" encoding="UTF-8"?>
<svg width="16" height="16" viewBox="0 0 16 16" xmlns="http://www.w3.org/2000/svg">
  <g transform="translate(0.5099999999999998, 14.287472780917554) scale(0.01462890625, -0.01462890625)">
    <path d="M1024 277Q1024 224 1010 178Q996 131 971 96.5Q946 62 912 42Q879 21 840 21L840 550Q840 600 815.5 644.5Q791 689 747 723Q697 761 635 780Q573 799 509.5 798.5Q446 798 385 779Q325 760 277 723Q233 689 208.5 644.5Q184 600 184 550L184 21Q145 21 112 42Q78 62 53 96.5Q28 131 14 178Q0 224 0 277Q0 360 33.5 425.5Q67 491 120 518L120 550Q120 616 152 674Q184 732 238 774Q290 815 360 838Q429 861 503.5 862.5Q578 864 651 842Q725 821 786 774Q840 732 872 674Q904 616 904 550L904 518Q957 491 990.5 425.5Q1024 360 1024 277ZM776 272L760 229L752 365L736 261L720 293L712 405L672 253L664 285L640 525L616 317L600 253L568 469L536 285L520 237L512 568L464 197L416 533L392 245L376 277L360 469L352 277L328 221L312 413L296 261L272 301L272 189L248 279L248 509Q242 515 231 520Q220 525 208 525L208 21Q220 21 231 27Q242 33 248 45L248 157L256 149L280 69L288 165L312 45L312 197L328 157L352 45L352 197L368 181L392 45L416 229L469 22L472 149L488 197L504 -3L552 197L568 29L608 205L648 13L656 157L680 205L688 21L728 197L752 117L760 189L776 157L776 45Q782 33 793 27Q804 21 816 21L816 525Q804 525 793 520Q782 515 776 509Z" fill="#f4bf75" />
  </g>
</svg>