<?xml version="1.0" encoding="UTF-8"?>
<svg width="16" height="16" viewBox="0 0 16 16" xmlns="http://www.w3.org/2000/svg">
  <g transform="translate(1.045, 13.350000000000001) scale(0.008359375, -0.008359375)">
    <path d="M768 1184L768 96Q768 70 749 51Q730 32 704 32Q678 32 659 51L326 384L64 384Q38 384 19 403Q0 422 0 448L0 832Q0 858 19 877Q38 896 64 896L326 896L659 1229Q678 1248 704 1248Q730 1248 749 1229Q768 1210 768 1184ZM1109.5 782Q1109.5 782 1130.75 749Q1152 716 1152 640Q1152 564 1109.5 498.5Q1067 433 997 405Q987 400 972 400Q946 400 927 418.5Q908 437 908 464Q908 485 920 499.5Q932 514 949 524.5Q966 535 983 547.5Q1000 560 1012 583.5Q1024 607 1024 640Q1024 673 1012 696.5Q1000 720 983 732.5Q966 745 949 755.5Q932 766 920 780.5Q908 795 908 816Q908 843 927 861.5Q946 880 972 880Q987 880 997 875Q1067 848 1109.5 782ZM1323 922.5Q1323 922.5 1365.5 857.75Q1408 793 1408 640Q1408 487 1323 357.5Q1238 228 1098 169Q1085 164 1073 164Q1046 164 1027 183Q1008 202 1008 228Q1008 267 1047 287Q1103 316 1123 331Q1197 385 1238.5 466.5Q1280 548 1280 640Q1280 732 1238.5 813.5Q1197 895 1123 949Q1103 964 1047 993Q1008 1013 1008 1052Q1008 1078 1027 1097Q1046 1116 1072 1116Q1085 1116 1098 1111Q1238 1052 1323 922.5ZM1537 1062.5Q1537 1062.5 1600.5 966.25Q1664 870 1664 640Q1664 410 1537 217.5Q1410 25 1199 -66Q1186 -71 1173 -71Q1147 -71 1128 -52Q1109 -33 1109 -7Q1109 29 1148 52Q1155 56 1170.5 62.5Q1186 69 1193 73Q1239 98 1275 124Q1398 215 1467 351Q1536 487 1536 640Q1536 793 1467 929Q1398 1065 1275 1156Q1239 1182 1193 1207Q1186 1211 1170.5 1217.5Q1155 1224 1148 1228Q1109 1251 1109 1287Q1109 1313 1128 1332Q1147 1351 1173 1351Q1186 1351 1199 1346Q1410 1255 1537 1062.5Z" fill="#aa759f" />
  </g>
</svg>