<?xml version="1.0" encoding="UTF-8"?>
<svg width="16" height="16" viewBox="0 0 16 16" xmlns="http://www.w3.org/2000/svg">
  <g transform="translate(2.57267578125, 14.55375) scale(0.01462890625, -0.01462890625)">
    <path d="M330 960L272 927L272 755L330 722L330 960ZM412 960L412 722L470 755L470 927L412 960ZM206 889L140 850L140 698L206 660L206 584L272 546L272 698L206 736L206 889ZM528 893L528 731L470 698L470 555L536 593L536 660L594 693L594 855L528 893ZM82 817L0 769L0 627L148 541L148 627L82 665ZM652 822L652 660L594 627L594 541L742 627L742 769L652 822ZM0 569L0 379L206 260L206 450ZM742 569L536 450L536 269L742 388L742 569ZM470 555L371 498L371 355L470 412ZM371 355L206 260L206 69L371 165ZM371 165L371 -64L536 31L536 269L371 165Z" fill="#a35f27" />
  </g>
</svg>