<?xml version="1.0" encoding="UTF-8"?>
<svg width="16" height="16" viewBox="0 0 16 16" xmlns="http://www.w3.org/2000/svg">
  <g transform="translate(0.5099999999999998, 14.55375) scale(0.01462890625, -0.01462890625)">
    <path d="M576 699L478 846L573 909L671 762ZM910 78L717 -51L526 235L720 364ZM540 105L393 7L329 103L476 201ZM870 464L934 368L839 305L775 401L870 464ZM277 499L130 401L32 548L179 646ZM521 662L327 533L137 818L330 947L521 662ZM107 741L143 686L89 650L52 704L107 741ZM304 85L341 30L286 -6L249 49ZM0 272L856 845L1024 606L160 30L0 272Z" fill="#cc00a3" />
  </g>
</svg>