<?xml version="1.0" encoding="UTF-8"?>
<svg width="16" height="16" viewBox="0 0 16 16" xmlns="http://www.w3.org/2000/svg">
  <g transform="translate(0.020000000000000462, 14.9825) scale(0.015585937499999999, -0.015585937499999999)">
    <path d="M0 448Q0 554 40 647Q80 741 149.5 810.5Q219 880 313 920Q406 960 512 960Q618 960 711 920Q805 880 874.5 810.5Q944 741 984 647Q1024 554 1024 448Q1024 342 984 249Q944 155 874.5 85.5Q805 16 711 -24Q618 -64 512 -64Q406 -64 313 -24Q219 16 149.5 85.5Q80 155 40 249Q0 342 0 448ZM512 858Q427 858 352 826Q278 794 222 738Q166 682 134 608Q102 533 102 448Q102 363 134 288Q166 214 222 158Q278 102 352 70Q427 38 512 38Q597 38 672 70Q746 102 802 158Q858 214 890 288Q922 363 922 448Q922 533 890 608Q858 682 802 738Q746 794 672 826Q597 858 512 858ZM443 635L202 296L340 296L515 545L620 392L460 392L390 296L826 296Q826 296 792 344Q759 392 717.5 452.5Q676 513 638 568Q600 622 592 635Q574 660 558 667.5Q542 675 520 677Q482 679 462.5 657Q443 635 443 635Z" fill="#aa759f" />
  </g>
</svg>