<?xml version="1.0" encoding="UTF-8"?>
<svg width="16" height="16" viewBox="0 0 16 16" xmlns="http://www.w3.org/2000/svg">
  <g transform="translate(0.01909646739130455, 14.9825) scale(0.015585937499999999, -0.015585937499999999)">
    <path d="M342 353L329 353L336 384ZM438 533L370 486Q323 532 249 519Q175 506 79 550Q120 540 166 543Q211 545 258.5 549Q306 553 352 551Q397 550 438 533ZM83 528Q130 510 176.5 503Q223 496 271 498Q277 496 281 491.5Q285 487 287 482Q197 473 151 492Q105 511 83 528ZM110 490Q153 473 195.5 465.5Q238 458 294 468Q294 468 299.5 463Q305 458 306 454Q231 440 192 450.5Q153 461 110 490ZM309 439Q269 417 224.5 420.5Q180 424 168 440Q212 431 244 431.5Q276 432 309 439ZM945 550Q849 506 775 519Q701 532 654 486L586 533Q627 550 672 551Q718 553 765.5 549Q813 545 858 543Q904 540 945 550ZM737 482Q739 487 743 491.5Q747 496 753 498Q801 496 847.5 503Q894 510 941 528Q919 511 873 492Q827 473 737 482ZM718 454Q719 458 724.5 463Q730 468 730 468Q786 458 828.5 465.5Q871 473 914 490Q871 461 832 450.5Q793 440 718 454ZM856 440Q844 424 799.5 420.5Q755 417 715 439Q748 432 780 431.5Q812 431 856 440ZM294 323L197 323L317 403L294 323ZM321 323L323 333L347 333L349 323ZM377 322L348 424L386 450L425 322L377 322ZM409 466L470 507L437 371L409 466ZM508 323L450 323L501 527L508 531ZM532 497Q571 460 573 442Q575 424 532 423ZM532 323L532 388L578 323L532 323ZM607 323L555 400Q592 408 597.5 432.5Q603 457 571 495Q594 479 617.5 463.5Q641 448 664 431Q632 419 626 382Q620 345 658 323L607 323ZM655 360Q641 389 666 405Q691 421 700 381Q703 356 685 346.5Q667 337 655 360ZM826 323L691 323Q711 332 720 352Q729 372 723 393ZM458 545Q396 574 333 571Q270 569 210.5 563Q151 557 97 561Q43 566 0 608Q-2 577 30.5 548Q63 519 82 491Q93 472 112.5 455Q132 438 151 429Q163 407 182 405Q201 403 243 402L76 288L948 288L781 402Q823 403 842 405Q861 407 873 429Q892 438 911.5 455Q931 472 942 491Q961 519 993.5 548Q1026 577 1024 608Q981 566 927 561Q873 557 813.5 563Q754 569 691 571Q628 574 566 545L512 581L458 545Z" fill="#6a9fb5" />
  </g>
</svg>