<?xml version="1.0" encoding="UTF-8"?>
<svg width="16" height="16" viewBox="0 0 16 16" xmlns="http://www.w3.org/2000/svg">
  <g transform="translate(-0.11432617187499972, 15.409927687872024) scale(0.016542968749999998, -0.016542968749999998)">
    <path d="M175 951Q198 951 226 956Q254 961 295 960Q327 958 355 951Q383 944 395 933Q405 923 417.5 907Q430 891 430 874Q430 837 435 815Q440 793 440 793Q477 769 480 754Q483 739 509 727Q634 670 668.5 626.5Q703 583 737 527Q771 489 784.5 440.5Q798 392 821 358Q821 358 854.5 326Q888 294 912 257Q935 219 958 209Q981 199 981 199Q981 199 974 199.5Q967 200 962 200Q956 200 939 211.5Q922 223 916 225Q909 228 907 224.5Q905 221 916 206Q928 191 928 187Q928 183 925 182Q921 181 903.5 193Q886 205 886 205Q886 205 880 205.5Q874 206 873 195Q872 184 904.5 153.5Q937 123 952 110Q968 98 969 92.5Q970 87 961 84Q952 81 936 84.5Q920 88 901 89Q881 90 856 93Q831 96 797 95Q764 95 762 98.5Q760 102 749 107Q737 112 728 111.5Q719 111 706 115Q693 118 679.5 122Q666 126 666 126Q677 117 672 111Q667 105 670 98Q672 70 662.5 50Q653 30 648 16Q642 2 626.5 -12Q611 -26 611 -26Q611 -26 602 -26.5Q593 -27 589 -48Q585 -68 578.5 -63.5Q572 -59 571 -52Q571 -45 576.5 -40Q582 -35 586 -27Q589 -19 580.5 -13.5Q572 -8 571 -2Q569 5 560.5 4.5Q552 4 546 2Q539 -1 533.5 -8.5Q528 -16 526 -20Q523 -25 521 -21.5Q519 -18 516 -14Q513 -11 515 -2Q517 7 527 21Q537 36 530.5 39Q524 42 514 39Q503 35 502.5 41.5Q502 48 502 48Q511 58 525 72Q539 86 551 87Q587 91 605.5 87.5Q624 84 633 93Q644 105 637 108.5Q630 112 630 112Q630 112 614.5 103.5Q599 95 565 111Q554 117 542.5 113Q531 109 526 108Q510 103 505 94Q500 85 500 79Q487 84 493 95.5Q499 107 500 117Q500 123 494 125.5Q488 128 481 127Q464 112 460 112Q456 112 453 126Q457 130 460.5 131.5Q464 133 466 138Q467 144 476.5 153Q486 162 497 163Q519 165 559.5 148Q600 131 608 143Q612 149 563 175.5Q514 202 503 219Q489 232 473.5 260Q458 288 435 320Q418 344 395 368Q372 392 359 411Q314 480 291 544.5Q268 609 281 675Q281 675 283.5 694Q286 713 275 732Q261 756 237.5 781.5Q214 807 198 821Q187 830 182.5 839Q178 848 172 854Q157 869 136.5 870.5Q116 872 116 872Q116 872 90 873Q64 874 52 887Q40 900 32 899Q24 898 17 898Q10 898 5 900.5Q0 903 0 903Q2 906 8.5 909.5Q15 913 20 917Q33 935 40 944Q47 953 82 956Q82 956 116.5 953.5Q151 951 175 951ZM316 896Q311 908 310.5 911.5Q310 915 296 931Q282 947 280.5 920.5Q279 894 279 894Q279 894 294 893Q309 892 316 896ZM683 340Q672 348 661.5 359.5Q651 371 651 371Q651 371 616.5 420Q582 469 579 523Q577 577 557.5 588Q538 599 519 619Q500 639 456 653.5Q412 668 400 669Q387 671 360.5 715.5Q334 760 326 773Q318 787 318.5 808.5Q319 830 319 830Q322 820 342 814Q362 808 363 837Q364 866 340 869Q316 872 302 871Q276 869 270.5 860.5Q265 852 265 852Q239 859 218 864.5Q197 870 185 867Q181 857 213.5 826Q246 795 279 753Q310 714 297.5 669.5Q285 625 299 594Q299 594 299.5 574.5Q300 555 311 549Q322 542 323 527Q324 512 328 510Q331 507 329.5 495.5Q328 484 334 481Q341 479 345.5 462Q350 445 356 445Q362 445 385 427.5Q408 410 418 396Q422 390 435.5 385.5Q449 381 466 376Q451 395 438 418Q425 441 427 456Q431 484 431.5 488.5Q432 493 432 493Q432 493 446.5 451Q461 409 485 370Q507 362 530.5 350.5Q554 339 573 320Q610 281 653 230Q696 179 735 149Q774 119 796.5 120Q819 121 819 121Q819 121 777.5 177.5Q736 234 732 262Q728 289 711.5 311Q695 333 683 340Z" fill="#75b5aa" />
  </g>
</svg>