<?xml version="1.0" encoding="UTF-8"?>
<svg width="16" height="16" viewBox="0 0 16 16" xmlns="http://www.w3.org/2000/svg">
  <g transform="translate(0.5099999999999998, 14.55375) scale(0.01462890625, -0.01462890625)">
    <path d="M0 192L85 192L85 21L256 21L256 -64L0 -64ZM57 619L319 619L529 922Q541 940 560 950Q579 960 600 960L981 960Q999 960 1011.5 947.5Q1024 935 1024 917L1024 536Q1024 515 1014 496Q1004 477 986 465L683 255L683 -7Q683 -31 666 -47.5Q649 -64 626 -64L427 -64L341 21L448 128L363 213L256 107L171 192L277 299L192 384L85 277L0 363L0 562Q0 585 16.5 602Q33 619 57 619ZM896 704Q896 778 832 815Q768 852 704 815Q640 778 640 704Q640 630 704 593Q768 556 832 593Q896 630 896 704Z" fill="#46788d" />
  </g>
</svg>