<?xml version="1.0" encoding="UTF-8"?>
<svg width="16" height="16" viewBox="0 0 16 16" xmlns="http://www.w3.org/2000/svg">
  <g transform="translate(1.8339160156249994, 14.55375) scale(0.01462890625, -0.01462890625)">
    <path d="M312 887Q290 870 263.5 853.5Q237 837 208 821L209 814Q211 814 213.5 815.5Q216 817 219 818Q222 819 224 817.5Q226 816 226 813L233 817L237 817L237 814Q238 811 219.5 797Q201 783 164 757L169 751L165 750L157 753Q157 751 154.5 750Q152 749 147 749L147 745L156 737Q154 737 151 737Q148 737 145 739Q133 738 121.5 729Q110 720 98 704L102 698Q112 707 118 711.5Q124 716 126 716L126 707Q125 707 122.5 705.5Q120 704 116 703L125 690Q137 703 150 714Q163 725 178 734Q185 732 189 730Q193 728 193 725L200 726Q239 755 278 776Q317 797 355 810L356 803Q349 792 344 787Q339 782 336 781Q336 778 337.5 774.5Q339 771 341 768Q342 762 324.5 717.5Q307 673 271 592Q231 497 194 414Q156 332 122.5 262Q89 192 58 134Q27 76 0 30Q0 29 1 26Q2 23 4 20Q17 24 26 27Q35 30 38 33L42 34L43 27L50 28L57 32Q57 30 59 29.5Q61 29 64 29L64 22Q65 17 62 9.5Q59 2 53 -9Q47 -15 41 -28Q35 -41 29 -61L29 -64L36 -64Q58 -39 74.5 -15Q91 9 103 33Q167 51 215.5 69.5Q264 88 298 106Q332 109 358 118Q384 127 401 142L401 145L384 140L380 140L379 143Q404 147 421.5 152.5Q439 158 448 166Q497 203 533.5 229.5Q570 256 595 272Q672 328 708 382.5Q744 437 740 488Q739 494 722 515Q705 536 672 573Q672 580 683.5 590Q695 600 718 614L807 692Q822 711 831 742Q840 773 843 815L842 829Q839 858 817.5 882.5Q796 907 755 925Q731 942 687.5 950.5Q644 959 582 960Q531 955 463.5 937Q396 919 312 887L312 887ZM792 881L789 874L690 916Q739 914 764.5 905Q790 896 792 881L792 881ZM390 606Q395 633 401 648.5Q407 664 413 668L487 835Q487 843 498.5 849Q510 855 535 859L545 859L546 850Q570 854 585 856Q600 858 606 859Q650 862 673 853.5Q696 845 698 823L704 823L703 840L710 841Q723 834 730 825Q737 816 738 806Q739 799 735 790Q731 781 723 771Q719 771 717 773Q715 775 715 780L708 780L706 760Q684 726 667.5 709Q651 692 641 691Q632 679 626.5 672.5Q621 666 619 665Q612 657 592.5 642.5Q573 628 542 608Q531 607 492.5 592.5Q454 578 388 548Q384 550 380.5 550.5Q377 551 373 551L373 557Q372 567 376 579Q380 591 390 606L390 606ZM801 811L801 805Q799 805 794 813Q789 821 781 837L781 843Q786 844 791 836Q796 828 801 811L801 811ZM148 732L149 728Q147 728 144.5 727Q142 726 139 724L135 724L135 730L148 732ZM364 737L365 727Q363 727 359.5 723.5Q356 720 352 713L352 720Q356 725 358.5 729.5Q361 734 361 737L364 737ZM331 667L333 654L329 653L328 667ZM323 643Q322 635 320 630.5Q318 626 313 626L310 625Q313 631 314.5 635Q316 639 316 642L323 643ZM308 608L308 605L302 594L295 594L295 597Q300 597 302.5 600Q305 603 304 608L308 608ZM293 577L291 560L287 560L286 577L293 577ZM655 565L670 556Q670 553 668.5 551Q667 549 664 548Q659 551 655.5 552.5Q652 554 649 554L648 564L655 565ZM371 527L372 521L358 519L358 526ZM600 504Q608 500 611.5 497Q615 494 615 491L616 488Q609 487 602.5 491Q596 495 590 503ZM305 431Q335 434 383 448Q431 462 495 488L516 489Q549 492 573.5 486Q598 480 614 464L615 451Q603 416 590 395.5Q577 375 562 369L473 298Q423 265 396 248.5Q369 232 365 232Q286 188 236.5 165.5Q187 143 168 141L164 141Q165 145 174 166Q184 186 201.5 222.5Q219 259 245 311Q271 363 305 431L305 431ZM402 469L402 466L388 465L388 468ZM723 484L725 457Q723 452 720.5 449Q718 446 715 446L711 493Q717 491 719.5 488.5Q722 486 723 484L723 484ZM179 253Q175 236 171.5 227Q168 218 164 218L164 221Q163 230 167 238Q171 246 179 253L179 253ZM268 127Q288 131 341 159Q394 187 482 239L482 232Q483 230 475 223.5Q467 217 452 206Q408 185 381.5 170Q355 155 348 147Q299 130 275.5 119.5Q252 109 252 105Q209 88 181 75.5Q153 63 139 56Q136 55 131.5 56.5Q127 58 121 61Q120 69 124 76.5Q128 84 137 89Q144 90 151.5 89Q159 88 165 85Q173 89 187 93.5Q201 98 221 103L220 109L199 108Q201 110 216.5 117.5Q232 125 261 136L271 137L272 134Q258 133 250.5 129Q243 125 241 117Q242 114 243.5 112.5Q245 111 249 112Q258 118 263 122Q268 126 268 127L268 127ZM158 208L159 205Q159 201 157.5 199Q156 197 152 197L152 200Q152 203 153.5 205Q155 207 158 208L158 208ZM325 162Q319 161 307 156Q295 151 278 141L274 141L274 147Q286 148 297 153Q308 158 317 168Q321 168 323 166.5Q325 165 325 162ZM152 114L163 115L163 111Q161 111 158.5 110Q156 109 153 107L146 107Q146 109 147.5 111Q149 113 152 114L152 114ZM81 74L88 71Q86 56 81.5 48Q77 40 70 40Q64 42 58.5 43.5Q53 45 48 44L47 54Q47 57 48.5 59Q50 61 54 62Q57 62 59 59.5Q61 57 61 52Q70 63 75 68.5Q80 74 81 74L81 74Z" fill="#ee9e2e" />
  </g>
</svg>