<?xml version="1.0" encoding="UTF-8"?>
<svg width="16" height="16" viewBox="0 0 16 16" xmlns="http://www.w3.org/2000/svg">
  <g transform="translate(2.42, 12.65) scale(0.007265625, -0.007265625)">
    <path d="M1475 938Q1475 938 1505.5 867Q1536 796 1536 640Q1536 484 1475 342Q1414 200 1311 97Q1208 -6 1066 -67Q924 -128 768 -128Q596 -128 441 -55.5Q286 17 177 149Q170 159 170.5 171.5Q171 184 179 192L316 330Q326 339 341 339Q357 337 364 327Q437 232 543 180Q649 128 768 128Q872 128 966.5 168.5Q1061 209 1130 278Q1199 347 1239.5 441.5Q1280 536 1280 640Q1280 744 1239.5 838.5Q1199 933 1130 1002Q1061 1071 966.5 1111.5Q872 1152 768 1152Q670 1152 580 1116.5Q490 1081 420 1015L557 877Q588 847 571 808Q554 768 512 768L64 768Q38 768 19 787Q0 806 0 832L0 1280Q0 1322 40 1339Q79 1356 109 1325L239 1196Q346 1297 483.5 1352.5Q621 1408 768 1408Q924 1408 1066 1347Q1208 1286 1311 1183Q1414 1080 1475 938ZM896 928L896 480Q896 466 887 457Q878 448 864 448L544 448Q530 448 521 457Q512 466 512 480L512 544Q512 558 521 567Q530 576 544 576L768 576L768 928Q768 942 777 951Q786 960 800 960L864 960Q878 960 887 951Q896 942 896 928Z" fill="#ffffff" />
  </g>
</svg>