<?xml version="1.0" encoding="UTF-8"?>
<svg width="16" height="16" viewBox="0 0 16 16" xmlns="http://www.w3.org/2000/svg">
  <g transform="translate(1.5785937500000005, 14.966914062499999) scale(0.015585937499999999, -0.015585937499999999)">
    <path d="M412 724L0 959L0 -65L412 170L824 -65L824 959L412 724ZM207 447L412 564L618 447L412 330Q412 330 380 349Q348 367 309.5 389Q271 411 239 429Q207 447 207 447ZM136 734L283 651L136 567L136 734ZM136 328L272 250L136 173Q136 173 136 250.5Q136 328 136 328ZM552 250L688 328L688 173ZM541 651L688 734L688 567Q688 567 665 580Q642 593 614.5 609Q587 625 564 638Q541 651 541 651Z" fill="#46788d" />
  </g>
</svg>