<?xml version="1.0" encoding="UTF-8"?>
<svg width="16" height="16" viewBox="0 0 16 16" xmlns="http://www.w3.org/2000/svg">
  <g transform="translate(0.020000000000000462, 14.985270833333331) scale(0.015585937499999999, -0.015585937499999999)">
    <path d="M254 954L6 706Q3 704 1.5 701.5Q0 699 0 696L0 451Q0 448 1 446Q2 444 4 442L503 -58Q503 -58 503 -58Q503 -58 503 -58Q508 -62 513 -61Q518 -60 521 -58L1020 442Q1022 445 1023 446Q1024 447 1024 451L1024 696Q1024 700 1022 702.5Q1020 705 1017 707L770 954Q767 957 762 957Q757 957 753 954L512 713L270 954Q265 958 260.5 957.5Q256 957 254 954ZM273 918L496 696L390 590L273 706ZM773 918L995 696L889 590L773 705ZM250 917L250 705L135 590L29 696ZM749 916L749 704L635 590L529 696ZM262 684L373 573L262 463L152 573ZM762 683L872 573L762 463L652 573ZM523 668L618 573L523 478ZM24 668L118 573L24 478ZM1000 668L1000 478L906 573ZM500 667L500 480L406 573ZM390 557L496 451L385 340L279 446ZM635 557L745 447L639 341L529 451ZM135 556L250 441L250 230L29 450ZM889 556L995 450L773 230L773 440ZM512 434L622 324L512 213L402 323ZM273 417L368 323L273 228ZM749 417L749 230L656 323ZM639 307L745 201L523 -21L523 190ZM385 306L500 191L500 -20L279 201Z" fill="#90a959" />
  </g>
</svg>