<?xml version="1.0" encoding="UTF-8"?>
<svg width="16" height="16" viewBox="0 0 16 16" xmlns="http://www.w3.org/2000/svg">
  <g transform="translate(0.2097732204861118, 14.9825) scale(0.015585937499999999, -0.015585937499999999)">
    <path d="M7 425Q-10 453 27 495.5Q64 538 236 716Q379 864 433 912Q487 960 504 960Q521 960 572.5 918Q624 876 763 734Q822 673 867 625Q911 576 940 541.5Q969 507 984 486Q998 465 998 459Q998 446 923 363Q848 280 755 185Q662 90 580 13Q498 -64 486 -64Q471 -52 416 -3Q362 46 290.5 115.5Q219 185 142 267Q66 348 7 425ZM733 203Q792 263 835 309Q879 355 907.5 387.5Q936 420 951 439Q965 457 965 463Q965 473 896 548Q828 623 744.5 710Q661 797 588 868Q515 938 506 938Q500 938 428 869Q356 799 271 713.5Q186 628 114 552Q41 476 34 462Q28 451 40 429Q52 407 84.5 370Q117 333 171 278Q225 224 303 147Q450 3 467.5 -11.5Q485 -26 494 -20Q501 -15 521 2Q542 19 573 47.5Q604 76 645 115Q685 154 733 203ZM428 187Q424 237 422 281Q421 326 420.5 370.5Q420 415 421 461Q421 507 421 560L379 560Q341 560 344.5 575.5Q348 591 408 685Q435 728 454 751.5Q473 775 481 773Q486 772 508 743Q530 714 554 678Q578 642 597 609Q616 577 616 570Q600 555 568 560Q536 565 527 545Q520 526 541.5 474Q563 422 600 369Q638 315 643.5 296Q649 277 631 262Q621 254 611 258.5Q601 263 576 287Q560 302 547 311Q534 320 531 317Q523 282 523.5 250.5Q524 219 524 180Q500 181 475 180.5Q450 180 428 187Z" fill="#f4bf75" />
  </g>
</svg>