<?xml version="1.0" encoding="UTF-8"?>
<svg width="16" height="16" viewBox="0 0 16 16" xmlns="http://www.w3.org/2000/svg">
  <g transform="translate(2.3754377693965507, 14.554712428042762) scale(0.01462890625, -0.01462890625)">
    <path d="M588 442Q645 521 654 598Q663 676 638 742.5Q613 809 561 860Q509 912 444 938Q373 967 296 958Q219 950 154.5 909.5Q90 869 47 801Q4 732 0 641L0 -64L412 -64Q487 -41 524 -2Q562 38 573 83Q584 128 574 174Q563 219 541 252Q483 323 410 332Q336 340 277 305.5Q218 271 190 203Q161 135 195 54L252 86L193 -50L48 -28L99 0Q73 49 67 106Q62 162 76.5 217Q91 272 127 320Q162 369 218 402Q141 434 102 509Q63 583 70 663Q77 743 134 809Q192 875 307 891Q370 900 436 866Q501 833 541.5 773Q582 713 586 635Q589 557 528 477L560 453L447 452L417 561L455 534Q503 604 486 667Q470 729 422 764.5Q374 800 310 797Q246 795 197 734Q164 692 163.5 618.5Q163 545 243 492Q269 476 329.5 464Q390 452 447 437Q477 430 510.5 412Q544 394 558 383Q614 336 647 281Q680 227 688 169.5Q696 112 679 53Q662 -7 619 -64L709 -64Q752 -2 764 71Q776 144 759 214Q742 284 698 345Q655 405 588 442Z" fill="#75b5aa" />
  </g>
</svg>