<?xml version="1.0" encoding="UTF-8"?>
<svg width="16" height="16" viewBox="0 0 16 16" xmlns="http://www.w3.org/2000/svg">
  <g transform="translate(0.26937499999999925, 14.98465550199468) scale(0.015585937499999999, -0.015585937499999999)">
    <path d="M768 322L713 486L582 486L582 421L667 421L673 401L528 294L528 832L647 895L647 960L0 615L0 550L43 573L43 -43L528 -43L528 213L695 336L707 301Q663 278 637 239Q611 199 605.5 154Q600 109 615 64Q630 19 669 -16Q711 -52 762 -61Q813 -69 859.5 -53.5Q906 -38 942 -1Q977 37 988 92Q998 142 983 187Q968 232 936.5 264.5Q905 297 861 313Q817 329 768 322ZM925 104Q910 31 839 7.5Q768 -16 712 33Q662 77 668.5 141Q675 205 728 238L758 147Q753 135 755.5 121Q758 107 769 98Q788 81 811.5 89Q835 97 840 121Q843 136 837 148Q831 160 820 167L789 259Q850 263 894 216Q938 169 925 104Z" fill="#46788d" />
  </g>
</svg>