<?xml version="1.0" encoding="UTF-8"?>
<svg width="16" height="16" viewBox="0 0 16 16" xmlns="http://www.w3.org/2000/svg">
  <g transform="translate(0.44782714843749977, 14.55375) scale(0.01462890625, -0.01462890625)">
    <path d="M901 419L1015 574Q1033 598 1015 615.5Q997 633 954 634L901 419ZM901 108L901 419L967 150Q977 108 953.5 77.5Q930 47 886 47Q893 58 897 74.5Q901 91 901 108ZM226 850L794 850Q824 849 849 832.5Q874 816 885 791L901 419Q877 510 864 577Q851 645 834.5 690.5Q818 736 789 761Q760 785 702 791L133 791Q146 814 168 831.5Q190 849 226 850ZM636 634Q681 634 725.5 616.5Q770 599 788 574L901 419L122 419L9 574Q-9 598 8.5 615.5Q26 633 70 634ZM702 46L138 46Q79 50 60.5 93Q42 136 70 204L636 204Q738 214 773.5 250Q809 286 901 419Q875 315 860 246Q845 176 827 133.5Q809 91 781 71Q754 51 702 46Z" fill="#ac4142" />
  </g>
</svg>