<?xml version="1.0" encoding="UTF-8"?>
<svg width="16" height="16" viewBox="0 0 16 16" xmlns="http://www.w3.org/2000/svg">
  <g transform="translate(1.7578320312500004, 14.982005208333334) scale(0.015585937499999999, -0.015585937499999999)">
    <path d="M374 721Q441 700 491 650Q541 600 562 533Q532 538 501 536.5Q470 535 438 528Q430 543 419.5 556Q409 569 395 580Q372 615 366.5 651.5Q361 688 374 721ZM512 960Q412 957 342 904Q273 852 244 776.5Q215 701 230 617Q245 532 314 465Q336 484 361.5 497.5Q387 511 415 521Q360 571 347 628Q335 684 352.5 732Q370 780 413 811Q456 843 512 844Q578 843 621 806Q664 769 678 718Q692 667 674 613Q656 559 599 524Q631 515 659 500Q687 485 712 465Q784 537 797 623Q810 709 778.5 783.5Q747 858 677 908Q607 959 512 960ZM801 225Q800 343 728 417Q656 492 561.5 509Q467 526 374 479Q281 432 238 308Q278 294 311.5 301Q345 308 374 327Q416 378 469 391Q523 403 570.5 386Q618 369 651 326Q684 284 684 225Q683 162 647 118Q610 75 559.5 60Q509 45 455 64Q400 82 362 144Q332 136 301 135Q270 134 238 139Q280 19 372 -29Q464 -76 558.5 -60Q653 -44 725 30Q798 103 801 225ZM209 599Q202 629 200.5 660Q199 691 205 722Q160 708 123 682Q85 655 58 619Q31 583 15 539Q0 495 0 447Q4 320 78 248Q153 175 247.5 162Q342 149 433 198Q524 247 563 363Q527 378 486.5 370Q446 362 422 341Q386 299 345 284Q305 270 267 275.5Q229 281 197 302Q165 324 145 353Q106 410 119.5 481Q133 552 209 599Z" fill="#d28445" />
  </g>
</svg>