<?xml version="1.0" encoding="UTF-8"?>
<svg width="16" height="16" viewBox="0 0 16 16" xmlns="http://www.w3.org/2000/svg">
  <g transform="translate(2.0150000000000006, 12.9875) scale(0.015585937499999999, -0.015585937499999999)">
    <path d="M0 -128L0 768L576 768L768 576L768 -128ZM704 512L512 704L64 704L64 -64L704 -64ZM320 320L128 320L128 576L320 576ZM256 512L192 512L192 384L256 384ZM256 64L320 64L320 0L128 0L128 64L192 64L192 192L128 192L128 256L256 256ZM512 384L576 384L576 320L384 320L384 384L448 384L448 512L384 512L384 576L512 576ZM576 0L384 0L384 256L576 256ZM512 192L448 192L448 64L512 64Z" fill="#66783e" />
  </g>
</svg>