<?xml version="1.0" encoding="UTF-8"?>
<svg width="16" height="16" viewBox="0 0 16 16" xmlns="http://www.w3.org/2000/svg">
  <g transform="translate(0.002855468750000015, 14.976871744791666) scale(0.015585937499999999, -0.015585937499999999)">
    <path d="M314 743Q340 741 365 734.5Q390 728 413 728Q448 746 471 766.5Q494 787 548 790Q524 764 495 739.5Q466 715 431 694Q392 671 358.5 687Q325 703 314 743ZM445 639Q474 648 503 666.5Q532 685 560 712Q580 743 598 745.5Q616 748 635 744Q651 742 660 741Q669 740 685 745Q694 748 703.5 748.5Q713 749 723 741Q740 711 780 678Q820 645 843 629Q888 611 928.5 620.5Q969 630 1000 664Q1042 711 1014 769.5Q986 828 932 833Q1001 789 992 732.5Q983 676 912 669Q875 668 837.5 697Q800 726 766 759Q751 800 711.5 804Q672 808 659 799Q624 810 601.5 807Q579 804 568 798Q548 770 515 741Q482 712 437 684Q389 657 350 678.5Q311 700 302 745Q301 769 314.5 795Q328 821 357 851Q322 838 298.5 811Q275 784 269 745Q273 696 317.5 656Q362 616 445 639ZM257 745Q239 743 198 724Q157 705 104 639Q78 606 64 560Q50 514 43 471Q36 428 35 397Q34 366 35 364Q40 341 36.5 331.5Q33 322 33 313Q33 305 21.5 291Q10 277 6 271Q-3 257 1 218.5Q5 180 11 157Q12 151 11.5 111.5Q11 72 11 72Q12 56 31 54Q50 52 48 67Q48 67 47.5 92Q47 117 47 129Q47 140 64 175.5Q81 211 86 222Q92 234 103 258Q114 282 122 299Q130 317 150 336Q170 355 179 364Q188 372 196.5 370Q205 368 205 368Q205 368 218 357.5Q231 347 226 331Q221 318 196 276.5Q171 235 171 235L230 61Q233 45 255.5 48Q278 51 274 66Q271 96 261.5 131Q252 166 257 207Q280 228 286 247.5Q292 267 310 295Q330 297 352.5 289Q375 281 398 279Q406 235 416 220Q426 205 427 183Q429 153 432.5 143.5Q436 134 439 119Q439 119 440.5 90Q442 61 449 51Q457 40 473 47Q489 54 489 54Q490 74 486 85.5Q482 97 484 114Q508 147 495.5 173.5Q483 200 483 228Q480 251 488 251.5Q496 252 504 258Q513 250 524.5 248.5Q536 247 550 252Q550 252 560 249Q570 246 582 246Q589 246 588.5 233.5Q588 221 588 211Q590 184 600.5 120Q611 56 621 49Q630 43 642 49.5Q654 56 654 56L659 163Q659 163 651 175.5Q643 188 664 227Q677 252 684 295Q691 338 705 375Q713 399 711 414.5Q709 430 715 445Q732 490 721.5 500Q711 510 716 527Q743 581 737.5 597.5Q732 614 736 621Q757 618 777.5 620.5Q798 623 817 633Q790 654 759.5 681Q729 708 715 733Q708 738 702 737Q696 736 688 734Q672 729 661 729.5Q650 730 633 733Q615 736 600.5 733.5Q586 731 569 705Q519 654 466 634Q413 615 368.5 622.5Q324 630 294 661Q263 693 257 745Z" fill="#75b5aa" />
  </g>
</svg>