<?xml version="1.0" encoding="UTF-8"?>
<svg width="16" height="16" viewBox="0 0 16 16" xmlns="http://www.w3.org/2000/svg">
  <g transform="translate(1.1916618648156088, 14.549800703260633) scale(0.01462890625, -0.01462890625)">
    <path d="M298 -57Q308 -65 319.5 -62Q331 -59 321 -33Q292 46 302 111Q313 176 346.5 221.5Q380 267 427 291Q475 314 521 309Q574 302 615 274Q656 245 680 201.5Q704 158 709 103Q714 48 697 -11Q684 -43 697.5 -59Q711 -75 731 -50Q834 70 884 195Q934 320 931 442Q928 564 873 682Q818 799 711 906Q683 925 683.5 906.5Q684 888 703 843Q728 767 726 711Q725 654 705.5 614.5Q686 575 654 552Q621 528 584 517Q555 509 508 511Q461 513 408.5 507Q356 501 306 479Q255 456 219 399Q186 397 152 425Q118 453 91 494.5Q64 536 47 583Q30 630 29 667Q31 694 20 696.5Q9 699 4 680Q-8 611 13 552Q33 493 65 448Q97 403 129 374Q161 345 171 335Q186 313 184 272Q181 231 185.5 178.5Q190 126 212 65Q235 5 298 -57ZM522 716Q406 580 473.5 548Q541 516 626 582Q675 619 682 676Q689 733 678.5 786.5Q668 840 651 879Q634 917 634 917Q634 917 626.5 927.5Q619 938 582 946Q544 969 515 956Q485 944 454 918.5Q423 893 385 867Q348 841 293 836Q275 835 274 820.5Q273 806 284 800Q285 788 290 774Q295 760 304 751Q320 737 348 725Q376 713 390 715Q447 723 475.5 725.5Q504 728 522 716Z" fill="#ac4142" />
  </g>
</svg>