<?xml version="1.0" encoding="UTF-8"?>
<svg width="16" height="16" viewBox="0 0 16 16" xmlns="http://www.w3.org/2000/svg">
  <g transform="translate(2.146900308098593, 13.129999999999999) scale(0.00890625, -0.00890625)">
    <path d="M1167 896Q1185 714 1036 638Q1153 610 1211 535Q1269 460 1256 321Q1249 250 1223.5 196Q1198 142 1159 107Q1120 72 1062 48.5Q1004 25 940.5 14Q877 3 795 -1L795 -256L641 -256L641 -5Q561 -5 519 -4L519 -256L365 -256L365 -1Q347 -1 311 -0.5Q275 0 256 0L56 0L87 183L198 183Q248 183 256 234L256 636L272 636Q266 637 256 637L256 924Q243 992 167 992L56 992L56 1156L268 1155Q332 1155 365 1156L365 1408L519 1408L519 1161Q601 1163 641 1163L641 1408L795 1408L795 1156Q874 1149 935 1133.5Q996 1118 1048 1088.5Q1100 1059 1130.5 1010.5Q1161 962 1167 896ZM952 351Q952 387 937 415Q922 443 900 461Q878 479 842.5 491.5Q807 504 777 510Q747 516 703 519Q659 522 634 522Q609 522 569.5 521Q530 520 522 520L522 182Q530 182 559 181.5Q588 181 607 181Q626 181 660 182.5Q694 184 718.5 186.5Q743 189 775.5 195Q808 201 831 209Q854 217 878.5 230Q903 243 918 260Q933 277 942.5 300Q952 323 952 351ZM881 827Q881 860 868.5 885.5Q856 911 838 927.5Q820 944 790 955.5Q760 967 735 972Q710 977 673.5 980Q637 983 615.5 982.5Q594 982 561.5 981.5Q529 981 522 981L522 674Q527 674 556.5 673.5Q586 673 603 673.5Q620 674 653 675.5Q686 677 708 681Q730 685 759.5 692Q789 699 808 710.5Q827 722 845 737.5Q863 753 872 776Q881 799 881 827Z" fill="#d28445" />
  </g>
</svg>