<?xml version="1.0" encoding="UTF-8"?>
<svg width="16" height="16" viewBox="0 0 16 16" xmlns="http://www.w3.org/2000/svg">
  <g transform="translate(0.9239843750000007, 14.9825) scale(0.015585937499999999, -0.015585937499999999)">
    <path d="M454 960Q360 960 278 948Q195 936 133.5 916Q72 896 36 868Q0 841 0 809Q0 801 9 745Q18 690 30 617Q42 544 55 469Q68 394 76 347Q80 326 108 302Q136 278 185 257.5Q234 237 302 223Q370 209 454 209Q538 209 606 223Q674 237 723 257.5Q772 278 800 302Q828 326 832 347Q840 394 853 469Q866 544 878 617Q890 690 899 745Q908 801 908 809Q908 841 872 868Q836 896 774.5 916Q713 936 630 948Q548 960 454 960ZM768 241Q768 241 747 228Q727 214 687 197Q647 180 588 167Q530 153 454 153Q378 153 320 167Q261 180 221 197Q181 214 161 228Q140 241 140 241Q129 249 119.5 244.5Q110 240 112 225Q125 155 134 109Q143 63 144 56Q150 30 176 8Q203 -14 244.5 -30Q286 -46 340 -55Q394 -64 454 -64Q514 -64 568 -55Q622 -46 663.5 -30Q705 -14 732 8Q758 30 764 56Q765 63 774 109Q783 155 796 225Q798 238 788.5 244Q779 250 768 241ZM419 385Q380 408 380 453.5Q380 499 419 522Q458 544 497.5 521.5Q537 499 537 454Q537 408 497.5 385.5Q458 363 419 385ZM308 771Q163 789 163 824.5Q163 860 308 878Q381 887 458 887Q535 886 599 878Q663 870 704 856Q745 842 745 825Q745 807 704 793Q663 779 599 771Q535 763 458 763Q381 762 308 771ZM382 330Q346 351 328 384Q310 418 310 454.5Q310 491 328 525Q346 559 382 580Q418 600 456 599Q494 598 526 579.5Q558 561 578 529Q598 496 598 455Q598 413 578 381Q558 348 526 330Q494 312 456 310Q418 309 382 330Z" fill="#6a9fb5" />
  </g>
</svg>