<?xml version="1.0" encoding="UTF-8"?>
<svg width="16" height="16" viewBox="0 0 16 16" xmlns="http://www.w3.org/2000/svg">
  <g transform="translate(0.5104315981657597, 14.55375) scale(0.01462890625, -0.01462890625)">
    <path d="M899 605L578 852Q562 864 539 864Q516 864 499 852Q481 839 479.5 821.5Q478 804 494 791L627 683L220 683Q194 683 173 668Q152 653 147 632Q142 611 157 596Q172 581 198 580L405 580L35 297Q9 277 2 248Q-5 219 11 198Q28 177 58.5 177Q89 177 116 198L316 362Q316 362 315 349.5Q314 337 314 327Q316 285 332 245Q349 205 375.5 170.5Q402 136 437 109Q472 81 512 64Q580 34 657 32Q734 31 804 57Q874 83 929 136Q985 189 1011 268Q1023 310 1024 354Q1025 399 1012 443Q999 487 971 528Q944 570 899 605ZM559 213Q505 241 478 288Q451 334 451 383.5Q451 433 478 480Q505 526 559 554Q613 582 671 581Q728 579 776 554Q824 529 854 485Q885 440 885 384Q885 327 854 283Q824 238 776 213Q728 188 671 186Q613 185 559 213ZM603 281Q534 317 534 389.5Q534 462 603 498Q672 535 741.5 498.5Q811 462 811 390Q811 317 741.5 281Q672 245 603 281Z" fill="#46788d" />
  </g>
</svg>