<?xml version="1.0" encoding="UTF-8"?>
<svg width="16" height="16" viewBox="0 0 16 16" xmlns="http://www.w3.org/2000/svg">
  <g transform="translate(0.022441170933733545, 14.9825) scale(0.015585937499999999, -0.015585937499999999)">
    <path d="M888 290Q950 298 978 342Q1006 386 996.5 435.5Q987 485 936 523Q885 562 789 558Q734 558 684 558Q634 558 590 558Q575 582 546 601.5Q517 621 474 631Q536 639 564 683Q592 728 582.5 777Q573 826 522 864Q471 903 375 899Q310 899 255 899Q199 899 153 899.5Q107 900 69 902Q31 904 0 908L0 771L88 771L88 460L0 460L0 330L456 330L456 119L405 119L405 -12L838 -12Q913 -12 961 28Q1009 68 1020.5 119.5Q1032 171 1002 221Q971 270 888 290ZM317 456L255 456L255 567L317 567Q366 562 366 513Q366 464 317 456ZM317 667L255 667L255 777L317 777Q366 772 366 723Q366 674 317 667ZM731 115L669 115L669 226L731 226Q780 221 780 172Q780 123 731 115ZM731 326L669 326L669 436L731 436Q780 431 780 382Q780 333 731 326Z" fill="#75b5aa" />
  </g>
</svg>