<?xml version="1.0" encoding="UTF-8"?>
<svg width="16" height="16" viewBox="0 0 16 16" xmlns="http://www.w3.org/2000/svg">
  <g transform="translate(2.8949902343749994, 13.696250000000001) scale(0.012714843750000001, -0.012714843750000001)">
    <path d="M490 449Q507 429 515.5 397.5Q524 366 524 322Q524 273 515.5 238Q507 203 490 182Q473 162 452 151.5Q431 141 405 141Q378 141 355.5 151.5Q333 162 316 183Q298 204 289 238Q280 272 280 319Q280 362 289 394.5Q298 427 316 448Q335 469 358 479.5Q381 490 410 490Q433 490 453.5 480Q474 470 490 449ZM803 328Q803 417 781.5 486Q760 555 716 603Q672 651 617 675Q562 699 495 699Q463 699 433.5 693.5Q404 688 378 677Q351 666 327 649.5Q303 633 282 611L282 960L0 960L0 -48L262 -48L262 60Q289 26 314 3Q339 -20 362 -32Q393 -48 426.5 -56Q460 -64 497 -64Q540 -64 579 -52.5Q618 -41 653 -19Q688 4 716 38Q744 72 764 117Q783 163 793 215.5Q803 268 803 328Z" fill="#46788d" />
  </g>
</svg>