<?xml version="1.0" encoding="UTF-8"?>
<svg width="16" height="16" viewBox="0 0 16 16" xmlns="http://www.w3.org/2000/svg">
  <g transform="translate(0.020000000000000462, 14.982499999999998) scale(0.015585937499999999, -0.015585937499999999)">
    <path d="M555 509L555 599L1024 599L1024 509ZM1024 301L1024 391L555 391L555 301ZM476 578Q476 629 427.5 655Q379 681 331 656Q283 630 283 578Q283 526 331 500Q379 474 427.5 500Q476 526 476 578ZM48 500Q0 526 0 578Q0 630 48 656Q96 681 144 655Q192 629 192 578Q192 526 144 500Q96 474 48 500ZM476 318Q476 370 427.5 396Q379 422 331 396Q283 370 283 318Q283 266 331 240Q379 215 427.5 241Q476 267 476 318ZM48 240Q0 266 0 318Q0 370 48 396Q96 422 144 396Q192 370 192 318Q192 267 144 241Q96 215 48 240Z" fill="#ee9e2e" />
  </g>
</svg>