<?xml version="1.0" encoding="UTF-8"?>
<svg width="16" height="16" viewBox="0 0 16 16" xmlns="http://www.w3.org/2000/svg">
  <g transform="translate(0.5187500000000007, 13.236875) scale(0.015585937499999999, -0.015585937499999999)">
    <path d="M768 256L640 256Q614 255 595.5 236Q577 217 576 192L832 192Q831 218 812 236.5Q793 255 768 256ZM713 672Q591 671 543 653Q495 635 480 616Q465 635 417 653Q369 671 247 672Q122 670 61 645Q0 620 0 594L0 8Q24 21 82.5 39Q141 57 214 64Q304 70 374 60Q444 50 448 32Q448 20 455 10.5Q462 1 479 0Q479 0 479.5 0Q480 0 481 0Q498 1 505 10.5Q512 20 512 32Q516 50 586 60Q656 70 746 64Q818 57 877 39Q936 21 960 8L960 594Q960 620 899 645Q838 670 713 672ZM448 100Q425 112 374.5 120Q324 128 256 128Q188 128 135 120.5Q82 113 64 101L64 544Q64 569 112 585.5Q160 602 256 602Q352 602 400 585.5Q448 569 448 544ZM896 101Q878 113 825 120.5Q772 128 704 128Q636 128 585.5 120Q535 112 512 100L512 544Q512 569 560 585.5Q608 602 704 602Q800 602 848 585.5Q896 569 896 544ZM768 384L640 384Q614 383 595.5 364Q577 345 576 320L832 320Q831 346 812 364.5Q793 383 768 384ZM768 512L640 512Q614 511 595.5 492Q577 473 576 448L832 448Q831 474 812 492.5Q793 511 768 512ZM320 384L192 384Q167 383 148 364.5Q129 346 128 320L384 320Q383 345 364.5 364Q346 383 320 384ZM320 256L192 256Q167 255 148 236.5Q129 218 128 192L384 192Q383 217 364.5 236Q346 255 320 256ZM320 512L192 512Q167 511 148 492.5Q129 474 128 448L384 448Q383 473 364.5 492Q346 511 320 512Z" fill="#46788d" />
  </g>
</svg>