<?xml version="1.0" encoding="UTF-8"?>
<svg width="16" height="16" viewBox="0 0 16 16" xmlns="http://www.w3.org/2000/svg">
  <g transform="translate(0.5418775201612902, 13.7) scale(0.00890625, -0.00890625)">
    <path d="M1639 1058Q1679 1001 1657 929L1382 23Q1363 -41 1305.5 -84.5Q1248 -128 1183 -128L260 -128Q183 -128 111.5 -74.5Q40 -21 12 57Q-12 124 10 184Q10 188 13 211Q16 234 17 248Q18 256 14 269.5Q10 283 11 289Q13 300 19 310Q25 320 35.5 333.5Q46 347 52 357Q75 395 97 448.5Q119 502 127 540Q130 550 127.5 570Q125 590 127 598Q130 609 144 626Q158 643 161 649Q182 685 203 741Q224 797 228 831Q229 840 225.5 863Q222 886 226 891Q230 904 248 921.5Q266 939 270 944Q289 970 312.5 1028.5Q336 1087 340 1125Q341 1133 337 1150.5Q333 1168 335 1177Q337 1185 344 1195Q351 1205 362 1218Q373 1231 379 1239Q387 1251 395.5 1269.5Q404 1288 410.5 1304.5Q417 1321 426.5 1340.5Q436 1360 446 1372.5Q456 1385 472.5 1396Q489 1407 508.5 1407.5Q528 1408 556 1402L555 1399Q593 1408 606 1408L1367 1408Q1441 1408 1481 1352Q1521 1296 1499 1222L1225 316Q1189 197 1153.5 162.5Q1118 128 1025 128L156 128Q129 128 118 113Q107 97 117 70Q141 0 261 0L1184 0Q1213 0 1240 15.5Q1267 31 1275 57L1575 1044Q1582 1066 1580 1101Q1618 1086 1639 1058ZM575 1056Q571 1043 577 1033.5Q583 1024 597 1024L1205 1024Q1218 1024 1230.5 1033.5Q1243 1043 1247 1056L1268 1120Q1272 1133 1266 1142.5Q1260 1152 1246 1152L638 1152Q625 1152 612.5 1142.5Q600 1133 596 1120ZM492 800Q488 787 494 777.5Q500 768 514 768L1122 768Q1135 768 1147.5 777.5Q1160 787 1164 800L1185 864Q1189 877 1183 886.5Q1177 896 1163 896L555 896Q542 896 529.5 886.5Q517 877 513 864Z" fill="#6a9fb5" />
  </g>
</svg>