<?xml version="1.0" encoding="UTF-8"?>
<svg width="16" height="16" viewBox="0 0 16 16" xmlns="http://www.w3.org/2000/svg">
  <g transform="translate(0.5099999999999998, 14.55356482397152) scale(0.01462890625, -0.01462890625)">
    <path d="M190 -64L868 -64Q934 -48 974 -9.5Q1014 29 1024 92L1024 805Q1010 861 974.5 902.5Q939 944 868 960L157 959Q91 946 53 905.5Q15 865 0 805L0 92Q15 12 73.5 -26.5Q132 -65 190 -64ZM612 114L259 114L259 775Q259 775 315 775Q372 774 441 773.5Q510 773 570 772Q629 772 635 771Q707 761 741 725Q775 689 780 645Q789 571 762.5 531.5Q736 492 695 473Q767 448 795 390Q823 333 811.5 273.5Q800 214 749 166Q699 119 612 114ZM406 506L489 507Q547 507 561 508Q575 509 584 511Q614 519 627 537Q640 555 640 585Q640 609 631.5 624.5Q623 640 605 649Q589 657 563.5 659.5Q538 662 470 662L406 662L406 506ZM406 408L406 226L496 227Q572 227 589.5 229Q607 231 626 240Q648 251 658 268.5Q668 286 668 314Q668 350 652.5 371Q637 392 604 402Q589 408 529 407.5Q469 407 406 408Z" fill="#6a9fb5" />
  </g>
</svg>