<?xml version="1.0" encoding="UTF-8"?>
<svg width="16" height="16" viewBox="0 0 16 16" xmlns="http://www.w3.org/2000/svg">
  <g transform="translate(2.4538933676861703, 14.979340688344594) scale(0.015585937499999999, -0.015585937499999999)">
    <path d="M210 413Q207 342 187 323.5Q167 305 116 264Q46 208 22.5 177Q-1 146 0 106Q1 29 49.5 -10.5Q98 -50 148 -59Q194 -69 241.5 -60.5Q289 -52 349 -29Q396 -11 418 10.5Q440 32 486 54Q520 71 554.5 76Q589 81 618 100Q663 128 691 184Q719 240 701 301Q677 378 674.5 404Q672 430 673 465Q676 547 695.5 586.5Q715 626 711 657Q711 707 675 737Q639 767 602 774Q603 807 603 840.5Q603 874 601 909Q600 935 592 947.5Q584 960 570 960Q554 960 525.5 938.5Q497 917 438 883Q400 860 366.5 857.5Q333 855 316 876Q309 885 303 889.5Q297 894 290 894Q275 894 267 878.5Q259 863 257 831Q256 800 255 777Q254 754 254 740Q200 717 182.5 669.5Q165 622 181 561Q189 529 200.5 486.5Q212 444 210 413ZM254 701Q253 674 260 618Q266 563 276 506.5Q286 450 298 406Q309 362 316 359Q323 360 327 397Q331 433 337.5 478.5Q344 524 356 565Q368 606 390 617Q405 623 462.5 625.5Q520 628 557 641Q569 645 578.5 652Q588 659 594 666L601 739Q634 732 663.5 700.5Q693 669 666 605Q649 565 640.5 493Q632 421 646 369Q627 311 597.5 286Q568 261 539 242Q516 227 483 210Q449 193 415.5 177Q382 161 352 147Q323 133 307 125Q267 102 232.5 91Q198 80 161 84Q123 89 98 114Q73 139 53 157Q60 175 104.5 208.5Q149 242 196 287Q218 308 232 344Q246 380 244 411Q239 480 222.5 536.5Q206 593 206 625Q206 659 230 680Q254 701 254 701ZM35 93Q70 57 109 42Q148 27 187.5 27.5Q227 28 266 42Q304 56 338 78Q355 89 404 110Q453 132 507.5 160.5Q562 189 609 222Q656 255 669 288Q681 245 650 183Q619 121 548 109Q508 103 463.5 80Q419 57 403 42Q375 16 343.5 4.5Q312 -7 281 -16Q195 -40 121 -17Q47 6 35 93ZM322 708Q314 717 314 734Q314 751 322 760Q330 769 337.5 760Q345 751 345 734Q345 717 337.5 708Q330 699 322 708ZM469 713Q452 729 452 760Q452 791 469 806Q486 821 503.5 805.5Q521 790 521 760Q521 729 503.5 713.5Q486 698 469 713Z" fill="#66783e" />
  </g>
</svg>