<?xml version="1.0" encoding="UTF-8"?>
<svg width="16" height="16" viewBox="0 0 16 16" xmlns="http://www.w3.org/2000/svg">
  <g transform="translate(0.5099999999999997, 14.5544814453125) scale(0.01462890625, -0.01462890625)">
    <path d="M120 392L120 447Q120 447 144 452.5Q168 458 170 431Q171 408 145.5 400Q120 392 120 392ZM123 267L123 331Q123 331 156 336.5Q189 342 189 313Q189 290 156 278.5Q123 267 123 267ZM900 550Q900 530 882.5 511.5Q865 493 841 493Q817 493 799 509.5Q781 526 781 549Q781 569 798 592.5Q815 616 847 615Q881 614 890.5 592Q900 570 900 550ZM483 512Q451 512 434 489Q417 466 417 446Q417 422 435 405.5Q453 389 477 389Q501 389 518.5 408Q536 427 536 447Q536 466 526.5 488.5Q517 511 483 512ZM46 489Q46 489 68.5 496Q91 503 133 517Q144 521 173.5 524Q203 527 231 514Q268 497 272.5 449.5Q277 402 219 385Q219 385 256.5 377.5Q294 370 300 331Q310 274 274 247Q238 220 211 212Q175 203 124 189Q73 175 48 169L48 -64L167 -64L186 -48L201 -64L414 -64L433 -48L448 -64L658 -64L677 -48L692 -64L901 -64L921 -48L936 -64L978 -64L978 446L978 446Q939 400 890 385Q841 370 795 380.5Q749 391 714 422Q680 454 669 501Q659 548 675 594Q691 641 725.5 674.5Q760 708 810 723Q860 738 920 721Q918 724 896 761Q874 797 825 840.5Q776 884 698 920Q620 957 507 960Q484 961 429 952Q374 944 309.5 913.5Q245 883 182 823Q119 763 78 661Q63 625 54.5 582.5Q46 540 46 489ZM615 342Q566 296 515 282Q464 268 420 279.5Q376 291 345 324Q313 357 304 404Q295 444 306 481Q317 517 338.5 546.5Q360 576 389 596Q419 615 448 622Q527 639 575.5 606Q624 573 645 514Q670 442 642.5 392Q615 342 615 342Z" fill="#90a959" />
  </g>
</svg>