<?xml version="1.0" encoding="UTF-8"?>
<svg width="16" height="16" viewBox="0 0 16 16" xmlns="http://www.w3.org/2000/svg">
  <g transform="translate(0.9854394531250001, 14.556064700356012) scale(0.01462890625, -0.01462890625)">
    <path d="M834 335L568 335Q632 383 626 453Q620 523 564 561L834 561Q889 558 917 523Q945 489 945 448Q945 407 918 373Q890 338 834 335ZM127 561L415 561Q359 523 354 451.5Q349 380 412 335L127 335Q70 338 42 372Q14 407 14.5 448Q15 489 43 524Q72 559 127 561ZM559 502Q559 475 536 462Q513 449 490 462Q468 475 468 501.5Q468 528 490 541Q513 554 536 541Q559 528 559 502ZM959 448Q959 595 892 711Q824 826 719 890.5Q614 955 486 960Q359 965 239 891Q120 817 60 697Q0 577 0 448Q0 319 60 199Q120 79 239 5Q359 -69 486 -64Q614 -59 719 5.5Q824 70 892 185Q959 301 959 448Z" fill="#825078" />
  </g>
</svg>