<?xml version="1.0" encoding="UTF-8"?>
<svg width="16" height="16" viewBox="0 0 16 16" xmlns="http://www.w3.org/2000/svg">
  <g transform="translate(0.5099999999999998, 14.55375) scale(0.01462890625, -0.01462890625)">
    <path d="M309 76L248 76L248 156L305 156Q343 154 344 116Q345 78 309 76ZM865 258Q816 280 775.5 247Q735 214 740 156Q745 107 782.5 85.5Q820 64 858 77L823 117L865 150L901 108Q927 144 916.5 191.5Q906 239 865 258ZM303 261L248 261L248 208L303 208Q327 211 326 236Q325 261 303 261ZM1024 960L1024 -64L0 -64L0 960ZM346 186Q402 205 384.5 260.5Q367 316 306 316L188 316L188 23L312 23Q393 23 404 96.5Q415 170 346 186ZM640 103Q640 178 574 191Q508 204 507 238Q506 265 534 267Q562 269 575 240L622 271Q597 326 522.5 318.5Q448 311 447 240Q445 181 490.5 163Q536 145 564 127Q603 95 557 75Q511 55 479 108L429 81Q447 45 482 30Q518 14 553.5 18Q589 22 615 44Q641 65 640 103ZM939 64Q992 118 979 196Q966 274 891 307Q849 325 809 319Q768 313 737 290Q706 267 689 231Q672 194 677 150Q687 70 757.5 34.5Q828 -1 896 33L940 -17L979 17L939 64Z" fill="#90a959" />
  </g>
</svg>