<?xml version="1.0" encoding="UTF-8"?>
<svg width="16" height="16" viewBox="0 0 16 16" xmlns="http://www.w3.org/2000/svg">
  <g transform="translate(0.02961685505319256, 14.982221679687498) scale(0.015585937499999999, -0.015585937499999999)">
    <path d="M1004 458Q985 477 932 493Q878 508 816 519.5Q754 531 695 539Q636 546 605 550Q608 557 610.5 564.5Q613 572 616 579Q624 583 633 586.5Q642 590 652 593Q653 589 657.5 579Q662 569 665 562Q790 559 816 627Q842 695 847 722Q852 748 860 776.5Q868 805 911 851Q879 860 842 854Q805 847 770 829Q735 811 706 782Q677 753 662 718Q650 722 638.5 725Q627 728 615 730Q611 747 598 775Q584 804 558 831Q532 858 493 878Q453 898 397 898Q324 898 253.5 869Q183 840 128 788Q98 760 75 726.5Q52 693 35 655Q18 614 9 569Q0 524 0 476Q0 392 25 317Q50 241 86.5 183.5Q123 126 165 92Q206 58 238 58Q266 58 288 75Q310 92 316 111Q321 98 332 67Q343 36 348 26Q355 11 380.5 2.5Q406 -6 420 10Q439 -1 468 -2Q497 -3 515 24Q551 17 578 34Q605 51 605 76Q623 77 631 97Q639 117 635 136Q632 151 609.5 190.5Q587 230 576 248Q599 229 643 226.5Q687 224 694 248Q732 219 778 228Q824 237 828 261Q874 249 914.5 269.5Q955 290 947 322Q1020 327 1022.5 383Q1025 439 1004 458ZM751 630Q732 638 709.5 642.5Q687 647 670 647Q646 647 628 637.5Q610 628 588 628Q583 628 573 628.5Q563 629 554 633Q560 626 568.5 623Q577 620 591 620Q600 620 615 623.5Q630 627 644 631Q644 628 644.5 625Q645 622 645 619Q619 613 595 600Q571 587 564 583Q546 622 555.5 656Q565 690 579 707Q642 707 688.5 675.5Q735 644 751 630ZM787 634L774 646Q764 655 754 663.5Q744 672 733 679Q749 711 769 742Q789 773 814 794Q787 783 761.5 753.5Q736 724 720 688Q712 694 703.5 698.5Q695 703 687 707Q709 755 757 790Q805 825 862 828Q824 793 821.5 734Q819 675 787 634L787 634ZM682 591Q678 600 674.5 613Q671 626 671 635Q678 635 689 633.5Q700 632 702 631Q701 627 700.5 620Q700 613 700 612Q702 614 705 620Q708 626 709 630Q723 627 739 623Q755 619 765 614Q753 606 732 598.5Q711 591 682 591ZM380 674Q365 679 365 690.5Q365 702 380 707Q396 713 411.5 707.5Q427 702 427 691Q427 679 411.5 673.5Q396 668 380 674ZM449 667Q449 698 422.5 713.5Q396 729 369 713Q342 698 342 667Q342 636 369 621Q396 605 422.5 620.5Q449 636 449 667ZM568 734Q518 683 526 627Q534 571 552 542Q526 499 478 470Q430 441 370 427Q437 427 478 441.5Q519 456 541 473Q556 483 564.5 493Q573 503 577 509Q626 506 686 497Q745 488 798.5 478Q852 468 890 459Q929 449 937 444Q943 440 948 432Q953 424 954 415Q917 420 869 425Q820 430 773 434.5Q726 439 687 442Q648 445 631 446Q643 444 688 436Q734 427 786 417Q838 407 885 398Q932 389 947 385Q938 369 916.5 360.5Q895 352 862 359Q880 335 852 314.5Q824 294 776 310Q786 286 751.5 272Q717 258 668 283Q669 259 624.5 257.5Q580 256 556 282Q556 279 558.5 274Q561 269 562 267Q554 198 505.5 157.5Q457 117 399 117Q328 117 263 144Q199 172 150 220Q101 268 73 334Q44 399 44 476Q44 557 72 627Q100 696 148 746.5Q196 797 260 826Q325 854 397 854Q480 854 520 806.5Q560 759 568 734Z" fill="#d28445" />
  </g>
</svg>