<?xml version="1.0" encoding="UTF-8"?>
<svg width="16" height="16" viewBox="0 0 16 16" xmlns="http://www.w3.org/2000/svg">
  <g transform="translate(3.112590784143518, 14.55375) scale(0.01462890625, -0.01462890625)">
    <path d="M629 533Q661 628 645 706Q628 785 581.5 841.5Q535 898 468 929Q401 960 333 960Q265 960 200 926Q134 892 89.5 834Q45 776 29 699Q13 621 44 534Q3 513 0 465Q-3 417 43 388Q23 320 32 258.5Q41 197 114 123L114 -8Q115 -28 133 -46Q151 -64 177 -64L488 -64Q512 -61 530.5 -49.5Q549 -38 554 -5L554 129Q580 145 600 174Q619 204 629.5 239.5Q640 275 639 314Q638 353 622 387Q659 409 667 453Q675 497 629 533ZM60 425Q38 443 42 469Q46 495 61 499Q60 471 65.5 457.5Q71 444 71 444Q72 434 69.5 429.5Q67 425 60 425ZM332 187L220 340L273 436L392 436L445 340L332 187ZM568 547L525 547Q526 579 506 599Q486 619 459 618L459 678L212 678L212 616Q180 617 163 599Q146 581 146 547L111 547Q80 630 94 695Q108 759 145.5 802.5Q183 846 232 869Q282 892 322 893Q380 894 437 865Q494 835 533 786Q572 737 585 675Q598 612 568 547ZM609 425Q602 425 599.5 429.5Q597 434 598 444Q598 444 603.5 457.5Q609 471 608 499Q623 495 627 469Q631 443 609 425Z" fill="#ac4142" />
  </g>
</svg>