<?xml version="1.0" encoding="UTF-8"?>
<svg width="16" height="16" viewBox="0 0 16 16" xmlns="http://www.w3.org/2000/svg">
  <g transform="translate(0.508293294270834, 14.556586216517857) scale(0.01462890625, -0.01462890625)">
    <path d="M450 869Q451 825 434 831.5Q417 838 417 814Q417 802 427.5 791.5Q438 781 445 766Q454 749 457 728.5Q460 708 457 691Q455 679 451.5 668Q448 657 443 647Q429 618 406.5 603.5Q384 589 349 592Q316 595 283 595.5Q250 596 216 597Q204 598 178.5 604.5Q153 611 152 604Q151 593 156 586Q161 579 171 576Q187 571 204 566.5Q221 562 238 560Q271 557 304.5 556.5Q338 556 371 553Q388 551 405.5 546Q423 541 439 534Q465 522 473.5 500.5Q482 479 479 446Q477 415 461.5 393Q446 371 418 356Q411 353 405 349Q399 345 393 341Q383 335 384 327.5Q385 320 395 315Q402 312 408.5 309.5Q415 307 421 304Q450 291 466.5 259Q483 227 476 198Q472 183 457 178Q442 173 430 182Q411 196 390 206Q369 216 345 218Q325 220 308.5 214Q292 208 279 193Q277 190 275 185.5Q273 181 275 178Q276 175 280.5 172.5Q285 170 289 170Q297 169 305 169Q313 169 321 169Q372 170 405.5 148Q439 126 456 80Q477 25 443.5 -13.5Q410 -52 365 -61Q333 -67 306 -58Q279 -49 255 -32Q232 -16 212.5 4Q193 24 175 47Q192 46 208 46Q224 46 239 44Q260 42 280.5 38.5Q301 35 322 32Q326 31 330 29.5Q334 28 337 26Q348 22 348 16Q348 10 339 3Q334 1 329.5 -3Q325 -7 329 -12Q334 -16 337.5 -17Q341 -18 345 -19Q349 -20 353 -20Q357 -20 361 -20Q372 -18 382 -13.5Q392 -9 396 2Q401 13 397 22Q393 31 386 40Q367 62 342 70Q317 78 289 80Q250 83 210.5 85.5Q171 88 132 92Q123 92 114.5 95Q106 98 97 101Q76 109 68.5 126Q61 143 70 164Q83 160 96 156Q109 152 122 150Q151 145 178 151Q205 157 228 176Q239 186 244.5 197.5Q250 209 248 224Q246 233 241.5 235Q237 237 230 232Q223 227 216.5 222Q210 217 203 211Q186 196 165.5 191.5Q145 187 122 192Q98 198 77 209Q56 220 44 242Q30 266 38 296Q46 326 71 348Q77 352 82.5 356Q88 360 92 363Q102 356 111 349Q120 342 129 336Q135 333 141 333.5Q147 334 151 340Q155 347 153.5 353Q152 359 146 364Q140 369 134 374Q128 379 124 385Q112 401 114.5 420Q117 439 132 452Q133 453 135.5 454Q138 455 140 455Q165 456 190.5 456Q216 456 242 455Q251 455 260.5 453.5Q270 452 279 449Q301 442 312.5 424.5Q324 407 321 387Q318 368 301.5 355.5Q285 343 262 342Q258 342 254 342Q250 342 246 342Q236 341 236 334.5Q236 328 238 326Q253 307 276 303Q299 299 321 310Q372 336 375 389.5Q378 443 331 474Q313 486 293.5 492Q274 498 253 499Q227 500 201 500Q175 500 150 501Q125 503 103 512Q81 521 64 539Q51 553 48.5 569.5Q46 586 53 604Q66 638 98 654Q130 670 171 663Q199 658 226 651Q253 644 281 640Q298 637 316.5 637Q335 637 352 639Q380 642 397 658.5Q414 675 420 701Q427 728 419 750Q411 772 388 789Q369 803 347.5 810Q326 817 302 820Q277 823 251.5 822Q226 821 202 813Q188 808 184.5 800.5Q181 793 182 789Q183 786 188.5 783Q194 780 198 780Q219 780 239.5 780.5Q260 781 281 780Q303 779 324 774.5Q345 770 362 755Q375 743 379.5 729.5Q384 716 379 705Q374 692 361 684.5Q348 677 330 678Q317 679 304.5 680.5Q292 682 280 685Q253 690 226.5 696Q200 702 173 706Q162 708 150 708Q138 708 126 709Q114 739 112.5 761Q111 783 142 811Q171 836 206 852.5Q241 869 282 868Q296 867 310 862.5Q324 858 339 855Q351 853 363 851Q375 849 387 847Q389 846 395.5 845.5Q402 845 399 850Q395 856 391.5 862Q388 868 384 872Q362 892 336 901Q310 910 281 911Q277 911 273 911Q269 911 265 911Q265 911 264.5 911.5Q264 912 262 912Q273 928 286.5 940Q300 952 320 957Q345 963 369.5 958.5Q394 954 416 940Q438 926 444 911.5Q450 897 450 869ZM62 489Q56 492 52 492Q48 492 43 488Q17 467 8 440.5Q-1 414 0 384Q1 373 4.5 363.5Q8 354 18 348Q26 355 34 361.5Q42 368 50 373Q59 379 68.5 383.5Q78 388 87 393Q83 414 88.5 433Q94 452 106 469Q95 474 84 478.5Q73 483 62 489ZM576 866Q577 892 580.5 906Q584 920 594 930Q627 963 676 959.5Q725 956 752 919Q753 918 754 916Q755 914 757 912Q716 910 681 899.5Q646 889 624 853Q625 852 625 850.5Q625 849 626 847Q633 847 641 847Q649 847 657 848Q664 849 671.5 851.5Q679 854 686 857Q715 869 744 868.5Q773 868 801 856Q823 846 844 834Q865 822 882 804Q897 788 901.5 769.5Q906 751 898 730Q896 724 894 718.5Q892 713 891 708Q845 711 802 698.5Q759 686 715 680Q705 679 695 678.5Q685 678 675 679Q653 683 644.5 701Q636 719 646 738Q657 757 674 766Q691 775 712 777Q738 779 764.5 779Q791 779 817 780Q823 780 828.5 781Q834 782 836 789Q838 797 834.5 802.5Q831 808 824 810Q776 825 730 822Q684 819 640 794Q614 778 604.5 753.5Q595 729 603 699Q610 671 629 655.5Q648 640 680 637Q713 634 745.5 640.5Q778 647 810 655Q831 661 852 664Q873 667 895 662Q928 655 949.5 626.5Q971 598 965 569Q962 551 951.5 539.5Q941 528 926 519Q908 509 889 504.5Q870 500 849 501Q819 501 789.5 501Q760 501 731 493Q713 488 697 479Q681 470 668 456Q641 428 647 386Q653 344 687 318Q710 300 734.5 301.5Q759 303 779 323Q781 325 782 329.5Q783 334 783 337Q783 339 778.5 340Q774 341 771 342Q764 343 757 343Q750 343 744 344Q724 349 712.5 361Q701 373 699 392Q697 407 707 422.5Q717 438 733 446Q749 454 766.5 455Q784 456 801 455Q819 455 837 455.5Q855 456 873 455Q876 455 880 454Q884 453 886 450Q903 435 902.5 413Q902 391 885 375Q881 372 877.5 369.5Q874 367 870 364Q864 359 863.5 353Q863 347 866 341Q870 334 875.5 333.5Q881 333 887 336Q896 342 904.5 349Q913 356 923 363Q945 353 962.5 326.5Q980 300 979 274Q978 248 961 228.5Q944 209 913 197Q884 187 857.5 190.5Q831 194 809 216Q804 221 798.5 225Q793 229 788 233Q782 237 777.5 235Q773 233 771 226Q768 209 774.5 196Q781 183 794 173Q826 149 861 147.5Q896 146 932 160Q935 161 938 162.5Q941 164 944 165Q954 149 948 130Q942 111 924 104Q906 98 886 93.5Q866 89 847 87Q812 83 776.5 81.5Q741 80 706 77Q687 75 670 67Q653 59 640 44Q631 34 625.5 23.5Q620 13 627 -1Q632 -11 646 -16.5Q660 -22 676 -19Q680 -19 684 -16.5Q688 -14 692 -12Q689 -8 687 -4Q685 0 682 3Q673 10 673 16.5Q673 23 684 26Q701 32 718.5 35.5Q736 39 753 42Q775 44 797.5 45Q820 46 845 48Q832 34 821 21Q810 8 798 -3Q777 -24 752.5 -40.5Q728 -57 697 -62Q643 -72 598.5 -33Q554 6 561 57Q568 108 605.5 139Q643 170 695 169Q704 169 712.5 169Q721 169 730 170Q734 170 738.5 172.5Q743 175 745 179Q746 181 744.5 186Q743 191 740 193Q724 212 702.5 217Q681 222 658 214Q641 209 624.5 199.5Q608 190 592 181Q581 174 566.5 178.5Q552 183 548 196Q540 223 555 255.5Q570 288 597 302Q604 305 611.5 308.5Q619 312 626 315Q637 320 637.5 327.5Q638 335 628 342Q621 347 613 352Q605 357 596 361Q554 383 547.5 426Q541 469 550 499Q554 514 566 523.5Q578 533 593 539Q620 551 649.5 553Q679 555 709 557Q738 559 767.5 561.5Q797 564 826 568Q833 569 840.5 573Q848 577 855 581Q858 584 861 588.5Q864 593 864 598Q865 601 863 606Q861 611 858 613Q855 614 850.5 612Q846 610 842 609Q832 606 822.5 602Q813 598 803 598Q772 596 741.5 595Q711 594 680 593Q632 590 604.5 612Q577 634 568 682Q565 697 565 713Q565 729 566 745Q567 759 574.5 770Q582 781 595 789Q599 791 602.5 793.5Q606 796 609 799Q612 801 614.5 808.5Q617 816 605 822Q605 822 590.5 831Q576 840 576 866ZM1007 349Q1033 369 1020 423Q1007 477 972 493Q958 487 945 481Q932 475 919 469Q931 452 936 433Q941 414 938 395Q956 383 973 372Q990 361 1007 349Z" fill="#cc00a3" />
  </g>
</svg>