<?xml version="1.0" encoding="UTF-8"?>
<svg width="16" height="16" viewBox="0 0 16 16" xmlns="http://www.w3.org/2000/svg">
  <g transform="translate(1.4324414062500006, 15.406779788290276) scale(0.016542968749999998, -0.016542968749999998)">
    <path d="M624 13Q624 -25 536 -44Q449 -63 344 -64Q239 -65 151 -47Q64 -30 64 4L64 619Q2 636 0 698.5Q-2 761 59 778Q45 812 86.5 851Q128 890 181 853Q200 876 230.5 883.5Q261 891 288 877Q299 920 328 940Q358 960 391 959.5Q424 959 452 939Q481 918 490 879Q543 909 583.5 869.5Q624 830 602 784Q682 790 692.5 713.5Q703 637 624 622L624 587L698 587Q739 587 766.5 558.5Q794 530 794 493L794 196Q794 159 767 130.5Q740 102 698 102L624 102L624 13ZM138 59Q133 61 131 65.5Q129 70 129 74L129 604L88 614L88 1Q131 -21 205 -31Q279 -41 357 -39.5Q435 -38 503 -26Q570 -13 600 11L600 96Q600 108 608.5 117Q617 126 631 126L698 126Q728 126 748 147.5Q768 169 768 196L768 493Q768 521 748 542Q728 563 698 563L630 563Q617 563 608.5 572Q600 581 600 594L600 615Q590 612 580 608.5Q570 605 560 602L560 82Q560 77 558 73Q556 69 552 66Q511 43 456 32Q401 21 343.5 21Q286 21 231 31Q177 41 138 59ZM620 646Q688 662 665.5 721.5Q643 781 583 753Q576 748 569 754.5Q562 761 567 770Q579 791 583.5 808Q588 825 575 842Q563 861 538 866Q513 871 490 849Q483 842 476 845.5Q469 849 469 857Q466 935 389 935Q312 935 310 857Q310 849 303.5 845.5Q297 842 288 848Q264 868 235 860Q206 852 196 830Q193 824 187.5 823Q182 822 177 826Q130 866 99.5 831Q69 796 88 778Q94 773 91.5 765Q89 757 80 757Q29 752 24 699Q19 646 100 635Q112 632 140 626Q168 620 207 614Q246 608 293 604Q340 600 389 601Q401 601 401.5 591Q402 581 423 565Q436 558 442 548Q448 538 448 526Q448 497 479 496.5Q510 496 506 528Q505 544 508 558.5Q511 573 518 586Q527 601 525.5 609Q524 617 535 621Q580 632 587 636.5Q594 641 620 646ZM226 109L226 547Q226 567 206 567Q186 567 186 547L186 109Q186 88 206 88Q226 88 226 109ZM693 178L635 178Q620 178 610 188Q600 198 600 213L600 479Q600 492 610 503Q620 514 635 514L693 514Q708 514 718 503Q728 492 728 479L728 213Q728 197 716.5 187.5Q705 178 693 178ZM704 213L704 479Q704 484 700.5 487Q697 490 693 490L635 490Q630 490 627 487Q624 484 624 479L624 213Q624 209 627 205.5Q630 202 635 202L693 202Q697 202 700.5 205Q704 208 704 213Z" fill="#a35f27" />
  </g>
</svg>