<?xml version="1.0" encoding="UTF-8"?>
<svg width="16" height="16" viewBox="0 0 16 16" xmlns="http://www.w3.org/2000/svg">
  <g transform="translate(0.0007467830882355031, 14.983197265624998) scale(0.015585937499999999, -0.015585937499999999)">
    <path d="M974 520Q953 528 919.5 554.5Q886 581 827 601Q777 618 709 628Q641 638 565 642Q391 649 281 618Q171 587 108.5 547Q46 507 23 472Q0 437 0 437Q0 437 24 418Q48 398 94.5 372Q141 346 210 321Q280 296 371 285Q388 283 420 277Q451 272 486.5 266Q522 260 555 256Q588 252 608 253Q676 258 701 264.5Q726 271 797 320Q863 365 906.5 353.5Q950 342 998 373Q1042 402 1018 457.5Q994 513 974 520ZM454 483Q436 483 423 495.5Q410 508 410 526Q410 543 423 555.5Q436 568 454 568Q472 568 485 555.5Q498 543 498 526Q498 508 485 495.5Q472 483 454 483ZM572 392Q562 392 554.5 399Q547 406 547 416Q547 426 554.5 433Q562 440 572 440Q582 440 589.5 433Q597 426 597 416Q597 406 589.5 399Q582 392 572 392ZM434 585Q398 565 378 529Q358 493 358 450Q358 403 384.5 364.5Q411 326 453 308Q425 306 397 305.5Q369 305 342 307Q267 313 206 334Q146 356 103 380Q60 404 37 423Q14 442 14 442Q14 442 39 466Q65 490 117 518Q169 546 248 568Q327 590 434 585ZM966 377Q962 377 911 382Q860 387 788 369Q751 360 710 350.5Q669 341 626 332Q652 354 667 384.5Q682 415 682 450Q682 480 671 506.5Q660 533 641 554Q650 551 659.5 548.5Q669 546 679 542Q771 515 835 490.5Q899 466 924 471Q934 473 939 478Q944 483 949 483Q965 483 973.5 469Q982 455 990 442Q1002 425 992.5 402.5Q983 380 966 377Z" fill="#4d9085" />
  </g>
</svg>