<?xml version="1.0" encoding="UTF-8"?>
<svg width="16" height="16" viewBox="0 0 16 16" xmlns="http://www.w3.org/2000/svg">
  <g transform="translate(0.5032649094987631, 14.55375) scale(0.01462890625, -0.01462890625)">
    <path d="M1017 494Q1000 527 964 531Q928 535 905 509Q873 533 844 569Q815 606 796 652Q777 698 773 753Q768 807 786 867Q722 875 654.5 857.5Q587 840 527 804Q511 837 503 873.5Q495 910 495 959Q437 928 392 874Q347 820 317 755Q285 773 256.5 798.5Q228 824 200 865Q171 807 164.5 737.5Q158 668 171 599Q134 595 96 600Q58 605 12 622Q22 557 57.5 496Q93 435 143 385Q115 361 81.5 343Q48 325 0 312Q44 265 107.5 235.5Q171 206 240 194Q231 159 213.5 125Q196 91 165 54Q228 41 297 53Q366 65 430 96Q443 61 448 23.5Q453 -14 449 -63Q494 -43 538 -6Q581 31 616 81.5Q651 132 676 194Q700 255 707 323Q783 336 840 357Q897 378 935 398Q976 385 1006.5 419Q1037 453 1017 494ZM697 501Q733 490 761.5 515Q790 540 784 578Q778 613 745.5 627.5Q713 642 683 626Q683 664 695 705Q707 746 739 799Q736 749 747 701Q757 653 777.5 611Q798 569 826 534Q855 499 888 475Q886 461 890 446.5Q894 432 903 420Q860 399 811.5 382.5Q763 366 709 357Q709 393 706 428.5Q703 464 697 501Z" fill="#d28445" />
  </g>
</svg>