<?xml version="1.0" encoding="UTF-8"?>
<svg width="16" height="16" viewBox="0 0 16 16" xmlns="http://www.w3.org/2000/svg">
  <g transform="translate(0.5099999999999998, 14.556064700356012) scale(0.01462890625, -0.01462890625)">
    <path d="M255 891Q128 817 64 697Q0 577 0 448Q0 319 64 199Q128 79 255 5Q383 -69 519 -64Q655 -59 767.5 5.5Q880 70 952 185Q1024 301 1024 448Q1024 595 952 711Q880 826 767.5 890.5Q655 955 519 960Q383 965 255 891ZM314 501Q292 419 262 365Q232 311 212 316Q191 322 192 384Q193 446 215 527Q237 609 267 663.5Q297 718 318 712Q338 707 337 645Q336 583 314 501ZM611 422Q589 340 562 270Q535 200 507 149.5Q479 99 453 73Q426 47 406 52Q386 58 376 94Q366 130 367 187Q368 244 380 318Q391 393 413 474Q435 556 462 626Q489 696 517 746.5Q545 797 571 823Q598 849 618 844Q638 838 648 802Q658 766 657 709Q656 652 644 578Q633 503 611 422ZM809 369Q787 287 757 232.5Q727 178 706 184Q686 189 687 251Q688 313 710 395Q732 477 762 531Q792 585 812 580Q833 574 832 512Q831 450 809 369Z" fill="#d28445" />
  </g>
</svg>