<?xml version="1.0" encoding="UTF-8"?>
<svg width="16" height="16" viewBox="0 0 16 16" xmlns="http://www.w3.org/2000/svg">
  <g transform="translate(-0.46999999999999886, 15.411249999999999) scale(0.016542968749999998, -0.016542968749999998)">
    <path d="M234 364Q234 388 238 430Q243 472 249 512.5Q255 553 261 583Q266 613 269 613Q275 601 273 561Q272 521 270.5 477Q269 433 272 398Q275 362 291 359Q302 360 306 396Q310 431 312 476Q314 521 316 562Q317 603 324 613Q331 603 333 562Q334 522 336 477.5Q338 433 342 397Q347 362 359 361Q373 360 376 398Q380 437 379.5 484Q379 531 378 571Q377 611 382 613Q390 607 396 574Q402 542 406.5 501.5Q411 461 413 422Q415 383 414 364Q412 281 380.5 263Q349 245 345 208Q343 195 341 169Q339 143 340 100L483 -42Q486 123 479.5 149Q473 175 471 187Q471 207 471 289Q471 371 471 463.5Q471 556 471 634Q471 712 471 725Q471 759 497.5 763Q524 767 554 691Q569 654 575 577Q581 500 582.5 421Q584 342 583 279Q582 217 582 207Q577 187 561.5 182.5Q546 178 537 147Q533 137 530 72Q527 7 527 -56L723 140Q721 219 716.5 228.5Q712 238 675 272Q641 307 633 361Q625 415 636.5 466.5Q648 518 675 556Q702 595 736 597Q769 596 796 558Q822 521 834.5 469Q847 417 840 363Q833 308 797 272Q760 242 756 226.5Q752 211 750 166L1024 440L512 952L0 440L308 133Q308 157 306 188Q304 219 292 234Q280 250 257.5 277.5Q235 305 234 364Z" fill="#90a959" />
  </g>
</svg>