<?xml version="1.0" encoding="UTF-8"?>
<svg width="16" height="16" viewBox="0 0 16 16" xmlns="http://www.w3.org/2000/svg">
  <g transform="translate(0.5099999999999998, 14.55375) scale(0.01462890625, -0.01462890625)">
    <path d="M778 441L698 521L790 613L790 822L715 822L715 644L645 574L575 643L575 822L500 822L500 612L671 441L565 441L290 716L290 893L214 893L214 684L307 592L199 592L75 716L75 893L0 893L0 684L168 516L383 516L458 441L244 441L421 263L161 3L268 3L528 263L426 366L949 366L949 328L717 189L530 3L636 3L759 127L1024 285L1024 441L778 441ZM578 316L631 263L684 316L578 316Z" fill="#6a9fb5" />
  </g>
</svg>