<?xml version="1.0" encoding="UTF-8"?>
<svg width="16" height="16" viewBox="0 0 16 16" xmlns="http://www.w3.org/2000/svg">
  <g transform="translate(0.020000000000000462, 13.69450588474026) scale(0.00890625, -0.00890625)">
    <path d="M1664 896Q1717 896 1754.5 858.5Q1792 821 1792 768Q1792 715 1754.5 677.5Q1717 640 1664 640L1664 256Q1664 204 1626 166Q1588 128 1536 128Q1119 475 724 508Q666 489 633 442Q600 395 602 341.5Q604 288 642 249Q622 216 619 183.5Q616 151 625 125.5Q634 100 658.5 70.5Q683 41 706.5 20.5Q730 0 768 -30Q739 -88 656.5 -113Q574 -138 488 -124.5Q402 -111 356 -69Q349 -46 326.5 18.5Q304 83 294.5 113Q285 143 271.5 202Q258 261 256.5 303Q255 345 260 401.5Q265 458 282 512L160 512Q94 512 47 559Q0 606 0 672L0 864Q0 930 47 977Q94 1024 160 1024L640 1024Q1075 1024 1536 1408Q1588 1408 1626 1370Q1664 1332 1664 1280ZM1536 292L1536 1246Q1142 944 768 903L768 633Q1145 591 1536 292Z" fill="#d28445" />
  </g>
</svg>