<?xml version="1.0" encoding="UTF-8"?>
<svg width="16" height="16" viewBox="0 0 16 16" xmlns="http://www.w3.org/2000/svg">
  <g transform="translate(0.5183398437499989, 14.985047701322115) scale(0.015585937499999999, -0.015585937499999999)">
    <path d="M341 306Q338 306 293 330Q248 354 218 371Q206 375 193 370Q180 365 172 354L9 446L0 463Q26 512 66.5 525.5Q107 539 158 510Q156 528 158.5 546Q161 564 169 582Q172 587 167.5 589Q163 591 156 593L147 610Q152 620 154 621Q156 622 156 624Q153 638 157 647Q161 656 170 663Q174 666 207 684.5Q240 703 246 705Q260 712 275 704.5Q290 697 294 677Q299 672 331.5 654.5Q364 637 387 625Q390 626 394 629.5Q398 633 403 637Q418 675 424.5 728Q431 781 451 827Q478 892 529.5 931Q581 970 665 957Q688 951 744.5 920Q801 889 860 854Q901 817 914 775Q926 733 919.5 692.5Q913 652 892 617Q872 582 847 561Q885 546 881 534Q877 522 873 519L780 466Q781 455 807 404Q834 352 867 288.5Q900 225 928 164Q957 102 960 70Q961 48 943 30.5Q925 13 897 -9Q832 -57 801 -63Q770 -69 713 -36L656 23Q652 42 654 48.5Q656 55 653 68Q629 115 608.5 157Q588 199 574 223Q563 239 553.5 239Q544 239 533 254Q522 268 518 284Q514 300 516 318Q494 306 476.5 295.5Q459 285 453 285Q447 285 426 297Q405 309 381 322Q351 328 355 317.5Q359 307 341 306ZM763 845Q714 839 681 805Q648 771 635.5 727.5Q623 684 634 641Q645 598 685 574Q743 538 809.5 576Q876 614 890 691Q902 759 863.5 806Q825 853 763 845ZM610 628Q606 595 599 578.5Q592 562 591 547L660 509Q664 523 649 532.5Q634 542 610 628ZM725 868Q702 881 667 900Q632 919 594 940Q542 918 514 883Q487 849 472.5 807Q458 765 451 720Q443 674 431 631L563 559Q599 655 609.5 732.5Q620 810 725 868ZM755 446Q751 453 745.5 456Q740 459 733 456Q675 429 629 401.5Q583 374 577 330Q574 314 576 305.5Q578 297 590 289Q628 260 645 209Q662 159 677.5 110.5Q693 62 718 27Q743 -8 797 -6Q830 -7 876 18Q922 43 930 75Q931 90 915 128Q898 167 872 219Q846 271 815 331Q784 390 755 446ZM753 433Q747 426 726.5 415.5Q706 405 695 396Q670 375 664 353Q658 331 673 302Q700 243 713.5 181Q727 119 739 54Q705 98 694 172.5Q683 247 620 297Q597 309 631 358.5Q665 408 753 433ZM807 24Q829 27 866 52.5Q903 78 895 101Q888 120 877.5 141.5Q867 163 854 187Q867 92 843 66.5Q819 41 807 24ZM713 313Q698 321 698 338.5Q698 356 713 364Q728 373 743 364.5Q758 356 758 339Q758 321 743 312.5Q728 304 713 313ZM780 93Q765 101 765 118.5Q765 136 780 144Q795 153 810 144.5Q825 136 825 118Q825 101 810 92.5Q795 84 780 93ZM766 808Q730 803 706 778Q681 753 671.5 721Q662 689 671 657Q679 625 708 607Q751 581 800 609Q849 637 860 694Q869 744 840.5 778.5Q812 813 766 808Z" fill="#46788d" />
  </g>
</svg>