<?xml version="1.0" encoding="UTF-8"?>
<svg width="16" height="16" viewBox="0 0 16 16" xmlns="http://www.w3.org/2000/svg">
  <g transform="translate(0.5099999999999998, 14.55375) scale(0.01462890625, -0.01462890625)">
    <path d="M561 220Q560 194 556.5 167Q553 140 546 114Q538 81 532.5 66Q527 51 523 46Q520 50 514 62Q508 74 500 109Q491 145 483.5 196Q476 247 470 311Q480 309 489.5 307.5Q499 306 510 306Q519 306 528 307Q537 308 546 310Q539 302 535.5 292.5Q532 283 532 272Q532 255 540 241.5Q548 228 561 220ZM381 513Q389 529 400.5 542.5Q412 556 426 567Q386 587 344 606.5Q302 626 258 645Q250 636 238.5 630.5Q227 625 214 625Q206 625 198 627.5Q190 630 183 634Q194 622 213 604.5Q232 587 263 564Q289 544 313 526Q337 508 353 496Q360 500 367 504.5Q374 509 381 513ZM151 262Q157 260 175 261.5Q193 263 233 275Q271 287 316.5 305.5Q362 324 408 348Q390 366 379 389Q368 412 366 438Q234 352 194 311.5Q154 271 151 262ZM400 525Q408 529 415.5 533.5Q423 538 430 542Q435 545 439.5 547.5Q444 550 449 552Q449 553 449 553.5Q449 554 449 555Q446 557 443 558.5Q440 560 437 561Q426 554 417 545Q408 536 400 525ZM573 551Q573 553 572.5 555.5Q572 558 572 560Q570 559 568 558Q566 557 564 556Q566 555 568 553.5Q570 552 573 551ZM510 593Q513 593 517 593Q521 593 524 593Q536 599 547 604.5Q558 610 569 615Q568 631 566.5 646.5Q565 662 563 677Q552 765 541 805Q530 845 523 855Q518 848 511.5 833Q505 818 497 787Q490 759 483 713.5Q476 668 475 605Q480 602 485.5 599Q491 596 497 593Q500 593 503.5 593Q507 593 510 593ZM555 345Q553 344 552 341.5Q551 339 549 339Q544 337 539.5 335.5Q535 334 529 324Q526 318 519.5 318.5Q513 319 514 324Q514 329 519.5 336.5Q525 344 525 352Q525 361 527.5 365Q530 369 530 369Q530 376 524.5 375Q519 374 518 378Q516 381 515 384Q514 387 508 394Q502 401 504 402.5Q506 404 506 411Q506 418 510 418Q514 418 513 424Q513 430 511.5 431Q510 432 510 433Q510 433 508.5 431Q507 429 503 431Q500 432 497 434.5Q494 437 493 440Q491 443 486.5 444Q482 445 478 449Q474 452 474.5 452Q475 452 469 452Q463 452 456.5 458.5Q450 465 450 465Q452 471 448.5 477.5Q445 484 443 486Q442 486 442 486Q442 486 442 486L447 471Q444 471 443 472.5Q442 474 442 474Q441 476 439.5 478.5Q438 481 438 483Q421 473 406 463.5Q391 454 377 445Q379 392 417.5 354.5Q456 317 510 317Q526 317 541.5 321Q557 325 571 332Q571 338 571.5 344.5Q572 351 572 357Q572 357 571.5 357Q571 357 571 357Q568 355 564 351Q560 347 555 345ZM626 385Q633 398 637.5 412.5Q642 427 642 443Q639 445 635 447.5Q631 450 627 453Q627 436 626.5 419Q626 402 626 385ZM824 308Q802 329 770.5 352Q739 375 700 403Q689 411 677 419.5Q665 428 653 436Q651 416 644 398Q637 380 625 364Q625 358 625 352Q625 346 625 340Q684 316 721.5 299Q759 282 789 273Q822 263 841.5 261Q861 259 867 260Q865 265 855 276.5Q845 288 824 308ZM1024 448Q1024 342 984 250Q944 157 874.5 87.5Q805 18 711 -22Q618 -62 512 -62Q406 -62 313 -22Q219 18 149.5 87.5Q80 157 40 250Q0 342 0 448Q0 554 40 646Q80 739 149.5 808.5Q219 878 313 918Q406 958 512 958Q618 958 711 918Q805 878 874.5 808.5Q944 739 984 646Q1024 554 1024 448ZM911 279Q903 300 880 326Q856 352 825.5 378Q795 404 762 427Q730 451 705 467Q703 469 701 470Q699 471 697 472Q751 512 795 546.5Q839 581 863 606Q864 607 865.5 608.5Q867 610 868 611Q870 611 871.5 611Q873 611 874 611Q895 611 909.5 625.5Q924 640 924 660Q924 681 909.5 695.5Q895 710 874 710Q871 710 867.5 709.5Q864 709 860 708Q837 713 782.5 701.5Q728 690 620 640Q618 654 617 667.5Q616 681 614 695Q609 735 601 768.5Q593 802 586 828Q577 859 565.5 876.5Q554 894 541 901Q534 906 526 905.5Q518 905 510 901Q500 895 485.5 873Q471 851 457 798Q450 771 443 728Q436 685 434 625Q396 643 355.5 660.5Q315 678 271 694Q267 714 251 727Q235 740 214 740Q199 740 186 733Q173 726 166 714Q140 708 130 697.5Q120 687 119 681Q113 647 164.5 598.5Q216 550 242 530Q265 513 285 498.5Q305 484 320 473Q276 444 234 410Q191 377 159.5 344.5Q128 312 112 284Q97 256 107 237Q113 227 129 222.5Q145 218 162 218Q177 218 193 222Q209 226 233 233Q276 246 328 268Q380 290 434 319L435 321Q436 252 444.5 186.5Q453 121 464 82Q472 53 486 24Q500 -5 525 -5Q545 -4 561 17.5Q577 39 590 86Q597 113 604 150Q611 187 615 214Q632 221 643 236.5Q654 252 654 272Q654 275 654 278Q654 281 653 284Q701 264 736.5 249.5Q772 235 797 228Q814 224 831.5 220.5Q849 217 864 217Q879 217 892 222.5Q905 228 912 240Q915 245 915 255.5Q915 266 911 279ZM517 507Q517 507 518 502Q519 497 517 495Q515 494 511.5 491Q508 488 508 488Q509 483 510.5 476.5Q512 470 507 473Q503 476 502.5 479.5Q502 483 500 484Q498 486 493 484.5Q488 483 484 484Q481 485 479.5 484Q478 483 474 483Q471 483 471.5 479Q472 475 472 475Q469 472 472.5 463Q476 454 482 460Q484 462 485 464Q486 466 488 467Q492 469 493 466Q494 463 493 462Q491 460 491 456.5Q491 453 493 453Q495 453 499.5 451.5Q504 450 502 446Q500 441 502.5 438Q505 435 509 437Q513 439 515 436.5Q517 434 517 434Q517 439 521 441Q525 443 531 443Q533 443 536 441.5Q539 440 541 440Q545 439 545.5 441Q546 443 548 443Q552 442 556 438Q560 434 562 432Q564 429 567.5 429.5Q571 430 574 431Q574 444 574 458Q574 472 574 486Q563 493 551.5 499.5Q540 506 528 513Q524 512 520.5 509.5Q517 507 517 507ZM641 509Q646 506 651.5 502.5Q657 499 662 496Q711 532 748.5 562.5Q786 593 811 617Q817 622 822 627Q827 632 831 636Q828 641 826.5 646.5Q825 652 825 658Q798 653 748.5 637.5Q699 622 623 586Q624 574 624.5 561Q625 548 625 535Q630 529 633.5 522.5Q637 516 641 509Z" fill="#6a9fb5" />
  </g>
</svg>