<?xml version="1.0" encoding="UTF-8"?>
<svg width="16" height="16" viewBox="0 0 16 16" xmlns="http://www.w3.org/2000/svg">
  <g transform="translate(2.0494531249999994, 13.696250000000001) scale(0.012714843750000001, -0.012714843750000001)">
    <path d="M664 568Q664 568 639 638.5Q614 709 509 712Q457 714 417 695Q378 676 351.5 641.5Q325 607 311 558Q298 509 298 450Q298 392 312 340Q327 289 354.5 251Q382 213 422 191Q462 169 513 169Q564 169 594 193Q624 218 639.5 247Q655 276 660 301Q664 325 664 325L924 310Q924 310 925 286Q926 262 918.5 225.5Q911 189 891 145Q872 101 831 61Q790 20 745 -4Q701 -29 657 -42.5Q613 -56 571 -60Q530 -64 495 -64Q460 -64 418 -62Q377 -60 332.5 -48.5Q288 -37 241 -11Q193 15 146 63Q100 111 71 158Q42 206 26.5 253Q11 300 5 346Q0 392 0 438Q0 484 6 536Q12 588 30.5 641.5Q49 695 83 747Q117 800 173 846Q211 877 249 899Q287 921 325.5 934.5Q364 948 402 954Q441 960 479 960Q640 960 731 898Q823 837 868.5 762.5Q914 688 925 627Q936 565 936 565L664 568Z" fill="#6a9fb5" />
  </g>
</svg>