<?xml version="1.0" encoding="UTF-8"?>
<svg width="16" height="16" viewBox="0 0 16 16" xmlns="http://www.w3.org/2000/svg">
  <g transform="translate(0.5090115603885145, 14.55715257523148) scale(0.01462890625, -0.01462890625)">
    <path d="M602 959L268 897Q247 893 241.5 878.5Q236 864 249 848L575 414Q588 397 611.5 388Q635 379 656 383L990 445Q1011 448 1016.5 462.5Q1022 477 1009 494L682 928Q670 944 646.5 953.5Q623 963 602 959ZM983 406L631 345Q613 342 591.5 328Q570 314 557 297L317 -30Q305 -47 309 -56.5Q313 -66 331 -63L683 -2Q701 1 722.5 15Q744 29 757 46L996 373Q1009 390 1005 399.5Q1001 409 983 406ZM112 478Q108 467 56.5 422.5Q5 378 6 366Q8 353 69.5 325Q131 297 138 287Q141 283 149 255Q156 228 164.5 196.5Q173 165 181 140Q189 114 194 113Q203 110 238.5 176.5Q274 243 283 248Q291 253 355 247Q419 241 423 252Q427 263 387.5 332.5Q348 402 346 414Q345 420 351 447Q357 474 364 504.5Q371 535 376 561Q380 587 377 592Q370 601 310 577.5Q250 554 241 556Q231 559 179.5 613Q128 667 119 662Q115 659 114 632Q113 605 113.5 572.5Q114 540 114 512Q114 483 112 478Z" fill="#ee9e2e" />
  </g>
</svg>