<?xml version="1.0" encoding="UTF-8"?>
<svg width="16" height="16" viewBox="0 0 16 16" xmlns="http://www.w3.org/2000/svg">
  <g transform="translate(0.5875332031249982, 14.558466796875) scale(0.01462890625, -0.01462890625)">
    <path d="M502 773Q594 776 640 746Q687 716 705 665Q723 614 722 548Q721 482 720 412L312 412Q306 512 310 579Q314 645 334 686Q354 727 394 746Q435 766 502 773ZM181 412Q176 525 183 618Q190 712 225 778.5Q260 845 332 882Q405 918 532 916Q412 907 348 858Q285 808 256.5 736Q228 664 225 579Q222 493 224 412ZM511 960Q426 959 364 942Q302 925 259 895.5Q216 866 189 824Q162 783 148 733Q139 699 134 662Q130 624 129 583.5Q128 543 129 500Q130 457 131 412Q43 389 24 346.5Q5 304 0 248Q16 219 34 193.5Q52 168 71 145Q71 286 104 311Q137 336 231 338L720 338L720 281L238 281Q145 276 133.5 241Q122 206 122 91Q229 -10 359 -43Q488 -76 613 -55.5Q738 -35 844 33Q951 100 1012 201Q1019 290 991 347.5Q963 405 892 412Q896 497 895 558Q894 619 889.5 663Q885 707 876 738Q868 769 854 793Q832 836 797 867Q763 899 719 919.5Q675 940 623 950Q570 960 511 960Z" fill="#46788d" />
  </g>
</svg>