<?xml version="1.0" encoding="UTF-8"?>
<svg width="16" height="16" viewBox="0 0 16 16" xmlns="http://www.w3.org/2000/svg">
  <g transform="translate(1.4535644531249998, 14.55375) scale(0.01462890625, -0.01462890625)">
    <path d="M750 481L750 520Q750 537 738.5 548.5Q727 560 710 560L131 560Q114 560 102 548.5Q90 537 90 520L90 390Q90 322 116 262Q142 202 187 157Q232 112 292 86Q352 60 420 60Q462 60 501 70Q540 80 574.5 98.5Q609 117 638 143Q668 169 690 201L754 201Q812 201 853.5 242Q895 283 895 341Q893 411 846.5 447Q800 483 750 481ZM420 141Q369 141 323 160Q278 180 244 214Q210 248 190 293Q171 339 171 390L171 480L670 480L670 390Q670 339 650 293Q631 248 597 214Q563 180 517 160Q472 141 420 141ZM732 282Q742 313 746.5 342Q751 371 750 399Q775 403 794.5 384.5Q814 366 813 341Q812 313 792 296Q772 279 732 282ZM441 686L391 686L391 635Q391 606 360.5 606Q330 606 330 635L330 686L280 686Q250 686 250 716Q250 746 280 746L330 746L330 797Q330 827 360.5 827Q391 827 391 797L391 746L441 746Q472 746 472 716Q472 686 441 686ZM615 819L564 819L564 769Q564 738 533.5 738Q503 738 504 769L504 819L453 819Q423 819 423 849Q423 879 453 879L504 879L504 930Q504 960 534 960Q564 960 564 930L564 879L615 879Q645 879 645 849Q645 819 615 819ZM803 -64L40 -64Q0 -64 0 -24Q0 16 40 16L803 16Q843 16 843 -24Q843 -64 803 -64Z" fill="#46788d" />
  </g>
</svg>