<?xml version="1.0" encoding="UTF-8"?>
<svg width="16" height="16" viewBox="0 0 16 16" xmlns="http://www.w3.org/2000/svg">
  <g transform="translate(0.25364568829929907, 15.410716355846773) scale(0.016542968749999998, -0.016542968749999998)">
    <path d="M828 212L933 404Q938 412 937 421.5Q936 431 930 438L815 587L907 819Q919 848 890 859.5Q861 871 849 842L754 605L636 550L488 646L488 788Q522 801 538 836.5Q554 872 537 909Q516 955 464.5 959.5Q413 964 383 922Q358 885 372 843.5Q386 802 425 788L425 647L294 554L133 690Q109 711 88.5 687Q68 663 92 642L261 499L261 326L145 247Q116 269 77.5 265Q39 261 16 228Q-13 186 8.5 139.5Q30 93 81 88Q127 84 155.5 117.5Q184 151 177 193L292 271L425 177L425 -32Q425 -64 456.5 -64Q488 -64 488 -32L488 174L636 273L786 199Q799 194 809.5 197Q820 200 828 212ZM602 326L459 230L324 325L324 498L456 592L602 497ZM787 269L665 328L665 494L770 543L868 416L787 269Z" fill="#90a959" />
  </g>
</svg>