<?xml version="1.0" encoding="UTF-8"?>
<svg width="16" height="16" viewBox="0 0 16 16" xmlns="http://www.w3.org/2000/svg">
  <g transform="translate(0.5099999999999998, 14.55671531883446) scale(0.01462890625, -0.01462890625)">
    <path d="M575 641Q595 597 584 543Q573 489 531 463Q486 433 433 444.5Q380 456 351 502Q348 506 345 511Q342 516 340 522L0 372L0 61L900 61L900 334Q888 342 878.5 356.5Q869 371 865 391Q852 399 843 411.5Q834 424 830 439Q808 443 791.5 457.5Q775 472 767 493Q743 498 724.5 515Q706 532 700 556Q680 562 667 574Q654 586 647 606Q630 605 611 613Q592 621 575 641ZM841 132L56 132L56 180L841 180ZM841 291L56 291L56 341L841 341ZM517 649Q510 654 503.5 657Q497 660 489 662Q487 671 485 680Q483 689 482 695Q474 735 454 772Q434 809 397 830Q381 840 362 831.5Q343 823 341 803Q339 786 348 776.5Q357 767 370 761Q397 747 413.5 723Q430 699 440 672Q441 670 441.5 667.5Q442 665 443 662Q425 658 409.5 647.5Q394 637 383 620Q361 586 369.5 547Q378 508 412 486Q446 464 485 472.5Q524 481 546 515Q568 549 559.5 588Q551 627 517 649ZM494 582Q484 582 476.5 589Q469 596 469 606Q469 616 476.5 623Q484 630 494 630Q504 630 511 623Q518 616 518 606Q518 596 511 589Q504 582 494 582ZM976 337L976 61L924 61L924 345Q910 353 902 367.5Q894 382 894 400Q894 400 894 400Q894 400 894 400Q874 405 861 420.5Q848 436 847 457Q823 457 805 473Q787 489 783 511Q757 511 738 529Q719 547 718 573Q697 575 681.5 588.5Q666 602 661 621Q659 621 656.5 621Q654 621 652 621Q625 621 606 640Q587 659 587 686Q587 713 606 732Q625 751 652 751Q675 751 692.5 737.5Q710 724 715 703Q717 703 719.5 703Q722 703 724 703Q750 703 768.5 685Q787 667 789 642Q811 640 827.5 624.5Q844 609 848 587Q873 587 892 570Q911 553 913 528Q940 527 958.5 508Q977 489 977 463Q977 463 977 463Q977 463 977 463Q997 457 1010.5 439.5Q1024 422 1024 400Q1024 377 1010.5 359.5Q997 342 976 337Z" fill="#ac4142" />
  </g>
</svg>