<?xml version="1.0" encoding="UTF-8"?>
<svg width="16" height="16" viewBox="0 0 16 16" xmlns="http://www.w3.org/2000/svg">
  <g transform="translate(0.5099999999999998, 14.55375) scale(0.01462890625, -0.01462890625)">
    <path d="M512 528L912 428Q965 449 994.5 474.5Q1024 500 1024 528L1024 688Q1024 721 984 750Q944 779 874 800.5Q804 822 711 835Q618 848 512 848Q406 848 313 835Q219 822 149.5 800.5Q80 779 40 750Q0 721 0 688L0 528Q0 495 40 466Q80 437 149.5 415Q219 393 313 381Q406 368 512 368L512 528ZM0 368L0 208Q0 175 40 146Q80 117 149.5 95.5Q219 74 313 61Q406 48 512 48L512 208Q406 208 313 221Q219 233 149.5 255Q80 277 40 306Q0 335 0 368ZM912 269L512 368L512 208L912 109Q965 129 994.5 154.5Q1024 180 1024 208L1024 368Q1024 340 994.5 314.5Q965 289 912 269Z" fill="#ac4142" />
  </g>
</svg>