<?xml version="1.0" encoding="UTF-8"?>
<svg width="16" height="16" viewBox="0 0 16 16" xmlns="http://www.w3.org/2000/svg">
  <g transform="translate(1.3438476562499995, 14.55583984375) scale(0.01462890625, -0.01462890625)">
    <path d="M910 612L637 580L618 617L690 689L692 749Q692 749 688 758Q684 767 681 773Q764 745 820 704Q876 663 910 612ZM886 94L886 358L910 412L910 563L660 533ZM528 247Q476 352 446 412Q416 472 401 502L0 454L0 -64L633 32Q612 75 584.5 131.5Q557 188 528 247ZM378 551Q376 557 372.5 563Q369 569 366 575Q357 580 341 588Q325 596 307 606Q291 615 278.5 622Q266 629 256 635Q238 646 229 654Q220 662 215 670L3 504L379 549Q379 550 379 550.5Q379 551 378 551ZM871 37L559 642L642 724L643 757Q643 757 626.5 790.5Q610 824 604 830L445 956Q445 956 441.5 958.5Q438 961 434 960L386 953L386 921L434 805L342 792L272 936L238 932L238 873L254 780L224 775L224 750L247 708Q250 702 273 688Q297 674 324 659Q351 644 373 633Q395 621 395 621L709 -15Q721 -39 758 -50Q795 -61 822 -57Q847 -53 860 -40.5Q873 -28 875 -14Q875 -14 875 6.5Q875 27 871 37Z" fill="#f4bf75" />
  </g>
</svg>