<?xml version="1.0" encoding="UTF-8"?>
<svg width="16" height="16" viewBox="0 0 16 16" xmlns="http://www.w3.org/2000/svg">
  <g transform="translate(1.5, 13) scale(0.0078125, -0.0078125)">
    <path d="M346.5 -90.5Q346.5 -90.5 365.25 -71.75Q384 -53 384 0Q384 53 346.5 90.5Q309 128 256 128Q203 128 165.5 90.5Q128 53 128 0Q128 -53 165.5 -90.5Q203 -128 256 -128Q309 -128 346.5 -90.5ZM730.5 -90.5Q730.5 -90.5 749.25 -71.75Q768 -53 768 0Q768 53 730.5 90.5Q693 128 640 128Q587 128 549.5 90.5Q512 53 512 0Q512 -53 549.5 -90.5Q587 -128 640 -128Q693 -128 730.5 -90.5ZM346.5 293.5Q346.5 293.5 365.25 312.25Q384 331 384 384Q384 437 346.5 474.5Q309 512 256 512Q203 512 165.5 474.5Q128 437 128 384Q128 331 165.5 293.5Q203 256 256 256Q309 256 346.5 293.5ZM1114.5 -90.5Q1114.5 -90.5 1133.25 -71.75Q1152 -53 1152 0Q1152 53 1114.5 90.5Q1077 128 1024 128Q971 128 933.5 90.5Q896 53 896 0Q896 -53 933.5 -90.5Q971 -128 1024 -128Q1077 -128 1114.5 -90.5ZM730.5 293.5Q730.5 293.5 749.25 312.25Q768 331 768 384Q768 437 730.5 474.5Q693 512 640 512Q587 512 549.5 474.5Q512 437 512 384Q512 331 549.5 293.5Q587 256 640 256Q693 256 730.5 293.5ZM346.5 677.5Q346.5 677.5 365.25 696.25Q384 715 384 768Q384 821 346.5 858.5Q309 896 256 896Q203 896 165.5 858.5Q128 821 128 768Q128 715 165.5 677.5Q203 640 256 640Q309 640 346.5 677.5ZM1114.5 293.5Q1114.5 293.5 1133.25 312.25Q1152 331 1152 384Q1152 437 1114.5 474.5Q1077 512 1024 512Q971 512 933.5 474.5Q896 437 896 384Q896 331 933.5 293.5Q971 256 1024 256Q1077 256 1114.5 293.5ZM730.5 677.5Q730.5 677.5 749.25 696.25Q768 715 768 768Q768 821 730.5 858.5Q693 896 640 896Q587 896 549.5 858.5Q512 821 512 768Q512 715 549.5 677.5Q587 640 640 640Q693 640 730.5 677.5ZM1536 0L1536 384Q1536 436 1498 474Q1460 512 1408 512Q1356 512 1318 474Q1280 436 1280 384L1280 0Q1280 -52 1318 -90Q1356 -128 1408 -128Q1460 -128 1498 -90Q1536 -52 1536 0ZM1114.5 677.5Q1114.5 677.5 1133.25 696.25Q1152 715 1152 768Q1152 821 1114.5 858.5Q1077 896 1024 896Q971 896 933.5 858.5Q896 821 896 768Q896 715 933.5 677.5Q971 640 1024 640Q1077 640 1114.5 677.5ZM1536 1088L1536 1344Q1536 1370 1517 1389Q1498 1408 1472 1408L192 1408Q166 1408 147 1389Q128 1370 128 1344L128 1088Q128 1062 147 1043Q166 1024 192 1024L1472 1024Q1498 1024 1517 1043Q1536 1062 1536 1088ZM1498.5 677.5Q1498.5 677.5 1517.25 696.25Q1536 715 1536 768Q1536 821 1498.5 858.5Q1461 896 1408 896Q1355 896 1317.5 858.5Q1280 821 1280 768Q1280 715 1317.5 677.5Q1355 640 1408 640Q1461 640 1498.5 677.5ZM1664 1408L1664 -128Q1664 -180 1626 -218Q1588 -256 1536 -256L128 -256Q76 -256 38 -218Q0 -180 0 -128L0 1408Q0 1460 38 1498Q76 1536 128 1536L1536 1536Q1588 1536 1626 1498Q1664 1460 1664 1408Z" fill="#ac4142" />
  </g>
</svg>