<?xml version="1.0" encoding="UTF-8"?>
<svg width="16" height="16" viewBox="0 0 16 16" xmlns="http://www.w3.org/2000/svg">
  <g transform="translate(0.01974861391128968, 14.98251298828125) scale(0.015585937499999999, -0.015585937499999999)">
    <path d="M118 63Q60 126 31 229Q1 331 0 442.5Q-1 554 28 659Q57 765 118 833Q136 852 154.5 833.5Q173 815 155 796Q104 736 78 642Q52 549 52 448.5Q52 348 77 255Q103 161 155 100Q173 81 154.5 62.5Q136 44 118 63ZM905 63Q887 45 868.5 63Q850 81 868 100Q921 165 946 259Q972 353 971 452Q970 551 944 643Q918 735 868 796Q850 815 868.5 833.5Q887 852 905 833Q963 767 993 665Q1023 564 1024 454.5Q1025 345 995 241Q966 136 905 63ZM811 662Q735 579 698.5 638Q662 697 589 692Q531 689 511.5 652Q492 615 437 613Q377 611 345.5 659Q314 707 225 682Q203 631 190 579Q177 526 174.5 472Q172 418 181 363Q189 307 209 252Q221 217 245 190Q269 163 306 144Q343 125 393 116Q443 106 508 106Q574 106 625 114Q676 122 714 140.5Q752 159 778 187Q804 216 820 257Q839 313 846 366Q854 420 852.5 471Q851 522 840 570Q829 618 811 662Z" fill="#8f5536" />
  </g>
</svg>