<?xml version="1.0" encoding="UTF-8"?>
<svg width="16" height="16" viewBox="0 0 16 16" xmlns="http://www.w3.org/2000/svg">
  <g transform="translate(0.5099999999999998, 14.55375) scale(0.01462890625, -0.01462890625)">
    <path d="M512 960Q406 960 313 920Q219 880 149.5 810.5Q80 741 40 647Q0 554 0 448Q0 342 40 249Q80 155 149.5 85.5Q219 16 313 -24Q406 -64 512 -64Q618 -64 711 -24Q805 16 874.5 85.5Q944 155 984 249Q1024 342 1024 448Q1024 554 984 647Q944 741 874.5 810.5Q805 880 711 920Q618 960 512 960ZM519 90Q340 90 250 201Q160 311 160 444Q160 577 250 687Q340 798 519 798Q539 799 540 779Q541 759 521 758Q362 758 282 660Q202 562 202 444Q202 326 282 228Q362 130 521 130Q541 129 540 109Q539 89 519 90ZM519 174Q379 174 308 259Q238 343 238 444Q238 545 308 629Q379 714 519 714Q539 714 540 694.5Q541 675 521 674Q402 674 342 602Q282 530 282 444Q282 358 342 286Q402 214 521 214Q542 213 541 193.5Q540 174 519 174ZM521 302Q541 301 540 281Q539 261 519 262Q424 262 377 319Q329 376 329 444Q329 512 377 569Q424 626 519 626Q539 627 540 607Q541 587 521 586Q446 586 408 542Q370 497 370 444Q370 391 408 346Q446 302 521 302Z" fill="#cc00a3" />
  </g>
</svg>