<?xml version="1.0" encoding="UTF-8"?>
<svg width="16" height="16" viewBox="0 0 16 16" xmlns="http://www.w3.org/2000/svg">
  <g transform="translate(-0.46999999999999886, 15.411249999999999) scale(0.016542968749999998, -0.016542968749999998)">
    <path d="M724 960L300 960L0 660L0 236L300 -64L724 -64L1024 236L1024 660ZM1005 244L716 -45L308 -45L19 244L19 652L308 941L716 941L1005 652ZM986 639L986 266L748 679ZM706 922L525 780L983 647L708 922L706 922ZM313 919L293 701L695 922L316 922L313 919ZM831 439L722 -12L985 251ZM46 244L316 -26L320 -26L494 143L46 244ZM710 -24L729 226L334 -26L708 -26ZM190 478L296 902L40 646L190 478ZM272 243L38 641L38 253ZM355 629Q355 629 346 637Q337 645 320 645Q304 644 285.5 632Q267 620 267 576Q267 538 285.5 523Q304 508 322 509Q340 510 349 520Q358 530 358 530L374 510Q365 499 352.5 491Q340 483 319 483Q291 483 264.5 503.5Q238 524 237 573Q233 649 289 665.5Q345 682 372 648L355 629ZM505 485L536 485L476 669L443 669L382 485L412 485L428 538L490 538L505 485ZM435 562L458 644L482 562L435 562ZM485 299Q526 268 548 279Q570 290 568 307Q567 319 550.5 326.5Q534 334 516 341Q495 349 486 361Q477 373 477 393Q477 426 517 438.5Q557 451 593 418L576 399Q563 412 537 414.5Q511 417 507 393Q507 367 551 359.5Q595 352 598 307Q598 264 550.5 253.5Q503 243 468 279L485 299ZM738 398Q726 418 688.5 412Q651 406 652 344Q653 284 690.5 279.5Q728 275 744 297L760 277Q722 237 672 257.5Q622 278 622 342Q620 410 669.5 433.5Q719 457 755 417Z" fill="#d28445" />
  </g>
</svg>