<?xml version="1.0" encoding="UTF-8"?>
<svg width="16" height="16" viewBox="0 0 16 16" xmlns="http://www.w3.org/2000/svg">
  <g transform="translate(0.3006939121462269, 14.975560946912651) scale(0.015585937499999999, -0.015585937499999999)">
    <path d="M40 704Q72 767 124 830Q176 893 251.5 928.5Q327 964 427 958Q527 952 654 876Q592 873 533 858Q475 843 424 818.5Q373 794 331 759Q290 725 260 682Q217 620 201 539Q185 459 200 381.5Q215 304 263 241Q311 178 395 151Q240 144 153 205Q66 266 30 355.5Q-6 445 1 542Q7 639 40 704ZM224 424Q224 424 229 388Q234 351 255 304.5Q276 258 319 214Q362 170 438 156Q511 178 552 220Q592 263 612 305.5Q632 348 636 380Q641 412 641 412Q599 349 546 319Q492 289 435 291.5Q378 294 323 327Q268 361 224 424ZM471 570Q434 554 396.5 518.5Q359 483 346 458Q354 401 402 367.5Q450 334 515 362Q481 357 458 380Q435 402 428 435.5Q421 469 431 507Q441 544 471 570ZM641 432Q626 500 578.5 527Q531 554 471 529Q507 530 530 508Q553 485 560 452.5Q567 420 557 384Q547 349 518 324Q551 339 582 365Q613 391 641 432ZM754 487Q751 510 741 549Q731 587 708.5 626Q686 665 647 697Q608 728 548 739Q489 723 451 691Q413 658 390.5 621Q368 584 358 548Q348 511 346 488Q392 550 445 579Q498 607 552 605Q606 603 658 573Q710 542 754 487ZM590 743Q688 726 742 619Q795 512 776.5 386.5Q758 261 654 151Q551 42 334 18Q450 -56 555 -63Q660 -69 744.5 -27.5Q829 14 888 92Q947 170 970 263Q1000 381 977 473Q955 566 898.5 628.5Q842 691 760 721Q678 751 590 743Z" fill="#ac4142" />
  </g>
</svg>