<?xml version="1.0" encoding="UTF-8"?>
<svg width="16" height="16" viewBox="0 0 16 16" xmlns="http://www.w3.org/2000/svg">
  <g transform="translate(0.5079822198275856, 14.560501802884616) scale(0.01462890625, -0.01462890625)">
    <path d="M977 527Q1001 494 1013.5 442.5Q1026 391 1024 335Q1022 295 1006 258Q989 221 954 192Q919 163 865 144Q810 125 733 121Q689 119 640 132Q590 144 546 160Q502 176 469 190Q435 204 422 204Q396 204 359.5 185.5Q323 167 320 116Q319 93 299 42Q279 -9 268 -36L0 -36L0 728Q39 729 79 729Q119 729 160 728Q215 738 265 746Q316 754 367.5 759Q419 764 473 765Q527 767 588 764Q588 764 603 748Q617 732 639 694.5Q661 657 686 597Q711 536 731 449Q731 449 752 406Q773 363 828 374Q852 378 857 396Q862 414 862 415Q867 437 854 466Q841 495 822 522Q803 549 784 570Q766 592 760 597Q716 640 693.5 690.5Q671 741 666 762Q659 789 656 843.5Q653 898 690 926Q710 941 711 923.5Q712 906 715 896Q715 896 726 880Q737 864 761 874Q761 874 770.5 873.5Q780 873 770 858Q758 841 758 811.5Q758 782 764 765Q775 731 802 701Q829 671 861 642.5Q893 614 925 586Q956 557 977 527ZM513 490Q496 502 477.5 500.5Q459 499 450 486Q442 472 448 454.5Q454 437 471 426Q488 415 506.5 416Q525 417 534 431Q543 444 537 461.5Q531 479 513 490ZM328 380Q324 369 321 358Q318 347 314 336Q310 324 305.5 312Q301 300 286 308Q278 312 272 323.5Q266 335 260 342Q253 351 244 358.5Q235 366 224 371Q211 378 185.5 382Q160 386 151 397Q133 418 156.5 470.5Q180 523 193 541Q213 570 240 590.5Q267 611 295 630Q251 618 212.5 600.5Q174 583 146 544Q123 512 102.5 453Q82 394 117 361Q139 340 170 338.5Q201 337 224 320Q240 308 262.5 284Q285 260 309 274Q332 288 330 323Q328 358 328 380Z" fill="#d28445" />
  </g>
</svg>