<?xml version="1.0" encoding="UTF-8"?>
<svg width="16" height="16" viewBox="0 0 16 16" xmlns="http://www.w3.org/2000/svg">
  <g transform="translate(0.5099999999999998, 14.55375) scale(0.01462890625, -0.01462890625)">
    <path d="M251 62L406 62Q489 62 555 94Q621 126 671 188Q695 220 719.5 265.5Q744 311 767 371L946 371L946 526L829 526Q847 566 866 594.5Q885 623 905 640Q928 660 958 670Q988 680 1024 680L1024 834Q941 834 874.5 802.5Q808 771 757 708Q740 686 723.5 658.5Q707 631 692 598Q682 578 669.5 547.5Q657 517 641 476Q614 405 591 356.5Q568 308 549 285Q523 251 487 234Q451 217 406 216L251 216Q227 216 208.5 222.5Q190 229 177 241Q166 251 160.5 264.5Q155 278 155 294Q155 310 160.5 323Q166 336 177 346Q190 359 208.5 365Q227 371 251 371L406 371L406 526L251 526Q194 526 148 508Q102 490 66 454Q34 422 17 381.5Q0 341 0 294Q0 246 17 206Q34 166 66 133Q102 97 148 79.5Q194 62 251 62L251 62Z" fill="#75b5aa" />
  </g>
</svg>