<?xml version="1.0" encoding="UTF-8"?>
<svg width="16" height="16" viewBox="0 0 16 16" xmlns="http://www.w3.org/2000/svg">
  <g transform="translate(0.51, 14.55375) scale(0.01462890625, -0.01462890625)">
    <path d="M545 918Q589 918 630.5 910Q672 902 710 886L691 842Q657 856 620 863Q583 870 545 870Q490 870 439 856Q389 842 344.5 816.5Q300 791 263 755Q225 719 198 675L157 699Q188 748 229 789Q270 829 320 857.5Q370 886 427 902Q484 918 545 918ZM976 187Q943 133 898 89Q852 45 797.5 13.5Q743 -18 680 -35Q617 -52 549 -52Q500 -52 454 -43Q408 -34 365 -17L386 40Q325 64 273 104Q222 145 184.5 197.5Q147 250 126 314Q106 378 106 448Q106 502 118.5 553Q131 604 154 649L114 672Q145 731 190 780Q235 829 291 864Q347 899 413 918Q478 937 549 937Q605 937 657.5 925Q710 913 758 891L741 849Q791 825 833.5 789.5Q876 754 908 709L965 747Q930 795 885 835Q840 874 786.5 902Q733 930 673 945Q614 960 549 960Q443 960 350 920Q257 880 187.5 810.5Q118 741 78 647Q37 554 37 448Q37 342 78 249Q118 155 187.5 85.5Q257 16 350 -24Q443 -64 549 -64Q619 -64 683 -46Q747 -29 803.5 3.5Q860 36 906 81Q953 126 987 181L976 187ZM985 234L933 255Q907 202 867 158Q828 114 778 82.5Q728 51 670 34Q612 16 549 16Q516 16 484 21Q452 26 422 35L404 -15Q439 -27 476.5 -33Q514 -39 554 -39Q625 -39 690 -19Q755 1 811 37Q867 73 911 123Q956 174 985 234ZM821 214Q772 158 701.5 124.5Q631 91 549 91Q475 91 409 119Q344 147 295 196Q246 245 218 310Q189 375 189 449Q189 524 218 589Q246 654 295 703Q344 752 409 780Q475 808 549 808Q630 808 700 775Q770 742 820 687L859 720Q832 751 799 776Q766 801 729 819L726 812Q687 830 643.5 839.5Q600 849 554 849Q495 849 440 833Q385 817 338 788Q291 759 254 718Q216 677 191 628L182 633Q160 592 149 545Q138 498 138 448Q138 363 170 288Q202 213 258 157Q314 101 389 68Q464 36 549 36Q597 36 641 46Q685 56 725 75Q765 94 800 121Q835 148 863 181L821 214ZM801 279L821 263Q799 233 770 207Q740 182 705.5 163.5Q671 145 631 135Q591 124 549 124Q537 124 525 125Q513 126 501 128L501 151Q448 160 402 187Q356 213 322.5 252.5Q289 292 269 342Q250 392 250 448Q250 504 269 554Q289 605 322.5 644.5Q356 684 402 711Q447 737 501 746L501 772Q556 777 604 770Q652 762 693.5 742.5Q735 723 769 693Q804 662 832 620L810 604Q812 601 813.5 598Q815 595 817 592L853 609Q831 650 800 683Q769 716 730 740Q691 764 646 777Q601 791 552 791Q481 791 419 764Q357 737 310.5 690.5Q264 644 237 581Q211 519 211 448Q211 377 237 315Q264 252 310.5 205.5Q357 159 419 132Q481 105 552 105Q597 105 640 117Q682 128 719.5 149.5Q757 171 787 200Q818 230 841 266L807 288Q806 286 804.5 283.5Q803 281 801 279ZM533 140Q612 137 676 165.5Q740 194 790 255L759 279Q717 228 660 203.5Q603 179 533 180L533 140ZM531 756L531 718Q605 724 665 695.5Q725 667 772 610L804 634Q752 696 684.5 728Q617 760 531 756ZM705 255L690 272Q662 252 628.5 240Q595 228 558 228Q512 228 471 246Q431 263 401 293.5Q371 324 353 364Q336 404 336 450Q336 496 353 536Q371 576 401 606Q431 636 471 653Q512 670 558 670Q588 670 615.5 662.5Q643 655 667 642L684 656Q657 673 624.5 682.5Q592 692 557 692Q507 692 462 673Q418 654 385 621Q352 588 333 544Q314 500 314 449Q314 423 319.5 397.5Q325 372 335 349L313 337Q338 281 385 241.5Q432 202 493 188L499 213Q513 210 527.5 208Q542 206 557 207Q600 207 637.5 219.5Q675 232 705 255Z" fill="#90a959" />
  </g>
</svg>