<?xml version="1.0" encoding="UTF-8"?>
<svg width="16" height="16" viewBox="0 0 16 16" xmlns="http://www.w3.org/2000/svg">
  <g transform="translate(1.504765625, 14.55375) scale(0.01462890625, -0.01462890625)">
    <path d="M188 193L112 240Q118 258 140 300Q163 342 193 385.5Q223 429 255 462Q288 494 315 492Q284 412 259.5 339Q235 266 188 193ZM335 445Q310 370 281 301.5Q252 233 216 176L444 45L804 252L804 444Q778 441 761.5 427Q745 413 736 389Q722 352 676.5 326.5Q631 301 587 360Q518 249 454 269Q390 289 335 445ZM303 520Q259 615 189 608Q119 601 83 459L83 261Q95 283 120 326Q145 368 175.5 410Q206 452 239 485Q273 517 303 520ZM786 474Q741 508 684 476Q627 444 601 384Q626 344 649.5 346Q673 348 694 367Q711 383 725.5 420.5Q740 458 786 474ZM524 470Q482 551 443 587Q404 623 358 505Q397 475 440.5 455.5Q484 436 524 470ZM572 381Q563 395 554 411.5Q545 428 537 444Q497 413 448 424.5Q399 436 348 478Q379 397 404.5 352Q430 307 454 295Q482 281 515.5 308Q549 335 572 381ZM60 669L60 227L444 5L828 227L828 669L444 891L60 669ZM888 704L888 192L444 -64L0 192L0 704L444 960ZM804 510Q754 585 713 597Q672 609 641 587Q613 567 593.5 528.5Q574 490 559 466Q565 451 572 440.5Q579 430 586 416Q621 483 681.5 513Q742 543 804 497L804 510Z" fill="#cc00a3" />
  </g>
</svg>