<?xml version="1.0" encoding="UTF-8"?>
<svg width="16" height="16" viewBox="0 0 16 16" xmlns="http://www.w3.org/2000/svg">
  <g transform="translate(0.5099999999999998, 14.555365275065107) scale(0.01462890625, -0.01462890625)">
    <path d="M407 407L347 381Q330 426 335 470Q341 513 364 548Q387 583 425 605Q463 628 510 630L510 565Q453 561 420 514Q387 467 407 407ZM566 341L590 280Q624 295 650 323Q676 351 689 386L616 386Q607 371 594 359.5Q581 348 566 341ZM510 266L510 331Q490 332 472 339.5Q454 347 439 360L393 314Q417 292 447 279.5Q477 267 510 266ZM590 615L566 555Q581 547 594 536Q607 525 616 510L689 510Q676 545 650 572.5Q624 600 590 615ZM1024 510Q1017 562 998.5 615Q980 668 954 712L890 673Q912 637 926.5 594Q941 551 947 510ZM1024 386L947 386Q927 264 848 173Q769 81 661.5 39Q554 -3 434 15Q313 33 209 131L156 78Q279 -35 422 -57Q565 -78 691 -29Q817 20 909 129Q1001 238 1024 386ZM109 276Q93 314 84 355.5Q75 397 75 439L0 439Q1 389 11 340Q21 291 41 246L109 276ZM508 776L508 845Q448 842 394 825Q341 808 296 777.5Q251 747 215 703Q179 659 155 603L219 578Q239 623 268 659Q297 695 334 720Q371 745 415 759Q459 774 508 776ZM829 510L900 510Q891 559 870 606Q849 652 818.5 692.5Q788 733 748 765Q708 796 662 815L637 751Q666 739 696 717Q726 695 752 664Q778 633 799 594Q819 555 829 510ZM722 386Q707 339 673 303Q640 267 596 249Q552 231 503 232Q453 234 407 261Q353 292 326 343Q299 393 299 448Q299 503 326 553Q353 604 407 635Q453 662 503 664Q552 665 596 646.5Q640 628 673 593Q707 557 722 510L788 510Q773 576 730 626Q687 676 629 702.5Q571 729 504 728Q437 727 375 691Q305 650 270 585Q235 519 235 448Q235 377 270 311Q305 245 375 205Q437 169 504 168Q571 167 629 193.5Q687 220 730 270Q773 320 788 386L722 386ZM836 386Q823 331 793 284Q764 237 722 201.5Q680 166 629 145Q578 124 522 123L522 51Q601 54 667 83Q732 111 782 157.5Q832 204 865 264Q897 323 910 386ZM184 439L112 439Q113 391 128 339Q144 287 174.5 239Q205 191 251 150Q297 110 359 83L385 150Q340 169 303 200Q267 230 241 268Q215 306 201 350Q186 393 184 439ZM41 648L111 620Q152 720 230 783Q308 846 401 870Q494 894 592 877Q690 861 771 802L816 862Q718 933 603 952Q489 971 380.5 942Q272 913 182 838Q91 764 41 648Z" fill="#d28445" />
  </g>
</svg>