<?xml version="1.0" encoding="UTF-8"?>
<svg width="16" height="16" viewBox="0 0 16 16" xmlns="http://www.w3.org/2000/svg">
  <g transform="translate(1.6640429687500005, 13.823125) scale(0.016542968749999998, -0.016542968749999998)">
    <path d="M761 316L711 365Q706 370 699.5 370Q693 370 688 365L462 140L369 233Q364 238 357.5 238Q351 238 346 233L296 184Q291 178 291 171.5Q291 165 296 160L451 5Q456 1 462.5 1Q469 1 474 5L761 292Q766 297 766 304Q766 311 761 316ZM228 251L278 301Q312 333 357.5 333Q403 333 437 301L462 276L576 384L576 704L0 704L0 0L320 0L228 92Q196 127 196 172Q196 217 228 251ZM192 640L512 640L512 576L192 576ZM192 512L512 512L512 448L192 448ZM128 320L64 320L64 384L128 384ZM128 448L64 448L64 512L128 512ZM128 576L64 576L64 640L128 640ZM192 384L256 384L256 320L192 320Z" fill="#ac4142" />
  </g>
</svg>