<?xml version="1.0" encoding="UTF-8"?>
<svg width="16" height="16" viewBox="0 0 16 16" xmlns="http://www.w3.org/2000/svg">
  <g transform="translate(0.015868382947197855, 14.985333806818181) scale(0.015585937499999999, -0.015585937499999999)">
    <path d="M165 635Q158 611 147 604.5Q136 598 113 624Q90 651 69.5 719Q49 787 75 828Q98 863 154 835.5Q210 808 234 786Q262 759 248 745Q234 731 234 731Q207 716 191.5 695.5Q176 675 165 635ZM862 635Q869 611 880 604.5Q891 598 914 624Q937 651 957.5 719Q978 787 952 828Q929 863 873 835.5Q817 808 793 786Q765 759 779 745Q793 731 793 731Q820 716 835.5 695.5Q851 675 862 635ZM366 180Q333 223 332.5 271.5Q332 320 363 365Q391 407 397 444.5Q403 482 384 508Q378 581 328 585.5Q278 590 245 575Q212 560 200 545.5Q188 531 188 531Q177 518 184.5 508Q192 498 203 504Q213 524 223.5 534Q234 544 245 544Q264 498 295.5 485Q327 472 370 489Q380 473 374 443.5Q368 414 342 377Q303 322 308 266Q313 210 346 159Q355 147 365 158Q375 169 366 180ZM681 159Q715 210 719.5 266Q724 322 685 377Q660 414 653.5 443.5Q647 473 657 489Q700 472 732 485Q764 498 783 544Q793 544 803.5 534Q814 524 824 504Q835 498 842.5 508Q850 518 839 531Q839 531 827 545.5Q815 560 782 575Q750 590 700 585.5Q650 581 643 508Q625 482 630.5 444.5Q636 407 665 365Q695 320 694.5 271.5Q694 223 661 180Q653 169 662.5 158Q672 147 681 159ZM495 133Q487 128 474 121.5Q461 115 442 108Q422 100 435 94Q448 88 462 93Q476 98 489.5 106Q503 114 515 114Q528 114 547.5 102Q567 90 579 89Q590 89 596 95.5Q602 102 592 105Q583 108 556.5 119.5Q530 131 529 135Q527 139 528 155Q529 171 529 171Q529 184 547 198.5Q565 213 574 243Q626 260 618 293.5Q610 327 566 327L456 327Q418 327 410.5 293Q403 259 460 241Q467 217 482.5 199.5Q498 182 499 169Q499 169 501 153Q503 137 495 133ZM184 408Q193 407 199.5 429.5Q206 452 188 459Q174 461 171 436.5Q168 412 184 408ZM206 373Q196 382 189.5 379Q183 376 182 356Q182 337 190 326Q198 315 206 312Q213 310 219 314.5Q225 319 226 332Q227 346 221 354.5Q215 363 206 373ZM840 459Q821 452 828 429.5Q835 407 844 408Q860 412 857 436.5Q854 461 840 459ZM802 332Q803 319 808.5 314.5Q814 310 822 312Q830 315 838 326Q846 337 845 356Q845 376 838.5 379Q832 382 822 373Q813 363 807 354.5Q801 346 802 332ZM379 694Q352 697 334 683.5Q316 670 317 636Q334 618 365 647Q396 676 379 694ZM711 638Q712 672 694.5 685Q677 698 650 696Q633 678 663.5 649Q694 620 711 638ZM530 707Q530 728 514 728Q498 728 498 707L498 593Q498 576 514 576Q530 576 530 593ZM67 904Q17 871 6 819Q-5 767 7.5 711Q20 655 49 601Q78 547 107 509Q78 468 87 427Q96 386 131 333Q174 268 170.5 188.5Q167 109 265 72Q314 54 370.5 16.5Q427 -21 515 -21Q604 -21 632 3Q660 27 768 79Q876 131 864 206.5Q852 282 883 315Q930 367 938.5 410.5Q947 454 926 516Q978 588 1000 651Q1022 714 1023.5 763.5Q1025 813 1012 846Q998 879 979 891Q945 912 909 910Q872 908 836 893Q800 878 769 855Q737 831 714 809Q663 825 613 834Q563 842 513.5 842.5Q464 843 415 835Q366 827 317 811Q317 811 290 834Q263 856 224 878.5Q185 901 142 913Q99 925 67 904ZM314 796Q363 813 413 821Q463 829 513.5 828.5Q564 828 615 819Q666 811 717 794Q740 816 771 840Q801 863 834.5 878.5Q868 894 903 897Q939 900 971 879Q991 868 1003 837Q1016 806 1013 759.5Q1010 713 986 652Q963 590 910 518Q931 464 927 419Q923 374 873 325Q836 288 851.5 214Q867 140 762 91Q654 40 629 16.5Q604 -7 515 -7Q427 -7 372.5 29.5Q318 66 270 84Q223 102 206 132Q189 163 182 199Q175 235 169 273Q164 312 141 344Q103 396 99 432Q95 468 124 510Q95 547 65 599Q36 650 22 704Q8 758 17 808Q25 858 73 892Q101 913 143 900Q184 888 222 865Q260 842 287 819Q314 796 314 796Z" fill="#f4bf75" />
  </g>
</svg>