<?xml version="1.0" encoding="UTF-8"?>
<svg width="16" height="16" viewBox="0 0 16 16" xmlns="http://www.w3.org/2000/svg">
  <g transform="translate(-0.46999999999999886, 15.411249999999999) scale(0.016542968749999998, -0.016542968749999998)">
    <path d="M921 143L1024 244L921 349L921 869L158 869L0 901L127 767L0 662L127 557L0 451L127 349L0 244L127 143L0 -5L158 33L921 33L1024 -5L921 143ZM644 390Q618 355 581 318.5Q544 282 510 259Q442 213 382 216Q321 219 281 255Q241 291 227 352Q213 413 237 482Q253 525 284 570Q314 614 356.5 646.5Q399 679 450 691Q502 703 560 682Q634 653 622 588.5Q610 524 567 478Q553 464 533 472.5Q513 481 537 524Q545 541 548 568.5Q551 596 525 605Q467 625 411 587.5Q355 550 341 490Q326 438 359.5 395Q393 352 460 367Q514 378 561.5 408Q609 438 629 455Q649 472 658 448Q667 424 644 390ZM796 345Q778 327 756.5 323Q735 319 722 331Q710 344 714 365.5Q718 387 736 405Q754 423 775.5 427Q797 431 809 418Q822 406 818 384.5Q814 363 796 345ZM817 509Q799 491 777.5 487Q756 483 744 495Q731 508 735 529.5Q739 551 757 569Q775 587 796.5 591Q818 595 830 582Q843 570 839 548.5Q835 527 817 509Z" fill="#6a9fb5" />
  </g>
</svg>