<?xml version="1.0" encoding="UTF-8"?>
<svg width="16" height="16" viewBox="0 0 16 16" xmlns="http://www.w3.org/2000/svg">
  <g transform="translate(0.023691406250000213, 14.979680209037161) scale(0.015585937499999999, -0.015585937499999999)">
    <path d="M111 764L286 464Q290 508 308 546Q327 584 357.5 612.5Q388 641 427 657Q467 674 511 674L971 674Q916 788 812 862Q707 936 584.5 954.5Q462 973 336 929Q210 885 111 764ZM439 -59L615 245Q592 233 566 226.5Q540 220 512 220Q439 220 381 262Q323 304 299 370L87 732Q1 595 0 460Q0 324 57.5 213.5Q115 103 217 29Q319 -45 439 -59ZM712 339L479 -64Q644 -69 762 0Q879 68 944.5 174Q1010 280 1021 405Q1033 530 988 637L636 637Q682 605 705 565Q729 526 736 485.5Q743 445 735 407Q728 368 712 339ZM417 282Q370 310 346 354Q322 399 322 447Q322 495 346 540Q370 584 417 612Q465 639 515 637Q566 635 607.5 611Q649 587 676 545Q703 502 703 447Q703 392 676 349Q649 307 607.5 282.5Q566 258 515 257Q465 255 417 282Z" fill="#ac4142" />
  </g>
</svg>