<?xml version="1.0" encoding="UTF-8"?>
<svg width="16" height="16" viewBox="0 0 16 16" xmlns="http://www.w3.org/2000/svg">
  <g transform="translate(0.5099999999999998, 14.55375) scale(0.01462890625, -0.01462890625)">
    <path d="M55 289Q41 291 30.5 295.5Q20 300 13 308Q7 316 3.5 324Q0 332 0 341Q0 350 3.5 359Q7 368 15 377Q22 385 33 389.5Q44 394 59 394Q63 394 115 394Q168 394 230.5 394.5Q293 395 345 395Q398 395 402 395Q414 392 423 386.5Q432 381 438 374Q443 367 446 359Q449 351 449 343Q449 334 446 326Q443 318 436 310Q430 303 420.5 298Q411 293 398 290Q376 290 328 290Q280 290 226.5 289.5Q173 289 125 289Q77 289 55 289ZM55 503Q41 505 30.5 509.5Q20 514 13 522Q7 530 3.5 538Q0 546 0 555Q0 564 3.5 573Q7 582 15 590Q22 599 33 603.5Q44 608 59 608Q63 608 115 608Q168 608 230.5 608.5Q293 609 345 609Q398 609 402 609Q414 606 423 600.5Q432 595 438 588Q443 581 446 573Q449 565 449 556Q449 547 446 539Q443 531 436 524Q430 517 420.5 512Q411 507 398 504Q376 504 328 504Q280 503 226.5 503Q173 503 125 503Q77 503 55 503ZM833 468L536 633Q525 639 517.5 644.5Q510 650 506 655Q503 660 501 666.5Q499 673 499 680Q499 690 502.5 698Q506 706 513 713Q520 720 528 723.5Q536 727 545 727Q551 727 560 724Q569 721 581 714L1024 468L581 222Q569 215 560 211.5Q551 208 545 208Q536 208 528 211.5Q520 215 513 222Q506 229 502.5 237.5Q499 246 499 256Q499 263 501 269.5Q503 276 506 281Q510 286 517.5 291.5Q525 297 536 303L833 468ZM862 33L152 33L152 187L196 187L196 77L818 77L818 187L862 187ZM862 709L818 709L818 819L196 819L196 709L152 709L152 863L862 863Z" fill="#90a959" />
  </g>
</svg>