<?xml version="1.0" encoding="UTF-8"?>
<svg width="16" height="16" viewBox="0 0 16 16" xmlns="http://www.w3.org/2000/svg">
  <g transform="translate(1.097198486328125, 14.125) scale(0.013671875, -0.013671875)">
    <path d="M253 562Q285 631 350.5 674Q416 717 496 717Q552 717 600 696Q649 675 685.5 638.5Q722 602 743 554Q764 505 764 449Q764 394 743 345Q722 297 685.5 260.5Q649 224 600 203Q552 182 496 182Q415 182 350 225.5Q285 269 253 337Q251 343 246 348Q241 353 231 353L25 353Q11 352 4.5 342Q-2 332 2 322Q23 239 70 168Q116 97 181.5 45.5Q247 -6 328 -35Q408 -64 498 -64Q604 -64 697 -24Q790 17 859.5 86.5Q929 156 969 249Q1010 342 1010 448Q1010 554 969 647Q929 740 859.5 809.5Q790 879 697 920Q604 960 498 960Q408 960 327 931Q247 901 181.5 849Q116 797 69 727Q22 656 1 574Q-3 562 5.5 554Q14 546 25 546L231 546Q239 546 244.5 550Q250 554 253 562ZM437 343Q376 378 376 448Q376 518 437 553Q497 588 558 553Q619 518 619 448Q619 378 558 343Q497 308 437 343Z" fill="#ffffff" />
  </g>
</svg>