<?xml version="1.0" encoding="UTF-8"?>
<svg width="16" height="16" viewBox="0 0 16 16" xmlns="http://www.w3.org/2000/svg">
  <g transform="translate(0.02000000000000013, 12.9875) scale(0.015585937499999999, -0.015585937499999999)">
    <path d="M320 576Q347 575 365 557Q383 539 383 512Q383 485 365 467Q347 449 320 449Q293 449 275 467Q257 485 257 512Q257 539 275 557Q293 575 320 576ZM960 64Q958 -18 904 -72Q850 -126 768 -128L320 -128L512 64L593 64Q610 35 639 17.5Q668 0 704 0Q758 1 794.5 37.5Q831 74 832 128Q831 182 794.5 218.5Q758 255 704 256Q668 256 639 238.5Q610 221 593 192L448 192L156 -100Q114 -74 89.5 -31.5Q65 11 64 64L64 576Q66 658 120 712Q174 766 256 768L256 623Q227 606 209.5 577Q192 548 192 512Q193 458 229.5 421.5Q266 385 320 384Q356 384 385 401.5Q414 419 431 448L593 448Q610 419 639 401.5Q668 384 704 384Q758 385 794.5 421.5Q831 458 832 512Q831 566 794.5 602.5Q758 639 704 640Q668 640 639 622.5Q610 605 593 576L431 576Q414 606 384 623L384 768L768 768Q850 766 904 712Q958 658 960 576ZM640 128Q641 155 659 173Q677 191 704 191Q731 191 749 173Q767 155 767 128Q767 101 749 83Q731 65 704 65Q677 65 659 83Q641 101 640 128ZM640 512Q641 539 659 557Q677 575 704 575Q731 575 749 557Q767 539 767 512Q767 485 749 467Q731 449 704 449Q677 449 659 467Q641 485 640 512Z" fill="#90a959" />
  </g>
</svg>