<?xml version="1.0" encoding="UTF-8"?>
<svg width="16" height="16" viewBox="0 0 16 16" xmlns="http://www.w3.org/2000/svg">
  <g transform="translate(0.5099999999999998, 14.55375) scale(0.01462890625, -0.01462890625)">
    <path d="M51 448Q51 366 82 293Q114 221 168 167Q222 113 295 81Q368 50 450 50L450 -1Q357 -1 275 34Q193 70 132 131Q71 192 35 273Q0 355 0 448Q0 541 35 623Q71 704 132 765Q193 826 275 862Q357 897 450 897Q510 897 567 882Q624 866 674.5 837.5Q725 809 767 767Q809 726 839 675L795 649Q769 695 731 731Q694 768 649 793.5Q604 819 554 832Q503 846 450 846Q368 846 295 815Q222 783 168 729Q114 675 82 603Q51 530 51 448ZM818 438Q769 438 726 420Q683 401 651 369Q619 337 600 294Q582 251 582 203Q582 155 600 111.5Q618 68 653 34L688 70Q661 97 647 131Q633 165 633 203Q633 279 687 333.5Q741 388 818 388Q868 388 911.5 362Q955 336 980 292L1024 317Q993 373 937.5 405.5Q882 438 818 438Z" fill="#ff00cc" />
  </g>
</svg>