<?xml version="1.0" encoding="UTF-8"?>
<svg width="16" height="16" viewBox="0 0 16 16" xmlns="http://www.w3.org/2000/svg">
  <g transform="translate(0.51, 14.55375) scale(0.01462890625, -0.01462890625)">
    <path d="M746 469Q729 424 709 379Q688 335 670 299.5Q652 264 640 242Q628 220 628 220L544 220Q551 232 578 280Q604 328 630 389Q656 450 672 513Q688 576 674 617Q665 646 643 680.5Q621 715 595 754L679 753Q717 697 749 635Q782 573 810.5 506Q839 439 864 367Q889 295 912 220L834 220Q814 288 792.5 351.5Q771 415 746 469ZM1008 448Q1008 342 969 249Q930 155 862.5 85.5Q795 16 705 -24Q615 -64 512 -64Q409 -64 319 -24Q229 16 161.5 85.5Q94 155 55 249Q16 342 16 448Q16 554 55 647Q94 741 161.5 810.5Q229 880 319 920Q409 960 512 960Q615 960 705 920Q795 880 862.5 810.5Q930 741 969 647Q1008 554 1008 448ZM411 133Q384 172 363 208Q342 244 331 272Q318 306 332 364Q347 423 371.5 483Q396 543 422 593Q448 644 460 661Q461 662 460 664Q459 666 457 666L379 669Q379 669 367 647Q354 626 335.5 590.5Q317 555 296 511Q275 466 259 420Q234 474 212.5 537.5Q191 601 171 669L93 669Q116 594 141 522Q167 450 195.5 382Q224 314 256 252Q289 190 327 135L411 133ZM645 0Q657 -1 670.5 -0.5Q684 0 696 0Q759 28 812 73Q865 118 903 176Q941 234 962 303Q983 372 983 448Q983 549 946 637Q909 726 845 792Q781 858 695 896Q610 935 512 935Q454 935 399 920.5Q344 906 296 880Q397 889 465 842Q533 796 561.5 724.5Q590 653 576 573Q563 492 502 433Q458 390 437 315Q416 240 443 165Q466 101 520 55.5Q574 10 645 0Z" fill="#d28445" />
  </g>
</svg>