<?xml version="1.0" encoding="UTF-8"?>
<svg width="16" height="16" viewBox="0 0 16 16" xmlns="http://www.w3.org/2000/svg">
  <g transform="translate(0.9886474609374991, 14.12688577586207) scale(0.013671875, -0.013671875)">
    <path d="M613 625Q610 618 588 583Q566 547 539 504Q512 461 488 423Q463 385 455 373Q439 350 422.5 344Q406 338 389 338Q373 338 305 338Q237 338 203 338Q184 338 172.5 351Q161 364 159 376Q157 385 161 390.5Q165 396 168 399Q175 408 217 477Q260 546 310 627.5Q360 709 403 779Q446 848 453 859Q458 867 466 879.5Q474 892 492 890Q505 888 517.5 882Q530 876 541 853Q548 840 580.5 776.5Q613 713 619 697Q624 682 623 662.5Q622 643 613 625ZM604 9Q631 9 635 32Q639 55 629 70Q619 86 594 123.5Q569 161 545 210Q526 249 504.5 258Q483 267 461 267L162 267Q133 267 116 245Q99 223 99 223Q99 223 69 177.5Q39 132 12 88Q-4 62 1.5 34Q7 6 38 6Q48 6 137 6Q227 7 331 7.5Q435 8 519 8Q604 9 604 9ZM1020 73Q1020 73 974 145Q928 218 872 306.5Q816 395 768 469Q721 544 718 549Q708 564 687 563.5Q666 563 653 537Q634 497 604 441.5Q574 386 566 365Q559 344 562 328Q565 312 573 295Q576 287 598 252Q620 217 646 176Q672 135 696 98Q719 61 726 47Q740 23 761.5 15Q783 7 801 7L968 7Q989 7 1003 18Q1017 29 1022 41Q1026 53 1023 63Q1020 73 1020 73Z" fill="#d28445" />
  </g>
</svg>