<?xml version="1.0" encoding="UTF-8"?>
<svg width="16" height="16" viewBox="0 0 16 16" xmlns="http://www.w3.org/2000/svg">
  <g transform="translate(3.0358789062500007, 14.9825) scale(0.015585937499999999, -0.015585937499999999)">
    <path d="M195 62L0 62L0 833L191 833Q110 749 73 647Q36 545 38.5 441Q41 337 81 238Q122 139 195 62ZM369 -64Q318 -41 274.5 -9Q231 23 195 62L431 62Q398 88 359 125Q320 162 286 211Q252 260 229 322Q206 384 204 461Q203 522 226 578Q249 635 283.5 683.5Q318 732 358 771Q399 809 432 833L191 833Q226 870 269.5 902Q313 934 365 960L458 833L637 833L637 62L458 62L369 -64ZM572 677L473 813Q442 794 402 758Q362 722 327 675.5Q292 629 267 574Q243 519 244 462Q246 387 269 328Q293 268 327 222Q361 176 400 141Q439 106 472 81L472 81L568 216Q497 274 461 338Q426 402 426.5 463.5Q427 525 463 580Q499 636 572 677Z" fill="#4d9085" />
  </g>
</svg>