<?xml version="1.0" encoding="UTF-8"?>
<svg width="16" height="16" viewBox="0 0 16 16" xmlns="http://www.w3.org/2000/svg">
  <g transform="translate(0.6490156249999995, 15.899486328125) scale(0.017636718750000002, -0.017636718750000002)">
    <path d="M376 339Q371 339 368.5 340.5Q366 342 364 342Q357 342 350.5 346Q344 350 341 353Q341 355 341 359Q341 363 341 365Q340 373 344 378.5Q348 384 352 390Q354 394 355.5 398Q357 402 358 406Q360 414 361 422Q362 430 362 438Q363 447 363.5 455.5Q364 464 362 472Q358 488 358.5 504Q359 520 358 536Q358 540 353.5 543.5Q349 547 345 547Q340 547 334 547Q328 547 323 547Q315 547 312 549Q309 551 308 552Q304 553 291 558Q278 563 274 564Q271 565 267 566Q263 567 259 568Q255 569 252 567Q249 565 247 563Q246 561 244.5 560.5Q243 560 242 560Q228 560 213 560Q198 560 185 560Q182 565 177.5 564.5Q173 564 169 564Q167 564 165.5 563Q164 562 163 561Q161 561 159 560Q157 559 156 560Q153 563 150 566.5Q147 570 145 574Q144 578 144 583.5Q144 589 145 594Q146 598 149 602.5Q152 607 155 611Q158 615 162 618.5Q166 622 170 625Q171 627 173 627.5Q175 628 177 629Q185 630 188 630Q191 630 202 633Q213 636 223.5 637Q234 638 241 636Q256 632 270 633Q284 634 297 633Q301 632 308.5 627Q316 622 318 621Q321 620 324 618.5Q327 617 330 616Q333 616 336 616Q339 616 338 623Q336 628 336.5 633.5Q337 639 337 645Q337 646 338 648Q339 650 340 652Q336 652 332 652Q328 652 324 652Q318 653 313 655Q308 657 303 659Q297 661 293.5 661.5Q290 662 279 663Q268 664 261 664Q254 664 233 663Q213 662 200.5 659Q188 656 182 653Q176 650 172 645.5Q168 641 163 637Q161 636 158.5 636.5Q156 637 153 637Q152 637 140.5 641Q129 645 123 647Q120 647 117.5 647Q115 647 113 645Q108 641 102.5 636.5Q97 632 90 631Q84 629 83 630Q82 631 82 638Q82 641 82 644.5Q82 648 82 651Q83 661 83.5 670.5Q84 680 87 688Q88 693 90 700.5Q92 708 95 716Q97 725 99.5 734Q102 743 104 747Q109 759 118 780Q127 801 146 829Q151 835 155.5 840.5Q160 846 165 852Q170 857 177 864.5Q184 872 207 886Q218 892 225.5 893Q233 894 238 896Q242 897 246 898Q250 899 254 900Q257 901 260 902.5Q263 904 266 905Q267 905 268.5 904Q270 903 272 903Q272 899 267 895.5Q262 892 261 890Q260 889 260 887Q260 885 261 884L390 749Q390 749 390 750Q390 751 390 752L325 934Q325 935 326.5 936Q328 937 330 935L422 766Q422 766 422.5 766.5Q423 767 423 767L412 958Q412 960 413.5 960Q415 960 416 958Q416 958 423 929Q430 900 438 865.5Q446 831 454 801Q461 772 461 771L462 771Q462 771 467 799Q473 826 480 859Q487 892 494 921Q500 950 502 953Q504 956 505 955.5Q506 955 507 952L497 763Q497 763 528 819Q559 875 581 912Q582 913 583 912.5Q584 912 584 910L527 749L529 747L639 866Q643 867 643 866.5Q643 866 642 862Q642 862 628 840Q613 818 595.5 791Q578 764 563 742Q548 719 548 719Q548 717 547 715Q546 713 551 715Q551 715 617.5 754Q684 793 686 794Q689 795 689.5 794.5Q690 794 688 791L588 703Q587 702 586 700.5Q585 699 585 698Q590 698 644 715Q698 732 713 736Q717 737 717.5 736Q718 735 715 732L605 673Q603 673 602 671.5Q601 670 601 668L832 706Q833 706 833.5 705.5Q834 705 834 704L609 640Q607 639 606 637Q605 635 610 633L768 620Q770 619 772 617Q774 615 770 614L597 604Q597 604 631 591Q664 578 705 562.5Q746 547 781 534Q816 520 820 519Q824 516 824 515.5Q824 515 819 514Q814 516 779 525Q745 535 705 546Q665 557 633 566Q601 575 601 575Q597 576 591 577Q585 578 584 578Q582 578 584.5 576Q587 574 588 573Q652 532 702 498.5Q752 465 752 465Q753 464 753.5 462.5Q754 461 754 459L572 551Q570 550 570.5 548.5Q571 547 572 547Q572 547 596 523Q620 499 650.5 468.5Q681 438 708 411Q735 384 741 378Q745 371 744.5 370.5Q744 370 737 374L555 521Q554 522 552.5 522.5Q551 523 550 522Q549 522 549.5 520.5Q550 519 551 518Q551 518 569 483Q588 448 610.5 406Q633 364 652 328Q671 291 673 288Q675 282 674 281.5Q673 281 668 286Q666 288 644 321Q622 354 596.5 392.5Q571 431 549 463Q528 495 528 495Q528 496 527 497.5Q526 499 524 499Q523 498 523 497Q523 496 523 495Q524 493 543 438Q563 383 585.5 317Q608 251 628 196Q647 141 648 138Q652 127 651.5 125.5Q651 124 644 135Q644 135 621 188Q598 241 569.5 305Q541 369 518 424Q494 479 492 482Q491 484 489 488.5Q487 493 487 490Q487 489 497 418Q507 347 519 261Q531 175 542 102Q552 29 552 25Q553 24 552 22.5Q551 21 550 19Q549 21 548 22Q547 23 547 24L445 514Q445 514 424 476.5Q403 439 398 425Q396 419 394 409.5Q392 400 396 394Q397 391 397.5 389Q398 387 395 384Q392 380 389 376.5Q386 373 386 369Q385 365 387 361Q389 357 391 353Q391 351 392 349Q393 347 393 345Q393 344 390.5 343.5Q388 343 387 342Q385 342 382.5 341Q380 340 376 340ZM216 843Q215 834 215 826.5Q215 819 222 815L364 721Q365 723 366 726Q367 729 365 733Q361 738 344 762Q327 786 307 812.5Q287 839 271 860Q255 882 254 882Q244 878 230.5 865.5Q217 853 216 843ZM260 719Q281 710 303.5 703Q326 696 342 696Q342 696 342.5 696.5Q343 697 343 698Q312 725 279.5 754Q247 783 216 811Q214 793 216.5 784Q219 775 221 771Q221 771 232 748.5Q243 726 260 719ZM52 479Q55 477 56.5 477.5Q58 478 59 482L59 499L67 474Q66 474 65.5 474Q65 474 64 474Q57 474 52 472.5Q47 471 42 466Q41 463 40.5 456.5Q40 450 41 448Q43 443 45 438.5Q47 434 48 429Q50 425 51 421.5Q52 418 54 415Q56 411 59.5 408Q63 405 66 402Q68 401 69.5 399.5Q71 398 74 397Q75 400 77 402.5Q79 405 79 408Q79 420 79 433Q79 446 79 459Q79 461 78 462.5Q77 464 76 466Q76 467 75.5 469Q75 471 76 472Q80 474 82.5 477Q85 480 84 486Q84 491 84 496Q84 501 84 506Q84 507 84 508Q84 509 83 510Q79 512 79.5 515.5Q80 519 79 522Q79 523 79 524.5Q79 526 78 527Q77 533 74.5 538.5Q72 544 72 550Q71 557 68.5 562Q66 567 62 572Q61 573 58.5 573.5Q56 574 55 575Q51 579 47.5 582.5Q44 586 41 590Q36 595 29.5 595.5Q23 596 18 592Q17 590 15.5 588.5Q14 587 12 587Q8 586 5 583Q2 580 0 575Q-1 572 0.5 565Q2 558 2 557Q3 552 6 549.5Q9 547 14 547Q19 548 22 546.5Q25 545 27 541Q29 539 30.5 536Q32 533 34 531Q37 527 41.5 523Q46 519 47 518Q48 517 48 515.5Q48 514 45 515Q43 515 38 515Q33 515 31 517Q28 519 29 523.5Q30 528 29 532Q28 536 25.5 539Q23 542 19 540Q17 540 14 537Q11 534 11 531Q11 531 8.5 490.5Q6 450 11 433Q16 417 19.5 411Q23 405 24 402Q27 397 36 379.5Q45 362 49 356Q53 352 57.5 347.5Q62 343 66 339Q67 339 68.5 339.5Q70 340 70 340Q70 344 70 348Q70 352 70 356Q70 358 68.5 359.5Q67 361 67 363Q66 367 66.5 371.5Q67 376 63 380Q61 381 59.5 388Q58 395 53 402Q51 406 48.5 410Q46 414 46 420Q46 420 46 420.5Q46 421 45 422Q41 428 40.5 435Q40 442 38 449Q37 451 37.5 454.5Q38 458 37 460Q33 466 34 473Q35 480 40 485Q43 486 46 484.5Q49 483 52 479ZM185 453Q182 454 176 456Q170 458 164 462Q161 464 149.5 470.5Q138 477 134 480Q130 484 127.5 488Q125 492 122 496Q121 498 119 500.5Q117 503 117 506Q118 511 115.5 515Q113 519 109 521Q106 523 102 523.5Q98 524 96 523Q91 520 87.5 515Q84 510 86 503Q86 501 87 497Q88 493 88 489Q89 485 87.5 480.5Q86 476 82 466Q82 450 82 432.5Q82 415 82 400Q79 399 78.5 395Q78 391 78 388Q78 382 77.5 364.5Q77 347 81 340Q86 333 85 325Q84 317 91 294Q96 276 97 267Q98 258 107 243Q114 231 119.5 219Q125 207 127 204Q136 184 136 174Q136 164 136 164Q136 146 136 128.5Q136 111 133 93Q132 83 131.5 72Q131 61 136 51Q138 45 138.5 38.5Q139 32 140 26Q140 23 138.5 20Q137 17 136 14Q135 8 136 1Q137 -6 141 -11Q145 -16 148.5 -21Q152 -26 154 -32Q156 -39 162 -45.5Q168 -52 171 -54Q173 -57 175.5 -59.5Q178 -62 181 -63Q188 -66 194 -61.5Q200 -57 201 -49Q204 -30 210 -12.5Q216 5 223 19Q225 25 232 32.5Q239 40 244 45Q256 56 272 62Q288 68 288 68Q288 70 288 72.5Q288 75 287 76Q278 83 270.5 92.5Q263 102 252 107Q245 110 237.5 117.5Q230 125 203 144Q196 148 195.5 157.5Q195 167 200 178Q206 187 206 208.5Q206 230 205 244Q204 258 205 262Q206 266 206 267Q208 271 210 274.5Q212 278 213 282Q213 284 211.5 287Q210 290 210 292Q209 299 209 306Q209 313 209 320Q209 324 209.5 328.5Q210 333 213 337Q218 342 223 367.5Q228 393 230 399Q231 403 232.5 407Q234 411 237 414Q240 418 245 421Q250 424 254 427Q257 429 260.5 431Q264 433 267 434Q270 435 271.5 436Q273 437 272 440Q271 441 269 442.5Q267 444 266 444Q251 444 229.5 444Q208 444 204 445Q201 446 195.5 448.5Q190 451 185 453ZM378 258Q376 256 373.5 256.5Q371 257 368 257Q367 258 365 259Q363 260 361 260Q353 261 345 260Q337 259 329 256Q327 255 323 254Q319 253 317 253Q314 253 305 256Q296 259 294 261Q292 262 290.5 264Q289 266 289 268Q288 276 289 283.5Q290 291 298 296Q299 296 299.5 298Q300 300 300 301Q298 301 295.5 301.5Q293 302 292 301Q289 299 287.5 297Q286 295 284 293Q282 291 279 290Q276 289 275 287Q271 283 264.5 277.5Q258 272 254 263Q250 255 248.5 249Q247 243 245 237Q244 235 242.5 232.5Q241 230 241 228Q241 225 241 220.5Q241 216 241 212Q241 208 244.5 200.5Q248 193 245 191Q241 188 241 185Q241 182 241 179Q241 174 241 168.5Q241 163 241 159Q241 152 240.5 142.5Q240 133 249 128Q250 127 251 126.5Q252 126 253 125Q254 127 254.5 128Q255 129 255 131Q257 143 254.5 155Q252 167 260 179Q262 183 264 187Q266 191 268 195Q270 198 275 205Q280 212 289 213Q300 214 306 208Q312 202 314 201Q319 197 327.5 192Q336 187 344 184Q349 182 369 182.5Q389 183 405 186Q421 188 425.5 191Q430 194 431 194Q435 196 437.5 200.5Q440 205 446 205Q449 205 454.5 209.5Q460 214 472 218Q474 219 477.5 219.5Q481 220 484 222Q486 222 485.5 224Q485 226 485 226Q472 231 465.5 234.5Q459 238 455 240Q451 241 446 242Q441 243 436 244Q432 246 427.5 248.5Q423 251 418 252Q414 254 409 254.5Q404 255 399 257Q396 260 389 260Q382 260 378 258ZM361 75Q365 75 370 74.5Q375 74 378 78Q379 79 381.5 79Q384 79 385 78Q390 73 396 74.5Q402 76 408 75Q414 74 419.5 75.5Q425 77 429 83Q433 88 436.5 93.5Q440 99 439 107Q439 110 438 113.5Q437 117 435 120Q433 125 429.5 130.5Q426 136 422 141Q418 148 411 150.5Q404 153 396 152Q394 151 393 150.5Q392 150 391 149Q389 146 387 142.5Q385 139 383 136Q379 130 374 130.5Q369 131 364 136Q361 141 357 144.5Q353 148 346 147Q345 147 342 149Q339 151 337 152Q329 153 323.5 150.5Q318 148 313 142Q308 137 305 131.5Q302 126 304 119Q305 111 303.5 103.5Q302 96 308 89Q311 83 315 79Q319 75 326 75Q331 75 344 75Q357 75 361 75ZM299 459Q303 457 307 454Q311 451 312 448Q314 437 314.5 425Q315 413 316 401Q316 400 316 395.5Q316 391 316 388Q316 387 317 386Q318 385 318 384Q319 384 321 385Q323 386 330 389Q331 389 332.5 389.5Q334 390 335 391Q337 396 339 401.5Q341 407 343 413Q344 418 344 423Q344 428 347 433Q350 440 350.5 448.5Q351 457 351 466Q352 471 351.5 476Q351 481 352 486Q352 488 353 490Q354 492 354 494Q355 497 355 500Q355 503 354 506Q353 511 351 516Q349 521 347 526Q346 529 344.5 531Q343 533 341 536Q341 536 339.5 535Q338 534 337 534Q336 531 334.5 528Q333 525 331 524Q326 520 320.5 517Q315 514 310 511Q305 508 300 504.5Q295 501 289 499Q283 498 277 497Q271 496 265 495Q255 495 245.5 494Q236 493 226 498Q222 500 216 499.5Q210 499 204 498Q202 498 200 496Q198 494 195 492Q195 492 197.5 490.5Q200 489 203 487Q205 485 210.5 482.5Q216 480 222 480Q226 479 231 476Q236 473 240 472Q249 471 260 471Q271 471 281 467Q285 465 290 463Q295 461 299 459ZM82 542Q82 537 83 534Q84 531 84 531Q87 531 90 531Q93 531 95 532Q100 534 105 537Q110 540 116 539Q120 539 124 539Q128 539 131 539Q135 539 136.5 540.5Q138 542 138 546Q138 551 137.5 555.5Q137 560 135 565Q133 570 133.5 575.5Q134 581 134 586Q134 592 138 598.5Q142 605 150 611Q155 617 155 619.5Q155 622 150 627Q148 629 144.5 630Q141 631 138 633Q135 634 127.5 637.5Q120 641 119 641Q111 638 104 631.5Q97 625 92 625Q86 623 84 619.5Q82 616 82 610Q82 608 82.5 605Q83 602 82 601Q76 596 77.5 590Q79 584 78 576Q83 566 82.5 556.5Q82 547 82 542ZM211 511Q208 515 205.5 517Q203 519 201 522Q198 530 204 537Q210 544 217 543Q221 543 224.5 543Q228 543 232 543Q235 543 236 542Q237 541 237 538Q237 534 237.5 530.5Q238 527 241 524Q244 521 248 518.5Q252 516 257 519Q260 520 262.5 524Q265 528 268 531Q268 532 270.5 533Q273 534 274 533Q275 532 276.5 530.5Q278 529 279 528Q282 527 285 527Q288 527 291 527Q291 527 291.5 528Q292 529 293 533Q293 537 293 540.5Q293 544 293 548Q292 549 290.5 551Q289 553 288 553Q280 553 272 553Q264 553 257 553Q245 552 244 555Q243 558 234 557Q223 557 212.5 558Q202 559 192 554Q188 552 184.5 551Q181 550 179 547Q177 544 175.5 540Q174 536 174 532Q174 529 175.5 526Q177 523 178 520Q179 512 184.5 510Q190 508 194 506Q197 504 201.5 505Q206 506 210 506Q210 506 212.5 507Q215 508 211 511ZM380 318Q380 320 380.5 321.5Q381 323 380 325Q380 325 378.5 326Q377 327 377 327Q373 324 369.5 321.5Q366 319 362 317Q362 316 361 315.5Q360 315 360 315Q354 314 351.5 311Q349 308 350 303Q351 298 352 293.5Q353 289 354 285Q355 285 355.5 284.5Q356 284 356 284Q359 279 364 279Q369 279 373 280Q375 280 377 282Q379 284 380 286Q381 287 380.5 289Q380 291 379 293Q379 295 377.5 297Q376 299 377 300Q377 305 378.5 309Q380 313 381 318Q381 318 381 318Q381 318 380 318ZM314 327Q315 326 319 327Q323 328 326 330Q328 331 330.5 332.5Q333 334 334 336Q335 338 333.5 340Q332 342 332 345Q332 348 332 351.5Q332 355 333 359Q333 362 333.5 365Q334 368 334 371Q334 372 331.5 372.5Q329 373 328 373Q326 373 325 371.5Q324 370 323 369Q316 363 312 356.5Q308 350 308 339Q309 333 310.5 330.5Q312 328 314 327ZM452 346Q449 349 446 352Q443 355 439 356Q435 357 430 357Q425 357 421 356Q419 356 416.5 354Q414 352 413 350Q412 349 413 346.5Q414 344 416 342Q417 340 419.5 339Q422 338 425 337Q429 335 432.5 333Q436 331 440 328Q444 330 446 331Q448 332 452 334Q457 337 455.5 340Q454 343 452 346ZM237 502Q237 506 237.5 509Q238 512 237 515Q236 519 233 523Q230 527 230 532Q229 534 227 536.5Q225 539 223 540Q222 541 219.5 540Q217 539 215 537Q213 535 212 532Q211 529 211 526Q211 524 211.5 522.5Q212 521 212 520Q212 519 212 517.5Q212 516 213 515Q215 511 217.5 507.5Q220 504 227 505Q229 504 232 503.5Q235 503 237 502Z" fill="#66783e" />
  </g>
</svg>