<?xml version="1.0" encoding="UTF-8"?>
<svg width="16" height="16" viewBox="0 0 16 16" xmlns="http://www.w3.org/2000/svg">
  <g transform="translate(0.5099999999999998, 14.55375) scale(0.01462890625, -0.01462890625)">
    <path d="M910 302L910 516L1024 516L1024 960L0 960L0 591L149 441L0 292L0 -64L1024 -64L1024 302L910 302ZM650 673L621 545L609 545Q608 571 601.5 590.5Q595 610 583 623Q571 636 555.5 642.5Q540 649 521 649Q501 649 480.5 640Q460 631 439 614Q419 596 401.5 569Q384 542 370 506Q359 477 353 448Q347 419 347 390Q347 364 353.5 344.5Q360 325 372 312Q385 298 402 291.5Q419 285 441 285Q459 285 475 289Q491 293 506 300Q521 308 535.5 320.5Q550 333 565 351L579 351Q561 323 542.5 303.5Q524 284 505 273Q486 262 463 256.5Q440 251 412 251Q376 251 346.5 262Q317 273 295 295Q273 317 261.5 346Q250 375 250 410Q250 444 259 476Q268 508 286 538Q303 568 329 592.5Q355 617 388 636Q421 655 454 664Q487 673 520 673Q533 673 548.5 670.5Q564 668 583 663Q592 660 599 658.5Q606 657 609 657Q617 657 624.5 661Q632 665 639 673L650 673ZM716 375L704 375Q712 415 717.5 455Q723 495 726 535Q730 576 735.5 603.5Q741 631 748 645Q756 659 765.5 666Q775 673 788 673Q794 673 799.5 670.5Q805 668 811 662Q816 656 818.5 649.5Q821 643 821 635Q821 628 819.5 621Q818 614 816 606Q813 598 805 580.5Q797 563 784 535Q763 490 745.5 450Q728 410 716 375ZM688 349Q708 349 722.5 334.5Q737 320 737 300Q737 280 722.5 265.5Q708 251 688 251Q668 251 654 265.5Q640 280 640 300Q640 320 654 334.5Q668 349 688 349Z" fill="#f4bf75" />
  </g>
</svg>