<?xml version="1.0" encoding="UTF-8"?>
<svg width="16" height="16" viewBox="0 0 16 16" xmlns="http://www.w3.org/2000/svg">
  <g transform="translate(0.5083968321917807, 14.55375) scale(0.01462890625, -0.01462890625)">
    <path d="M472 -61Q413 -57 356 -39Q300 -21 248.5 9.5Q197 40 152 84Q107 128 73 185Q-1 308 0 440Q1 572 59 683.5Q117 795 224 871Q332 947 472 957L472 906Q347 895 251 827Q155 758 103.5 658Q52 558 51 440Q51 322 117 212Q148 161 187 121Q227 82 273 54.5Q319 27 369 11Q420 -5 472 -10L472 -61ZM553 957L553 906Q675 895 770 829Q864 762 917 664.5Q970 567 973 450Q976 334 914 224Q884 170 844 128Q804 87 757.5 58Q711 29 659 12Q607 -5 553 -10L553 -61Q613 -57 672 -38Q730 -19 783 13.5Q836 46 881 92Q926 138 959 199Q1028 322 1024 452Q1020 581 961 690Q902 799 796 873Q690 947 553 957ZM329 488L343 524Q281 550 229.5 526.5Q178 503 178 424Q179 398 186.5 374.5Q194 351 211 336Q235 315 273 313.5Q311 312 338 328L338 367Q286 342 255 358Q224 374 226 426Q226 448 233 467.5Q240 487 257 494Q279 504 304 496Q329 488 329 488ZM464 621L419 621L419 318L464 318ZM583 565Q583 565 595.5 567Q608 569 609 590Q609 611 596 613Q583 615 583 615Q583 615 569.5 613Q556 611 557 590Q558 569 570.5 567Q583 565 583 565ZM605 533L559 533L559 292Q559 270 545.5 262.5Q532 255 504 263L504 227Q544 216 575 229.5Q606 243 605 290L605 533ZM827 487L842 521Q791 545 738.5 534.5Q686 524 687 478Q686 423 743.5 414.5Q801 406 800 375Q799 341 750.5 349.5Q702 358 688 366L688 326Q695 321 764 313.5Q833 306 844 367Q855 431 793.5 441Q732 451 732 479Q732 510 775 500.5Q818 491 827 487Z" fill="#46788d" />
  </g>
</svg>