<?xml version="1.0" encoding="UTF-8"?>
<svg width="16" height="16" viewBox="0 0 16 16" xmlns="http://www.w3.org/2000/svg">
  <g transform="translate(0.5099999999999995, 14.553749999999999) scale(0.01462890625, -0.01462890625)">
    <path d="M227 505L227 735L455 735Q448 825 403 877Q358 930 298.5 949Q239 968 176 954Q112 941 70 900Q26 857 9 793Q-9 729 7.5 667.5Q24 606 77 559Q130 513 227 505ZM954 900Q912 941 848 954Q785 968 725.5 949Q666 930 621 877Q576 825 569 735L797 735L797 505Q894 513 947 559Q1000 606 1016.5 667.5Q1033 729 1015 793Q998 857 954 900ZM70 -4Q112 -45 176 -58Q239 -72 298.5 -53Q358 -34 403 19Q448 71 455 161L227 161L227 391Q130 383 77 337Q24 290 7.5 228.5Q-9 167 9 103Q26 39 70 -4ZM797 391L797 161L569 161Q576 71 621 19Q666 -34 725.5 -53Q785 -72 848 -58Q912 -45 954 -4Q998 39 1015 103Q1033 167 1016.5 228.5Q1000 290 947 337Q894 383 797 391Z" fill="#6a9fb5" />
  </g>
</svg>