<?xml version="1.0" encoding="UTF-8"?>
<svg width="16" height="16" viewBox="0 0 16 16" xmlns="http://www.w3.org/2000/svg">
  <g transform="translate(2.9969140625, 14.55375) scale(0.01462890625, -0.01462890625)">
    <path d="M456 137Q456 121 423 106.5Q390 92 343 92Q296 92 262.5 106.5Q229 121 229 137Q229 149 248.5 158.5Q268 168 299 173Q300 190 301 224Q302 259 303 294.5Q304 330 305 356Q305 382 305 382Q304 434 283 478Q262 522 234 545Q210 564 197 590Q184 616 184 646Q184 702 230.5 742Q277 782 343 782Q408 782 454.5 742Q501 702 502 646Q502 616 488.5 590Q475 564 452 545Q423 522 402.5 478Q382 434 380 382Q380 382 380 353Q380 324 380.5 287Q381 250 383 216Q384 182 387 173Q417 168 436.5 158.5Q456 149 456 137ZM0 109Q1 119 4.5 128Q8 137 13 147Q34 150 72 166.5Q110 183 80 207Q90 213 102.5 219Q115 225 126 229Q159 228 182 232Q205 236 224 245Q228 248 230.5 251.5Q233 255 233 258Q241 259 249.5 260Q258 261 266 263Q272 237 265.5 225Q259 213 245 209Q213 199 190.5 184Q168 169 161 151Q147 113 199 81.5Q251 50 341 50Q431 50 483.5 81.5Q536 113 522 151Q515 169 493 183.5Q471 198 441 208Q422 213 417 225.5Q412 238 418 263Q429 261 440.5 259.5Q452 258 462 256Q464 248 469 244.5Q474 241 480 237Q503 229 525.5 226.5Q548 224 567 226Q579 221 590 215.5Q601 210 612 203Q573 179 615.5 161Q658 143 675 140Q679 131 681.5 121.5Q684 112 684 102Q665 101 646 96Q627 91 615 76Q605 56 614.5 41.5Q624 27 637 18Q622 6 607 -3Q592 -12 575 -19Q537 -1 472.5 -4Q408 -7 385 -63Q359 -64 332 -64Q305 -64 277 -61Q258 -7 197 -2Q136 3 93 -13Q79 -5 63.5 5Q48 15 37 26Q49 35 57 45.5Q65 56 67 69Q63 93 40 100.5Q17 108 0 109ZM560 647Q560 691 543 730Q526 769 496.5 798.5Q467 828 427 845Q388 862 342 862Q297 862 257 845Q217 828 187.5 798.5Q158 769 141 730Q124 691 124 647Q124 609 137 573Q150 537 175 508Q208 475 223.5 435Q239 395 237 351Q190 367 151 396Q112 425 84.5 464Q57 503 41 549Q26 595 26 645Q25 707 49 763Q72 819 112.5 861.5Q153 904 208 931Q262 957 324 960Q333 960 342 960Q351 960 360 960Q422 957 477 931Q531 904 571.5 861.5Q612 819 635 763Q659 707 658 645Q658 595 643 549Q627 503 599.5 464Q572 425 533 396Q494 367 447 351Q447 351 448 395.5Q449 440 508 507Q533 537 546.5 573Q560 609 560 647Z" fill="#6a9fb5" />
  </g>
</svg>