<?xml version="1.0" encoding="UTF-8"?>
<svg width="16" height="16" viewBox="0 0 16 16" xmlns="http://www.w3.org/2000/svg">
  <g transform="translate(0.020000000000000462, 14.984966129351266) scale(0.015585937499999999, -0.015585937499999999)">
    <path d="M255 891Q128 817 64 697Q0 577 0 448Q0 319 64 199Q128 79 255 5Q383 -69 519 -64Q655 -59 767.5 5.5Q880 70 952 185Q1024 301 1024 448Q1024 595 952 711Q880 826 767.5 890.5Q655 955 519 960Q383 965 255 891ZM52 499Q66 548 92 584Q118 620 153 642.5Q188 665 230 672Q273 679 318 670Q220 577 217 470Q213 363 270 282Q327 201 429 167Q530 133 643 185Q719 162 777.5 166Q836 170 890 183Q778 33 626 -1Q474 -34 340.5 19.5Q207 73 120 200Q34 327 52 499ZM520 495Q492 598 463 639Q434 680 434 680Q524 710 603 674Q682 637 723 567Q764 497 754 410Q744 323 656 251Q636 252 616 276Q596 299 578.5 334.5Q561 370 545 413Q530 455 520 495ZM589 216Q547 203 506.5 204Q466 205 427 219Q419 261 441.5 319.5Q464 378 492 440Q511 372 532 309.5Q553 247 589 216ZM477 485Q435 399 407 348Q379 297 368 250Q322 280 296 330Q270 380 267.5 436.5Q265 493 290 549Q314 606 371 648Q406 630 432 584.5Q458 539 477 485ZM907 283L907 283Q876 257 837 247Q798 237 759 237Q748 236 737.5 237Q727 238 718 239Q799 320 803 423Q808 526 756.5 607.5Q705 689 609 727Q513 765 393 717Q332 756 262 754.5Q192 753 136 718Q181 782 247 827Q312 873 389.5 894.5Q467 916 551 909Q636 902 721 860Q810 816 870 737Q930 659 956 573Q982 487 971 407Q960 328 907 283Z" fill="#be2f31" />
  </g>
</svg>