<?xml version="1.0" encoding="UTF-8"?>
<svg width="16" height="16" viewBox="0 0 16 16" xmlns="http://www.w3.org/2000/svg">
  <g transform="translate(0.6901953125000002, 14.9825) scale(0.015585937499999999, -0.015585937499999999)">
    <path d="M489 386L820 386L820 55L489 55L489 386ZM828 841L538 841L538 618L406 883L199 469L613 469L571 552L828 552L828 841ZM304 841L119 483L119 841ZM0 960L0 670L41 670L41 919L290 919L290 960L0 960ZM649 960L649 919L897 919L897 670L938 670L938 960L649 960ZM897 226L897 -23L649 -23L649 -64L938 -64L938 226L897 226ZM395 158Q424 210 422 264Q420 319 394 364.5Q368 410 321 439Q275 468 215 468Q156 468 109 439Q62 410 36 365Q10 320 8 265Q6 210 36 158Q66 107 115 81Q163 55 215.5 55Q268 55 316 81Q365 107 395 158Z" fill="#46788d" />
  </g>
</svg>