<?xml version="1.0" encoding="UTF-8"?>
<svg width="16" height="16" viewBox="0 0 16 16" xmlns="http://www.w3.org/2000/svg">
  <g transform="translate(0.05118686147836454, 14.9825) scale(0.015585937499999999, -0.015585937499999999)">
    <path d="M209 379Q209 379 170.5 355Q132 331 83 373Q26 421 39.5 477.5Q53 534 53 534Q53 534 12.5 486Q-28 438 27 339Q82 239 156 254Q230 269 230 269Q222 239 224 239Q226 239 210 221Q230 175 218 159.5Q206 144 210 126Q212 119 218.5 116.5Q225 114 225 114Q232 99 240 97Q248 95 265 102Q282 94 293 95.5Q304 97 316 114Q326 113 335 114.5Q344 116 346 132L311 163L309 211Q325 232 345.5 261.5Q366 291 359 334Q392 353 406 323.5Q420 294 457 296Q455 279 455 264Q455 249 460 238Q480 223 482 205.5Q484 188 500 169Q506 161 515.5 159Q525 157 538 149Q558 136 564 117Q570 98 564 83Q559 68 552.5 57.5Q546 47 554 27Q568 28 578 23.5Q588 19 599 7Q612 16 627.5 19.5Q643 23 665 12Q693 17 688 30Q683 43 713 44Q733 72 711 77Q689 82 679 112L697 133Q710 127 722 124.5Q734 122 745 127L746 138Q696 238 724.5 303.5Q753 369 727 463Q739 486 777 480Q815 474 857 465.5Q899 457 934 460Q969 462 977 503Q956 493 937 507Q918 521 896 548Q917 556 949 550Q981 544 997 503Q1019 525 1023.5 553Q1028 581 1000 640Q1019 661 1020.5 691.5Q1022 722 1020 754Q1008 723 996 708Q984 693 960 680Q915 679 878 682.5Q841 686 841 730Q869 765 901.5 793.5Q934 822 937 855Q881 828 842 800Q803 772 783 748L775 761Q803 793 807.5 824.5Q812 856 803 889Q795 858 779.5 834Q764 810 739 794Q721 792 713 808.5Q705 825 700 837Q682 827 671 835.5Q660 844 649 857Q629 844 612 840.5Q595 837 573 839Q561 824 541 821Q521 818 502 817Q511 792 495.5 778.5Q480 765 455 756L483 728Q438 703 420 675Q402 647 366 625Q275 605 232 544.5Q189 484 209 379ZM607 245L600 306L623 313L628 227L607 245Z" fill="#46788d" />
  </g>
</svg>