<?xml version="1.0" encoding="UTF-8"?>
<svg width="16" height="16" viewBox="0 0 16 16" xmlns="http://www.w3.org/2000/svg">
  <g transform="translate(0.5099999999999998, 14.55375) scale(0.01462890625, -0.01462890625)">
    <path d="M996 950L28 950Q17 950 8.5 941.5Q0 933 0 922L0 -26Q0 -37 8.5 -45.5Q17 -54 28 -54L996 -54Q1007 -54 1015.5 -45.5Q1024 -37 1024 -26L1024 922Q1024 933 1015.5 941.5Q1007 950 996 950ZM367 152Q317 155 269 174Q220 193 181 228Q142 263 116 314Q90 365 86 432Q77 579 161 658Q245 738 352.5 748.5Q460 759 557 701Q654 642 671 514L534 514Q521 579 470 608Q420 637 364.5 628.5Q309 620 265 574Q220 529 220 446Q220 377 260 333Q300 289 353 276.5Q406 264 458 287Q510 309 534 372L674 372Q664 318 635 276Q606 233 564.5 204.5Q523 176 472 162Q421 148 367 152ZM815 169L729 205L834 449L730 695L816 732L936 447L815 169Z" fill="#ac4142" />
  </g>
</svg>