<?xml version="1.0" encoding="UTF-8"?>
<svg width="16" height="16" viewBox="0 0 16 16" xmlns="http://www.w3.org/2000/svg">
  <g transform="translate(0.5099999999999998, 14.55375) scale(0.01462890625, -0.01462890625)">
    <path d="M166 541Q184 610 227.5 666Q271 722 333 758L256 891Q212 865 174 832Q136 799 105.5 759.5Q75 720 53 675Q31 630 17 581L166 541ZM419 794Q442 800 465 803Q488 806 512 806L512 959Q478 959 445 955Q412 951 379 942L419 794ZM605 794Q674 775 730 732Q786 689 822 627L955 704Q929 748 896 786Q863 823 823.5 853.5Q784 884 739 906Q694 929 645 942L605 794ZM0 448Q0 415 4.5 381.5Q9 348 17 316L165 356Q159 378 156 401.5Q153 425 153 448ZM69 192Q85 163 105.5 136.5Q126 110 150 87L259 195Q242 212 228 230.5Q214 249 202 269L69 192ZM256 5Q314 -29 379 -46Q444 -63 511 -63L511 90Q464 90 418.5 102Q373 114 333 138L256 5ZM822 269Q786 207 729.5 164Q673 121 604 102L644 -46Q693 -33 738 -11Q783 12 822.5 42Q862 72 896 110Q929 148 955 192L822 269ZM1006 311Q1024 376 1024 443.5Q1024 511 1007 576L858 537Q871 491 871 444Q871 397 858 351L1006 311Z" fill="#46788d" />
  </g>
</svg>