<?xml version="1.0" encoding="UTF-8"?>
<svg width="16" height="16" viewBox="0 0 16 16" xmlns="http://www.w3.org/2000/svg">
  <g transform="translate(1.6217968750000002, 14.55375) scale(0.01462890625, -0.01462890625)">
    <path d="M851 728L634 942Q625 951 613.5 955.5Q602 960 590 960L63 960Q37 960 18.5 941.5Q0 923 0 897L0 -1Q0 -27 18.5 -45.5Q37 -64 63 -64L807 -64Q833 -64 852.5 -45.5Q872 -27 872 -1L872 683Q872 696 866 708Q860 720 851 728ZM796 666L585 666L585 885L796 666ZM75 11L75 885L511 885L511 669Q511 637 533.5 614.5Q556 592 588 592L796 592L796 11L75 11ZM340 491L230 341L339 186L277 143L137 342L280 536L340 491ZM595 536L740 342L595 143L535 187L647 341L535 491L595 536ZM440 601L514 589L430 83L356 95L440 601Z" fill="#7f7f7f" />
  </g>
</svg>