<?xml version="1.0" encoding="UTF-8"?>
<svg width="16" height="16" viewBox="0 0 16 16" xmlns="http://www.w3.org/2000/svg">
  <g transform="translate(0.5099999999999998, 14.556064700356014) scale(0.01462890625, -0.01462890625)">
    <path d="M521 657Q516 659 510.5 659Q505 659 500 657Q452 640 415.5 621Q379 602 346 579L346 661Q346 666 348.5 668Q351 670 354 672Q419 698 493 703Q567 708 660 677Q676 671 678.5 667.5Q681 664 681 647L681 578Q644 603 606.5 622.5Q569 642 521 657ZM575 828Q587 823 589.5 819Q592 815 592 803L592 740Q592 736 590.5 734Q589 732 584 733Q548 741 511.5 741Q475 741 439 733Q434 732 433.5 733.5Q433 735 433 739L433 808Q432 815 435 819Q438 823 443 825Q476 840 508 840Q540 840 575 828ZM716 493Q719 497 719 499Q719 501 716 504Q672 541 623.5 570Q575 599 521 616Q517 618 513 618Q509 618 504 616Q450 597 401 569Q352 541 308 504Q305 501 305 499Q305 497 308 494Q337 462 358 422Q379 382 389 343Q321 397 253 394Q185 391 124 335Q167 200 271 125Q375 50 494.5 44Q614 38 726 104Q838 170 895 318Q896 322 895.5 324.5Q895 327 891 329Q847 360 793.5 389Q740 418 719 409Q695 403 664.5 368Q634 333 630 336Q642 377 663.5 418Q685 459 716 493ZM531 480Q530 418 523.5 361Q517 304 512 271Q502 333 496 388.5Q490 444 491 489Q491 500 498 525.5Q505 551 512 583Q518 552 525 526.5Q532 501 531 480ZM255 5Q128 79 64 199Q0 319 0 448Q0 577 64 697Q128 817 255 891Q383 965 519 960Q655 955 767.5 890.5Q880 826 952 711Q1024 595 1024 448Q1024 301 952 185Q880 70 767.5 5.5Q655 -59 519 -64Q383 -69 255 5ZM968 448Q968 579 904 682Q839 785 739.5 842.5Q640 900 518 904Q397 908 283 843Q170 777 113 670Q56 563 56 448Q56 333 113 226Q170 119 283 53Q397 -12 518 -8Q640 -4 739.5 53.5Q839 111 904 214Q968 317 968 448Z" fill="#46788d" />
  </g>
</svg>