<?xml version="1.0" encoding="UTF-8"?>
<svg width="16" height="16" viewBox="0 0 16 16" xmlns="http://www.w3.org/2000/svg">
  <g transform="translate(0.5099999999999998, 14.556064700356012) scale(0.01462890625, -0.01462890625)">
    <path d="M255 891Q128 817 64 697Q0 577 0 448Q0 319 64 199Q128 79 255 5Q383 -69 519 -64Q655 -59 767.5 5.5Q880 70 952 185Q1024 301 1024 448Q1024 595 952 711Q880 826 767.5 890.5Q655 955 519 960Q383 965 255 891ZM257 424L463 219Q502 175 461.5 137.5Q421 100 382 138L112 408Q95 425 95 448.5Q95 472 112 488L382 758Q424 797 463 758Q502 719 463 677L257 472Q247 462 247 448Q247 434 257 424ZM638 138Q595 99 556.5 140Q518 181 557 219L762 424Q772 434 772 448.5Q772 463 762 473L557 678Q517 717 557.5 757.5Q598 798 638 759L907 489Q924 472 924 448.5Q924 425 907 408L638 138Z" fill="#ffffff" />
  </g>
</svg>