<?xml version="1.0" encoding="UTF-8"?>
<svg width="16" height="16" viewBox="0 0 16 16" xmlns="http://www.w3.org/2000/svg">
  <g transform="translate(1.1461344202553345, 14.553963560675182) scale(0.01462890625, -0.01462890625)">
    <path d="M696 -64L743 12Q623 14 560 85Q496 157 491.5 245Q487 333 543 410Q599 487 718 500Q785 499 822 483.5Q859 468 934 415Q947 692 796 827Q645 962 463 960Q281 958 133 820Q-16 682 2 414Q22 426 46 443.5Q70 461 82 467Q140 500 216.5 499.5Q293 499 369 434Q377 452 387.5 469Q398 486 411 502Q375 531 337 548Q298 566 256.5 573Q215 580 172 576Q129 572 85 556Q116 719 229 800Q342 881 470.5 880.5Q599 880 710 798Q822 717 851 556Q782 580 720 578Q658 576 606.5 555Q555 534 515 496Q475 459 450 412Q417 350 412 274Q407 199 435.5 130Q464 61 528 8Q592 -45 696 -64Z" fill="#cc00a3" />
  </g>
</svg>