<?xml version="1.0" encoding="UTF-8"?>
<svg width="16" height="16" viewBox="0 0 16 16" xmlns="http://www.w3.org/2000/svg">
  <g transform="translate(0.75, 12.5) scale(0.0078125, -0.0078125)">
    <path d="M1608 760Q1608 760 1636 788Q1664 816 1664 896Q1664 976 1608 1032Q1552 1088 1472 1088L1408 1088L1408 704L1472 704Q1552 704 1608 760ZM0 128L1792 128Q1792 22 1717 -53Q1642 -128 1536 -128L256 -128Q150 -128 75 -53Q0 22 0 128ZM1743.5 1167.5Q1743.5 1167.5 1799.75 1111.25Q1856 1055 1856 896Q1856 737 1743.5 624.5Q1631 512 1472 512L1408 512L1408 480Q1408 388 1342 322Q1276 256 1184 256L480 256Q388 256 322 322Q256 388 256 480L256 1216Q256 1242 275 1261Q294 1280 320 1280L1472 1280Q1631 1280 1743.5 1167.5Z" fill="#be7953" />
  </g>
</svg>