<?xml version="1.0" encoding="UTF-8"?>
<svg width="16" height="16" viewBox="0 0 16 16" xmlns="http://www.w3.org/2000/svg">
  <g transform="translate(1, 14.125402113970587) scale(0.013671875, -0.013671875)">
    <path d="M1024 960Q688 936 487 881Q286 825 178.5 749Q71 673 36 582Q2 490 0 394Q7 221 93 113Q179 4 298.5 -38Q418 -80 549 -54Q679 -28 774 68Q840 134 887 250Q934 366 963.5 495Q993 624 1008 749Q1022 874 1024 960ZM427 456Q436 677 454 660.5Q472 644 481 456Q618 574 627 566Q636 558 511 417Q789 406 717 388Q645 370 514 366Q633 230 628.5 218Q624 206 481 331Q465 103 451.5 122Q438 141 426 332Q286 208 278 218Q270 228 394 365Q181 374 183.5 391.5Q186 409 389 419Q280 545 280 564.5Q280 584 427 456Z" fill="#ac4142" />
  </g>
</svg>