<?xml version="1.0" encoding="UTF-8"?>
<svg width="16" height="16" viewBox="0 0 16 16" xmlns="http://www.w3.org/2000/svg">
  <g transform="translate(0.020000000000000462, 14.9825) scale(0.015585937499999999, -0.015585937499999999)">
    <path d="M1004 497L911 590L792 472Q804 420 773.5 389.5Q743 359 691 372L579 261Q591 230 575.5 198Q560 166 524 157Q481 147 450 179.5Q419 212 431 256Q442 290 474 304Q506 318 537 305L645 413L363 413Q350 383 317.5 371.5Q285 360 253 378Q214 400 214 445Q214 490 253 513Q285 531 318.5 518.5Q352 506 365 475L646 475Q659 505 689.5 517.5Q720 530 750 517L868 633L561 940Q541 960 512 960Q483 960 463 940L20 497Q0 477 0 448Q0 419 20 399L463 -44Q483 -64 512 -64Q541 -64 561 -44L1004 399Q1024 419 1024 448Q1024 477 1004 497ZM529 591L611 721L529 721L529 757L657 757L657 721L577 594L663 594L663 558L529 558L529 591ZM433 759Q465 759 482.5 747.5Q500 736 499 701L460 701Q460 712 454 717.5Q448 723 437 723Q423 723 408 708Q393 693 393 657Q393 591 436 593.5Q479 596 491 604L501 566Q499 564 425 556Q351 548 351 656Q351 725 383.5 742Q416 759 433 759Z" fill="#825078" />
  </g>
</svg>