<?xml version="1.0" encoding="UTF-8"?>
<svg width="16" height="16" viewBox="0 0 16 16" xmlns="http://www.w3.org/2000/svg">
  <g transform="translate(0.5099999999999998, 14.55375) scale(0.01462890625, -0.01462890625)">
    <path d="M1024 -64L0 -64L0 960L1024 960ZM665 301L934 301L934 342L665 342Q665 342 665 321.5Q665 301 665 301ZM775 258L694 140L740 140L799 217L858 140L904 140L823 258L775 258ZM302 464Q298 506 271.5 528.5Q245 551 200 551Q147 551 118.5 521.5Q90 492 90 437L90 409Q90 355 118.5 325.5Q147 296 200 296Q245 296 271.5 318Q298 340 302 381L252 381Q248 361 234.5 350Q221 339 199 339Q172 339 157.5 358.5Q143 378 143 414L143 433Q143 469 157.5 488Q172 507 199 507Q221 507 234.5 496Q248 485 252 464ZM568 301L568 342L492 342L492 640L363 640L363 598L440 598L440 342L360 342L360 301L568 301Z" fill="#6a9fb5" />
  </g>
</svg>