<?xml version="1.0" encoding="UTF-8"?>
<svg width="16" height="16" viewBox="0 0 16 16" xmlns="http://www.w3.org/2000/svg">
  <g transform="translate(0.8097640625000004, 15.000432942708333) scale(0.016542968749999998, -0.016542968749999998)">
    <path d="M744 146Q741 150 745.5 170.5Q750 191 755 200Q757 206 760.5 217.5Q764 229 766 240Q773 281 781 314Q789 347 799 370Q819 418 823 433Q827 448 824 461Q823 467 822 474.5Q821 482 822 486Q823 490 822.5 495Q822 500 821 503Q819 508 819.5 511Q820 514 821 516Q824 519 822 523Q820 527 812 537Q806 543 802.5 548Q799 553 799 553Q800 553 803.5 555Q807 557 812 559L823 564L826 607Q827 625 828 637.5Q829 650 829 650Q828 650 819 647.5Q810 645 797 641Q785 637 774.5 634Q764 631 762 631Q759 631 755 640Q751 649 740 677Q734 696 732 704.5Q730 713 731 725Q733 741 728 772.5Q723 804 716 825Q707 854 690 890Q673 926 663 931Q655 935 649 934Q643 933 640 928Q637 922 638.5 916Q640 910 651 884L663 858L643 873Q610 899 580 915Q550 931 532 933Q521 935 518.5 934Q516 933 513 925Q511 921 508.5 918Q506 915 504 914Q501 913 499.5 910Q498 907 498 901Q498 892 503 885.5Q508 879 531 858Q544 845 552.5 836Q561 827 560 827Q559 827 551 831.5Q543 836 533 843Q518 853 511 856.5Q504 860 495 860Q475 860 475.5 848.5Q476 837 496 822Q503 817 515.5 806Q528 795 538 784L563 759L541 755Q515 750 503 746.5Q491 743 488 738Q483 728 489 723.5Q495 719 523 710Q537 705 549.5 699.5Q562 694 565 691Q575 682 587 675.5Q599 669 611 664Q620 662 625 658.5Q630 655 632 652Q633 649 636 645.5Q639 642 642 641Q646 639 649 634.5Q652 630 655 620Q657 613 658 607Q659 601 659 600Q658 600 649.5 597Q641 594 630 591L603 582L626 541Q642 512 646.5 506Q651 500 657 501Q665 501 665.5 499.5Q666 498 659 487L652 475L659 462Q663 455 664 449.5Q665 444 664 441Q663 437 661.5 438Q660 439 655 450Q649 463 635 481.5Q621 500 610 508Q593 522 581.5 526.5Q570 531 547 531L518 532L503 546Q497 552 487.5 559Q478 566 470 570Q457 576 449 577.5Q441 579 412 579L373 579L343 563Q314 548 286 520.5Q258 493 239 462Q232 450 227 442.5Q222 435 222 437Q222 438 221 442.5Q220 447 220 453Q218 463 218.5 464.5Q219 466 227 467Q233 468 235.5 472Q238 476 243 497Q246 508 248.5 518.5Q251 529 252 532Q254 537 250 539Q246 541 226 546Q209 550 203 552.5Q197 555 197 558Q197 565 202 581.5Q207 598 211 602Q213 605 214.5 608Q216 611 217 614Q217 616 221.5 620.5Q226 625 232 628Q249 637 255 645Q261 653 279 686Q291 711 300 724.5Q309 738 323 752Q332 763 339 771Q346 779 346 780Q346 784 339 791.5Q332 799 328 799L453 887L439 904Q439 904 411 885Q383 865 349.5 842Q316 819 288 800Q260 780 260 780Q259 780 256.5 786.5Q254 793 252 801L245 822L267 842Q284 859 288.5 867Q293 875 289 880Q287 883 280.5 881Q274 879 256 870Q244 864 228 857.5Q212 851 201 848Q182 842 177.5 841.5Q173 841 169 845Q159 854 149 845.5Q139 837 114 799Q109 791 105 785.5Q101 780 100 780Q99 780 93.5 788Q88 796 82 808Q75 820 68.5 830Q62 840 60 843Q53 850 47.5 849.5Q42 849 41 842Q38 833 47.5 793.5Q57 754 74 702Q80 685 80.5 681.5Q81 678 77 676Q73 674 72.5 671.5Q72 669 74 663Q76 658 78.5 656Q81 654 84 655Q87 656 90 652.5Q93 649 98 637Q105 622 105.5 617Q106 612 103 598Q100 590 98.5 584.5Q97 579 97 578Q97 578 92 579Q87 580 80 582Q58 588 55 584Q52 580 49 545Q47 528 46 514Q45 500 45 498Q45 495 48.5 493.5Q52 492 60 490L74 488L72 469Q70 458 71 453Q72 448 75 445Q79 440 80.5 407Q82 374 83 281L83 236L95 232Q106 228 112 223Q118 218 118 212Q118 209 121.5 204.5Q125 200 131 196Q137 192 155 178.5Q173 165 193 151Q215 135 224.5 127Q234 119 237 115Q261 99 294 78Q328 57 359 38.5Q390 20 412 7Q434 -6 434 -6L428 -18Q422 -31 414 -58Q406 -85 408 -88L545 -3L744 146Z" fill="#46788d" />
  </g>
</svg>