<?xml version="1.0" encoding="UTF-8"?>
<svg width="16" height="16" viewBox="0 0 16 16" xmlns="http://www.w3.org/2000/svg">
  <g transform="translate(-0.46999999999999886, 15.411249999999999) scale(0.016542968749999998, -0.016542968749999998)">
    <path d="M497 93L497 53L392 53L357 174Q339 179 320.5 186Q302 193 285 203L166 133L95 204L160 324Q150 340 143 357.5Q136 375 130 393L0 429L0 529L130 567Q135 585 142 602.5Q149 620 158 637L92 755L163 826L282 759Q299 768 316.5 775Q334 782 351 787L388 921L488 921L526 784Q542 779 558 772.5Q574 766 589 757L714 829L785 758L714 632Q721 619 727 605Q733 591 737 576Q712 576 677.5 571.5Q643 567 614 554Q598 593 568 621Q538 649 500 663Q462 677 420 674Q378 672 338 649Q290 621 266 576Q242 530 242 481.5Q242 433 266 387Q290 342 338 314Q359 303 380 296.5Q401 290 423 289Q419 198 434.5 159.5Q450 121 497 93ZM672 268Q638 268 614 243.5Q590 219 590 187L590 127L545 127Q516 127 499 145.5Q482 164 475 193Q465 232 465.5 260.5Q466 289 475 327Q483 359 505.5 376Q528 393 557 393L737 393L737 416L606 416L606 467Q606 496 618 508.5Q630 521 672 528Q704 534 736.5 533.5Q769 533 803 528Q830 524 849.5 505.5Q869 487 869 460L869 335Q869 307 849.5 287.5Q830 268 803 268L672 268ZM707 472Q707 490 692 498.5Q677 507 662 498Q647 490 647 472Q647 454 662 446Q677 437 692 445.5Q707 454 707 472ZM1015 182Q1007 149 984 132Q961 115 933 115L752 115L752 95L883 95L883 41Q883 13 871 0.5Q859 -12 818 -19Q786 -25 753 -25Q720 -25 687 -19Q660 -15 640.5 3.5Q621 22 621 49L621 174Q621 201 640 220.5Q659 240 687 240L818 240Q851 240 875.5 265Q900 290 900 322L900 382L945 382Q974 382 991 363.5Q1008 345 1015 315Q1024 276 1024 248Q1024 220 1015 182ZM783 37Q783 19 798 10.5Q813 2 828 10Q843 19 843 36.5Q843 54 828 63Q813 72 798 63Q783 54 783 37Z" fill="#46788d" />
  </g>
</svg>