<?xml version="1.0" encoding="UTF-8"?>
<svg width="16" height="16" viewBox="0 0 16 16" xmlns="http://www.w3.org/2000/svg">
  <g transform="translate(-0.46999999999999886, 15.411249999999999) scale(0.016542968749999998, -0.016542968749999998)">
    <path d="M370 17L524 248L370 479L485 479L639 248L485 17L370 17ZM524 17L678 248L524 479L639 479L947 17L832 17L735 161L639 17L524 17ZM896 152L844 229L1024 229L1024 152L896 152ZM819 267L767 344L1024 344L1024 267ZM338 607Q376 629 417 632Q457 635 494 623Q531 611 561 585Q591 560 609 524L740 524Q736 542 729 558.5Q722 575 714 590L785 716L714 787L589 715Q574 724 558 731Q542 738 526 743L488 879L388 879L351 745Q334 741 316.5 733.5Q299 726 282 717L163 784L92 713L158 595Q149 579 142 561Q135 543 130 525L0 487L0 387L130 352Q136 334 143 316.5Q150 299 160 282L95 162L166 91L285 161Q298 154 326 143Q354 132 381 124L463 248Q387 237 332 277Q276 316 254 376Q232 436 250 501Q268 567 338 607Z" fill="#aa759f" />
  </g>
</svg>