<?xml version="1.0" encoding="UTF-8"?>
<svg width="16" height="16" viewBox="0 0 16 16" xmlns="http://www.w3.org/2000/svg">
  <g transform="translate(-0.4720969960387347, 15.40259379542151) scale(0.016542968749999998, -0.016542968749999998)">
    <path d="M388 301Q354 239 388 192Q422 145 497 117L497 60L392 60L357 182Q339 187 320.5 194Q302 201 285 210L166 141L95 211L160 331Q150 348 143 365.5Q136 383 130 401L0 436L0 536L130 575Q135 593 142 610.5Q149 628 158 644L92 762L163 833L282 766Q299 776 316.5 783Q334 790 351 795L388 928L488 928L526 792Q542 787 558 780Q574 773 589 765L714 836L785 765L714 639Q727 614 736.5 586Q746 558 749 528L624 528Q615 575 585 610Q556 645 515.5 664Q475 683 428 682Q382 681 338 656Q278 622 257 566Q236 510 245.5 454.5Q255 399 293 356Q330 312 388 301ZM686 198Q659 213 659 244.5Q659 276 686 292Q713 308 740 292Q767 276 767 245Q767 213 740 197.5Q713 182 686 198ZM894 140Q922 13 870.5 -23Q819 -59 714 34Q606 -60 555 -23.5Q504 13 533 139Q408 177 403.5 243Q399 309 532 349Q503 485 561 513Q619 541 714 452Q815 545 869 511Q923 477 896 348Q1018 308 1024 247Q1030 186 894 140ZM737 429Q752 414 763 399.5Q774 385 785 369Q806 367 824.5 364Q843 361 864 356Q886 456 851 481Q816 506 737 429ZM574 162Q589 159 596.5 158Q604 157 617 155Q609 169 603 177Q597 185 589 202Q584 189 581.5 182Q579 175 574 162ZM617 332Q604 331 595.5 329.5Q587 328 572 325Q576 312 579 304.5Q582 297 588 283Q597 299 602 308Q607 317 617 332ZM659 152Q688 150 714 149.5Q740 149 768 152Q784 177 797 199Q810 221 820 242Q807 269 794 292Q781 315 766 336Q739 338 714 338Q689 338 662 337Q646 314 633 291Q620 268 607 242Q620 217 632.5 195.5Q645 174 659 152ZM811 156Q824 158 831.5 159Q839 160 853 163Q848 176 845.5 183Q843 190 838 203Q829 187 824.5 178.5Q820 170 811 156ZM839 282Q845 295 847.5 302.5Q850 310 855 324Q841 327 833 328.5Q825 330 811 332Q820 317 825 308Q830 299 839 282ZM713 404Q704 393 699.5 387.5Q695 382 688 372Q705 373 714 373Q723 373 740 372Q732 383 727 388.5Q722 394 713 404ZM563 357Q584 362 602.5 365Q621 368 642 370Q653 386 664.5 400Q676 414 691 429Q609 504 575 481Q541 458 563 357ZM569 243Q560 262 553 279.5Q546 297 540 317Q434 286 437.5 243.5Q441 201 541 170Q547 188 554 206Q561 224 569 243ZM691 58Q677 72 665.5 86.5Q654 101 641 119Q620 121 602 123.5Q584 126 565 130Q537 22 578 4.5Q619 -13 691 58ZM743 117Q725 116 714 116Q703 116 684 117Q693 104 698.5 97.5Q704 91 713 81Q723 91 729 97.5Q735 104 743 117ZM862 131Q842 126 824 123.5Q806 121 787 120Q775 103 763.5 88.5Q752 74 737 58Q814 -16 850.5 7Q887 30 862 131ZM887 316Q880 297 873.5 279.5Q867 262 858 243Q867 224 873.5 207Q880 190 885 171Q998 206 987.5 247.5Q977 289 887 316Z" fill="#6a9fb5" />
  </g>
</svg>