<?xml version="1.0" encoding="UTF-8"?>
<svg width="16" height="16" viewBox="0 0 16 16" xmlns="http://www.w3.org/2000/svg">
  <g transform="translate(-0.46999999999999886, 15.411249999999999) scale(0.016542968749999998, -0.016542968749999998)">
    <path d="M714 616Q727 591 736.5 563Q746 535 749 505L624 505Q615 551 585 587Q556 622 515.5 640.5Q475 659 428 659Q382 658 338 633Q290 605 266 561Q242 516 241.5 468Q241 420 264 375Q287 330 334 301L497 146L497 37L392 37L357 159Q339 163 320.5 170Q302 177 285 187L166 117L95 188L160 308Q150 325 142.5 342Q135 359 130 377L0 413L0 513L130 551Q135 569 142 586.5Q149 604 158 621L92 739L163 810L282 743Q299 752 316.5 759Q334 766 351 771L388 905L488 905L526 768Q542 763 558 756.5Q574 750 589 741L714 813L785 742L714 616ZM824 391L704 391L704 111L904 311L824 391ZM864 471L544 471L383 311L704 -9L1024 311L864 471ZM444 311L564 431L844 431L964 311L704 51L443 311Z" fill="#be2f31" />
  </g>
</svg>