<?xml version="1.0" encoding="UTF-8"?>
<svg width="16" height="16" viewBox="0 0 16 16" xmlns="http://www.w3.org/2000/svg">
  <g transform="translate(-0.4673627151268107, 15.411249999999999) scale(0.016542968749999998, -0.016542968749999998)">
    <path d="M357 157Q339 162 320.5 169Q302 176 285 185L166 116L95 187L160 307Q150 323 143 340.5Q136 358 130 376L0 412L0 512L130 550Q135 568 142 585.5Q149 603 158 620L92 738L163 808L282 742Q299 751 316.5 758Q334 765 351 770L388 904L488 904L526 767Q542 762 558 755Q574 748 589 740L714 811L785 741L714 615Q727 589 736.5 561.5Q746 534 749 503L624 503Q615 550 585 585Q556 621 515.5 639.5Q475 658 428 657Q382 657 338 631Q290 604 266 558Q242 513 242 464Q242 415 266 370Q290 325 338 297Q364 282 392 276Q420 270 447 272L447 113L370 113L357 157ZM1003 70L406 70Q406 35 431 13.5Q456 -8 491 -8L917 -8Q953 -8 978 13.5Q1003 35 1003 70ZM875 209Q877 171 854.5 148.5Q832 126 800 126L566 126Q535 126 513 146.5Q491 167 491 198L491 443Q491 452 497.5 458Q504 464 513 464L896 464Q962 461 994 419Q1026 377 1023.5 329Q1021 281 984 243Q947 205 875 209ZM875 401L875 273Q966 265 960 339Q954 413 875 401Z" fill="#ac4142" />
  </g>
</svg>