<?xml version="1.0" encoding="UTF-8"?>
<svg width="16" height="16" viewBox="0 0 16 16" xmlns="http://www.w3.org/2000/svg">
  <g transform="translate(-0.49294166420990443, 15.554410306490382) scale(0.016542968749999998, -0.016542968749999998)">
    <path d="M286 192L167 123L97 193L161 313Q152 330 144.5 347.5Q137 365 132 383L1 418L1 518L131 556Q136 575 143 592.5Q150 610 160 626L94 744L164 815L283 748Q300 758 317.5 765Q335 772 353 777L389 910L490 910L527 774Q544 769 560 762Q576 755 591 747L715 818L786 747L715 621Q729 596 738 568Q747 540 751 510L626 510Q616 557 587 592Q557 627 517 646Q477 665 430 664Q383 663 340 638Q291 610 267 565Q243 520 243 471Q243 422 267 377Q291 332 340 304Q378 281 408 277.5Q438 274 473 289L473 193L383 139Q383 139 343.5 160.5Q304 182 286 192ZM553 90Q529 82 509 89.5Q489 97 470 132L396 87Q419 31 485 11Q551 -9 609 23Q648 49 658.5 84.5Q669 120 668 202L668 452L577 452L577 166Q578 141 574.5 118.5Q571 96 553 90ZM967 27Q999 45 1015.5 79.5Q1032 114 1022 159Q1014 202 986 226Q957 250 924.5 265.5Q892 281 864 292Q836 303 829 321Q814 371 861 377.5Q908 384 927 339L998 384Q979 421 947 438Q914 455 879 457Q844 459 813 447Q781 435 764 413Q730 374 737.5 317.5Q745 261 787 233Q828 202 876.5 187Q925 172 933 143Q940 108 913.5 95Q887 82 854 87Q829 92 813.5 105Q798 118 783 140L710 98Q728 61 760 39Q792 18 828.5 10Q865 2 902 6Q939 11 967 27Z" fill="#f4bf75" />
  </g>
</svg>