<?xml version="1.0" encoding="UTF-8"?>
<svg width="16" height="16" viewBox="0 0 16 16" xmlns="http://www.w3.org/2000/svg">
  <g transform="translate(1.0616601562500003, 14.9844482421875) scale(0.015585937499999999, -0.015585937499999999)">
    <path d="M465 736Q442 731 427 724.5Q412 718 413 718Q412 729 413 750.5Q414 772 420 798Q438 780 449 762.5Q460 745 465 736ZM357 687Q339 673 328 661Q317 649 317 651Q311 662 301 682Q291 702 284 731Q311 720 329.5 707.5Q348 695 357 687ZM497 770Q488 786 472.5 806Q457 826 434 845Q441 866 453 887Q465 908 481 929Q502 911 517.5 891.5Q533 872 545 852Q526 829 514.5 807.5Q503 786 497 770ZM255 540Q243 548 223.5 565.5Q204 583 185 609Q217 612 243 609Q269 606 283 604Q269 580 262.5 561Q256 542 255 540ZM111 479Q91 493 72.5 513.5Q54 534 39 560Q64 577 90.5 587.5Q117 598 143 604Q161 575 182 554Q203 533 218 520Q198 518 170 508.5Q142 499 111 479ZM244 413Q229 416 201 426.5Q173 437 141 457Q176 478 204 483Q232 488 244 489Q241 471 241 451.5Q241 432 244 413ZM382 830Q373 800 369.5 774Q366 748 366 731Q351 742 328.5 755Q306 768 276 777Q275 798 276 822Q277 846 283 872Q314 865 338 854Q362 843 382 830ZM738 915Q738 915 785.5 887.5Q833 860 870 826Q885 815 887 794Q889 773 876 759Q869 751 827.5 708.5Q786 666 776 659Q758 651 744 655Q730 659 716 671Q703 682 689 691.5Q675 701 659 709Q688 733 715 745.5Q742 758 771 764Q771 803 754.5 859Q738 915 738 915ZM19 592Q32 633 51.5 672.5Q71 712 96 747Q97 716 104.5 689Q112 662 124 638Q97 632 71 620.5Q45 609 19 592ZM274 643Q254 646 225 647.5Q196 649 162 644Q150 667 142.5 693Q135 719 133 749Q163 754 189.5 752Q216 750 239 745Q245 712 255 685.5Q265 659 274 643ZM83 458Q62 441 42.5 418.5Q23 396 7 365Q0 409 0 454.5Q0 500 9 545Q25 518 44 496Q63 474 83 458ZM16 316Q37 358 62 388Q87 418 111 437Q160 403 202 391Q244 379 251 378Q270 301 321 249Q371 198 437 176Q503 154 576 166Q648 177 711 226Q757 262 781.5 236.5Q806 211 861 159L861 159Q871 148 885.5 126.5Q900 105 871 74Q782 -20 652 -49Q522 -79 394 -48Q266 -17 161 75Q55 166 16 316ZM684 906Q701 879 708 850Q715 821 717 804Q702 798 679.5 786Q657 774 633 755Q629 771 622.5 795Q616 819 603 847Q618 863 638 878Q658 893 684 906ZM538 741Q541 751 548.5 767.5Q556 784 568 803Q576 780 580.5 762.5Q585 745 586 734Q574 737 562 738.5Q550 740 538 741ZM578 891Q567 908 552 926Q537 944 519 960Q555 960 588 956.5Q621 953 653 945Q631 933 612.5 919Q594 905 578 891ZM759 180Q684 118 601 102Q518 87 441 109.5Q364 132 301 188Q238 244 202 325Q202 325 179.5 328Q157 331 124 344Q124 344 112 324.5Q100 305 90 270Q153 151 247 85Q340 19 442.5 1.5Q545 -16 647 12Q748 41 827 110Q827 113 795 147.5Q763 182 759 180ZM443 953Q427 933 415.5 913Q404 893 395 873Q376 885 353.5 895Q331 905 304 912Q337 927 372 937Q407 947 443 953ZM134 791Q154 813 181 836Q208 859 242 880Q237 855 235.5 832Q234 809 235 788Q212 792 186.5 793.5Q161 795 134 791Z" fill="#90a959" />
  </g>
</svg>