<?xml version="1.0" encoding="UTF-8"?>
<svg width="16" height="16" viewBox="0 0 16 16" xmlns="http://www.w3.org/2000/svg">
  <g transform="translate(-0.46999999999999886, 15.406654730902776) scale(0.016542968749999998, -0.016542968749999998)">
    <path d="M414 304Q405 239 422 178Q439 117 478 68L392 68L357 189Q339 194 320.5 201Q302 208 285 217L166 148L95 219L160 339Q150 355 143 372.5Q136 390 130 408L0 443L0 544L130 582Q135 600 142 617.5Q149 635 158 652L92 770L163 840L282 773Q299 783 316.5 790Q334 797 351 802L388 935L488 935L526 799Q542 794 558 787Q574 780 589 772L714 843L785 772L714 646Q723 630 730 611.5Q737 593 742 574Q710 576 679 571Q648 566 619 556Q605 598 575 629Q545 660 506 675.5Q467 691 423 689Q379 687 338 663Q282 630 259 574Q235 518 244.5 462Q254 406 296 361Q338 316 414 304ZM514 281Q512 260 513.5 239Q515 218 521 198L583 198L583 336L552 336L560 319Q563 313 560.5 306.5Q558 300 552 298L514 281ZM748 294Q758 294 768.5 298.5Q779 303 779 313Q779 326 767.5 330.5Q756 335 753 335L680 335L680 294ZM883 106Q888 112 893 117.5Q898 123 903 129L812 129Q801 129 792 140.5Q783 152 781 160Q778 167 775 183Q772 199 770 206Q765 227 752.5 231.5Q740 236 736 236L680 236L680 196L732 196Q733 196 734 195.5Q735 195 735 194L735 131Q735 130 734 129.5Q733 129 732 129L555 129Q559 123 564 117.5Q569 112 574 107L610 115Q617 116 622.5 112.5Q628 109 629 103L638 62Q681 42 728 41.5Q775 41 818 61L827 102Q828 108 833.5 112Q839 116 846 114L883 106ZM904 297Q898 299 895.5 305.5Q893 312 896 318L917 365Q893 406 854 433.5Q815 461 769 470L738 441Q734 436 727 436.5Q720 437 716 441L689 470Q654 463 623 445.5Q592 428 568 402L797 402Q801 402 815 399Q829 396 844 386Q854 380 865.5 365.5Q877 351 877 329Q877 309 863 293.5Q849 278 833 268Q846 258 854.5 247.5Q863 237 868 209Q870 204 877.5 200Q885 196 894 197Q903 198 911 204Q919 210 919 228L919 238Q919 239 919.5 240Q920 241 922 241L944 241Q945 251 945 260.5Q945 270 944 279L904 297ZM1020 263Q1024 261 1024 256Q1024 251 1020 248L995 233L995 226L1016 206Q1019 203 1018 198Q1017 193 1013 192L986 181L984 174L1001 151Q1003 147 1001.5 142.5Q1000 138 995 137L967 133L963 126L975 100Q977 96 974.5 92Q972 88 967 88L938 89L933 83L940 55Q941 50 937.5 46.5Q934 43 930 44L901 51L896 47L897 17Q897 13 893 10Q889 7 885 9L858 21L852 18L847 -11Q846 -15 841.5 -17Q837 -19 834 -16L810 1L803 -1L793 -29Q791 -33 786.5 -34Q782 -35 779 -32L759 -10L751 -11L736 -36Q734 -40 729 -39.5Q724 -39 722 -36L706 -11L699 -10L679 -32Q676 -35 671 -34Q666 -33 665 -29L655 -1L648 1L624 -16Q620 -19 615.5 -17Q611 -15 611 -11L606 18L600 21L573 9Q569 7 565 10Q561 13 561 17L562 47L556 51L528 44Q524 43 520.5 46.5Q517 50 518 55L524 83L520 89L491 88Q486 88 483.5 92Q481 96 483 100L495 126L491 133L462 137Q458 138 456 142.5Q454 147 457 151L474 174L472 181L445 192Q440 193 439 198Q438 203 442 206L463 226L462 233L437 248Q434 251 434 256Q434 261 437 263L462 278L463 285L442 305Q438 308 439 313Q440 318 445 320L472 330L474 337L457 360Q454 364 456 368.5Q458 373 462 374L491 379L495 385L483 411Q481 416 483.5 420Q486 424 491 424L520 423L524 428L518 457Q517 461 520.5 464.5Q524 468 528 467L556 460L562 465L561 494Q561 498 565 501Q569 504 573 502L600 490L606 493L611 522Q611 526 615.5 528Q620 530 624 528L648 511L655 513L665 540Q666 544 671 545Q676 546 679 543L699 521L706 522L722 547Q724 551 729 551Q734 551 736 547L751 522L759 521L779 543Q782 546 786.5 545Q791 544 793 540L803 513L810 511L834 528Q837 530 841.5 528Q846 526 847 522L852 493L858 490L885 502Q889 504 893 501Q897 498 897 494L896 465L901 460L930 467Q934 468 937.5 464.5Q941 461 940 457L933 428L938 423L967 424Q972 424 974.5 420Q977 416 975 411L963 385L967 379L995 374Q1000 373 1001.5 368.5Q1003 364 1001 360L984 337L986 330L1013 320Q1017 318 1018 313Q1019 308 1016 305L995 285L995 278L1020 263Z" fill="#8f5536" />
  </g>
</svg>