<?xml version="1.0" encoding="UTF-8"?>
<svg width="16" height="16" viewBox="0 0 16 16" xmlns="http://www.w3.org/2000/svg">
  <g transform="translate(-1.0286689268867928, 15.901250000000001) scale(0.017636718750000002, -0.017636718750000002)">
    <path d="M713 593Q726 568 735.5 540Q745 512 748 481L623 481Q614 528 584 563Q555 599 514.5 617.5Q474 636 428 635Q381 635 338 610Q290 582 266 537Q241 492 241 443Q241 394 265 349Q289 304 337 276Q334 231 360 166.5Q386 102 497 85L497 15L391 15L356 136Q338 141 320 148Q302 155 284 164L166 95L95 165L159 285Q150 302 142.5 319.5Q135 337 130 355L0 390L0 490L129 528Q134 546 141.5 563.5Q149 581 158 598L92 716L163 786L281 720Q298 729 315.5 736Q333 743 351 748L387 881L487 881L525 745Q542 740 557.5 733Q573 726 588 718L713 789L784 719L713 593ZM1022 331Q1012 396 967 429Q922 463 866.5 462.5Q811 462 759 427Q706 392 682 320L534 320L502 247L601 248Q586 223 565.5 209.5Q545 196 515 200Q457 212 455 271.5Q453 331 500 362Q531 385 563.5 375Q596 365 603 344L694 369Q672 430 616 453.5Q560 477 497 456Q457 442 406.5 388.5Q356 335 365 246Q376 154 450.5 124.5Q525 95 592 128Q620 143 643 167Q666 191 681 221Q706 136 783 117Q860 98 927 138Q990 174 1009.5 229.5Q1029 285 1022 331ZM880 209Q839 189 809 205Q779 221 770 254Q762 285 778 324Q794 363 845 375Q920 392 933.5 317Q947 242 880 209Z" fill="#46788d" />
  </g>
</svg>