<?xml version="1.0" encoding="UTF-8"?>
<svg width="16" height="16" viewBox="0 0 16 16" xmlns="http://www.w3.org/2000/svg">
  <g transform="translate(0.5099999999999998, 14.55152828590447) scale(0.01462890625, -0.01462890625)">
    <path d="M1020 427L757 427Q748 519 717.5 584.5Q687 650 611 674L611 266Q556 246 502 247Q448 248 394 272L393 947Q571 955 688 914Q805 873 876 800Q947 727 980 630Q1012 533 1020 427ZM1024 643L1024 947L729 947Q784 927 829 898Q874 868 910.5 830Q947 792 975 745Q1003 698 1024 643ZM1020 381L756 381Q734 282 653 238Q572 194 483.5 201.5Q395 209 325 267Q256 324 257 428L257 947L0 947L2 408Q28 182 176 67Q323 -49 498 -52.5Q673 -56 827 52Q981 160 1020 381Z" fill="#d28445" />
  </g>
</svg>