<?xml version="1.0" encoding="UTF-8"?>
<svg width="16" height="16" viewBox="0 0 16 16" xmlns="http://www.w3.org/2000/svg">
  <g transform="translate(0.9708105468749997, 14.55375) scale(0.01462890625, -0.01462890625)">
    <path d="M445 545Q410 547 362 569Q313 590 284.5 624Q256 658 263 701Q270 743 346 787Q409 823 468 830Q528 837 581.5 824Q635 811 681 781Q727 752 763 713Q763 713 727.5 692.5Q692 672 645 649Q661 687 643 715Q624 744 588 759Q552 774 507 773Q462 773 426 754Q354 714 366.5 655Q379 596 557 600ZM961 251L961 721L471 960L0 733L0 280L485 -64ZM471 936L932 704L471 442L25 718ZM932 676L932 271L748 152L748 569ZM718 549L718 131L485 -16L485 417Z" fill="#46788d" />
  </g>
</svg>