<?xml version="1.0" encoding="UTF-8"?>
<svg width="16" height="16" viewBox="0 0 16 16" xmlns="http://www.w3.org/2000/svg">
  <g transform="translate(1, 14.125) scale(0.013671875, -0.013671875)">
    <path d="M73 9L219 9L219 229L73 229ZM219 887L73 887L73 521L219 521ZM585 887L439 887L439 741L585 741ZM0 302L293 302L293 448L0 448ZM439 9L585 9L585 448L439 448ZM366 521L658 521L658 667L366 667L366 521ZM951 887L805 887L805 448L951 448ZM731 375L731 229L1024 229L1024 375ZM805 9L951 9L951 155L805 155L805 9Z" fill="#d28445" />
  </g>
</svg>