<?xml version="1.0" encoding="UTF-8"?>
<svg width="16" height="16" viewBox="0 0 16 16" xmlns="http://www.w3.org/2000/svg">
  <g transform="translate(-0.4680911959134608, 15.401944580078123) scale(0.016542968749999998, -0.016542968749999998)">
    <path d="M620 536Q607 579 577 611Q547 642 508 658.5Q469 675 424 673Q380 671 338 647Q290 620 266 574Q242 529 242 480Q242 431 266 386Q290 341 338 313Q354 304 370 298.5Q386 293 402 290Q390 261 387.5 228.5Q385 196 394 163L357 173Q339 178 320.5 185Q302 192 285 201L166 132L95 203L160 323Q150 339 143 356.5Q136 374 130 392L0 428L0 528L130 566Q135 584 142 601.5Q149 619 158 636L92 754L163 824L282 758Q299 767 316.5 774Q334 781 351 786L388 920L488 920L526 783Q542 779 557 772.5Q572 766 587 758L724 838L801 761L767 692Q757 705 747 713Q737 721 726 722Q674 722 667.5 692Q661 662 661 662Q664 613 653.5 583.5Q643 554 620 536ZM694 657Q695 661 702 654.5Q709 648 709 641Q709 609 707 585Q705 561 703 544Q698 501 644 450Q590 399 541 325Q516 286 509 246Q503 206 512.5 167Q522 128 546 92Q571 56 609 25Q622 15 646.5 5.5Q671 -4 667 -16Q660 -29 600.5 -4Q541 21 502 70Q476 101 458 146Q439 191 444 243Q449 295 485 351Q522 407 606 461Q621 476 647 491Q673 506 688 549Q691 559 693 590.5Q695 622 694 657ZM715 705Q719 704 723 697.5Q727 691 729 686Q730 679 731 648Q731 617 730.5 581Q730 545 729 512Q727 479 724 467Q720 419 673.5 359.5Q627 300 632 217Q639 119 678.5 74.5Q718 30 713 6Q704 -1 681 18Q658 36 634.5 69Q611 102 593 144Q575 186 576 226Q576 274 595 309Q614 344 638 376.5Q662 409 684 445Q707 481 714 530Q717 565 714.5 625Q712 685 715 705ZM737 15Q717 59 707 105Q698 150 697.5 198.5Q697 247 706 299Q714 352 728 409Q738 446 745 496Q752 546 739 627Q739 627 749.5 626.5Q760 626 760 619Q760 540 774.5 520Q789 500 848 461Q899 427 955 380.5Q1011 334 1021 265Q1027 220 1020 179Q1012 137 990.5 101Q969 65 933 35Q897 6 848 -16Q815 -35 808.5 -14.5Q802 6 737 15Z" fill="#6a9fb5" />
  </g>
</svg>