<?xml version="1.0" encoding="UTF-8"?>
<svg width="16" height="16" viewBox="0 0 16 16" xmlns="http://www.w3.org/2000/svg">
  <g transform="translate(-0.47938925253378123, 15.481557617187498) scale(0.016542968749999998, -0.016542968749999998)">
    <path d="M747 381L625 381L625 1L557 1L557 381L435 381L435 444L747 444L747 381ZM1015 163Q983 227 923 247.5Q863 268 841 308Q817 374 888 385.5Q959 397 1008 353L1008 432Q987 445 958 448Q929 451 906 450Q845 446 808 413.5Q771 381 771 328Q769 255 831 224.5Q893 194 935 160Q964 136 955.5 94Q947 52 877 57Q854 60 826.5 68Q799 76 771 107L771 23Q822 -11 894.5 -5.5Q967 0 998 40Q1017 64 1022.5 95.5Q1028 127 1015 163ZM358 164L393 43L498 43L498 289Q461 276 419.5 279Q378 282 339 304Q291 332 267 377Q243 422 243 471Q243 520 267 565Q291 610 339 638Q383 663 429 664Q476 664 516 645.5Q556 627 586 592Q615 556 625 510L750 510Q746 540 737 568Q728 596 714 621L785 747L714 817L590 746Q575 755 559 761.5Q543 768 527 773L489 910L389 910L352 776Q335 771 317.5 764Q300 757 283 748L164 814L94 744L159 626Q150 609 143 591.5Q136 574 131 556L1 518L1 418L132 383Q137 365 144 347.5Q151 330 161 314L97 194L167 123L286 192Q304 183 322 176Q340 169 358 164Z" fill="#825078" />
  </g>
</svg>