<?xml version="1.0" encoding="UTF-8"?>
<svg width="16" height="16" viewBox="0 0 16 16" xmlns="http://www.w3.org/2000/svg">
  <g transform="translate(2.668690691692073, 14.980991683467742) scale(0.015585937499999999, -0.015585937499999999)">
    <path d="M359 540Q380 571 404 597.5Q428 624 449 625Q501 629 550.5 623Q600 617 627 591Q637 582 656.5 564.5Q676 547 680 524Q685 496 684 460Q683 424 676.5 386.5Q670 349 658 313Q646 276 629 246Q613 217 581 196Q549 175 517 162Q485 149 461 142Q437 136 437 136Q414 132 390 127Q366 122 351 107Q333 90 329 66.5Q325 43 325 25Q325 15 332 -9.5Q339 -34 360 -41Q374 -45 374.5 -54.5Q375 -64 375 -64L118 -64Q119 -56 129 -47Q139 -38 150 -24Q163 -8 173.5 10Q184 28 190 39Q196 51 196.5 62Q197 73 197 73Q192 107 149 139Q106 171 71 190Q38 208 18.5 225Q-1 242 0 253Q2 277 52 302.5Q102 328 134 368Q160 401 165.5 434.5Q171 468 171 468Q170 496 169 509.5Q168 523 158 538Q149 553 140.5 560.5Q132 568 129 589Q125 610 109.5 610.5Q94 611 94 611L34 594L31 597Q31 597 46.5 616.5Q62 636 72 650Q76 655 76 664Q76 673 76 673Q73 681 30.5 725Q-12 769 14 841Q38 905 91 929.5Q144 954 203 959Q254 964 292 938Q329 912 347.5 869.5Q366 827 363 774Q360 721 330 671Q330 671 307.5 648Q285 625 284 668Q282 707 269 724Q256 741 256 741Q256 741 252 741Q248 741 249 721Q250 712 251 668Q252 625 254.5 573Q257 521 261 474Q265 426 269 409Q272 398 279 392.5Q286 387 297 403Q320 437 326.5 470Q333 503 359 540ZM457 213Q463 239 457.5 265Q452 291 440 293Q431 295 424.5 285Q418 275 418 254Q418 230 417.5 208Q417 186 406 178Q394 169 392.5 161Q391 153 393 152Q397 149 422.5 164Q448 179 457 213Z" fill="#8f5536" />
  </g>
</svg>