<?xml version="1.0" encoding="UTF-8"?>
<svg width="16" height="16" viewBox="0 0 16 16" xmlns="http://www.w3.org/2000/svg">
  <g transform="translate(0.5099999999999998, 14.55375) scale(0.01462890625, -0.01462890625)">
    <path d="M931 -41L765 -41L777 99L695 99L684 -41L340 -41L329 99L247 99L259 -41L93 -41L0 565L233 937L791 937L1024 565ZM745 751L595 751L605 681L419 681L429 751L279 751L186 565L233 192L791 192L838 565L745 751ZM393 395Q393 445 381.5 470Q370 495 358 470Q346 445 346 395Q346 345 358 320Q370 295 381.5 320Q393 345 393 395ZM686 402Q686 452 674.5 477Q663 502 651 477Q640 452 640 402Q640 352 651 327Q663 302 674.5 327Q686 352 686 402Z" fill="#9dc0ce" />
  </g>
</svg>