<?xml version="1.0" encoding="UTF-8"?>
<svg width="16" height="16" viewBox="0 0 16 16" xmlns="http://www.w3.org/2000/svg">
  <g transform="translate(2.1792675781249997, 14.9825) scale(0.015585937499999999, -0.015585937499999999)">
    <path d="M292 28L445 28L424 -64L313 -64L292 28ZM250 590Q253 539 261 480Q269 422 282 358Q295 294 313 224Q331 154 354 79Q361 75 368.5 75Q376 75 383 79Q406 154 424 224Q442 294 455 358Q468 422 476 480Q484 539 487 590Q497 777 457 868Q418 960 369 958.5Q320 957 280 864Q241 772 250 591ZM313 960Q313 960 286 945Q258 931 226 894Q194 857 169 794Q144 731 148 634Q153 537 183 438Q214 339 248 259.5Q282 180 310 129Q338 79 338 79Q297 115 250 185Q202 254 161.5 336Q121 418 93 502Q66 587 65 653Q64 712 83 765Q102 817 135 858.5Q168 900 214 926Q260 953 313 960ZM31 630Q40 532 87 432Q134 333 184.5 254Q235 175 273 128Q311 81 303 89Q281 108 237 160Q193 211 146 282.5Q99 354 59 439Q19 524 5 609Q-9 694 13 753Q35 811 67.5 847Q100 883 129 899Q158 915 158 915Q116 886 90 852Q63 818 48.5 781.5Q34 745 30 706Q26 668 31 630ZM440 91Q445 103 468 155Q491 207 517 283Q543 359 565 451Q588 543 592 634Q597 731 572 794Q547 857 514.5 894Q482 931 455 945Q427 960 427 960Q440 959 464.5 951.5Q489 944 516 932Q529 926 555 908Q581 890 607.5 856.5Q634 823 655 773Q675 723 676 653Q675 610 665 558Q655 507 638 453Q621 399 599 345Q576 292 550 244Q576 284 603 330Q629 377 651.5 426.5Q674 476 690 528Q706 580 711 630Q715 668 712 706Q708 745 693.5 781.5Q679 818 652 852Q625 886 583 915Q583 915 613 899Q642 883 674 847Q706 811 728 753Q751 694 736 609Q722 524 682 439Q642 354 595 282.5Q548 211 504 159Q460 108 438 88L440 91Z" fill="#6a9fb5" />
  </g>
</svg>