<?xml version="1.0" encoding="UTF-8"?>
<svg width="16" height="16" viewBox="0 0 16 16" xmlns="http://www.w3.org/2000/svg">
  <g transform="translate(0.5099999999999998, 14.55375) scale(0.01462890625, -0.01462890625)">
    <path d="M322 347Q366 291 394.5 323Q423 355 383 389L0 768L0 662L322 347ZM791 423Q817 444 847 481Q877 518 907.5 565Q938 612 968 664Q998 717 1024 768L1024 708Q1001 669 976 631Q951 592 926 556.5Q901 521 878 490Q855 458 835 433Q890 493 934 544Q978 595 1024 663L1024 -64L0 -64L0 463L272 194Q373 138 450 95Q528 53 576 34Q624 15 639 24Q655 34 631 82L470 386L0 851L0 960L304 960Q324 898 358 830Q393 761 438 692.5Q483 624 537 558Q591 492 648 433Q611 481 562 550Q514 619 469 692.5Q424 766 388 837Q352 907 339 960L383 960Q394 912 428 835Q462 758 507 678Q552 598 601 528Q650 458 693 423Q660 479 629 543Q598 607 570.5 675.5Q543 744 520 816Q497 888 479 960L598 960Q607 876 621 807Q636 738 652.5 674.5Q669 611 687 548Q705 484 721 412Q731 411 741.5 411Q752 411 762 412Q779 484 797 548Q814 611 831 674.5Q848 738 862 807Q876 876 885 960L1004 960Q987 888 963 816Q940 744 912.5 675.5Q885 607 854 543Q823 479 791 423ZM845 345L645 345L673 225L818 224L845 345Z" fill="#90a959" />
  </g>
</svg>