<?xml version="1.0" encoding="UTF-8"?>
<svg width="16" height="16" viewBox="0 0 16 16" xmlns="http://www.w3.org/2000/svg">
  <g transform="translate(-0.46999999999999886, 15.411249999999999) scale(0.016542968749999998, -0.016542968749999998)">
    <path d="M532 516Q413 516 316 509Q218 502 147.5 488.5Q77 475 39 455Q0 436 0 411Q0 386 40 366Q80 347 149.5 333.5Q219 320 313 313Q406 306 512 306Q618 306 711 314Q805 322 874.5 336.5Q944 351 984 370Q1024 389 1024 411Q1024 427 1000 443Q975 458 931.5 471Q888 484 828 493Q767 503 695 509Q694 543 670.5 566.5Q647 590 613 590Q581 590 558 568.5Q535 547 532 516ZM532 496Q536 466 559 445Q582 424 613 424Q642 424 664 442Q686 460 692 487Q788 476 848 455.5Q908 435 908 411Q908 393 876 377Q844 362 789.5 350Q735 338 662 331Q589 325 506 325Q422 325 349 331Q276 338 221.5 350Q167 362 135 377Q104 393 104 411Q104 428 140 444Q175 460 234.5 471.5Q294 483 371 490Q449 496 532 496Z" fill="#8f5536" />
  </g>
</svg>