<?xml version="1.0" encoding="UTF-8"?>
<svg width="16" height="16" viewBox="0 0 16 16" xmlns="http://www.w3.org/2000/svg">
  <g transform="translate(0.7114287860576934, 14.554680930397728) scale(0.01462890625, -0.01462890625)">
    <path d="M891 161Q902 152 909 140.5Q916 129 920 123L980 184Q998 201 990 222Q982 243 982 243L628 698Q622 745 631 757.5Q640 770 654 797Q665 817 663 830.5Q661 844 650 850Q637 823 609 766Q582 709 554.5 651.5Q527 594 506 551Q485 507 485 507L128 149L102 162Q155 214 211 270Q267 325 316.5 374Q366 423 404 461Q442 498 459 514Q439 512 431 511.5Q423 511 424 527L607 851Q597 852 589 864Q581 876 575 892L400 593L71 241Q63 232 55 240Q47 248 54 256L382 606L566 921Q561 949 553 957.5Q545 966 527 947L207 579L4 253Q-6 210 9.5 189.5Q25 169 81 131Q91 124 105 121Q119 118 136 123L146 -1L174 -28L756 -64Q756 -64 782.5 -41Q809 -18 835 9Q860 35 855.5 42.5Q851 50 843 60Q835 69 833.5 93.5Q832 118 832 135Q831 150 853 164Q875 178 891 161ZM839 216Q840 209 840 202Q840 195 839 188L357 195Q261 155 258 156.5Q255 158 167 140Q192 156 218.5 198Q245 240 313 303Q350 337 389 373Q429 409 463 443.5Q497 478 521 509Q546 539 552 561Q628 459 681 397Q735 336 769 300.5Q803 265 820 248Q837 230 839 216Z" fill="#6a9fb5" />
  </g>
</svg>