<?xml version="1.0" encoding="UTF-8"?>
<svg width="16" height="16" viewBox="0 0 16 16" xmlns="http://www.w3.org/2000/svg">
  <g transform="translate(0.1847743680464668, 14.978646888576922) scale(0.015585937499999999, -0.015585937499999999)">
    <path d="M231 -15Q102 85 44 241Q-14 396 4.5 546.5Q23 697 119 814Q216 932 396 956Q555 979 702 878Q850 778 930.5 618.5Q1011 459 996 274Q982 88 817 -60Q785 -73 770.5 -50.5Q756 -28 781 -10Q946 102 964 269Q983 436 910 587Q837 738 701 836Q564 935 418 907Q256 877 183 774Q110 670 104.5 543.5Q99 417 150 292Q200 168 285 96Q329 55 304 -0.5Q279 -56 231 -15ZM492 822Q471 811 482 780.5Q493 750 510 749Q629 766 717 694Q804 621 840.5 523Q877 425 855 334Q832 243 730 223Q673 217 627 239Q580 262 544.5 296.5Q509 331 484 369Q460 408 447 434L490 447Q513 455 510 469.5Q507 484 492 499L362 620Q350 632 336.5 627Q323 622 317 605L250 430Q240 400 250.5 388Q261 376 283 381L314 391Q330 354 364 296Q397 238 451.5 188Q506 138 583 112Q659 85 760 110Q890 168 912 292Q934 416 883.5 539.5Q833 663 726 750Q620 838 492 822ZM752 459Q739 435 704 433Q669 431 638 486Q623 515 623.5 539Q624 563 635 577Q652 597 676.5 590Q701 583 701 583Q711 573 717.5 581.5Q724 590 716 599Q672 650 607.5 619Q543 588 596 473Q637 386 702.5 387Q768 388 776 442Q777 461 767.5 463.5Q758 466 752 459Z" fill="#6a9fb5" />
  </g>
</svg>