<?xml version="1.0" encoding="UTF-8"?>
<svg width="16" height="16" viewBox="0 0 16 16" xmlns="http://www.w3.org/2000/svg">
  <g transform="translate(1, 14.126284327651515) scale(0.013671875, -0.013671875)">
    <path d="M626 230L626 120Q575 85 514 66Q453 48 391.5 46Q330 44 272 57Q214 70 168 98Q130 121 99 153Q69 186 47 229Q25 272 13 327Q0 381 0 447Q0 521 15 582Q31 642 60 689Q89 736 130 770Q171 804 222 824Q258 839 308 846Q358 853 413 849Q468 845 523 827Q579 810 626 777L626 666Q560 729 470 753Q380 777 299 754Q218 731 163 656Q107 582 111 447Q107 314 162 240Q217 165 297.5 141.5Q378 118 468 142Q558 166 626 230ZM499 603L499 468L633 468L633 427L499 427L499 293L458 293L458 427L324 427L324 468L458 468L458 603L499 603ZM889 603L889 468L1024 468L1024 427L889 427L889 293L849 293L849 427L714 427L714 468L849 468L849 603Z" fill="#be2f31" />
  </g>
</svg>