<?xml version="1.0" encoding="UTF-8"?>
<svg width="16" height="16" viewBox="0 0 16 16" xmlns="http://www.w3.org/2000/svg">
  <g transform="translate(-0.2714843749999982, 15.411249999999999) scale(0.016542968749999998, -0.016542968749999998)">
    <path d="M224 960L0 745L0 -64L807 -64L1000 185L1000 960L224 960ZM972 766L929 712L939 876L972 913ZM290 127L227 198L227 269L303 310ZM885 436Q882 447 877 458.5Q872 470 864 481Q867 459 869 445.5Q871 432 871 419L849 392Q839 406 842.5 419.5Q846 433 852 483Q841 467 835.5 451Q830 435 830 420Q830 409 831.5 400Q833 391 840 381L825 362L825 556L890 638L890 443L885 436ZM555 335L548 345L564 364L643 357L643 335ZM555 448L684 448L656 389L563 399L555 448ZM657 355L685 353L755 486L499 486L523 358L540 335L445 335L445 529L786 529L786 335L657 335L657 355ZM653 729L786 729L786 560L468 560ZM424 564L272 729L607 729L424 564ZM792 757L695 757L835 802L792 757ZM825 581L825 748L863 791L895 678ZM887 818L916 851L909 726L887 818ZM866 837L625 757L251 757L125 823L168 864L379 939L766 939L901 877L866 837ZM230 729L386 560L51 560L51 729ZM405 529L405 335L224 335L224 514L162 514L162 335L51 335L51 529L405 529ZM211 268L211 203L170 206L170 268ZM224 310L260 310L224 287L224 310ZM51 310L162 310L162 283L150 283L150 189L216 181L248 148L51 148L51 310ZM317 310L405 310L405 148L305 148ZM445 310L529 310L515 298L550 274L512 247L554 227L515 194L565 173L543 154L553 148L445 148L445 310ZM581 123L643 123L643 90L568 114L581 123ZM578 148L566 156L588 176L539 198L576 229L537 250L573 273L538 298L551 310L643 310L643 148L578 148ZM657 310L786 310L786 148L657 148ZM825 337L833 348Q834 339 841 332Q848 325 863 325Q863 325 853.5 338.5Q844 352 858 359Q873 367 871.5 346.5Q870 326 870 326Q883 332 886.5 350Q890 368 872 379Q878 388 881.5 396.5Q885 405 886 414L890 419L890 257L825 175L825 337ZM921 448L972 512L972 360L921 296L921 448ZM921 483L921 677L972 741L972 546L921 483ZM925 896L830 939L963 939ZM233 939L323 939L194 901L233 939ZM102 800L188 757L57 757ZM51 123L273 123L299 95L301 123L405 123L405 -28L51 -28L51 123ZM445 -28L445 123L556 123L536 106L657 69L657 123L786 123L786 -28L445 -28ZM825 145L890 226L890 90L825 6ZM921 131L921 264L972 327L972 197ZM226 782L629 780L794 913L399 921L226 782ZM582 862L548 833L449 834L482 862L582 862ZM497 876L534 907L633 906L597 875L497 876ZM616 862L708 861L671 831L582 832L616 862ZM535 821L503 794L402 793L435 822L535 821ZM415 834L313 836L345 863L446 862L415 834ZM298 824L402 823L369 793L261 793L298 824ZM624 794L536 794L568 821L656 820ZM725 874L632 875L668 905L763 904ZM495 907L460 876L362 877L400 908L495 907Z" fill="#a35f27" />
  </g>
</svg>