<?xml version="1.0" encoding="UTF-8"?>
<svg width="16" height="16" viewBox="0 0 16 16" xmlns="http://www.w3.org/2000/svg">
  <g transform="translate(0.5099999999999993, 14.55375) scale(0.01462890625, -0.01462890625)">
    <path d="M979 655Q1000 608 1011.5 555.5Q1023 503 1023 448Q1023 342 983 249Q943 155 873.5 85.5Q804 16 711 -24Q618 -64 512 -64Q406 -64 313 -24Q220 16 150.5 85.5Q81 155 41 249Q1 342 1 448Q1 554 41 647Q81 741 150.5 810.5Q220 880 313 920Q406 960 512 960Q565 960 616 949.5Q667 939 713 919L461 667L275 290Q275 290 276.5 244.5Q278 199 344 219Q373 227 437 258Q500 289 565 323Q630 357 680 383Q729 410 729 410L979 655ZM398 429L313 256L489 340Q465 387 439.5 405.5Q414 424 398 429ZM814 960L500 641Q509 605 529 580Q549 555 584 545L1003 960ZM1023 934L609 524Q623 487 647.5 468Q672 449 703 442L1023 769Z" fill="#6a9fb5" />
  </g>
</svg>