<?xml version="1.0" encoding="UTF-8"?>
<svg width="16" height="16" viewBox="0 0 16 16" xmlns="http://www.w3.org/2000/svg">
  <g transform="translate(0.018441406249998238, 14.9825) scale(0.015585937499999999, -0.015585937499999999)">
    <path d="M33 575Q33 575 33 575Q33 575 33 575Q33 575 32.5 574.5Q32 574 32 573Q32 573 32 573Q32 573 32 573Q32 574 32.5 574.5Q33 575 33 575ZM722 775Q617 775 532 762Q447 748 383.5 721.5Q320 695 278 655Q237 616 218 564Q214 552 207 531Q200 510 195 493Q149 503 102.5 512Q56 521 24 530Q26 541 28 552.5Q30 564 33 575Q53 646 105 690Q157 735 226 760Q295 785 374 794Q453 803 526 803Q572 803 615 800Q658 798 698.5 793.5Q739 789 778 783Q817 777 855 770Q824 772 790.5 773.5Q757 775 722 775ZM389 98Q370 96 350.5 94.5Q331 93 311 93Q239 93 185 112Q131 132 94 170.5Q57 209 37 267Q18 325 15 402Q54 392 96.5 383Q139 374 181 369Q182 315 195 269Q209 223 235 187Q261 151 299 128Q338 105 389 98ZM1021 743Q990 755 937 768Q885 781 819 792.5Q753 804 678 811Q603 818 526 818Q440 818 357 807Q275 796 206 768.5Q137 741 87 695Q38 649 18 580Q16 573 12 549Q8 525 7 519L63 505Q59 481 57 455.5Q55 430 54 408L0 421Q0 318 27 251Q54 184 98 145.5Q142 107 197 92Q253 78 311 78Q372 78 433.5 90.5Q495 103 554 122Q557 123 556.5 127Q556 131 552 130Q511 125 448 128Q385 132 332.5 165.5Q280 199 253 274Q227 348 258 485Q282 591 387 645Q491 698 616 719Q741 740 857 739Q973 738 1020 735Q1023 734 1024 737.5Q1025 741 1021 743ZM29 557Q30 559 30 561.5Q30 564 31 566Q30 564 30 561.5Q30 559 29 557ZM27 544Q27 547 27.5 549.5Q28 552 29 554Q28 552 27.5 549.5Q27 547 27 544ZM32 571Q32 571 32 571Q32 571 32 570Q32 570 32 570Q32 570 32 570Q32 571 32 571.5Q32 572 32 573Q32 572 32 572Q32 572 32 571ZM32 573Q32 573 32 573Q32 573 32 573Q32 573 32 573Q32 573 32 573ZM433 489Q431 482 428 469Q425 456 423 445L313 458Q314 465 314.5 472.5Q315 480 315 482Q327 544 379 580Q430 616 496 635Q562 654 629 659Q697 664 741 664Q747 664 754 664Q761 664 767 664Q714 659 659 648Q605 637 558.5 616.5Q512 596 478 565Q445 534 433 489ZM499 187Q420 187 374 231Q328 275 315 362Q341 358 367.5 355.5Q394 353 420 352Q430 271 467.5 235.5Q505 200 548 191Q536 189 523.5 188Q511 187 499 187ZM297 445L336 439Q334 423 334 406.5Q334 390 335 375L298 380Q310 257 369 214.5Q428 172 499 172Q546 173 593 184.5Q640 196 683 214Q687 216 686 219.5Q685 223 681 222Q651 216 610 216Q568 215 533 235Q498 255 477 301Q457 348 469 436Q479 505 543 547Q606 588 686.5 610.5Q767 633 846 641Q924 649 962 651Q966 651 966 654.5Q966 658 963 659Q928 667 869 673.5Q810 680 741 680Q671 680 597 671Q524 662 462 640Q400 618 356 581Q312 543 301 485Q299 477 298 463.5Q297 450 297 445ZM659 267Q610 267 581 293Q552 319 544 371Q558 369 572.5 367.5Q587 366 602 366Q608 323 626.5 300Q645 277 666 267Q664 267 662.5 267Q661 267 659 267ZM541 444Q542 448 542 451.5Q542 455 543 456Q549 486 574 508Q600 529 633.5 543Q667 557 704 563Q740 569 767 569Q715 557 668.5 532Q622 507 610 462Q609 458 607.5 451Q606 444 604 438ZM955 575Q931 580 895.5 583.5Q860 587 818 587Q772 587 724 581Q675 575 634 560.5Q593 546 564 521Q535 497 528 458Q527 456 526 445Q525 434 525 432Q534 430 540 429Q546 428 551 427Q550 417 550 406Q550 395 550 385Q544 386 538 387Q532 388 526 389Q533 310 571 281.5Q609 253 655 252Q685 251 713.5 257.5Q742 264 764 273Q768 275 767 278.5Q766 282 762 281Q721 276 673 297Q625 318 639 423Q645 467 684 494Q723 521 773.5 537Q824 553 875 559Q925 565 955 567Q958 567 958.5 571Q959 575 955 575Z" fill="#90a959" />
  </g>
</svg>