<?xml version="1.0" encoding="UTF-8"?>
<svg width="16" height="16" viewBox="0 0 16 16" xmlns="http://www.w3.org/2000/svg">
  <g transform="translate(0.5124381510416676, 14.575693359375) scale(0.01462890625, -0.01462890625)">
    <path d="M1022 310L651 -60Q650 -61 648.5 -61Q647 -61 645 -61L139 74Q138 74 137 75Q136 76 135 78L0 583Q0 584 0 586Q0 588 1 589L372 959Q373 960 374.5 960Q376 960 378 960L884 824Q885 824 886 823Q887 822 888 820L1023 315Q1024 314 1023.5 312.5Q1023 311 1022 310ZM526 712L30 578Q29 578 29 577Q29 576 30 575L393 211Q394 210 394.5 210.5Q395 211 397 211L530 707Q529 710 527.5 711Q526 712 526 712Z" fill="#75b5aa" />
  </g>
</svg>