<?xml version="1.0" encoding="UTF-8"?>
<svg width="16" height="16" viewBox="0 0 16 16" xmlns="http://www.w3.org/2000/svg">
  <g transform="translate(0.9992404513888885, 14.125) scale(0.013671875, -0.013671875)">
    <path d="M917 650L917 806L950 806L950 659L1024 679L1024 597L950 577L950 376L1024 396L1024 314L950 294L950 149L917 149L917 286L770 246L770 90L736 90L736 237L663 217L663 300L736 320L736 520L663 500L663 582L736 602L736 748L770 748L770 610L917 650ZM770 528L770 328L917 368L917 568ZM4 394Q15 304 45 247Q76 190 118.5 157.5Q161 125 210 113Q260 100 309 99Q361 94 409 109Q456 124 494 154Q532 184 559 228Q586 272 598 325L509 348Q491 271 452 232Q412 192 365 180.5Q318 169 270 180Q222 191 188 213Q136 243 112 321Q87 399 94 483Q101 567 142 636Q183 704 262 716Q371 739 425.5 691Q480 643 499 580L587 601Q561 685 507.5 734.5Q454 784 362 796Q271 808 199 781Q128 755 80.5 700.5Q33 646 13 567Q-7 488 4 394Z" fill="#6a9fb5" />
  </g>
</svg>