<?xml version="1.0" encoding="UTF-8"?>
<svg width="16" height="16" viewBox="0 0 16 16" xmlns="http://www.w3.org/2000/svg">
  <g transform="translate(0.5758300781249996, 14.55375) scale(0.01462890625, -0.01462890625)">
    <path d="M1015 448Q1015 342 975 249Q935 155 866.5 85.5Q798 16 705 -24Q613 -64 508 -64Q402 -64 310 -24Q218 16 149 85.5Q80 155 40 249Q0 342 0 448Q0 554 40 647Q80 741 149 810.5Q218 880 310 920Q402 960 508 960Q613 960 705 920Q798 880 866.5 810.5Q935 741 975 647Q1015 554 1015 448ZM431 475L431 581Q393 609 315.5 615.5Q238 622 178 564Q147 536 134 490Q120 445 121 397.5Q122 350 137 308Q151 266 178 243Q230 198 305.5 195.5Q381 193 444 247L411 311Q373 279 296.5 279.5Q220 280 220 402Q220 543 287 537Q354 531 354 531L354 472L431 475ZM504 574Q504 510 542 482Q581 454 626.5 438.5Q672 423 711 408Q749 393 750 354Q751 287 671 283Q591 279 587 304L587 363L505 361L505 237Q539 210 598 200Q656 190 712.5 202Q769 214 811 251Q852 288 852 355Q852 426 813 458Q774 490 727 508Q680 526 641 540Q601 555 601 591Q601 643 662.5 653.5Q724 664 746 639L746 574L833 585L833 710Q763 734 703 738Q643 741 598.5 724Q554 707 529 669Q504 632 504 574Z" fill="#7c4426" />
  </g>
</svg>