<?xml version="1.0" encoding="UTF-8"?>
<svg width="16" height="16" viewBox="0 0 16 16" xmlns="http://www.w3.org/2000/svg">
  <g transform="translate(1.292646484375, 14.55375) scale(0.01462890625, -0.01462890625)">
    <path d="M515 639Q456 640 415.5 679Q375 718 374 797Q372 869 412 914.5Q452 960 519 960Q572 960 603.5 933.5Q635 907 643 869L581 854Q572 898 528.5 905Q485 912 460 882Q449 869 444 849Q439 829 439 801Q439 772 444 751Q449 730 460 718Q482 691 526 693.5Q570 696 584 758L644 739Q634 698 603 668Q572 638 515 639ZM697 639L745 639L762 722L809 722L793 639L840 639L857 722L917 722L917 768L866 768L879 831L917 831L917 877L888 877L905 960L856 960L840 877L793 877L810 960L762 960L746 877L685 877L685 831L736 831L723 768L685 768L685 722L714 722L697 639ZM831 831L818 768L771 768L784 831L831 831ZM325 885L278 885Q245 885 213 866Q181 847 155.5 818.5Q130 790 114 757Q97 724 96 695L92 289L188 289L193 696Q193 727 225.5 758.5Q258 790 293 790L325 790L325 885ZM742 146Q742 113 724.5 85Q707 57 677 44Q631 24 577 64Q523 104 526 219L0 219Q-1 166 19 115Q39 64 70 24.5Q101 -15 139 -40Q177 -64 212 -64L635 -64Q724 -56 780 0.5Q836 57 839 144L843 576L742 576L742 146Z" fill="#66783e" />
  </g>
</svg>