<?xml version="1.0" encoding="UTF-8"?>
<svg width="16" height="16" viewBox="0 0 16 16" xmlns="http://www.w3.org/2000/svg">
  <g transform="translate(1.1421875000000004, 14.9825) scale(0.015585937499999999, -0.015585937499999999)">
    <path d="M426 278L295 357L295 514L426 438L426 278ZM168 617L439 781L710 618L862 705L439 960L17 705L168 617ZM573 538L439 618L306 538L439 461L573 538ZM725 596L725 280L452 115L452 -64L880 193L880 685L725 596ZM426 116L154 280L154 595L0 684L0 193L426 -63L426 116ZM584 514L452 438L452 278L584 357L584 514Z" fill="#75b5aa" />
  </g>
</svg>