<?xml version="1.0" encoding="UTF-8"?>
<svg width="16" height="16" viewBox="0 0 16 16" xmlns="http://www.w3.org/2000/svg">
  <g transform="translate(1.6022257706925669, 14.553942485608555) scale(0.01462890625, -0.01462890625)">
    <path d="M356 65Q147 123 65 270Q-17 416 5 568.5Q27 721 141 840Q256 958 440 960Q531 961 611 924Q692 888 751 823Q810 758 842 668Q874 578 869 473Q863 367 819 276Q776 185 705.5 114.5Q635 44 545 -3Q455 -49 356 -64L356 65ZM484 632Q518 639 546.5 668.5Q575 698 577 740Q579 772 548.5 787.5Q518 803 493 780Q464 746 461.5 704.5Q459 663 484 632ZM384 632Q409 668 403.5 708.5Q398 749 373 777Q348 798 318 785.5Q288 773 288 740Q287 707 313.5 674.5Q340 642 384 632ZM323 563Q317 602 278.5 632Q240 662 204 657Q172 656 162 624.5Q152 593 178 572Q209 547 248 543Q287 539 323 563ZM658 376Q694 374 707 407.5Q720 441 692 462Q654 493 613 490Q572 487 547 470Q556 434 586.5 406Q617 378 658 376ZM320 467Q284 492 241.5 486.5Q199 481 176 458Q149 436 162.5 403.5Q176 371 212 373Q248 374 280.5 400Q313 426 320 467ZM387 403Q358 397 335.5 379Q313 361 301 332Q274 280 315.5 252.5Q357 225 384 267Q406 300 406.5 335Q407 370 387 403ZM486 401Q464 369 465.5 332Q467 295 494 260Q516 235 550 248.5Q584 262 583 293Q581 326 556 358.5Q531 391 486 401Z" fill="#90a959" />
  </g>
</svg>