<?xml version="1.0" encoding="UTF-8"?>
<svg width="16" height="16" viewBox="0 0 16 16" xmlns="http://www.w3.org/2000/svg">
  <g transform="translate(0.5026855468749996, 14.554156358506944) scale(0.01462890625, -0.01462890625)">
    <path d="M790 905Q720 906 673 889Q626 873 594 839.5Q562 806 542 755Q522 704 506 635Q415 616 323 578Q230 540 156.5 484.5Q83 429 39 357Q-5 285 1 199Q3 166 23 124Q44 83 91.5 53.5Q139 24 219 18Q298 11 419 48L386 179Q237 127 177 156Q117 186 135.5 248.5Q154 311 246 384Q338 456 491 490L491 -9L619 -9L619 513Q666 519 715 522Q764 525 813.5 526Q863 527 914 525Q965 523 1017 517L1024 652Q976 656 928 658Q880 659 832 659Q784 659 737 657Q690 655 643 652Q670 737 696.5 751Q723 765 804 777L790 905Z" fill="#46788d" />
  </g>
</svg>