<?xml version="1.0" encoding="UTF-8"?>
<svg width="16" height="16" viewBox="0 0 16 16" xmlns="http://www.w3.org/2000/svg">
  <g transform="translate(-0.45345703124999936, 15.39060546875) scale(0.016542968749999998, -0.016542968749999998)">
    <path d="M101 116L422 434L454 399L248 198Q205 156 246 114Q287 72 330 114L533 311L592 245L592 156Q591 115 633 99.5Q675 84 701 125Q742 80 785 119.5Q828 159 788 204L710 290L710 398L965 397Q1024 401 1024 456.5Q1024 512 965 515L710 516L710 741Q708 800 651 800.5Q594 801 592 741L592 421L505 517L541 553Q583 595 541.5 636.5Q500 678 458 636L426 604L372 665Q332 709 288.5 669.5Q245 630 285 586L343 522L289 468L124 652Q85 696 41 657Q-3 618 37 574L206 386L18 199Q-22 156 18 116Q58 76 101 116Z" fill="#ac4142" />
  </g>
</svg>