<?xml version="1.0" encoding="UTF-8"?>
<svg width="16" height="16" viewBox="0 0 16 16" xmlns="http://www.w3.org/2000/svg">
  <g transform="translate(0.01651367187499808, 14.985790364583334) scale(0.015585937499999999, -0.015585937499999999)">
    <path d="M231 284Q217 266 222.5 260Q228 254 242 254Q243 255 247 252Q251 249 247 242Q243 240 225 237.5Q207 235 202 252Q196 268 207 279Q218 290 218 290Q223 291 227 291Q231 291 231 284ZM190 204Q223 185 255.5 204Q288 223 288 260Q288 297 255.5 316Q223 335 190 316Q158 298 158 260.5Q158 223 190 204ZM134 61Q105 72 90 86.5Q75 101 62 121Q49 143 51 163Q53 183 53 183Q97 317 180 384Q263 451 361.5 464Q460 477 561 442Q662 408 742 339Q762 391 797 423Q831 454 870.5 470.5Q910 487 950 492Q989 497 1020 497Q1033 422 1008 372Q982 323 945 292Q908 261 874 243Q840 226 837 215Q952 149 976 86.5Q1000 24 993 -26Q947 -54 882.5 -31.5Q818 -9 733 70Q679 31 620 2Q560 -28 490.5 -39.5Q421 -51 338 -40Q256 -30 156 12Q259 35 285 59Q311 83 315 103Q315 103 253 70.5Q191 38 134 61ZM795 805L777 938Q776 939 779.5 941Q783 943 784 940L819 810L870 938Q871 940 874 938.5Q877 937 876 935L843 807Q842 805 843 803.5Q844 802 846 804L947 884Q954 887 953.5 884Q953 881 952 880L860 791Q859 788 861 786.5Q863 785 866 786L989 803Q992 804 993.5 802Q995 800 994 797L862 765Q860 764 860.5 763Q861 762 862 761L983 714Q987 712 989.5 709Q992 706 984 706L860 740Q858 740 856.5 738.5Q855 737 857 735L938 633Q940 630 940 627Q940 624 936 626L841 723Q839 723 838.5 722Q838 721 838 718L856 592Q855 587 853 588Q851 589 850 591L816 715Q815 718 813 717Q811 716 809 712L763 590Q760 588 759 590.5Q758 593 759 595L792 722Q792 724 791.5 724Q791 724 789 723L685 640Q683 639 681.5 639Q680 639 679 643L774 737Q776 741 774.5 743Q773 745 769 745L642 723Q636 725 638 727Q640 729 641 731L766 762Q768 764 767 766.5Q766 769 764 771L641 818Q637 821 637 823Q637 825 641 826Q673 818 705 809Q737 800 772 791Q776 790 777.5 791Q779 792 775 796L693 896Q692 900 694.5 901Q697 902 700 899ZM45 456L55 435L78 436L63 461ZM23 388Q0 401 0 427.5Q0 454 23 468Q46 481 69 467.5Q92 454 92 428Q92 401 69 387.5Q46 374 23 388ZM451 775L474 728L523 729L490 785ZM401 622Q350 652 350 711.5Q350 771 401 800Q453 830 504.5 800Q556 770 556 711Q556 652 504.5 622.5Q453 593 401 622ZM167 673L184 638L222 639L196 681ZM130 558Q91 581 91 625.5Q91 670 130 692Q168 715 207 692.5Q246 670 246 625Q246 581 207 558.5Q168 536 130 558Z" fill="#d28445" />
  </g>
</svg>