<?xml version="1.0" encoding="UTF-8"?>
<svg width="16" height="16" viewBox="0 0 16 16" xmlns="http://www.w3.org/2000/svg">
  <g transform="translate(0.5099999999999998, 14.55375) scale(0.01462890625, -0.01462890625)">
    <path d="M540 756Q521 756 503.5 754.5Q486 753 470 750Q423 742 409.5 723.5Q396 705 396 674L396 618L543 618L543 599L341 599Q309 599 283.5 580Q258 561 249 524Q239 482 239 450.5Q239 419 249 375Q257 342 276 321.5Q295 301 327 301L378 301L378 368Q378 404 405 431.5Q432 459 470 459L616 459Q647 459 668.5 481Q690 503 690 534L690 674Q690 703 668 724Q646 745 616 750Q598 753 578.5 754.5Q559 756 540 756ZM460 711Q472 711 480 702.5Q488 694 488 683Q488 671 480 663Q472 655 460 655Q449 655 441 663Q433 671 433 683Q433 694 441 702.5Q449 711 460 711ZM708 599L708 534Q708 496 680.5 468Q653 440 616 440L470 440Q440 440 418 418Q396 396 396 366L396 226Q396 196 418.5 178Q441 160 470 151Q505 141 540 140Q575 139 616 151Q644 159 667 176.5Q690 194 690 226L690 282L543 282L543 301L763 301Q795 301 810.5 321.5Q826 342 837 375Q848 410 848 445Q848 480 837 524Q829 556 812 577.5Q795 599 763 599Q763 599 735.5 599Q708 599 708 599ZM626 245Q637 245 645 236.5Q653 228 653 217Q653 205 645 197Q637 189 626 189Q614 189 606 197Q598 205 598 217Q598 228 606 236.5Q614 245 626 245ZM532 933Q472 933 417 924Q362 915 313 897.5Q264 880 221 853Q178 826 141 791Q106 758 79 721Q53 683 35.5 642Q18 601 9 556Q0 512 0 463Q0 411 8 363Q16 316 32.5 273Q49 230 73 191Q98 152 130 118Q166 79 209 50Q252 21 302 1.5Q352 -18 409 -27Q466 -37 529 -37Q594 -37 651 -27Q709 -18 759.5 1.5Q810 21 854 50Q897 79 934 118Q953 138 970 160Q987 182 1001 205L802 205Q763 133 696 97Q629 61 533 61Q448 59 384 93Q320 127 277 195Q243 249 226.5 316Q210 383 210 463Q210 550 230 617Q250 683 290 728.5Q330 774 390 799Q450 823 529 827Q616 824 680 793.5Q744 763 785 705Q793 694 799.5 682.5Q806 671 812 659L1024 659Q1007 695 982.5 728Q958 761 926 791Q888 826 844 853Q801 880 751.5 897.5Q702 915 647 924Q593 933 532 933Z" fill="#6a9fb5" />
  </g>
</svg>