<?xml version="1.0" encoding="UTF-8"?>
<svg width="16" height="16" viewBox="0 0 16 16" xmlns="http://www.w3.org/2000/svg">
  <g transform="translate(0.5090025745738647, 14.55375) scale(0.01462890625, -0.01462890625)">
    <path d="M0 933L83 933Q183 933 272 895Q360 857 426 791Q492 725 530 637Q568 549 568 448Q568 347 530 259Q492 171 426 105Q360 39 272 1Q183 -37 83 -37L0 -37L0 176L83 176Q139 176 189 197Q238 219 275 256Q312 293 333 342Q355 392 355 448Q355 504 333 554Q312 603 275 640Q238 677 189 699Q139 720 83 720L0 720L0 933ZM728 341L645 341Q655 394 655 448Q655 502 645 555L728 555Q766 555 787 580Q809 605 810 635.5Q811 666 791 692Q771 718 728 720L587 720Q551 785 500.5 839.5Q450 894 387 933L728 933Q789 933 843 910Q897 887 937 846.5Q977 806 1001 753Q1024 699 1024 637Q1024 585 1006.5 536.5Q989 488 956 448Q995 401 1011 345Q1028 288 1023 231.5Q1018 175 991 123Q964 70 917 31Q877 -2 828.5 -19.5Q780 -37 728 -37L387 -37Q450 2 500.5 56.5Q551 111 587 176L728 176Q769 176 790 202Q810 228 810 259Q810 290 790 316Q769 341 728 341Z" fill="#d28445" />
  </g>
</svg>