<?xml version="1.0" encoding="UTF-8"?>
<svg width="16" height="16" viewBox="0 0 16 16" xmlns="http://www.w3.org/2000/svg">
  <g transform="translate(-0.47399313038793345, 15.408018350290696) scale(0.016542968749999998, -0.016542968749999998)">
    <path d="M790 283Q807 298 802 320.5Q797 343 799 347Q795 350 796.5 356Q798 362 794 364Q791 362 791 363.5Q791 365 791 367Q797 374 797.5 382.5Q798 391 801 397Q805 407 795.5 397.5Q786 388 802 412Q805 422 808 445Q811 468 800 454Q818 474 810 481Q802 488 823 511Q822 548 826 563.5Q830 579 816 583Q848 616 860.5 658Q873 700 911 725Q913 738 927 749.5Q941 761 953 766Q957 763 959.5 760.5Q962 758 967 762Q980 763 975.5 770Q971 777 965 781Q965 789 960 785Q955 781 952 778Q953 808 943 794.5Q933 781 921 800Q915 799 908.5 797Q902 795 905 806Q900 795 897 800Q894 805 889 796Q876 791 879 779.5Q882 768 880 765Q877 771 873.5 768.5Q870 766 869 762Q860 762 862 758Q864 754 853 766Q848 763 848.5 765Q849 767 850 769Q847 770 846 766Q845 762 843 760Q839 772 829 752Q819 732 821 723Q820 719 816.5 719.5Q813 720 815 715Q816 709 813.5 709Q811 709 808 707Q804 699 799.5 694Q795 689 798 678Q793 689 791.5 682.5Q790 676 789 669Q786 684 782.5 672Q779 660 779 654Q780 642 773 640.5Q766 639 767 618Q774 618 766.5 611Q759 604 768 607Q770 604 768.5 603Q767 602 770 600Q778 600 776 596.5Q774 593 779 590Q784 591 781.5 586.5Q779 582 781 581Q791 581 782 573.5Q773 566 791 568Q785 563 785.5 560Q786 557 786 551Q782 549 782.5 544.5Q783 540 782 535Q783 533 783 531Q783 529 780 528Q778 521 778.5 519Q779 517 771 514Q768 507 769.5 499.5Q771 492 766 486Q766 486 766 483Q766 480 767 479Q772 474 767 474.5Q762 475 772 469Q768 464 770.5 463Q773 462 774 458Q773 456 771.5 453.5Q770 451 776 451Q768 438 764.5 422Q761 406 752 393Q765 395 757.5 390Q750 385 757 380Q752 372 747 362.5Q742 353 746 344Q749 337 742 337.5Q735 338 739 331Q742 325 735 323Q728 321 736 315Q736 311 733.5 309Q731 307 734 303Q738 297 733.5 296.5Q729 296 727 291Q728 284 721.5 282.5Q715 281 722 275Q721 270 718 262.5Q715 255 723 258Q732 250 749.5 257.5Q767 265 775 250Q785 245 787 260Q789 275 790 283ZM697 380Q698 369 691.5 361Q685 353 684 343Q679 332 683.5 332Q688 332 688 328Q684 321 691 324.5Q698 328 691 320Q686 316 692 314Q698 312 698 306Q698 303 695 300.5Q692 298 695 296Q699 295 698.5 292Q698 289 701 293Q715 319 702.5 315.5Q690 312 704 333Q724 366 718.5 376.5Q713 387 732 414Q737 421 735 424.5Q733 428 736 434Q737 439 735 442.5Q733 446 733 450Q734 454 733.5 455Q733 456 728 455Q715 448 735 489Q755 530 751 542Q749 547 749 552Q749 557 743 549Q741 556 743 566.5Q745 577 735 571Q736 575 738 578.5Q740 582 735 586Q727 577 730.5 583.5Q734 590 723 581Q739 597 732.5 610.5Q726 624 739 640Q749 663 767.5 695.5Q786 728 788 743Q798 765 811 781.5Q824 798 843 814Q834 790 868 823.5Q902 857 874 837Q865 856 861 840.5Q857 825 853 818Q846 834 842.5 827Q839 820 837 831Q828 821 825 828.5Q822 836 817 817Q807 834 808 811.5Q809 789 803 810Q800 808 801.5 804.5Q803 801 797 803Q793 786 793.5 788.5Q794 791 785 789Q768 789 769.5 770Q771 751 761 768Q753 769 755 761.5Q757 754 749 757Q744 755 745 753Q746 751 746 747Q738 743 738 731.5Q738 720 732 724Q732 711 727 715.5Q722 720 725 710Q718 701 717.5 702Q717 703 716 687Q723 681 725.5 675Q728 669 728 659Q724 650 719 637Q714 624 710 613Q708 601 707 583.5Q706 566 706 566Q711 563 703 559Q695 555 701 547Q702 545 701 542.5Q700 540 699 538Q697 534 699 530.5Q701 527 696 523Q688 513 694 506.5Q700 500 693 492Q699 483 691 480.5Q683 478 690 465Q689 462 687.5 459.5Q686 457 692 455Q696 445 683.5 431Q671 417 684 407Q684 395 688.5 398Q693 401 697 394L697 380ZM635 218Q596 215 575 216Q554 217 539 214Q516 208 503.5 190.5Q491 173 482 147Q471 114 461 86Q451 58 446 26Q442 7 428 9.5Q414 12 416 30Q424 62 432.5 90Q441 118 451 141Q411 141 400 154.5Q389 168 369 183Q366 185 363 185Q360 185 358 182Q335 150 310 137.5Q285 125 242 153L198 184Q193 187 191.5 186.5Q190 186 186 182Q155 129 126.5 127Q98 125 85 138Q71 152 58.5 165.5Q46 179 37 192Q28 202 44 207.5Q60 213 66 203Q87 178 107.5 156Q128 134 137 153Q137 153 151.5 174Q166 195 173 200Q191 214 202 210.5Q213 207 213 207Q238 189 269 168Q300 147 308 157Q327 171 335.5 188Q344 205 375 206Q388 206 398 196.5Q408 187 418 178Q431 166 442.5 161Q454 156 456 163Q471 195 485.5 215Q500 235 540 243Q556 246 591.5 246.5Q627 247 627 247Q647 246 645 262Q643 278 646 295Q651 325 647.5 333Q644 341 656 359Q655 362 650.5 370.5Q646 379 642 384Q626 396 638.5 411Q651 426 657 445Q646 432 651.5 446Q657 460 659 468Q649 466 652 467.5Q655 469 656 476Q647 480 660.5 501.5Q674 523 655 514Q655 519 664 523Q673 527 667 534Q671 549 665.5 564Q660 579 663 595Q656 605 671 616Q686 627 687 640Q685 653 680 644.5Q675 636 681 654Q681 678 673.5 662Q666 646 678 678Q683 689 684.5 698.5Q686 708 672 698Q672 713 685.5 722Q699 731 707 750Q728 783 757.5 820Q787 857 822 872Q821 863 836 874Q851 885 847 869Q861 884 875 885.5Q889 887 909 886Q903 877 911.5 878Q920 879 923 875Q928 863 935.5 868.5Q943 874 946 882Q955 891 971.5 880.5Q988 870 1004 876Q997 862 1008.5 861Q1020 860 1016 848Q1026 852 1022.5 848Q1019 844 1021 839Q1022 835 1015.5 829Q1009 823 1011 811Q1009 804 1013.5 802.5Q1018 801 1009 796Q1020 798 1022 794.5Q1024 791 1022 784Q1028 774 1019.5 766.5Q1011 759 1016 748Q1010 740 1008 744Q1006 748 1003 730Q1007 731 1013 733.5Q1019 736 1015 729Q1021 731 1019 728.5Q1017 726 1018 725Q1018 722 1020.5 718Q1023 714 1020 711Q1013 706 1015.5 700Q1018 694 1015 687Q1011 676 999.5 678.5Q988 681 984 686Q981 689 980.5 694.5Q980 700 975 704Q966 709 953 711Q940 713 937 704Q935 695 931.5 684.5Q928 674 924 676Q917 678 909.5 679Q902 680 900 676Q897 659 890 644Q883 629 872 614Q869 608 863.5 605Q858 602 859 596Q859 594 855.5 592Q852 590 852 587Q858 581 853.5 577Q849 573 859 570Q864 570 862 568Q860 566 860 564Q864 561 863.5 558.5Q863 556 860 553Q860 552 863 550Q866 548 863 546Q854 543 858.5 537Q863 531 856 526Q856 526 857 523.5Q858 521 857 520Q842 514 843.5 502.5Q845 491 840 485Q839 483 838 482Q837 481 840 479Q841 478 837.5 472Q834 466 839 465Q845 462 840 454.5Q835 447 848 445Q847 440 840.5 435Q834 430 841 426Q841 423 839.5 416.5Q838 410 834 407Q834 399 832.5 392Q831 385 825 378Q829 375 828 372Q827 369 828 365Q830 359 835.5 364Q841 369 835 358Q830 354 833.5 352.5Q837 351 834 346Q834 345 834 344Q834 343 830 341Q840 340 834 336Q828 332 831 325Q827 317 831 306.5Q835 296 824 293Q820 292 822 286Q824 280 827 281Q825 273 820 265Q815 257 815 248Q825 244 815.5 240Q806 236 817 233Q817 230 813 230Q809 230 813 225Q811 224 810 217.5Q809 211 809 206Q810 202 807.5 198.5Q805 195 804 191Q808 187 806.5 184Q805 181 803 176Q811 175 805 172Q799 169 802 164Q806 144 798 125.5Q790 107 791 86Q778 93 776.5 99.5Q775 106 767 99Q764 106 766.5 122.5Q769 139 762 128Q754 116 766 141.5Q778 167 771 175Q769 178 774.5 185Q780 192 772 192Q771 198 775 204.5Q779 211 781 217Q782 250 778 241.5Q774 233 734 223Q744 222 738.5 213.5Q733 205 739 204Q742 204 743 203.5Q744 203 742 200Q739 191 739.5 180.5Q740 170 735 160Q735 155 736.5 152Q738 149 733 146Q731 137 729 128Q727 119 727 108Q729 94 718.5 102Q708 110 703 100Q708 113 701 108Q694 103 702 124Q712 160 696.5 145.5Q681 131 701 153Q707 156 706 171.5Q705 187 698 174Q697 180 705 189Q713 198 696 189Q692 194 698 202Q704 210 694 199Q694 203 691.5 206Q689 209 695 212Q681 210 678 207.5Q675 205 674 189Q667 179 671.5 173.5Q676 168 671 159Q673 157 675.5 157Q678 157 678 153Q680 139 677.5 128Q675 117 662 104Q654 102 650.5 106.5Q647 111 647 121Q632 100 640 117Q648 134 633 119Q639 132 637.5 135.5Q636 139 627 134Q630 142 634 148.5Q638 155 630 163Q632 168 635.5 173.5Q639 179 638 185Q643 196 649.5 207.5Q656 219 635 218ZM546 255L490 289Q487 291 484.5 289.5Q482 288 479 286Q465 264 427 248Q389 232 354 268Q338 282 333 286.5Q328 291 321 282Q300 254 271.5 244Q243 234 222 248Q203 259 187.5 269.5Q172 280 160 289Q158 291 156 290.5Q154 290 153 288Q125 240 95.5 232Q66 224 46 245Q35 256 25 267Q15 278 5 289Q0 296 0 302Q0 308 11 311Q17 312 22 312Q27 312 30 307Q40 294 51 281.5Q62 269 74 258Q94 240 100.5 253.5Q107 267 127 292Q132 301 150 311Q168 321 187 305Q210 289 237.5 269.5Q265 250 273 261Q285 273 291.5 282.5Q298 292 306 298Q328 314 343 309.5Q358 305 377 285Q388 275 402.5 266.5Q417 258 430 263Q437 266 443 275Q449 284 459 298Q463 305 478.5 311.5Q494 318 508 309L576 269Q597 259 579.5 250.5Q562 242 546 255Z" fill="#d28445" />
  </g>
</svg>