<?xml version="1.0" encoding="UTF-8"?>
<svg width="16" height="16" viewBox="0 0 16 16" xmlns="http://www.w3.org/2000/svg">
  <g transform="translate(0.5051236979166666, 14.557281115301725) scale(0.01462890625, -0.01462890625)">
    <path d="M230 260L229 724Q229 727 229 730Q229 733 231 733Q232 732 331 634Q429 536 547 418Q665 300 763 202Q861 104 861 104Q863 102 864.5 101Q866 100 867 99Q868 97 866 95.5Q864 94 856 91L744 41Q742 40 740 40.5Q738 41 735 41L257 210Q235 217 233.5 222.5Q232 228 230 260ZM238 738L697 738Q710 738 726 736.5Q742 735 746 731Q748 728 775 651Q803 574 835 482Q867 390 895 312Q922 235 923 232Q924 229 924 226.5Q924 224 922 222L871 106Q870 104 869 102.5Q868 101 866 103Q866 103 797 172Q728 241 629.5 339Q531 437 423 545Q315 654 237 732Q232 736 232 737Q232 738 238 738ZM753 743L729 809Q728 812 726.5 814Q725 816 723 818L605 936Q592 947 574.5 955.5Q557 964 536 958Q535 957 484 924Q434 891 374.5 851.5Q315 812 266 780Q217 747 217 747L721 747Q731 747 738.5 745.5Q746 744 752 741Q752 739 780 660Q808 581 841.5 486Q875 391 904 309Q932 228 935 221Q936 219 935.5 217Q935 215 934 213Q934 213 906.5 152Q879 91 879 87L880 87Q880 87 945.5 107.5Q1011 128 1017 130Q1020 131 1020 132Q1020 133 1020 136L1021 518Q1021 520 1020 522Q1019 524 1017 525Q994 548 966 577Q938 605 912.5 631Q887 657 868 675Q849 694 845 698Q825 712 802.5 724Q780 736 753 743ZM750 29Q748 28 746 28Q744 28 742 29Q736 31 654 60Q572 89 476.5 122.5Q381 156 302 184Q223 212 223 212Q223 213 222.5 213.5Q222 214 222 215Q219 224 218 238Q217 252 217 270L217 740Q217 741 217 742.5Q217 744 216 746L9 435Q1 422 5 400Q9 378 30 356L146 239Q147 238 149 236.5Q151 235 153 235L221 211Q225 195 231.5 180Q238 165 246 150Q252 138 259.5 127Q267 116 277 107L445 -61Q447 -62 448.5 -62.5Q450 -63 452 -63L825 -64Q829 -64 829.5 -63.5Q830 -63 831 -60L878 86L750 29Z" fill="#75b5aa" />
  </g>
</svg>