<?xml version="1.0" encoding="UTF-8"?>
<svg width="16" height="16" viewBox="0 0 16 16" xmlns="http://www.w3.org/2000/svg">
  <g transform="translate(0.5137134915865382, 14.554053977272726) scale(0.01462890625, -0.01462890625)">
    <path d="M918 550Q869 550 841 524.5Q813 499 773 481Q734 463 705.5 470Q677 477 663 502Q649 528 662.5 552Q676 576 723 602Q771 628 793 614Q815 600 871 634Q926 667 914.5 718.5Q903 770 892 791Q880 813 833.5 832Q787 851 734 810Q681 768 684 715.5Q687 663 671 631Q655 599 621.5 589Q588 579 568 589Q549 599 545.5 632.5Q542 666 550 699Q558 733 585 748.5Q612 764 631 823Q645 864 616 910Q587 956 539 960Q492 963 458 938.5Q424 914 418 873Q407 792 436.5 776Q466 760 484 712Q493 688 493.5 653.5Q494 619 468 599Q443 580 407 604.5Q371 629 361 655Q351 680 350 739.5Q349 799 321 820Q294 842 253.5 851.5Q213 861 166 825Q119 790 130.5 728Q142 666 166 652Q221 620 265 619Q309 618 330 606Q359 590 370 569Q381 548 371 521Q354 472 325.5 479Q297 486 271 484Q246 482 211.5 523Q177 564 129 576Q106 582 60.5 559Q15 536 3 479Q3 415 31 384.5Q59 354 130 350Q169 348 206 388.5Q243 429 283 430Q305 430 328 431.5Q351 433 362 405Q381 357 360.5 339.5Q340 322 321 305Q292 280 247.5 286.5Q203 293 163 266Q132 245 116 197.5Q100 150 148 95Q168 73 219.5 63Q271 53 307 105Q341 154 338.5 198.5Q336 243 364 276Q368 280 399.5 307Q431 334 464 301Q482 283 484.5 248.5Q487 214 471 174Q460 149 431.5 140.5Q403 132 394 65Q392 55 398.5 3Q405 -49 482 -63Q517 -69 557.5 -47Q598 -25 610 22Q629 94 589 125.5Q549 157 536 189Q522 221 523.5 242.5Q525 264 558 299Q576 319 615 298Q654 277 666 252Q684 214 677 175Q670 136 703 93Q725 64 775.5 52Q826 40 874 94Q897 119 905 157Q913 195 869 245Q847 270 804.5 274Q762 278 710 293Q685 300 663 330Q641 360 650 386Q658 405 683 414.5Q708 424 744 415Q798 404 826 369.5Q854 335 897 329Q952 321 984.5 355Q1017 389 1020 429Q1024 482 995.5 516Q967 550 918 550ZM510 366Q477 366 453 389.5Q429 413 429 447Q429 481 453 504.5Q477 528 510 528Q544 528 568 504.5Q592 481 592 447Q592 413 568 389.5Q544 366 510 366Z" fill="#66783e" />
  </g>
</svg>