<?xml version="1.0" encoding="UTF-8"?>
<svg width="16" height="16" viewBox="0 0 16 16" xmlns="http://www.w3.org/2000/svg">
  <g transform="translate(1.463892187499999, 13.690346679687499) scale(0.012714843750000001, -0.012714843750000001)">
    <path d="M611 275Q557 218 480 236Q403 254 380 330Q357 405 411.5 463Q466 521 543 503Q586 540 640 586Q693 631 747.5 677.5Q802 724 854 766Q905 809 944 841Q972 864 988.5 846.5Q1005 829 984 802Q953 763 910 712Q867 660 820.5 605.5Q774 551 729 497Q683 443 645 400Q652 368 644.5 335Q637 302 611 275ZM865 448Q865 471 845.5 482Q826 493 806 482Q787 471 787 448Q787 425 806 414Q826 403 845.5 414Q865 425 865 448ZM275 605Q275 628 255.5 639.5Q236 651 216 639Q197 628 197 605.5Q197 583 216 571Q236 560 255.5 571.5Q275 583 275 605ZM236 448Q236 471 216.5 482Q197 493 177 482Q157 471 157 448Q157 425 177 414Q197 403 216.5 414Q236 425 236 448ZM393 723Q393 746 373.5 757.5Q354 769 334 758Q315 746 315 723.5Q315 701 334 689Q354 678 373.5 689.5Q393 701 393 723ZM708 723Q708 746 688.5 757.5Q669 769 649 758Q629 746 629 723.5Q629 701 649 689Q669 678 688.5 689.5Q708 701 708 723ZM551 763Q551 785 531 796.5Q511 808 492 797Q472 786 472 763Q472 740 492 729Q511 717 531 728.5Q551 740 551 763ZM890 553Q908 488 903 421Q899 354 873 292.5Q847 231 800 179Q752 128 685 95Q583 45 479 56Q375 66 292.5 121.5Q210 177 161 270Q111 362 119 475Q127 588 188 673Q249 757 338 801Q427 845 532 841Q636 838 730 775L828 850Q713 941 578 956Q443 971 322.5 923Q202 875 115 772Q27 668 6 522Q-16 377 39 252Q94 128 195.5 47.5Q297 -33 430 -57Q564 -82 701 -27Q808 15 881 93Q953 171 988.5 266.5Q1024 362 1022 465Q1019 569 975 664L890 553Z" fill="#90a959" />
  </g>
</svg>