<?xml version="1.0" encoding="UTF-8"?>
<svg width="16" height="16" viewBox="0 0 16 16" xmlns="http://www.w3.org/2000/svg">
  <g transform="translate(2.0150000000000006, 12.9875) scale(0.015585937499999999, -0.015585937499999999)">
    <path d="M384 -128Q221 -127 112.5 -90.5Q4 -54 0 0L0 128Q1 145 14 160Q48 118 148 91.5Q248 65 384 65Q520 65 620 91.5Q720 118 754 160Q767 145 768 128L768 0Q764 -54 655.5 -90.5Q547 -127 384 -128ZM384 128Q221 129 112.5 165.5Q4 202 0 256L0 384Q0 394 6 404L6 404Q9 410 14 416Q48 374 148 347.5Q248 321 384 321Q520 321 620 347.5Q720 374 754 416Q759 410 762 404L762 404Q768 394 768 384L768 256Q764 202 655.5 165.5Q547 129 384 128ZM384 384Q221 385 112.5 421.5Q4 458 0 512L0 640Q4 694 112.5 730.5Q221 767 384 768Q547 767 655.5 730.5Q764 694 768 640L768 512Q764 458 655.5 421.5Q547 385 384 384ZM384 704Q275 703 203 685Q131 667 128 640Q131 613 203 595Q275 577 384 577Q493 577 565 595Q637 613 640 640Q637 667 565 685Q493 703 384 704Z" fill="#7f7f7f" />
  </g>
</svg>