<?xml version="1.0" encoding="UTF-8"?>
<svg width="16" height="16" viewBox="0 0 16 16" xmlns="http://www.w3.org/2000/svg">
  <g transform="translate(0.4894203522245748, 14.548727825632124) scale(0.01462890625, -0.01462890625)">
    <path d="M409 645Q356 611 310 576Q264 541 223.5 503.5Q183 466 149 426Q115 386 87 343L10 413Q-1 430 0 448Q1 466 19 483L300 744Q331 734 365 712.5Q399 691 430 668Q430 663 423.5 656.5Q417 650 409 645ZM164 274Q201 240 235 208Q270 176 301.5 146Q333 116 363 88Q392 61 419 36Q457 0 470 -17.5Q483 -35 531 -33L656 85Q624 83 579 106Q534 129 481 172.5Q428 216 371 276Q313 337 257 409Q221 373 195.5 338Q170 303 164 274ZM704 509Q729 528 750.5 557Q772 586 790 623Q796 645 794 664.5Q792 684 776 697L545 911Q530 928 513 928.5Q496 929 476 916L375 820Q421 795 464 762Q507 728 548 688.5Q589 649 627 603Q666 558 704 509ZM755 178Q788 202 821 230Q854 259 885.5 288Q917 317 945 345Q973 372 994 393Q1038 434 1023 456Q1008 478 1008 478L882 601Q872 560 842 517Q812 474 766.5 429.5Q721 385 663 340Q605 294 540 248Q540 248 561 229Q583 209 615 190Q647 171 685 163Q723 155 755 178Z" fill="#ac4142" />
  </g>
</svg>