<?xml version="1.0" encoding="UTF-8"?>
<svg width="16" height="16" viewBox="0 0 16 16" xmlns="http://www.w3.org/2000/svg">
  <g transform="translate(2.4013671875, 14.125) scale(0.013671875, -0.013671875)">
    <path d="M480 -64L317 -29L154 77L36 258L4 423L0 560Q0 560 10 608Q20 656 27 670Q34 684 67 735.5Q100 787 100 787L222 892L389 960L502 955L617 931L711 883L788 770Q788 770 795.5 738Q803 706 806 693Q809 679 814 618Q819 557 819 557L774 425L679 330L552 276L421 317L339 389L308 502L339 607L421 679L516 689L584 652L634 579L548 647L493 661L430 643L394 607L357 548L357 457L403 394L489 339L575 339L665 385L711 448Q711 448 724.5 485.5Q738 523 738 543Q738 564 737 599.5Q736 635 729 652Q722 669 698.5 717Q675 765 675 765Q675 765 652 784.5Q629 804 616 811Q602 817 570 830Q538 843 538 843Q538 843 501.5 849.5Q465 856 448 856Q431 856 385 842.5Q339 829 339 829L244 779L158 715L99 611L81 507L86 407L95 330L131 249L176 158L312 13L415 -41L480 -64Z" fill="#ac4142" />
  </g>
</svg>