<?xml version="1.0" encoding="UTF-8"?>
<svg width="16" height="16" viewBox="0 0 16 16" xmlns="http://www.w3.org/2000/svg">
  <g transform="translate(1.1577734375000004, 14.9825) scale(0.015585937499999999, -0.015585937499999999)">
    <path d="M376 322L368 360L720 603L755 398L376 322ZM679 26Q675 -15 626.5 -39.5Q578 -64 578 -64L409 303L461 311Q522 236 582.5 200Q643 164 679 26ZM469 23Q415 34 373.5 38Q332 42 302 42Q267 42 244.5 38Q222 34 209 30L261 148Q261 148 293 167.5Q325 187 454 167L497 74L469 23ZM161 512L63 707L169 813L218 597Q202 580 188 559Q174 538 161 512ZM612 666L878 889L679 960L489 701Q519 698 551.5 687.5Q584 677 612 666ZM472 702L620 960L427 960L348 684Q377 694 408 698.5Q439 703 472 702ZM335 680L363 918L209 854L231 610Q251 629 276.5 646.5Q302 664 335 680ZM139 299L8 340L38 250L155 250Q150 262 146 274.5Q142 287 139 299ZM161 235L63 220L109 151L189 187Q181 198 174 210Q167 222 161 235ZM131 405L8 484L0 373L134 327Q131 346 130.5 365.5Q130 385 131 405ZM148 492L52 629L8 522L131 418L148 492ZM243 148Q255 187 320.5 190Q386 193 446 185L389 308L364 303L350 368L678 594Q599 661 528 678Q457 694 398.5 681.5Q340 669 297 639Q253 610 230 585Q199 551 175 502Q150 452 145.5 393.5Q141 335 162 272Q184 208 243 148Z" fill="#ac4142" />
  </g>
</svg>