<?xml version="1.0" encoding="UTF-8"?>
<svg width="16" height="16" viewBox="0 0 16 16" xmlns="http://www.w3.org/2000/svg">
  <g transform="translate(0.019218334441488103, 14.985702423095702) scale(0.015585937499999999, -0.015585937499999999)">
    <path d="M405 672Q360 663 309.5 648.5Q259 634 219 611Q219 611 223.5 608.5Q228 606 234 600Q238 596 239 590.5Q240 585 237 578Q235 573 231.5 569Q228 565 221 566Q211 567 205.5 572Q200 577 199 584Q199 587 199 592Q199 597 202 601Q177 582 157.5 555Q138 528 127 501Q123 491 123.5 480.5Q124 470 125 460Q131 423 160.5 399.5Q190 376 219 370Q240 366 261.5 364Q283 362 304 360Q351 357 395.5 368Q440 379 484 394Q493 397 504 401.5Q515 406 520 391Q525 376 513.5 373Q502 370 491 367Q469 362 463.5 353Q458 344 461 323Q467 278 470.5 233.5Q474 189 470 145Q470 140 467 107.5Q464 75 461 59Q458 42 449.5 30.5Q441 19 421 21Q389 24 366.5 31.5Q344 39 327 42Q289 50 256 72.5Q223 95 198 122Q184 136 171 150Q158 164 142 177Q121 195 106.5 219Q92 243 78 267Q42 328 22 395Q2 462 0 534Q-1 592 21.5 639.5Q44 687 85 728Q139 781 205.5 811Q272 841 344 861Q418 882 487.5 873Q557 864 626 839Q652 830 678 822Q704 814 729 803Q788 775 840 737Q892 699 938 654Q968 626 989 593Q1010 560 1019 520Q1025 490 1024 460Q1023 430 1018 400Q1009 343 988 290.5Q967 238 931 191Q911 164 886.5 140.5Q862 117 835 97Q815 82 795.5 66Q776 50 755 36Q754 39 754 43Q754 47 756 51Q762 64 762.5 78.5Q763 93 763 110Q758 165 751.5 222.5Q745 280 742 338Q739 403 716.5 460Q694 517 658 569Q640 594 622.5 616Q605 638 576 654Q536 672 513 677.5Q490 683 405 672ZM335 592Q324 591 315 586.5Q306 582 305 569Q304 557 310 552Q316 547 327 547Q339 546 347 551Q355 556 356 569Q356 580 350.5 586Q345 592 335 592Z" fill="#7f7f7f" />
  </g>
</svg>