<?xml version="1.0" encoding="UTF-8"?>
<svg width="16" height="16" viewBox="0 0 16 16" xmlns="http://www.w3.org/2000/svg">
  <g transform="translate(0.059375000000001066, 15.411249999999999) scale(0.016542968749999998, -0.016542968749999998)">
    <path d="M923 686L525 947Q504 960 480 960Q456 960 435 947L37 686Q20 674 10 656Q0 638 0 617L0 279Q0 258 10 240Q20 222 37 210L435 -51Q456 -64 480 -64Q504 -64 525 -51L923 210Q940 222 950 240Q960 258 960 279L960 617Q960 638 950 656Q940 674 923 686ZM796 304L736 304L736 236Q736 223 726.5 213.5Q717 204 704 204L256 204Q243 204 233.5 213.5Q224 223 224 236L224 304L164 304L164 464L224 464L224 576Q224 589 233.5 598.5Q243 608 256 608L507 608L507 667L428 667L428 786L546 786L546 608L704 608Q717 608 726.5 598.5Q736 589 736 576L736 464L796 464L796 304ZM568 356Q571 352 576.5 352Q582 352 586 356L673 443Q677 447 677 452Q677 457 673 461L659 475Q655 479 650 479Q645 479 641 475L577 411L549 438Q545 442 540 442Q535 442 531 438L517 424Q513 421 513 415.5Q513 410 517 406L568 356ZM354 356Q357 352 362.5 352Q368 352 372 356L459 443Q463 447 463 452Q463 457 459 461L445 475Q441 479 436 479Q431 479 427 475L363 411L335 438Q331 442 326 442Q321 442 317 438L303 424Q299 421 299 415.5Q299 410 303 406L354 356Z" fill="#6a9fb5" />
  </g>
</svg>