<?xml version="1.0" encoding="UTF-8"?>
<svg width="16" height="16" viewBox="0 0 16 16" xmlns="http://www.w3.org/2000/svg">
  <g transform="translate(-0.46999999999999886, 15.411249999999999) scale(0.016542968749999998, -0.016542968749999998)">
    <path d="M850 457Q821 420 774.5 424.5Q728 429 707 469L605 412L605 104L772 104L772 90L246 90L246 104L417 104L417 241L313 299Q289 263 244 262.5Q199 262 174 300Q148 340 170 383Q192 426 240 429Q285 431 311.5 393.5Q338 356 321 314L433 251L433 104L505 104L505 415L369 492Q340 458 295 464.5Q250 471 231 512Q211 556 239 595Q267 634 315 630Q360 625 380.5 585Q401 545 380 506L505 435L505 575Q459 579 438.5 620.5Q418 662 442 702Q468 742 516 740.5Q564 739 587 697Q608 657 586 618Q564 579 521 575L521 104L589 104L589 423L701 486Q688 528 717.5 563.5Q747 599 793 593Q841 586 860 541Q879 496 850 457ZM946 698L946 541L1024 541L1024 527L946 527L946 369L1024 369L1024 355L946 355L946 198L1024 198L1024 184L946 184L946 13L776 13L776 -64L762 -64L762 13L605 13L605 -64L591 -64L591 13L433 13L433 -64L419 -64L419 13L262 13L262 -64L248 -64L248 13L80 13L80 184L0 184L0 198L80 198L80 355L0 355L0 369L80 369L80 527L0 527L0 541L80 541L80 698L0 698L0 712L80 712L80 879L248 879L248 960L262 960L262 879L419 879L419 960L433 960L433 879L591 879L591 960L605 960L605 879L762 879L762 960L776 960L776 879L946 879L946 712L1024 712L1024 698L946 698ZM932 865L94 865L94 27L932 27Z" fill="#d28445" />
  </g>
</svg>