<?xml version="1.0" encoding="UTF-8"?>
<svg width="16" height="16" viewBox="0 0 16 16" xmlns="http://www.w3.org/2000/svg">
  <g transform="translate(3.9843196614583336, 15.40680562033582) scale(0.016542968749999998, -0.016542968749999998)">
    <path d="M38 -54Q0 -32 0 12Q0 56 38 78Q76 99 114 77.5Q152 56 152 12Q152 -32 114 -54Q76 -76 38 -54ZM162 906L187 899Q182 886 165 847Q149 808 126 759.5Q103 711 76 662Q50 612 24 579Q40 523 52 443Q65 362 74 288Q83 214 87 161Q92 109 92 109L190 474Q171 484 166.5 506.5Q162 529 178 546Q197 565 222.5 558.5Q248 552 255 527Q262 504 247.5 486Q233 468 210 468L112 104Q112 104 143 149Q174 194 219 255Q264 316 315 379Q366 442 406 476Q403 520 404 577Q406 633 410 686Q414 739 419 780Q423 822 425 836L451 829Q477 822 484 848.5Q491 875 465 882L176 959Q150 966 143 939.5Q136 913 162 906Z" fill="#7f7f7f" />
  </g>
</svg>