<?xml version="1.0" encoding="UTF-8"?>
<svg width="16" height="16" viewBox="0 0 16 16" xmlns="http://www.w3.org/2000/svg">
  <g transform="translate(0.5099999999999998, 14.55375) scale(0.01462890625, -0.01462890625)">
    <path d="M539 699L328 279L761 278ZM536 504L610 363L467 364L536 504ZM328 687L102 687L102 935L328 935ZM327 184L216 -39L102 184L147 184L147 664L282 664L282 184L327 184ZM536 75L292 74L348 188L536 188Q631 192 702 217Q773 242 819.5 279.5Q866 317 889 364Q911 411 910 460Q909 508 885 554Q861 601 814.5 638.5Q768 676 698 701Q629 726 537 732L350 732L350 845L537 845Q659 840 750 805Q842 770 902.5 716.5Q963 663 994 596Q1024 529 1024 460Q1024 391 993 324Q963 257 902 203.5Q841 150 750 116Q658 81 536 75ZM139 74L0 74L0 188L81 188L139 74ZM79 732L0 732L0 845L79 845Z" fill="#4d9085" />
  </g>
</svg>