<?xml version="1.0" encoding="UTF-8"?>
<svg width="16" height="16" viewBox="0 0 16 16" xmlns="http://www.w3.org/2000/svg">
  <g transform="translate(0.5099999999999998, 14.55375) scale(0.01462890625, -0.01462890625)">
    <path d="M594 960L594 418L691 157L756 157Q773 182 800.5 197.5Q828 213 860 213Q912 213 948.5 177Q985 141 985 89Q985 38 948.5 1.5Q912 -35 860 -35Q829 -35 803 -21Q777 -7 760 17L594 17L594 -64L1024 -64L1024 960L594 960ZM964 710L839 710L839 585L779 585L779 710L654 710L654 770L779 770L779 895L839 895L839 770L964 770ZM163 920Q195 920 222.5 904.5Q250 889 266 864L402 864L402 960L0 960L0 -64L402 -64L402 532L331 724L264 724Q247 700 220.5 686Q194 672 163 672Q111 672 74.5 708Q38 744 38 796Q38 847 74.5 883.5Q111 920 163 920ZM67 117L335 117L335 57L67 57ZM934 89Q934 59 912.5 37.5Q891 16 860 16Q839 16 821.5 27Q804 38 795 57L621 57L359 764L229 764Q220 746 202.5 734Q185 722 163 722Q132 722 110.5 743.5Q89 765 89 796Q89 826 110.5 847.5Q132 869 163 869Q185 869 203.5 856.5Q222 844 230 824L400 824L663 117L792 117Q800 137 818.5 150Q837 163 860 163Q891 163 912.5 141.5Q934 120 934 89Z" fill="#d28445" />
  </g>
</svg>