<?xml version="1.0" encoding="UTF-8"?>
<svg width="16" height="16" viewBox="0 0 16 16" xmlns="http://www.w3.org/2000/svg">
  <g transform="translate(0.5099999999999998, 14.546435546875) scale(0.01462890625, -0.01462890625)">
    <path d="M97 531Q146 598 195 650Q244 703 289 741Q334 779 373 803Q411 828 441 840Q556 888 635 888Q713 888 776 870.5Q839 853 896 833Q952 812 1024 820Q992 750 924 709Q856 668 746 670Q773 643 800.5 625.5Q828 608 857 599Q810 547 773 485Q736 422 708 349Q680 276 660 190Q641 105 630 7Q597 10 561 23Q526 35 490 56Q454 77 416 104Q379 132 340 166Q311 145 269.5 135.5Q228 126 171 133Q183 167 201.5 198.5Q220 230 243 260Q202 236 151.5 227Q101 218 45 219Q61 270 86.5 311.5Q112 353 146 385Q113 370 77 360Q41 350 0 344Q6 408 31 453.5Q56 499 97 531ZM739 806Q739 821 725.5 829Q712 837 698 829Q684 822 684 806Q684 790 698 782Q712 774 725.5 782Q739 790 739 806Z" fill="#d28445" />
  </g>
</svg>