<?xml version="1.0" encoding="UTF-8"?>
<svg width="16" height="16" viewBox="0 0 16 16" xmlns="http://www.w3.org/2000/svg">
  <g transform="translate(0.020000000000000462, 14.9825) scale(0.015585937499999999, -0.015585937499999999)">
    <path d="M531 452Q532 507 479.5 566.5Q427 626 272 619L182 619L182 277L275 278Q316 278 360 284Q404 290 441 308.5Q478 327 503 361Q528 395 531 452ZM926 830L98 830Q57 830 28.5 798.5Q0 767 0 722L0 174Q0 129 28.5 97.5Q57 66 98 66L926 66Q967 66 995.5 97.5Q1024 129 1024 174L1024 722Q1024 767 995.5 798.5Q967 830 926 830ZM615 644Q690 703 757.5 678Q825 653 852 599Q880 545 845.5 476.5Q811 408 708 410Q701 373 678 329Q655 286 609 249.5Q563 213 491 191Q419 168 315 172L119 172Q109 174 103 179Q97 184 97 196L96 704Q96 711 101.5 716.5Q107 722 115 723L328 724Q429 723 494.5 705.5Q560 688 615 644ZM862 657Q838 669 838 694.5Q838 720 862 732Q885 745 909 732.5Q933 720 933 695Q933 670 909 657Q885 644 862 657Z" fill="#ac4142" />
  </g>
</svg>