<?xml version="1.0" encoding="UTF-8"?>
<svg width="16" height="16" viewBox="0 0 16 16" xmlns="http://www.w3.org/2000/svg">
  <g transform="translate(0.0335877403846169, 14.97561494993932) scale(0.015585937499999999, -0.015585937499999999)">
    <path d="M673 960Q665 960 655 956Q645 952 634 942Q599 893 588 850Q576 806 580.5 760.5Q585 715 600 664Q616 613 635 551Q656 484 656 430Q657 375 634 340.5Q611 306 564 296Q516 286 441 307L469 217Q560 203 617 226Q673 248 702 292Q731 336 735 394Q740 452 728 509Q694 665 668 733Q642 801 708 901Q716 918 705.5 939Q695 960 673 960ZM754 869Q742 862 737 850.5Q732 839 732 817Q781 776 822.5 723.5Q864 671 896 631Q884 623 869 618Q854 613 838 615Q822 637 787 678Q752 719 721 748Q724 721 729.5 699.5Q735 678 737 655Q785 601 795 574Q805 547 805 547Q867 544 917.5 566.5Q968 589 1003 620Q1022 636 1002 663Q982 690 949 660Q903 716 855.5 769.5Q808 823 754 869ZM484 688Q435 688 395 671Q354 654 325 623.5Q296 593 281 552Q266 511 268 462Q276 378 303.5 316Q331 254 337 186L282 249Q265 250 250 250.5Q235 251 218 241L335 117Q332 103 328 88Q324 73 318 57Q284 90 244 136.5Q204 183 159 231Q134 225 120 214Q106 203 106 203L293 2Q256 -38 296.5 -57.5Q337 -77 365 -45Q414 12 424 74Q435 135 424 199.5Q413 264 391 329Q369 395 353 460L448 356Q473 342 501.5 341.5Q530 341 543 349L360 538Q367 554 376 560.5Q385 567 402 576L580 390Q589 406 596 424.5Q603 443 587 477L471 605Q486 610 514.5 602.5Q543 595 569 587L541 681Q526 684 511.5 686Q497 688 484 688ZM197 360Q129 361 87.5 337.5Q46 314 14 286Q-15 260 10 229Q35 198 67 222Q108 258 148.5 276Q189 294 255 290L239 357Q228 358 217.5 359Q207 360 197 360Z" fill="#ff00cc" />
  </g>
</svg>