<?xml version="1.0" encoding="UTF-8"?>
<svg width="16" height="16" viewBox="0 0 16 16" xmlns="http://www.w3.org/2000/svg">
  <g transform="translate(-0.003105468749998435, 14.980939085187082) scale(0.015585937499999999, -0.015585937499999999)">
    <path d="M386 783Q396 775 402 770Q408 765 412 764Q396 787 378 811.5Q360 836 342 852Q297 893 243.5 901.5Q190 910 126 879Q118 876 112.5 868.5Q107 861 107 857Q106 852 107 846Q108 840 108 840Q89 802 59 790.5Q29 779 19 775Q7 771 2 759.5Q-3 748 4 737Q5 741 8 744.5Q11 748 16 751Q39 743 70.5 749.5Q102 756 130 757Q143 741 176 735Q209 729 225 715Q227 711 228 707Q229 703 228 700Q221 689 210 685.5Q199 682 188 680Q159 674 132.5 654.5Q106 635 89 611Q66 579 69 543Q73 508 96 470Q119 432 158 392Q196 352 244 311Q314 234 373.5 185Q433 136 497 105Q497 97 498.5 90.5Q500 84 499 78Q501 62 481 70Q461 78 437 89Q428 93 419.5 94Q411 95 403 86Q417 87 420 84.5Q423 82 421 73Q412 72 403 72.5Q394 73 385 62Q382 61 373 60.5Q364 60 349 60Q341 61 337 55.5Q333 50 330 46Q330 46 335 47.5Q340 49 343 50Q345 51 352 52Q359 53 359 49Q358 45 359.5 41Q361 37 376 39Q376 39 377.5 33.5Q379 28 383 25Q377 23 361.5 26.5Q346 30 341 17Q341 17 364 13Q387 9 420 1Q453 -7 476.5 -7.5Q500 -8 504 0Q508 8 510.5 12Q513 16 513 16Q513 16 519 18Q525 20 527 16Q530 12 535 9Q540 6 540 2Q540 -1 542 -2.5Q544 -4 544 -4Q544 -4 547.5 1.5Q551 7 549 12Q548 17 543.5 24Q539 31 539 37Q539 40 544 51.5Q549 63 558 78Q567 93 575.5 102.5Q584 112 584 129Q592 130 622 131Q652 132 687 132.5Q722 133 751 133Q781 134 787 132Q799 129 819 116.5Q839 104 861 103Q872 97 878.5 88.5Q885 80 897 73Q931 55 964.5 40Q998 25 1022 44Q1035 55 991 104Q947 153 946 154Q941 158 942.5 162Q944 166 942 170Q923 195 902.5 209Q882 223 867 245Q848 273 835.5 298Q823 323 784 352Q729 406 672 451Q614 497 553 530Q492 563 427 582Q362 601 294 602Q323 627 333.5 649Q344 671 343 703Q346 687 349 666Q352 645 348 635Q348 635 351.5 648Q355 661 357 680Q359 671 360 661Q361 651 361 639Q363 650 363.5 661Q364 672 364 683Q367 676 369 664.5Q371 653 368 638Q363 605 367.5 622.5Q372 640 372 640Q372 640 373.5 645Q375 650 377 659Q378 653 379 645Q380 637 379 633Q379 633 380 638Q381 643 382 651Q384 645 385 639.5Q386 634 386 630Q386 630 386.5 639.5Q387 649 385 662Q389 655 392 646Q395 637 395 630Q395 630 395 640Q395 650 393 662Q398 656 402.5 651.5Q407 647 410 645Q410 645 404 656.5Q398 668 393 679Q399 674 403 669.5Q407 665 408 663Q412 660 406 670Q400 680 395 691Q410 674 417.5 671Q425 668 425 668Q425 668 417.5 677.5Q410 687 402 700Q409 693 415 689.5Q421 686 421 686Q421 686 415.5 692Q410 698 403 706Q408 704 412 702.5Q416 701 420 701Q420 701 413.5 707Q407 713 399 722Q406 718 411.5 717.5Q417 717 426 718Q415 721 406 726.5Q397 732 395 735Q393 738 390 744.5Q387 751 387 751Q399 732 408.5 728Q418 724 415 727Q412 730 403 740Q394 750 396 750Q398 750 404 745.5Q410 741 408 743Q405 746 400 754.5Q395 763 395 764Q395 765 405 755Q415 745 417 744Q418 742 421 743Q424 744 419 746Q414 749 400 766Q386 783 386 783Z" fill="#75b5aa" />
  </g>
</svg>