<?xml version="1.0" encoding="UTF-8"?>
<svg width="16" height="16" viewBox="0 0 16 16" xmlns="http://www.w3.org/2000/svg">
  <g transform="translate(-0.4746751868206509, 15.411249999999999) scale(0.016542968749999998, -0.016542968749999998)">
    <path d="M720 699L400 699Q386 699 386 684Q386 669 400 669L720 669Q735 669 735 684Q735 699 720 699ZM331 699L280 699Q265 699 265 684Q265 669 280 669L331 669Q346 669 346 684Q346 699 331 699ZM437 239L280 239Q265 239 265 224Q265 209 280 209L437 209Q452 209 452 224Q452 239 437 239ZM500 393L280 393Q265 393 265 378Q265 363 280 363L500 363Q515 363 515 378Q515 393 500 393ZM607 546L280 546Q265 546 265 531Q265 516 280 516L607 516Q622 516 622 531Q622 546 607 546ZM792 748L792 620Q792 605 807 605Q822 605 822 620L822 733L976 733Q983 733 987 738Q991 743 991 748Q991 793 962 823Q933 853 891 853L271 853Q230 853 200.5 824Q171 795 171 753L171 163L15 163Q9 163 4.5 158.5Q0 154 0 148Q0 103 28.5 73Q57 43 100 43L722 43Q763 43 792.5 72Q822 101 822 143L822 325Q822 339 807 339Q792 339 792 325L792 143Q788 74 720.5 73Q653 72 650 148Q650 154 646 158.5Q642 163 635 163L201 163L201 753Q201 782 221.5 802.5Q242 823 271 823L820 823Q806 808 798.5 789.5Q791 771 792 748ZM649 73L100 73Q74 73 55 89.5Q36 106 31 133L621 133Q624 115 631 100Q638 85 649 73ZM539 222Q535 207 549 203.5Q563 200 568 214L591 297Q664 331 709.5 335.5Q755 340 847 406Q882 432 924.5 471Q967 510 1019 565Q1027 572 1023.5 581.5Q1020 591 1009 591Q962 592 910 587Q858 581 807.5 567Q757 553 713 529Q668 505 637 470Q605 434 583.5 370.5Q562 307 539 222ZM879 552Q811 519 746 475Q681 431 617 376Q640 444 704 489Q768 534 879 552ZM626 343Q665 377 705 409Q746 440 787.5 467Q829 494 872 515Q915 537 959 553Q921 515 887 481.5Q853 448 819 424Q755 379 713 368.5Q671 358 626 343ZM960 763L822 763Q832 822 890.5 823Q949 824 960 763Z" fill="#ee9e2e" />
  </g>
</svg>