<?xml version="1.0" encoding="UTF-8"?>
<svg width="16" height="16" viewBox="0 0 16 16" xmlns="http://www.w3.org/2000/svg">
  <g transform="translate(-1.0300000000000011, 15.901250000000001) scale(0.017636718750000002, -0.017636718750000002)">
    <path d="M798 492Q774 516 770.5 572.5Q767 629 798 660L810 674L822 662Q851 639 868 612.5Q885 586 889 557Q929 569 961 562.5Q993 556 1024 537Q1004 495 968.5 471Q933 447 864 450Q833 372 784 311Q735 249 669 206.5Q603 164 520 141Q437 118 337 117Q285 117 240 126Q195 136 157.5 155Q120 174 89 204Q59 233 36 272Q11 319 4 359.5Q-3 400 2 464L91 464L91 571L196 571L196 676L406 676L406 779L531 779L531 571L636 571L636 464Q690 463 727 468Q764 473 798 492ZM186 547L192 547L192 470L186 470ZM172 547L180 547L180 470L172 470ZM158 547L166 547L166 470L158 470ZM144 547L152 547L152 470L144 470ZM131 547L137 547L137 470L131 470ZM117 547L123 547L123 470L117 470L117 547ZM109 553L109 462L200 462L200 553ZM291 650L297 650L297 575L291 575ZM277 650L283 650L283 575L277 575ZM263 650L271 650L271 575L263 575ZM249 650L257 650L257 575L249 575L249 650ZM234 650L242 650L242 575L234 575ZM222 650L228 650L228 575L222 575ZM214 658L214 567L305 567L305 658ZM291 547L297 547L297 470L291 470ZM277 547L283 547L283 470L277 470ZM263 547L271 547L271 470L263 470ZM249 547L257 547L257 470L249 470L249 547ZM234 547L242 547L242 470L234 470ZM222 547L228 547L228 470L222 470ZM214 553L214 462L305 462L305 553ZM394 547L402 547L402 470L394 470ZM382 547L388 547L388 470L382 470ZM368 547L374 547L374 470L368 470ZM354 547L362 547L362 470L354 470ZM339 547L347 547L347 470L339 470ZM325 547L333 547L333 470L325 470ZM319 553L319 462L410 462L410 553L319 553ZM394 650L402 650L402 575L394 575ZM382 650L388 650L388 575L382 575ZM368 650L374 650L374 575L368 575ZM354 650L362 650L362 575L354 575ZM339 650L347 650L347 575L339 575ZM325 650L333 650L333 575L325 575ZM319 658L319 567L410 567L410 658L319 658ZM499 547L507 547L507 470L499 470ZM485 547L493 547L493 470L485 470ZM473 547L479 547L479 470L473 470ZM459 547L465 547L465 470L459 470ZM444 547L452 547L452 470L444 470ZM430 547L438 547L438 470L430 470ZM424 553L424 462L513 462L513 553ZM499 650L507 650L507 575L499 575ZM485 650L493 650L493 575L485 575ZM473 650L479 650L479 575L473 575ZM459 650L465 650L465 575L459 575ZM444 650L452 650L452 575L444 575ZM430 650L438 650L438 575L430 575ZM424 658L424 567L513 567L513 658ZM499 755L507 755L507 680L499 680ZM485 755L493 755L493 680L485 680ZM473 755L479 755L479 680L473 680ZM459 755L465 755L465 680L459 680ZM444 755L452 755L452 680L444 680ZM430 755L438 755L438 680L430 680ZM424 763L424 672L513 672L513 763ZM604 547L610 547L610 470L604 470ZM590 547L598 547L598 470L590 470ZM576 547L584 547L584 470L576 470ZM564 547L570 547L570 470L564 470ZM549 547L555 547L555 470L549 470ZM535 547L543 547L543 470L535 470ZM527 553L527 462L618 462L618 553ZM299 317Q294 317 289.5 315Q285 313 282 309Q278 305 276.5 300.5Q275 296 275 290Q275 285 276.5 281Q278 277 282 273Q285 270 289.5 268Q294 266 299 266Q304 266 308.5 268Q313 270 316 273Q320 277 321.5 281Q323 285 323 290Q323 295 322.5 298Q322 301 320 304Q319 306 316.5 308.5Q314 311 311 313Q308 315 305 316Q302 317 299 317ZM299 309Q301 309 302.5 308.5Q304 308 305 307Q303 306 302 304.5Q301 303 301 301Q301 298 303 296.5Q305 295 309 295Q311 295 312.5 296Q314 297 315 299Q316 297 316.5 295Q317 293 317 290Q317 281 312.5 276.5Q308 272 299 272Q290 272 285.5 276.5Q281 281 281 290Q281 300 285.5 304.5Q290 309 299 309ZM366 135Q324 155 295.5 183.5Q267 212 251 248Q233 243 212.5 240Q192 237 168 236L81 236Q131 186 195.5 161Q260 136 337 135L366 135Z" fill="#46788d" />
  </g>
</svg>