<?xml version="1.0" encoding="UTF-8"?>
<svg width="16" height="16" viewBox="0 0 16 16" xmlns="http://www.w3.org/2000/svg">
  <g transform="translate(-0.47000000000000003, 15.411249999999999) scale(0.016542968749999998, -0.016542968749999998)">
    <path d="M125 497Q141 507 141 525.5Q141 544 125 553Q109 563 93 553.5Q77 544 77 525Q77 507 93 497.5Q109 488 125 497ZM774 672L774 564L812 564L812 487L211 487Q191 432 132.5 419Q74 406 32 448Q-13 493 3.5 553.5Q20 614 81 631Q124 642 160.5 621.5Q197 601 211 564L589 564L589 672L651 672L651 610L712 610L712 672ZM899 399Q883 389 883 370.5Q883 352 899 343Q915 333 931 342.5Q947 352 947 371Q947 389 931 398.5Q915 408 899 399ZM250 224L250 332L212 332L212 409L813 409Q833 464 891.5 477Q950 490 992 448Q1037 403 1020.5 342.5Q1004 282 943 265Q900 254 863.5 274.5Q827 295 813 332L435 332L435 224L373 224L373 286L312 286L312 224Z" fill="#8f5536" />
  </g>
</svg>