<?xml version="1.0" encoding="UTF-8"?>
<svg width="16" height="16" viewBox="0 0 16 16" xmlns="http://www.w3.org/2000/svg">
  <g transform="translate(0.5089550781250018, 14.554281960227273) scale(0.01462890625, -0.01462890625)">
    <path d="M209 30Q205 20 202 11Q199 2 195 -7Q186 -4 177 -1.5Q168 1 158 4Q157 9 157 14.5Q157 20 157 25Q152 28 147 31Q142 34 139 38Q130 49 122 60Q114 71 105 82Q100 88 94 94Q88 100 77 99Q73 99 69 103Q65 107 62 110Q46 128 36.5 148Q27 168 34 193Q28 199 21.5 204Q15 209 8 215Q13 224 17 232Q21 240 26 249Q19 250 13 251Q7 252 0 253Q7 260 13 267Q19 274 26 282Q20 284 15 286Q10 288 3 290Q8 293 10.5 294.5Q13 296 15 297Q28 301 29 307Q30 313 20 324Q37 335 29.5 348Q22 361 25 373Q27 379 25 386Q23 393 23 401Q33 400 41.5 398.5Q50 397 62 395Q58 401 56 405Q54 409 51 411Q36 422 28.5 441.5Q21 461 26 477Q33 502 44.5 511Q56 520 82 518Q92 517 99 519.5Q106 522 108 530Q111 542 118.5 545Q126 548 134 548Q147 548 161 552.5Q175 557 183 541Q192 542 200 545Q208 548 215 547Q259 544 295.5 524.5Q332 505 365 478Q368 475 371 471Q374 467 374 463Q375 448 377 432.5Q379 417 374 403Q367 384 363 363.5Q359 343 358 319Q355 325 353.5 328Q352 331 349 336Q340 325 331.5 315Q323 305 314 295Q319 293 324.5 290.5Q330 288 336 285Q331 279 326.5 274Q322 269 316 262Q326 259 334 257Q342 255 350 253Q346 236 339.5 234.5Q333 233 309 247Q317 232 323 221Q329 210 335 199Q344 202 354 206.5Q364 211 376 205Q371 193 359 184Q347 175 357 157Q362 158 367.5 159.5Q373 161 382 163Q376 158 372.5 155Q369 152 365 149Q371 137 381 132.5Q391 128 402 126Q415 124 425 118.5Q435 113 438 95Q459 115 481.5 118Q504 121 526 124Q547 128 568.5 135Q590 142 612 135Q623 150 638.5 146Q654 142 668 148Q673 151 682.5 143.5Q692 136 700 130Q700 130 697.5 123Q695 116 692 115Q675 111 670.5 100.5Q666 90 670 75Q658 74 647.5 72Q637 70 625 69Q626 64 628 58.5Q630 53 632 45Q612 47 592 48Q572 49 552 42Q556 38 559 34.5Q562 31 566 27Q564 26 562 25Q560 24 560 24Q550 33 539 34.5Q528 36 515 37Q502 38 488.5 39Q475 40 462 38Q454 38 448 35.5Q442 33 437 27Q428 17 417 12Q406 7 392 16Q388 18 382.5 17Q377 16 370 16Q362 39 342 33.5Q322 28 306 40Q299 32 292 24Q285 16 278 8Q271 1 264 0.5Q257 0 250 7Q248 10 245.5 13Q243 16 240 19Q238 21 234.5 22.5Q231 24 227 27Q227 21 226.5 16Q226 11 226 6L209 30ZM253 54Q252 52 250 50Q248 48 246 46Q249 44 252 42Q255 40 258 38Q259 39 260.5 40.5Q262 42 263 44Q261 46 258.5 48.5Q256 51 253 54ZM1005 714Q1009 717 1013 719Q1017 721 1022 724Q1022 719 1023.5 714Q1025 709 1023 706Q1012 685 995.5 668.5Q979 652 962 636Q950 625 935.5 617.5Q921 610 905 606Q904 605 902 605Q900 605 900 605Q882 589 860.5 591.5Q839 594 819 591Q808 589 796 593Q784 597 773 601Q757 605 741 610Q725 615 709 621Q705 622 700.5 624Q696 626 695 629Q688 651 670.5 658Q653 665 635 673Q633 673 631.5 675Q630 677 627 679Q639 694 653 704.5Q667 715 684 721Q693 724 697.5 729Q702 734 704 742Q721 742 735.5 748Q750 754 763 763Q782 776 800.5 787Q819 798 835 808Q886 794 929.5 775.5Q973 757 1005 714ZM869 740Q843 758 824 758.5Q805 759 788 740Q779 731 772.5 719.5Q766 708 761 697Q758 691 757.5 684Q757 677 759 671Q762 665 767 659.5Q772 654 778 652Q780 651 785.5 656.5Q791 662 796 666Q797 668 797.5 671Q798 674 800 677Q806 691 813 705.5Q820 720 827 734Q839 735 849.5 731.5Q860 728 869 740ZM176 726Q182 736 188 744.5Q194 753 195 762Q197 772 194 782Q191 792 192 802Q194 815 199 828Q204 841 209 855Q196 856 190 844.5Q184 833 171 830Q171 836 171 841.5Q171 847 173 852Q197 905 248.5 903Q300 901 324 870Q329 863 335 857Q341 851 347 845Q343 789 310 759Q277 729 233 709Q227 706 220 707.5Q213 709 206 710Q203 711 200.5 715.5Q198 720 194 722Q191 724 186.5 724.5Q182 725 176 726ZM223 838Q236 834 240 839Q244 844 244 854Q234 857 229.5 852.5Q225 848 223 838ZM308 839Q302 845 296.5 844.5Q291 844 287 837Q286 836 287.5 832.5Q289 829 290 828Q298 825 302 828.5Q306 832 308 839ZM167 744Q177 760 169 773.5Q161 787 162 801Q151 786 159 772.5Q167 759 167 744Z" fill="#f4bf75" />
  </g>
</svg>