<?xml version="1.0" encoding="UTF-8"?>
<svg width="16" height="16" viewBox="0 0 16 16" xmlns="http://www.w3.org/2000/svg">
  <g transform="translate(0.02000000000000045, 14.9825) scale(0.015585937499999999, -0.015585937499999999)">
    <path d="M244 331L258 340L258 308L307 308L307 683L259 681Q259 681 259 639Q259 597 259 546.5Q259 496 259 454Q259 412 259 412Q240 365 200 349Q161 334 123 344.5Q85 355 59 390Q34 425 43 479Q57 533 111 557Q165 581 226 541Q226 541 229 560Q232 579 232 579Q232 582 229.5 584Q227 586 218 590Q171 608 128 601Q85 594 54 569Q23 544 8 503Q-6 462 4 413Q10 381 35 354Q59 328 93 313.5Q127 299 167 301Q207 304 244 331ZM651 614L689 614L689 673L651 673ZM609 246Q609 245 620.5 229Q632 213 633 213Q637 213 653 236.5Q669 260 676 274Q686 294 687.5 312Q689 330 689 451L688 596L651 595L651 457Q651 343 649.5 322.5Q648 302 639 285Q632 271 621.5 261Q611 251 609 246ZM415 660Q413 660 413.5 653Q414 646 414 646L542 645Q542 645 543 650.5Q544 656 544 657Q544 660 534.5 660.5Q525 661 481 661Q455 662 435.5 661.5Q416 661 415 660ZM422 355Q366 387 366 452Q366 517 422 549Q478 582 535 549.5Q592 517 592 452Q592 387 535 355Q478 323 422 355ZM630 453Q630 496 609 530Q587 564 554 583.5Q521 603 480 604Q440 605 402 584Q364 562 345 526Q326 491 326 453Q326 415 345 379Q364 344 402 322Q440 300 480 302Q521 303 554 322Q587 341 609 375Q630 409 630 453ZM809 660Q807 660 807.5 653Q808 646 808 646L936 645Q936 645 937 650.5Q938 656 938 657Q937 660 928 660.5Q919 661 874 661Q848 662 829 661.5Q810 661 809 660ZM816 355Q759 387 759 452Q759 517 816 549Q872 582 928.5 549.5Q985 517 985 452Q985 387 928.5 355Q872 323 816 355ZM1024 453Q1024 496 1003 530Q981 564 947.5 583.5Q914 603 874 604Q833 605 795 584Q757 562 738 526Q719 491 719 453Q719 415 738 379Q757 344 795 322Q833 300 874 302Q914 303 947.5 322Q981 341 1003 375Q1024 409 1024 453Z" fill="#c97071" />
  </g>
</svg>