<?xml version="1.0" encoding="UTF-8"?>
<svg width="16" height="16" viewBox="0 0 16 16" xmlns="http://www.w3.org/2000/svg">
  <g transform="translate(0.020000000000000462, 14.9825) scale(0.015585937499999999, -0.015585937499999999)">
    <path d="M592 753Q646 730 628.5 688.5Q611 647 558 640L408 640L408 672L440 672L440 832L408 832L408 864Q408 864 464.5 864Q521 864 538 864Q546 864 567 861Q588 858 613 835Q637 813 629 788Q621 763 592 753ZM504 768L546 768Q556 768 564 777.5Q572 787 572 798Q572 808 566 820Q560 832 546 832L504 832ZM504 736L546 736Q559 736 565.5 724Q572 712 572 702Q572 692 564.5 682Q557 672 546 672L504 672ZM230 340L96 340L96 372L128 372L128 544L96 544L96 576L230 576Q270 563 293.5 526.5Q317 490 320 462Q323 431 294 389.5Q265 348 230 340ZM266 462Q266 419 246.5 395.5Q227 372 216 372L192 372L192 544L216 544Q229 544 247.5 518Q266 492 266 462ZM408 254L408 288L472 288L472 260L520 194L568 260L568 288L632 288L632 252L546 160L632 66L632 32L568 32L568 62L520 126L472 60L472 32L408 32L408 68L494 160ZM740 390L740 416L788 416L788 404Q788 404 799 392Q810 380 834 380Q856 380 863 388.5Q870 397 868 406Q865 422 852.5 428.5Q840 435 802 454Q756 478 748 492.5Q740 507 740 518Q740 533 757 554.5Q774 576 800 576Q825 576 846.5 576Q868 576 868 576Q882 576 896 564Q910 552 924 540L924 512L876 512L876 528Q864 538 856 543Q848 548 830 548Q820 548 807 541.5Q794 535 794 524Q794 516 809.5 504Q825 492 858 476Q894 458 909 443Q924 428 924 428Q929 406 917 387Q905 368 872 352L796 352Q777 352 763 365.5Q749 379 740 390ZM472 492L472 425Q472 375 520 375Q568 375 568 425L568 492Q568 542 520 542Q472 542 472 492ZM408 426L408 492Q408 492 428 534Q448 576 520 576Q596 576 614 534Q632 492 632 492L632 426Q632 426 612.5 383Q593 340 520 340Q447 340 427.5 383Q408 426 408 426ZM1024 960L0 960L0 -64L1024 -64Z" fill="#d28445" />
  </g>
</svg>