<?xml version="1.0" encoding="UTF-8"?>
<svg width="16" height="16" viewBox="0 0 16 16" xmlns="http://www.w3.org/2000/svg">
  <g transform="translate(-0.0037627523625426637, 14.984048445554125) scale(0.015585937499999999, -0.015585937499999999)">
    <path d="M282 849Q367 926 463 949Q559 972 647 947.5Q735 923 805 854Q874 785 907 679Q985 599 1010 502Q1036 406 1013.5 316Q991 226 924 155Q857 84 749 55Q664 -24 568 -50Q473 -76 384.5 -53.5Q296 -31 223 38Q150 107 111 219Q31 316 10 412Q-11 508 15.5 592.5Q42 677 111 743Q181 810 282 849ZM111 219Q144 183 181 158Q217 132 254 114.5Q291 97 328 87Q365 76 399 71Q434 56 475 45Q516 33 561 28.5Q606 24 653 29Q701 35 749 55Q789 93 815 133Q841 172 856.5 210Q872 248 879 283Q885 318 887 347Q901 379 913 422Q924 465 928.5 511.5Q933 558 928 602Q924 646 907 679Q884 708 848 734Q813 760 772.5 780Q732 800 689 812Q647 824 609 825Q548 855 470.5 867.5Q393 880 282 849Q245 816 218 776Q190 735 171 693.5Q152 652 142 613Q133 573 131 544Q116 506 106 466Q96 427 92.5 386Q89 345 94 303Q98 261 111 219ZM236 463L236 404Q246 390 262 393Q278 396 285 410L285 458Q285 475 261 475.5Q237 476 236 463ZM387 463L387 404Q387 388 411 389.5Q435 391 435 404L435 458Q435 475 411.5 475.5Q388 476 387 463ZM600 815Q494 841 399 809Q303 777 237.5 708Q172 639 145 542Q118 445 149 341Q180 236 256 170Q331 103 424 80.5Q517 58 614 83Q712 108 786 187Q861 266 881 365Q901 463 874 555Q847 647 776 718Q706 790 600 815ZM324 362L286 362L286 377Q281 367 273 364.5Q265 362 252 362Q229 362 214.5 368.5Q200 375 200 388L200 474Q201 506 240.5 507.5Q280 509 284 495L284 560L324 560L324 362ZM469 396Q467 379 454 370.5Q441 362 424 362Q381 362 367.5 371Q354 380 354 393L354 474Q354 490 367 498.5Q380 507 410 507Q441 507 455 500Q469 493 469 474L469 396ZM553 362L516 362L516 510L471 510L471 540L595 540L595 510L553 510L553 362ZM583 409L622 409L622 362L583 362L583 409ZM690 365Q690 347 678 333Q666 319 651 319L615 319L615 351Q641 352 646 353.5Q651 355 652 365Q652 372 652 439.5Q652 507 652 507L690 507Q690 507 690 444.5Q690 382 690 365ZM690 527L652 527L652 561L690 561ZM793 362L718 362L717 389L771 389Q789 394 779.5 403.5Q770 413 745 426Q722 439 718 449.5Q714 460 714 476Q714 492 724 499.5Q734 507 744 507Q754 507 784 507Q814 507 814 507L814 475L758 475Q737 463 780.5 446Q824 429 823 397Q822 374 807.5 368Q793 362 793 362Z" fill="#6a9fb5" />
  </g>
</svg>