<?xml version="1.0" encoding="UTF-8"?>
<svg width="16" height="16" viewBox="0 0 16 16" xmlns="http://www.w3.org/2000/svg">
  <g transform="translate(0.5099999999999998, 14.55375) scale(0.01462890625, -0.01462890625)">
    <path d="M0 960L0 -64L1024 -64L1024 960ZM148 34L65 34L65 117L148 117ZM224 34L224 307L425 307L426 258L277 258L277 200L415 200L415 154L277 154L277 84L427 84L428 34L224 34ZM689 34L632 34L525 208L525 34L473 34L473 307L529 307L637 127L637 307L689 307ZM875 34L812 34L716 307L779 307L846 116L909 307L972 307Z" fill="#ee9e2e" />
  </g>
</svg>