<?xml version="1.0" encoding="UTF-8"?>
<svg width="16" height="16" viewBox="0 0 16 16" xmlns="http://www.w3.org/2000/svg">
  <g transform="translate(0.5900000000000007, 14.84) scale(0.00890625, -0.00890625)">
    <path d="M1261 147Q1261 147 1270.5 156.5Q1280 166 1280 192Q1280 218 1261 237Q1242 256 1216 256Q1190 256 1171 237Q1152 218 1152 192Q1152 166 1171 147Q1190 128 1216 128Q1242 128 1261 147ZM1517 147Q1517 147 1526.5 156.5Q1536 166 1536 192Q1536 218 1517 237Q1498 256 1472 256Q1446 256 1427 237Q1408 218 1408 192Q1408 166 1427 147Q1446 128 1472 128Q1498 128 1517 147ZM1664 416L1664 96Q1664 56 1636 28Q1608 0 1568 0L96 0Q56 0 28 28Q0 56 0 96L0 416Q0 456 28 484Q56 512 96 512L561 512L696 376Q754 320 832 320Q910 320 968 376L1104 512L1568 512Q1608 512 1636 484Q1664 456 1664 416ZM1339 985Q1356 944 1325 915L877 467Q859 448 832 448Q805 448 787 467L339 915Q308 944 325 985Q342 1024 384 1024L640 1024L640 1472Q640 1498 659 1517Q678 1536 704 1536L960 1536Q986 1536 1005 1517Q1024 1498 1024 1472L1024 1024L1280 1024Q1322 1024 1339 985Z" fill="#46788d" />
  </g>
</svg>