<?xml version="1.0" encoding="UTF-8"?>
<svg width="16" height="16" viewBox="0 0 16 16" xmlns="http://www.w3.org/2000/svg">
  <g transform="translate(2.4368017578125, 13.696250000000001) scale(0.012714843750000001, -0.012714843750000001)">
    <path d="M731 821Q683 869 631 897Q580 925 534 939Q488 953 452 956Q415 960 398 960L0 960L0 -64L236 -64L236 724L398 724Q432 724 478.5 708.5Q525 693 563 655Q602 616 621 557.5Q640 499 639 422Q638 344 603.5 292.5Q569 241 496 210Q432 182 376 177Q320 172 319 172L319 -64Q329 -64 407.5 -57Q486 -50 582 -10Q652 19 706 62Q761 104 798 158.5Q835 213 855 279Q874 344 875 419Q876 498 863 561Q850 624 829 673.5Q808 723 782 759Q756 795 731 821Z" fill="#6a9fb5" />
  </g>
</svg>