<?xml version="1.0" encoding="UTF-8"?>
<svg width="16" height="16" viewBox="0 0 16 16" xmlns="http://www.w3.org/2000/svg">
  <g transform="translate(0.5099999999999998, 14.8170703125) scale(0.01462890625, -0.01462890625)">
    <path d="M1024 -46L0 -46L0 978L1024 978ZM594 314L594 166Q594 143 610 126.5Q626 110 649 110L841 110Q864 110 880.5 126.5Q897 143 897 166L897 314Q897 337 880.5 353Q864 369 841 369L735 369L622 562Q640 566 652 581Q664 596 664 616L664 766Q664 789 648 805.5Q632 822 609 822L417 822Q394 822 377.5 805.5Q361 789 361 766L361 616Q361 597 372.5 582Q384 567 402 562L289 369L182 369Q159 369 143 353Q127 337 127 314L127 166Q127 143 143 126.5Q159 110 182 110L374 110Q397 110 413.5 126.5Q430 143 430 166L430 314Q430 339 414.5 354Q399 369 358 369L471 560L557 560L669 369Q628 372 610.5 351.5Q593 331 594 314Z" fill="#d28445" />
  </g>
</svg>