<?xml version="1.0" encoding="UTF-8"?>
<svg width="16" height="16" viewBox="0 0 16 16" xmlns="http://www.w3.org/2000/svg">
  <g transform="translate(0.7707226562500011, 15.40789898838141) scale(0.016542968749999998, -0.016542968749999998)">
    <path d="M348 136Q358 125 362.5 114.5Q367 104 367 102Q372 98 369 112.5Q366 127 369 130Q407 176 454 194Q500 213 542.5 226Q585 239 617 258Q649 276 660 323Q673 382 647 412Q621 443 575.5 461Q530 479 475 491Q419 504 374 527Q356 413 327.5 341Q299 269 230 200Q230 200 278 181Q326 162 348 136ZM400 394Q435 384 493.5 356.5Q552 329 554 277Q497 262 450 244Q403 226 355 181Q344 185 318.5 193.5Q293 202 267 206Q320 237 353 290Q386 343 400 394ZM653 628Q554 650 487 673Q421 696 370.5 731Q320 766 277 820Q235 873 184 955Q180 961 173 959.5Q166 958 166 950Q166 912 186 847Q206 782 230 710Q177 750 133 799.5Q89 849 65 907Q63 913 55 913Q47 913 47 903Q46 864 55 825Q63 787 80.5 749.5Q98 712 123 676Q149 640 182 607Q136 636 93.5 668.5Q51 701 16 735Q11 741 4.5 736.5Q-2 732 0 726Q19 671 52 626Q84 581 123.5 545.5Q163 510 204 483Q245 457 280 438Q280 379 263 318.5Q246 258 207 202Q201 108 192 73Q183 38 177 25Q166 -2 171.5 -29.5Q177 -57 213 -64Q226 -66 255 -48.5Q284 -31 257 37Q251 50 243 76.5Q235 103 228 168Q255 135 293.5 76.5Q332 18 322 -25Q321 -32 328 -35.5Q335 -39 340 -32Q375 34 453 50Q530 67 614 83Q698 99 770 139Q842 179 865 292Q877 350 873 404Q869 458 844.5 503Q820 548 773 580Q726 613 653 628ZM818 309Q797 214 735 178Q672 143 597 128.5Q522 114 450 102Q377 90 337 41Q302 129 259 164.5Q216 200 216 200Q245 229 264 268Q283 306 293.5 350.5Q304 395 306 444Q308 494 304 546Q275 569 242 598Q209 627 180 659.5Q151 692 128 727Q106 762 97 798Q134 745 189 698Q244 651 296 616Q294 631 291 646.5Q288 662 285 678Q324 626 370 594Q416 561 461.5 542Q507 523 548 513Q590 504 620 497Q554 517 495 545Q435 573 385 612.5Q335 652 296 707Q256 761 229 834Q267 773 306 734Q346 695 391.5 669.5Q437 644 492 627Q546 611 613 596Q678 582 722 554Q767 526 792 488.5Q817 451 823 405Q829 359 818 309Z" fill="#825078" />
  </g>
</svg>