<?xml version="1.0" encoding="UTF-8"?>
<svg width="16" height="16" viewBox="0 0 16 16" xmlns="http://www.w3.org/2000/svg">
  <g transform="translate(0.5099999999999998, 14.549868581329132) scale(0.01462890625, -0.01462890625)">
    <path d="M1024 415L714 415Q692 502 633 543Q574 584 508.5 582Q443 580 386 537Q329 494 310 415L0 415Q10 637 161 756Q311 874 494 879Q677 884 836 771Q996 657 1024 415ZM119 343L310 343Q330 264 386 222Q442 179 506.5 177Q571 175 630 215Q689 256 714 343L905 343Q869 189 763 105Q657 21 533.5 16.5Q410 12 293 91Q177 170 119 343ZM643 379Q643 454 577.5 492Q512 530 446 492Q381 454 381 378.5Q381 303 446 265Q512 228 577.5 265.5Q643 303 643 379Z" fill="#75b5aa" />
  </g>
</svg>