<?xml version="1.0" encoding="UTF-8"?>
<svg width="16" height="16" viewBox="0 0 16 16" xmlns="http://www.w3.org/2000/svg">
  <g transform="translate(-0.46999999999999886, 15.411249999999999) scale(0.016542968749999998, -0.016542968749999998)">
    <path d="M466 313Q421 339 421 392Q421 445 466 471Q512 497 557.5 470.5Q603 444 603 392Q603 339 557.5 312.5Q512 286 466 313ZM619 509Q619 527 602.5 536.5Q586 546 570 537Q554 528 554 509Q554 490 570 481Q586 472 602.5 481Q619 490 619 509ZM880 710L628 710L628 377Q628 328 591.5 300.5Q555 273 511 274Q468 274 432 301.5Q396 329 396 377L396 489Q396 558 374 599Q352 640 320 667Q290 691 251 700.5Q212 710 144 710L0 710L0 187L217 187Q256 188 284.5 203.5Q313 219 334 241Q317 257 303.5 277Q290 297 283 318Q269 300 252.5 286.5Q236 273 212 270L87 270L87 620L182 620Q244 623 276.5 586Q309 549 309 510L309 369Q309 337 324 304Q339 271 365.5 245Q392 219 428 202Q464 186 506 186Q555 186 595 204Q634 222 661 250.5Q688 279 702 315Q717 351 717 387L717 615L875 615Q931 615 931 556.5Q931 498 875 498L750 498L750 413L860 413Q925 413 932 348.5Q939 284 880 273L713 273Q701 249 683 228Q665 207 643 187L888 187Q935 187 979.5 229Q1024 271 1024 351Q1024 381 1010.5 408Q997 435 981 454Q1017 492 1022 536Q1028 580 1011.5 618Q995 656 960 682Q925 708 880 710Z" fill="#ac4142" />
  </g>
</svg>