<?xml version="1.0" encoding="UTF-8"?>
<svg width="16" height="16" viewBox="0 0 16 16" xmlns="http://www.w3.org/2000/svg">
  <g transform="translate(-0.46999999999999886, 15.41708869485294) scale(0.016542968749999998, -0.016542968749999998)">
    <path d="M614 593L512 373L414 584Q391 649 334 699Q277 749 182 750L0 750L0 264L182 264Q249 264 300 293Q351 322 389 378L496 148Q500 140 511.5 140Q523 140 527 148L634 378Q667 324 716 294Q766 264 820 257.5Q874 251 927 268Q979 285 1019 324Q1024 329 1024 333.5Q1024 338 1020 343L965 401Q961 405 956.5 405Q952 405 947 401Q895 365 851 367Q807 368 775.5 391Q744 414 729 453Q714 491 719 530Q732 616 806 644.5Q880 673 947 617Q952 613 956 613Q960 613 965 617L1019 673Q1024 678 1023.5 683Q1023 688 1018 693Q987 726 932 744Q878 762 818.5 754.5Q759 747 703 710Q648 672 614 593ZM108 367L108 648Q213 657 260 619.5Q307 582 311 508Q307 464 276 410Q245 356 108 367Z" fill="#9dc0ce" />
  </g>
</svg>