<?xml version="1.0" encoding="UTF-8"?>
<svg width="16" height="16" viewBox="0 0 16 16" xmlns="http://www.w3.org/2000/svg">
  <g transform="translate(1.5810546875, 14.125) scale(0.013671875, -0.013671875)">
    <path d="M1 960L1 687L152 687L152 809L386 809Q434 809 477 802Q520 795 558.5 780.5Q597 766 630 745Q663 723 690 696Q737 647 762.5 583Q788 519 788 448Q788 383 764 318Q740 254 690.5 202.5Q641 151 566 119Q490 87 386 87L0 87L0 -64L386 -64Q522 -64 626 -20Q729 24 798.5 96.5Q868 169 903 261Q939 353 939 448Q939 498 930 547Q920 595 902.5 639.5Q885 684 858 725Q832 766 798 801Q760 840 715 870Q669 899 617.5 919.5Q566 940 507 950Q449 960 386 960Z" fill="#ac4142" />
  </g>
</svg>