<?xml version="1.0" encoding="UTF-8"?>
<svg width="16" height="16" viewBox="0 0 16 16" xmlns="http://www.w3.org/2000/svg">
  <g transform="translate(0.6489746093750002, 14.556507908555329) scale(0.01462890625, -0.01462890625)">
    <path d="M1005 766L958 297L503 -64L50 292L0 759L505 500L1005 766ZM380 812Q380 844 309 860Q238 876 167 860Q97 844 97 812Q97 780 167 764Q238 748 309 764Q380 780 380 812ZM907 811Q907 846 836 864Q765 882 694 864Q623 846 623 810.5Q623 775 694 757Q765 739 836 757Q907 775 907 811ZM662 679Q662 699 639 715Q617 731 582 739.5Q547 748 505 749Q462 750 423 739Q343 719 343 678.5Q343 638 423 618Q462 608 505 609Q547 610 582 618.5Q617 627 639 643Q662 659 662 679ZM636 906Q636 937 570 952.5Q504 968 438 953Q373 937 373 906Q373 875 438 860Q504 844 570 859.5Q636 875 636 906Z" fill="#75b5aa" />
  </g>
</svg>