<?xml version="1.0" encoding="UTF-8"?>
<svg width="16" height="16" viewBox="0 0 16 16" xmlns="http://www.w3.org/2000/svg">
  <g transform="translate(0.509747777478446, 14.553354624155407) scale(0.01462890625, -0.01462890625)">
    <path d="M377 48Q378 48 380.5 50.5Q383 53 383 56Q385 51 384.5 39.5Q384 28 385 28Q387 28 390.5 37.5Q394 47 393 53Q401 40 396.5 12Q392 -16 392 -16Q288 6 213 55Q138 103 90.5 166.5Q43 230 21 304Q-1 377 0 449Q1 502 13 552Q25 602 45 646.5Q65 691 93 728Q120 765 152 792Q201 834 258 863Q314 891 376 903.5Q438 916 503 910Q567 904 633 878Q633 878 581 828Q529 778 471 717Q418 663 401.5 637Q385 611 385 567Q385 505 424 472.5Q463 440 459 406Q457 395 454 387Q451 379 439 381Q424 383 361.5 380Q299 377 259 347Q259 347 230.5 328Q202 309 212 283Q212 283 209.5 281Q207 279 199 273Q191 267 157 231Q123 195 197 142L202 142Q202 142 203.5 156Q205 170 206 175Q208 180 240 191Q272 202 272 202Q272 202 284 202.5Q296 203 303 196Q311 189 345 153Q379 117 373 53L377 48ZM534 696L699 847L658 869L526 704ZM747 803Q752 807 752.5 809.5Q753 812 753 812L735 826L677 756Q677 756 709.5 778Q742 800 747 803ZM712 307Q712 307 722 332Q732 357 755 369Q709 391 657 391Q604 391 559 369.5Q514 348 484 305Q453 262 452 196Q451 130 472 89Q494 49 525 26Q556 3 591 -5Q625 -13 650 -14Q733 -17 777 22.5Q821 62 821 62L749 97Q717 63 678 56Q640 49 607 63.5Q574 78 551 110Q529 143 530 188Q530 264 588.5 304Q647 344 712 307ZM784 0Q798 -6 836 -11Q875 -16 916 -9Q957 -2 990 24Q1022 49 1024 104Q1025 161 997 184Q968 206 930.5 215.5Q893 225 859 233Q825 240 816 268Q800 318 865.5 323Q931 328 956 285L1014 329Q998 361 956 378Q914 395 868 392.5Q822 390 784 366Q746 341 738 290Q730 242 756 212Q782 182 830 170Q879 157 914 147Q949 137 946 100Q944 59 893.5 57Q843 55 843 55Q841 47 825 32.5Q809 18 784 0Z" fill="#ac4142" />
  </g>
</svg>