<?xml version="1.0" encoding="UTF-8"?>
<svg width="16" height="16" viewBox="0 0 16 16" xmlns="http://www.w3.org/2000/svg">
  <g transform="translate(1.58, 13.350000000000001) scale(0.008359375, -0.008359375)">
    <path d="M382.5 1305Q382.5 1305 470.75 1356.5Q559 1408 768 1408Q977 1408 1153.5 1305Q1330 1202 1433 1025.5Q1536 849 1536 640Q1536 431 1433 254.5Q1330 78 1153.5 -25Q977 -128 768 -128Q559 -128 382.5 -25Q206 78 103 254.5Q0 431 0 640Q0 849 103 1025.5Q206 1202 382.5 1305ZM1042 887Q1040 886 1032.5 877.5Q1025 869 1019 868Q1021 868 1023.5 873Q1026 878 1028.5 884Q1031 890 1032 891Q1038 898 1054 906Q1068 912 1106 918Q1140 926 1157 907Q1155 909 1166.5 920Q1178 931 1181 932Q1184 934 1196 936.5Q1208 939 1211 944L1213 966Q1201 965 1195.5 973Q1190 981 1189 994Q1189 992 1183 986Q1183 993 1178.5 994Q1174 995 1167 993Q1160 991 1158 992Q1148 995 1143 999.5Q1138 1004 1135 1016Q1132 1028 1131 1031Q1129 1036 1121.5 1042Q1114 1048 1112 1052Q1111 1054 1109.5 1057.5Q1108 1061 1106.5 1064Q1105 1067 1102.5 1069.5Q1100 1072 1097 1072Q1094 1072 1090 1067Q1086 1062 1082.5 1057Q1079 1052 1078 1052Q1075 1054 1072 1053.5Q1069 1053 1067.5 1052.5Q1066 1052 1063 1049.5Q1060 1047 1058 1046Q1055 1044 1049.5 1043Q1044 1042 1041 1041Q1056 1046 1040 1052Q1030 1056 1024 1055Q1033 1059 1031.5 1067Q1030 1075 1023 1081L1028 1081Q1027 1085 1019.5 1089.5Q1012 1094 1002 1098Q992 1102 989 1104Q981 1109 955 1113.5Q929 1118 922 1114Q917 1108 917.5 1103.5Q918 1099 921.5 1089.5Q925 1080 925 1077Q926 1071 919.5 1064Q913 1057 913 1052Q913 1045 927 1036.5Q941 1028 937 1015Q934 1007 921 999Q908 991 905 987Q900 979 903.5 968.5Q907 958 914 952Q916 950 915.5 948Q915 946 912 943.5Q909 941 906.5 939.5Q904 938 900 936L897 934Q886 929 876.5 940Q867 951 863 966Q856 991 847 996Q824 1004 818 995Q813 1008 777 1021Q752 1030 719 1025Q725 1026 719 1040Q712 1055 700 1052Q703 1058 704 1069.5Q705 1081 705 1083Q708 1096 717 1106Q718 1107 724 1114.5Q730 1122 733.5 1128Q737 1134 734 1134Q769 1130 784 1145Q789 1150 795.5 1162Q802 1174 806 1179Q815 1185 820 1184.5Q825 1184 834.5 1179Q844 1174 849 1174Q863 1173 864.5 1185Q866 1197 857 1205Q869 1204 860 1222Q856 1229 852 1231Q840 1235 825 1226Q817 1222 827 1218Q826 1219 817.5 1207.5Q809 1196 801 1190Q793 1184 785 1195Q784 1196 779.5 1208.5Q775 1221 770 1222Q762 1222 754 1207Q757 1215 743 1222Q729 1229 719 1230Q738 1242 711 1257Q704 1261 690.5 1262Q677 1263 671 1258Q666 1251 665.5 1246.5Q665 1242 670.5 1238.5Q676 1235 681 1233Q686 1231 692.5 1229Q699 1227 701 1226Q715 1216 709 1212Q707 1211 700.5 1208.5Q694 1206 689 1204Q684 1202 683 1200Q680 1196 683 1186Q686 1176 681 1172Q676 1177 672 1189.5Q668 1202 665 1206Q672 1197 640 1200L630 1201Q626 1201 614 1199Q602 1197 593.5 1198Q585 1199 580 1206Q576 1214 580 1226Q581 1230 584 1228Q580 1231 573 1237.5Q566 1244 563 1246Q517 1231 469 1205Q475 1204 481 1206Q486 1208 494 1212.5Q502 1217 504 1218Q538 1232 546 1225L551 1230Q565 1214 571 1205Q564 1209 541 1206Q521 1200 519 1194Q526 1182 524 1176Q520 1179 512.5 1186Q505 1193 498 1197Q491 1201 483 1202Q467 1202 461 1201Q315 1121 226 979Q233 972 238 971Q242 970 243 962Q244 954 245.5 951Q247 948 257 954Q266 946 260 935Q261 936 304 908Q323 891 325 887Q328 876 315 869Q314 871 306 878Q298 885 297 882Q294 877 297.5 863.5Q301 850 308 851Q301 851 298.5 835Q296 819 296 799.5Q296 780 295 776L297 775Q294 763 302.5 740.5Q311 718 324 721Q311 718 344 678Q350 670 352 669Q355 667 364 661.5Q373 656 379 651.5Q385 647 389 641Q393 636 399 618.5Q405 601 413 595Q411 589 422.5 575Q434 561 433 552Q432 552 430.5 551Q429 550 428 550Q431 543 443.5 536Q456 529 459 523Q460 520 461 513Q462 506 464 502Q466 498 472 500Q474 520 448 562Q433 587 431 591Q428 596 425.5 606.5Q423 617 421 621Q423 621 427 619.5Q431 618 435.5 616Q440 614 443 612Q446 610 445 609Q442 602 447 591.5Q452 581 459 573Q466 565 476 554Q486 543 488 541Q494 535 502 521.5Q510 508 502 508Q511 508 522 497.5Q533 487 539 478Q544 470 547 452Q550 434 552 428Q554 421 560.5 414.5Q567 408 573 405Q579 402 589 397Q599 392 602 390Q607 388 620.5 379.5Q634 371 642 368Q652 364 658 364Q664 364 672.5 366.5Q681 369 686 370Q701 372 715 355Q729 338 736 334Q772 315 791 323Q789 322 791.5 315.5Q794 309 799.5 300Q805 291 808.5 285.5Q812 280 814 277Q819 271 832 262Q845 253 850 247Q856 251 857 256Q854 248 864 236Q874 224 882 226Q896 229 896 258Q865 243 847 276Q847 277 844.5 281.5Q842 286 840.5 290Q839 294 838 298.5Q837 303 838 306Q839 309 843 309Q852 309 853 312.5Q854 316 851 325Q848 334 847 338Q846 346 836 358Q826 370 824 373Q819 364 808 365Q797 366 792 374Q792 373 790.5 368.5Q789 364 789 362Q776 362 774 363Q775 366 776.5 380.5Q778 395 780 403Q781 407 785.5 415Q790 423 793 429.5Q796 436 797 442Q798 448 792.5 451.5Q787 455 775 454Q756 453 749 434Q748 431 746 423.5Q744 416 741 412Q738 408 732 405Q725 402 708 403Q691 404 684 408Q671 416 661.5 437Q652 458 652 474Q652 484 654.5 500.5Q657 517 657.5 525.5Q658 534 652 550Q655 552 661 559.5Q667 567 671 570Q673 571 675.5 571.5Q678 572 680 571.5Q682 571 684 573Q686 575 687 579Q686 580 683 582Q680 585 679 585Q686 582 707.5 586.5Q729 591 735 585Q750 574 757 587Q757 588 754.5 596.5Q752 605 754 610Q759 583 783 601Q786 598 798.5 596Q811 594 816 591Q819 589 823 585.5Q827 582 828.5 581Q830 580 833.5 581.5Q837 583 842 588Q852 574 854 564Q865 524 873 520Q880 517 884 518Q888 519 888.5 527.5Q889 536 888.5 541.5Q888 547 887 554L886 562Q886 571 886 580L885 588Q870 591 866.5 600Q863 609 868 618.5Q873 628 883 637Q884 638 891 640.5Q898 643 906.5 647Q915 651 919 655Q940 674 934 690Q941 690 945 699Q944 699 940 702Q936 705 932.5 707Q929 709 928 709Q937 714 930 725Q935 728 937.5 736Q940 744 945 746Q954 734 966 744Q974 752 967 760Q972 767 987.5 770.5Q1003 774 1006 780Q1013 778 1014 782Q1015 786 1015 794Q1015 802 1018 806Q1022 811 1033 815Q1044 819 1046 820L1063 831Q1066 835 1063 835Q1081 833 1094 846Q1104 857 1088 866Q1091 872 1085 875.5Q1079 879 1070 881Q1073 882 1081.5 881.5Q1090 881 1092 883Q1107 893 1085 899Q1068 904 1042 887ZM879 10Q1085 46 1230 199Q1227 202 1217.5 203.5Q1208 205 1205 207Q1187 214 1181 215Q1182 222 1178.5 228Q1175 234 1170.5 237Q1166 240 1158 245Q1150 250 1147 252Q1145 254 1140 258Q1135 262 1133 263.5Q1131 265 1125.5 268Q1120 271 1117 270Q1114 269 1107 269L1104 268Q1101 267 1098.5 265.5Q1096 264 1093 262.5Q1090 261 1089 259.5Q1088 258 1089 257Q1068 274 1053 279Q1048 280 1042 284.5Q1036 289 1031.5 291.5Q1027 294 1021.5 293Q1016 292 1010 286Q1005 281 1004 271Q1003 261 1002 258Q995 263 1002 275.5Q1009 288 1004 294Q1001 300 993.5 298.5Q986 297 981.5 294Q977 291 970 285.5Q963 280 961 279Q959 278 952.5 273.5Q946 269 944 266Q941 262 938 254Q935 246 933 243Q931 247 921.5 249.5Q912 252 912 255Q914 245 916 220Q918 195 921 182Q928 151 909 134Q882 109 880 94Q876 72 892 68Q892 61 884 47.5Q876 34 877 26Q877 20 879 10Z" fill="#90a959" />
  </g>
</svg>