<?xml version="1.0" encoding="UTF-8"?>
<svg width="16" height="16" viewBox="0 0 16 16" xmlns="http://www.w3.org/2000/svg">
  <g transform="translate(2.814052734375, 14.55375) scale(0.01462890625, -0.01462890625)">
    <path d="M523 437L523 526L579 526L703 626Q706 628 707.5 631Q709 634 709 638L709 938Q709 944 705 948Q701 952 695 952L319 960Q315 960 311.5 958Q308 956 306 953L207 787Q204 782 206 766.5Q208 751 212 703Q183 703 175 703Q167 703 162 698L6 544Q2 540 1 537Q0 534 0 534L10 219L111 219L111 -64L479 -64L593 15Q596 17 598 20Q600 23 600 27L600 349Q600 355 595.5 359Q591 363 585 363L462 363Q496 401 509.5 414.5Q523 428 523 437ZM326 931L662 924L540 796L246 796L326 931ZM37 534L178 673L214 672L221 534L37 534ZM479 -27L479 228L571 307L571 34L479 -27ZM559 334L443 235L338 235L437 334ZM494 442L359 291L364 526L494 526L494 442ZM580 571L583 796L680 903L680 645L580 571Z" fill="#46788d" />
  </g>
</svg>