<?xml version="1.0" encoding="UTF-8"?>
<svg width="16" height="16" viewBox="0 0 16 16" xmlns="http://www.w3.org/2000/svg">
  <g transform="translate(0.5099999999999998, 14.55375) scale(0.01462890625, -0.01462890625)">
    <path d="M40 553Q55 574 74.5 587.5Q94 601 117 607Q139 614 165 617Q191 620 220 620Q249 620 270.5 619.5Q292 619 305 618Q319 617 332.5 614.5Q346 612 360 609Q374 606 384.5 601Q395 596 404 589Q412 582 419.5 573.5Q427 565 433 554Q446 535 452.5 502.5Q459 470 459 424Q459 359 422 326Q385 293 312 293L119 293Q119 253 125.5 227Q132 201 145 189Q152 183 160.5 178.5Q169 174 178 172Q188 170 215 169Q242 168 287 168Q332 168 372.5 171Q413 174 449 179L449 96Q407 82 339.5 75Q272 68 179 68Q128 68 92.5 83.5Q57 99 38 130Q19 161 9.5 214.5Q0 268 0 345Q0 422 10 474Q20 526 40 553ZM340 429Q340 459 336 478.5Q332 498 323 506Q315 514 295 518.5Q275 523 243 523Q203 523 178.5 518Q154 513 146 504Q135 492 129 478.5Q123 465 122 450Q120 434 119.5 418Q119 402 119 385L288 385Q314 385 327 396Q340 407 340 429ZM549 215Q540 239 535 251Q530 263 530 263Q530 263 528.5 277.5Q527 292 523 320Q519 349 517 381.5Q515 414 515 451Q515 488 516.5 520.5Q518 553 522 581Q525 609 531 635Q537 661 545 686Q554 710 565 729.5Q576 749 591 765Q620 797 667 813Q714 829 777 829Q841 829 902.5 821.5Q964 814 1024 799L1024 706Q1016 706 1008.5 706.5Q1001 707 994 708Q987 708 979 708.5Q971 709 962 710Q952 711 942.5 711.5Q933 712 922 713Q911 713 900 714Q889 715 878 716Q853 717 831.5 717.5Q810 718 790 718Q771 718 755.5 716.5Q740 715 729 712Q717 709 706 703.5Q695 698 685 690Q675 682 667.5 670.5Q660 659 655 643Q644 612 639 562.5Q634 513 634 445Q634 378 642 328Q650 278 667 245Q684 211 714.5 194.5Q745 178 789 178Q836 178 886.5 179.5Q937 181 989 184L1024 186L1024 93Q974 80 914.5 73.5Q855 67 786 67Q749 67 720 71.5Q691 76 669 85Q647 94 629 106.5Q611 119 596 135Q582 151 570 171Q558 191 549 215Z" fill="#46788d" />
  </g>
</svg>