<?xml version="1.0" encoding="UTF-8"?>
<svg width="16" height="16" viewBox="0 0 16 16" xmlns="http://www.w3.org/2000/svg">
  <g transform="translate(0.020000000000000462, 14.9825) scale(0.015585937499999999, -0.015585937499999999)">
    <path d="M1016 472L894 593Q890 597 885 599Q880 601 874 601Q874 601 874 601Q874 601 874 601Q868 601 863 599Q858 597 854 593L752 490L671 570L772 670Q776 674 778 679Q780 684 780 690Q780 696 778 701Q776 706 772 710L650 831Q641 840 629.5 840Q618 840 609 831L509 732L410 829Q402 837 390.5 837Q379 837 370 829L250 711Q246 707 244 702Q242 697 242 691Q242 685 244 680Q246 675 250 671L348 572L267 493L170 590Q161 599 149.5 599Q138 599 129 590L8 469Q0 461 0 449Q0 437 8 429L126 312Q134 303 146 303Q158 303 166 312L267 412L348 331L245 229Q241 225 239 219.5Q237 214 237 208Q237 203 239 197.5Q241 192 245 188L371 64Q375 60 380 58Q385 56 391 56Q396 56 401.5 58Q407 60 411 65L512 167L611 67Q620 59 632 59Q644 59 652 67L773 188Q781 197 781 208.5Q781 220 773 229L673 329L752 409L855 308Q859 304 864 302Q869 300 875 300Q875 300 875 300Q875 300 875 300Q881 300 886 302Q891 304 895 308L1016 431Q1024 440 1024 451.5Q1024 463 1016 472ZM629 771L711 690L631 611L549 691ZM590 570L510 491L429 572L509 651ZM311 691L390 768L468 691L389 613L311 691ZM146 372L69 449L149 530L227 452L146 372ZM308 452L388 532L470 451L389 371L308 452ZM391 125L306 208L389 290L472 207L391 125ZM512 248L429 331L510 410L592 329ZM712 208L632 128L552 207L632 288L712 208ZM632 369L551 451L631 530L712 450ZM874 369L793 450L874 532L955 451Z" fill="#6a9fb5" />
  </g>
</svg>