<?xml version="1.0" encoding="UTF-8"?>
<svg width="16" height="16" viewBox="0 0 16 16" xmlns="http://www.w3.org/2000/svg">
  <g transform="translate(0.5099999999999998, 14.556064700356014) scale(0.01462890625, -0.01462890625)">
    <path d="M808 484L820 559Q896 565 896 521.5Q896 478 808 484ZM1024 448Q1024 301 952 185Q880 70 767.5 5.5Q655 -59 519 -64Q383 -69 255 5Q128 79 64 199Q0 319 0 448Q0 577 64 697Q128 817 255 891Q383 965 519 960Q655 955 767.5 890.5Q880 826 952 711Q1024 595 1024 448ZM584 688L692 688L706 774L597 774ZM342 400L237 409Q234 391 221.5 369.5Q209 348 184 347Q148 347 140.5 381Q133 415 140 455Q149 508 164.5 534.5Q180 561 203 561Q244 560 247 531.5Q250 503 249 494L362 501Q362 501 360 526Q358 551 343 580Q328 609 294 632Q260 655 196 653Q135 646 100 617Q64 588 45.5 553Q27 518 21 484Q16 451 16 436Q16 421 19 390Q21 359 36.5 327.5Q52 296 84 273Q116 249 176 249Q228 249 261 273Q293 296 311 324.5Q329 353 336 376Q342 400 342 400ZM639 355L494 355L540 640L422 640L361 257L623 257L639 355ZM644 384L689 665L580 665L535 384ZM880 645L723 645L661 257L771 257L794 400L878 400Q941 399 973 437Q1004 476 1004.5 522Q1005 568 974 606Q942 645 880 645Z" fill="#6a9fb5" />
  </g>
</svg>