<?xml version="1.0" encoding="UTF-8"?>
<svg width="16" height="16" viewBox="0 0 16 16" xmlns="http://www.w3.org/2000/svg">
  <g transform="translate(0.01856863839285738, 14.9825) scale(0.015585937499999999, -0.015585937499999999)">
    <path d="M83 435Q81 525 111 607Q142 690 197 755.5Q252 821 327 866Q403 910 490 925Q421 924 360 909Q298 894 245 864.5Q192 835 147 791Q103 746 68 686Q32 623 15 559Q-2 495 0.5 431.5Q3 368 24 305Q46 242 86 181Q122 128 166 88Q210 49 261 23Q312 -3 370 -16Q428 -28 492 -29Q402 -13 328 31Q253 75 199.5 137.5Q146 200 116 277Q86 354 83 435ZM132 593Q128 583 129.5 581.5Q131 580 142 580L1007 580Q1007 582 1006 583.5Q1005 585 1003 592Q977 669 929.5 728.5Q882 788 815 833Q777 858 737 874Q697 891 655.5 898.5Q614 906 571 906Q528 906 484 897Q418 885 364 859Q309 833 265.5 794.5Q222 756 188 706Q155 655 132 593ZM123 528Q118 529 116.5 527Q115 525 115 521Q113 511 112 501Q111 491 110 481Q110 477 111.5 475.5Q113 474 117 474L1017 474Q1022 474 1023 476Q1024 478 1024 482Q1023 491 1021.5 500Q1020 509 1020 518Q1020 525 1017 526.5Q1014 528 1008 528L123 528ZM1017 422Q1000 422 857 422Q714 422 549.5 422Q385 422 251 422Q117 422 117 422Q113 422 111.5 421Q110 420 110 416Q111 405 112 395Q113 385 115 374Q115 371 116.5 369.5Q118 368 122 368L1013 368Q1015 368 1017 369Q1019 370 1019 373Q1020 384 1021.5 394.5Q1023 405 1024 416Q1024 420 1022.5 421Q1021 422 1017 422ZM261 389Q261 389 261 389Q261 389 261 389Q261 389 261 389Q261 389 261 389Q261 389 261 389Q261 389 261 389ZM130 314Q129 310 130 307.5Q131 305 132 302Q155 234 203 170Q250 107 319 62Q388 17 477 -1Q565 -20 669 2Q711 11 749 27Q786 43 819.5 65.5Q853 88 882 117Q911 145 937 179Q960 208 977.5 240.5Q995 273 1004 310Q1005 314 1001.5 315Q998 316 996 316L139 317Q139 317 135 316.5Q131 316 130 314Z" fill="#46788d" />
  </g>
</svg>