<?xml version="1.0" encoding="UTF-8"?>
<svg width="16" height="16" viewBox="0 0 16 16" xmlns="http://www.w3.org/2000/svg">
  <g transform="translate(0.5099999999999998, 14.55375) scale(0.01462890625, -0.01462890625)">
    <path d="M82 960L942 960Q976 960 1000 936Q1024 912 1024 878L1024 18Q1024 -16 1000 -40Q976 -64 942 -64L82 -64Q48 -64 24 -40Q0 -16 0 18L0 878Q0 912 24 936Q48 960 82 960ZM666 611Q665 635 665 660Q665 685 665 711L342 711Q360 678 362 660.5Q364 643 366 586L366 328Q365 255 360 231.5Q355 208 342 185L673 185Q674 214 676.5 245.5Q679 277 682 310Q662 281 641 265Q620 249 552 249L473 249L473 417L542 417Q601 418 619 405Q637 392 649 383Q647 415 647 448Q647 481 649 513Q625 491 603.5 486Q582 481 542 480L473 480L473 647L559 647Q597 646 621.5 638.5Q646 631 666 611Z" fill="#a35f27" />
  </g>
</svg>