<?xml version="1.0" encoding="UTF-8"?>
<svg width="16" height="16" viewBox="0 0 16 16" xmlns="http://www.w3.org/2000/svg">
  <g transform="translate(0.5099999999999998, 14.555674856085528) scale(0.01462890625, -0.01462890625)">
    <path d="M297 805Q297 780 308.5 758.5Q320 737 339 723Q299 717 258 700Q218 683 183 659.5Q148 636 122 609Q96 582 85 556Q56 571 28 558Q0 545 0 518Q-1 492 31 476.5Q63 461 94 487Q102 477 113 468.5Q124 460 138 453Q137 442 138 417Q139 392 143 386Q149 378 195.5 378.5Q242 379 244 386Q246 390 247 404Q248 418 248 427Q270 426 292 428Q314 430 335 435Q331 427 329 414Q327 401 329 385Q294 361 269 326Q243 291 233.5 249.5Q224 208 233 163Q243 117 278 74Q234 59 198.5 37Q163 15 165 -13Q197 -12 261 -12Q326 -12 391 -12Q456 -12 505 -13Q554 -13 554 -13Q568 -13 581.5 -11Q595 -9 607 -6Q893 31 935 146Q976 261 942.5 398Q909 535 887 666Q865 796 1024 863Q839 830 837 714Q835 598 868 465.5Q901 333 895 217Q890 101 699 66Q747 108 763 186Q778 263 762.5 351Q747 439 700 524Q653 610 575 667Q615 674 642 705.5Q669 737 669 780Q670 841 609 880.5Q548 920 482 868Q440 924 370 904Q300 884 297 805Z" fill="#46788d" />
  </g>
</svg>