<?xml version="1.0" encoding="UTF-8"?>
<svg width="16" height="16" viewBox="0 0 16 16" xmlns="http://www.w3.org/2000/svg">
  <g transform="translate(0.020000000000000462, 14.9825) scale(0.015585937499999999, -0.015585937499999999)">
    <path d="M812 101L773 -25L681 -25L664 23ZM669 604L468 462L552 325L669 604ZM852 911L894 745L1014 800L852 911ZM530 312L447 447L189 264ZM877 709L729 641L925 518L877 709ZM723 615L774 420L919 492ZM758 383L588 298L817 158ZM697 669L799 913L608 776ZM455 483L658 626L381 603L455 483ZM434 468L358 592L184 292L434 468ZM407 630L677 653L588 761L407 630ZM826 912L723 666L871 734L826 912ZM699 608L578 322L751 408L699 608ZM781 395L837 180L927 468L781 395ZM575 276L655 47L814 130L575 276ZM641 12L570 -25L654 -25L641 12ZM97 -23L241 82L143 221L0 -25L99 -25L97 -23ZM900 720L947 532L1024 777L900 720ZM318 -25L256 62L136 -25ZM633 36L553 263L432 -25L515 -25L633 36ZM572 780L510 854L392 651ZM519 285L163 235L261 97L519 285ZM524 258L276 77L349 -25L405 -25L524 258ZM592 795L768 921L528 872L592 795Z" fill="#75b5aa" />
  </g>
</svg>