<?xml version="1.0" encoding="UTF-8"?>
<svg width="16" height="16" viewBox="0 0 16 16" xmlns="http://www.w3.org/2000/svg">
  <g transform="translate(0.020000000000000462, 14.978603515625) scale(0.015585937499999999, -0.015585937499999999)">
    <path d="M379 719L379 601L129 487L379 369L379 253L0 433L0 538L379 719ZM636 612Q636 635 619.5 646.5Q603 658 587 646Q570 635 570 612.5Q570 590 587 579Q603 567 619.5 578.5Q636 590 636 612ZM546 520Q490 551 490 612.5Q490 674 546 705Q602 735 658.5 704.5Q715 674 715 612Q715 551 658.5 520Q602 489 546 520ZM946 280Q946 303 929.5 314Q913 325 896 314Q880 303 880 280.5Q880 258 896 246Q913 235 929.5 246.5Q946 258 946 280ZM856 188Q800 218 800 280Q800 342 856 372Q912 403 968 372Q1024 341 1024 280Q1024 219 968 188Q912 157 856 188ZM626 173L1015 723L882 723L487 173L626 173Z" fill="#90a959" />
  </g>
</svg>