<?xml version="1.0" encoding="UTF-8"?>
<svg width="16" height="16" viewBox="0 0 16 16" xmlns="http://www.w3.org/2000/svg">
  <g transform="translate(0.6044726562499996, 14.986043910695546) scale(0.015585937499999999, -0.015585937499999999)">
    <path d="M337 742Q355 739 351.5 720.5Q348 702 330 706Q258 719 200 711Q142 704 108 675.5Q74 647 71 598Q68 548 106 478Q115 462 99 452.5Q83 443 73 459Q28 539 32 599Q35 659 74.5 696.5Q114 734 183 746Q252 758 337 742ZM821 382Q885 461 905 528Q925 595 907.5 644Q890 693 839 721Q788 749 710 750Q692 750 692 731.5Q692 713 710 713Q778 713 820 690Q862 666 873.5 624.5Q885 583 866 527Q846 471 792 406Q780 392 794.5 380Q809 368 821 382ZM640 53Q650 69 634 78.5Q618 88 608 72Q570 11 527 -11Q485 -34 444.5 -21.5Q404 -9 367 37Q330 83 301 157Q295 174 277.5 168Q260 162 266 144Q292 67 336 14Q379 -40 431 -57Q483 -74 538 -49Q593 -25 640 53ZM527 422Q527 452 500.5 467.5Q474 483 448 468Q422 453 422 422.5Q422 392 448 377Q474 362 500.5 377Q527 392 527 422ZM71 254Q73 316 116 383Q160 451 232 512.5Q304 574 399 624Q494 674 600 701Q618 705 614 723Q610 741 592 737Q494 716 393 665Q291 613 210 545Q129 477 79 399Q29 320 34 244Q0 223 0 183Q0 143 35 124Q70 103 105 123.5Q140 144 140 184Q140 214 119 234Q98 254 71 254ZM840 126Q865 109 895.5 116.5Q926 124 941 153Q959 189 936.5 222.5Q914 256 873 254Q836 252 817.5 219.5Q799 187 815 154Q753 127 670 135Q587 142 498.5 175Q410 208 323 264Q237 320 171 390Q158 404 144.5 391.5Q131 379 143 366Q207 296 297 236Q388 176 485.5 139Q583 102 677 96Q770 89 840 126ZM545 890Q545 925 516 946.5Q487 968 452 956Q414 944 406 904.5Q398 865 428 838Q453 815 485.5 821Q518 827 534 853Q582 822 618 755Q655 689 674 599Q693 509 690 401Q687 294 656 180Q650 163 668 157.5Q686 152 691 169Q720 262 726 370Q732 479 714.5 580.5Q697 682 655 765Q613 849 545 890Z" fill="#4d9085" />
  </g>
</svg>