<?xml version="1.0" encoding="UTF-8"?>
<svg width="16" height="16" viewBox="0 0 16 16" xmlns="http://www.w3.org/2000/svg">
  <g transform="translate(3.4122464364035086, 14.12424045138889) scale(0.013671875, -0.013671875)">
    <path d="M661 263Q654 166 620 104Q586 41 539.5 4.5Q493 -32 443 -47Q394 -62 356 -64Q318 -65 266 -57Q215 -49 164 -20Q113 9 71 64Q28 119 9 210Q-14 312 17 433Q48 555 105 664.5Q162 774 232 856Q302 938 358 960Q350 805 400 719Q449 633 510 569.5Q571 506 620 441Q669 376 661 263ZM265 25Q316 14 351.5 10.5Q387 7 392 28Q396 44 371 56Q346 68 307 77.5Q268 87 222 94Q175 100 136 104Q160 79 200 54.5Q240 30 265 25Z" fill="#aa759f" />
  </g>
</svg>