<?xml version="1.0" encoding="UTF-8"?>
<svg width="16" height="16" viewBox="0 0 16 16" xmlns="http://www.w3.org/2000/svg">
  <g transform="translate(0.5099999999999998, 14.55375) scale(0.01462890625, -0.01462890625)">
    <path d="M512 477L733 697L290 697L512 477ZM27 960L251 738L735 738L512 960L27 960ZM782 691L1023 449L781 208L539 448L782 691ZM1024 505L1024 960L568 960ZM483 448L0 933L0 -35L483 448ZM808 179L1024 -35L1024 394L808 179ZM512 421L27 -64L995 -64L512 421Z" fill="#6a9fb5" />
  </g>
</svg>