<?xml version="1.0" encoding="UTF-8"?>
<svg width="16" height="16" viewBox="0 0 16 16" xmlns="http://www.w3.org/2000/svg">
  <g transform="translate(0.020000000000000462, 14.48375) scale(0.015585937499999999, -0.015585937499999999)">
    <path d="M988 355Q984 347 981 339Q978 331 974 324Q971 318 967 312Q963 306 959 301Q955 296 950.5 292Q946 288 940 285Q935 283 929 281.5Q923 280 916 280Q906 280 899 282.5Q892 285 889 290Q885 295 883 301.5Q881 308 881 316Q881 325 883 336Q885 347 888 361Q891 375 894.5 389Q898 403 902 419Q906 434 909.5 449.5Q913 465 916 480Q919 496 921 510.5Q923 525 923 538Q923 563 916 582Q909 601 895 612Q882 623 865 629Q848 635 827 635Q821 635 814.5 634.5Q808 634 801 632Q794 631 786.5 628.5Q779 626 771 622Q763 618 755 612.5Q747 607 739 600Q730 593 722 583.5Q714 574 707 562Q702 583 694 597.5Q686 612 674 620Q663 628 649 632Q635 636 619 636Q608 636 595.5 633.5Q583 631 569 627Q555 622 541.5 612Q528 602 514 587L524 631L400 631L341 354Q333 345 325 337Q317 329 310 321Q301 313 292.5 306.5Q284 300 275 294Q266 288 256.5 283.5Q247 279 236 275Q226 272 214.5 270.5Q203 269 190 269Q175 269 163 272.5Q151 276 144 283Q136 290 132 304.5Q128 319 128 341Q128 345 128 349Q128 353 129 357Q129 361 129 365.5Q129 370 130 375Q149 376 167.5 380.5Q186 385 204 392Q222 399 237.5 408.5Q253 418 267 430Q280 442 291 455.5Q302 469 310 485Q319 501 323 518Q327 535 327 553Q327 561 326 569Q325 577 323 584Q321 591 317.5 598Q314 605 308 610Q303 616 295.5 620.5Q288 625 279 629Q270 632 258 634Q246 636 232 636Q210 636 190.5 632Q171 628 154 620Q137 612 122 602Q107 592 94 579Q81 566 70 551.5Q59 537 50 521Q41 505 33.5 488.5Q26 472 21 455Q16 438 12 422Q8 406 5 390Q3 374 1.5 359.5Q0 345 0 333Q0 296 9 270Q18 244 37 228Q55 212 79.5 204Q104 196 135 196Q156 196 176 199.5Q196 203 213 210Q231 217 247 226Q263 235 278 246Q292 257 304.5 269Q317 281 328 295L309 201L432 201L491 477Q496 494 502.5 508Q509 522 518 534Q527 546 537.5 551.5Q548 557 561 557Q568 557 573 554.5Q578 552 581 546Q584 540 585 533.5Q586 527 586 520Q586 514 585.5 508.5Q585 503 584 498L521 201L645 201L703 477Q708 494 714.5 508Q721 522 730 533Q739 545 749 551Q759 557 770 557Q786 557 793.5 546Q801 535 801 513Q801 502 799.5 490Q798 478 795 463Q792 449 789 434Q786 419 782 404Q778 389 775 374Q772 359 769 345Q766 330 764.5 317Q763 304 763 293Q763 284 764 275.5Q765 267 768 258Q770 249 774.5 241Q779 233 785 226Q791 220 799 214.5Q807 209 816 204Q826 200 838 198Q850 196 864 196Q873 196 882 197.5Q891 199 901 201Q912 204 922 209.5Q932 215 943 223Q954 231 964.5 243Q975 255 985 271Q996 286 1005.5 307.5Q1015 329 1024 355L988 355ZM153 479Q159 494 165 508Q171 522 178 534Q185 546 192 556Q199 566 207 574Q215 582 223 585.5Q231 589 239 589Q245 589 249 587Q253 585 256 580Q258 575 259.5 568.5Q261 562 261 554Q261 541 258.5 528.5Q256 516 251 504Q246 492 239 481Q232 470 224 461Q215 452 205 444Q195 436 184 430Q172 424 160 420.5Q148 417 136 416Q139 432 143.5 447.5Q148 463 153 479Z" fill="#ac4142" />
  </g>
</svg>