<?xml version="1.0" encoding="UTF-8"?>
<svg width="16" height="16" viewBox="0 0 16 16" xmlns="http://www.w3.org/2000/svg">
  <g transform="translate(0.5099999999999995, 14.55375) scale(0.01462890625, -0.01462890625)">
    <path d="M415 -54Q327 -37 252 8Q177 54 122.5 120.5Q68 187 36 271Q5 355 5 448Q5 554 45 647Q85 741 153.5 810.5Q222 880 315 920Q407 960 512 960Q593 960 667 936Q741 911 802.5 867.5Q864 824 911 764Q958 703 985 631Q963 624 911 580.5Q859 537 758 415L758 411Q713 359 668.5 305Q624 251 592 211Q578 214 563.5 217.5Q549 221 533 225Q430 251 389.5 275Q349 299 333 317Q319 335 342 366Q365 397 448 415Q469 420 513 423Q557 427 601.5 428.5Q646 430 680 431Q713 431 713 431Q691 449 661 472Q630 496 601.5 518Q573 540 549 558Q526 576 518 582Q502 594 483 611Q464 628 461 644Q458 660 476 668Q494 676 508 677Q550 680 605 675.5Q660 671 712 661Q738 655 745.5 655Q753 655 753 655Q790 653 815 672.5Q840 692 839 733Q838 774 803 803.5Q768 833 722 835Q678 836 600 831Q522 826 522 826Q646 801 681.5 790Q717 779 723 764Q727 755 715 748Q703 741 669 742Q632 744 574.5 750.5Q517 757 517 757Q444 768 394.5 772Q345 776 323 747Q309 729 318.5 708Q328 687 334 674Q363 623 406.5 587.5Q450 552 482 528Q494 519 520 503.5Q546 488 546 488Q490 504 439 508Q388 512 344.5 508Q301 504 264 493Q227 481 199 466Q133 427 147 366.5Q161 306 265 245Q327 209 374.5 189Q422 169 523 157Q529 156 534.5 155Q540 154 545 153Q543 151 535 139Q527 127 522 120Q513 119 506 119Q499 119 494 118Q470 117 431 116Q392 114 354.5 113.5Q317 113 290 113Q262 113 262 113Q262 113 292 105.5Q322 98 367 92Q380 91 417 87Q454 83 496 81Q466 36 445.5 1Q425 -34 415 -54ZM1003 573Q987 543 959 505Q930 467 902.5 433.5Q875 400 854 377Q834 354 834 354L829 356Q791 309 753.5 266Q716 223 685 189Q711 181 732 172.5Q753 164 771 152Q785 141 784 132Q783 123 783 120Q771 106 748.5 98.5Q726 91 689 86Q666 82 636.5 81Q607 80 584 79Q559 54 514.5 11Q470 -32 439 -59Q457 -61 475 -62.5Q493 -64 512 -64Q617 -64 709 -24Q802 16 870.5 85.5Q939 155 979 249Q1019 342 1019 448Q1019 480 1015 511.5Q1011 543 1003 573Z" fill="#aa759f" />
  </g>
</svg>