<?xml version="1.0" encoding="UTF-8"?>
<svg width="16" height="16" viewBox="0 0 16 16" xmlns="http://www.w3.org/2000/svg">
  <g transform="translate(0.5101784012957316, 14.556109501008065) scale(0.01462890625, -0.01462890625)">
    <path d="M84 583Q92 661 142 698Q193 735 250.5 733.5Q308 732 355 693Q403 655 405 583L84 583ZM491 501Q495 563 485 612Q476 661 455.5 698Q435 735 404 761Q373 788 333 804Q271 826 212 817Q152 807 105 774.5Q58 742 29 690Q0 637 0 573Q0 540 13 499Q26 457 55 420Q84 383 131 357Q178 332 246 332L490 332L490 416L229 416Q187 421 155.5 442.5Q124 464 106 501L491 501ZM958 742Q911 794 848 811Q786 828 726 814Q666 800 618 758Q569 715 549 648Q531 589 542 533Q553 477 585 433Q617 389 666 361Q715 334 772 332L772 414Q704 418 656.5 473Q609 528 621 603Q629 649 658 682Q686 714 724.5 728.5Q763 743 806 738Q848 732 884 702Q932 663 941 605.5Q950 548 924 500L924 377Q966 408 991 453Q1017 498 1022.5 548Q1028 598 1013 649Q998 700 958 742ZM887 558L802 558L802 76L887 76Z" fill="#d28445" />
  </g>
</svg>