<?xml version="1.0" encoding="UTF-8"?>
<svg width="16" height="16" viewBox="0 0 16 16" xmlns="http://www.w3.org/2000/svg">
  <g transform="translate(0.020000000000000462, 14.9825) scale(0.015585937499999999, -0.015585937499999999)">
    <path d="M139 772L0 772L0 124L161 124Q131 156 107 193Q84 231 68 273.5Q52 316 43 364Q35 411 35 463Q35 509 42 552Q49 595 62.5 633.5Q76 672 95 707Q115 742 139 772ZM895 124Q920 151 943.5 183.5Q967 216 987 253L833 330Q792 264 732 212.5Q672 161 590 161Q530 161 488 185Q446 209 419.5 251Q393 293 380 350Q368 407 368 473L964 473Q965 488 964.5 500Q964 512 964 512Q967 590 947.5 655.5Q928 721 890 772L1024 772L1024 124L895 124ZM378 623Q383 683 424.5 719.5Q466 756 521 757Q576 756 612.5 719.5Q649 683 650 623Q650 623 607 623Q565 623 514 623Q463 623 420 623Q378 623 378 623Z" fill="#8f5536" />
  </g>
</svg>