<?xml version="1.0" encoding="UTF-8"?>
<svg width="16" height="16" viewBox="0 0 16 16" xmlns="http://www.w3.org/2000/svg">
  <g transform="translate(0.5099999999999998, 14.556064700356012) scale(0.01462890625, -0.01462890625)">
    <path d="M322 728Q270 689 241.5 619Q213 549 222 468Q277 440 300.5 388Q324 336 312 276Q357 245 407 229Q457 213 507.5 212.5Q558 212 607 227Q655 241 697 272Q688 341 713.5 394Q739 447 793 469Q799 532 783 587Q767 642 739 680Q708 723 657 750Q606 777 547.5 785.5Q489 794 430 780Q370 767 322 728ZM599 453L545 453L510 409L471 453L401 453Q336 454 303.5 509.5Q271 565 303 622Q332 677 404 679.5Q476 682 510 605Q543 684 619.5 680.5Q696 677 724 607Q747 545 706 496Q665 447 599 453ZM255 891Q128 817 64 697Q0 577 0 448Q0 319 64 199Q128 79 255 5Q383 -69 519 -64Q655 -59 767.5 5.5Q880 70 952 185Q1024 301 1024 448Q1024 595 952 711Q880 826 767.5 890.5Q655 955 519 960Q383 965 255 891ZM741 197Q732 205 723.5 218Q715 231 707 248Q689 235 670 224.5Q651 214 629 205L629 134Q627 103 591.5 102.5Q556 102 551 119L551 68Q551 31 510.5 33.5Q470 36 470 66L470 119Q462 103 428.5 102.5Q395 102 391 134L391 204Q370 213 347.5 224Q325 235 306 251Q299 237 289.5 222.5Q280 208 270 194Q222 239 197.5 305Q173 371 195 471Q190 513 196 553Q203 593 217 628Q231 663 250 691Q270 719 292 735L292 848L389 793Q443 813 505.5 813.5Q568 814 628 792L720 846L722 738Q787 676 805 609Q823 542 818 457Q834 381 816 314Q798 247 741 197Z" fill="#ac4142" />
  </g>
</svg>