<?xml version="1.0" encoding="UTF-8"?>
<svg width="16" height="16" viewBox="0 0 16 16" xmlns="http://www.w3.org/2000/svg">
  <g transform="translate(0.020000000000000462, 14.9825) scale(0.015585937499999999, -0.015585937499999999)">
    <path d="M724 328L514 207L304 328L304 571L514 692L724 571L724 328ZM1018 422L785 20Q779 9 768 3.5Q757 -2 744 -2L280 -2Q267 -2 256 3.5Q245 9 239 20L6 421Q0 432 0 445Q0 458 6 469L239 872Q245 883 256 890.5Q267 898 280 898L744 898Q757 898 768 890.5Q779 883 785 872L1018 468Q1024 457 1024 445Q1024 433 1018 422ZM825 264L825 625L512 805L199 625L199 264L512 84L825 264Z" fill="#c7a4c0" />
  </g>
</svg>