<?xml version="1.0" encoding="UTF-8"?>
<svg width="16" height="16" viewBox="0 0 16 16" xmlns="http://www.w3.org/2000/svg">
  <g transform="translate(0.5087809244791659, 14.55375) scale(0.01462890625, -0.01462890625)">
    <path d="M907 413L744 413L744 495L907 495L907 413ZM907 367L744 367L744 285L907 285L907 367ZM907 750L744 750L744 669L907 669L907 750ZM907 622L744 622L744 541L907 541L907 622ZM907 239L744 239L744 157L907 157L907 239ZM1020 78Q1016 60 998.5 56.5Q981 53 966 52L605 52L605 -52L532 -52L0 41L0 855L536 948L605 948L605 855L954 855Q969 855 984.5 854Q1000 853 1012 844Q1021 831 1022 815.5Q1023 800 1024 785L1024 180Q1023 154 1024 128.5Q1025 103 1020 78ZM427 261Q402 309 378 358Q354 407 330 456Q354 503 377 550.5Q400 598 424 646Q404 645 384 644Q364 643 345 641Q330 606 314 570.5Q298 535 287 498Q276 533 262.5 567Q249 601 236 635Q217 634 197.5 632.5Q178 631 159 630Q179 586 200.5 541.5Q222 497 241 452Q218 408 196 364Q174 320 152 276Q171 276 190 275Q209 274 228 274Q242 309 257.5 343Q273 377 285 412Q295 374 311.5 338Q328 302 343 266Q364 264 385 263Q406 262 427 261ZM969 800L605 800L605 750L698 750L698 669L605 669L605 622L698 622L698 541L605 541L605 495L698 495L698 413L605 413L605 367L698 367L698 285L605 285L605 239L698 239L698 157L605 157L605 103L969 103L969 800Z" fill="#be2f31" />
  </g>
</svg>