<?xml version="1.0" encoding="UTF-8"?>
<svg width="16" height="16" viewBox="0 0 16 16" xmlns="http://www.w3.org/2000/svg">
  <g transform="translate(0.43986328125000096, 15.411249999999999) scale(0.016542968749999998, -0.016542968749999998)">
    <path d="M732 463Q783 459 821 488.5Q859 518 869 563Q851 590 816 599Q781 608 747 586Q716 564 709.5 529.5Q703 495 732 463ZM547 939L299 802L356 772L604 908L547 939ZM312 562L554 10L618 -29L348 754L283 789L26 303L73 276L295 564Q298 569 303.5 568.5Q309 568 312 562ZM744 431Q691 460 691 518.5Q691 577 744 606Q796 635 849 606Q902 577 902 519Q902 460 849 431Q796 402 744 431ZM824 358Q824 358 838 317Q852 276 869 227Q886 178 900 137Q914 96 914 96L638 -64Q638 -64 587.5 -32.5Q537 -1 537 -1L356 412L75 254Q75 254 37.5 275.5Q0 297 0 297L272 808Q272 808 315 832Q358 856 409.5 884.5Q461 913 503 936Q546 960 546 960L632 914L718 661Q655 627 638 572Q620 517 637.5 466.5Q655 416 704 383Q753 350 824 358Z" fill="#6a9fb5" />
  </g>
</svg>