<?xml version="1.0" encoding="UTF-8"?>
<svg width="16" height="16" viewBox="0 0 16 16" xmlns="http://www.w3.org/2000/svg">
  <g transform="translate(0.02164208984375115, 14.98285210418701) scale(0.015585937499999999, -0.015585937499999999)">
    <path d="M4 396Q60 413 110 440Q159 466 204 498Q249 530 290 565Q331 600 369 634Q403 615 421 602.5Q439 590 479 567Q458 547 411 505Q364 462 304 417Q244 372 178 334Q112 297 53 286Q21 291 7.5 336Q-6 381 4 396ZM550 758Q550 758 588.5 724.5Q627 691 656 674Q682 700 732 707Q782 714 786 737Q787 763 779 793.5Q771 824 757 834Q726 834 660.5 811Q595 788 550 758ZM1017 497Q962 480 910 456Q858 432 810 402.5Q762 373 719 341Q676 308 638 275Q601 295 588.5 307.5Q576 320 537 347Q558 367 603 407Q649 447 709 489Q769 531 838 566Q907 601 975 612Q1007 606 1017.5 559Q1028 512 1017 497ZM479 152Q479 152 443.5 180Q408 208 380 228Q342 204 287.5 187Q233 170 232 145Q231 119 245.5 92Q260 65 275 55Q306 55 370 88.5Q434 122 479 152ZM232 722Q221 728 237 786Q253 844 264 842Q331 835 407 797Q482 760 550.5 713.5Q619 667 671 623Q724 578 746 556Q711 530 694 520.5Q677 511 640 480Q619 505 571 541Q523 578 464 614Q405 650 342 681Q280 711 232 722ZM791 171Q803 165 783.5 108.5Q764 52 753 54Q686 61 614 102Q542 144 477 195Q412 246 359 294Q306 343 275 364Q310 390 327 399.5Q344 409 381 440Q406 419 455 379Q504 338 563 296Q622 254 682 218Q743 183 791 171ZM932 433Q932 433 889 411Q846 389 800 356Q837 344 900 308.5Q963 273 981 287Q1000 305 1013.5 335.5Q1027 366 1023 383Q1009 401 988.5 406.5Q968 412 932 433ZM100 465Q100 465 137.5 491Q175 517 221 550Q180 561 122.5 588.5Q65 616 33 606Q14 589 6 555Q-2 521 2 504Q24 488 46.5 483Q69 478 100 465Z" fill="#6a9fb5" />
  </g>
</svg>