<?xml version="1.0" encoding="UTF-8"?>
<svg width="16" height="16" viewBox="0 0 16 16" xmlns="http://www.w3.org/2000/svg">
  <g transform="translate(0.5733007812500004, 14.99029296875) scale(0.015585937499999999, -0.015585937499999999)">
    <path d="M144 375L72 375L72 447L144 447ZM218 521L144 521L144 447L218 447L218 521ZM292 595L218 595L218 521L292 521ZM366 669L292 669L292 595L366 595ZM438 741L366 741L366 669L438 669ZM512 887L438 887L438 741L512 741ZM586 960L512 960L512 888L586 888ZM586 816L658 816L658 887L586 887ZM658 741L731 741L731 815L658 815ZM731 668L806 668L806 741L731 741ZM806 597L878 597L878 668L806 668ZM953 596L878 596L878 448L953 448ZM512 741L512 668L585 668L585 741ZM585 668L585 594L658 594L658 668ZM731 522L731 594L658 594L658 522ZM586 229L658 229L658 301L586 301ZM366 8L292 8L292 -63L440 -63L440 8L512 8L512 155L586 155L586 229L512 229L512 155L439 155L438 82L367 82L367 8ZM219 8L292 8L292 82L219 82L219 8ZM146 155L146 82L219 82L219 155L146 155ZM72 229L72 155L146 155L146 229L72 229ZM72 375L0 375L0 229L72 229ZM806 521L731 521L731 374L658 374L658 302L731 302L731 374L878 374L878 448L806 448Z" fill="#d28445" />
  </g>
</svg>