<?xml version="1.0" encoding="UTF-8"?>
<svg width="16" height="16" viewBox="0 0 16 16" xmlns="http://www.w3.org/2000/svg">
  <g transform="translate(-1.0290201822916671, 15.902229817708335) scale(0.017636718750000002, -0.017636718750000002)">
    <path d="M673 423Q673 423 680 421Q687 419 687 417Q687 414 691.5 411Q696 408 699 411Q700 412 700.5 411.5Q701 411 701 411Q702 406 707.5 405Q713 404 717 412Q717 413 718.5 414Q720 415 721 413Q725 409 727 409Q729 409 732 411Q738 422 748 428Q758 434 758 434Q764 431 772 437.5Q780 444 779 454Q779 460 775 462.5Q771 465 756 464Q770 471 774 478Q778 485 778 485Q778 485 778.5 497.5Q779 510 782 511Q790 513 794.5 515Q799 517 799 517Q799 517 798.5 519Q798 521 800 522Q802 524 806 525Q810 526 812 527Q815 529 816 526.5Q817 524 820 525Q821 526 820.5 528.5Q820 531 821 531Q847 536 859.5 555Q872 574 874 578Q876 581 889.5 584Q903 587 903 587Q919 579 932.5 571.5Q946 564 969 562Q980 561 985 561.5Q990 562 997 556Q1004 550 1005.5 552.5Q1007 555 1007 555Q1007 558 1006 561Q1005 564 1005 567Q1004 569 1004.5 570.5Q1005 572 1004 574Q1001 569 1000 571Q999 573 997 575Q996 576 994.5 576Q993 576 994 580Q991 578 988.5 577.5Q986 577 984 580Q981 583 977.5 584.5Q974 586 972 586Q968 586 962.5 588.5Q957 591 956 592Q953 596 945.5 600Q938 604 932 606Q926 608 925 609.5Q924 611 924 611Q924 611 924.5 615Q925 619 931 620Q933 621 939.5 619.5Q946 618 955 618Q965 611 965 613Q965 615 970 615Q970 615 971.5 612.5Q973 610 973 611Q975 614 977 613Q979 612 979 611Q980 610 982 612Q984 614 982 609Q984 610 984.5 611Q985 612 986 614Q987 613 987.5 611.5Q988 610 988 607Q990 608 992 610Q994 612 996 615Q998 614 999 612.5Q1000 611 1000 608Q1002 609 1003 610.5Q1004 612 1004 614Q1005 613 1005 611.5Q1005 610 1005 608Q1006 609 1006.5 610Q1007 611 1007 613Q1009 612 1009 609.5Q1009 607 1008 604Q1010 605 1011.5 607Q1013 609 1014 611Q1014 609 1014.5 607Q1015 605 1015 603Q1019 610 1021 609.5Q1023 609 1023 609Q1025 618 1022.5 626.5Q1020 635 1014 640Q1011 643 1007 644Q1003 645 999 646Q989 651 985.5 655Q982 659 975 654Q969 650 967 654.5Q965 659 965 659Q951 672 940.5 672Q930 672 924 672Q919 672 907.5 673.5Q896 675 896 675Q883 675 877 669Q871 663 856 651Q841 639 832 627Q823 615 822 611Q819 600 815.5 594Q812 588 788 582Q761 576 740 592Q719 608 695 606Q676 604 663.5 603Q651 602 626 604Q616 605 609.5 602Q603 599 594 599Q559 602 533 587.5Q507 573 484 562Q476 559 469 555.5Q462 552 451 551Q441 550 430.5 552Q420 554 408 556Q392 560 375 562Q358 564 342 568Q334 571 325 575.5Q316 580 307 583Q297 588 286 589.5Q275 591 264 594Q252 597 240.5 603.5Q229 610 218 612Q212 614 206.5 614.5Q201 615 195 617Q177 621 163 625Q149 629 132 630Q88 633 57.5 626Q27 619 0 598Q0 598 4 597.5Q8 597 28 606Q49 614 92 614.5Q135 615 162 601Q189 587 205.5 582Q222 577 253 562Q253 562 281.5 546Q310 530 351 508Q367 500 382 495Q397 490 411 484Q434 474 447 467Q460 460 463 459Q467 457 471.5 455.5Q476 454 481 449Q485 444 487.5 445Q490 446 492 444Q495 440 498 439Q501 438 502 435Q503 432 507 417.5Q511 403 511 400Q511 400 497.5 396.5Q484 393 482 387Q480 380 478 367Q476 354 461 339Q458 336 454.5 334.5Q451 333 447 332Q443 331 439 327.5Q435 324 438 318Q439 316 441 313Q443 310 444 307Q445 288 445 274Q445 260 445 260Q445 260 445.5 256Q446 252 446 245Q446 238 452 230Q458 222 476 225Q489 226 489.5 227.5Q490 229 497 228Q504 228 512.5 226Q521 224 524 222Q526 220 526 222.5Q526 225 525 227Q522 231 520.5 234Q519 237 519 240Q519 243 526.5 241Q534 239 538 235Q538 235 538.5 241Q539 247 524 258Q519 262 516 259.5Q513 257 510 261Q507 264 503.5 263Q500 262 499 262Q497 263 498 269.5Q499 276 501 276Q504 276 508 276.5Q512 277 506 284Q505 285 506 288.5Q507 292 510 292Q513 291 518 287Q523 283 523 278Q523 278 523.5 278.5Q524 279 524 280Q525 284 520.5 293.5Q516 303 502 305Q498 306 496.5 305Q495 304 492 298Q490 303 488 303Q486 303 486 303Q486 303 484 294.5Q482 286 483 273Q481 271 478 273Q475 275 475 275Q467 286 467 298.5Q467 311 474 321L475 327Q475 327 483.5 334Q492 341 506 350Q517 357 527 361Q537 365 554 381Q571 397 577 406Q583 415 588 426Q604 425 613.5 426.5Q623 428 633 432Q628 411 612 405.5Q596 400 595 391Q595 384 600 382.5Q605 381 605 381Q605 381 615.5 381Q626 381 638 374Q650 367 656 362.5Q662 358 662 352Q662 352 663.5 348.5Q665 345 663 342Q662 341 661.5 337Q661 333 663 329Q665 325 662 326Q659 327 657 315Q657 315 654 317Q651 319 649 323Q647 323 646.5 320.5Q646 318 648 312Q650 306 656 301.5Q662 297 670 305Q670 305 671 305.5Q672 306 673 304Q674 302 678 300.5Q682 299 686 302Q689 306 693 307Q697 308 696 320Q699 324 699 328Q699 332 696 336Q696 336 695 337.5Q694 339 697 339Q700 340 703 344Q706 348 707 355Q707 355 711.5 352.5Q716 350 718 344Q721 337 721.5 335Q722 333 723 333Q724 333 726 336.5Q728 340 726 346Q725 352 717.5 360Q710 368 699 368Q699 368 695 368.5Q691 369 690 369Q688 371 685.5 370Q683 369 683 370Q681 371 678 374.5Q675 378 675 382Q675 386 650 389Q625 392 625 392Q625 392 622 395.5Q619 399 627 401Q644 405 658.5 414Q673 423 673 423Z" fill="#a35f27" />
  </g>
</svg>