<?xml version="1.0" encoding="UTF-8"?>
<svg width="16" height="16" viewBox="0 0 16 16" xmlns="http://www.w3.org/2000/svg">
  <g transform="translate(0.5140635850694438, 14.55375) scale(0.01462890625, -0.01462890625)">
    <path d="M423 223L509 405L716 406L787 371L835 372L913 299L613 74Q613 74 580.5 106.5Q548 139 485 146Q456 148 415 145Q374 141 333 134.5Q292 128 256 120Q221 112 204 108Q137 90 146 40Q155 -10 159 -17Q77 29 42.5 60Q8 91 1 132Q-6 173 18.5 193Q43 213 43 220Q44 232 46.5 242Q49 252 54 262Q189 236 260.5 231Q332 226 423 223ZM263 309L397 420L386 306L325 287ZM510 480L510 517L640 598Q689 606 737 613Q785 619 833 625.5Q881 632 928 638Q976 644 1024 650L895 422L789 422ZM58 285Q113 334 149 377Q184 421 207 457.5Q230 494 243 523Q257 553 269 576Q276 588 308 612Q340 636 394 672.5Q448 709 522 758Q597 808 689 871L689 787L1023 913L956 704Q920 686 880 676Q840 667 803 663Q766 659 735 657Q704 656 686 652Q661 649 605 631Q549 612 490.5 586.5Q432 561 384 532Q335 504 325 481Q288 418 242 379Q195 341 154.5 320Q114 299 86 292Q58 285 58 285Z" fill="#ac4142" />
  </g>
</svg>