<?xml version="1.0" encoding="UTF-8"?>
<svg width="16" height="16" viewBox="0 0 16 16" xmlns="http://www.w3.org/2000/svg">
  <g transform="translate(0.5075618489583333, 14.554506667564656) scale(0.01462890625, -0.01462890625)">
    <path d="M1024 116L703 128L490 15L409 65L147 18Q87 219 49 368Q10 516 2 618.5Q-6 721 19 779Q44 837 109 858Q169 876 229 880Q289 884 344.5 873.5Q400 863 448 838Q496 813 531 774Q562 739 633 650Q704 560 782.5 457.5Q861 355 930 259Q998 163 1024 116ZM332 456Q332 456 340 487Q349 518 358.5 560.5Q368 603 374 647Q381 691 377 717L208 543L53 562L153 447L213 502L332 456Z" fill="#6a9fb5" />
  </g>
</svg>