<?xml version="1.0" encoding="UTF-8"?>
<svg width="16" height="16" viewBox="0 0 16 16" xmlns="http://www.w3.org/2000/svg">
  <g transform="translate(2.6851953125000003, 14.9825) scale(0.015585937499999999, -0.015585937499999999)">
    <path d="M485 960L132 764L0 277L204 -64L550 126L682 617L485 960ZM356 632L228 734L412 836ZM482 818L581 645L427 615L482 818ZM184 676L335 555L281 356L89 327L184 676ZM204 77L98 255L260 279ZM330 259L454 157L275 58ZM498 215L351 336L405 536L595 574L498 215Z" fill="#90a959" />
  </g>
</svg>