<?xml version="1.0" encoding="UTF-8"?>
<svg width="16" height="16" viewBox="0 0 16 16" xmlns="http://www.w3.org/2000/svg">
  <g transform="translate(1.5340234375000001, 14.546435546875) scale(0.01462890625, -0.01462890625)">
    <path d="M313 960L571 960L799 328L567 328L433 734L299 328L81 328L313 960ZM250 61Q250 133 187 169Q124 205 62 169Q0 133 0 61Q0 -11 62 -47Q124 -83 187 -47Q250 -11 250 61ZM884 61Q884 133 821.5 169Q759 205 697 169Q634 133 634 61Q634 -11 697 -47Q759 -83 821.5 -47Q884 -11 884 61Z" fill="#a35f27" />
  </g>
</svg>