<?xml version="1.0" encoding="UTF-8"?>
<svg width="16" height="16" viewBox="0 0 16 16" xmlns="http://www.w3.org/2000/svg">
  <g transform="translate(2.3261589421452697, 14.55519228653169) scale(0.01462890625, -0.01462890625)">
    <path d="M719 960Q719 960 713 915Q707 870 618 828Q589 814 550 803Q512 792 469.5 784Q427 776 383 772Q339 767 298 766Q294 666 291 595Q288 524 297 398Q301 353 308 310Q314 266 324.5 225Q335 184 348 144Q362 105 379 67L409 1L366 59Q334 103 310 169Q286 236 271.5 325Q257 414 250 524Q244 635 247 768Q220 769 195.5 773Q171 777 150 784Q56 811 76.5 867Q97 923 97 923Q61 881 30.5 834Q0 787 0 714Q0 647 46 607Q92 567 147 548Q144 518 147 483Q150 448 155 415Q116 431 92.5 453Q69 475 63 533Q15 452 44 383Q73 314 193 266Q197 237 204.5 209.5Q212 182 224 157Q202 161 185 173Q168 185 151 209Q151 144 181.5 101.5Q212 59 288 48Q343 -15 386 -42.5Q429 -70 475 -62Q502 -58 531 -31Q560 -4 571 37Q522 -10 493.5 -1.5Q465 7 450 57Q510 70 539.5 111Q569 152 548 239Q529 210 501 188.5Q473 167 437 151L441 260Q500 267 546 288Q593 309 622.5 345Q652 381 662 433Q672 486 658 556Q639 508 588.5 475Q538 442 463 422L479 541Q593 569 661 616Q729 662 756 719Q783 776 773 838Q762 900 719 960Z" fill="#8f5536" />
  </g>
</svg>