<?xml version="1.0" encoding="UTF-8"?>
<svg width="16" height="16" viewBox="0 0 16 16" xmlns="http://www.w3.org/2000/svg">
  <g transform="translate(-0.5030859374999996, 15.411814626308496) scale(0.016542968749999998, -0.016542968749999998)">
    <path d="M185 802Q200 745 228 669Q257 593 291 514Q325 435 360 362Q395 290 421 240Q480 130 546 113Q613 97 669 121.5Q725 146 763 184Q800 223 800 223Q881 171 939.5 173Q998 175 1024 153L938 48Q938 48 893 51Q848 54 787 74Q756 40 701 13Q646 -14 584.5 -22.5Q523 -31 464 -15Q406 1 370 54Q310 143 265 226Q220 310 185 392Q150 474 121 555Q92 637 63 722Q50 761 19.5 759Q-11 757 4 778Q136 909 148.5 885.5Q161 862 185 802ZM646 249L646 604L762 604Q798 604 798 654Q798 704 762 704L646 704Q645 780 683 804.5Q721 829 797 822Q847 822 847 871Q847 920 797 920Q752 921 711.5 921.5Q671 922 640 908Q592 887 566.5 834.5Q541 782 542 704L477 704Q435 704 435 654Q435 604 477 604L547 604L545 249Q545 204 595.5 204Q646 204 646 249ZM869 401Q869 434 840 451Q811 468 782 451Q753 435 753 401.5Q753 368 782 351Q811 335 840 351.5Q869 368 869 401Z" fill="#75b5aa" />
  </g>
</svg>