<?xml version="1.0" encoding="UTF-8"?>
<svg width="16" height="16" viewBox="0 0 16 16" xmlns="http://www.w3.org/2000/svg">
  <g transform="translate(1.4316210937499996, 14.551033203125) scale(0.01462890625, -0.01462890625)">
    <path d="M228 146Q272 102 343 105Q414 108 473 148L323 8L324 33L303 34L301 -4L263 -3L262 -23L300 -25L299 -63L320 -64L321 -26L360 -27L360 -6L339 -6L487 132Q516 115 536 137.5Q556 160 543 183L695 323L694 301L715 300L717 338L755 337L756 357L718 359L719 397L698 398L697 360L658 361L658 340L682 339L528 199Q552 227 569 275Q586 323 600 382.5Q614 442 628 509Q641 576 658 642L749 642Q771 641 776.5 671Q782 701 765 699L672 699Q686 774 711.5 843.5Q737 913 769 913Q809 913 811 870Q813 827 841 827Q867 827 882.5 844Q898 861 898 888Q896 928 868 945Q841 961 804 959.5Q767 958 729 940Q690 923 666 893Q650 913 620 924Q590 935 555 935Q501 935 459 915Q417 895 385.5 862.5Q354 830 332 787Q310 745 297 699L232 699Q214 699 207.5 685Q201 671 201 656Q201 651 203 646.5Q205 642 213 642L282 642Q282 642 273 595Q263 548 248.5 481Q234 414 217 341Q200 268 185 215Q172 167 159.5 156Q147 145 131 145Q98 145 85.5 166.5Q73 188 43 188Q26 188 13 169.5Q0 151 0 136Q1 90 74.5 80Q148 70 228 146ZM278 213Q291 241 304 283Q318 326 331.5 381.5Q345 437 360 502Q374 568 390 642L550 642Q550 642 542 602Q534 561 520.5 501Q507 441 491 371Q475 301 458 242Q437 154 373.5 163.5Q310 173 278 213ZM565 699L403 699Q414 755 440 820.5Q466 886 517 886Q544 886 571.5 870Q599 854 617 827Q601 799 587 766Q573 733 565 699Z" fill="#46788d" />
  </g>
</svg>