<?xml version="1.0" encoding="UTF-8"?>
<svg width="16" height="16" viewBox="0 0 16 16" xmlns="http://www.w3.org/2000/svg">
  <g transform="translate(3.030948660714286, 14.55628192608173) scale(0.01462890625, -0.01462890625)">
    <path d="M167 960L333 960L333 628L167 628Q85 631 43 682Q2 733 1.5 793.5Q1 854 43 906Q84 957 167 960ZM167 282L333 282L333 614L167 614Q84 611 43 560Q1 508 1.5 447.5Q2 387 43 336Q85 285 167 282ZM513 960L347 960L347 628L513 628Q596 633 637 684Q678 736 678 796Q678 856 636 907Q595 957 513 960ZM333 102L333 268L167 268Q116 268 76 241Q37 215 17 174.5Q-3 134 1 86Q4 38 40 -5Q73 -47 123 -59Q173 -70 219.5 -55Q266 -40 299 0Q333 41 333 102ZM679 448Q679 496 655 533Q632 571 595.5 592Q559 613 515 614Q471 616 429 592Q388 568 367 529Q346 490 346 448Q346 406 367 367Q388 328 429 304Q471 280 515 282Q559 283 595.5 304Q632 325 655 363Q679 400 679 448Z" fill="#ac4142" />
  </g>
</svg>