<?xml version="1.0" encoding="UTF-8"?>
<svg width="16" height="16" viewBox="0 0 16 16" xmlns="http://www.w3.org/2000/svg">
  <g transform="translate(0.7603320312500008, 14.9825) scale(0.015585937499999999, -0.015585937499999999)">
    <path d="M498 834L0 834L0 70L524 70Q515 103 509.5 137.5Q504 172 503 207Q452 204 402 209Q352 213 306 223Q260 233 219 247Q177 260 142 276L159 315Q202 296 245 283Q288 270 331 262Q374 254 417 251Q460 248 503 250Q503 280 506.5 311Q510 342 516 374L354 374Q353 441 364 502Q374 564 393.5 620.5Q413 677 440 730Q466 783 498 834ZM229 712L271 712L271 610L229 610L229 712ZM551 254Q606 261 661.5 276Q717 291 772 315L789 276Q730 250 670.5 234Q611 218 551 211Q552 174 558 139Q564 104 574 70L929 70L929 834L555 834Q518 779 491 727Q464 674 445.5 623Q427 572 416 522Q406 472 403 421L575 421Q568 394 560 350.5Q552 307 551 254ZM672 610L630 610L630 712L672 712L672 610ZM555 834Q570 857 587.5 881.5Q605 906 624 931L586 960Q561 927 539 895.5Q517 864 498 834L555 834ZM524 70Q533 35 546.5 1.5Q560 -32 578 -64L620 -41Q605 -14 593.5 13.5Q582 41 574 70L524 70Z" fill="#6a9fb5" />
  </g>
</svg>