<?xml version="1.0" encoding="UTF-8"?>
<svg width="16" height="16" viewBox="0 0 16 16" xmlns="http://www.w3.org/2000/svg">
  <g transform="translate(2.8566406250000007, 14.98241436298077) scale(0.015585937499999999, -0.015585937499999999)">
    <path d="M435 921Q413 901 386 871Q359 842 344.5 795.5Q330 749 337 682Q345 615 392 520Q396 513 392 508Q388 503 384 503Q380 503 355.5 508Q331 513 331 513Q325 518 318 522Q311 526 302 528L193 548Q183 550 178 556Q173 562 170 572Q143 630 133 681Q124 733 131.5 778.5Q139 824 164 864Q188 903 231 936Q244 949 259 955Q274 961 295 960L423 950Q435 949 438.5 938.5Q442 928 435 921ZM439 879Q425 868 410.5 847Q396 826 396 826Q393 821 393 816Q393 811 397 804Q413 781 422.5 757Q432 733 436 708Q439 701 443.5 697.5Q448 694 459 695L627 709Q635 711 638 717Q641 723 641 731Q635 791 598 840.5Q561 890 489 934Q483 938 478 935Q473 932 472 925Q472 925 468.5 912Q465 899 439 879ZM8 529L0 487Q-1 480 3 473.5Q7 467 16 465L283 417Q291 415 296.5 419.5Q302 424 304 433L310 472Q312 480 309 486Q306 492 298 495L29 543Q22 545 16 541.5Q10 538 8 529ZM326 418L568 374Q575 373 578 376Q581 379 583 384L588 416Q590 423 588.5 427.5Q587 432 580 433L336 478Q331 479 327.5 477Q324 475 323 470L316 435Q315 429 316.5 424.5Q318 420 326 418ZM604 372L652 382Q660 384 660 389Q660 394 656 397L612 424Q609 426 605.5 425.5Q602 425 601 421L594 382Q593 376 595.5 373.5Q598 371 604 372ZM269 370Q297 313 312 259Q326 205 323 155.5Q320 106 296 61Q272 15 224 -25Q216 -33 220 -44Q224 -55 236 -55L366 -64Q386 -65 399.5 -59.5Q413 -54 428 -41Q472 -4 497 37Q521 78 527.5 125Q534 172 521 226Q509 280 480 343Q477 351 472.5 354.5Q468 358 461 360L309 388Q302 385 294.5 383.5Q287 382 279 384Q272 385 269 381.5Q266 378 269 370Z" fill="#90a959" />
  </g>
</svg>