<?xml version="1.0" encoding="UTF-8"?>
<svg width="16" height="16" viewBox="0 0 16 16" xmlns="http://www.w3.org/2000/svg">
  <g transform="translate(0.004702690972225199, 14.99029296875) scale(0.015585937499999999, -0.015585937499999999)">
    <path d="M503 925Q549 925 592.5 916.5Q636 908 677 892Q702 887 732 878.5Q762 870 789 855Q728 898 655.5 922Q583 946 503 946Q452 946 403 935Q354 925 309.5 906Q265 887 225 859Q185 832 152 798Q155 794 158.5 790.5Q162 787 167 783Q196 813 231 838Q266 863 307.5 881.5Q349 900 398 912Q446 923 503 925ZM398 278Q417 277 443 278Q469 279 485 285Q508 293 537 314Q566 335 566 335Q576 344 586.5 342.5Q597 341 606 341Q616 341 617.5 353Q619 365 606 379Q594 393 557 401.5Q520 410 487 387Q468 372 420 376Q372 380 333 422Q327 385 342 343.5Q357 302 398 278ZM487 616Q491 621 497 640Q503 659 495 667Q487 674 449.5 673Q412 672 396 675Q390 676 383.5 680.5Q377 685 372 690Q363 653 371 622.5Q379 592 401 564Q412 577 439.5 590Q467 603 487 616ZM387 487Q393 501 391 520.5Q389 540 388 546Q325 625 351.5 697Q378 769 426 813Q366 821 328.5 786Q291 751 291 751Q287 746 276.5 732Q266 718 264 704Q264 704 265.5 723Q267 742 273 759Q213 771 167 754Q121 737 88 699.5Q55 662 33 608Q11 554 0 492Q3 506 13 520Q23 534 23 534Q7 511 6.5 434.5Q6 358 6 358Q6 375 12.5 391.5Q19 408 19 408Q22 341 52 269Q82 197 135.5 134.5Q189 72 264 25Q339 -22 432 -41Q412 -34 405.5 -27Q399 -20 399 -20Q465 -47 503 -48Q541 -49 541 -49Q530 -43 527.5 -38.5Q525 -34 525 -34Q560 -36 599 -31Q639 -27 674 -19Q709 -11 736 -1Q763 8 774 16Q796 32 812.5 55.5Q829 79 829 79Q856 92 886 117Q917 142 940.5 172.5Q964 203 974 238Q985 272 971 303Q995 358 1017 413.5Q1039 469 1007 578Q1007 566 999 551Q991 536 989 533Q992 578 989.5 621.5Q987 665 967 702Q945 751 919.5 775Q894 799 894 799L894 784Q889 800 859 822.5Q829 845 829 845L829 824Q907 752 925.5 706Q944 660 944 660Q930 706 894.5 742Q859 778 824 811Q790 844 736 861Q682 878 682 878Q759 834 797 780.5Q835 727 835 727Q796 765 768.5 769.5Q741 774 741 774Q764 756 779 735Q794 714 816 679Q838 644 840.5 584Q843 524 843 524Q832 551 815.5 562.5Q799 574 799 574Q799 574 803 538Q807 502 810 476Q813 449 804 411Q795 373 795 373Q795 392 787.5 398Q780 404 780 404Q780 404 779.5 388.5Q779 373 764 322Q748 272 724.5 252.5Q701 233 696 234Q692 236 694 241.5Q696 247 696 247Q696 247 689 248.5Q682 250 671 232Q662 218 649 209Q636 200 631 199Q636 202 638 210Q640 218 640 218Q640 218 624 212.5Q608 207 558 199Q508 191 483.5 204.5Q459 218 459 218Q464 222 479.5 220Q495 218 495 218Q495 222 474 228.5Q453 235 428 239Q407 241 396.5 249Q386 257 381 265Q345 285 328 322Q312 358 310.5 394.5Q309 431 319 461Q329 491 345 499Q307 523 272 507Q237 491 221 453.5Q205 416 216 367Q227 318 281 276Q210 331 203 388Q196 446 223.5 484Q251 522 299 529Q348 535 387 487ZM155 771Q124 796 120.5 822.5Q117 849 117 849Q87 820 77 777Q67 734 65 704Q83 725 104.5 742.5Q126 760 155 771Z" fill="#d28445" />
  </g>
</svg>