<?xml version="1.0" encoding="UTF-8"?>
<svg width="16" height="16" viewBox="0 0 16 16" xmlns="http://www.w3.org/2000/svg">
  <g transform="translate(0.5121510393757068, 14.559673760176477) scale(0.01462890625, -0.01462890625)">
    <path d="M306 91Q266 115 229 153Q192 192 160.5 238.5Q129 285 103 337Q77 389 60 439Q45 482 36.5 527.5Q28 573 9 614Q-10 645 7.5 673.5Q25 702 58 712Q73 714 87.5 722.5Q102 731 71 721Q42 700 40.5 723Q39 746 68 749Q88 752 95 765.5Q102 779 95 793Q74 807 112.5 822.5Q151 838 115 859Q77 900 127.5 904.5Q178 909 155 862Q150 826 192.5 841.5Q235 857 219 816Q235 796 267 798.5Q299 801 298 773Q322 771 335 757.5Q348 744 370 742Q393 732 426 720.5Q459 709 467 683Q444 665 404.5 690.5Q365 716 363 666Q367 578 374 515Q380 453 394 404Q408 355 433 314Q459 272 501 226Q530 194 563 169Q597 145 632 128Q667 111 703 100Q738 90 772 84Q786 95 809 121Q832 147 854 130Q856 111 832.5 94Q809 77 852 79Q876 87 895 74.5Q914 62 935 86Q954 63 994.5 76.5Q1035 90 1021 44Q1003 32 979.5 32Q956 32 938 16Q908 31 881.5 15.5Q855 0 822 3Q758 -8 687 -8Q616 -9 546.5 2Q477 13 415 35Q352 57 306 91ZM506 17Q562 10 619 2.5Q676 -5 732 6Q706 17 680.5 10.5Q655 4 629 16Q599 10 567.5 15Q536 20 505 24Q470 40 433.5 53Q397 66 364 86Q324 101 360 80.5Q396 60 407 57Q433 42 400 55.5Q367 69 360 75Q338 87 336 85Q334 83 356 71Q391 49 431 35.5Q471 22 506 17ZM294 118Q325 107 307 127Q289 147 275 145Q268 156 257.5 163.5Q247 171 259 177Q237 169 230.5 192Q224 215 214 209Q190 217 191 238.5Q192 260 163 277Q161 294 142 311Q123 328 115 354Q111 368 96 389.5Q81 411 97 376Q110 341 131 311Q152 281 172 252Q187 224 206 197Q225 170 252 152Q261 143 271 132Q281 121 294 118L294 118ZM347 191Q330 200 307 201Q284 202 310 181Q327 175 352.5 174.5Q378 174 347 191ZM385 143Q421 132 386 149.5Q351 167 373 148L385 143ZM385 168Q412 165 382 176Q352 187 378 171ZM508 93Q533 108 536 82.5Q539 57 564 87Q589 106 567 85Q545 64 576 83Q599 98 628 84.5Q657 71 678 64Q693 65 707.5 57.5Q722 50 738 58Q767 66 717.5 72Q668 78 691 92Q664 85 644 98Q624 111 611 128Q580 135 549 151Q518 167 503 194Q497 204 503.5 200.5Q510 197 496 214Q478 230 467 248.5Q456 267 443 286Q429 294 425 306Q421 318 419 287Q420 306 407 317Q394 328 390 323Q390 341 400.5 340Q411 339 398 353Q395 372 387.5 392Q380 412 377 433Q373 443 372.5 455.5Q372 468 357 445Q352 420 355 449.5Q358 479 366 461Q377 480 368.5 481Q360 482 360 480Q367 495 365.5 511Q364 527 357 519Q361 535 361 566Q361 597 350 589Q357 607 357 647Q357 687 327 663Q315 663 297 659.5Q279 656 269 651Q301 633 280.5 638Q260 643 248 646Q246 630 234.5 632Q223 634 207 634Q233 631 209.5 616.5Q186 602 171 611Q152 602 170 584Q188 566 172 559Q174 549 154 552.5Q134 556 137 532Q118 540 127 519Q136 498 145 510Q177 502 176 484.5Q175 467 176 449Q171 438 160 460Q149 482 170 480Q154 507 147.5 498Q141 489 128 476Q125 476 145.5 463Q166 450 142 442Q163 439 167.5 424.5Q172 410 176 398Q189 385 192 398.5Q195 412 210 397Q200 411 177 428.5Q154 446 186 438Q186 452 184 462Q182 472 192 472Q202 490 194 455Q186 420 208 443Q214 446 218 453Q222 460 233 441Q249 425 241 417Q233 409 210 424Q215 410 232 401Q249 392 245 370Q250 351 257 352.5Q264 354 270 355Q275 337 278 344.5Q281 352 281 360Q304 356 305.5 344.5Q307 333 314 323Q330 316 311.5 346.5Q293 377 320 345Q349 319 337.5 309.5Q326 300 300 302Q322 300 329 287Q336 274 356 274Q373 265 380 243.5Q387 222 355 236Q337 247 317.5 253Q298 259 330 240Q338 235 374.5 220Q411 205 440 187Q456 176 469 160Q482 144 489 141Q472 133 450.5 142Q429 151 454 156Q438 159 426.5 161.5Q415 164 429 144Q442 132 467.5 131Q493 130 499 129Q494 118 490 115.5Q486 113 499 112Q484 104 495.5 101Q507 98 508 93ZM463 229Q453 245 454.5 234Q456 223 466 213Q481 195 475 211Q469 227 463 229ZM388 340Q388 340 388.5 352Q389 364 381 366Q373 368 375.5 364Q378 360 385 346Q386 343 387 341.5Q388 340 388 340ZM274 427Q267 444 273 442Q279 440 277 447Q274 454 252.5 476.5Q231 499 247 470Q261 434 247.5 457Q234 480 232 492Q229 484 235 465.5Q241 447 246 438Q259 419 259.5 432.5Q260 446 274 427ZM180 518Q160 534 172.5 520.5Q185 507 177 507Q156 522 160 515.5Q164 509 176 497Q189 478 195 496Q201 514 180 518ZM193 514Q231 503 191 527.5Q151 552 186 521ZM334 454Q323 454 329 469Q335 484 320 479Q315 516 309.5 484.5Q304 453 319 444Q323 431 327.5 435Q332 439 334 454ZM214 524Q265 501 219 533.5Q173 566 195 535Q198 529 203.5 527.5Q209 526 214 524ZM222 541Q260 525 236.5 539Q213 553 200 551Q203 546 210 545.5Q217 545 222 541ZM229 560Q241 562 232.5 566Q224 570 216 576Q199 602 208.5 586.5Q218 571 213 563Q220 556 234 549Q248 542 229 560ZM346 613Q341 586 338 592.5Q335 599 342 619Q340 645 330.5 619.5Q321 594 328 582Q339 564 347 599Q355 634 346 613ZM366 187Q386 182 386 187Q386 192 368 194Q359 203 341.5 208Q324 213 351 196Q353 191 358 190Q363 189 366 187ZM273 249Q283 241 301 233Q319 225 293 245Q302 255 288 261.5Q274 268 282 274Q261 287 263 288.5Q265 290 280 290Q255 301 269.5 303Q284 305 283 311Q273 313 249.5 320.5Q226 328 249 310Q225 321 232 312.5Q239 304 232 306Q208 313 230 298.5Q252 284 227 290Q240 279 252.5 269Q265 259 235 275Q230 269 248 261.5Q266 254 273 249ZM602 56Q612 66 610 53.5Q608 41 625 60Q625 73 621.5 77.5Q618 82 599 66Q594 63 593 56Q592 49 602 56ZM374 202Q386 192 409 193Q432 194 393 201Q387 209 369 208.5Q351 208 374 202ZM120 373Q103 397 101.5 411.5Q100 426 84 446Q81 461 66.5 480Q52 499 67 463Q81 442 89.5 414.5Q98 387 120 373ZM785 57Q801 60 829.5 55Q858 50 864 63Q844 63 808 69.5Q772 76 769 59L785 57ZM41 609Q38 626 40 647Q42 668 70 658Q32 651 67.5 628.5Q103 606 95 637Q111 636 122.5 640.5Q134 645 125 629Q157 632 182 650.5Q207 669 237 665Q261 668 286.5 672Q312 676 338 685Q359 687 374 704.5Q389 722 377 735Q349 738 318.5 735Q288 732 257 725Q222 718 188.5 706.5Q155 695 120 689Q85 684 105.5 677.5Q126 671 116 670Q98 663 117.5 658Q137 653 113 647Q98 650 86.5 656Q75 662 81 678Q48 674 27.5 658.5Q7 643 33 609L41 609ZM159 658Q188 638 169 665Q150 692 142 663Q146 664 151 662.5Q156 661 159 658ZM170 676Q197 673 180.5 684Q164 695 163 682ZM231 698Q272 706 240 708Q208 710 196 696Q203 693 211.5 699.5Q220 706 231 698ZM324 716Q349 720 337.5 725.5Q326 731 319 711Q322 705 323 709.5Q324 714 324 716ZM140 577Q155 578 158.5 588Q162 598 137 597Q97 601 133.5 591Q170 581 130 586Q125 583 132.5 579.5Q140 576 140 577ZM113 729Q139 738 167.5 741Q196 744 211 723Q200 738 204 747Q208 756 220 734Q236 712 241.5 728.5Q247 745 239 757Q247 745 263 731Q279 717 250 756Q269 779 231 765.5Q193 752 180 752Q173 749 135 740Q97 731 113 729ZM134 768Q148 779 171 772Q194 765 170 783Q168 785 139 775.5Q110 766 134 768ZM205 765Q222 765 212 778.5Q202 792 222 782Q219 793 203 796.5Q187 800 177 805Q172 795 184 780Q196 765 205 765ZM121 865Q101 891 132 880Q163 869 143 895Q127 909 116 891Q105 873 121 865ZM455 686Q464 702 440 705.5Q416 709 447 693Q450 692 450.5 688.5Q451 685 455 686Z" fill="#46788d" />
  </g>
</svg>