<?xml version="1.0" encoding="UTF-8"?>
<svg width="16" height="16" viewBox="0 0 16 16" xmlns="http://www.w3.org/2000/svg">
  <g transform="translate(0.020000000000000462, 14.9825) scale(0.015585937499999999, -0.015585937499999999)">
    <path d="M873 304Q822 333 822 391.5Q822 450 873 479Q923 508 973.5 478.5Q1024 449 1024 391Q1024 334 973.5 304.5Q923 275 873 304ZM50 426Q0 455 0 513Q0 571 50 600Q101 629 151.5 600Q202 571 202 513Q202 455 151.5 426Q101 397 50 426ZM444 665L639 665L883 110L687 110ZM151 786L347 786L590 232L395 232Z" fill="#ac4142" />
  </g>
</svg>