<?xml version="1.0" encoding="UTF-8"?>
<svg width="16" height="16" viewBox="0 0 16 16" xmlns="http://www.w3.org/2000/svg">
  <g transform="translate(0.51, 14.55375) scale(0.01462890625, -0.01462890625)">
    <path d="M798 -64L226 -64Q148 -64 92.5 -8.5Q37 47 37 126L37 770Q37 849 92.5 904.5Q148 960 226 960L798 960Q876 960 931.5 904.5Q987 849 987 770L987 126Q987 47 931.5 -8.5Q876 -64 798 -64ZM226 871Q185 871 155 841.5Q125 812 125 770L125 126Q125 84 155 54.5Q185 25 226 25L798 25Q839 25 869 54.5Q899 84 899 126L899 770Q899 812 869 841.5Q839 871 798 871L226 871ZM737 824Q689 824 655 790Q621 756 621 708Q621 695 624 682Q627 669 633 657L550 575Q542 578 534 579.5Q526 581 517 581Q507 581 498 579Q489 577 481 574L396 658Q402 670 405 682.5Q408 695 408 708Q408 756 374 790Q340 824 292 824Q244 824 210 790Q176 756 176 708Q176 661 210 627Q244 593 292 593Q308 593 322.5 597Q337 601 350 609L433 526Q429 518 427 509Q425 500 425 490Q425 461 442 437.5Q459 414 485 404L485 298Q448 288 423.5 257.5Q399 227 399 187Q399 139 433 105Q467 71 515 71Q563 71 597 105Q631 139 631 187Q631 225 608.5 254.5Q586 284 552 296L552 406Q577 416 592.5 439Q608 462 608 490Q608 500 606 510Q604 520 599 528L679 608Q692 601 706.5 597Q721 593 737 593Q784 593 818 627Q852 661 852 708Q852 756 818 790Q784 824 737 824ZM292 666Q274 666 261.5 678.5Q249 691 249 708Q249 726 261.5 738.5Q274 751 292 751Q309 751 321.5 738.5Q334 726 334 708Q334 691 321.5 678.5Q309 666 292 666ZM557 184Q557 167 544.5 154.5Q532 142 514 142Q497 142 484.5 154.5Q472 167 472 184Q472 202 484.5 214.5Q497 227 514 227Q532 227 544.5 214.5Q557 202 557 184ZM736 666Q719 666 706.5 678.5Q694 691 694 708Q694 726 706.5 738.5Q719 751 736 751Q754 751 766.5 738.5Q779 726 779 708Q779 691 766.5 678.5Q754 666 736 666Z" fill="#46788d" />
  </g>
</svg>