<?xml version="1.0" encoding="UTF-8"?>
<svg width="16" height="16" viewBox="0 0 16 16" xmlns="http://www.w3.org/2000/svg">
  <g transform="translate(1.0175, 13.985) scale(0.015585937499999999, -0.015585937499999999)">
    <path d="M832 640Q791 640 650 640L480 640Q468 641 458.5 650.5Q449 660 448 672L448 704Q447 729 428 748Q409 767 384 768L64 768Q39 767 20 748Q1 729 0 704L0 0L896 0L896 576Q895 601 876 620Q857 639 832 640ZM384 640L64 640L64 672Q65 685 74.5 694.5Q84 704 96 704L352 704Q364 704 373.5 694.5Q383 685 384 672Z" fill="#ffffff" />
  </g>
</svg>