<?xml version="1.0" encoding="UTF-8"?>
<svg width="16" height="16" viewBox="0 0 16 16" xmlns="http://www.w3.org/2000/svg">
  <g transform="translate(0.020000000000000462, 14.9825) scale(0.015585937499999999, -0.015585937499999999)">
    <path d="M291 160Q292 120 303.5 105.5Q315 91 366 87L366 46L123 46L123 87Q174 91 186.5 105.5Q199 120 200 160L200 499Q115 502 89.5 480.5Q64 459 51 401L0 401Q7 434 13.5 468.5Q20 503 20 549L472 549Q472 503 475.5 468.5Q479 434 487 401L437 401Q424 459 400 480.5Q376 502 291 499L291 160ZM766 171Q767 138 787.5 118.5Q808 99 866 96L866 46L565 46L565 96Q623 99 642.5 118.5Q662 138 663 171L663 783Q553 786 513.5 765.5Q474 745 464 671L405 671Q415 709 415.5 753.5Q416 798 416 850L1005 850Q1005 798 1009.5 753.5Q1014 709 1024 671L960 671Q943 738 903 762.5Q863 787 766 783L766 171Z" fill="#90a959" />
  </g>
</svg>