<?xml version="1.0" encoding="UTF-8"?>
<svg width="16" height="16" viewBox="0 0 16 16" xmlns="http://www.w3.org/2000/svg">
  <g transform="translate(0.5099999999999998, 14.55375) scale(0.01462890625, -0.01462890625)">
    <path d="M1024 890L1024 660L812 660L812 -64L594 -64L594 8L506 8L506 660L366 660L366 739L290 739L290 890L366 890L366 802L594 802L594 92L702 92L702 802L882 802L882 890L366 890L366 960L954 960L954 890ZM144 660L72 660L72 512L144 512ZM432 368L432 512L368 512L368 660L290 660L290 739L144 739L144 660L224 660L224 512L298 512L298 440L224 440L224 152L304 152L304 68L212 68L212 152L144 152L144 440L72 440L72 512L0 512L0 368L72 368L72 80L144 80L144 8L212 8L212 -64L432 -64L432 152L368 152L368 368Z" fill="#75b5aa" />
  </g>
</svg>