<?xml version="1.0" encoding="UTF-8"?>
<svg width="16" height="16" viewBox="0 0 16 16" xmlns="http://www.w3.org/2000/svg">
  <g transform="translate(0.5101367187499994, 14.553864288330079) scale(0.01462890625, -0.01462890625)">
    <path d="M595 -63L594 53Q594 123 647.5 136Q701 149 688 259L657 804Q656 822 641.5 822.5Q627 823 627 805L623 338Q621 309 598 312.5Q575 316 576 346L571 805Q571 826 556.5 823.5Q542 821 542 803L534 335Q533 312 511 313.5Q489 315 490 336L483 806Q483 822 469.5 823Q456 824 456 808L448 334Q446 310 424 312.5Q402 315 404 341L399 804Q399 824 385.5 823.5Q372 823 371 804L335 236Q335 144 382.5 135Q430 126 432 48L432 -64Q302 -44 203 34Q104 112 51.5 222Q-1 332 0 459Q1 587 71 707Q146 834 267 898Q387 961 516.5 960Q646 959 766 894Q885 829 957 699Q1024 580 1024 454Q1024 328 971 219.5Q918 111 820 34Q722 -43 595 -63Z" fill="#6a9fb5" />
  </g>
</svg>