<?xml version="1.0" encoding="UTF-8"?>
<svg width="16" height="16" viewBox="0 0 16 16" xmlns="http://www.w3.org/2000/svg">
  <g transform="translate(1.5400390625, 14.1591796875) scale(0.013671875, -0.013671875)">
    <path d="M0 53L84 53Q118 53 146.5 74Q175 95 175 144L175 757Q175 819 151 833.5Q127 848 63 848L5 848L5 960L945 960L945 553L835 553Q835 626 826 680.5Q817 735 796 775Q773 819 724.5 833.5Q676 848 593 848L370 848L370 524L413 524Q508 524 540.5 561Q573 598 571 725L670 725L670 199L571 199Q564 325 538.5 376.5Q513 428 394 426L367 426L367 144Q367 82 395 67.5Q423 53 487 53L548 53L548 -59L0 -59L0 53Z" fill="#6a9fb5" />
  </g>
</svg>