<?xml version="1.0" encoding="UTF-8"?>
<svg width="16" height="16" viewBox="0 0 16 16" xmlns="http://www.w3.org/2000/svg">
  <g transform="translate(0.759142578125001, 15.412169053819444) scale(0.016542968749999998, -0.016542968749999998)">
    <path d="M504 853Q501 854 497 855.5Q493 857 488 859Q488 859 487 859Q486 859 485 860Q485 858 484 855.5Q483 853 483 853Q482 852 482 851Q482 850 482 849Q482 844 485 840.5Q488 837 493 837Q494 837 494.5 837Q495 837 495 837Q496 837 496 837.5Q496 838 497 838Q502 839 506.5 841Q511 843 516 845Q513 847 510 849Q507 851 504 853ZM85 413Q85 413 85 415.5Q85 418 88 420Q101 429 102 424Q103 419 113 418Q118 418 123.5 421Q129 424 131 426Q137 430 141 435Q145 440 146 450Q146 455 148.5 456Q151 457 153 455Q156 453 157.5 448.5Q159 444 159 437Q158 427 153.5 418.5Q149 410 140 402Q135 398 129 393.5Q123 389 118 385Q105 379 96 394.5Q87 410 85 413ZM128 836Q129 828 130.5 821Q132 814 133 807Q135 809 137 811Q139 813 141 815Q139 821 135.5 824.5Q132 828 128 836ZM16 391Q16 393 16 398.5Q16 404 17 411Q18 415 18.5 417.5Q19 420 19 422Q16 424 13.5 425.5Q11 427 9 428Q8 404 9.5 401Q11 398 16 391ZM657 685Q689 694 711 717Q733 740 728 782Q727 800 737 817.5Q747 835 757 850Q770 872 774.5 890.5Q779 909 775 922Q769 941 749.5 946.5Q730 952 714 953Q686 953 658 939.5Q630 926 607 902Q579 868 585 830Q591 792 625 767Q630 764 629 758.5Q628 753 624 752Q605 744 594.5 732Q584 720 596 702Q607 688 623 684Q639 680 657 685ZM55 478Q58 478 62 480Q66 482 73 486Q80 490 88.5 494Q97 498 109 500Q113 501 114.5 503.5Q116 506 116 509Q116 515 110.5 516.5Q105 518 99 518Q94 518 90 516.5Q86 515 81 515Q77 514 74 516Q71 518 67 518Q62 518 57.5 514.5Q53 511 50 509Q46 505 41.5 502Q37 499 37 494Q37 493 38 491.5Q39 490 40 488Q43 485 47 481.5Q51 478 55 478ZM467 -29Q500 -15 532 1.5Q564 18 591 36Q594 38 595 40.5Q596 43 594 46Q587 65 582 105.5Q577 146 589 207Q591 223 593.5 238Q596 253 595 269Q594 276 588 277Q582 278 579 272Q576 266 572 259.5Q568 253 563 246Q513 174 480.5 110.5Q448 47 455 -22Q456 -27 459.5 -29Q463 -31 467 -29ZM343 -63Q355 -62 378 -57Q401 -52 431 -42Q435 -40 436.5 -38Q438 -36 438 -32Q428 44 461.5 112Q495 180 548 256Q582 304 579.5 330Q577 356 568 369Q547 396 518.5 392Q490 388 460 379Q432 372 403.5 369Q375 366 349 360Q333 356 318 349.5Q303 343 291 336Q288 334 287 329.5Q286 325 292 321Q319 301 329 269Q340 237 341.5 200.5Q343 164 339 127Q335 90 333 59Q329 22 327.5 -7Q326 -36 331 -57Q332 -60 334.5 -62.5Q337 -65 343 -63ZM116 792Q118 794 119 795.5Q120 797 120 801Q119 804 119 806.5Q119 809 118 811Q115 825 113.5 840.5Q112 856 118 870Q118 878 119 885.5Q120 893 121 900Q123 913 123.5 928.5Q124 944 115 954Q110 960 101 960Q92 960 88 956Q83 948 81 933.5Q79 919 80 906Q82 884 82 878Q82 872 80 868Q79 866 78 861.5Q77 857 77 845Q76 836 79.5 824Q83 812 86 800Q88 796 89 791.5Q90 787 91 783Q92 780 94.5 778.5Q97 777 99 776Q103 777 106 780Q109 783 116 792ZM116 680Q119 697 119 712.5Q119 728 122 744Q122 745 122.5 746.5Q123 748 123 750Q122 756 116.5 757.5Q111 759 108 754Q107 752 105.5 750Q104 748 102 747Q93 736 89.5 723Q86 710 83 699Q83 691 90 684.5Q97 678 103 675Q107 671 111 674Q115 677 116 680ZM158 836Q164 841 170.5 845.5Q177 850 184 854Q188 856 188.5 859.5Q189 863 186 867Q176 879 170 892.5Q164 906 157 920Q154 925 149.5 925Q145 925 142 921Q140 918 140.5 914Q141 910 138 897Q137 890 136.5 883Q136 876 136 869Q136 860 138 852.5Q140 845 145 838Q147 835 151 834Q155 833 158 836ZM160 512Q171 544 190 568Q209 592 225 619Q257 667 268 699.5Q279 732 298 763Q310 790 342.5 811Q375 832 427 836Q438 837 445.5 839.5Q453 842 459 846Q464 850 463.5 855.5Q463 861 457 862Q451 864 440 864.5Q429 865 420 865Q371 865 347 858.5Q323 852 287 856Q266 857 253.5 856.5Q241 856 227 852Q190 842 165 803.5Q140 765 138 725Q136 689 132 670Q128 651 116 629Q105 607 92.5 586.5Q80 566 71 548Q69 545 69.5 542Q70 539 72 537Q74 536 76 535Q78 534 81 533Q86 535 90 535.5Q94 536 100 536Q116 537 126.5 528.5Q137 520 145 510Q149 506 153.5 507Q158 508 160 512ZM174 428Q176 424 179 423Q182 422 185 423Q196 425 203 428Q210 431 216 437Q233 452 238.5 479Q244 506 252 536Q262 565 270 599Q278 633 305 663Q336 689 363 679Q390 669 413 669Q423 669 428.5 671Q434 673 440 676Q440 676 477 707.5Q514 739 540 819Q540 822 541.5 824.5Q543 827 543 830Q542 835 538 837Q534 839 530 836Q505 819 474.5 820Q444 821 430 818L430 818Q388 815 355 797.5Q322 780 298 726Q286 698 270.5 663.5Q255 629 221 582Q203 556 183.5 523Q164 490 171 462Q176 446 174.5 439Q173 432 174 428ZM597 662Q601 664 601.5 669Q602 674 598 676Q590 682 586 686.5Q582 691 581 693Q575 702 573.5 711.5Q572 721 574 730Q578 737 582.5 743.5Q587 750 595 756Q600 759 598.5 763.5Q597 768 594 771Q586 779 581 788Q576 797 573 806Q572 815 564.5 815Q557 815 555 808Q546 768 551.5 730.5Q557 693 556 653Q556 650 558.5 647.5Q561 645 565 645Q566 645 576 651Q586 657 597 662ZM142 270Q172 269 189 284Q206 299 229 315Q259 338 289 354.5Q319 371 353 379Q386 386 419.5 389.5Q453 393 484 404Q537 423 569 458.5Q601 494 609 543Q615 576 625 600.5Q635 625 658 650Q663 654 658.5 660.5Q654 667 644 662Q624 655 590.5 639Q557 623 547 599Q543 588 536 576.5Q529 565 521 557Q479 506 421.5 502.5Q364 499 328 451Q315 439 297 409.5Q279 380 278 378Q265 355 244 338Q223 321 195 311Q183 307 169.5 304.5Q156 302 143 302Q131 302 120.5 304Q110 306 101 310Q94 313 89 312.5Q84 312 79 311Q70 308 66 309Q62 310 59 305Q57 299 60.5 295.5Q64 292 68 290Q89 277 107 274Q125 271 142 270ZM622 57Q677 95 726.5 149.5Q776 204 809 254Q812 259 810.5 262.5Q809 266 806 267Q799 271 793 275.5Q787 280 782 284Q760 306 746 344.5Q732 383 727 437Q724 467 719 496.5Q714 526 694 558Q686 570 678 582.5Q670 595 663 609Q661 613 655.5 613Q650 613 648 608Q641 595 635.5 578.5Q630 562 626 540Q620 503 601 472Q582 441 551 419Q545 415 547 409.5Q549 404 554 403Q562 399 569 393.5Q576 388 582 381Q605 354 611.5 307.5Q618 261 606 204Q600 169 599 132.5Q598 96 608 61Q610 57 613.5 55Q617 53 622 57ZM828 286Q847 320 858.5 347Q870 374 875 388Q876 391 874.5 394Q873 397 871 398Q840 413 810.5 434.5Q781 456 754 484Q750 489 744 486Q738 483 740 477Q746 434 752.5 385Q759 336 793 298Q798 293 803.5 289Q809 285 814 282Q820 279 823 281.5Q826 284 828 286ZM137 482Q133 483 129 483Q125 483 122 483Q110 483 100 479Q90 475 82 471Q74 466 67 463.5Q60 461 54 461Q41 461 34.5 470Q28 479 18 479Q14 479 10.5 477Q7 475 4 471Q2 466 4.5 462.5Q7 459 10 459Q16 459 21 455Q26 451 31 447Q35 443 36 436Q37 429 34 420Q32 414 31 407.5Q30 401 30 395Q31 387 33.5 384Q36 381 39 380Q42 378 44.5 378.5Q47 379 48 381Q50 388 57 386.5Q64 385 65 380Q66 378 67 377Q68 376 70 375Q75 372 82.5 373Q90 374 91 376Q91 378 90 379Q89 380 88 381Q83 389 79 395.5Q75 402 72 408Q68 419 68 428.5Q68 438 73 445Q76 451 82 454Q88 457 95 457Q103 457 107 451.5Q111 446 112 441Q113 438 115 437Q117 436 119 436Q121 436 122 436Q123 436 126 439Q129 441 131 444Q133 447 133 451Q133 455 134.5 459.5Q136 464 139 467Q144 470 142.5 475Q141 480 137 482ZM534 729Q534 736 527.5 737Q521 738 518 732Q498 700 478.5 684Q459 668 452 663Q450 655 440 634Q430 613 403 596Q386 584 365 578.5Q344 573 323 575Q295 579 285 565.5Q275 552 272 541Q265 515 259 491.5Q253 468 244 448Q234 424 217 416Q200 408 184 405Q175 402 166.5 399.5Q158 397 150 391Q135 379 120 370Q105 361 91 357Q86 357 84 354Q82 351 82 348Q82 342 91 335.5Q100 329 106 326Q148 309 196 330.5Q244 352 263 387Q294 438 321.5 470.5Q349 503 414 518Q449 526 483 547Q517 568 530 606Q541 636 538.5 666.5Q536 697 534 729ZM73 582Q74 583 74 584Q74 585 73 586Q72 589 70.5 593Q69 597 67 602Q67 604 65 605Q63 606 62 607Q59 606 57.5 605Q56 604 56 602Q51 587 46 577.5Q41 568 41 566Q41 565 41.5 564.5Q42 564 43 563Q44 560 46.5 558Q49 556 52 556Q55 556 58 558.5Q61 561 63 563Q65 568 67.5 573Q70 578 73 582ZM37 548Q36 551 33.5 551Q31 551 30 549Q25 541 23 531.5Q21 522 20 513Q20 511 21.5 509.5Q23 508 25 508Q26 508 27.5 509.5Q29 511 30 512Q33 514 35 516Q37 518 39 520Q45 525 43.5 532.5Q42 540 37 548ZM44 362Q37 364 31 367Q25 370 20 373Q17 375 15.5 376Q14 377 13 378Q10 380 6.5 379.5Q3 379 1 377Q0 375 0 373.5Q0 372 0 370Q0 369 0.5 368Q1 367 1 367Q6 355 15.5 342.5Q25 330 39 330Q41 331 43.5 332Q46 333 47 334Q50 338 51 343Q52 348 52 352Q52 356 49.5 358.5Q47 361 44 362ZM485 860Q485 858 484 855.5Q483 853 483 853Q480 846 484 841.5Q488 837 493 837Q499 838 505 840.5Q511 843 516 845Q508 851 500.5 854Q493 857 485 860ZM57 328Q64 323 68.5 324Q73 325 79 326Q74 331 70 336Q66 341 64 348Q63 343 62 338Q61 333 57 328Z" fill="#46788d" />
  </g>
</svg>