<?xml version="1.0" encoding="UTF-8"?>
<svg width="16" height="16" viewBox="0 0 16 16" xmlns="http://www.w3.org/2000/svg">
  <g transform="translate(0.5731801470588245, 15.409516927083331) scale(0.016542968749999998, -0.016542968749999998)">
    <path d="M272 638Q317 604 361 594Q405 584 426 602Q443 605 463 653.5Q483 702 495 771Q507 836 506.5 886.5Q506 937 494 950Q492 953 487.5 956.5Q483 960 477 960Q455 961 414 944.5Q373 928 326 899Q273 868 238 835.5Q203 803 199 784Q181 760 202 717.5Q223 675 272 638ZM374 833Q369 827 352.5 804Q336 781 331 772Q321 778 312 782.5Q303 787 294 790Q311 798 342 815Q373 832 374 833ZM415 787Q414 786 410 757Q406 728 404 710Q398 718 391.5 725Q385 732 377 738Q384 746 399.5 766.5Q415 787 415 787ZM474 196Q485 194 492.5 190.5Q500 187 499 184Q499 182 491 182Q483 182 472 184Q461 187 453.5 190.5Q446 194 447 196Q447 199 455 199Q463 199 474 196ZM495 223Q491 233 489.5 240.5Q488 248 490 249Q493 250 497.5 243.5Q502 237 506 227Q510 217 511.5 209.5Q513 202 511 201Q508 200 503.5 206.5Q499 213 495 223ZM475 205Q468 212 464 218.5Q460 225 462 227Q464 229 470.5 226Q477 223 485 216Q492 209 496 202.5Q500 196 498 194Q496 192 489.5 195Q483 198 475 205ZM527 372Q516 370 507.5 370Q499 370 499 372Q498 375 505.5 378.5Q513 382 524 384Q535 387 543 387Q551 387 552 384Q552 382 544.5 378.5Q537 375 527 372ZM492 416Q496 425 500.5 431.5Q505 438 508 437Q510 436 508.5 428.5Q507 421 503 411Q499 401 494.5 394.5Q490 388 487 389Q485 390 486.5 397.5Q488 405 492 416ZM514 404Q521 411 528 414Q535 417 537 415Q539 413 535 406.5Q531 400 523 393Q515 386 508.5 383Q502 380 500 382Q498 384 502 390.5Q506 397 514 404ZM28 449Q39 446 46 442.5Q53 439 53 437Q52 434 44 434Q36 434 25 437Q14 439 6.5 442.5Q-1 446 0 449Q1 451 9 451Q17 451 28 449ZM48 475Q44 485 43 493Q42 501 44 502Q46 503 51 496.5Q56 490 60 480Q64 470 65.5 462.5Q67 455 64 454Q62 453 57.5 459.5Q53 466 48 475ZM29 458Q21 465 17 471.5Q13 478 15 480Q17 482 24 478.5Q31 475 38 468Q46 462 50 455.5Q54 449 52 447Q50 445 43.5 448Q37 451 29 458ZM138 31Q149 29 156 25.5Q163 22 163 19Q162 17 154 17Q146 17 135 20Q124 22 117 25.5Q110 29 110 31Q111 34 119 34Q127 34 138 31ZM159 58Q154 68 153 76Q152 84 154 85Q156 86 161 79.5Q166 73 170 63Q174 53 175.5 45Q177 37 174 36Q172 35 167.5 41.5Q163 48 159 58ZM311 301Q290 328 280.5 350.5Q271 373 277 378Q284 383 303.5 368Q323 353 344 326Q364 299 374 276Q384 253 377 248Q371 243 351.5 258.5Q332 274 311 301ZM417 337Q437 358 455.5 369.5Q474 381 480 376Q486 370 476.5 350.5Q467 331 447 309Q427 287 408.5 275.5Q390 264 384 270Q378 275 387.5 295Q397 315 417 337ZM66 361Q57 394 56.5 418.5Q56 443 64 445Q72 447 84 425.5Q96 404 104 371Q113 338 113.5 313.5Q114 289 106 286Q98 284 86 306Q74 328 66 361ZM152 353Q171 375 191 385Q211 395 220 387Q228 380 220 359Q212 338 192 316Q172 294 152 284Q132 274 124 281Q115 289 123.5 310Q132 331 152 353ZM427 69Q398 88 381 106Q364 124 369 131Q374 138 397 130Q420 122 449 104Q477 85 494 67Q511 49 506 42Q502 34 478.5 42.5Q455 51 427 69ZM493 118Q493 148 499 169Q505 190 514 190Q522 190 528 169Q534 148 534 118Q534 89 528 68Q522 47 514 47Q505 47 499 68Q493 89 493 118ZM862 217Q872 239 881.5 254Q891 269 896 267Q900 265 896 248Q892 231 883 208Q873 186 863.5 171Q854 156 850 158Q845 160 849 177Q853 194 862 217ZM139 41Q131 48 127 54Q123 60 125 62Q127 65 134 61.5Q141 58 148 51Q156 44 160 38Q164 32 162 29Q160 27 153.5 30.5Q147 34 139 41ZM222 -33Q193 -15 176.5 3.5Q160 22 164 29Q169 36 192.5 28Q216 20 244 1Q273 -17 289.5 -35.5Q306 -54 302 -61Q297 -68 273.5 -60Q250 -52 222 -33ZM289 16Q289 45 295 66Q301 87 309 87Q318 87 324 66Q330 45 330 16Q330 -14 324 -35Q318 -56 309 -56Q301 -56 295 -35Q289 -14 289 16ZM801 116Q817 134 831 145Q845 156 848 153Q852 150 843 135Q834 120 818 101Q802 83 788 72Q774 61 770 64Q767 67 776 82.5Q785 98 801 116ZM680 45Q716 59 743 63Q770 67 773 60Q776 52 753 36.5Q730 21 695 7Q659 -7 632 -11Q605 -15 602 -7Q599 0 622 15.5Q645 31 680 45ZM287 174Q278 167 287.5 140Q297 113 319 83Q341 53 363 36Q385 19 395 24Q394 18 407.5 3.5Q421 -11 489 -25Q531 -31 562 -26.5Q593 -22 595 -9Q597 3 568.5 16.5Q540 30 498 36Q465 41 438 39Q411 37 400 30Q404 40 394 64.5Q384 89 365 116Q345 143 323.5 161Q302 179 287 174ZM228 265Q219 307 222 338Q225 369 237 372Q249 374 264 347Q279 320 288 278Q297 237 294.5 205.5Q292 174 279 172Q267 169 252 196.5Q237 224 228 265ZM228 502Q237 552 252.5 586Q268 620 281 618Q294 615 297 578Q300 541 292 491Q283 441 267.5 407Q252 373 238 376Q225 378 222 415Q219 452 228 502Z" fill="#4d9085" />
  </g>
</svg>