<?xml version="1.0" encoding="UTF-8"?>
<svg width="16" height="16" viewBox="0 0 16 16" xmlns="http://www.w3.org/2000/svg">
  <g transform="translate(0.01938195298524093, 14.979489080255682) scale(0.015585937499999999, -0.015585937499999999)">
    <path d="M129 949Q81 949 40.5 907Q0 865 0 810L0 289Q-1 217 41 174.5Q83 132 145 133L306 133L475 -37Q496 -56 517 -53Q538 -50 550 -37L716 133L893 133Q952 135 989 179.5Q1026 224 1024 267Q1024 338 1023 387Q1023 436 1022.5 490.5Q1022 545 1023 618Q1023 691 1024 809Q1026 864 988.5 907Q951 950 892 949ZM133 904L889 904Q928 904 953 877Q978 850 978 808L980 273Q979 231 956.5 206Q934 181 889 179L699 179L512 -8L329 179L140 179Q100 182 72.5 204.5Q45 227 44 270L44 809Q44 843 69 873.5Q94 904 133 904ZM889 871L133 871Q110 870 94.5 851Q79 832 77 810L77 274Q81 247 95.5 230.5Q110 214 142 212L343 212L512 39L685 212L889 212Q915 213 930 227.5Q945 242 947 274L946 807Q944 829 930.5 849.5Q917 870 889 871ZM361 772L643 772L643 701L430 699L430 588L567 588L567 515L430 515L430 317L361 317Z" fill="#6a9fb5" />
  </g>
</svg>