<?xml version="1.0" encoding="UTF-8"?>
<svg width="16" height="16" viewBox="0 0 16 16" xmlns="http://www.w3.org/2000/svg">
  <g transform="translate(0.5099999999999998, 14.55375) scale(0.01462890625, -0.01462890625)">
    <path d="M922 -64L102 -64Q60 -64 30 -34Q0 -4 0 38L0 858Q0 900 30 930Q60 960 102 960L922 960Q964 960 994 930Q1024 900 1024 858L1024 38Q1024 -4 994 -34Q964 -64 922 -64ZM102 916Q78 916 61 899Q44 882 44 858L44 38Q44 14 61 -3Q78 -20 102 -20L922 -20Q946 -20 963 -3Q980 14 980 38L980 858Q980 882 963 899Q946 916 922 916L102 916ZM674 505L503 505Q481 538 440 549.5Q399 561 361 539Q308 508 308 447Q308 386 361 355Q399 333 439 344Q479 355 502 388L674 388L674 505ZM801 829L223 829L223 501L247 501Q261 536 290 567Q319 598 359 603L359 686L801 686L801 829ZM223 57L359 57L359 294Q319 299 290 330Q261 361 247 396L223 396L223 57Z" fill="#8f5536" />
  </g>
</svg>