<?xml version="1.0" encoding="UTF-8"?>
<svg width="16" height="16" viewBox="0 0 16 16" xmlns="http://www.w3.org/2000/svg">
  <g transform="translate(1.1421875000000004, 14.9825) scale(0.015585937499999999, -0.015585937499999999)">
    <path d="M528 716Q559 716 582 724Q605 732 620 747Q634 762 641.5 781.5Q649 801 649 825Q649 848 640.5 868Q632 888 615 904Q599 919 577 930Q555 941 529 948Q503 954 470.5 957Q438 960 399 960Q360 960 323.5 951Q287 942 254 925Q236 915 219.5 903Q203 891 189 876Q175 862 163.5 843.5Q152 825 143 803Q134 781 129 762.5Q124 744 124 730Q123 716 122 682.5Q121 649 119 596Q89 595 61 593Q33 591 9 589Q9 589 8 588.5Q7 588 6 588Q4 586 2 579.5Q0 573 0 550Q0 529 1.5 521.5Q3 514 5 512Q6 511 7.5 510Q9 509 10 509Q34 509 61.5 508Q89 507 119 504Q119 457 120 405Q120 352 121 294.5Q122 237 123 174Q125 111 127 43Q127 41 128 39.5Q129 38 132 37Q156 32 186 29Q216 26 250 26Q284 26 311.5 29Q339 32 358 39Q360 39 361.5 41Q363 43 362 46Q359 67 356 105Q354 143 353 199Q352 255 351 329Q351 404 351 497L442 498Q463 498 476.5 494Q490 490 498 485Q507 479 514 467.5Q521 456 527 440L554 369L364 -64L522 -64L625 185L723 -64L880 -64L679 454Q664 492 645.5 519.5Q627 547 605 563Q584 580 555.5 586Q527 592 487 592Q486 592 442 592.5Q398 593 348 593L348 636Q348 647 343 668Q338 689 328 720Q319 749 314.5 771.5Q310 794 310 808Q310 821 314 832Q318 843 326 851Q335 859 347 863.5Q359 868 374 868Q389 868 400 863Q411 858 419 847Q427 837 431 825.5Q435 814 435 801Q435 788 434 776.5Q433 765 430 756Q430 753 432.5 749.5Q435 746 442 741Q447 737 455.5 733Q464 729 475 725Q487 720 500.5 718Q514 716 528 716Z" fill="#be2f31" />
  </g>
</svg>