<?xml version="1.0" encoding="UTF-8"?>
<svg width="16" height="16" viewBox="0 0 16 16" xmlns="http://www.w3.org/2000/svg">
  <g transform="translate(0.020000000000000462, 14.9825) scale(0.015585937499999999, -0.015585937499999999)">
    <path d="M289 276L15 422Q8 426 4 433Q0 440 0 448Q0 457 4.5 463.5Q9 470 16 474L289 611L289 546L92 447L289 342ZM735 276L735 342L932 447L735 546L735 611L1008 474Q1015 470 1019.5 463.5Q1024 457 1024 448Q1024 440 1020 433Q1016 426 1009 422L735 276ZM650 674L581 674L561 561L496 561L517 674L449 674L428 561L361 561L361 493L416 493L398 396L332 396L332 329L386 329L366 222L435 222L454 329L519 329L499 222L568 222L587 329L661 329L661 396L599 396L617 493L682 493L682 561L629 561L650 674ZM484 493L548 493L531 396L467 396L484 493Z" fill="#6a9fb5" />
  </g>
</svg>