<?xml version="1.0" encoding="UTF-8"?>
<svg width="16" height="16" viewBox="0 0 16 16" xmlns="http://www.w3.org/2000/svg">
  <g transform="translate(-1.0360518152573555, 15.909648437500001) scale(0.017636718750000002, -0.017636718750000002)">
    <path d="M858 407Q907 411 946 402.5Q985 394 1017 378Q1031 371 1019.5 362Q1008 353 988 362Q947 377 925.5 383.5Q904 390 857 388Q843 388 843.5 396.5Q844 405 858 407ZM607 429Q601 441 582 446Q563 451 542 427Q542 427 549.5 504Q557 581 558 592Q563 617 544 615.5Q525 614 522 612Q495 594 468 543Q441 491 419 436.5Q397 382 383 339Q369 296 369 296Q372 343 379 396Q386 449 394.5 506Q403 563 412 622Q422 681 430 740Q431 752 417 750Q403 748 403 748Q357 732 327 672Q297 613 277.5 548Q258 483 246 432Q234 381 222 380Q216 448 213.5 465.5Q211 483 187 481Q154 474 148 458Q142 442 99 403Q73 412 43 411Q13 410 13 410Q0 408 0 400Q0 392 13 392Q34 393 66 390Q98 387 117 386Q141 387 150.5 400Q160 413 169 414Q178 313 183 306Q188 299 214 298Q240 304 259 341Q278 379 295 432Q312 485 329 546Q346 606 368 657Q355 588 344 520Q333 452 325 389Q317 326 313 270Q309 214 310 169Q310 148 320.5 147Q331 146 346 148Q359 149 376 187Q394 224 414 279Q434 334 456 396Q478 459 501 509Q498 483 492 413.5Q486 344 486 344Q488 333 509 334Q530 335 533 342L569 398Q593 355 601 351.5Q609 348 625 348Q641 348 654.5 365Q668 382 668 382Q672 375 675 369Q678 363 680 362Q685 358 699.5 358Q714 358 719 361Q719 361 741.5 373Q764 385 786 388Q815 390 812 399.5Q809 409 786 410Q770 411 743.5 403Q717 395 717 395Q705 427 703.5 432Q702 437 679 438Q661 439 643.5 416.5Q626 394 626 394Q626 394 619 406Q612 418 607 428Z" fill="#ac4142" />
  </g>
</svg>