<?xml version="1.0" encoding="UTF-8"?>
<svg width="16" height="16" viewBox="0 0 16 16" xmlns="http://www.w3.org/2000/svg">
  <g transform="translate(0.020000000000000462, 14.98447063577586) scale(0.015585937499999999, -0.015585937499999999)">
    <path d="M588 693L542 654Q518 677 489 694Q460 711 428 721L445 779Q486 766 522.5 744.5Q559 723 588 693ZM615 663L569 624Q589 599 603 571.5Q617 544 624 511L685 507Q678 551 660 590.5Q642 630 615 663ZM388 730L406 788Q355 797 305.5 791.5Q256 786 211 767L237 712Q272 726 309.5 731Q347 736 388 730ZM440 116L413 171Q354 157 294 168Q234 179 184 213.5Q134 248 100 303Q67 359 60 433L0 432Q7 333 53 264Q98 194 162.5 154.5Q227 115 301 106Q376 96 440 116ZM61 473Q67 544 105 601.5Q143 659 200 694L175 749Q138 728 108 699Q77 670 54 634Q31 598 17 557Q3 517 0 472L61 473ZM425 398L1024 445L1024 461L417 503Q435 480 436 453.5Q437 427 425 398ZM407 453Q407 485 378.5 501.5Q350 518 322 502Q294 485 294 452.5Q294 420 322 404Q350 388 378.5 404Q407 420 407 453Z" fill="#d28445" />
  </g>
</svg>