<?xml version="1.0" encoding="UTF-8"?>
<svg width="16" height="16" viewBox="0 0 16 16" xmlns="http://www.w3.org/2000/svg">
  <g transform="translate(0.839150390625, 14.55375) scale(0.01462890625, -0.01462890625)">
    <path d="M63 757L765 742L230 683L489 565L622 625L444 633L763 687Q787 698 806 692.5Q825 687 838 666Q848 651 852.5 631.5Q857 612 857 588Q857 558 849.5 529Q842 500 828 474Q848 464 859 441.5Q870 419 870 379Q870 342 854 292.5Q838 243 809 208L879 252L917 756L489 904ZM164 623L167 521L406 404L407 310L170 427L180 199L489 8L489 467ZM756 587L570 494L570 384L758 484Q784 497 786.5 548Q789 599 756 587ZM759 384L570 278L570 152L757 264Q779 277 790 298Q801 319 801 346Q798 369 789 382Q780 395 759 384ZM497 -64L38 225L0 794L490 960L979 796L928 217ZM63 240L497 -33L902 232L950 777L490 932L28 775Z" fill="#6a9fb5" />
  </g>
</svg>