<?xml version="1.0" encoding="UTF-8"?>
<svg width="16" height="16" viewBox="0 0 16 16" xmlns="http://www.w3.org/2000/svg">
  <g transform="translate(-1.0458474864130451, 15.902860560311733) scale(0.017636718750000002, -0.017636718750000002)">
    <path d="M224 371Q264 426 308 461Q352 496 393.5 515Q435 534 473 537Q511 540 540 531Q679 486 750 463.5Q821 441 823 486Q839 485 855 457Q872 429 892.5 393.5Q913 358 939 325Q965 292 999 282Q1042 267 1016 250.5Q990 234 938 190Q880 143 733 124Q585 105 446.5 123Q308 141 228 201Q148 261 224 371ZM0 393Q0 426 56.5 434Q113 442 167 447Q184 474 167 502Q151 530 124.5 553.5Q98 577 74 592Q49 607 49 607Q52 621 76 624Q100 627 135.5 621Q171 615 213 601Q256 586 296 566Q325 582 324 614Q322 646 308.5 678Q295 710 279 734Q263 758 263 758Q275 773 304 759Q334 746 367 720.5Q400 695 429 665Q458 636 468 618Q515 616 519.5 677.5Q524 739 503 776Q514 790 538 771Q562 753 587 720Q612 687 634 649Q656 611 665 587Q700 586 703.5 610Q707 634 694 693Q703 705 719 685Q735 665 750 634.5Q765 604 776 571Q788 539 788 524Q789 487 737 510Q685 533 658 538Q612 557 563.5 570Q515 583 465 573Q390 564 330.5 529Q271 494 214 428Q131 312 157 338Q183 364 0 393Z" fill="#7c4426" />
  </g>
</svg>