<?xml version="1.0" encoding="UTF-8"?>
<svg width="16" height="16" viewBox="0 0 16 16" xmlns="http://www.w3.org/2000/svg">
  <g transform="translate(0.5099999999999998, 14.55375) scale(0.01462890625, -0.01462890625)">
    <path d="M338 960Q332 960 327 957.5Q322 955 317 951L9 642Q4 638 2 633Q0 628 0 622L0 290Q16 320 52.5 360.5Q89 401 135 447L647 960ZM149 435Q83 373 46 326Q9 279 9 258Q9 255 10 253.5Q11 252 11 251L313 -51Q321 -59 374.5 -21Q428 17 499 85ZM337 -64L686 -64Q692 -64 697 -62Q702 -60 706 -55L1015 254Q1020 259 1022 263.5Q1024 268 1024 274L1023 594Q995 552 946 503.5Q897 455 881 441L519 78Q480 41 427 -4Q374 -49 337 -64ZM867 786Q865 786 863.5 785.5Q862 785 860 783L714 637Q711 634 711 630Q711 626 714 623L875 461Q919 502 969 556Q1019 610 1023 632Q1023 633 1022.5 634Q1022 635 1022 635L874 783Q873 785 871 785.5Q869 786 867 786Z" fill="#6a9fb5" />
  </g>
</svg>