<?xml version="1.0" encoding="UTF-8"?>
<svg width="16" height="16" viewBox="0 0 16 16" xmlns="http://www.w3.org/2000/svg">
  <g transform="translate(0.5099999999999998, 14.55375) scale(0.01462890625, -0.01462890625)">
    <path d="M984 920L984 494L40 494L40 920ZM1024 960L0 960L0 454L1024 454ZM490 400L0 400L0 -64L490 -64ZM1024 400L534 400L534 -64L1024 -64ZM156 777Q143 773 133.5 753Q124 733 124 711Q122 649 164.5 640Q207 631 214 641L214 668L183 668L183 706L259 706L259 629Q242 606 198.5 599.5Q155 593 122 615Q94 634 87.5 659.5Q81 685 79 711Q78 739 92 769Q106 799 132 809Q173 826 210.5 815Q248 804 248 804L248 759Q248 759 220 773Q192 787 156 777ZM328 607L342 643L423 643L435 607L485 607L407 816L356 816L280 607L328 607ZM375 759L387 759L411 677L353 677L375 759ZM552 608L552 755L614 608L644 608L708 756L708 608L746 608L746 816L692 816L630 657L567 814L513 814L513 608L552 608ZM926 770Q934 777 932 788.5Q930 800 924 806Q924 806 905 813.5Q886 821 864 822Q843 823 822.5 814Q802 805 794 785Q779 745 801.5 718.5Q824 692 856 688Q896 683 895.5 658.5Q895 634 860 635Q833 636 817.5 647.5Q802 659 786 667L786 619Q786 619 808 606.5Q830 594 869 594Q921 594 936 644Q951 694 905 719Q881 732 862 732.5Q843 733 836 747Q827 763 836 773.5Q845 784 862 782Q874 781 885.5 778.5Q897 776 901 766Q911 762 914.5 763Q918 764 926 770Z" fill="#be2f31" />
  </g>
</svg>