<?xml version="1.0" encoding="UTF-8"?>
<svg width="16" height="16" viewBox="0 0 16 16" xmlns="http://www.w3.org/2000/svg">
  <g transform="translate(0.01610351562500025, 14.9825) scale(0.015585937499999999, -0.015585937499999999)">
    <path d="M561 402L660 402L559 746L467 746L367 402L461 402L475 469L547 469L561 402ZM488 531L511 640L534 531L488 531ZM939 557L1010 487Q1024 473 1024 452.5Q1024 432 1010 418L546 -50Q532 -64 512 -64Q492 -64 477 -50L15 411Q1 426 0.5 449.5Q0 473 14 487L66 539Q68 525 70.5 511Q73 497 77 484L45 453L512 -19L979 453L903 528Q913 533 922.5 540Q932 547 939 557ZM351 756Q340 762 328.5 766.5Q317 771 305 775L477 946Q492 960 512 960Q532 960 546 946L715 778L650 778L512 915L351 756ZM394 216L498 355L571 355L571 209L605 209L605 164L571 164L571 86L500 86L500 164L394 164L394 216ZM500 209L500 278L447 209ZM224 586L344 586L344 402L292 402L276 427Q254 401 223 395.5Q192 390 155 417Q133 432 119 462Q105 492 100 528Q95 564 98 600Q102 637 115 666Q139 718 174 735Q210 752 243 752Q276 752 300 743Q324 734 324 734L324 657Q306 673 255.5 682.5Q205 692 190 622Q184 596 189 543Q194 490 215 472Q232 458 242 466.5Q252 475 254 483L254 521L224 521L224 586ZM688 403L688 746Q688 746 741 746Q794 746 844 746Q865 746 889 734Q913 722 925 700Q945 661 936 626.5Q927 592 912 574Q885 542 831 540.5Q777 539 777 539L777 403L688 403ZM821 608Q834 612 840 622.5Q846 633 846 644Q846 656 838.5 667Q831 678 820 682L779 682L779 605Q779 605 793.5 604Q808 603 821 608Z" fill="#d28445" />
  </g>
</svg>