<?xml version="1.0" encoding="UTF-8"?>
<svg width="16" height="16" viewBox="0 0 16 16" xmlns="http://www.w3.org/2000/svg">
  <g transform="translate(0.5099999999999998, 14.556064700356012) scale(0.01462890625, -0.01462890625)">
    <path d="M255 891Q128 817 64 697Q0 577 0 448Q0 319 64 199Q128 79 255 5Q383 -69 519 -64Q655 -59 767.5 5.5Q880 70 952 185Q1024 301 1024 448Q1024 595 952 711Q880 826 767.5 890.5Q655 955 519 960Q383 965 255 891ZM110 441L508 46Q429 47 358 77Q286 107 231.5 159Q177 211 145 283Q112 354 110 441ZM600 57L121 536Q144 649 226 729Q308 809 414.5 837Q521 865 635 832Q749 799 837 686L783 638Q721 719 637 752Q552 785 467.5 773.5Q383 762 311 707Q238 653 201 558L622 137Q661 151 696 174Q731 198 758 228.5Q785 259 805 297Q824 334 834 375L658 375L658 448L914 448Q914 377 890 312Q866 248 824 196Q782 144 725 108Q667 72 600 57Z" fill="#825078" />
  </g>
</svg>