<?xml version="1.0" encoding="UTF-8"?>
<svg width="16" height="16" viewBox="0 0 16 16" xmlns="http://www.w3.org/2000/svg">
  <g transform="translate(0.5099999999999998, 14.55375) scale(0.01462890625, -0.01462890625)">
    <path d="M255 475Q243 465 241.5 453.5Q240 442 256 429L630 127L505 19L11 432Q0 441 0 455Q0 469 11 478L501 877L630 776L255 475ZM626 589L760 474Q770 465 770 452Q770 439 760 430L574 272L690 176L1011 432Q1024 444 1024 457Q1024 470 1010 481L751 686L626 589Z" fill="#d28445" />
  </g>
</svg>