<?xml version="1.0" encoding="UTF-8"?>
<svg width="16" height="16" viewBox="0 0 16 16" xmlns="http://www.w3.org/2000/svg">
  <g transform="translate(0.020000000000000462, 14.986396484375) scale(0.015585937499999999, -0.015585937499999999)">
    <path d="M189 573Q199 574 211.5 571.5Q224 569 224 557Q225 551 231 551.5Q237 552 236 558Q236 571 224 579Q212 587 187 585Q181 583 182 577.5Q183 572 189 573ZM217 282Q221 279 217.5 275.5Q214 272 211 275L131 349Q128 352 131 355.5Q134 359 138 356L217 282ZM430 323Q448 330 455 352.5Q462 375 456 413Q450 423 445 436.5Q440 450 436 464L367 419Q386 397 383.5 384.5Q381 372 367 359L430 323ZM407 361Q411 359 413.5 363Q416 367 412 370L392 380Q393 381 393 382Q393 383 393 384L421 384Q426 384 426 389Q426 394 421 394L392 394Q392 396 391 398.5Q390 401 389 403L424 422Q428 424 425.5 428Q423 432 419 430L385 411Q384 413 383 414Q382 415 381 416L430 449Q432 442 436.5 431.5Q441 421 447 410Q448 405 449 375Q450 345 431 334L382 361Q385 364 386.5 366Q388 368 389 371L407 361ZM336 245Q351 256 337.5 268Q324 280 348 295Q344 299 339 304Q334 309 335 314Q335 319 339.5 318.5Q344 318 344 313Q345 308 362 294.5Q379 281 367 264Q364 260 360 263Q356 266 359 270Q362 274 361 278.5Q360 283 355 287Q349 284 346.5 281Q344 278 345 275Q348 268 351 256.5Q354 245 341 237Q337 234 334.5 238Q332 242 336 245ZM471 434Q468 438 472 441Q476 444 479 440Q494 418 496 396Q498 374 488 351Q486 347 482 349Q478 351 479 355Q489 376 486.5 395.5Q484 415 471 434ZM523 278Q520 275 516.5 277.5Q513 280 515 284Q519 289 517 295.5Q515 302 508 308Q515 312 522 318.5Q529 325 515 341Q512 345 515 348Q518 351 522 348Q531 338 533 326Q535 314 522 306Q525 301 527 293.5Q529 286 523 278ZM537 297Q533 294 530.5 298Q528 302 531 304Q539 310 537 314.5Q535 319 534 329Q533 333 537.5 334Q542 335 543 330Q547 316 546.5 309.5Q546 303 537 297ZM596 466Q593 462 589 465Q585 468 588 472Q598 486 590.5 490Q583 494 581 503Q581 508 585.5 508.5Q590 509 591 504Q593 499 600.5 491.5Q608 484 596 466ZM589 421Q585 417 582 420.5Q579 424 582 427Q588 434 588.5 440.5Q589 447 584 455Q582 458 585.5 461Q589 464 592 460Q599 450 598.5 440Q598 430 589 421ZM613 486Q620 476 620 467Q620 458 611 451Q607 448 604 451.5Q601 455 605 458Q611 463 610.5 468Q610 473 605 480Q602 483 605.5 486Q609 489 613 486ZM636 418Q640 399 652 395.5Q664 392 657 370Q656 366 652.5 367.5Q649 369 650 372Q653 383 650 386.5Q647 390 641 395Q641 392 639 389Q637 386 633 383Q630 381 628 383.5Q626 386 629 389Q639 397 634 403.5Q629 410 629 419Q629 422 632.5 422Q636 422 636 418ZM631 378Q644 371 641.5 361.5Q639 352 629 343Q627 340 624.5 342.5Q622 345 624 348Q633 357 634.5 362Q636 367 628 371Q624 373 625.5 376Q627 379 631 378ZM865 467Q868 467 868.5 463.5Q869 460 866 460L817 455Q814 455 814 458.5Q814 462 817 462L865 467ZM901 538Q904 541 906.5 538Q909 535 906 533L851 490Q848 488 846 490.5Q844 493 847 495ZM908 509Q911 511 912.5 507.5Q914 504 911 503L865 477Q862 476 860.5 479Q859 482 862 484L908 509ZM908 411Q911 409 909 406Q907 403 904 405L852 436Q849 438 851 441Q853 444 856 442ZM888 394Q891 391 889 388.5Q887 386 884 388L839 422Q836 424 838 427Q840 430 843 428ZM978 481Q977 478 973.5 479.5Q970 481 972 484Q982 508 978 536Q974 564 956 596Q954 599 957 600.5Q960 602 962 599Q982 566 986 536.5Q990 507 978 481ZM1022 515Q1022 512 1018.5 511.5Q1015 511 1014 515Q1013 548 1006 573Q999 598 987 615Q985 618 988 620Q991 622 993 619Q1006 601 1013 575Q1020 549 1022 515ZM968 305Q966 302 963 303.5Q960 305 961 308Q973 331 977 364Q981 397 971 428Q970 431 973 432Q976 433 978 430Q989 398 984 363.5Q979 329 968 305ZM1015 299Q1014 295 1010.5 296Q1007 297 1008 301Q1017 329 1017 354.5Q1017 380 1008 402Q1007 406 1010.5 407Q1014 408 1015 405Q1024 381 1024 354.5Q1024 328 1015 299ZM114 401Q107 405 87 419Q67 433 79 448Q89 456 108 469Q127 482 152 497Q161 521 176 529Q191 537 213 527Q258 549 303 559Q348 570 391.5 574Q435 578 476 579Q517 579 554 581L607 621Q656 625 697.5 604Q739 583 774 536Q778 531 767.5 526Q757 521 751 520Q763 512 775 504.5Q787 497 791 496Q810 495 864 545.5Q918 596 924 593Q927 593 930 591.5Q933 590 934 587Q951 546 951 511.5Q951 477 932 448Q954 414 950.5 378.5Q947 343 932 319Q930 315 925.5 314Q921 313 918 316L800 414Q761 418 755 393Q749 368 727 328Q750 326 753 326Q756 326 756 322Q752 296 713 252Q674 208 645 191Q628 182 612 184Q596 186 583 203Q553 194 502.5 191Q452 188 398 187Q390 159 378.5 148Q367 137 351 152L336 133Q335 132 333.5 132Q332 132 330 134L291 191Q272 193 258.5 196Q245 199 238 204Q182 247 133.5 304Q85 361 80 367Q73 377 82.5 387Q92 397 114 401ZM719 541Q725 537 731 533Q737 529 743 525Q751 527 756.5 529Q762 531 766 534Q762 540 757.5 545Q753 550 749 555L719 541ZM683 562Q690 559 697 554.5Q704 550 712 546L744 561Q738 567 732 572Q726 577 720 582L683 562ZM645 575Q666 571 666 571Q666 571 676 566L713 586Q707 591 700 595Q693 599 686 602Q685 601 675 594.5Q665 588 645 575ZM602 579Q611 578 619 577.5Q627 577 634 576L678 605Q674 606 670.5 607.5Q667 609 663 610L602 579ZM565 581Q571 581 576.5 580.5Q582 580 587 580L652 612Q642 614 631.5 614.5Q621 615 610 614L565 581ZM213 477Q221 465 214 442.5Q207 420 175 417Q177 410 180.5 404.5Q184 399 188 395Q194 390 201 388.5Q208 387 218 388Q237 390 245.5 409.5Q254 429 254 445Q253 462 242.5 481Q232 500 210 510Q188 521 180.5 512.5Q173 504 167 487Q175 495 188 496Q201 497 213 477ZM166 473Q166 467 166.5 460.5Q167 454 168 448Q188 454 181.5 467Q175 480 166 473ZM348 179L340 187L325 188L340 171Q342 168 339.5 165.5Q337 163 334 166L315 188Q311 189 307.5 189Q304 189 300 190L334 142L367 181L361 187Q358 187 355.5 187Q353 187 350 187L353 184Q356 181 353.5 178.5Q351 176 348 179ZM375 180L356 157Q368 144 376 155Q384 166 390 187Q385 187 380.5 187Q376 187 372 187Q374 185 375 183.5Q376 182 375 180ZM655 206Q645 208 631.5 211.5Q618 215 618 217Q611 214 604 211Q597 208 590 206Q604 190 620.5 191.5Q637 193 655 206ZM663 212Q669 217 674.5 222Q680 227 686 233Q678 235 672 239Q666 243 663 245Q654 238 645 232Q636 226 626 221Q637 218 646.5 215Q656 212 663 212ZM715 265L690 271Q685 266 679.5 260.5Q674 255 668 250Q672 248 678 244Q684 240 692 239Q698 246 704 252Q710 258 715 265ZM739 300L712 301Q708 295 703.5 289Q699 283 695 278L720 271Q725 278 730 285.5Q735 293 739 300ZM724 321Q722 318 720 314.5Q718 311 716 308L743 307Q744 310 745.5 313Q747 316 748 319L724 321ZM149 473Q144 470 139.5 467Q135 464 131 461Q142 442 134 438Q126 434 120 454Q113 449 106.5 445Q100 441 96 437Q107 426 117.5 421.5Q128 417 140 401Q153 390 166.5 374Q180 358 186 346Q187 341 183 339.5Q179 338 177 342Q173 351 163 363.5Q153 376 142 387Q140 387 128.5 386Q117 385 98 375Q109 361 154.5 309Q200 257 249 220Q259 213 289 210Q319 207 359.5 206.5Q400 206 446 208Q492 210 533 213Q636 225 675.5 285Q715 345 730 383Q739 413 760 425Q781 437 808 433L921 339Q931 360 931 388Q931 416 913 442Q911 445 911 448Q911 451 913 453Q929 477 931 506Q933 535 921 569Q883 537 847.5 507Q812 477 790 476Q781 474 726 513Q671 552 656 553Q654 525 643 513.5Q632 502 632 502Q623 508 614 528.5Q605 549 601 560Q590 560 577 560.5Q564 561 549 562Q534 539 542 524.5Q550 510 516 489Q503 497 491.5 520.5Q480 544 476 560Q467 560 457 559.5Q447 559 437 558Q426 545 429.5 524Q433 503 404 480Q396 476 389.5 505.5Q383 535 367 552Q362 551 357 550.5Q352 550 347 549Q345 523 339 503.5Q333 484 330 477Q341 451 327.5 401Q314 351 285 331L279 339Q310 361 319.5 410.5Q329 460 322 472Q306 498 299 506.5Q292 515 264 527Q256 525 248.5 521.5Q241 518 233 515Q279 475 272 435Q265 395 238 378Q211 361 181 379Q151 397 149 473ZM144 733Q144 744 134.5 749.5Q125 755 116 749Q107 744 107 733Q107 722 116 717Q125 712 134.5 717Q144 722 144 733ZM110 707Q95 715 95 733Q95 751 110 760Q125 769 140.5 760Q156 751 156 733Q156 716 140.5 707Q125 698 110 707ZM130 606Q130 612 125 615Q120 618 115 615Q110 612 110 606Q110 600 115 597Q120 594 125 597Q130 600 130 606ZM109 587Q98 593 98 606Q98 619 109 626Q120 632 131 625.5Q142 619 142 606Q142 593 131 587Q120 581 109 587ZM73 643Q73 659 59.5 666.5Q46 674 33 667Q19 659 19 643.5Q19 628 33 620Q46 612 59.5 620Q73 628 73 643ZM23 603Q0 617 0 643.5Q0 670 23 683Q46 696 69 683Q92 670 92 643Q92 617 69 603.5Q46 590 23 603Z" fill="#75b5aa" />
  </g>
</svg>