<?xml version="1.0" encoding="UTF-8"?>
<svg width="16" height="16" viewBox="0 0 16 16" xmlns="http://www.w3.org/2000/svg">
  <g transform="translate(1.0175, 12.9875) scale(0.015585937499999999, -0.015585937499999999)">
    <path d="M448 482Q379 480 333.5 434.5Q288 389 286 320Q288 251 333.5 205.5Q379 160 448 158Q517 160 562.5 205.5Q608 251 609 320Q608 389 562.5 434.5Q517 480 448 482ZM773 227L743 157L802 41L730 -31L612 25L541 -4L501 -128L399 -128L355 -5L285 24L169 -34L97 38L153 156L124 226L0 267L0 369L123 413L152 483L94 599L166 671L284 615L355 644L395 768L497 768L541 645L611 616L727 674L799 602L743 484L772 414L896 373L896 271Z" fill="#ac4142" />
  </g>
</svg>