<?xml version="1.0" encoding="UTF-8"?>
<svg width="16" height="16" viewBox="0 0 16 16" xmlns="http://www.w3.org/2000/svg">
  <g transform="translate(-0.025000000000000355, 13.345820312499999) scale(0.008359375, -0.008359375)">
    <path d="M821 459Q821 459 858.5 496.5Q896 534 896 640Q896 746 821 821Q746 896 640 896Q534 896 459 821Q384 746 384 640Q384 534 459 459Q534 384 640 384Q746 384 821 459ZM1664 128Q1664 180 1626 218Q1588 256 1536 256Q1484 256 1446 218Q1408 180 1408 128Q1408 75 1445.5 37.5Q1483 0 1536 0Q1589 0 1626.5 37.5Q1664 75 1664 128ZM1664 1152Q1664 1204 1626 1242Q1588 1280 1536 1280Q1484 1280 1446 1242Q1408 1204 1408 1152Q1408 1099 1445.5 1061.5Q1483 1024 1536 1024Q1589 1024 1626.5 1061.5Q1664 1099 1664 1152ZM1280 731L1280 546Q1280 536 1273 526.5Q1266 517 1257 516L1102 492Q1091 457 1070 416Q1104 368 1160 301Q1167 290 1167 281Q1167 269 1160 262Q1137 232 1077.5 172.5Q1018 113 999 113Q988 113 978 120L863 210Q826 191 786 179Q775 71 763 24Q756 0 733 0L547 0Q536 0 527 7.5Q518 15 517 25L494 178Q460 188 419 209L301 120Q294 113 281 113Q270 113 260 121Q116 254 116 281Q116 290 123 300Q133 314 164 353Q195 392 211 414Q188 458 176 496L24 520Q14 521 7 529.5Q0 538 0 549L0 734Q0 744 7 753.5Q14 763 23 764L178 788Q189 823 210 864Q176 912 120 979Q113 990 113 999Q113 1011 120 1019Q142 1049 202 1108Q262 1167 281 1167Q292 1167 302 1160L417 1070Q451 1088 494 1102Q505 1210 517 1256Q524 1280 547 1280L733 1280Q744 1280 753 1272.5Q762 1265 763 1255L786 1102Q820 1092 861 1071L979 1160Q987 1167 999 1167Q1010 1167 1020 1159Q1164 1026 1164 999Q1164 991 1157 980Q1145 964 1115 926Q1085 888 1070 866Q1093 818 1104 784L1256 761Q1266 759 1273 750.5Q1280 742 1280 731ZM1920 198L1920 58Q1920 42 1771 27Q1759 0 1741 -25Q1792 -138 1792 -163Q1792 -167 1788 -170Q1666 -241 1664 -241Q1656 -241 1618 -194Q1580 -147 1566 -126Q1546 -128 1536 -128Q1526 -128 1506 -126Q1492 -147 1454 -194Q1416 -241 1408 -241Q1406 -241 1284 -170Q1280 -167 1280 -163Q1280 -138 1331 -25Q1313 0 1301 27Q1152 42 1152 58L1152 198Q1152 214 1301 229Q1314 258 1331 281Q1280 394 1280 419Q1280 423 1284 426Q1288 428 1319 446Q1350 464 1378 480Q1406 496 1408 496Q1416 496 1454 449.5Q1492 403 1506 382Q1526 384 1536 384Q1546 384 1566 382Q1617 453 1658 494L1664 496Q1668 496 1788 426Q1792 423 1792 419Q1792 394 1741 281Q1758 258 1771 229Q1920 214 1920 198ZM1920 1222L1920 1082Q1920 1066 1771 1051Q1759 1024 1741 999Q1792 886 1792 861Q1792 857 1788 854Q1666 783 1664 783Q1656 783 1618 830Q1580 877 1566 898Q1546 896 1536 896Q1526 896 1506 898Q1492 877 1454 830Q1416 783 1408 783Q1406 783 1284 854Q1280 857 1280 861Q1280 886 1331 999Q1313 1024 1301 1051Q1152 1066 1152 1082L1152 1222Q1152 1238 1301 1253Q1314 1282 1331 1305Q1280 1418 1280 1443Q1280 1447 1284 1450Q1288 1452 1319 1470Q1350 1488 1378 1504Q1406 1520 1408 1520Q1416 1520 1454 1473.5Q1492 1427 1506 1406Q1526 1408 1536 1408Q1546 1408 1566 1406Q1617 1477 1658 1518L1664 1520Q1668 1520 1788 1450Q1792 1447 1792 1443Q1792 1418 1741 1305Q1758 1282 1771 1253Q1920 1238 1920 1222Z" fill="#a35f27" />
  </g>
</svg>