<?xml version="1.0" encoding="UTF-8"?>
<svg width="16" height="16" viewBox="0 0 16 16" xmlns="http://www.w3.org/2000/svg">
  <g transform="translate(3.4723535156249996, 14.55375) scale(0.01462890625, -0.01462890625)">
    <path d="M505 378Q510 381 520 382.5Q530 384 545 384Q549 384 552.5 383Q556 382 559 381Q562 379 564 375Q566 371 568 365Q570 358 571 348Q572 338 572 325Q572 312 572.5 293Q573 274 573 249Q573 198 574.5 156.5Q576 115 579 83Q582 52 583.5 25Q585 -2 585 -24Q585 -35 583 -42.5Q581 -50 578 -55Q574 -59 565.5 -61.5Q557 -64 545 -64Q541 -64 537.5 -63Q534 -62 531 -59Q528 -57 525.5 -52.5Q523 -48 520 -42Q517 -35 514.5 -26Q512 -17 510 -4Q507 8 504.5 24Q502 40 499 60Q496 80 486 90Q476 100 458 100Q455 100 450 99Q445 98 438 96Q430 95 421.5 93.5Q413 92 404 90Q394 89 383.5 87.5Q373 86 362 84Q351 83 340.5 82Q330 81 320 81Q273 81 233.5 91Q194 101 163 121Q132 141 107.5 165Q83 189 65 218Q47 247 34.5 277Q22 307 15 338Q7 369 3.5 396.5Q0 424 0 448Q0 495 6.5 542Q13 589 26 634Q40 680 60.5 721Q81 762 109 798Q137 834 172.5 863Q208 892 251 915Q294 937 345.5 948.5Q397 960 456 960Q496 960 526 955Q556 950 577 941Q598 931 608.5 916Q619 901 619 881Q619 875 616.5 869.5Q614 864 610 858Q606 853 601 848Q596 843 591 838Q585 834 579.5 830.5Q574 827 569 825Q563 822 558.5 820.5Q554 819 551 819Q546 819 541 821.5Q536 824 530 829Q525 833 515 843Q505 853 490 868Q483 875 476 879.5Q469 884 463 886Q457 888 449.5 889Q442 890 433 890Q399 890 367 878.5Q335 867 304 845Q274 822 247.5 793.5Q221 765 198 731Q175 696 157 658.5Q139 621 126 580Q113 539 106.5 500.5Q100 462 100 425Q100 384 104 350.5Q108 317 116 291Q124 265 135 244.5Q146 224 160 210Q174 196 190.5 186.5Q207 177 226 171Q245 166 265 163.5Q285 161 306 161Q325 161 342.5 163.5Q360 166 375 171Q391 176 404.5 182Q418 188 429 196Q441 203 450 211.5Q459 220 465 229Q472 239 476 248Q480 257 481 266L492 358Q494 365 497 370Q500 375 505 378Z" fill="#ac4142" />
  </g>
</svg>