<?xml version="1.0" encoding="UTF-8"?>
<svg width="16" height="16" viewBox="0 0 16 16" xmlns="http://www.w3.org/2000/svg">
  <g transform="translate(0.5099999999999998, 14.55375) scale(0.01462890625, -0.01462890625)">
    <path d="M0 960L1024 960L1024 170Q896 157 805 254Q715 352 642.5 474Q570 596 506 699Q442 803 367 803Q304 803 258 744Q212 684 171.5 609.5Q131 535 91 467Q51 399 0 383L0 960ZM0 -64L1024 -64L1024 106Q892 92 791 189Q690 286 611.5 408Q533 530 473 634Q413 738 364 739Q321 739 284 679Q248 619 208 544Q168 469 119 402Q69 334 0 319L0 -64Z" fill="#6a9fb5" />
  </g>
</svg>