<?xml version="1.0" encoding="UTF-8"?>
<svg width="16" height="16" viewBox="0 0 16 16" xmlns="http://www.w3.org/2000/svg">
  <g transform="translate(1.0016084558823533, 14.126842730978261) scale(0.013671875, -0.013671875)">
    <path d="M995 546Q1002 519 1000.5 483Q999 447 986 423Q971 395 920.5 340.5Q870 286 796 225Q738 178 671 130Q603 83 533.5 43Q464 3 395 -25Q326 -53 266 -61Q227 -67 189 -61.5Q151 -56 123 -40Q80 -15 62 12.5Q44 40 39 50Q25 76 24 104.5Q23 133 23 143Q23 176 48 218.5Q73 261 112 302Q138 329 170 358Q202 387 260 436Q219 458 166 485.5Q113 513 81 547Q70 560 54.5 588Q39 616 43 655Q48 695 73 742Q99 789 141.5 832Q184 875 243 909Q301 942 370 955Q417 964 467 958Q517 952 561 932Q630 901 702 851Q775 801 836.5 745.5Q898 690 942 637Q985 583 995 546ZM543 580Q513 569 445.5 600.5Q378 632 381 683Q385 758 431.5 774.5Q478 791 544 759Q598 733 625.5 676.5Q653 620 543 580ZM397 934Q323 926 289.5 909.5Q256 893 188 842Q165 825 132 786Q99 747 88 697Q84 678 88.5 662Q93 646 107 635Q151 598 216.5 567.5Q282 537 342 508Q360 500 350.5 484Q341 468 312 444Q277 413 237 380Q198 346 164 312.5Q130 279 107 246Q83 214 80 185Q77 158 88 126Q99 94 131 75Q170 53 238 62.5Q306 72 359 91Q398 106 442 128Q486 151 531 178Q576 205 621 236Q665 267 706 298Q748 331 787 366Q826 401 856.5 431.5Q887 462 906 484Q925 507 927 513Q932 530 931 546Q930 562 921 579Q906 607 887.5 629Q869 651 848 674Q793 732 733 782.5Q673 833 603 873Q552 901 504 920.5Q456 940 397 934ZM311 477Q274 445 245.5 420.5Q217 396 185 367Q109 297 66.5 238Q24 179 50 107Q81 24 144.5 15.5Q208 7 287 22Q388 42 513 109Q638 175 745 256.5Q852 338 921 418Q991 498 982 546Q975 584 930 638Q885 692 822.5 746.5Q760 801 691 849Q622 898 566 925Q532 942 493 950.5Q454 959 414 957Q338 953 272 921Q206 888 158 843Q110 798 83 749Q57 700 60 662Q63 626 103 592Q143 559 190 534Q237 509 275 493Q313 478 311 477ZM550 613Q550 612 549.5 611.5Q549 611 548 611Q548 625 505.5 635.5Q463 646 456 631Q440 644 435 663.5Q430 683 447 711Q457 725 487 721Q517 717 542.5 701.5Q568 686 576 662Q585 638 550 613Z" fill="#4d9085" />
  </g>
</svg>