<?xml version="1.0" encoding="UTF-8"?>
<svg width="16" height="16" viewBox="0 0 16 16" xmlns="http://www.w3.org/2000/svg">
  <g transform="translate(0.5099999999999998, 14.55375) scale(0.01462890625, -0.01462890625)">
    <path d="M514 936Q408 936 315 898Q222 860 152 794Q82 728 42 640Q1 552 0 451Q0 402 9 355Q19 308 37.5 264Q56 220 84 180Q112 140 148 105Q184 70 226 43Q268 16 314 -2Q360 -20 410 -30Q459 -40 510 -40Q616 -40 709 -2Q802 36 872 102Q942 168 982 256Q1023 344 1024 445Q1024 450 1022 455Q1020 460 1016 464Q1013 467 1008 469Q1003 471 998 471L497 471Q486 471 478 463.5Q470 456 470 445L470 15Q430 18 391 28Q352 38 316 54.5Q280 71 247 93Q214 115 185 143Q153 174 128 209Q103 245 86 284Q69 323 61 365Q52 407 53 451Q53 540 90 619Q127 698 189.5 756.5Q252 815 335 849Q419 883 513 883Q566 883 616 872Q667 860 713 839Q759 818 799 788Q839 757 872 718Q879 710 890 709Q901 708 909 715Q917 722 918 733Q919 744 912 752Q876 796 831 830Q786 864 735 887.5Q684 911 628 923Q572 935 514 936ZM523 13L523 186L756 186Q767 186 774.5 193.5Q782 201 782 212Q782 223 774.5 231Q767 239 756 239L523 239L523 419L970 419Q964 335 927 262Q890 189 830 134.5Q770 80 691 47Q612 15 523 13Z" fill="#ac4142" />
  </g>
</svg>