<?xml version="1.0" encoding="UTF-8"?>
<svg width="16" height="16" viewBox="0 0 16 16" xmlns="http://www.w3.org/2000/svg">
  <g transform="translate(-0.46979321289062426, 15.417138175317795) scale(0.016542968749999998, -0.016542968749999998)">
    <path d="M916 241L801 312Q821 347 837 393Q853 438 861 496.5Q869 555 870 627Q870 698 861 786Q859 812 840.5 814.5Q822 817 815 790Q800 745 770 713Q739 681 701 660Q663 639 621 626Q579 614 541 608Q512 624 481 621Q450 618 421 599Q350 604 297.5 645Q245 686 213 765L208 562Q201 547 198.5 533.5Q196 520 197 507Q164 542 121 556.5Q78 571 38 544Q-1 512 0 464Q1 417 27 374.5Q53 332 95 305Q137 278 181 287Q244 243 314 212Q384 182 455 171.5Q526 161 595 173Q663 184 722 225L876 165Q896 132 916.5 129.5Q937 127 1024 82Q1004 151 986.5 198.5Q969 246 916 241ZM56 446Q40 457 40 480.5Q40 504 56 516Q73 527 90 515.5Q107 504 107 481Q107 458 90 446Q73 434 56 446ZM438 592Q488 621 538.5 592Q589 563 589 505Q589 447 538.5 417.5Q488 388 438 418Q388 447 388 505Q388 563 438 592ZM256 443Q214 467 214 515Q214 563 256 587Q292 608 330 591.5Q368 575 378 537Q374 525 372.5 510.5Q371 496 375 484Q361 450 325.5 436.5Q290 423 256 443ZM658 298L669 292Q638 275 600 269Q562 262 516.5 264.5Q471 267 420 278Q368 288 312 305Q363 298 413 295Q464 292 513 298Q562 304 609 321Q656 337 699 369L718 341Q690 338 676.5 324.5Q663 311 658 298ZM488 444Q462 459 462 489Q462 519 488 534Q514 549 540 534Q566 519 566 489Q566 459 540 444Q514 429 488 444ZM364 501Q364 527 341.5 540Q319 553 297 540Q275 527 275 501.5Q275 476 297 463Q319 450 341.5 463Q364 476 364 501Z" fill="#90a959" />
  </g>
</svg>