<?xml version="1.0" encoding="UTF-8"?>
<svg width="16" height="16" viewBox="0 0 16 16" xmlns="http://www.w3.org/2000/svg">
  <g transform="translate(1.0175, 12.9875) scale(0.015585937499999999, -0.015585937499999999)">
    <path d="M695 384Q672 468 605.5 521Q539 574 448 576Q357 574 290.5 521Q224 468 201 384L0 384L0 256L201 256Q224 172 290.5 119Q357 66 448 64Q539 66 605.5 119Q672 172 695 256L896 256L896 384ZM448 192Q394 193 357.5 229.5Q321 266 320 320Q321 374 357.5 410.5Q394 447 448 448Q502 447 538.5 410.5Q575 374 576 320Q575 266 538.5 229.5Q502 193 448 192Z" fill="#ac4142" />
  </g>
</svg>