<?xml version="1.0" encoding="UTF-8"?>
<svg width="16" height="16" viewBox="0 0 16 16" xmlns="http://www.w3.org/2000/svg">
  <g transform="translate(2.0150000000000006, 12.9875) scale(0.015585937499999999, -0.015585937499999999)">
    <path d="M640 384Q604 384 575 366Q546 348 529 319Q521 320 512 320Q411 322 329 385Q247 448 211 543Q232 561 244 586Q256 611 256 640Q255 694 218.5 730.5Q182 767 128 768Q74 767 37.5 730.5Q1 694 0 640Q0 604 17.5 575.5Q35 547 64 530L64 110Q35 93 17.5 64.5Q0 36 0 0Q1 -54 37.5 -90.5Q74 -127 128 -128Q182 -127 218.5 -90.5Q255 -54 256 0Q256 36 238.5 64.5Q221 93 192 110L192 341Q256 273 338.5 233Q421 193 512 192L529 193Q546 163 575 145.5Q604 128 640 128Q694 129 730.5 165.5Q767 202 768 256Q767 310 730.5 346.5Q694 383 640 384ZM128 -64Q101 -63 83 -45Q65 -27 65 0Q65 27 83 45Q101 63 128 63Q155 63 173 45Q191 27 191 0Q191 -27 173 -45Q155 -63 128 -64ZM128 576Q101 577 83 595Q65 613 65 640Q65 667 83 685Q101 703 128 703Q155 703 173 685Q191 667 191 640Q191 613 173 595Q155 577 128 576ZM640 192Q613 193 595 211Q577 229 577 256Q577 283 595 301Q613 319 640 319Q667 319 685 301Q703 283 703 256Q703 229 685 211Q667 193 640 192Z" fill="#ac4142" />
  </g>
</svg>