<?xml version="1.0" encoding="UTF-8"?>
<svg width="16" height="16" viewBox="0 0 16 16" xmlns="http://www.w3.org/2000/svg">
  <g transform="translate(0.5099999999999998, 14.55375) scale(0.01462890625, -0.01462890625)">
    <path d="M1005 494L558 941Q538 960 511 960Q484 960 464 941L372 848L489 730Q510 737 531.5 732.5Q553 728 570 711Q586 695 591 673Q596 651 588 630L702 517Q723 524 745 519.5Q767 515 783 498Q806 475 806 442.5Q806 410 783 387Q760 364 727.5 364Q695 364 672 387Q655 404 650.5 427.5Q646 451 655 472L549 578L549 300Q555 297 560 293.5Q565 290 570 285Q593 262 593 229.5Q593 197 570 174Q547 151 514.5 151Q482 151 459 174Q436 197 436 229.5Q436 262 459 285Q465 291 471.5 295Q478 299 485 302L485 583Q478 586 471.5 590.5Q465 595 459 600Q441 618 437 641.5Q433 665 442 686L326 802L19 496Q0 476 0 449Q0 422 19 402L466 -45Q486 -64 513 -64Q540 -64 560 -45L1005 400Q1024 420 1024 447Q1024 474 1005 494Z" fill="#ac4142" />
  </g>
</svg>