<?xml version="1.0" encoding="UTF-8"?>
<svg width="16" height="16" viewBox="0 0 16 16" xmlns="http://www.w3.org/2000/svg">
  <g transform="translate(0.020000000000000462, 14.9825) scale(0.015585937499999999, -0.015585937499999999)">
    <path d="M512 -24L701 557L323 557ZM59 557L2 380Q-2 368 2 356Q6 344 16 337L512 -24L59 557ZM59 557L323 557L210 906Q206 920 191.5 920Q177 920 173 906L59 557ZM965 557L1022 380Q1026 368 1022 356Q1018 344 1008 337L512 -24L965 557ZM965 557L701 557L814 906Q818 920 832.5 920Q847 920 851 906Z" fill="#ffffff" />
  </g>
</svg>