<?xml version="1.0" encoding="UTF-8"?>
<svg width="16" height="16" viewBox="0 0 16 16" xmlns="http://www.w3.org/2000/svg">
  <g transform="translate(0.020000000000000462, 13.184018342391305) scale(0.015585937499999999, -0.015585937499999999)">
    <path d="M512 832Q294 827 149.5 682.5Q5 538 0 320Q3 148 99 18Q195 -112 350 -166Q369 -169 377 -160.5Q385 -152 385 -141L384 -46Q280 -62 244.5 -27Q209 8 212 15Q193 58 174.5 74Q156 90 155 89Q125 112 139.5 117Q154 122 159 121Q197 115 217 93Q237 71 237 68Q274 13 318 12.5Q362 12 386 25Q390 50 398.5 67Q407 84 419 94Q329 100 259 151.5Q189 203 185 347Q186 389 199.5 423Q213 457 238 484Q232 494 228 530Q224 566 243 620Q243 623 277 618.5Q311 614 384 567Q446 584 512 584Q578 584 640 567Q713 614 747 618.5Q781 623 781 620Q800 566 796 530Q792 494 786 484Q811 457 824.5 423Q838 389 839 347Q835 203 764.5 151.5Q694 100 605 94Q619 82 629 58.5Q639 35 640 -1L639 -141Q639 -152 647 -160.5Q655 -169 674 -166Q829 -112 925 18Q1021 148 1024 320Q1019 538 874.5 682.5Q730 827 512 832Z" fill="#ffffff" />
  </g>
</svg>