<?xml version="1.0" encoding="UTF-8"?>
<svg width="16" height="16" viewBox="0 0 16 16" xmlns="http://www.w3.org/2000/svg">
  <g transform="translate(0.5099999999999998, 14.55375) scale(0.01462890625, -0.01462890625)">
    <path d="M793 196L348 196L793 466ZM129 771Q156 799 214 834.5Q272 870 339 870Q288 858 259.5 820.5Q231 783 231 667Q231 664 228.5 661.5Q226 659 223 660Q169 664 109 639Q49 614 28 547Q30 620 66 681.5Q102 743 129 771ZM0 47L0 -9L1024 -9L1024 905L327 905Q271 905 207 879.5Q143 854 96 803Q41 745 20.5 679.5Q0 614 0 556Q0 556 0 497Q0 439 0 368Q0 297 0 239Q0 180 0 180L952 758L952 47L0 47Z" fill="#90a959" />
  </g>
</svg>