<?xml version="1.0" encoding="UTF-8"?>
<svg width="16" height="16" viewBox="0 0 16 16" xmlns="http://www.w3.org/2000/svg">
  <g transform="translate(-0.46999999999999886, 15.403479817708332) scale(0.016542968749999998, -0.016542968749999998)">
    <path d="M288 449L0 656L112 671Q146 654 194 628Q241 601 288 574.5Q335 548 376 525Q416 501 437 490Q449 485 468.5 481Q488 477 626 514L555 556Q596 565 610 570Q624 575 664 554Q714 629 717.5 650Q721 671 774 670Q768 638 759 605.5Q750 573 735 541L757 536L757 519L907 462L841 438L738 474Q686 472 672 457.5Q658 443 589 423L1024 261Q992 254 961.5 235Q931 216 887 230L452 376Q417 366 343.5 341.5Q270 317 229 312Q202 309 159.5 324.5Q117 340 223 391Z" fill="#e1ad83" />
  </g>
</svg>