<?xml version="1.0" encoding="UTF-8"?>
<svg width="16" height="16" viewBox="0 0 16 16" xmlns="http://www.w3.org/2000/svg">
  <g transform="translate(-0.46999999999999886, 15.41486877441406) scale(0.016542968749999998, -0.016542968749999998)">
    <path d="M438 367Q430 348 415 337Q400 326 381 322Q324 309 290 338Q256 367 245.5 412Q235 457 249 504Q264 551 305 573Q361 597 394.5 580Q428 563 439 543L439 578L479 578Q480 474 483 401Q486 327 468.5 280.5Q451 234 400 213Q349 192 241 192Q187 211 143 238Q98 265 66.5 297.5Q35 330 17 369Q0 407 0 448Q0 508 37 562Q73 615 136.5 654.5Q200 694 285 717Q370 740 467 740Q530 740 589 729Q647 719 698 700Q749 681 792 655Q834 629 865 598Q837 616 802 631Q767 645 726.5 655.5Q686 666 642 671Q598 676 550 676Q465 676 391 658Q316 640 260 609Q204 578 172 537Q140 495 140 448Q140 389 190 339Q240 289 322 258Q387 238 415 271Q443 304 438 367ZM864 297Q821 271 772 254Q723 237 672 229Q621 221 569 220Q518 219 469 224Q451 207 418.5 190.5Q386 174 342 167Q421 154 497 157Q572 160 639 177Q706 194 763 225Q821 255 864 297ZM728 526L804 526L804 578L590 578L590 526L667 526L667 321L728 321L728 526ZM897 426L1008 426L1008 478L897 478L897 526L1024 526L1024 578L836 578L836 321L897 321L897 426ZM514 322L557 321L557 642L514 642L514 322ZM437 452Q437 508 399 536.5Q361 565 323 537Q285 509 285 452.5Q285 396 323 368Q361 339 399 367.5Q437 396 437 452Z" fill="#90a959" />
  </g>
</svg>