<?xml version="1.0" encoding="UTF-8"?>
<svg width="16" height="16" viewBox="0 0 16 16" xmlns="http://www.w3.org/2000/svg">
  <g transform="translate(0.020000000000000462, 14.9825) scale(0.015585937499999999, -0.015585937499999999)">
    <path d="M0 745Q0 745 69 745Q138 745 147 745Q159 745 167 741.5Q175 738 182 726L238 628L153 481L0 745ZM316 198Q332 171 354 161Q376 151 397 151Q416 151 444.5 151Q473 151 473 151L561 302L427 302L343 446L514 745L342 745L171 448Q171 448 190 414Q210 380 235 336.5Q260 293 284 252Q308 211 316 198ZM596 594L682 448L511 151L683 151L853 448Q853 448 836 477Q819 506 796.5 545.5Q774 585 750 625Q727 665 714 688Q697 718 676.5 731.5Q656 745 623 745Q617 745 583.5 745Q550 745 550 745L465 595L596 594ZM785 267Q785 267 808.5 226.5Q832 186 839 174Q847 163 852.5 157Q858 151 871 151Q881 151 952.5 151Q1024 151 1024 151L871 417L785 267Z" fill="#90a959" />
  </g>
</svg>