<?xml version="1.0" encoding="UTF-8"?>
<svg width="16" height="16" viewBox="0 0 16 16" xmlns="http://www.w3.org/2000/svg">
  <g transform="translate(0.5090459408967387, 14.552028952205884) scale(0.01462890625, -0.01462890625)">
    <path d="M997 133Q997 133 964 166Q931 198 879 248.5Q827 299 764 360Q701 421 642 480L1013 825Q1027 851 1016 860.5Q1005 870 981 861L594 527Q539 581 499 621Q459 661 447 675Q423 702 393 739Q363 776 399 809Q490 893 556 863Q622 833 647 896Q580 929 520 937Q459 946 408.5 938Q358 930 318 911Q278 891 253 868Q184 806 190 773Q196 740 153 703Q125 679 96.5 697Q68 715 44 705L3 664Q-6 651 12 620Q30 590 58.5 559.5Q87 529 118 509Q149 488 164 494L222 550Q228 564 207.5 581.5Q187 599 234 635Q252 649 265 662Q278 675 297 674Q331 671 346 662Q361 653 395 623Q427 594 463 557.5Q499 521 539 479L277 253Q231 286 239.5 319Q248 352 322 413Q371 454 382.5 507.5Q394 561 359 561Q320 548 333.5 524.5Q347 501 252 427Q163 357 173 303.5Q183 250 219 214L14 26L79 -46L287 144Q371 55 424.5 93.5Q478 132 566 227Q587 250 604.5 234.5Q622 219 643 241Q657 270 624.5 287.5Q592 305 554 287Q515 268 478.5 221Q442 174 402 151Q390 144 371 156.5Q352 169 334 195L585 428Q623 386 663 341Q703 295 744.5 246.5Q786 198 829 147Q872 96 916 43Q929 23 941.5 10Q954 -3 968 13L1021 70Q1027 82 1021.5 98Q1016 114 997 133Z" fill="#6a9fb5" />
  </g>
</svg>