<?xml version="1.0" encoding="UTF-8"?>
<svg width="16" height="16" viewBox="0 0 16 16" xmlns="http://www.w3.org/2000/svg">
  <g transform="translate(0.011341145833333713, 14.98509765625) scale(0.015585937499999999, -0.015585937499999999)">
    <path d="M531 522Q532 526 533.5 530.5Q535 535 535 543Q535 546 533.5 552.5Q532 559 531 562Q530 563 529.5 564Q529 565 528 567Q527 567 526.5 568Q526 569 525 570Q525 571 525 572.5Q525 574 524 576Q523 583 521.5 589.5Q520 596 515 603L515 604Q513 606 512 607Q511 608 508 609Q502 611 490.5 609.5Q479 608 473 606Q464 603 456.5 598.5Q449 594 441 589L432 582L440 585Q442 586 445 587.5Q448 589 451 590Q458 593 464.5 595.5Q471 598 477 599Q482 600 492.5 601Q503 602 506 600Q510 597 511 590Q512 583 513 577Q513 576 513 575Q513 574 513 573Q512 573 511 572.5Q510 572 509 572Q507 572 505 571.5Q503 571 500 571Q498 570 496 570.5Q494 571 492 571Q489 571 486.5 571.5Q484 572 482 571Q480 571 477.5 570.5Q475 570 473 569Q472 569 470 568.5Q468 568 466 568Q463 567 461 567Q459 567 457 566Q451 566 447 565Q443 564 436 559Q432 555 433.5 549Q435 543 437 538Q439 531 448 524Q457 517 464 514Q472 511 482 509Q492 507 501 507Q501 507 501 507Q501 507 501 507Q512 507 519.5 510.5Q527 514 531 522ZM505 518Q500 518 493 518Q486 518 481 519Q475 520 470.5 522Q466 524 463 526Q456 530 452 534Q448 538 444 544Q451 549 454 550.5Q457 552 466 552L467 552Q467 552 467 551Q467 550 467 549Q467 546 467 543.5Q467 541 468 538Q472 531 477.5 528Q483 525 493 526Q499 526 505 531Q511 536 510 544Q510 550 508.5 553.5Q507 557 503 560Q504 560 505 560Q506 560 506 561Q511 561 515 561.5Q519 562 523 561Q524 560 525 556.5Q526 553 527 547L527 547Q527 542 526 535.5Q525 529 521 526Q517 522 513.5 520.5Q510 519 505 518ZM446 631Q449 640 450 648.5Q451 657 450 668Q447 663 443.5 658.5Q440 654 435 652Q431 650 427 650Q423 650 421 648Q419 647 419 645Q419 643 416 642Q413 641 407 642Q401 643 397 641Q392 639 389 635.5Q386 632 384 629Q382 626 380 623.5Q378 621 377 618Q376 615 376 612Q376 609 373 609Q370 608 368.5 606.5Q367 605 364 602Q362 600 361.5 595.5Q361 591 359 588Q356 583 348.5 578Q341 573 336 570Q344 573 351.5 576.5Q359 580 365 585Q368 587 371 591Q374 595 377 597Q380 600 383 600.5Q386 601 388 603Q390 606 389.5 608.5Q389 611 391 615Q396 625 400 629.5Q404 634 413 632Q412 630 412 629.5Q412 629 411 625Q411 621 411.5 614Q412 607 411 603Q410 599 407.5 597Q405 595 403 592Q406 593 410 594.5Q414 596 418 598Q430 605 435.5 612.5Q441 620 446 631ZM530 631Q532 630 532 628Q532 626 534 626Q536 625 539.5 625.5Q543 626 545 626Q549 618 553.5 609Q558 600 561 594Q563 587 562.5 584.5Q562 582 566 576Q569 569 575 560Q581 551 587 543Q585 548 582.5 552.5Q580 557 578 563Q576 569 575 577Q574 585 572 590Q570 595 568 595Q566 595 563 600Q557 611 552.5 623.5Q548 636 544 648Q542 647 540 645Q538 643 534 643Q530 643 524.5 645.5Q519 648 515 650Q515 646 516 642Q517 638 519 636Q522 633 525 633Q528 633 530 631ZM1016 781Q1011 805 1002 822.5Q993 840 978 859Q966 875 950.5 889.5Q935 904 918 914Q902 923 879.5 930.5Q857 938 838 940Q814 943 788 942Q762 941 739 932Q730 928 721.5 922Q713 916 706 912Q698 908 688.5 901.5Q679 895 669 896Q665 897 660.5 898.5Q656 900 652 903Q653 893 655.5 886.5Q658 880 666 872Q678 860 702 860.5Q726 861 742 862Q755 863 767 866Q779 869 793 869Q805 869 820.5 863.5Q836 858 844 854Q858 846 871 833.5Q884 821 892 808Q897 800 901.5 790.5Q906 781 909 771Q911 761 912.5 750Q914 739 914 730Q914 720 912.5 712Q911 704 909 695Q907 680 892.5 660.5Q878 641 857 647Q838 653 823.5 669.5Q809 686 798 702Q783 722 764.5 746.5Q746 771 724 790Q711 801 692.5 809.5Q674 818 657 820Q628 822 611 816.5Q594 811 570 793Q563 788 557.5 782.5Q552 777 545 772Q530 781 517.5 792.5Q505 804 487 811Q469 818 458.5 820Q448 822 426 822Q404 821 383 815Q362 809 341 792Q320 775 274 720Q228 665 216 658Q204 650 197.5 646Q191 642 177 642Q164 642 145 661Q126 680 125 708Q123 736 126.5 754.5Q130 773 149 806Q168 840 202 853.5Q236 867 260 871Q284 875 303 868.5Q322 862 349 863Q375 864 398.5 871Q422 878 421 911Q416 907 409 905Q402 903 392 903Q383 903 368 912.5Q353 922 336 932Q319 942 298 945Q277 948 247 949Q217 949 184.5 943.5Q152 938 119 920Q86 903 64.5 883Q43 863 25 828Q7 793 3 762Q-1 731 1 689Q4 647 16 616Q28 585 55 552Q82 518 109.5 503Q137 488 179 482Q180 464 179.5 456Q179 448 167 435Q154 422 159 411.5Q164 401 141 388Q130 382 125.5 372.5Q121 363 119 352Q118 341 125 337.5Q132 334 141 340Q149 346 157.5 345.5Q166 345 172 343Q176 341 183.5 342.5Q191 344 194 351Q199 359 205 362Q211 365 216 366Q215 325 215.5 288Q216 251 232 209Q248 167 276.5 131.5Q305 96 359 56Q318 97 288.5 131.5Q259 166 244 214Q229 263 230 295.5Q231 328 232 372Q250 376 263 380.5Q276 385 293 396L299 357Q300 347 299.5 336.5Q299 326 301 319Q303 312 307.5 314Q312 316 314 309Q317 301 317.5 286Q318 271 320 265Q322 259 323.5 260.5Q325 262 329 260Q332 259 337 259.5Q342 260 345 256Q348 252 347.5 245.5Q347 239 352 235Q356 232 363 232.5Q370 233 372 231Q375 228 374 226Q373 224 371 222Q369 220 366.5 219Q364 218 363 214Q362 211 362 206Q362 201 364 196Q365 191 367.5 186.5Q370 182 374 179Q378 175 385 175.5Q392 176 396 172Q400 169 398.5 164Q397 159 400 157Q403 154 408.5 155Q414 156 418 154Q422 153 425 151Q428 149 427 145Q426 140 420 135Q414 130 412 126Q410 122 409 119Q408 116 409 112Q410 109 412.5 105Q415 101 419 96Q427 88 438 81Q449 74 459 66Q462 64 465 61.5Q468 59 468 55Q468 51 466.5 48.5Q465 46 462 43Q458 41 452 39Q446 37 443 33Q441 29 440.5 25.5Q440 22 441 18Q441 13 444 10Q447 7 449 4Q452 1 456 -3Q460 -7 463 -8L452 9Q450 12 450.5 16.5Q451 21 453 24Q455 27 459.5 26.5Q464 26 468 28Q471 31 474.5 32Q478 33 480 37Q483 40 485 44.5Q487 49 485 55Q484 62 479 71Q474 80 470 88Q474 84 479 81Q484 78 488 73Q491 69 493.5 63Q496 57 499 52Q503 48 507.5 44Q512 40 517 36Q515 33 512 29.5Q509 26 507 23Q503 16 499 8.5Q495 1 497 -8Q499 -17 504.5 -22Q510 -27 520 -35Q517 -29 513 -23.5Q509 -18 508 -13Q507 -8 508.5 -5Q510 -2 513 1Q515 3 518 4.5Q521 6 524 8Q524 5 522.5 1.5Q521 -2 522 -6Q524 -10 528.5 -15.5Q533 -21 537 -26Q541 -30 546 -34.5Q551 -39 556 -43Q561 -46 565.5 -48.5Q570 -51 575 -52Q580 -53 584.5 -52.5Q589 -52 593 -52Q589 -50 584 -48.5Q579 -47 576 -44Q572 -41 571 -36.5Q570 -32 568 -29Q572 -31 576 -34.5Q580 -38 584 -40Q589 -42 593.5 -43.5Q598 -45 605 -47Q613 -49 622 -49.5Q631 -50 640 -51Q633 -48 627 -45.5Q621 -43 616 -39Q612 -35 610.5 -30.5Q609 -26 608 -23Q619 -28 627 -34Q635 -40 643 -43Q652 -45 658.5 -45.5Q665 -46 674 -45Q684 -44 690.5 -41Q697 -38 702 -36Q694 -37 685 -37.5Q676 -38 665 -36Q671 -32 673.5 -31Q676 -30 688 -21Q699 -12 706 -2.5Q713 7 715 14Q708 6 698.5 0.5Q689 -5 679 -8Q682 -3 687 1.5Q692 6 692 13Q686 11 679.5 10.5Q673 10 668 11Q660 14 650.5 24.5Q641 35 640 43Q639 49 642 51Q645 53 649 56Q653 60 660 63.5Q667 67 671 71Q675 75 677 79Q679 83 680 88Q682 93 681.5 98Q681 103 680 108Q679 112 675.5 117.5Q672 123 670 127Q669 132 669 134Q669 136 670 140Q672 144 676 149Q680 154 683 158Q688 159 692.5 160Q697 161 703 162Q710 163 718.5 163Q727 163 733 165Q738 168 740.5 175.5Q743 183 744 188Q747 198 746 207Q745 216 744 227Q754 231 762.5 234.5Q771 238 778 248Q781 251 781.5 255.5Q782 260 782 263Q782 267 780.5 269.5Q779 272 776 275Q774 278 769 281.5Q764 285 761 288Q758 291 756.5 293.5Q755 296 754 299Q764 305 773 313Q782 321 789 327Q795 333 797.5 337Q800 341 803 347Q805 353 806 360Q807 367 806 374Q806 382 804 392Q802 402 800 407Q798 413 795.5 414.5Q793 416 790 418Q787 421 784 423Q781 425 778 425Q774 426 771 424.5Q768 423 764 422Q759 422 753.5 421Q748 420 744 421Q739 422 737.5 424.5Q736 427 734 430Q733 433 732 436Q731 439 731 443Q730 447 730 451Q730 455 729 460Q728 465 726 470Q724 475 723 480Q726 478 728.5 477Q731 476 736 473Q748 465 760.5 456Q773 447 789 445Q799 444 806 439Q813 434 822 432Q831 430 842.5 430Q854 430 862 430Q871 430 876.5 431Q882 432 888 435Q898 440 900.5 450Q903 460 899 463Q895 466 893 466Q891 466 888 465Q882 463 878 468Q874 473 872 479Q871 483 870.5 487.5Q870 492 869 496Q893 501 914.5 510.5Q936 520 954 537Q973 555 991.5 586Q1010 617 1017 640Q1025 670 1024 710.5Q1023 751 1016 781ZM657 813Q674 811 690.5 803.5Q707 796 720 785Q737 769 752.5 749Q768 729 782 710Q767 723 743.5 740Q720 757 696 770Q678 780 662 785Q646 790 628 786Q623 785 612.5 781Q602 777 593 774Q593 775 592 775Q591 775 590 776Q585 778 580 779.5Q575 781 570 782Q594 802 610 808.5Q626 815 657 813ZM346 785Q368 804 387.5 808.5Q407 813 426 813Q446 814 457.5 812Q469 810 485 802Q502 795 512 786Q522 777 534 766L534 766L542 756Q542 756 557.5 750.5Q573 745 589 707Q591 702 594.5 701Q598 700 602 698Q604 696 605 694Q606 692 606 689Q608 692 608 694Q608 696 606 699Q604 701 599.5 703.5Q595 706 595 710Q595 719 596.5 725Q598 731 595 741Q590 753 581 759Q572 765 563 771Q567 769 571 768.5Q575 768 581 765Q594 760 611 749Q628 738 634 723Q638 713 635.5 705.5Q633 698 626 691Q622 685 612.5 679.5Q603 674 601 667Q600 664 600 660Q600 656 602 653Q604 649 609.5 647Q615 645 616 641Q619 634 614 628.5Q609 623 602 624Q606 626 608 630.5Q610 635 609 639Q607 644 602 648Q597 652 592 655Q582 660 573 661.5Q564 663 552 672Q545 678 542 683Q539 688 538 697Q536 704 535 714Q534 724 535 731Q535 735 536.5 739.5Q538 744 539 749Q536 746 534.5 744.5Q533 743 531 740Q513 755 500.5 768Q488 781 464 786Q438 790 417 785.5Q396 781 372 768Q340 750 321 726.5Q302 703 278 677Q261 658 248.5 655.5Q236 653 218 647Q219 648 220 648.5Q221 649 222 650Q236 659 280 712.5Q324 766 346 785ZM62 558Q38 588 25 619Q12 650 9 690Q7 730 11 760.5Q15 791 33 824Q52 857 74 877Q96 897 128 914Q159 931 189.5 935Q220 939 245 939Q271 938 291 936Q311 934 329 925Q347 916 362.5 905.5Q378 895 389 895Q400 894 405 895.5Q410 897 413 899Q412 894 409 890.5Q406 887 402 884Q390 880 381.5 883Q373 886 353 893Q334 900 311.5 910Q289 920 272 923Q248 927 229.5 923.5Q211 920 211 920L172 909Q172 909 139.5 895.5Q107 882 88 859Q68 836 50 794.5Q32 753 33 706Q33 658 47.5 627.5Q62 597 62 597Q62 597 78 574.5Q94 552 117 533Q139 513 160.5 503Q182 493 182 493Q139 498 112 513.5Q85 529 62 558ZM742 410Q748 408 752.5 409Q757 410 761 411Q765 411 768.5 413Q772 415 776 414Q780 413 784.5 410.5Q789 408 792 403Q795 397 795.5 388.5Q796 380 796 373Q796 366 795 360Q794 354 791 348Q787 343 782.5 338Q778 333 773 329Q769 324 765 321Q761 318 755 314Q749 310 741 306Q733 302 726 299Q719 296 712 294Q705 292 698 289Q708 289 719 290.5Q730 292 743 294Q746 291 748 287.5Q750 284 753 281Q756 278 761 275.5Q766 273 768 270Q770 266 770.5 262.5Q771 259 769 256Q766 250 755.5 246.5Q745 243 739 244Q722 245 707 245.5Q692 246 678 242Q658 237 639 232.5Q620 228 600 231Q593 231 584.5 232.5Q576 234 570 237Q553 243 540.5 262.5Q528 282 519 296Q522 311 524.5 321.5Q527 332 538 344Q524 335 522 327Q520 319 515 303Q511 311 503.5 324Q496 337 489 341Q485 343 479.5 342.5Q474 342 469 343Q473 341 478 340Q483 339 487 335Q490 332 492.5 328.5Q495 325 499 317Q504 309 510.5 294.5Q517 280 523 271Q527 265 536.5 251.5Q546 238 559 229Q570 223 586 220Q602 217 615 217Q629 218 645 222.5Q661 227 675 228Q689 230 704 228.5Q719 227 733 225Q735 215 736 205.5Q737 196 733 185Q732 182 731.5 179Q731 176 726 174Q721 173 713 174Q705 175 698 175Q682 175 666.5 173.5Q651 172 635 170Q617 167 596 163.5Q575 160 568 153Q573 152 578.5 152Q584 152 589 150Q594 149 598.5 144.5Q603 140 609 140Q616 140 623 145Q630 150 636 151Q642 152 647 150Q652 148 658 147Q658 141 656.5 136Q655 131 657 126Q660 121 664 116Q668 111 669 106Q670 102 670.5 97.5Q671 93 670 90Q668 86 665 83Q662 80 659 77Q656 75 653 72.5Q650 70 647 67Q646 72 646 75Q646 78 645 79Q642 73 636.5 67Q631 61 623 57Q625 62 628.5 70.5Q632 79 631 86Q630 93 629.5 96.5Q629 100 627 107Q626 102 626 95Q626 88 624 82Q621 77 618 73Q615 69 608 64Q602 58 590 53Q578 48 572 43Q566 37 563.5 32Q561 27 561 21Q561 15 565 9Q569 3 572 -3Q567 0 562.5 3Q558 6 555 11Q552 15 550 20Q548 25 547 30Q547 35 547.5 41Q548 47 548 53Q544 54 540.5 55.5Q537 57 532 60Q527 63 521 67.5Q515 72 511 78Q507 83 506 89.5Q505 96 505 102Q506 107 510 111.5Q514 116 516 121Q511 119 506.5 116.5Q502 114 497 115Q486 116 485.5 121.5Q485 127 486 135Q487 138 487 143Q487 148 487 153Q483 149 480 145Q477 141 473 138Q468 135 461.5 132.5Q455 130 452 123Q449 116 451.5 108.5Q454 101 454 91Q449 97 447 96.5Q445 96 437 105Q429 113 431.5 118.5Q434 124 437 128Q439 133 440.5 137.5Q442 142 442 147Q442 151 441.5 154.5Q441 158 438 162Q435 167 430.5 172Q426 177 420 180Q415 183 408.5 183Q402 183 396 185Q391 187 386.5 189.5Q382 192 379 196Q377 200 377 204Q377 208 379 212Q380 217 383.5 219.5Q387 222 388 227Q389 231 388.5 235.5Q388 240 383 242Q379 244 373.5 243.5Q368 243 364 246Q360 248 361 253Q362 258 360 261Q358 264 356 267Q354 270 350 272Q347 274 340.5 272.5Q334 271 331 278Q328 285 329 296Q330 307 328 314Q326 321 321.5 320.5Q317 320 314 327Q311 334 314 344.5Q317 355 313 365Q310 376 309.5 386.5Q309 397 310 408Q331 425 339.5 435Q348 445 364 469L373 444Q376 436 383.5 426Q391 416 396 409L385 431Q372 457 374.5 479Q377 501 380 520Q380 524 380.5 527.5Q381 531 381 535Q383 543 384.5 551.5Q386 560 386 568L373 569Q370 506 333 459.5Q296 413 295 412L295 412Q282 403 270 398Q258 393 250 390Q237 386 221 383.5Q205 381 196 372Q178 354 173.5 357Q169 360 162 360Q154 360 145.5 356Q137 352 131 348Q131 362 134.5 365Q138 368 145 376Q153 384 157 384.5Q161 385 165 390Q168 396 170 411Q172 426 182 434Q192 441 190.5 452Q189 463 191 479Q204 530 225 571Q246 612 263 627Q275 637 293 648Q311 659 325 664Q335 667 346.5 667Q358 667 361 668Q382 675 402 680Q422 685 438 681Q447 678 453.5 677.5Q460 677 477 681Q483 682 491 686.5Q499 691 506 694Q513 696 518.5 696.5Q524 697 529 698Q532 685 535 678.5Q538 672 549 664Q560 656 569.5 654.5Q579 653 590 648Q595 646 599 642.5Q603 639 603 636Q603 629 598.5 627Q594 625 586 624Q592 619 600.5 618Q609 617 616 622Q622 625 623.5 634.5Q625 644 621 647Q618 649 615 651Q612 653 610 655Q605 661 608 665.5Q611 670 615 673Q618 676 622 679Q626 682 630 685Q640 686 653 686.5Q666 687 674 685Q675 682 676 678.5Q677 675 677 672Q679 664 680 657Q681 650 686 645Q692 638 697 634.5Q702 631 707 620Q709 616 709 604.5Q709 593 709 590Q707 585 704 581Q701 577 698 573Q694 573 689.5 573Q685 573 681 573Q673 573 665.5 570.5Q658 568 650 564Q650 568 650 573Q650 578 651 581Q652 584 654.5 584.5Q657 585 658 588Q660 591 661 594.5Q662 598 663 602Q666 602 669 603Q672 604 674 604Q680 604 683 602Q686 600 691 596Q689 601 685.5 604Q682 607 679 608Q676 608 671.5 608Q667 608 663 608Q665 613 666.5 616Q668 619 671 622Q673 624 675.5 625Q678 626 679 631Q680 634 678 637Q676 640 673 641Q670 642 666.5 642Q663 642 660 640Q652 637 647.5 630Q643 623 641 615Q638 605 637.5 594.5Q637 584 638 574Q639 568 640 562.5Q641 557 642 552Q656 535 669 517Q682 499 693 480Q699 468 704 455.5Q709 443 716 434Q722 425 729 419Q736 413 742 410ZM664 538Q662 542 659.5 545.5Q657 549 655 553Q659 556 661.5 556.5Q664 557 670 557Q666 552 665 548.5Q664 545 664 538ZM686 506Q689 506 692.5 507Q696 508 698 509Q701 510 702.5 511.5Q704 513 705 514Q708 505 710.5 496.5Q713 488 715 481Q717 475 718.5 470.5Q720 466 721 462Q722 457 722 452Q722 447 722 443Q718 451 713.5 459.5Q709 468 705 475Q700 483 695 490.5Q690 498 686 506ZM891 455Q890 447 882.5 443.5Q875 440 868 439Q862 438 849 438.5Q836 439 828 440Q820 441 813 446Q806 451 797 452Q789 454 783 456Q777 458 769 462Q761 466 754 471.5Q747 477 741 481Q735 485 730 487Q725 489 720 492Q718 499 715.5 505.5Q713 512 711 519Q714 521 716.5 524Q719 527 722 529Q718 529 714.5 528.5Q711 528 707 527Q704 526 701 523.5Q698 521 695 520Q692 518 688 518Q684 518 679 517Q678 519 676.5 521.5Q675 524 673 526Q676 526 679.5 525.5Q683 525 686 525Q692 526 696 529.5Q700 533 701 539Q701 542 701 545.5Q701 549 699 552Q702 552 703.5 551.5Q705 551 707 550Q709 549 710.5 546.5Q712 544 713 542Q715 541 717 541Q719 541 720 540Q721 543 720.5 548Q720 553 719 557Q717 561 714.5 563.5Q712 566 709 567Q707 569 706 569.5Q705 570 703 571Q707 574 710 577.5Q713 581 715 586Q717 591 716.5 604.5Q716 618 714 624Q711 632 704.5 638Q698 644 693 649Q690 653 688.5 658Q687 663 688 667Q689 672 693 674Q697 676 701 677Q709 675 718.5 673.5Q728 672 736 668Q753 661 763 650.5Q773 640 784 625Q789 618 794.5 611Q800 604 804 595Q808 586 810 575.5Q812 565 817 555Q822 546 829.5 535.5Q837 525 842 517Q847 510 851.5 506.5Q856 503 859 497Q862 491 862 483Q862 475 865 470Q869 459 877 456.5Q885 454 891 455ZM1008 645Q1002 622 984 592Q966 562 949 545Q929 526 910.5 518Q892 510 867 507Q859 519 865 523.5Q871 528 871 528Q871 528 881.5 531.5Q892 535 902 540Q913 544 925 553Q937 562 948 575Q958 587 966 604Q974 621 978 634Q986 667 986.5 695Q987 723 983 747Q980 772 976.5 784Q973 796 973 796L954 841Q954 841 944.5 855Q935 869 915 880Q877 901 857.5 907Q838 913 838 913Q838 913 824 915.5Q810 918 784 916Q753 913 718 896Q683 879 675 875Q670 877 667 881Q664 885 662 890Q666 888 671 888Q676 888 681 890Q698 896 713 907.5Q728 919 745 925Q754 928 765.5 931Q777 934 794 934Q823 934 854 929Q885 924 911 908Q928 898 942.5 883.5Q957 869 970 854Q985 834 993.5 818.5Q1002 803 1009 777Q1015 751 1015 711Q1015 671 1008 645ZM664 406Q658 410 653 413.5Q648 417 641 420Q634 424 628.5 429Q623 434 615 437Q606 442 592.5 443Q579 444 572 443Q565 442 558 439Q551 436 546 434Q537 428 532.5 419.5Q528 411 528 401Q528 395 529.5 389.5Q531 384 533 379Q536 374 540 369.5Q544 365 548 361Q547 364 545.5 367Q544 370 544 373Q544 376 544 378Q544 380 544 383Q545 381 547 380Q549 379 551 379Q552 381 553 383Q554 385 554 387Q555 392 555 396.5Q555 401 561 404Q566 407 570 407.5Q574 408 579 406Q582 405 584 403Q586 401 588 400Q586 406 582 410Q578 414 571 415Q565 416 559.5 415.5Q554 415 549 410Q547 408 545 405Q543 402 541 399Q539 407 541.5 412.5Q544 418 550 424Q557 429 567 431Q577 433 585 433Q591 434 599.5 432.5Q608 431 613 428Q617 426 623.5 421Q630 416 635 413Q639 410 644.5 407.5Q650 405 654 403Q661 399 665.5 395.5Q670 392 676 387Q679 384 684.5 380.5Q690 377 694 376Q698 375 702 375.5Q706 376 709 377Q705 379 701 379Q697 379 693 381Q687 386 680.5 392.5Q674 399 664 406ZM625 377Q622 380 619 381.5Q616 383 613 385Q610 387 605.5 388Q601 389 597 389Q591 389 583.5 388Q576 387 573 381Q571 376 572.5 370.5Q574 365 578 362Q582 358 587 357Q592 356 598 358Q601 360 601.5 363Q602 366 602 367Q602 369 601 370.5Q600 372 600 373Q601 373 603.5 373Q606 373 609 372Q618 368 625.5 360Q633 352 637 343Q640 337 642 330.5Q644 324 646 318Q645 324 644.5 331.5Q644 339 643 345Q641 354 636 362Q631 370 625 377ZM443 367Q439 363 440 358.5Q441 354 441 349Q442 350 444.5 351Q447 352 448 353Q449 355 449 357Q449 359 450 361L472 367Q464 367 455.5 368.5Q447 370 443 367ZM543 498Q545 502 545.5 507Q546 512 546 517Q546 519 546 521Q546 523 547 525L548 543L543 526Q542 524 541.5 522Q541 520 541 518Q540 514 538.5 510.5Q537 507 536 504Q534 502 531.5 500Q529 498 526 497Q525 496 523.5 495Q522 494 521 493L513 487L523 490Q524 490 525.5 490.5Q527 491 528 491Q532 492 536 493Q540 494 543 498Z" fill="#ac4142" />
  </g>
</svg>