<?xml version="1.0" encoding="UTF-8"?>
<svg width="16" height="16" viewBox="0 0 16 16" xmlns="http://www.w3.org/2000/svg">
  <g transform="translate(0.020000000000000462, 14.9825) scale(0.015585937499999999, -0.015585937499999999)">
    <path d="M1024 960L0 960L0 -64L1024 -64ZM26 453L199 453L199 329L159 283L26 439L26 453ZM998 186L947 186L947 453L998 453ZM704 322L704 403L782 311Q786 307 792 306.5Q798 306 802 311L923 453L929 453L929 186L850 186L729 328Q725 333 717.5 333Q710 333 704 322ZM339 453L442 453L442 344L382 279L286 391L339 453ZM269 411L233 453L304 453ZM704 453L888 453L792 340L704 443L704 453ZM612 528L560 471L460 471L460 574L514 511Q518 506 524.5 506Q531 506 535 511L685 717L685 471L680 471L632 528Q628 532 622 532.5Q616 533 612 528ZM645 471L595 471L621 499L645 471ZM543 453L460 364L460 453ZM442 471L355 471L442 574L442 471ZM442 305L442 208L399 259ZM426 186L333 186L381 239ZM460 187L460 325L578 453L661 453L685 424L685 301L588 186L460 187ZM572 168L524 112L476 168L572 168ZM685 260L685 186L622 186ZM704 282L719 299L815 186L704 186L704 282ZM904 471L704 471L704 738L929 738L929 500L904 471ZM681 757L460 757L460 934L685 934L685 762L681 757ZM442 757L217 757L217 934L442 934ZM217 471L217 738L442 738L442 614L320 471L217 471ZM217 431L251 391L217 351ZM269 371L364 259L297 186L217 186L217 310L269 371ZM280 168L217 100L217 168ZM316 168L442 168L442 -38L217 -38L217 61L316 168ZM534 83L607 168L685 168L685 -38L460 -38L460 146L514 83Q518 79 524 78.5Q530 78 534 83ZM704 168L831 168L929 54L929 -38L704 -38L704 168ZM866 168L929 168L929 94ZM947 168L998 168L998 13L947 73L947 168ZM998 471L947 471L947 481L998 541L998 471ZM947 522L947 738L998 738L998 581ZM998 757L947 757L947 934L998 934ZM929 934L929 757L714 757L844 934L929 934ZM704 787L704 934L811 934ZM199 934L199 757L26 757L26 934ZM26 738L199 738L199 493L26 695L26 738ZM183 471L26 471L26 655L183 471ZM169 254L199 289L199 186L26 186L26 398L149 254Q153 249 159.5 249.5Q166 250 169 254ZM26 -38L26 168L199 168L199 80L90 -38L26 -38ZM199 41L199 -38L126 -38ZM998 -38L947 -38L947 32L998 -27ZM523 540L460 614L460 738L668 738L523 540Z" fill="#ac4142" />
  </g>
</svg>