<?xml version="1.0" encoding="UTF-8"?>
<svg width="16" height="16" viewBox="0 0 16 16" xmlns="http://www.w3.org/2000/svg">
  <g transform="translate(-1.0275246710526336, 15.900396261776194) scale(0.017636718750000002, -0.017636718750000002)">
    <path d="M75 524L89 542L274 542L262 524L75 524ZM242 478L248 497L15 496L0 478ZM236 432L237 451L131 451L121 432L236 432ZM914 287Q876 266 833 260Q789 254 750 265Q711 276 680 303Q649 331 635 377Q618 344 592 318.5Q566 293 533 277Q495 259 453 258Q410 257 373 272.5Q336 288 309 321Q282 354 275 403Q271 451 285 489Q299 527 322.5 555.5Q346 584 375 602Q403 620 425 627Q497 650 561 625Q625 600 649 535L546 508Q538 530 501 541Q464 552 429 527Q375 494 377.5 430Q380 366 446 354Q480 349 503.5 364Q527 379 544 405L432 405L468 482L636 482Q663 559 723 597Q783 634 845.5 634.5Q908 635 960 599Q1011 563 1022 494Q1029 445 1007.5 385.5Q986 326 914 287ZM821 541Q763 529 745 487Q727 445 736 412Q745 377 779.5 359.5Q814 342 861 364Q898 381 913 415Q928 448 921.5 479Q915 510 889 530Q864 550 821 541Z" fill="#6a9fb5" />
  </g>
</svg>