<?xml version="1.0" encoding="UTF-8"?>
<svg width="16" height="16" viewBox="0 0 16 16" xmlns="http://www.w3.org/2000/svg">
  <g transform="translate(0.5099999999999998, 14.55375) scale(0.01462890625, -0.01462890625)">
    <path d="M957 264L1006 281Q1008 272 1009 263.5Q1010 255 1010 246Q1010 187 971 135Q932 84 864.5 46.5Q797 9 706 -13Q615 -34 512 -35L512 -35Q409 -34 318 -13Q227 9 159.5 46.5Q92 84 53 135Q14 187 14 246Q14 255 15.5 265Q17 275 19 284L78 264L78 204Q78 199 80.5 195.5Q83 192 87 191L182 160Q186 159 189 159.5Q192 160 195 162Q197 164 198.5 167Q200 170 200 173L200 239L290 222L290 155Q290 150 293 146Q296 142 301 141L430 123Q431 123 431.5 123Q432 123 432 123Q435 123 437 124Q439 125 441 127Q443 129 444.5 131.5Q446 134 446 137L446 208L512 208L589 208L589 137Q589 134 590 131.5Q591 129 593 127Q595 125 597.5 124Q600 123 602 123Q603 123 603.5 123Q604 123 604 123L733 141Q738 142 741.5 146Q745 150 745 155L745 222L834 239L834 173Q834 170 835.5 167Q837 164 840 162Q843 160 846 159.5Q849 159 852 160L947 191Q952 192 954.5 195.5Q957 199 957 204L957 264ZM63 544L63 298L96 287Q100 286 102.5 282Q105 278 105 274L105 214L173 192L173 255Q173 258 174.5 261Q176 264 178 266Q180 268 183 268.5Q186 269 189 269L306 247Q311 246 314 242Q317 238 317 233L317 167L418 153L418 222Q418 225 419.5 227.5Q421 230 422 232Q424 234 426.5 235Q429 236 432 236L432 236L517 235L602 236Q605 236 607.5 235Q610 234 612 232Q614 230 615 227.5Q616 225 616 222L616 153L718 167L718 233Q718 238 721 242Q724 246 729 247L845 269Q848 269 851 268.5Q854 268 857 266Q859 264 860.5 261Q862 258 862 255L862 192L929 214L929 274Q929 278 932 282Q935 286 939 287L961 295L961 544L962 544Q979 565 994 587.5Q1009 610 1024 633Q1005 667 981.5 696.5Q958 726 932 754Q909 742 886 728.5Q863 715 841 701Q830 711 818 720.5Q806 730 794 739Q783 749 770 756.5Q757 764 744 772Q748 800 750 827.5Q752 855 753 884Q720 900 685.5 911.5Q651 923 616 931Q602 907 589.5 882Q577 857 565 832Q552 834 539 835Q526 836 512 836L512 836Q512 836 512 836Q512 836 512 836Q512 836 512 836Q512 836 512 836L512 836Q498 836 485 835Q472 834 459 832Q447 857 434.5 882Q422 907 408 931Q373 923 338.5 911.5Q304 900 271 884Q272 855 274 827.5Q276 800 280 772Q267 764 254 756.5Q241 749 230 739Q218 730 206 720.5Q194 711 183 701Q161 715 138 728.5Q115 742 92 754Q66 726 42.5 696.5Q19 667 0 633Q15 610 30 587.5Q45 565 62 544L63 544ZM383 426Q383 385 353.5 355.5Q324 326 282 326Q241 326 211.5 355.5Q182 385 182 426Q182 468 211.5 497Q241 526 282 526Q324 526 353.5 497Q383 468 383 426ZM358 420Q358 448 339 467.5Q320 487 292 487Q264 487 244.5 467.5Q225 448 225 420Q225 393 244.5 373.5Q264 354 292 354Q320 354 339 373.5Q358 393 358 420ZM518 317Q505 317 495.5 325.5Q486 334 486 346L486 438Q486 450 495.5 459Q505 468 518 468Q531 468 540.5 459Q550 450 550 438L550 346Q550 334 540.5 325.5Q531 317 518 317ZM678 420Q678 448 697.5 467.5Q717 487 744 487Q772 487 791.5 467.5Q811 448 811 420Q811 393 791.5 373.5Q772 354 744 354Q717 354 697.5 373.5Q678 393 678 420ZM654 426Q654 468 683 497Q712 526 754 526Q795 526 824.5 497Q854 468 854 426Q854 385 824.5 355.5Q795 326 754 326Q712 326 683 355.5Q654 385 654 426Z" fill="#75b5aa" />
  </g>
</svg>