<?xml version="1.0" encoding="UTF-8"?>
<svg width="16" height="16" viewBox="0 0 16 16" xmlns="http://www.w3.org/2000/svg">
  <g transform="translate(0.5129257812499999, 14.55298005756579) scale(0.01462890625, -0.01462890625)">
    <path d="M1020 516Q1016 556 1005 595Q994 635 977 671.5Q960 708 938 742Q917 775 890 805Q881 814 869.5 819.5Q858 825 846 825Q833 825 821 820.5Q809 816 800 807L494 504Q476 486 476 460.5Q476 435 494 416Q512 398 537.5 398Q563 398 582 416L838 670Q861 632 876.5 589Q892 546 897 501Q907 421 885 347Q863 274 817 215.5Q771 157 704 118Q638 79 558 70Q478 60 404 82Q331 104 272 150Q213 196 175 263Q136 330 127 409Q118 480 135 548.5Q152 617 193 676Q233 733 290.5 773.5Q348 814 416 831Q440 837 453.5 859Q467 881 460 906Q454 931 432 944Q410 957 385 951Q340 940 299 921Q257 901 219.5 875Q182 849 150 817Q117 784 91 746Q64 708 45 665Q26 623 15 578.5Q4 534 1 487Q-2 441 4 395Q10 344 25 296Q41 248 65.5 204.5Q90 161 122 123Q155 85 195 53Q229 26 267 5Q305 -15 344.5 -29Q384 -43 426 -50Q468 -57 511 -57Q526 -57 541.5 -56Q557 -55 572 -53Q623 -47 671 -32Q719 -16 762.5 8.5Q806 33 844 65Q883 98 914 138Q946 179 969 224Q992 268 1005.5 316Q1019 364 1022 414Q1026 465 1020 516Z" fill="#d28445" />
  </g>
</svg>