<?xml version="1.0" encoding="UTF-8"?>
<svg width="16" height="16" viewBox="0 0 16 16" xmlns="http://www.w3.org/2000/svg">
  <g transform="translate(1.115514470880682, 15.9111181640625) scale(0.017636718750000002, -0.017636718750000002)">
    <path d="M577 566Q557 561 541 549.5Q525 538 512 523Q510 540 504.5 553.5Q499 567 489 576Q525 588 544 586.5Q563 585 577 566ZM221 921Q176 926 134 911.5Q92 897 60 866Q26 874 6.5 836.5Q-13 799 17 775Q14 718 42 652.5Q70 587 134 491Q155 459 185.5 417Q216 375 248 345Q271 330 292 320.5Q313 311 341 318Q341 286 351 265Q361 244 379 251Q395 257 386 279Q377 301 372 327Q460 404 477 456Q494 508 493 543Q483 574 463 586.5Q443 599 403 685Q403 685 431 716Q459 747 437 767Q417 786 398.5 764Q380 742 380 742L365 784Q385 814 369.5 845Q354 876 321 879L316 884Q340 939 288.5 957Q237 975 221 921ZM217 201L289 306Q236 326 191 304.5Q146 283 110 215Q107 206 113.5 201Q120 196 128 200Q148 209 171.5 210Q195 211 217 201ZM357 46Q364 24 360.5 0Q357 -24 344 -45Q339 -56 346 -61.5Q353 -67 363 -62Q439 -32 460 14Q481 60 470 104L357 46ZM501 492Q495 460 470 418.5Q445 377 385 323Q395 289 399.5 269.5Q404 250 384 241Q363 232 347.5 250Q332 268 330 304Q322 303 315.5 303.5Q309 304 303 305Q278 268 256.5 238Q235 208 218 178Q170 160 154 122.5Q138 85 143 -5Q219 -25 262 -12Q305 1 338 50Q450 103 538 158Q627 212 685 273Q743 334 767 405Q792 475 775 559Q748 567 709 570Q670 574 630 568.5Q590 563 555 545Q520 527 501 492ZM341 224Q370 249 399 222Q428 195 392 166Q372 149 349.5 131Q327 113 302 94Q308 87 313.5 79Q319 71 325 63Q293 10 254.5 3.5Q216 -3 159 10Q153 94 173 120.5Q193 147 234 164L257 142Q278 164 298.5 184.5Q319 205 341 224ZM609 383Q579 400 579 434.5Q579 469 609 486Q638 503 668 486Q698 469 698 435Q698 400 668 383Q638 366 609 383ZM152 695Q124 712 123 748Q122 784 150 800Q178 817 207 798Q236 779 236 746Q236 712 208 695Q180 678 152 695ZM294 776Q269 791 269 821Q269 851 294 866Q314 878 341.5 864.5Q369 851 369 821Q369 791 344 776Q319 761 294 776ZM283 721Q286 717 289.5 711.5Q293 706 295 700Q298 686 288.5 684.5Q279 683 268 705Q272 709 275.5 712.5Q279 716 283 721ZM307 730Q321 712 315.5 701.5Q310 691 298 702Q295 708 292 713.5Q289 719 286 723Q292 726 297.5 727Q303 728 307 730ZM266 707Q250 702 249.5 711Q249 720 259 733Q265 728 277 734Q289 740 287 750Q305 757 312.5 746.5Q320 736 305 732Q285 728 281 723Q277 718 266 707ZM182 736Q182 743 175.5 747Q169 751 162 747Q156 743 156 735.5Q156 728 162 724Q169 720 175.5 724Q182 728 182 736ZM328 814Q328 822 321.5 825.5Q315 829 308 826Q302 822 302 814Q302 806 308 803Q315 799 321.5 802.5Q328 806 328 814ZM350 213Q313 179 278.5 143Q244 107 212 69Q208 63 212.5 57Q217 51 225 58Q272 89 311.5 119Q351 149 382 178Q407 194 388.5 211.5Q370 229 350 213Z" fill="#6a9fb5" />
  </g>
</svg>