<?xml version="1.0" encoding="UTF-8"?>
<svg width="16" height="16" viewBox="0 0 16 16" xmlns="http://www.w3.org/2000/svg">
  <g transform="translate(0.5173144531249996, 14.55053877667683) scale(0.01462890625, -0.01462890625)">
    <path d="M161 389Q161 445 159.5 522Q158 599 158 626Q158 653 179 700Q200 747 266 750Q333 754 410.5 754Q488 754 510 754Q528 754 530 736.5Q532 719 532 719L532 664Q532 664 527.5 656.5Q523 649 504 649L316 649Q316 649 301 643Q286 637 286 609Q286 595 286 563Q286 531 286 498.5Q286 466 286 441Q286 417 286 417Q286 417 289.5 398.5Q293 380 329 380Q365 380 386 380Q407 380 407 380Q407 380 426 384.5Q445 389 445 415Q445 440 438.5 455.5Q432 471 414 471Q395 471 378.5 470Q362 469 362 489Q362 509 362 524Q362 539 362 539Q362 539 363.5 548.5Q365 558 381 558Q396 558 473.5 558Q551 558 551 558Q551 558 561.5 555Q572 552 572 524Q572 506 572.5 442Q573 378 572 331Q572 304 565 298.5Q558 293 545 293Q526 293 492 291Q458 289 420 287Q382 285 345 283Q309 281 286 281Q240 280 200.5 306.5Q161 333 161 389ZM806 249Q765 252 718 252Q671 252 655 256Q628 262 624.5 250.5Q621 239 621 239Q621 239 621 212Q621 185 621 173Q621 162 629 157.5Q637 153 637 153Q637 153 707 150.5Q777 148 891 142Q1006 136 1014.5 212Q1023 288 1023 288Q1023 327 1005.5 382Q988 437 896 437Q824 437 798 437Q772 437 772 437Q741 437 742.5 475.5Q744 514 771 514Q784 514 815 514Q847 514 879 513.5Q911 513 936 513Q961 513 961 513Q980 515 984 526.5Q988 538 988 538L988 592Q988 592 987 605Q986 618 963 618Q952 618 916 618Q881 618 843 618Q805 618 775 618Q745 618 745 618Q745 618 679.5 604.5Q614 591 614 472Q614 362 673.5 346.5Q733 331 733 331Q733 331 789.5 328.5Q846 326 866 326Q886 326 895.5 291.5Q905 257 869 245Q869 245 849 244Q829 243 806 249ZM83 319L83 360Q83 368 77 374Q71 380 63 380L20 380Q12 380 6 374Q0 368 0 360L0 319Q0 311 6 305Q12 299 20 299L63 299Q71 299 77 305Q83 311 83 319Z" fill="#46788d" />
  </g>
</svg>