<?xml version="1.0" encoding="UTF-8"?>
<svg width="16" height="16" viewBox="0 0 16 16" xmlns="http://www.w3.org/2000/svg">
  <g transform="translate(1.0687695312499992, 15.901714124177634) scale(0.017636718750000002, -0.017636718750000002)">
    <path d="M417 598L417 673Q442 662 465 662Q488 662 512 673L512 598Q512 576 464.5 576Q417 576 417 598ZM401 598L401 686L364 772L143 649L143 293L0 221L0 114L321 -64L786 186L786 649L564 771L528 686L528 598Q528 560 464.5 560Q401 560 401 598ZM412 701L335 873Q310 907 345 933Q380 959 456 960Q505 961 562.5 943Q620 925 598 882L517 701Q504 679 464 677Q424 675 412 701ZM461 948Q415 948 376 934Q337 920 334 900Q340 876 379 864Q418 852 463 851.5Q508 851 547 863Q585 875 590 900Q591 922 549.5 935Q508 948 461 948ZM496 241L495 329Q460 327 475.5 368Q491 409 522 395L584 462Q571 500 607.5 516Q644 532 643 489L704 478Q731 518 751 491.5Q771 465 734 436L736 359Q771 362 755 321.5Q739 281 712 292L649 217Q656 198 645 181.5Q634 165 620 161Q609 156 599.5 163Q590 170 594 192L526 202Q499 158 478.5 185Q458 212 496 241ZM710 340L624 457Q620 454 616.5 452.5Q613 451 609 450L523 244Q526 242 527.5 239.5Q529 237 530 234L701 319Q702 324 704.5 329.5Q707 335 710 340ZM698 464L639 476Q638 473 636.5 471Q635 469 634 467L720 350Q720 351 721 351.5Q722 352 722 352L720 431Q706 429 700 439.5Q694 450 698 464ZM509 335L509 247L594 452L530 383Q533 370 526.5 356Q520 342 509 335ZM638 227L702 303L532 219L531 215L598 206Q606 219 617.5 225Q629 231 638 227ZM386 123L386 107L288 55L52 186L52 202L150 253ZM183 321L183 576L422 442L422 187Z" fill="#cc00a3" />
  </g>
</svg>