<?xml version="1.0" encoding="UTF-8"?>
<svg width="16" height="16" viewBox="0 0 16 16" xmlns="http://www.w3.org/2000/svg">
  <g transform="translate(0.5093033854166671, 14.558589252447398) scale(0.01462890625, -0.01462890625)">
    <path d="M898 326L898 570Q904 571 910 573.5Q916 576 922 579Q955 598 964.5 634.5Q974 671 955 704Q936 737 899.5 746.5Q863 756 831 737Q825 734 820 730Q815 726 810 721L599 843Q609 876 594.5 907.5Q580 939 548 953Q513 968 478 953.5Q443 939 428 904Q422 889 421 873Q420 857 424 843L214 721Q193 744 161.5 749Q130 754 102 738Q70 719 60 682.5Q50 646 68 613Q78 596 93.5 585Q109 574 126 570L126 326Q95 319 75 292.5Q55 266 57 232Q59 194 87.5 169Q116 144 154 146Q172 148 187 155.5Q202 163 214 175L424 53Q415 22 428 -8.5Q441 -39 471 -54Q505 -71 541 -59Q577 -47 594 -13Q602 3 603 21Q604 39 599 56L808 177Q821 163 838.5 154.5Q856 146 877 146Q915 147 941.5 174Q968 201 967 238Q967 270 947.5 294.5Q928 319 898 326ZM237 259Q233 272 226.5 283.5Q220 295 211 304L487 781Q499 777 512 777.5Q525 778 537 781L813 304Q804 295 797.5 283.5Q791 272 787 259L237 259ZM797 613Q807 596 822 585Q837 574 854 570L854 326Q853 326 852.5 326Q852 326 851 325L575 803Q576 803 576.5 804Q577 805 578 805L789 683Q784 666 786 647.5Q788 629 797 613ZM449 803L173 325Q172 326 171.5 326Q171 326 170 326L170 570Q176 571 181.5 573.5Q187 576 193 579Q221 595 232.5 624.5Q244 654 235 683L446 805Q447 805 447.5 804Q448 803 449 803ZM579 89Q574 95 567.5 100Q561 105 553 109Q525 123 495.5 117.5Q466 112 446 91L236 212Q236 213 236 214Q236 215 237 216L787 216Q788 214 788.5 212.5Q789 211 789 210Z" fill="#aa759f" />
  </g>
</svg>