<?xml version="1.0" encoding="UTF-8"?>
<svg width="16" height="16" viewBox="0 0 16 16" xmlns="http://www.w3.org/2000/svg">
  <g transform="translate(-0.46999999999999886, 15.411249999999999) scale(0.016542968749999998, -0.016542968749999998)">
    <path d="M747 453L625 903L0 738L196 -7L826 162L768 375L675 417Q658 400 634.5 389.5Q611 379 585 379Q534 379 498.5 414Q463 449 463 498Q463 548 498.5 583Q534 618 585 618Q635 618 671 583Q707 548 707 498Q707 491 706 484Q705 477 703 470L747 453ZM486 674Q486 674 478 669.5Q470 665 468 661Q468 661 468 660.5Q468 660 468 660Q468 660 468.5 659.5Q469 659 469 659Q477 652 488 642Q499 632 512 618Q506 614 500 610Q494 606 489 601Q477 613 467 622Q457 631 450 637Q450 637 449.5 637.5Q449 638 449 638Q447 633 444.5 625.5Q442 618 442 618Q442 618 434 645.5Q426 673 421 682Q428 680 452 676Q476 672 486 674ZM337 63Q294 52 258.5 64.5Q223 77 216 106Q209 132 230.5 158.5Q252 185 290 198Q278 236 268 283Q259 329 256 381.5Q253 434 258 492Q264 549 282 610Q282 610 281.5 610Q281 610 280 610Q276 613 267 612.5Q258 612 258 612Q267 616 285.5 632Q304 648 308 653Q309 643 317 615.5Q325 588 325 588Q325 588 319.5 592.5Q314 597 309 600Q292 542 287 487Q282 432 285 381.5Q288 331 297 286Q306 241 318 205Q356 210 387 197.5Q418 185 422 159Q428 127 404 100.5Q380 74 337 63ZM685 158Q643 147 607.5 159.5Q572 172 564 200Q559 222 572 243.5Q585 265 611 280Q601 283 577.5 288.5Q554 294 545 295L565 303L466 396Q460 393 453 390.5Q446 388 438 386Q433 385 427.5 384Q422 383 417 382L377 255L399 255Q387 254 368.5 230Q350 206 350 206Q350 206 343.5 236Q337 266 333 276L349 261L386 382Q360 384 341 396.5Q322 409 317 428Q310 457 334.5 485Q359 513 402 524Q403 524 403 524Q403 524 404 524Q396 533 380 549Q364 565 357 571L378 567L353 657Q314 651 283.5 663.5Q253 676 246 702Q238 731 263 759Q288 787 331 798Q374 809 409.5 797Q445 785 452 756Q459 730 438.5 704Q418 678 381 665L406 576L424 587Q416 582 412.5 559Q409 536 408 525Q415 527 422 528Q429 529 435 529Q434 522 433.5 515.5Q433 509 433 502Q433 447 468 405.5Q503 364 555 352L583 326L592 345Q589 335 599 312Q609 289 613 282Q622 286 631 290Q640 294 650 296Q650 296 650 296Q650 296 650 296Q646 315 641 332.5Q636 350 631 366Q638 369 644.5 372Q651 375 657 378Q663 360 668.5 341Q674 322 679 301Q713 303 739.5 290.5Q766 278 771 254Q776 222 752 195.5Q728 169 685 158ZM803 422L799 413L715 452L700 421L784 381L780 371L1001 273L1024 323L803 422Z" fill="#4d9085" />
  </g>
</svg>