<?xml version="1.0" encoding="UTF-8"?>
<svg width="16" height="16" viewBox="0 0 16 16" xmlns="http://www.w3.org/2000/svg">
  <g transform="translate(0.020000000000000462, 12.9875) scale(0.015585937499999999, -0.015585937499999999)">
    <path d="M704 576L512 576L512 -64L704 -64ZM960 384L768 384L768 -64L960 -64ZM64 -128L64 0L128 0L128 64L64 64L64 192L128 192L128 256L64 256L64 384L128 384L128 448L64 448L64 576L128 576L128 640L64 640L64 768L128 768L128 832L0 832L0 -192L1024 -192L1024 -128ZM448 256L256 256L256 -64L448 -64Z" fill="#c97071" />
  </g>
</svg>