<?xml version="1.0" encoding="UTF-8"?>
<svg width="16" height="16" viewBox="0 0 16 16" xmlns="http://www.w3.org/2000/svg">
  <g transform="translate(0.027653808593750634, 14.982899639423076) scale(0.015585937499999999, -0.015585937499999999)">
    <path d="M993 774Q966 824 923.5 842.5Q881 861 846 861Q804 862 775 843.5Q746 825 753 810Q754 806 760.5 792.5Q767 779 772 772Q779 762 789 766Q799 770 804 772Q835 788 870.5 780.5Q906 773 927 731Q943 700 928 658Q914 616 878 587Q842 558 788 554Q735 550 673 595Q612 640 552 657Q493 675 440.5 676.5Q388 678 346 669Q304 660 276 651Q222 633 200 611Q178 589 199 547Q229 490 232 484.5Q235 479 263 432Q285 394 318 397Q351 399 381 417Q411 435 432 457Q454 478 454 478Q381 368 322.5 373.5Q264 379 240 418Q218 452 203.5 484.5Q189 517 189 517Q96 484 56 405Q16 326 5.5 244Q-5 162 2 100Q8 38 8 38L131 37Q154 146 216.5 143.5Q279 141 293 37L387 36Q418 142 468 155Q517 168 564.5 141.5Q612 115 646 75Q680 35 680 35L802 35Q789 107 800 157Q810 208 832 248Q854 288 883 323Q911 359 936 401Q960 444 982 490Q1004 537 1015 585Q1026 633 1023 681Q1019 729 993 774ZM613 396Q568 411 571 444Q574 477 574 477L614 464Q612 461 611 456.5Q610 452 610 447Q611 435 620.5 428Q630 421 641 422Q651 423 658.5 430Q666 437 667 447L698 436Q695 422 671 403.5Q647 385 613 396Z" fill="#6a9fb5" />
  </g>
</svg>