<?xml version="1.0" encoding="UTF-8"?>
<svg width="16" height="16" viewBox="0 0 16 16" xmlns="http://www.w3.org/2000/svg">
  <g transform="translate(-0.05642578124999886, 15.411249999999999) scale(0.016542968749999998, -0.016542968749999998)">
    <path d="M775 855L872 824L872 702L775 738ZM775 727L872 691L872 579L775 618ZM775 607L872 568L872 458L775 499L775 607ZM775 488L872 447L872 328L775 377L775 488ZM867 319Q859 316 823 326.5Q787 337 756 357L771 367ZM747 364Q737 371 728.5 379.5Q720 388 712 396L760 372L747 364ZM667 890L764 859L764 742L667 778L667 890ZM667 767L764 731L764 622L667 661L667 767ZM667 650L764 611L764 504L667 545ZM667 534L764 492L764 382L698 415Q688 429 680.5 443.5Q673 458 667 473L667 534ZM561 925L657 894L657 782L561 817ZM561 806L657 771L657 665L612 683Q603 714 591 742.5Q579 771 561 794L561 806ZM642 556Q635 585 629 614Q623 643 615 671L657 654L657 549L642 556ZM657 538L657 502Q654 512 651 522.5Q648 533 645 543ZM421 927L481 948L481 851Q468 856 453 859Q438 862 421 864ZM522 102L490 82L396 142L415 153Q435 136 462 122.5Q489 109 522 102ZM347 246Q358 222 372.5 200.5Q387 179 406 161L386 148L286 212L347 246ZM276 219L188 275L280 325L328 296Q332 286 335.5 275.5Q339 265 343 256ZM410 924L410 862L319 829L319 893ZM324 311L291 331L315 344Q317 336 319.5 328Q322 320 324 311ZM280 337L217 376L300 417Q303 402 306 386Q309 370 313 355L280 337ZM212 857L308 889L308 825L212 789L212 857ZM212 678Q221 668 228.5 656.5Q236 645 243 632L212 619L212 678ZM212 608L248 623Q258 602 265 578Q272 554 278 529L212 501L212 608ZM212 489L281 519Q286 497 290 474Q294 451 298 428L212 385L212 489ZM270 332L177 282L112 323L206 370L270 332ZM108 822L201 853L201 786L108 751L108 822ZM108 735Q121 733 132.5 729Q144 725 155 720L108 703L108 735ZM108 692L167 714Q177 709 185.5 702.5Q194 696 201 689L201 615L108 578L108 692ZM108 566L201 604L201 496L108 457L108 566ZM108 445L201 485L201 379L108 333L108 445ZM11 789L97 818L97 699L11 668ZM11 656L97 688L97 574L11 539ZM11 527L97 562L97 452L11 415ZM11 404L97 441L97 328L11 285ZM101 318L167 276L85 232L16 276L101 318ZM177 269L265 213L185 168L95 225L177 269ZM276 206L376 142L298 96L194 162L276 206ZM308 90L386 136L481 75L405 28L308 90ZM493 -28L415 22L490 69L568 20L493 -28ZM577 26L500 75L596 136L674 89L577 26ZM684 95L606 142L707 206L786 162ZM796 168L717 212L811 271L891 230L796 168ZM901 236L821 277L878 313L958 273L901 236ZM963 282L882 323L882 442L963 408ZM963 419L882 454L882 564L963 531ZM963 542L882 575L882 687L963 657ZM963 668L882 698L882 820L963 794ZM0 250L493 -64L974 247L974 801L488 960L0 797L0 250ZM551 821L492 843L492 948L551 928Z" fill="#66783e" />
  </g>
</svg>