<?xml version="1.0" encoding="UTF-8"?>
<svg width="16" height="16" viewBox="0 0 16 16" xmlns="http://www.w3.org/2000/svg">
  <g transform="translate(0.020000000000000462, 14.984966129351267) scale(0.015585937499999999, -0.015585937499999999)">
    <path d="M255 5Q128 79 64 199Q0 319 0 448Q0 577 64 697Q128 817 255 891Q383 965 519 960Q655 955 767.5 890.5Q880 826 952 711Q1024 595 1024 448Q1024 301 952 185Q880 70 767.5 5.5Q655 -59 519 -64Q383 -69 255 5ZM989 448Q989 585 922 693Q854 800 749.5 860Q645 920 519 925Q392 929 273 861Q154 792 94 680Q35 569 35 448Q35 327 94 216Q154 104 273 35Q392 -33 519 -29Q645 -24 749.5 36Q854 96 922 203Q989 311 989 448ZM809 715Q771 730 740 715Q708 700 692.5 671Q677 642 682 608Q687 573 722 550L539 184Q536 184 533.5 185Q531 186 528 186L528 360Q569 366 588 395Q608 423 608 455Q608 487 588 515Q567 542 528 546L528 710Q571 720 590 750Q609 781 606 813.5Q603 846 578 872Q554 898 510 899Q467 898 444 871Q420 844 417.5 811Q415 778 435 748Q454 718 496 711L496 546Q421 531 419 454Q417 377 496 361L496 186Q493 185 490.5 184.5Q488 184 485 183L301 551Q336 578 339 614Q342 650 324 678Q306 706 272 718Q238 730 199 709Q162 689 154 655Q146 621 158.5 590.5Q171 560 202 542Q232 525 272 537L456 169Q453 167 450 164Q447 161 444 158L330 234Q349 274 336 307Q322 340 293.5 356.5Q265 373 230 369Q195 366 170 333Q144 299 150 264Q157 230 182 207.5Q207 185 243 182Q279 179 311 208L426 132Q405 86 431.5 42.5Q458 -1 510 -2Q562 -3 590.5 41.5Q619 86 598 133L710 209Q765 156 830 199.5Q895 243 864 312Q843 356 806 366Q770 375 737.5 361Q705 347 688 313Q671 279 691 235L580 159Q577 162 574 164.5Q571 167 568 170L751 536Q795 525 825 546Q855 566 865.5 598Q876 630 864 664Q852 698 809 715Z" fill="#90a959" />
  </g>
</svg>