<?xml version="1.0" encoding="UTF-8"?>
<svg width="16" height="16" viewBox="0 0 16 16" xmlns="http://www.w3.org/2000/svg">
  <g transform="translate(-0.46785554108796035, 15.411249999999999) scale(0.016542968749999998, -0.016542968749999998)">
    <path d="M512 778L630 582Q614 581 598.5 572.5Q583 564 571 547Q561 557 547.5 566Q534 575 513 576Q487 580 470.5 570Q454 560 437 540Q432 557 414.5 561.5Q397 566 380 558Q380 558 401 592Q421 626 446 667.5Q471 709 492 743Q512 778 512 778ZM222 631Q220 562 181.5 514Q143 466 108 488Q82 509 103 552Q124 595 145 614Q144 599 151 588.5Q158 578 147 565Q126 539 129.5 522Q133 505 142 502Q166 494 186 544.5Q206 595 206 642Q206 672 188.5 670.5Q171 669 137 633Q90 584 68 539Q46 494 63 462Q72 444 86.5 433Q101 422 124 424Q168 430 193.5 473Q219 516 222 551Q229 551 229.5 551Q230 551 232 552Q232 546 238.5 521.5Q245 497 252 478Q260 444 268 389.5Q276 335 165 309Q144 304 131.5 300.5Q119 297 98 289Q88 310 81 321Q74 332 54 353Q82 363 89.5 365Q97 367 115 373Q185 397 210.5 420Q236 443 233 473Q233 473 232 485Q231 497 222 510Q217 493 210 481Q203 469 203 469Q182 437 145.5 420Q109 403 72 416Q52 423 43 439Q34 455 34 481Q34 498 51 527Q68 557 91.5 587.5Q115 618 141 643Q167 668 186 677Q212 685 217.5 668Q223 651 222 631ZM636 548Q648 548 660.5 542Q673 536 682 526Q711 496 710.5 462Q710 428 693 405Q672 377 631.5 387.5Q591 398 579 436Q573 454 582 489.5Q591 525 609 540Q615 544 621.5 546Q628 548 636 548ZM501 544Q503 544 505 543.5Q507 543 509 543Q533 541 541 530Q549 519 553 507Q564 477 560.5 449.5Q557 422 534 400Q500 365 468 377Q436 389 437 436Q437 468 455.5 506Q474 544 501 544ZM620 541Q602 528 600 500Q598 472 615 459Q622 453 628.5 448.5Q635 444 654 443Q667 442 683 452.5Q699 463 700 476Q701 482 698 492.5Q695 503 680 519Q668 532 655 536Q642 540 638 538Q626 530 633.5 524Q641 518 646 513Q654 506 656 502Q658 498 654 496Q647 491 640 491Q633 491 631 492Q626 494 616 505Q606 516 620 541ZM859 541Q867 529 871.5 520Q876 511 885 480Q896 440 910 424Q924 408 937 416Q972 435 957 476Q942 517 929 541Q937 541 938.5 541Q940 541 948 541Q953 518 955.5 505.5Q958 493 974 426Q992 344 989 310Q986 276 940 239Q919 223 890 219.5Q861 216 834 218L793 224Q814 238 821 253Q828 268 828 295Q889 269 923 283Q957 297 970 328Q976 343 974.5 365Q973 387 967 422Q968 393 967 382.5Q966 372 962 358Q954 329 938.5 322.5Q923 316 910 336Q905 344 896 367Q887 390 884 418Q880 445 874.5 478.5Q869 512 852 528Q854 532 855.5 535.5Q857 539 859 541ZM780 541Q792 537 805.5 530Q819 523 827 507Q838 487 844.5 470Q851 453 851 415Q850 376 838 362Q826 348 815 346Q802 345 782 357.5Q762 370 749 448Q744 474 736.5 496Q729 518 720 526Q724 531 725.5 532.5Q727 534 731 539Q735 534 739 524Q743 514 750 489Q759 451 769.5 439Q780 427 797 425Q824 421 831.5 452.5Q839 484 817 513Q812 519 802 525Q792 531 785 528Q786 517 789 516Q792 515 792 508Q791 499 789.5 495.5Q788 492 785 487Q778 490 774 493Q770 496 764 506Q756 521 760.5 532Q765 543 780 541ZM488 536Q475 527 464.5 501.5Q454 476 468 450Q475 440 484 433.5Q493 427 509 431Q520 433 536 446Q552 459 555 478Q558 495 540 518Q522 541 508 534Q493 525 498 518Q503 511 513 501Q522 493 518 487.5Q514 482 508 480Q496 474 489 478.5Q482 483 478 492Q475 502 477.5 511.5Q480 521 488 536ZM305 532Q308 523 311 513Q314 503 319 492Q320 491 325 492.5Q330 494 336 502Q340 507 345.5 514Q351 521 359 531Q364 527 365.5 523.5Q367 520 368 517Q371 511 377 510.5Q383 510 385 511Q393 519 396 523.5Q399 528 405 529Q405 519 403.5 510.5Q402 502 388 486Q381 477 371 475.5Q361 474 357 475Q351 477 346 480.5Q341 484 332 488Q320 486 320.5 475.5Q321 465 323 453Q329 424 344.5 413Q360 402 376 411Q381 414 383 415Q385 416 395 420Q394 402 393.5 393Q393 384 396 363Q370 349 351 354Q332 359 326 395Q322 426 314.5 456.5Q307 487 300 494Q293 501 290 504Q287 507 287 507L305 532ZM0 471Q0 445 13.5 423.5Q27 402 51 389Q46 386 38 382Q30 378 27 373Q13 347 26.5 335Q40 323 53 302Q68 275 78.5 261Q89 247 125 262Q137 268 150.5 270.5Q164 273 173 276Q140 224 119.5 190.5Q99 157 41 67Q272 158 334 182Q396 206 510 251Q674 187 738 161.5Q802 136 983 67Q957 107 938.5 135Q920 163 902 194Q909 195 923 197.5Q937 200 951 209Q961 215 972.5 223.5Q984 232 995 245Q1016 272 1021.5 306.5Q1027 341 1019 383Q1016 403 1011.5 417.5Q1007 432 1006 437Q1002 456 992.5 496.5Q983 537 983 537Q981 557 969 567Q957 577 927 576Q915 574 907.5 568.5Q900 563 895 547Q878 579 858 575.5Q838 572 828 556Q814 570 789 573.5Q764 577 749 567Q737 572 724.5 571Q712 570 701 556Q692 563 686 566.5Q680 570 661 578L511 829L354 565Q346 563 343 561.5Q340 560 332 552Q313 575 293 563Q273 551 267 538Q264 565 259.5 570.5Q255 576 249 582Q252 606 256 640Q260 674 234 702Q182 737 128.5 678.5Q75 620 42 576Q20 544 10 519.5Q0 495 0 471ZM727 396Q732 376 737.5 365.5Q743 355 743 355Q753 339 765.5 329Q778 319 796 314Q800 308 802 305.5Q804 303 806 299Q808 278 804.5 270Q801 262 784 250Q774 240 774 227Q774 214 784 201Q795 191 811.5 188.5Q828 186 871 197Q879 183 891 165Q903 147 920 120Q892 131 856 144Q821 158 772.5 176.5Q724 195 660 220Q597 245 512 278Q512 278 468 261Q424 244 361 219.5Q298 195 228 168Q158 140 105 120Q149 190 164 214Q179 238 211 287Q222 291 223 291.5Q224 292 233 297Q255 308 272 326Q289 344 299 370Q316 330 339 322.5Q362 315 403 328Q411 332 419.5 339Q428 346 430 361Q452 341 492 342.5Q532 344 566 385Q595 351 648.5 350.5Q702 350 727 396ZM864 341Q864 341 865.5 336.5Q867 332 868 330Q863 330 859 330Q855 330 855 330Q857 332 859 334.5Q861 337 864 341Z" fill="#9dc0ce" />
  </g>
</svg>