<?xml version="1.0" encoding="UTF-8"?>
<svg width="16" height="16" viewBox="0 0 16 16" xmlns="http://www.w3.org/2000/svg">
  <g transform="translate(2.123598722275796, 14.128255208333332) scale(0.013671875, -0.013671875)">
    <path d="M12 869Q76 928 152 919.5Q228 911 289 844Q307 833 310 833.5Q313 834 314 850Q316 874 328.5 895Q341 916 373 932Q378 920 378 905Q378 890 392 878Q399 911 422 929.5Q445 948 480 960Q473 941 473.5 922.5Q474 904 484 888Q500 897 517.5 906.5Q535 916 559 916Q541 885 538 862.5Q535 840 546 837Q554 835 559 836Q564 837 572 844Q605 884 646 902Q687 920 726.5 920.5Q766 921 799 907Q832 892 848 866Q782 853 764.5 835.5Q747 818 757 781Q758 776 760.5 775.5Q763 775 766 774Q814 770 830 741Q846 712 820 677Q802 650 802 613Q802 576 823 567Q873 531 855 491.5Q837 452 760 419Q744 412 733 400.5Q722 389 722 375Q722 340 725.5 290Q729 240 729 240Q752 256 766.5 277.5Q781 299 785 325Q818 297 829 260Q840 224 832.5 188Q825 152 801 121Q777 91 738 76Q717 71 691 29Q665 -13 587 -24Q570 -25 550 -40.5Q530 -56 468 -62Q421 -66 376.5 -59.5Q332 -53 292 -27Q245 -19 205.5 1.5Q166 22 138 67Q138 69 134 72.5Q130 76 125 76Q78 93 54 126Q30 159 25.5 196Q21 233 35 268Q48 303 75 325Q79 299 93.5 277.5Q108 256 131 237Q138 307 139 355.5Q140 404 97 422Q55 440 28.5 461Q2 482 0 507Q-2 543 26.5 558Q55 573 56 595Q56 607 56 620.5Q56 634 56 646Q56 646 44 670Q32 694 28 705Q21 743 44 758Q67 773 103 778Q111 803 104.5 826.5Q98 850 12 869Z" fill="#f4bf75" />
  </g>
</svg>