<?xml version="1.0" encoding="UTF-8"?>
<svg width="16" height="16" viewBox="0 0 16 16" xmlns="http://www.w3.org/2000/svg">
  <g transform="translate(4.50095703125, 14.9825) scale(0.015585937499999999, -0.015585937499999999)">
    <path d="M449 704Q425 687 357 678Q289 670 214.5 670.5Q140 671 77 680Q14 689 0 707Q7 719 81 721Q155 723 150 737Q142 763 137 789.5Q132 816 112 837L20 939L46 960Q46 960 72 933.5Q98 907 110 897Q141 868 162.5 834Q184 800 190 757Q191 738 200.5 733.5Q210 729 225 727Q306 721 373.5 719Q441 717 449 704ZM80 180Q65 184 58.5 193.5Q52 203 52 218L0 684Q61 668 121 661Q181 653 238.5 653.5Q296 654 349 662Q402 670 449 684L404 220Q402 202 391.5 192Q381 182 364 178Q273 163 212 162.5Q151 162 80 180ZM362 118Q358 88 356 56.5Q354 25 352 -7Q350 -18 345.5 -24Q341 -30 332 -34L242 -64L193 -64Q193 -64 161 -50.5Q129 -37 112 -29Q109 -27 105.5 -22Q102 -17 100 -12Q92 56 94 99.5Q96 143 72 168Q72 170 72 171.5Q72 173 72 173Q151 154 230 155Q309 156 389 178Q371 151 367 138Q363 125 362 118Z" fill="#ac4142" />
  </g>
</svg>