<?xml version="1.0" encoding="UTF-8"?>
<svg width="16" height="16" viewBox="0 0 16 16" xmlns="http://www.w3.org/2000/svg">
  <g transform="translate(0.5099999999999998, 14.556064700356012) scale(0.01462890625, -0.01462890625)">
    <path d="M67 257Q49 298 39.5 340.5Q30 383 28 426L330 766L482 901L67 257ZM448 925Q413 889 368 843Q323 797 270 744Q217 691 157 632Q97 573 32 510Q42 587 77 657Q111 728 164.5 784Q218 840 290 877Q362 914 448 925ZM477 -32Q481 84 500 201Q519 319 551 434Q583 549 626 662Q670 774 723 880Q794 845 849 789Q905 733 940 663.5Q975 594 987 515Q1000 437 984 356Q920 311 859 256Q798 201 746.5 147.5Q695 94 655 47Q616 1 594 -26Q565 -31 536 -33Q507 -35 477 -32ZM1024 448Q1024 595 952 711Q880 826 767.5 890.5Q655 955 519 960Q383 965 255 891Q128 817 64 697Q0 577 0 448Q0 319 64 199Q128 79 255 5Q383 -69 519 -64Q655 -59 767.5 5.5Q880 70 952 185Q1024 301 1024 448Z" fill="#f4bf75" />
  </g>
</svg>