<?xml version="1.0" encoding="UTF-8"?>
<svg width="16" height="16" viewBox="0 0 16 16" xmlns="http://www.w3.org/2000/svg">
  <g transform="translate(2.214267578124999, 14.543916441599528) scale(0.01462890625, -0.01462890625)">
    <path d="M305 -49L373 343Q373 343 389.5 329Q406 315 431 302Q458 288 480.5 280.5Q503 273 519 269Q530 267 539.5 264Q549 261 559 258Q555 248 553.5 239.5Q552 231 553 219Q553 218 553.5 216.5Q554 215 555 215Q555 215 606 197Q657 179 702 216Q711 223 719.5 235Q728 247 732 259L734 281Q754 292 765 303Q776 314 781 323Q786 332 790 350.5Q794 369 780 394Q764 424 742.5 442Q721 460 706 468Q690 480 675.5 486.5Q661 493 646 497Q636 500 628.5 503Q621 506 616 509Q595 520 593.5 539Q592 558 595 570Q599 581 603 593.5Q607 606 606 620L681 683Q683 682 685.5 680.5Q688 679 689 678Q689 678 702.5 681Q716 684 726 711L719 716Q719 716 741.5 738Q764 760 770 769Q770 769 772.5 773Q775 777 772 781Q770 783 760 792.5Q750 802 716 825Q682 847 665.5 852Q649 857 645 855Q645 855 620 840.5Q595 826 581 813L573 819Q573 819 558.5 815Q544 811 552 795L555 792L321 591L193 868L202 868Q202 868 201.5 881Q201 894 187 897Q187 897 185 897Q183 897 179 897Q174 907 165 928Q156 949 156 949Q156 952 154.5 954Q153 956 148 958Q143 959 137 960Q131 961 113 959Q85 955 66 950Q47 945 36 941Q27 938 17 932.5Q7 927 7 927Q3 925 3.5 922.5Q4 920 4 920L19 883Q19 883 10 881Q1 879 1 878Q-2 873 5 853Q12 833 24 826L40 831L197 482Q196 479 177 404Q158 330 135 241.5Q112 153 94 80Q75 7 75 7Q75 6 75.5 5Q76 4 76 4Q87 -13 155 -46.5Q223 -80 300 -55Q303 -54 304 -51.5Q305 -49 305 -49ZM564 285Q561 286 557 287.5Q553 289 549 290Q544 292 539 294Q534 296 529 298Q515 304 501 309.5Q487 315 474 322L474 322Q459 329 446.5 336.5Q434 344 424 351Q415 358 402 374Q389 390 384 395Q385 402 387 419.5Q389 437 388 451Q427 478 467.5 508Q508 538 551 572Q550 565 549.5 555Q549 545 551 533Q555 513 566.5 498Q578 483 597 474Q599 473 610 469Q621 465 645 459Q660 455 673.5 448Q687 441 688 441Q701 433 713 424Q725 415 734 406Q745 395 751.5 383.5Q758 372 758 361Q759 360 757.5 345Q756 330 739 314Q738 323 735 333Q732 343 725 347L724 348L723 348Q722 348 721.5 348Q721 348 721 348Q719 348 717 347Q715 346 714 343Q713 342 703 326Q693 310 669 308Q669 308 668 308Q667 308 667 308Q649 308 626 316Q603 324 602 324Q601 324 600 324.5Q599 325 598 325Q595 325 592.5 324Q590 323 589 321L588 321L588 320Q584 316 576.5 304Q569 292 564 285Z" fill="#8f5536" />
  </g>
</svg>