<?xml version="1.0" encoding="UTF-8"?>
<svg width="16" height="16" viewBox="0 0 16 16" xmlns="http://www.w3.org/2000/svg">
  <g transform="translate(0.020000000000000462, 14.9825) scale(0.015585937499999999, -0.015585937499999999)">
    <path d="M1024 97Q1021 89 1017.5 83.5Q1014 78 1004 72Q945 60 866 54Q787 47 685.5 49Q584 51 459 62Q334 73 184 94Q165 106 148 116Q131 126 111 135Q264 113 404 100Q543 87 661 82.5Q779 78 872 82Q964 85 1024 97L1024 97ZM462 832Q409 760 353 681Q297 601 247.5 528Q198 455 159 395Q120 336 99 304Q120 336 159 395Q198 455 247.5 528Q297 601 353 681Q409 760 462 832ZM1020 105Q1020 112 1019 114.5Q1018 117 1017 121Q942 106 806 110Q670 114 519.5 127Q369 140 228 156Q87 172 0 181Q0 173 1.5 166.5Q3 160 5 155Q52 149 116 141.5Q180 134 207 131Q346 115 470 105Q595 95 699 91.5Q803 88 885 91Q966 95 1020 105L1020 105ZM396 202Q364 221 334 209Q304 197 271 189L257 159Q294 173 358 177.5Q422 182 464 175Q458 278 456.5 351.5Q455 425 459 497Q425 401 413 331.5Q401 262 396 202ZM154 188Q238 222 304 229.5Q370 237 391 226Q391 250 394 308Q398 366 407 439Q416 512 432 591Q448 670 474 737L467 726Q450 682 434 644Q417 605 402.5 562Q388 519 377 466Q365 413 358 339Q312 343 286.5 322.5Q261 302 204 278Q186 248 173.5 225Q161 202 154 188ZM462 832Q409 760 353 681Q297 601 247.5 528Q198 455 159 395Q120 336 99 304Q159 341 223.5 368Q288 395 348 377Q348 402 351 455Q353 508 364.5 573Q376 638 399 707Q421 776 462 832ZM962 299Q969 299 975 299Q981 299 988 299Q986 299 983 306Q980 313 976 313Q955 313 934 313Q913 313 892 313Q892 325 891.5 336.5Q891 348 889 360Q888 363 882.5 367.5Q877 372 877 373Q879 358 879.5 343Q880 328 879 313Q846 314 812.5 314.5Q779 315 745 316Q747 378 750 440Q752 501 754.5 563Q757 625 759 686Q761 748 762 810Q762 815 753.5 821.5Q745 828 745 828Q744 765 741 701Q739 637 737 573Q735 509 732 445Q729 381 727 317Q695 319 663.5 321.5Q632 324 600 328Q599 401 598.5 474.5Q598 548 598 622Q598 684 599.5 746Q601 808 607 870Q607 875 598.5 881.5Q590 888 590 889Q584 828 582.5 766.5Q581 705 581 644Q581 565 581.5 486.5Q582 408 583 330Q568 332 553 334Q538 336 524 339Q524 339 527.5 332.5Q531 326 535 325Q547 323 559 321Q571 319 583 317Q584 275 584.5 233Q585 191 585 150Q585 144 593.5 138Q602 132 602 131Q602 177 601.5 223Q601 269 600 315Q632 311 663.5 308Q695 305 727 304Q726 269 725 234Q724 199 723 165Q723 160 731.5 153.5Q740 147 740 146Q741 185 742 224.5Q743 264 745 303Q778 301 811.5 300.5Q845 300 878 299Q876 282 871 266Q866 250 859 234Q845 237 831 237Q817 237 805 236Q806 236 809.5 228.5Q813 221 816 222Q825 223 834 223Q843 223 852 222Q848 215 843.5 208.5Q839 202 833 195Q832 194 838.5 187.5Q845 181 845 181Q853 190 859.5 200Q866 210 871 220Q882 218 892.5 214.5Q903 211 911 205Q916 202 914.5 196Q913 190 911 186Q907 181 900.5 178Q894 175 889 174Q876 170 862.5 170Q849 170 836 170Q837 170 840.5 163Q844 156 848 156Q865 156 884 156.5Q903 157 918 167Q930 175 926 187Q922 199 915 207Q907 216 897 221.5Q887 227 875 230Q882 247 886 264Q890 281 891 299Q909 299 927 299Q945 299 962 299ZM281 7Q281 7 281.5 7.5Q282 8 282 8Q295 23 318 33.5Q341 44 375 43Q441 41 506 38Q571 35 671 40Q621 42 567 45Q512 48 451.5 53.5Q391 59 325 67Q259 75 186 85Q222 64 249 38.5Q276 13 281 7L281 7Z" fill="#46788d" />
  </g>
</svg>