<?xml version="1.0" encoding="UTF-8"?>
<svg width="16" height="16" viewBox="0 0 16 16" xmlns="http://www.w3.org/2000/svg">
  <g transform="translate(0.5099999999999998, 14.55375) scale(0.01462890625, -0.01462890625)">
    <path d="M1021 218L906 448L1024 684L1024 960L748 960L512 842L276 960L0 960L0 684L118 448L0 212L0 -64L276 -64L512 54L748 -64L1024 -64L1024 212L1021 218ZM853 471L535 789L959 895L853 471ZM171 471L65 895L489 789L171 471ZM171 426L489 107L65 1L171 426ZM853 426L959 1L535 107L853 426Z" fill="#d28445" />
  </g>
</svg>