<?xml version="1.0" encoding="UTF-8"?>
<svg width="16" height="16" viewBox="0 0 16 16" xmlns="http://www.w3.org/2000/svg">
  <g transform="translate(0.020000000000000462, 14.98717578125) scale(0.015585937499999999, -0.015585937499999999)">
    <path d="M986 44L512 835L38 44L986 44ZM189 521L54 114L461 793L189 521ZM970 115L834 522L563 793L970 115ZM198 216L550 216L550 194L198 194L198 216ZM610 216L827 216L827 194L610 194ZM155 126L338 126L338 104L155 104L155 126ZM400 126L697 126L697 104L400 104ZM754 126L877 126L877 104L754 104ZM516 872L854 534L1024 22L0 22L169 533L509 873Q511 875 513 874.5Q515 874 516 872Z" fill="#46788d" />
  </g>
</svg>