<?xml version="1.0" encoding="UTF-8"?>
<svg width="16" height="16" viewBox="0 0 16 16" xmlns="http://www.w3.org/2000/svg">
  <g transform="translate(1.0252929687500005, 14.9825) scale(0.015585937499999999, -0.015585937499999999)">
    <path d="M387 572Q314 531 299.5 495Q285 459 285 451Q292 391 332 356Q372 321 419 294Q402 280 389.5 267Q377 254 368 243Q244 312 230 375.5Q216 439 216 453Q215 468 234.5 523Q254 578 352 637Q361 640 368 645Q375 650 382 655L292 706Q278 713 275 727.5Q272 742 278 754Q290 769 300.5 772.5Q311 776 327 768L440 703Q457 721 462 730.5Q467 740 467 740Q481 735 500 729Q519 723 536 720Q534 711 507 669Q480 627 387 572ZM688 439Q687 367 629 313.5Q571 260 522 236L612 186Q626 179 629.5 164Q633 149 626 137Q620 122 607 119Q594 116 578 124L465 188Q461 184 452.5 175Q444 166 437 153L368 172Q370 180 397.5 222Q425 264 518 319Q590 361 604.5 396Q619 431 619 436Q611 507 573.5 534.5Q536 562 486 598Q503 611 515.5 624.5Q528 638 536 648Q660 579 674 516Q688 453 688 439ZM534 411L370 411Q333 411 332.5 446Q332 481 370 480L534 480Q573 480 572.5 445.5Q572 411 534 411ZM12 713Q6 709 3 703Q0 697 0 692L0 204Q0 199 3 192Q6 185 12 183L435 -61Q440 -64 447.5 -64Q455 -64 460 -61L884 183Q889 187 892 193Q895 199 895 204L895 690Q895 695 892 702Q889 709 884 710L460 957Q455 960 447.5 960Q440 960 435 957Z" fill="#6a9fb5" />
  </g>
</svg>