<?xml version="1.0" encoding="UTF-8"?>
<svg width="16" height="16" viewBox="0 0 16 16" xmlns="http://www.w3.org/2000/svg">
  <g transform="translate(2.8897607421875007, 14.9825) scale(0.015585937499999999, -0.015585937499999999)">
    <path d="M445 531L445 -64L602 -64L602 248Q602 476 597.5 523.5Q593 571 572 603Q553 632 519 649Q486 667 441 672.5Q396 678 341 672Q287 666 225 648L166 630L166 960L0 960L0 445Q64 461 116 480Q167 499 217 513.5Q267 528 321 534Q375 540 445 531ZM387 765Q383 760 384 757.5Q385 755 399 755L544 755L649 925Q658 943 655 950.5Q652 958 637 960L493 960Q493 960 477 930Q460 901 440.5 865Q421 829 404 798Q388 767 387 765ZM0 -51L166 97L0 243Z" fill="#aa759f" />
  </g>
</svg>