<?xml version="1.0" encoding="UTF-8"?>
<svg width="16" height="16" viewBox="0 0 16 16" xmlns="http://www.w3.org/2000/svg">
  <g transform="translate(0.5083968321917807, 14.555337477463944) scale(0.01462890625, -0.01462890625)">
    <path d="M209 487Q209 547 156.5 577.5Q104 608 52 578Q0 548 0 487.5Q0 427 52 397Q104 367 156.5 397Q209 427 209 487ZM94 483Q96 509 126 523Q156 537 171 513Q183 494 166 473.5Q149 453 131 448Q111 443 102 450Q93 457 94 483ZM112 410Q115 413 128.5 414Q142 415 156 423Q170 430 184 446.5Q198 463 202 487Q203 501 204 499.5Q205 498 206 490Q203 451 175 429.5Q147 408 126 405Q121 404 114 405Q107 406 112 410ZM513 941Q375 924 305 852Q234 781 229 696Q224 611 283 531Q342 451 464 416Q569 387 591 341Q613 295 598.5 243Q584 191 555 138Q526 85 528 41Q531 -4 572 -30Q613 -56 675.5 -46Q738 -36 814 19Q889 74 959 190Q1028 305 1024 443Q1020 582 957.5 699Q895 816 780 888Q666 960 513 941ZM573 403Q563 409 537.5 422Q512 435 464 451Q424 464 402 475Q380 486 370 495Q401 481 428.5 474Q456 467 487 459Q553 439 574 427.5Q595 416 597 391Q596 377 589.5 386.5Q583 396 573 403ZM736 225Q766 221 796 247Q827 273 852.5 313Q878 353 897 400Q916 447 923 485Q937 560 942 510.5Q947 461 933 410Q925 380 908 342Q890 305 869 268.5Q848 232 825 199Q803 167 784 145Q754 111 721 95Q688 79 648 74Q607 66 604 90Q601 114 620.5 145Q640 176 672 202Q705 229 736 225ZM873 104Q835 59 781.5 23.5Q728 -12 665 -16Q649 -19 638 -16Q627 -13 628 -3Q629 12 644.5 9Q660 6 684 12Q771 33 819.5 79.5Q868 126 920 208Q961 272 980 332Q999 392 1000 405Q1002 397 996 367Q990 337 975 294.5Q960 252 935 202Q909 152 873 104ZM207 288Q167 265 147 228Q127 190 127 150Q127 110 147 72Q167 35 207 12Q246 -11 289 -9Q331 -8 366 12Q401 32 424 68Q446 104 446 150Q446 196 424 232Q401 268 366 288Q331 308 289 310Q246 311 207 288ZM307 123Q343 135 362.5 183.5Q382 232 386 197Q395 127 362 102Q329 77 314 73Q261 59 257 82Q253 105 307 123ZM431 131Q424 83 385.5 50.5Q347 18 308 16Q300 16 293 18.5Q286 21 296 23Q308 25 358.5 47Q409 69 425 125Q430 143 431.5 142Q433 141 431 131Z" fill="#75b5aa" />
  </g>
</svg>