<?xml version="1.0" encoding="UTF-8"?>
<svg width="16" height="16" viewBox="0 0 16 16" xmlns="http://www.w3.org/2000/svg">
  <g transform="translate(-1.0300000000000011, 15.901250000000001) scale(0.017636718750000002, -0.017636718750000002)">
    <path d="M0 187L174 448L0 709L131 709L305 448L131 187L0 187ZM174 187L349 448L174 709L305 709L654 187L523 187L414 350L305 187L174 187ZM966 448L1024 535L733 535L733 448L966 448ZM850 317L908 404L733 404L733 317L850 317ZM908 187L966 274L733 274L733 187L908 187ZM610 317L697 187L697 535L610 535L610 317ZM697 571L697 659L610 659L610 571L697 571Z" fill="#825078" />
  </g>
</svg>