<?xml version="1.0" encoding="UTF-8"?>
<svg width="16" height="16" viewBox="0 0 16 16" xmlns="http://www.w3.org/2000/svg">
  <g transform="translate(0.011852805397728261, 14.9825) scale(0.015585937499999999, -0.015585937499999999)">
    <path d="M433 723L447 642L278 710Q272 718 273.5 728Q275 738 285 740Q291 742 362 732.5Q433 723 433 723ZM570 367L534 361L500 553L536 559ZM1014 537Q1041 443 1002 398Q963 353 899 332.5Q835 312 765 305Q695 297 659 278Q635 265 627 237Q619 209 629 167L553 153Q553 153 547.5 182Q542 211 532 221Q504 261 421 242Q338 223 247.5 208.5Q157 194 83 214Q9 234 0 352L76 366Q85 276 152 274Q219 271 302 290Q385 309 463 316Q542 323 574 252Q576 325 641 345Q707 365 780 376.5Q853 388 907 414Q960 439 938 523ZM550 654Q528 667 528 694.5Q528 722 550 736Q571 750 592.5 736Q614 722 614 695Q614 667 592.5 653.5Q571 640 550 654Z" fill="#90a959" />
  </g>
</svg>