<?xml version="1.0" encoding="UTF-8"?>
<svg width="16" height="16" viewBox="0 0 16 16" xmlns="http://www.w3.org/2000/svg">
  <g transform="translate(0.5099999999999998, 14.55375) scale(0.01462890625, -0.01462890625)">
    <path d="M713 -16L311 -16Q281 -16 256 -1Q231 14 217 39L14 394Q0 419 0 448Q0 477 14 502L217 857Q231 882 256 897Q281 912 311 912L713 912Q743 912 768 897Q793 882 807 857L1010 502Q1024 477 1024 448Q1024 419 1010 394L807 39Q793 14 768 -1Q743 -16 713 -16ZM311 854Q297 854 285 847Q273 840 267 828L64 473Q58 461 58 448Q58 435 64 423L267 68Q273 56 285 49Q297 42 311 42L713 42Q727 42 739 49Q751 56 757 68L960 423Q966 435 966 448Q966 461 960 473L757 828Q751 840 739 847Q727 854 713 854ZM373 692L436 583L282 313L345 202Q354 193 361.5 195.5Q369 198 376 209L499 424Q506 431 512.5 431Q519 431 525 424L646 214Q654 197 664.5 196.5Q675 196 680 203L743 316L512 717L388 717Q377 716 373.5 709Q370 702 373 692Z" fill="#ac4142" />
  </g>
</svg>