<?xml version="1.0" encoding="UTF-8"?>
<svg width="16" height="16" viewBox="0 0 16 16" xmlns="http://www.w3.org/2000/svg">
  <g transform="translate(0.5099999999999998, 14.62689453125) scale(0.01462890625, -0.01462890625)">
    <path d="M0 960L1024 960L1024 510Q1008 593 955 662Q902 730 846.5 772.5Q791 815 750 827Q709 838 717 809Q732 773 734.5 706Q737 639 737 639L537 562L507 451L262 387Q262 387 279.5 322Q297 257 350 240Q367 235 422 227Q477 219 537 211.5Q597 204 644 199Q691 194 691 194L634 -54L0 -54L0 960Z" fill="#aa759f" />
  </g>
</svg>