<?xml version="1.0" encoding="UTF-8"?>
<svg width="16" height="16" viewBox="0 0 16 16" xmlns="http://www.w3.org/2000/svg">
  <g transform="translate(0.5099999999999998, 14.55375) scale(0.01462890625, -0.01462890625)">
    <path d="M166 -64L0 -64L0 122Q23 63 66.5 15Q110 -33 166 -64ZM0 534L0 355Q41 466 133 521Q225 576 321 573Q417 570 495 509Q572 449 584 330Q588 221 529 163Q471 105 399 95.5Q327 86 267 123Q206 160 205 241Q208 282 236 306.5Q264 331 304 330Q272 294 296.5 252Q321 210 369 221Q406 228 430 257.5Q454 287 453 325Q443 397 387 423Q331 448 267 434Q203 420 152 368Q101 317 103 235Q101 183 123 140Q145 97 181.5 66Q218 35 266 18Q313 1 363 1Q439 -1 499 22Q559 44 600 86Q641 128 663 187Q684 246 684 318Q681 444 609 529Q537 614 433 646.5Q329 679 212 653Q95 628 0 534ZM815 318Q818 259 805 202Q791 146 763.5 96.5Q736 47 695 6Q654 -35 602 -64L1024 -64L1024 960L0 960L0 665Q113 753 254 773Q395 793 519.5 748Q644 703 729 595Q814 487 815 318Z" fill="#75b5aa" />
  </g>
</svg>