<?xml version="1.0" encoding="UTF-8"?>
<svg width="16" height="16" viewBox="0 0 16 16" xmlns="http://www.w3.org/2000/svg">
  <g transform="translate(0.5062873609138252, 14.55375) scale(0.01462890625, -0.01462890625)">
    <path d="M499 -64L603 223L747 223Q766 223 784 235.5Q802 248 809 266L923 579Q937 617 917.5 644.5Q898 672 858 672L657 672L395 -51Q211 -8 110 128Q8 265 0.5 424.5Q-7 584 84 731Q175 878 375 942L113 223L222 223L361 604L443 604L304 223L412 223L542 579Q556 617 537 644.5Q518 672 477 672L385 672L490 960Q756 958 889 799Q1023 641 1024 450.5Q1025 260 894 100Q762 -60 499 -64ZM742 604L628 291L709 291L824 604L742 604Z" fill="#6a9fb5" />
  </g>
</svg>