<?xml version="1.0" encoding="UTF-8"?>
<svg width="16" height="16" viewBox="0 0 16 16" xmlns="http://www.w3.org/2000/svg">
  <g transform="translate(-0.056283169450429334, 15.411249999999999) scale(0.016542968749999998, -0.016542968749999998)">
    <path d="M867 302Q866 276 836.5 255.5Q807 235 827 209Q872 203 870 180.5Q868 158 892 148Q849 78 784 67.5Q719 57 653 101Q633 113 612.5 117.5Q592 122 574 117Q564 100 574 96Q584 92 593 89Q640 80 705.5 42Q771 4 929 72Q950 81 950 103.5Q950 126 941 146Q959 154 963 172.5Q967 191 969 216Q986 272 945 280.5Q904 289 867 302ZM536 465Q516 465 491 451Q466 437 447 428Q474 413 490 399Q506 385 536 390Q565 396 567.5 413.5Q570 431 559 453Q555 460 549 462.5Q543 465 536 465ZM702 960Q684 959 667 937Q650 915 633 882.5Q616 850 599 811Q582 772 563 738Q458 694 417 723Q376 752 342 743Q312 803 278 857Q243 912 211 939Q179 966 153 955Q128 944 116 872Q121 765 94 715.5Q67 666 71 512Q71 512 55 477Q40 442 24.5 386.5Q9 331 2 262Q-6 192 10 124Q32 28 96 -13.5Q160 -55 212 -64Q218 -25 257 44.5Q296 114 279 134Q258 160 252 201Q245 242 256.5 281.5Q268 321 299 352Q330 383 383 390Q398 496 447.5 505.5Q497 515 489 546Q466 642 532 623Q598 604 614 572Q645 522 668 477Q691 432 716 409Q747 379 781 363Q815 347 818 346Q809 352 752.5 405Q696 458 674 510Q660 541 658.5 593.5Q657 646 657 646Q696 652 720 599.5Q744 547 787 487Q788 483 788 479.5Q788 476 787 473Q781 476 777.5 482Q774 488 767 489Q761 489 756 481Q751 473 751 462Q751 451 759 445.5Q767 440 778 435Q794 406 811 393.5Q828 381 844 373L774 577Q773 624 774 672Q774 720 769.5 767.5Q765 815 752 863Q739 911 711 959Q709 959 706.5 959.5Q704 960 702 960ZM702 919Q705 919 707.5 917Q710 915 713 911Q727 884 735 842Q743 799 747 755Q751 711 752 671Q753 631 752 609Q739 640 712 682.5Q685 725 620 742Q620 742 629 769Q637 797 649.5 830.5Q662 864 676 891Q690 919 702 919ZM185 903Q198 903 213 892.5Q228 882 245 851Q273 800 292.5 766.5Q312 733 322 715Q342 679 324.5 677Q307 675 298 583Q297 565 290 554.5Q283 544 269 535Q240 564 219.5 612.5Q199 661 185 720Q157 679 183 621Q209 563 209 508Q179 501 158.5 502.5Q138 504 127 507Q112 515 111 585Q110 655 137 723Q159 779 157 836.5Q155 894 165 897Q172 899 174.5 901Q177 903 185 903Z" fill="#be2f31" />
  </g>
</svg>