<?xml version="1.0" encoding="UTF-8"?>
<svg width="16" height="16" viewBox="0 0 16 16" xmlns="http://www.w3.org/2000/svg">
  <g transform="translate(0.5099999999999987, 14.55375) scale(0.01462890625, -0.01462890625)">
    <path d="M479 919Q441 919 394.5 911.5Q348 904 302 868Q256 833 216 767Q176 701 135 590L135 590L135 590L76 426L76 426L76 426Q59 378 35 310.5Q11 243 3 177Q-1 143 1.5 109.5Q4 76 21 45Q39 14 74 -4Q109 -22 151 -23L484 -23L448 82L153 82Q115 82 107 111Q99 140 108 185.5Q117 231 137 285Q157 340 175 391Q219 518 249 599Q280 680 310.5 727Q341 774 380 793Q418 811 479 814L546 814L509 919L479 919ZM479 788Q431 788 392 766Q353 744 336 711Q301 640 276 578Q250 515 228.5 456Q207 397 187 337Q167 277 143 211Q133 175 132.5 141Q132 107 175 107L217 108L342 457L421 239L532 239L399 609Q410 633 430 658Q450 683 479 683L594 683L556 788L479 788ZM545 -23Q583 -23 629.5 -15.5Q676 -8 722 28Q768 63 808 129Q848 195 889 306L889 306L889 306L948 470L948 470L948 470Q965 518 989 585.5Q1013 653 1021 719Q1025 753 1022.5 786.5Q1020 820 1003 851Q985 882 950 900Q915 918 873 919L540 919L576 814L871 814Q909 814 917 785Q925 756 916 710.5Q907 665 887 611Q867 556 849 505Q805 378 775 297Q744 216 713.5 169Q683 122 644 103Q606 85 545 82L478 82L515 -23L545 -23ZM545 108Q593 108 632 130Q671 152 688 185Q723 256 748 318Q774 381 795.5 440Q817 499 837 559Q857 619 881 685Q891 721 891.5 755Q892 789 849 789L807 788L682 439L603 657L492 657L625 287Q614 263 594 238Q574 213 545 213L430 213L468 108L545 108Z" fill="#46788d" />
  </g>
</svg>