<?xml version="1.0" encoding="UTF-8"?>
<svg width="16" height="16" viewBox="0 0 16 16" xmlns="http://www.w3.org/2000/svg">
  <g transform="translate(0.020000000000000462, 14.9825) scale(0.015585937499999999, -0.015585937499999999)">
    <path d="M519 215Q519 262 537 303Q555 344 585.5 374.5Q616 405 657 423Q698 441 745 441L1024 441L1024 734Q1024 781 1006 822Q988 863 957.5 893.5Q927 924 886 942Q845 960 798 960L226 960Q179 960 138 942Q97 924 66.5 893.5Q36 863 18 822Q0 781 0 734L0 162Q0 115 18 74Q36 33 66.5 2.5Q97 -28 138 -46Q179 -64 226 -64L519 -64ZM551 596L357 596L357 667L551 667ZM643 783L766 783L766 713L643 713ZM261 783L607 783L607 713L261 713L261 783ZM162 783L226 783L226 713L162 713ZM162 667L318 667L318 596L162 596L162 667ZM162 547L399 547L399 476L162 476ZM162 236L226 236L226 166L162 166ZM332 60L162 60L162 130L332 130ZM508 60L367 60L367 130L508 130L508 60ZM508 166L261 166L261 236L508 236L508 166ZM821 236L855 236L855 166L750 166L715 130L727 130L727 60L644 60L531 -53L787 -53Q834 -53 875 -36Q917 -18 947.5 12.5Q978 43 996 85Q1013 126 1013 173L1013 429L821 236ZM791 60L749 60L749 130L791 130Z" fill="#ff00cc" />
  </g>
</svg>