<?xml version="1.0" encoding="UTF-8"?>
<svg width="16" height="16" viewBox="0 0 16 16" xmlns="http://www.w3.org/2000/svg">
  <g transform="translate(0.5099999999999998, 14.556064700356012) scale(0.01462890625, -0.01462890625)">
    <path d="M255 891Q128 817 64 697Q0 577 0 448Q0 319 64 199Q128 79 255 5Q383 -69 519 -64Q655 -59 767.5 5.5Q880 70 952 185Q1024 301 1024 448Q1024 595 952 711Q880 826 767.5 890.5Q655 955 519 960Q383 965 255 891ZM379 1Q245 82 182 205Q119 328 122 457Q125 586 191 705Q256 823 379 895Q500 824 567 707Q634 590 638 461Q642 332 579 208Q517 85 379 1ZM496 448Q496 380 437 345.5Q378 311 319 345Q260 380 260 448Q260 516 319 551Q378 585 437 550.5Q496 516 496 448Z" fill="#aa759f" />
  </g>
</svg>