<?xml version="1.0" encoding="UTF-8"?>
<svg width="16" height="16" viewBox="0 0 16 16" xmlns="http://www.w3.org/2000/svg">
  <g transform="translate(-1.0300000000000011, 15.901250000000001) scale(0.017636718750000002, -0.017636718750000002)">
    <path d="M0 355L102 473Q102 473 155.5 421Q209 369 283 342L177 223Q177 223 120 251.5Q63 280 0 355ZM296 357L398 473Q319 504 268.5 555Q218 606 218 606L115 487Q184 411 240 384Q296 357 296 357ZM412 488L508 597Q432 627 379.5 679.5Q327 732 327 732L231 621Q299 543 355.5 515.5Q412 488 412 488ZM737 577L828 680Q774 700 725 695Q676 689 639.5 674Q603 659 581 644Q560 628 560 628L505 563Q595 611 666 594Q737 577 737 577ZM389 432Q476 478 547.5 462.5Q619 447 619 447L722 561Q722 561 652 576.5Q582 592 485 537L389 432ZM264 293Q352 338 423.5 322.5Q495 307 495 307L605 430Q605 430 537 444Q469 458 369 407L264 293ZM481 292Q393 325 320.5 297Q248 269 248 269L197 216Q262 195 315 204Q367 214 404 233Q441 252 461 272Q481 292 481 292ZM931 434L1024 539Q963 612 905.5 642.5Q848 673 848 673L756 570Q835 534 883 484Q931 434 931 434ZM816 303L918 419Q856 495 799 524.5Q742 554 742 554L638 438Q718 404 767 353.5Q816 303 816 303ZM515 300Q592 269 643 216.5Q694 164 694 164L803 288Q737 366 681 394.5Q625 423 625 423L515 300Z" fill="#6a9fb5" />
  </g>
</svg>