<?xml version="1.0" encoding="UTF-8"?>
<svg width="16" height="16" viewBox="0 0 16 16" xmlns="http://www.w3.org/2000/svg">
  <g transform="translate(3.7032881314766843, 14.9825) scale(0.015585937499999999, -0.015585937499999999)">
    <path d="M182 808Q280 778 319 742Q358 706 393 617Q386 725 338 771.5Q290 818 182 808ZM0 580Q64 561 128.5 527Q193 493 221 370Q232 523 168.5 553Q105 583 0 580ZM58 710Q154 690 216.5 648.5Q279 607 315 483Q319 563 300 610Q282 656 247 679.5Q212 703 163 708Q114 713 58 710ZM225 960Q487 789 499 687Q510 585 433 491.5Q356 398 271 282Q186 166 256 -32L366 -64Q252 90 331 213Q409 335 487.5 451Q566 567 548 688Q531 809 225 960Z" fill="#be2f31" />
  </g>
</svg>