<?xml version="1.0" encoding="UTF-8"?>
<svg width="16" height="16" viewBox="0 0 16 16" xmlns="http://www.w3.org/2000/svg">
  <g transform="translate(0.020000000000000462, 14.9825) scale(0.015585937499999999, -0.015585937499999999)">
    <path d="M1024 7L1024 -64L1005 -64L1005 -12L864 -12L864 -64L845 -64L845 -12L705 -12L705 -64L685 -64L685 -12L548 -12L548 -64L529 -64L529 -12L391 -12L391 -64L372 -64L372 -12L231 -12L231 -64L212 -64L212 -12L73 -12L73 -64L54 -64L54 -12L0 -12L0 7L54 7L54 145L0 145L0 165L54 165L54 305L0 305L0 324L54 324L54 462L0 462L0 481L54 481L54 622L0 622L0 641L54 641L54 779L0 779L0 798L54 798L54 940L0 940L0 960L73 960L73 7L1024 7ZM977 389Q985 367 993.5 343Q1002 319 1012 294L1012 246Q1012 246 990.5 300Q969 354 959 383Q945 423 933 452.5Q921 482 907 483Q903 483 897 478Q891 473 882 456Q891 435 899 410Q907 385 916 359Q930 313 947.5 267Q965 221 982 218Q989 217 1000.5 231Q1012 245 1012 245L1012 214Q1004 205 996 201.5Q988 198 980 199Q953 203 934.5 248Q916 293 897 353Q891 373 884.5 393Q878 413 871 431Q862 408 853.5 378Q845 348 837 318Q817 247 799 197.5Q781 148 754 148Q747 148 740.5 153.5Q734 159 727 169Q718 142 708 127.5Q698 113 686 112Q685 112 685 112Q685 112 685 112Q672 112 660 132Q649 153 637 202.5Q625 252 611 336Q597 420 579 547Q577 563 575 578.5Q573 594 570 609Q567 600 564 587.5Q561 575 557 559Q548 517 538 465Q528 413 518 356Q502 267 489 202Q476 137 464.5 95Q453 53 442 33Q431 13 417 13Q417 13 417 13Q417 13 417 13Q397 14 383 47.5Q369 81 354 145Q346 124 338.5 118Q331 112 325 112Q301 112 283 164.5Q265 217 241 313Q233 343 225.5 372Q218 401 211 425Q206 412 202 398Q198 384 193 370Q168 291 150 243.5Q132 196 114 188Q105 183 98 184Q91 185 86 187Q85 188 83.5 188.5Q82 189 81 190L81 228L82 228Q83 224 86.5 215.5Q90 207 95 204Q97 203 99.5 203Q102 203 106 205Q119 212 139 268Q159 324 175 376Q182 399 188.5 419Q195 439 201 456Q189 489 182 494.5Q175 500 175 500Q159 500 145 462.5Q131 425 119 384Q110 357 101 329Q92 301 81 277L81 330Q86 344 91 359.5Q96 375 100 390Q117 444 132.5 481.5Q148 519 175 519Q185 519 193.5 510Q202 501 210 483Q221 511 229.5 525.5Q238 540 248 543Q251 545 255 544.5Q259 544 262 542Q288 525 307.5 453Q327 381 349 266Q351 255 353 244Q355 233 357 223Q358 224 358 225Q358 226 358 227Q370 276 382.5 348Q395 420 407 514Q441 760 461.5 832Q482 904 502 904Q513 904 525.5 884.5Q538 865 556 792Q562 766 568 735.5Q574 705 580 670Q582 671 584 671.5Q586 672 589 673Q589 673 589 673Q589 673 590 673Q613 673 631 614Q649 555 677 422Q687 374 698 327Q709 280 719 243Q721 238 722 233.5Q723 229 725 225Q730 246 736 268Q742 290 747 312Q770 402 787 454.5Q804 507 826 515Q829 516 835 516Q841 516 847 511Q854 506 860 497Q866 488 872 477Q880 489 888.5 495.5Q897 502 907 502Q931 501 945.5 470.5Q960 440 977 389ZM346 181Q342 199 338 219.5Q334 240 330 263Q322 303 313 346Q304 389 294.5 426Q285 463 275 490Q264 517 253 525Q251 523 245 514Q239 505 228 477Q227 472 225 466.5Q223 461 221 456Q230 431 239 396Q248 361 259 318Q268 282 277.5 247Q287 212 296 185Q308 149 315.5 140.5Q323 132 324 131Q326 132 331.5 141Q337 150 346 181ZM564 648Q558 686 551.5 719Q545 752 539 780Q524 844 514.5 863Q505 882 502 884Q499 881 490 859.5Q481 838 467 765Q455 706 444.5 635.5Q434 565 427 512Q413 413 400 338.5Q387 264 375 214Q373 204 370.5 195.5Q368 187 366 180Q371 158 375.5 138Q380 118 385 101Q399 51 407.5 42Q416 33 417 33Q419 33 428.5 49Q438 65 455 135Q466 182 477 240.5Q488 299 499 359Q521 483 536 551.5Q551 620 564 648ZM715 194Q703 226 689.5 282Q676 338 658 418Q649 461 639.5 504Q630 547 620 581Q607 628 599.5 640Q592 652 590 653Q589 653 587.5 651Q586 649 584 646Q588 623 591.5 599Q595 575 599 550Q609 476 621 397Q633 318 645 257Q662 171 672.5 151.5Q683 132 685 132Q685 132 692 138.5Q699 145 712 184Q713 186 714 188.5Q715 191 715 194ZM861 456Q855 470 848.5 480Q842 490 835 496Q834 497 833 497Q832 497 832 497Q829 496 821.5 485Q814 474 801 436Q792 410 783.5 376Q775 342 766 308Q758 274 750.5 245.5Q743 217 736 195Q744 175 749 171Q754 167 754 167Q757 167 765 174.5Q773 182 784 212Q793 235 801.5 264Q810 293 818 323Q829 362 839 396.5Q849 431 861 456Z" fill="#be2f31" />
  </g>
</svg>