<?xml version="1.0" encoding="UTF-8"?>
<svg width="16" height="16" viewBox="0 0 16 16" xmlns="http://www.w3.org/2000/svg">
  <g transform="translate(2.0150000000000006, 12.9875) scale(0.015585937499999999, -0.015585937499999999)">
    <path d="M576 768L0 768L0 -128L768 -128L768 576ZM704 -64L64 -64L64 704L512 704L704 512ZM128 576L128 64L256 64Q257 118 293.5 154.5Q330 191 384 192Q330 193 293.5 229.5Q257 266 256 320Q257 374 293.5 410.5Q330 447 384 448Q438 447 474.5 410.5Q511 374 512 320Q511 266 474.5 229.5Q438 193 384 192Q438 191 474.5 154.5Q511 118 512 64L640 64L640 448L512 576Z" fill="#f4bf75" />
  </g>
</svg>