<?xml version="1.0" encoding="UTF-8"?>
<svg width="16" height="16" viewBox="0 0 16 16" xmlns="http://www.w3.org/2000/svg">
  <g transform="translate(0.017338986280487134, 14.979345703124999) scale(0.015585937499999999, -0.015585937499999999)">
    <path d="M24 933Q24 933 66.5 890.5Q109 848 249 789Q319 759 406 741Q494 723 576 713.5Q658 704 723 701Q788 698 813 698Q817 697 826 690Q835 683 836 670Q836 652 821.5 630.5Q807 609 775 603Q684 598 600 601Q516 605 439 616Q362 627 292 645Q221 663 157 688Q93 710 61 747Q28 785 14.5 821.5Q1 858 1 884Q0 911 0 911Q2 927 8 932.5Q14 938 24 933ZM734 450Q786 480 781 512Q776 544 748 541Q643 532 575 536Q507 540 437 544Q400 547 358 554Q316 561 280.5 568Q245 575 221 581Q197 587 197 587Q156 598 195.5 530Q235 462 296 450Q330 441 388 435Q446 429 509.5 428Q573 427 633 432Q694 437 734 450ZM399 366Q367 361 404 316Q441 271 508 260Q548 257 590.5 262.5Q633 268 671 291Q671 291 693 313.5Q715 336 713 354Q707 386 687.5 384.5Q668 383 668 383Q617 371 549 367Q481 363 399 366ZM730 224Q714 183 700 144.5Q686 106 676 72Q672 32 694 1Q716 -30 736 -38Q749 -43 758.5 -34Q768 -25 771 -4Q770 -3 795 65.5Q820 134 861 229Q883 279 904 328Q925 377 941.5 417.5Q958 458 970 486Q981 513 984 517Q997 544 1009.5 584Q1022 624 1022 624Q1034 680 984.5 707.5Q935 735 919 708L870 565L730 224Z" fill="#f4bf75" />
  </g>
</svg>