<?xml version="1.0" encoding="UTF-8"?>
<svg width="16" height="16" viewBox="0 0 16 16" xmlns="http://www.w3.org/2000/svg">
  <g transform="translate(2.061074218750001, 15.411249999999999) scale(0.016542968749999998, -0.016542968749999998)">
    <path d="M674 146L44 146Q26 146 13 159Q0 172 0 190L0 624Q0 642 13 655Q26 668 44 668L674 668Q692 668 705 655Q718 642 718 624L718 190Q718 172 705 159Q692 146 674 146ZM53 198L666 198L666 615L53 615L53 198ZM120 374Q121 359 136 359Q151 359 151 374Q154 437 212.5 438Q271 439 274 374Q274 359 289 359Q304 359 305 374Q302 423 273 447Q244 471 210.5 470Q177 469 150 445Q122 421 120 374ZM505 92L213 -64L213 92L505 -64L505 92ZM590 934Q575 960 545 960Q515 960 501 934Q488 912 498 888.5Q508 865 531 859L507 724L583 724L559 859Q583 865 593 888.5Q603 912 590 934ZM414 374Q414 359 429 359Q444 359 445 374Q447 437 505.5 438Q564 439 567 374Q568 359 582.5 359Q597 359 598 374Q595 423 566 447Q538 471 504.5 470Q471 469 443 445Q415 421 414 374Z" fill="#4d9085" />
  </g>
</svg>