<?xml version="1.0" encoding="UTF-8"?>
<svg width="16" height="16" viewBox="0 0 16 16" xmlns="http://www.w3.org/2000/svg">
  <g transform="translate(0.5099999999999998, 14.55375) scale(0.01462890625, -0.01462890625)">
    <path d="M531 421Q529 481 567 520Q605 559 666 543L666 297Q605 283 566.5 316.5Q528 350 531 421ZM0 960L0 -64L1024 -64L1024 960ZM356 222L269 222L269 756L356 756ZM626 215Q552 213 496.5 261.5Q441 310 442 417Q443 460 456 499Q470 538 497.5 566.5Q525 595 567 611Q609 627 666 623L666 756L754 756L754 276Q754 270 755 262Q756 254 757 247Q732 233 699 224.5Q666 216 626 215Z" fill="#aa759f" />
  </g>
</svg>