<?xml version="1.0" encoding="UTF-8"?>
<svg width="16" height="16" viewBox="0 0 16 16" xmlns="http://www.w3.org/2000/svg">
  <g transform="translate(0.020000000000000462, 14.9825) scale(0.015585937499999999, -0.015585937499999999)">
    <path d="M583 341L883 81L627 385Q627 386 627.5 386.5Q628 387 629 388L1024 448Q1024 448 984 453Q943 458 883.5 465.5Q824 473 755 483Q686 492 630 502Q628 505 626.5 508Q625 511 623 513L873 804L605 540L650 786L719 786Q728 786 733.5 792Q739 798 739 807Q739 815 733.5 821Q728 827 719 827L523 827L523 957L508 827L444 827Q436 827 430 821Q424 815 424 807Q424 798 430 792Q436 786 444 786L503 786L476 557Q471 555 466.5 553Q462 551 458 548L160 804L421 512Q420 510 419 508.5Q418 507 417 505L0 447L415 391Q418 385 422 379.5Q426 374 430 368L160 98L460 343Q461 342 463 341Q465 340 467 339L426 109L341 109Q332 109 326.5 103.5Q321 98 321 89Q321 81 326.5 75Q332 69 341 69L503 69L507 -61L522 69L616 69Q624 69 630 75Q636 81 636 89Q636 98 630 103.5Q624 109 616 109L528 109L568 334Q572 336 576 337.5Q580 339 583 341ZM547 786L523 654L523 786Z" fill="#6a9fb5" />
  </g>
</svg>