<?xml version="1.0" encoding="UTF-8"?>
<svg width="16" height="16" viewBox="0 0 16 16" xmlns="http://www.w3.org/2000/svg">
  <g transform="translate(0.020667968749999766, 14.9825) scale(0.015585937499999999, -0.015585937499999999)">
    <path d="M987 832Q969 850 951.5 869.5Q934 889 912 902Q880 914 857.5 891Q835 868 815 850Q798 829 775 807Q752 785 764 754Q770 734 798 729Q826 724 826 724L826 682L580 682L580 928L513 928L0 838L0 57L510 -32L580 -32L580 64Q595 63 610.5 59Q626 55 640 65Q661 80 678 99Q695 118 713 136Q741 163 746 196Q751 229 681 239L681 280L882 280Q933 283 946 290Q959 297 960 359L960 723Q960 723 989.5 731Q1019 739 1023 763Q1027 785 1013.5 801Q1000 817 987 832ZM245 266L245 634L312 638L312 258ZM715 201Q703 169 677 146Q651 123 629 98Q616 83 603 95Q590 107 580 115L580 648L826 649L826 582L647 582L647 201ZM681 548L826 548L826 415L681 415ZM926 760L926 314L681 314L681 381L859 381L859 760Q842 760 824.5 761Q807 762 790 763Q804 794 829.5 817Q855 840 878 865Q888 877 900 870Q912 863 919 855Q938 832 960.5 811.5Q983 791 996 763Q978 762 960.5 761Q943 760 926 760Z" fill="#825078" />
  </g>
</svg>