<?xml version="1.0" encoding="UTF-8"?>
<svg width="16" height="16" viewBox="0 0 16 16" xmlns="http://www.w3.org/2000/svg">
  <g transform="translate(0.020000000000000462, 14.980768229166667) scale(0.015585937499999999, -0.015585937499999999)">
    <path d="M930 562Q930 564 932 567Q934 570 936 568Q941 565 936 562.5Q931 560 930 562ZM919 862L916 827Q914 816 911 803.5Q908 791 907 782Q905 767 897.5 758Q890 749 890 740Q889 728 891 715Q893 702 902 692Q914 680 928 671Q942 662 936 658Q936 658 936 654.5Q936 651 916 648Q904 647 888 629Q872 611 870 587Q868 571 872.5 553.5Q877 536 886 523Q893 512 902.5 505Q912 498 917 495Q931 488 953.5 486Q976 484 993 493Q1002 497 1013 508Q1024 519 1024 519Q1024 548 1023 585Q1021 623 1011 667Q1001 711 980 761Q958 810 919 862ZM973 761Q976 761 976 758.5Q976 756 972 754Q974 747 969.5 743.5Q965 740 961 737Q955 734 949.5 730Q944 726 937 726Q937 729 937.5 732.5Q938 736 941 736Q943 736 948 739.5Q953 743 954 745Q953 746 945 744.5Q937 743 930 740Q924 737 920 734Q916 731 914 736Q912 741 919.5 744Q927 747 938 750Q949 754 956 756.5Q963 759 971 761Q971 761 972 761Q973 761 973 761ZM977 732Q979 732 980.5 731Q982 730 983 729Q987 724 981.5 719.5Q976 715 974 713Q967 706 959 706Q951 706 949 708Q947 712 952 716Q957 720 961 724Q963 726 967.5 728.5Q972 731 977 732ZM965 594Q969 594 972.5 592Q976 590 973 586Q968 582 965 581Q962 580 959 582Q956 584 956 588.5Q956 593 962 594Q963 594 963.5 594Q964 594 965 594ZM999 557Q1000 557 1000.5 557Q1001 557 1001 557Q1006 555 1007 551.5Q1008 548 1011 545Q1017 540 1014.5 537Q1012 534 1013 528Q1014 522 1008 517Q1002 512 1000 509Q995 504 986.5 501Q978 498 976 502Q974 506 971 512Q968 518 971 526Q974 533 984 545Q994 557 999 557ZM826 542Q824 542 822 541.5Q820 541 818 540Q810 538 802.5 529.5Q795 521 798 502Q799 496 805 489.5Q811 483 819 480Q827 478 835.5 480.5Q844 483 849 490Q859 506 853 519Q847 532 845 536Q843 539 837.5 540.5Q832 542 826 542ZM833 530Q834 530 834.5 530Q835 530 836 529Q840 527 842 524.5Q844 522 841 520Q835 516 830 519.5Q825 523 828 526Q830 528 831 529.5Q832 531 833 530ZM841 515Q841 515 841.5 515Q842 515 842 514Q847 510 843 506.5Q839 503 838 506Q836 509 837 512Q838 515 841 515ZM647 486Q625 486 605 469.5Q585 453 565 430Q557 420 549.5 424Q542 428 542 428Q542 428 511 445Q480 462 463 468Q447 473 434 473Q421 473 421 473Q421 473 391 445.5Q361 418 366 371Q370 325 404.5 294.5Q439 264 445 247Q402 188 429 158.5Q456 129 455 118Q455 113 447.5 109Q440 105 432 102Q415 96 410 99.5Q405 103 399 107Q389 113 386 117Q383 121 372 130Q362 138 351 143Q340 148 324 148Q291 149 281.5 129Q272 109 253 106Q327 64 395 48Q463 32 524.5 34Q586 36 641 51Q696 67 743 89Q744 96 737 108.5Q730 121 726 130Q721 140 746.5 139Q772 138 780 138Q787 138 793.5 131Q800 124 800 124Q843 153 880 191Q917 229 945 271Q973 313 991 358Q1009 403 1014 447Q1014 447 992 458Q970 469 947 467Q920 464 895 459Q870 454 851 440Q830 423 803.5 397.5Q777 372 773 319Q773 314 769.5 312.5Q766 311 761 313Q761 313 754.5 327.5Q748 342 732 363Q727 375 725.5 398Q724 421 713 442Q703 460 685 472Q667 484 653 486Q651 486 649.5 486Q648 486 647 486ZM700 380Q700 380 700.5 380Q701 380 702 380Q706 379 709 373.5Q712 368 714 361Q716 354 719.5 348Q723 342 723 337Q725 327 723 325Q721 323 715 321Q709 319 702.5 323Q696 327 690 346Q684 363 688 372Q692 381 700 380ZM922 357Q922 357 922.5 357Q923 357 924 357Q931 354 923 349Q915 344 908 343Q905 343 905.5 341Q906 339 905 337Q903 335 899 334Q895 333 894 334Q892 336 892.5 339.5Q893 343 901 344Q905 345 909.5 351Q914 357 922 357ZM567 322Q568 322 569 321.5Q570 321 571 320Q575 317 570 314Q565 311 563 313Q561 315 562.5 318.5Q564 322 567 322ZM766 294Q767 294 767.5 294Q768 294 768 294Q780 290 778.5 286Q777 282 777 279Q776 277 770.5 275.5Q765 274 763 278Q760 280 760 287.5Q760 295 766 294ZM783 282Q785 282 785.5 280.5Q786 279 787 278Q789 277 791.5 274.5Q794 272 793 269Q792 266 791 265Q790 264 787 264Q784 265 781 271Q778 277 780 281Q781 282 782 282Q783 282 783 282ZM604 163Q604 163 604.5 163Q605 163 605 163Q608 162 608.5 160Q609 158 607 157Q606 155 604.5 154.5Q603 154 602 155Q601 156 601.5 159.5Q602 163 604 163ZM576 125Q576 125 576 125Q576 125 577 125Q580 124 577 119Q574 114 571 115Q565 118 568.5 121.5Q572 125 576 125ZM339 114Q342 114 344 112.5Q346 111 345 109Q343 108 341 107.5Q339 107 338 108Q337 108 334 110.5Q331 113 336 114Q337 114 337.5 114Q338 114 339 114ZM353 106Q358 105 357 99Q356 93 350 93Q346 92 343 94Q340 96 340 99Q340 102 344 104.5Q348 107 353 106ZM400 84Q401 84 402 83.5Q403 83 404 83Q407 80 403 76Q399 72 396 73Q394 74 395 78.5Q396 83 400 84ZM474 719Q454 716 453 739Q452 762 473 763Q493 765 493 743.5Q493 722 474 719ZM568 682Q559 683 548 679Q537 675 527 667Q506 656 498.5 637Q491 618 492 595Q485 592 481.5 595Q478 598 475 601Q462 619 438.5 626Q415 633 389 618Q369 606 361 593.5Q353 581 356 552Q359 523 378.5 508Q398 493 418 493Q436 492 448 500.5Q460 509 460 509Q466 512 475.5 506Q485 500 490 498Q494 496 504.5 501.5Q515 507 511 516Q507 525 498 537Q489 549 497 551Q504 553 513 541.5Q522 530 529 531Q560 530 577.5 537Q595 544 609 553Q622 563 630.5 572.5Q639 582 641 592Q644 602 644.5 615Q645 628 632 643Q620 658 609 667Q598 676 575 682Q573 682 571.5 682Q570 682 568 682ZM561 676Q562 676 563 676Q564 676 565 675Q568 673 565.5 670.5Q563 668 560 667Q557 666 555.5 667Q554 668 554 670Q554 672 556.5 674Q559 676 561 676ZM591 649Q591 649 591.5 649Q592 649 592 649Q600 647 605 642.5Q610 638 606 632Q602 625 592.5 626Q583 627 579 631Q576 635 580 642Q584 649 591 649ZM428 617Q448 617 438.5 613Q429 609 418 614Q417 615 419 616Q421 617 428 617ZM460 594Q461 594 461.5 594Q462 594 462 594Q470 593 472.5 587Q475 581 472 578Q467 574 460.5 575Q454 576 453 579Q451 583 452.5 588.5Q454 594 460 594ZM189 567Q167 567 147.5 556Q128 545 126 542Q119 535 107 519.5Q95 504 82 499Q71 494 60 495.5Q49 497 0 513Q4 438 27 377Q50 315 80.5 268Q111 221 144 188Q177 155 201 139Q213 134 248.5 143Q284 152 297 163Q302 167 312 175.5Q322 184 326 192Q331 203 333 215.5Q335 228 336 243Q340 256 321 277Q302 298 279 312Q274 319 274.5 330Q275 341 261 348Q256 354 242 349Q228 344 215 355Q209 360 206.5 368Q204 376 204 386Q204 394 215 405.5Q226 417 234 424Q245 433 254 444Q263 455 268 462Q276 479 261.5 511Q247 543 208 562Q204 565 199 566Q194 567 189 567ZM234 522Q245 523 245 512.5Q245 502 228 506Q221 509 223 515Q225 521 231 522Q232 522 232.5 522Q233 522 234 522ZM129 473Q130 473 130.5 472.5Q131 472 132 472Q137 469 132.5 465Q128 461 125 464Q122 465 123.5 469Q125 473 129 473Z" fill="#46788d" />
  </g>
</svg>