<?xml version="1.0" encoding="UTF-8"?>
<svg width="16" height="16" viewBox="0 0 16 16" xmlns="http://www.w3.org/2000/svg">
  <g transform="translate(0.0028155048076925846, 14.974140269886364) scale(0.015585937499999999, -0.015585937499999999)">
    <path d="M854 175Q854 160 927.5 156.5Q1001 153 995 179Q986 223 926 221Q866 219 854 175ZM219 73Q244 51 276 70.5Q308 90 320 121Q295 153 237 130Q179 107 219 73ZM836 134Q804 106 828.5 84.5Q853 63 884 82Q892 88 881.5 108Q871 128 836 134ZM718 272Q751 295 819 315Q886 336 941.5 362Q997 388 1019 425Q1041 461 985 518L594 918Q558 952 506.5 952Q455 952 422 918L45 532Q-9 479 1 451Q10 423 48.5 406.5Q87 390 139 379Q190 368 222 347Q252 328 178.5 304Q105 280 130 255Q142 242 175 230Q208 218 245.5 206Q283 194 316 182Q349 170 361 157Q386 132 344.5 105.5Q303 79 327 54Q351 29 395.5 31Q440 33 450 -25Q457 -67 531 -54Q605 -41 649 -4Q677 19 635.5 27Q594 35 619 60Q681 123 731.5 120Q782 117 805 175Q817 206 753.5 229Q690 252 718 272ZM393 297Q375 306 349.5 304.5Q324 303 309 314Q299 321 312 324.5Q325 328 352 331Q390 336 437.5 323Q485 310 495 305Q505 300 507.5 297Q510 294 510 294Q520 255 478.5 266.5Q437 278 393 297ZM652 749L637 660L576 693L476 630L443 762L390 647L258 648Q239 648 241 664.5Q243 681 262 701Q282 723 309 750Q336 778 363 804.5Q390 831 413 854Q436 878 448 890Q473 916 510 915.5Q547 915 571 890L720 738Q731 728 731.5 711Q732 694 726 688L652 749Z" fill="#825078" />
  </g>
</svg>