<?xml version="1.0" encoding="UTF-8"?>
<svg width="16" height="16" viewBox="0 0 16 16" xmlns="http://www.w3.org/2000/svg">
  <g transform="translate(0.5150638521634615, 14.54460693359375) scale(0.01462890625, -0.01462890625)">
    <path d="M962 589Q941 656 900 713Q859 770 803 811.5Q747 853 679 876Q611 899 536 899Q444 899 362 864Q281 830 220.5 769.5Q160 709 125 629Q90 548 90 456Q90 447 90 438Q90 429 91 420Q51 372 19 285Q-13 198 7 122.5Q27 47 121 10Q215 -27 427 27Q453 20 480.5 16.5Q508 13 536 13Q581 13 623 22Q665 30 704 45.5Q743 61 778 84Q813 106 843 134L861 134L1024 292L1024 589L962 589ZM530 109Q478 87 412.5 68Q347 49 298 44Q283 43 246 43Q209 43 198 45Q142 57 102.5 86.5Q63 116 56 151Q49 187 49 202Q49 217 55 254Q58 273 72 303.5Q86 334 103 361Q134 409 179.5 464.5Q225 520 296 566Q268 523 243.5 482Q219 441 205 410Q192 383 184.5 360.5Q177 338 175 319Q172 297 175.5 282Q179 267 189 254Q208 228 241 215Q274 202 317 202Q384 202 452 222.5Q520 243 561 262Q622 290 675 323Q728 356 758 385L804 429L652 427L765 548L974 548L974 309L856 196L856 354L812 304Q779 267 743 237Q706 206 668.5 182Q631 158 596 140Q560 122 530 109Z" fill="#75b5aa" />
  </g>
</svg>