<?xml version="1.0" encoding="UTF-8"?>
<svg width="16" height="16" viewBox="0 0 16 16" xmlns="http://www.w3.org/2000/svg">
  <g transform="translate(1.4896972656249998, 13.696250000000001) scale(0.012714843750000001, -0.012714843750000001)">
    <path d="M0 28L42 28Q72 28 90.5 35.5Q109 43 115 57Q122 72 125 141.5Q128 211 128 336L128 556Q128 685 125 756.5Q122 828 117 841Q112 855 96 861.5Q80 868 54 868L0 868L0 909Q55 906 109 905Q163 904 217 904Q262 904 302.5 905Q343 906 379 909L379 868L328 868Q305 868 290 865Q275 862 269 857Q263 851 259.5 837.5Q256 824 255 801Q254 767 253 705Q252 643 252 555L252 331Q252 205 255 135.5Q258 66 263 54Q269 41 287 34.5Q305 28 336 28L379 28L379 -13Q339 -10 294.5 -9Q250 -8 202 -8Q146 -8 95.5 -9Q45 -10 0 -13L0 28ZM417 372Q422 418 437 459Q452 500 476 535Q500 569 531.5 594.5Q563 620 601 636Q639 652 681 657Q723 662 768 655Q834 645 884 616Q934 587 969 538Q1003 489 1016 429.5Q1029 370 1021 299Q1011 215 977 152Q943 89 886 47Q835 9 777 -4.5Q719 -18 655 -9Q593 0 545.5 30.5Q498 61 465 112Q431 164 419 228.5Q407 293 417 372ZM538 402Q530 333 536 271Q542 209 562 156Q582 102 617 71.5Q652 41 701 34Q738 28 770 39.5Q802 51 829 78Q856 106 873 151.5Q890 197 897 260Q903 312 901.5 357Q900 402 891 442Q882 481 867.5 511Q853 541 833 561Q812 582 788.5 594Q765 606 737 610Q713 614 690 610.5Q667 607 646 597Q625 586 608.5 570Q592 554 580 533Q563 504 553 471.5Q543 439 538 402Z" fill="#825078" />
  </g>
</svg>