<?xml version="1.0" encoding="UTF-8"?>
<svg width="16" height="16" viewBox="0 0 16 16" xmlns="http://www.w3.org/2000/svg">
  <g transform="translate(0.5099999999999998, 14.55375) scale(0.01462890625, -0.01462890625)">
    <path d="M0 23Q50 62 108.5 95.5Q167 129 234 157Q301 184 370 197.5Q439 211 511 211Q574 211 635 201Q696 191 754 170Q821 147 888 110Q955 73 1021 23L1021 -46Q966 -14 926.5 7.5Q887 29 864 39Q827 55 788.5 68Q750 81 710 90Q661 102 611 107.5Q561 113 511 113Q447 113 383 103Q319 93 255 73Q191 53 128 24Q64 -6 0 -46L0 23ZM0 505L0 574Q64 534 128 504Q191 474 255 454.5Q319 435 383 425Q447 415 511 415Q561 415 610.5 420.5Q660 426 709 438Q749 447 787 459.5Q825 472 862 488Q886 499 926 520Q966 541 1021 574L1021 505Q955 455 888 418Q821 381 754 357Q696 337 635 327Q574 317 511 317Q439 317 370 330.5Q301 344 234 372Q167 399 108.5 432.5Q50 466 0 505ZM1014 616Q1003 611 991.5 607.5Q980 604 969 602Q957 600 945 598.5Q933 597 920 597Q889 597 866 605.5Q843 614 827 630Q810 646 802 669.5Q794 693 794 724Q794 754 802 777.5Q810 801 825 818Q841 836 862 844.5Q883 853 910 853Q937 853 958 845Q979 837 994 821Q1009 805 1016.5 782.5Q1024 760 1024 731L1024 705L859 705Q859 690 863.5 679.5Q868 669 876 662Q884 655 896.5 651.5Q909 648 926 648Q937 648 948 649.5Q959 651 969 654Q980 657 991 662Q1002 667 1014 674L1014 616ZM960 752Q960 765 956.5 774.5Q953 784 947 791Q941 797 931.5 800.5Q922 804 910 804Q899 804 890.5 800.5Q882 797 875 790Q869 784 865 774.5Q861 765 860 752ZM544 942L608 942L608 764L684 847L761 847L669 756L767 604L696 604L629 717L608 697L608 604L544 604L544 942ZM259 725Q259 755 267 778Q275 801 290 818Q305 836 325.5 844.5Q346 853 372 853Q398 853 418.5 844.5Q439 836 454 818Q470 801 477.5 778Q485 755 485 725Q485 696 477.5 672.5Q470 649 454 632Q439 615 418.5 606Q398 597 372 597Q346 597 325.5 606Q305 615 290 632Q275 649 267 672.5Q259 696 259 725ZM372 801Q361 801 352 796Q343 791 336 781Q330 771 326.5 757Q323 743 323 725Q323 707 326.5 693Q330 679 336 669Q343 659 352 654Q361 649 372 649Q384 649 393 654Q402 659 408 669Q415 679 418 693Q421 707 421 725Q421 743 418 757Q415 771 408 781Q402 791 393 796Q384 801 372 801ZM7 872L7 928L201 928L201 872L136 872L136 660L201 660L201 604L7 604L7 660L72 660L72 872L7 872Z" fill="#ac4142" />
  </g>
</svg>