<?xml version="1.0" encoding="UTF-8"?>
<svg width="16" height="16" viewBox="0 0 16 16" xmlns="http://www.w3.org/2000/svg">
  <g transform="translate(0.5099999999999998, 14.553069585755814) scale(0.01462890625, -0.01462890625)">
    <path d="M924 751Q933 763 936.5 778.5Q940 794 937 811Q929 853 889 868.5Q849 884 814 860Q756 902 688 928Q620 953 547.5 958.5Q475 964 401 948Q326 932 255 891Q128 817 64 697Q0 577 0 448Q0 319 64 199Q128 79 255 5Q383 -69 519 -64Q655 -59 767.5 5.5Q880 70 952 185Q1024 301 1024 448Q1024 492 1017 533Q1010 574 997.5 612Q985 650 966 685Q948 720 924 751ZM275 39Q157 107 98 218Q39 329 39 448Q39 567 98 678Q157 789 275 857Q340 894 408 909Q476 924 543 919.5Q610 915 672 892Q735 869 788 830Q773 800 785.5 766.5Q798 733 833 721Q850 715 865.5 716.5Q881 718 895 725Q937 668 961 598Q985 528 985 448Q985 312 918 206Q851 99 747.5 39.5Q644 -20 519 -25Q393 -29 275 39ZM276 448Q276 504 289 548Q302 592 330.5 622Q359 652 404 668Q449 684 512 684Q570 685 614 670Q658 656 688 627Q718 598 733 553Q748 509 748 448Q748 393 735 349Q722 305 693.5 274.5Q665 244 620 227Q575 211 512 212Q448 212 403 230Q358 247 330 277.5Q302 308 289 352Q276 395 276 448Z" fill="#6a9fb5" />
  </g>
</svg>