<?xml version="1.0" encoding="UTF-8"?>
<svg width="16" height="16" viewBox="0 0 16 16" xmlns="http://www.w3.org/2000/svg">
  <g transform="translate(0.020000000000000462, 14.9825) scale(0.015585937499999999, -0.015585937499999999)">
    <path d="M411 241L365 197L209 270L321 372L350 359L350 276L411 241ZM524 209L524 392L377 463L377 292L524 209ZM172 389L251 346L316 405L350 389L350 479L172 567L172 389ZM361 503L409 546L320 591L320 690L291 702L174 596L361 503ZM431 566L483 613L483 711L347 781L347 608ZM677 196L677 -8L797 107L797 293L677 196ZM636 817L511 712L511 608L570 581L636 646L636 817ZM899 400L899 213L1024 318L1024 506L899 400ZM200 244L200 52L355 -31L355 171L200 244ZM0 338L0 160L172 67L172 257ZM914 571L914 528L913 527L731 357L825 318L825 239L871 216L871 413L1005 526L914 571ZM748 592L678 533L688 529L688 375L703 369L748 409ZM347 812L495 736L626 845L461 927L347 820L347 812ZM886 539L886 709L776 616L776 435ZM664 687L763 641L886 744L718 828L664 785L664 687ZM436 227L382 175L382 -18L472 72L472 207ZM182 283L230 326L145 372L145 461L119 475L4 367L182 283ZM661 317L661 489L551 395L551 216L661 317ZM650 546L740 622L664 656L664 634L597 569ZM493 585L387 489L535 417L649 516ZM649 194L595 219L541 168L499 192L499 71L649 -9L649 194ZM688 345L688 304L617 239L661 219L774 309Z" fill="#be2f31" />
  </g>
</svg>