<?xml version="1.0" encoding="UTF-8"?>
<svg width="16" height="16" viewBox="0 0 16 16" xmlns="http://www.w3.org/2000/svg">
  <g transform="translate(-0.46999999999999886, 15.411249999999999) scale(0.016542968749999998, -0.016542968749999998)">
    <path d="M970 843L943 693Q937 690 936.5 685.5Q936 681 940 679L996 679Q1004 678 1005 685.5Q1006 693 997 692ZM941 677L941 557L924 556Q922 547 925 537.5Q928 528 935 523L935 238Q927 236 925.5 228.5Q924 221 933 219L923 131L913 131L913 221L883 221L882 404Q890 410 889.5 417Q889 424 890 431L880 431L879 514Q882 516 883 521Q884 526 879 526L860 629Q859 631 858 630.5Q857 630 856 629L839 527Q832 524 832 521.5Q832 519 837 516L837 430Q837 430 832.5 430Q828 430 826 430Q824 418 828 412Q832 406 832 406L831 282L800 282L800 299L778 299L778 350L785 350Q785 350 785 352.5Q785 355 784 355Q783 355 781.5 355Q780 355 779 355L779 413L739 413L739 421L725 421Q699 474 650.5 506Q602 538 535 542L535 542L535 555Q534 559 532 563Q530 567 526 570Q526 570 526 571.5Q526 573 526 575Q526 575 527 575Q528 575 529 576L528 581Q528 581 528 582.5Q528 584 526 584Q527 590 525.5 591Q524 592 524 592L524 596Q526 597 526 599.5Q526 602 524 602Q524 602 523.5 606.5Q523 611 522 612Q521 612 520.5 608Q520 604 520 604Q519 603 518.5 600Q518 597 520 595L519 584Q517 582 516.5 580Q516 578 519 576L519 571Q515 570 512 564.5Q509 559 509 556L509 543Q450 539 397 508Q344 477 320 421L305 421L306 413L264 412L264 354Q263 354 262 354Q261 354 260 354Q258 354 257.5 351.5Q257 349 257 349L264 349L264 298L245 298L245 282L191 282L190 403Q195 410 196 416Q197 422 197 431L188 431L187 517Q192 519 192 523.5Q192 528 187 529L167 631Q167 631 166.5 631.5Q166 632 166 632Q166 632 165.5 631.5Q165 631 164 631L147 529Q139 525 140 522Q141 519 144 517L144 431L132 431Q132 424 132 417Q132 410 140 403L141 221L108 221L108 130L98 130L89 220Q100 223 98 229Q96 235 89 238Q89 238 89 281Q89 324 89 376Q89 428 89 472Q89 517 89 520Q88 526 93.5 530Q99 534 99 548Q100 557 93.5 557Q87 557 82 557L82 677L25 677L25 557Q20 557 17 557Q14 557 13 557Q10 557 9.5 552Q9 547 10 540Q11 532 15 527Q19 522 19 522L21 244Q21 237 19 236.5Q17 236 14 235Q9 234 10 227Q11 220 18 220Q19 210 9.5 132Q0 54 0 54L1024 53L1005 220Q1017 221 1014 229.5Q1011 238 1002 237L1002 522Q1006 524 1011 533.5Q1016 543 1012 557L997 557L997 677ZM517 407Q521 407 524.5 404.5Q528 402 529 397L529 359L504 359L505 396Q506 402 509.5 404.5Q513 407 517 407ZM427 407Q431 407 435 404Q439 401 440 396L440 359L416 359L417 398Q418 403 421 405Q424 407 427 407ZM663 407Q667 407 669.5 404Q672 401 673 396L673 359L651 359L651 397Q653 402 656.5 404.5Q660 407 663 407ZM548 407Q552 407 555 404Q558 401 559 397L559 359L534 359L535 397Q536 402 540 404.5Q544 407 548 407ZM399 407Q403 407 406.5 404.5Q410 402 411 397L411 359L389 359L389 399Q391 403 393.5 405Q396 407 399 407ZM743 407Q746 407 748.5 404Q751 401 753 396L753 385Q742 385 739.5 383.5Q737 382 732 378L731 396Q733 401 736 404Q739 407 743 407ZM371 407Q374 407 377.5 404.5Q381 402 383 397L383 359L360 359L361 399Q362 403 365 405Q368 407 371 407ZM486 407Q490 407 493.5 404.5Q497 402 498 397L498 359L475 359L476 399Q477 403 480 405Q483 407 486 407ZM575 407Q579 407 583 404.5Q587 402 588 397L588 359L565 359L565 399Q567 403 569.5 405Q572 407 575 407ZM689 407Q693 407 696.5 404.5Q700 402 700 397L700 359L679 359L680 399Q681 403 683.5 404.5Q686 406 689 407ZM318 407Q321 406 324 403.5Q327 401 328 396L328 359L321 359Q320 362 318.5 369.5Q317 377 310 378Q310 380 308.5 381Q307 382 306 383L306 397Q308 402 311.5 404.5Q315 407 318 407ZM343 407Q347 407 350.5 404.5Q354 402 355 397L355 359L333 359L334 399Q335 403 337.5 404.5Q340 406 343 407ZM455 407Q459 407 462.5 404.5Q466 402 467 397L467 359L445 359L446 399Q447 403 449.5 404.5Q452 406 455 407ZM716 406Q719 407 722.5 404.5Q726 402 728 397L728 374Q727 373 725.5 370Q724 367 724 363Q723 362 722 361Q721 360 721 359L705 359L705 398Q707 402 710 404Q713 406 716 406ZM607 406Q610 406 613 403.5Q616 401 617 396L616 359L594 359L594 396Q596 402 599.5 404.5Q603 407 607 406ZM291 406Q295 406 297.5 404.5Q300 403 302 399L302 384L281 384L281 398Q282 402 285 404Q288 406 291 406ZM634 406Q638 406 641.5 403.5Q645 401 646 396L646 359L623 359L623 395Q624 401 627 403.5Q630 406 634 406ZM322 349L329 349L329 299L322 299ZM713 349L721 349L721 299L713 299ZM291 318L296 318L296 283L291 283ZM747 318L753 318L753 283L747 283ZM344 298L350 298L350 71L344 71ZM692 298L700 298L700 71L692 71ZM519 258Q526 258 531.5 253.5Q537 249 537 240L537 182L501 182L501 240Q501 249 506.5 253.5Q512 258 519 258ZM475 232Q480 232 484 229Q488 226 488 219L488 183L461 183L461 219Q461 226 465.5 229Q470 232 475 232ZM563 232Q568 232 572.5 229Q577 226 577 219L577 183L550 183L550 219Q550 226 554 229Q558 232 563 232ZM291 230L296 230L296 212L291 212ZM747 230L753 230L753 212L747 212ZM291 163L296 163L296 144L291 144ZM747 163L753 163L753 144L747 144ZM383 154Q388 154 391.5 150.5Q395 147 395 140L395 104L372 104L372 140Q372 147 375.5 150Q379 153 383 154ZM429 153Q433 153 437 149.5Q441 146 441 139L441 104L417 104L417 140Q417 146 421 149.5Q425 153 429 153ZM474 153Q479 153 483 149.5Q487 146 487 139L487 103L462 103L462 139Q462 146 466 149.5Q470 153 474 153ZM520 153Q524 153 528 149.5Q532 146 532 139L532 103L507 103L507 139Q507 146 511 149.5Q515 153 520 153ZM564 153Q568 153 572 149.5Q576 146 576 139L576 103L551 103L551 139Q551 146 555 149.5Q559 153 564 153ZM610 153Q615 153 619 149.5Q623 146 623 139L623 103L598 103L598 139Q598 146 601.5 149.5Q605 153 610 153ZM655 153Q660 153 664 149.5Q668 146 668 139L668 103L642 103L642 139Q642 146 646 149.5Q650 153 655 153ZM55 840L28 693Q23 689 22.5 684.5Q22 680 26 678L81 678Q89 677 90 685Q91 693 82 693Z" fill="#46788d" />
  </g>
</svg>