<?xml version="1.0" encoding="UTF-8"?>
<svg width="16" height="16" viewBox="0 0 16 16" xmlns="http://www.w3.org/2000/svg">
  <g transform="translate(1.4903346011513148, 13.696250000000001) scale(0.012714843750000001, -0.012714843750000001)">
    <path d="M427 960L989 960L989 813Q989 813 957 813Q925 813 897 813Q868 813 853 796.5Q838 780 838 757Q838 746 838 680Q838 614 838 528.5Q838 443 838 354Q838 266 838 209Q838 95 782.5 45Q727 -5 727 -5Q727 -5 672.5 -34Q618 -63 518 -63Q467 -63 410 -64Q353 -64 297 -56.5Q241 -49 190 -29Q139 -9 102 33Q70 69 52 105.5Q34 142 35 195Q36 243 57 278Q78 313 127 339Q172 361 223 363Q275 364 316 345Q357 326 377 287Q398 248 381 190Q371 158 346 143Q321 128 320 115Q317 92 325.5 73Q334 54 352 54Q411 54 445.5 48Q480 42 510 54Q566 76 572 125.5Q578 175 578 175Q578 175 578 263Q578 351 578 458.5Q578 566 578 660Q578 754 578 766Q578 790 559.5 801.5Q541 813 524 813Q506 813 466.5 813Q427 813 427 813L427 960Z" fill="#9dc0ce" />
  </g>
</svg>