<?xml version="1.0" encoding="UTF-8"?>
<svg width="16" height="16" viewBox="0 0 16 16" xmlns="http://www.w3.org/2000/svg">
  <g transform="translate(1.0121414412313439, 14.121126302083333) scale(0.013671875, -0.013671875)">
    <path d="M938 332Q943 328 943.5 320.5Q944 313 938 309Q924 300 906.5 299Q889 298 871 301Q842 304 812.5 310Q783 316 768 343Q768 343 767.5 343Q767 343 766 345Q748 355 767 361.5Q786 368 796 369Q816 371 837 368Q858 365 878 360Q894 357 909.5 351Q925 345 938 332L938 332ZM975 556Q966 608 958.5 661.5Q951 715 933 766Q924 787 916.5 807Q909 827 885 830Q852 836 854.5 814Q857 792 861 766Q867 727 872 687Q877 647 888 609Q895 582 898.5 559.5Q902 537 866 558Q806 593 778 662.5Q750 732 727 791Q716 818 689.5 867.5Q663 917 641 933Q630 942 593 949Q556 956 547 949Q536 942 545 917Q553 891 568 862Q583 833 598 806Q614 780 618 771Q638 730 659.5 691Q681 652 707 616Q725 591 740.5 568Q756 545 715 529Q673 513 647 530Q621 547 592 568Q569 585 541 590Q513 595 483 599Q404 608 330.5 594.5Q257 581 194 529Q164 504 143 470Q122 436 105 400Q101 391 84 336.5Q67 282 70 282Q54 284 54.5 306.5Q55 329 34 307Q15 287 29.5 243.5Q44 200 52 182Q71 139 88.5 96Q106 53 122 8Q136 -38 147.5 -45.5Q159 -53 201 -56Q253 -60 305 -49Q357 -38 409 -32Q409 -32 377.5 -4.5Q346 23 528 -40Q569 -54 611 -54.5Q653 -55 696 -56Q726 -49 734.5 -9Q743 31 759 54Q765 63 786.5 95.5Q808 128 818 132Q831 136 848 128Q865 120 878 117Q953 106 979.5 155Q1006 204 994 265Q984 318 987.5 373.5Q991 429 999 470Q999 486 988 514Q977 542 975 556Z" fill="#ac4142" />
  </g>
</svg>