<?xml version="1.0" encoding="UTF-8"?>
<svg width="16" height="16" viewBox="0 0 16 16" xmlns="http://www.w3.org/2000/svg">
  <g transform="translate(0.018953183302238705, 14.98208984375) scale(0.015585937499999999, -0.015585937499999999)">
    <path d="M1024 384Q1024 392 1024 384.5Q1024 377 1024 384Q1024 405 1005.5 412Q987 419 972 424Q952 430 932.5 436.5Q913 443 893 450Q873 457 852 463.5Q831 470 810 475Q805 477 798.5 477.5Q792 478 787 480Q778 485 780 483.5Q782 482 779 490Q776 497 777 509Q778 521 777 529Q776 570 772.5 611.5Q769 653 761 693Q753 732 725.5 745.5Q698 759 663 763Q652 764 639.5 764Q627 764 617 768Q600 773 585 779Q570 785 553 787Q519 790 484.5 783.5Q450 777 418 769Q385 760 350.5 747.5Q316 735 290 711Q264 685 255 652Q246 619 239 585Q239 582 238.5 574.5Q238 567 236 566Q233 564 219 566Q205 568 202 568Q186 568 171 566.5Q156 565 141 561Q114 554 90.5 539Q67 524 50 501Q4 440 0.5 370Q-3 300 27 232Q54 172 104 141Q154 110 219 108Q255 108 289.5 117Q324 126 358 136Q391 146 424 156Q457 166 490 175Q563 197 635.5 220Q708 243 779 273Q811 286 844 299.5Q877 313 910 327Q928 334 946.5 340.5Q965 347 984 351Q997 354 1010.5 360.5Q1024 367 1024 384ZM215 538Q225 537 240.5 535Q256 533 262 543Q265 549 265.5 558Q266 567 267 574Q269 584 270.5 593Q272 602 274 611Q279 638 290 662Q301 686 325 703Q350 720 381 729Q412 738 441 745Q472 752 508 757.5Q544 763 575 752Q543 749 513.5 738.5Q484 728 454 718Q439 713 424.5 709Q410 705 396 700Q383 697 367 692.5Q351 688 344 675Q340 664 344.5 654Q349 644 360 642Q374 640 389.5 650.5Q405 661 415 668Q439 683 462.5 699Q486 715 512 726Q542 737 573.5 740Q605 743 636 739Q658 736 685 732Q712 728 725 707Q732 697 733.5 685Q735 673 737 661Q740 643 742 624.5Q744 606 745 588Q747 572 747.5 556Q748 540 749 524Q749 511 748 493.5Q747 476 752 464Q756 452 776.5 450.5Q797 449 808 446Q826 442 843.5 436.5Q861 431 878 425Q907 415 937.5 406.5Q968 398 995 384Q983 377 965.5 374.5Q948 372 934 367Q916 360 898 353Q880 346 862 338Q826 323 790.5 308Q755 293 719 279Q646 251 570.5 229Q495 207 420 184Q356 165 287.5 145.5Q219 126 152 148Q92 168 60.5 227.5Q29 287 27 347Q26 383 39.5 421.5Q53 460 76 488Q100 518 139 530Q178 542 215 538Q219 538 214.5 538.5Q210 539 215 538ZM656 321Q680 329 706.5 338.5Q733 348 753 365Q770 381 768.5 399.5Q767 418 761 438Q751 422 742 414Q733 406 718 397Q699 385 682 377Q665 369 644 363Q602 350 558 344Q514 338 470 337Q426 335 381.5 338.5Q337 342 295 357Q280 362 263.5 368.5Q247 375 238 388Q229 398 225.5 406Q222 414 218 426Q208 402 210.5 377.5Q213 353 239 336Q265 319 296 310Q327 301 357 297Q430 286 507.5 292.5Q585 299 656 321Q679 328 643.5 317Q608 306 656 321ZM646 543Q623 549 562.5 568Q502 587 534 628Q549 647 576 654.5Q603 662 626 662Q645 662 671.5 660.5Q698 659 711 680Q721 697 696.5 705Q672 713 661 715Q638 720 613.5 721.5Q589 723 565 718Q529 711 488 678Q447 645 480 603Q496 584 519.5 570Q543 556 566 548Q579 544 592.5 541.5Q606 539 620 538Q626 537 636.5 535Q647 533 646 543ZM357 170Q396 184 434.5 200.5Q473 217 512 232Q551 247 591.5 259Q632 271 672 285Q712 298 751.5 311.5Q791 325 832 337Q865 347 886 360.5Q907 374 940 382Q921 384 913 386Q905 388 886 384Q860 379 834.5 372Q809 365 784 357Q735 342 687.5 324.5Q640 307 593 287Q549 269 505.5 250Q462 231 419 211Q378 191 330 171Q282 151 235 153Q194 154 155.5 169Q117 184 90 215Q102 182 133 165.5Q164 149 198 144Q238 139 278.5 147.5Q319 156 357 170Q378 177 349 166.5Q320 156 357 170ZM49 360Q63 392 78.5 427.5Q94 463 127 481Q150 494 188 500Q226 506 247 486Q248 494 251.5 507Q255 520 246 525Q240 529 225 528Q210 527 203 526Q181 525 159 518.5Q137 512 119 499Q84 477 64 435Q44 393 46 352Q47 354 48 356Q49 358 49 360Z" fill="#7c4426" />
  </g>
</svg>