<?xml version="1.0" encoding="UTF-8"?>
<svg width="16" height="16" viewBox="0 0 16 16" xmlns="http://www.w3.org/2000/svg">
  <g transform="translate(0.020000000000000462, 14.984966129351267) scale(0.015585937499999999, -0.015585937499999999)">
    <path d="M472 536L552 536L571 563L571 776L453 776L453 563L472 536ZM421 441L446 517L426 544L224 609L187 497L389 431Q389 431 405 436Q421 441 421 441ZM496 363L431 410L399 400L275 228L371 158L496 330L496 363ZM593 410L528 363L528 330L653 158L749 228L624 400L593 410ZM578 517L603 441L635 431L837 497L800 609L598 544Q598 544 588 530.5Q578 517 578 517ZM822 334L668 384L679 416L832 366L822 334ZM626 581L600 600L694 731L721 712L626 581ZM399 582L304 713L331 732L426 601L399 582ZM201 336L191 368L345 417L355 386Q355 386 331 378Q307 371 278 361.5Q249 352 225 344Q201 336 201 336ZM495 122L527 122L527 283L495 283Q495 283 495 258Q495 233 495 202.5Q495 172 495 147Q495 122 495 122ZM255 5Q128 79 64 199Q0 319 0 448Q0 577 64 697Q128 817 255 891Q383 965 519 960Q655 955 767.5 890.5Q880 826 952 711Q1024 595 1024 448Q1024 301 952 185Q880 70 767.5 5.5Q655 -59 519 -64Q383 -69 255 5ZM920 448Q920 565 863 657Q805 749 715.5 800.5Q626 852 518 856Q409 860 307 801Q206 743 155 647Q104 551 104 448Q104 345 155 249Q206 153 307 95Q409 36 518 40Q626 44 715.5 95.5Q805 147 863 239Q920 331 920 448Z" fill="#aa759f" />
  </g>
</svg>