<?xml version="1.0" encoding="UTF-8"?>
<svg width="16" height="16" viewBox="0 0 16 16" xmlns="http://www.w3.org/2000/svg">
  <g transform="translate(2.2146375229779403, 14.9805517578125) scale(0.015585937499999999, -0.015585937499999999)">
    <path d="M238 176Q221 172 200 160Q179 148 187 126Q202 102 231 94.5Q260 87 286 82Q352 73 418.5 82.5Q485 92 545 121Q525 127 505.5 137.5Q486 148 467 156Q411 145 353 142Q295 139 240 154Q243 161 256.5 171.5Q270 182 249 177Q246 177 243.5 177Q241 177 238 176ZM214 284Q197 277 175 267Q153 257 156 234Q167 210 192.5 204Q218 198 240 193Q281 187 323 187Q364 186 405.5 190.5Q447 195 487 203Q528 212 567 224Q550 231 532.5 238.5Q515 246 502 260Q432 246 359.5 241.5Q287 237 217 252Q207 257 219 265Q231 273 232 279Q252 296 236 289Q220 282 214 284ZM585 736Q527 718 469.5 690.5Q412 663 377 610Q352 571 365 527Q378 483 406 452Q427 432 421.5 404.5Q416 377 395 361Q374 343 389 343.5Q404 344 416 353Q447 371 472.5 404Q498 437 485 476Q475 505 450 532.5Q425 560 438 594Q465 642 512.5 669Q560 696 602 729Q618 739 604.5 736.5Q591 734 585 736ZM81 57Q106 74 136.5 79Q167 84 197 80Q183 90 169 99Q155 108 136 105Q101 102 66 91Q31 80 6 54Q-7 40 5.5 25.5Q18 11 33 10Q98 -3 163 -9Q229 -16 295 -17Q361 -18 427 -14Q493 -9 558 3Q591 12 628 20.5Q665 29 689 56Q701 76 682.5 88.5Q664 101 648 103Q641 101 652 91.5Q663 82 663 74Q647 56 622 52.5Q597 49 574 44Q492 33 413 29Q333 26 266.5 28Q200 30 151 38Q102 45 81 57ZM551 328Q564 335 576.5 341.5Q589 348 599 358Q559 360 518.5 351.5Q478 343 438 341Q372 337 305 333.5Q238 330 173 343Q163 345 174 349Q185 353 188 355Q211 366 236 371.5Q261 377 284 389Q274 392 265 394.5Q256 397 246 396Q204 394 162 382.5Q120 371 85 347Q72 336 82.5 323.5Q93 311 106 309Q151 297 218 293Q286 290 353 293Q420 296 475 306Q531 315 551 328ZM641 405Q620 405 601 395Q582 385 574 364Q564 351 581.5 361.5Q599 372 608 372Q637 384 662.5 360.5Q688 337 674 308Q660 272 627.5 251.5Q595 231 566 210Q543 191 548 188.5Q553 186 579 195Q625 209 671.5 234Q718 259 734 309Q744 350 712.5 379.5Q681 409 641 405ZM449 960Q451 952 453 943.5Q455 935 457 926Q473 863 447 821Q422 778 381.5 744Q341 710 298 677Q256 644 237 599Q221 553 247.5 512.5Q274 472 303 440Q323 420 343.5 400Q364 380 387 364Q377 417 336 459Q295 501 301 559Q311 614 357.5 646.5Q404 679 437 719Q493 780 500.5 842.5Q508 905 449 960ZM108 -14Q142 -47 187.5 -51.5Q233 -56 276 -61Q324 -63 374 -64Q423 -65 472 -62Q521 -59 569 -51Q617 -43 664 -29Q691 -20 717 1Q743 22 735 55Q738 75 730.5 60.5Q723 46 719 42Q690 14 618 -3Q545 -20 455.5 -26Q366 -32 273 -29Q180 -26 108 -14Z" fill="#8f5536" />
  </g>
</svg>