<?xml version="1.0" encoding="UTF-8"?>
<svg width="16" height="16" viewBox="0 0 16 16" xmlns="http://www.w3.org/2000/svg">
  <g transform="translate(3.5951742788461543, 14.989556966145832) scale(0.015585937499999999, -0.015585937499999999)">
    <path d="M202 -10Q204 -6 218 30Q232 65 254.5 122.5Q277 180 306 254Q334 329 366 411Q471 689 507.5 754Q544 819 559 834Q568 843 564 851.5Q560 860 560 862Q548 883 518 902Q488 922 452.5 936Q417 950 381 956Q345 963 320 958Q314 956 312.5 949.5Q311 943 311 924Q311 900 304 876Q297 852 273 791Q269 782 227 666Q184 550 134 414.5Q84 279 44 168Q3 57 3 57Q-6 26 12 -6Q31 -37 63 -52.5Q95 -68 133 -61Q171 -54 202 -10ZM444 925Q485 908 503 890.5Q521 873 504 866Q488 860 433.5 879.5Q379 899 360 918Q352 925 351.5 929Q351 933 355 938Q362 946 386.5 942.5Q411 939 444 925ZM354 856Q368 841 396 831Q424 821 456 819Q473 818 484 817.5Q495 817 495 816Q495 816 492.5 811.5Q490 807 487 802Q484 798 472 769Q460 740 447 705Q426 650 416.5 631.5Q407 613 392 599Q370 579 338 561.5Q306 544 281 537Q270 535 255 530Q240 525 230 521Q221 517 210 513Q199 509 197 509Q197 509 214 553Q231 598 252 653.5Q273 709 291 759Q310 809 314 819Q322 840 329 854.5Q336 869 337 869Q339 869 344 865.5Q349 862 354 856ZM308 400Q308 400 330.5 457Q353 514 355 517Q359 525 359.5 534.5Q360 544 357 544Q356 544 350.5 541.5Q345 539 339 535Q329 529 329.5 529.5Q330 530 341 539Q348 544 358 553Q368 562 376 569Q389 581 397.5 585.5Q406 590 401 583L401 583Q401 582 392 558Q382 535 367 495.5Q352 456 332 403Q312 350 290 291Q217 100 195.5 48.5Q174 -3 161 -14Q154 -22 145.5 -27Q137 -32 133 -32Q128 -32 129.5 -30Q131 -28 139 -26Q145 -23 149 -19Q153 -15 153 -10Q153 -6 154.5 -2.5Q156 1 158 3Q160 4 163 10Q166 16 167 23Q169 31 171 38.5Q173 46 175 49Q175 49 190 89Q206 130 225 179Q244 228 260 272Q277 315 279 321Q284 333 289 343.5Q294 354 296 356Q301 366 300 374.5Q299 383 308 400ZM23 48Q23 51 34 83Q45 116 58.5 154.5Q72 193 83 225Q94 257 94 257Q94 260 105.5 273.5Q117 287 133 303Q149 319 158 331Q167 343 164 343Q161 343 153.5 337.5Q146 332 139 325Q131 318 126 314.5Q121 311 121 314Q121 327 148 390.5Q175 454 185 464Q194 474 219.5 492.5Q245 511 249 511Q250 511 250.5 509.5Q251 508 251 505Q251 503 248.5 501.5Q246 500 242 500Q235 500 226 479.5Q217 459 217 442Q217 435 215.5 429.5Q214 424 212 424Q206 424 195 398Q184 372 182 351Q180 332 181.5 326Q183 320 190 316Q201 310 203.5 299Q206 288 198 278Q192 269 179 267Q166 265 161 272Q155 282 151.5 276.5Q148 271 151 257Q153 243 151 238.5Q149 234 141 230Q134 227 128 218.5Q122 210 118 198L71 74Q67 63 62.5 47Q58 31 57 20Q55 4 57 -3Q59 -10 67 -20L80 -34Q60 -25 43 -1Q26 23 23 48Z" fill="#ac4142" />
  </g>
</svg>