<?xml version="1.0" encoding="UTF-8"?>
<svg width="16" height="16" viewBox="0 0 16 16" xmlns="http://www.w3.org/2000/svg">
  <g transform="translate(1.2528527832031244, 15.897282462284483) scale(0.017636718750000002, -0.017636718750000002)">
    <path d="M410 740Q367 750 343.5 728Q320 706 307 677Q295 680 297 692.5Q299 705 302 713Q309 734 335 755.5Q361 777 387 773Q398 772 408 762.5Q418 753 410 740ZM689 675Q689 675 690 675Q691 675 691 675Q701 655 710 634Q719 613 732 596Q723 577 686 568Q649 559 650 593Q662 599 679 598Q696 597 706 604Q700 620 693.5 636Q687 652 689 675ZM439 674Q448 657 454 640.5Q460 624 473 611Q479 605 486.5 597Q494 589 488 573Q487 569 479.5 562.5Q472 556 466 554Q446 548 413.5 554.5Q381 561 397 587Q414 586 434 581Q454 576 467 588Q457 604 445 630Q433 656 439 674ZM678 446Q648 426 611.5 409Q575 392 524 397Q514 407 511 424.5Q508 442 518 456Q524 447 525 433.5Q526 420 541 417Q570 412 600.5 427.5Q631 443 651 451Q664 472 655 483.5Q646 495 635 508Q611 537 586 572Q561 607 563 650Q572 657 574.5 646Q577 635 578 632Q591 603 617 569.5Q643 536 666 511Q671 505 678.5 499.5Q686 494 687 490Q690 478 683.5 465.5Q677 453 678 446ZM704 419Q690 392 667 367Q644 342 602 341Q601 350 601 361.5Q601 373 602 378Q634 381 657 394.5Q680 408 704 419ZM436 395Q463 381 506.5 378Q550 375 586 376Q588 368 588.5 358.5Q589 349 589 339Q542 337 495 349.5Q448 362 436 395ZM429 360Q448 314 502.5 310Q557 306 610 307Q608 301 603 295Q598 289 592 286Q575 279 536.5 276.5Q498 274 474 287Q459 295 448.5 310Q438 325 430 336Q426 341 415.5 350.5Q405 360 429 360ZM620 907Q645 888 678.5 853Q712 818 727 789Q746 750 755 701Q764 651 765 597.5Q766 544 759 490Q752 436 739 389Q717 314 680.5 264Q644 214 629 207Q511 152 463 164.5Q415 177 388 191Q358 206 311 256Q264 306 264 345Q299 297 334.5 257Q370 217 434 196Q482 180 546.5 200.5Q611 221 636 253Q672 299 694 344Q716 388 727.5 431.5Q739 475 742 516Q744 557 743 595Q741 629 739 660.5Q737 692 725 714Q714 738 681.5 752Q649 766 626 745Q622 768 641.5 780Q661 792 689 783Q669 809 647 836.5Q625 864 597 879Q548 907 476.5 921Q405 935 353 909Q311 888 263 854.5Q215 821 195 777Q213 734 200.5 694Q188 654 186 611Q185 589 193 567.5Q201 546 202 521Q196 511 180 508.5Q164 506 151 507Q147 529 137 549.5Q127 570 105 572Q73 576 51.5 554.5Q30 533 29 505Q27 472 51 431Q75 390 113 394Q127 396 134.5 406Q142 416 158 416Q167 398 153.5 389.5Q140 381 137 369Q137 366 138.5 356Q140 346 142 340Q149 312 162.5 279Q176 246 192 224L205 157Q201 160 180.5 185.5Q160 211 156 209Q149 215 128 278Q107 341 106 356Q74 360 49 385Q25 409 12 443Q-1 477 0 514Q2 552 22 581Q9 656 26 706.5Q43 757 74 771Q88 826 131.5 852.5Q175 879 222 906Q280 938 339 950Q398 962 451 959.5Q504 957 548 943Q592 929 620 907ZM491 56Q489 44 491.5 37.5Q494 31 496 18Q534 6 530 43Q526 80 491 56ZM434 74Q418 83 395 92Q372 101 351 105Q325 110 322.5 79.5Q320 49 321 24Q322 5 329.5 -14Q337 -33 341 -46Q343 -52 344.5 -57Q346 -62 351 -64Q360 -66 383 -57.5Q406 -49 415 -44Q433 -35 447.5 -21Q462 -7 478 3Q478 9 478 14Q478 19 478 24Q469 28 458.5 31Q448 34 434 35Q443 40 455 41.5Q467 43 475 48Q475 50 475.5 52Q476 54 476 56Q460 58 452 63.5Q444 69 434 74ZM654 41Q654 57 649.5 81.5Q645 106 635 111Q615 123 585.5 100.5Q556 78 541 73Q543 68 545 64Q547 60 547 54Q556 56 566 54.5Q576 53 584 50Q575 49 566 48Q557 47 551 43Q549 36 550 28Q551 20 550 11Q571 6 595 2.5Q619 -1 646 -2Q651 5 653 17Q655 29 654 41ZM129 457Q120 463 115 480Q110 497 98 498Q82 499 81.5 474.5Q81 450 81 431Q70 441 68 466Q66 491 74 507Q65 511 59.5 505Q54 499 49 496Q56 544 98 526Q140 508 129 457Z" fill="#ac4142" />
  </g>
</svg>