<?xml version="1.0" encoding="UTF-8"?>
<svg width="16" height="16" viewBox="0 0 16 16" xmlns="http://www.w3.org/2000/svg">
  <g transform="translate(1.4316210937499996, 14.54706610317888) scale(0.01462890625, -0.01462890625)">
    <path d="M485 585L358 960L898 960L770 583Q766 582 762 581Q758 580 754 578L628 836L502 580Q498 581 493.5 582.5Q489 584 485 585ZM69 -30Q133 -75 201 -62Q269 -50 344.5 -15Q420 20 504 60Q588 100 685 111Q740 114 785 132Q829 150 856.5 181Q884 212 890 255Q897 297 875 350Q795 301 732.5 346Q670 391 670 456L590 456Q588 398 547.5 359.5Q507 321 440 328Q387 249 326 202.5Q265 156 196 134Q149 156 115.5 206Q82 256 102 326Q93 327 84.5 329.5Q76 332 68 335Q36 275 18 221Q1 168 0 122Q-1 76 16 38Q33 -1 69 -30ZM196 456Q196 501 156 524Q116 547 77 524Q37 502 37 456Q37 410 77 387Q116 365 156 387.5Q196 410 196 456ZM538 457Q538 502 498.5 525Q459 548 420 525Q380 502 380 456.5Q380 411 420 388Q459 365 498.5 388Q538 411 538 457ZM880 457Q880 502 840.5 525Q801 548 761 525Q722 502 722 456.5Q722 411 761 388Q801 365 840.5 388Q880 411 880 457Z" fill="#66783e" />
  </g>
</svg>