<?xml version="1.0" encoding="UTF-8"?>
<svg width="16" height="16" viewBox="0 0 16 16" xmlns="http://www.w3.org/2000/svg">
  <g transform="translate(0.5099999999999998, 14.55375) scale(0.01462890625, -0.01462890625)">
    <path d="M598 -35L505 -33L510 23L513 74L500 74L500 116L493 116L492 135L515 139L516 293L500 294L501 336L493 337L493 358L516 358L516 395L494 395L494 412L483 412L483 416L477 416L466 435L551 453L637 433L624 416L618 416L618 414L607 412L606 396L581 395L581 352L638 351L640 423L647 506L645 535L468 525L319 517L317 468L317 416L313 339L378 338L377 366L360 366L359 384L346 383L334 403L407 420L485 404L463 387L456 386L455 371L436 369L435 335L450 336L450 285L438 285L436 227L441 172L444 158L454 158L451 98L444 99L446 1L376 1L382 99L326 94L324 -4L213 -2L224 42L230 88L145 86L159 -12L82 -11L84 89L70 92L66 145L90 148L90 289L75 289L75 324L71 327L63 344L89 351L89 384L68 385L67 399L60 399L40 416L112 437L203 416L193 402L173 398L171 380L148 380L149 347L244 342L254 514L129 509L126 556L120 556L122 575L127 581L130 581Q130 581 135.5 580.5Q141 580 160 577Q173 575 196 576Q219 577 233 578L226 579L260 609L260 623L248 625L247 642Q239 641 225 640.5Q211 640 201 640Q188 640 158 642Q128 644 126 645L122 645L108 691L81 693L74 715L29 721L11 722L0 741L39 775L25 825L35 821Q36 821 65 811Q94 801 138 790Q160 785 222 785Q283 786 360 790.5Q437 795 517 802Q598 809 657 817Q715 824 777 843Q839 861 890.5 880.5Q942 900 975 915Q1008 930 1009 930L1012 931L1023 922L1010 883L995 876L993 866L1024 799L1010 788L935 767L932 759L898 749L880 702L877 702Q877 701 855.5 697.5Q834 694 815 689Q799 686 768 683Q737 680 724 679L723 651L712 650L712 638L745 621L746 613L754 614Q774 616 819 622.5Q864 629 871 630L873 630L875 630L884 625L885 608L876 606L876 550L712 538L709 505L715 443L722 408L731 346L803 345L801 378L778 378L777 396L769 396L768 399L759 399L749 417L829 433L917 416L892 403L893 398L882 397L883 382L859 380L859 344L873 343L873 323L869 324L869 285L859 285L860 170L862 148L875 148L877 129L873 129L873 90L862 89L864 52L872 -8L854 -14L828 -14L796 -12L796 53L799 85L746 83L750 58L752 15L763 -17L739 -24L687 -26L642 -23L643 34L644 77L588 76L589 50L595 15L598 -35ZM585 141L642 139L634 204L636 287L583 290L585 141ZM739 285L745 217L747 144L803 148L803 287L739 285ZM147 287L147 149L236 153L230 176L230 227L239 282L147 287ZM312 283L314 238L314 193L317 154L379 155L378 283L312 283ZM318 607L346 592L345 585L424 588L423 590L425 604L418 615L418 632L410 642L411 653L331 648L330 622L317 622L318 607ZM533 607L532 599L612 603L615 614L649 636L650 650L632 650L633 673L545 662L542 648L542 645L540 637L538 631L537 615L533 607Z" fill="#be2f31" />
  </g>
</svg>