<?xml version="1.0" encoding="UTF-8"?>
<svg width="16" height="16" viewBox="0 0 16 16" xmlns="http://www.w3.org/2000/svg">
  <g transform="translate(1.096172146267361, 14.549005489864864) scale(0.01462890625, -0.01462890625)">
    <path d="M265 616Q272 524 265.5 463Q259 402 229 374Q206 351 161 349.5Q116 348 34 353Q20 354 12.5 343.5Q5 333 5 325Q3 256 3 186.5Q3 117 15 76Q49 24 105.5 5.5Q162 -13 238 -62Q250 -69 257.5 -57.5Q265 -46 252 -37Q251 -36 280 -32Q309 -27 352 -20Q395 -13 443 -4Q491 6 527 16Q558 20 582.5 42Q607 64 624 103Q638 133 646 163.5Q654 194 654 214Q654 231 652 272Q649 314 645.5 365Q642 416 640 469Q637 522 637 563Q685 574 707.5 580.5Q730 587 773 589Q829 592 864.5 592.5Q900 593 921 588Q929 584 937 589.5Q945 595 944 601Q943 615 939 647Q935 679 931.5 716.5Q928 754 926 791Q923 829 924 855L770 960Q758 959 708 953Q659 948 598.5 942.5Q538 937 479 933Q421 928 390 929Q319 932 261 927Q203 922 156.5 915Q110 908 75 902Q39 896 12 896Q12 896 10 869Q8 842 5.5 807.5Q3 773 1 740Q-1 708 0 696Q1 677 7 643.5Q13 610 13 610Q72 590 123 607.5Q174 625 265 616ZM483 675Q495 575 501 494Q507 413 504.5 350.5Q502 288 489 243Q476 197 450 169Q426 143 389 127Q353 112 302 104.5Q251 97 186 97Q121 96 39 99Q31 140 31 200Q31 260 34 327Q120 315 171 321.5Q222 328 251 355Q288 390 294 464Q300 538 291 643Q202 657 135 639Q68 621 37 636Q27 681 27.5 743.5Q28 806 38 876Q80 883 122 889Q165 895 208 899Q251 903 297 905Q342 907 389 905Q427 904 469 906Q511 909 557 913Q603 917 653 923Q702 928 755 934L790 702Q788 695 760 693Q732 691 688.5 690Q645 689 591 686Q537 684 483 675Z" fill="#6a9fb5" />
  </g>
</svg>