<?xml version="1.0" encoding="UTF-8"?>
<svg width="16" height="16" viewBox="0 0 16 16" xmlns="http://www.w3.org/2000/svg">
  <g transform="translate(0.5099999999999998, 14.553916237571023) scale(0.01462890625, -0.01462890625)">
    <path d="M693 871Q751 878 798 889Q846 901 884 911Q922 921 949 926Q976 932 992 927Q999 923 996 907Q993 891 974 887Q969 886 935 874Q901 863 848 845.5Q795 828 729 807Q663 786 595 765Q528 745 463 727Q398 708 344 694Q290 680 251 671Q212 662 196 660Q165 656 130 629Q96 601 67 569Q38 537 19 511Q0 484 0 484Q21 524 43 573Q66 621 106.5 669Q147 717 213 761Q279 804 386 834Q420 843 459 848Q499 853 540.5 857Q582 861 621 864Q661 867 693 871ZM28 41Q28 41 36 69Q44 96 55.5 136.5Q67 177 80 223Q93 268 103 303Q111 332 141.5 380.5Q172 429 247 442Q365 462 501 485Q637 509 753.5 529Q870 549 947 563Q1024 576 1024 576Q1021 492 992.5 447.5Q964 403 915 383Q851 268 770 178Q689 89 588.5 35.5Q488 -18 366 -30Q244 -43 97 -4Q50 6 38 17Q26 28 28 41ZM95 28Q152 17 254 13Q356 10 470.5 39.5Q585 69 694 146Q804 222 875 370Q837 361 791.5 359Q746 357 695 356Q690 300 656 231Q622 162 517 163Q413 163 379.5 219.5Q346 276 342 324Q262 303 212 274Q162 245 132 214Q102 183 88 153Q75 124 69 102Q61 72 73.5 53.5Q86 35 95 28ZM554 354Q554 333 564 302Q574 271 610 273Q644 276 649.5 305Q655 334 652 356Q628 356 603.5 355.5Q579 355 554 354Z" fill="#cc00a3" />
  </g>
</svg>