<?xml version="1.0" encoding="UTF-8"?>
<svg width="16" height="16" viewBox="0 0 16 16" xmlns="http://www.w3.org/2000/svg">
  <g transform="translate(0.507257080078125, 14.55375) scale(0.01462890625, -0.01462890625)">
    <path d="M545 -46Q489 -46 416 -26Q343 -7 270 38Q197 83 132 156Q68 229 28 335Q8 390 2 448Q-4 506 7.5 565Q19 624 51 683Q82 742 137 800Q97 719 94 638Q90 557 113.5 481Q137 405 183 338Q230 271 290 219Q359 159 453 122Q547 85 646 81Q745 77 838 112Q932 147 1000 231Q961 150 909 97Q857 43 797.5 11.5Q738 -20 674 -33Q609 -46 545 -46ZM1024 487Q986 431 927 401Q869 370 803.5 363.5Q738 357 670 374Q603 391 546 431Q434 510 398 592Q361 674 361.5 741.5Q362 809 381 852Q401 895 401 895Q370 858 344 815Q318 772 306 723Q294 674 299 619Q305 563 336 499Q355 462 381 429Q408 395 442 367Q476 339 515 319Q554 298 597 288Q655 273 719 275Q782 278 840.5 301Q899 324 947 369Q996 415 1024 487ZM997 675Q974 639 935 624Q896 609 852.5 609.5Q809 610 767 623Q726 637 697 660Q633 710 612 760Q591 810 591 850.5Q591 891 602 916Q612 942 612 942Q581 906 565 865Q550 823 552.5 780Q555 737 575 696Q596 654 636 618Q685 574 740 561Q796 547 846.5 557Q897 567 937 598Q977 630 997 675Z" fill="#46788d" />
  </g>
</svg>