<?xml version="1.0" encoding="UTF-8"?>
<svg width="16" height="16" viewBox="0 0 16 16" xmlns="http://www.w3.org/2000/svg">
  <g transform="translate(1, 14.125) scale(0.013671875, -0.013671875)">
    <path d="M824 189Q867 133 791.5 109.5Q716 86 670 168L588 120L593 112Q616 73 652.5 50Q689 27 738 20Q791 14 834 27Q877 40 903 67.5Q929 95 936 135Q942 175 923 224Q896 279 837.5 300Q779 321 738 349Q714 363 716.5 387Q719 411 738 423Q754 433 782.5 429Q811 425 829 388L907 438Q884 480 848 499Q812 517 774.5 518.5Q737 520 704 508Q672 496 655 477Q610 424 618 370Q626 316 665 278Q696 249 740 232.5Q784 216 824 189ZM453 31Q487 44 507 72.5Q527 101 532 143Q532 145 533 203Q533 261 533 330Q533 399 533 455Q533 512 533 512L434 512L433 153Q431 135 421 123.5Q411 112 396 110Q370 105 351 115Q332 125 314 159L233 110Q259 49 326 28Q393 7 453 31ZM90 960L934 960Q972 960 998 934Q1024 908 1024 870L1024 26Q1024 -12 998 -38Q972 -64 934 -64L90 -64Q52 -64 26 -38Q0 -12 0 26L0 870Q0 908 26 934Q52 960 90 960Z" fill="#ee9e2e" />
  </g>
</svg>