<?xml version="1.0" encoding="UTF-8"?>
<svg width="16" height="16" viewBox="0 0 16 16" xmlns="http://www.w3.org/2000/svg">
  <g transform="translate(-0.46999999999999886, 15.411249999999999) scale(0.016542968749999998, -0.016542968749999998)">
    <path d="M136 558L517 558L517 519L136 519L136 558ZM253 461L829 461L829 422L253 422ZM283 344L731 344L731 305L283 305L283 344ZM175 227L624 227L624 188L175 188L175 227ZM156 110L780 110L780 71L156 71ZM250 714L367 918L324 942L217 754L99 940L58 914L184 714L0 714L0 -46L1024 -46L1024 714ZM965 12L59 12L59 656L965 656Z" fill="#d28445" />
  </g>
</svg>