<?xml version="1.0" encoding="UTF-8"?>
<svg width="16" height="16" viewBox="0 0 16 16" xmlns="http://www.w3.org/2000/svg">
  <g transform="translate(-0.46999999999999886, 15.411249999999999) scale(0.016542968749999998, -0.016542968749999998)">
    <path d="M307 137L280 137Q253 137 235 141.5Q217 146 209 154Q201 162 196.5 180Q192 198 192 226L192 322Q192 353 188 375Q184 397 175 410Q166 424 151 433.5Q136 443 114 448Q136 453 151 462.5Q166 472 175 486Q183 499 187.5 521.5Q192 544 192 574L192 670Q192 698 196.5 716Q201 734 209 742Q217 751 235 755Q253 759 280 759L307 759L307 815L282 815Q234 815 201.5 807.5Q169 800 152 786Q136 772 128 743.5Q120 715 120 672L120 579Q120 550 115 529.5Q110 509 99 498Q89 487 70 481.5Q51 476 24 476L0 476L0 421L24 421Q51 421 70 415.5Q89 410 99 398Q109 387 114.5 367Q120 347 120 317L120 225Q120 182 128 153Q136 124 152 110Q169 96 201.5 88.5Q234 81 282 81L307 81L307 137ZM717 81L717 137L744 137Q771 137 789 141.5Q807 146 815 154Q823 163 827.5 181Q832 199 832 226L832 322Q832 353 836 375Q840 397 849 410Q858 424 873 433.5Q888 443 910 448Q888 453 873 462.5Q858 472 849 486Q840 499 836 521.5Q832 544 832 574L832 670Q832 698 827.5 715.5Q823 733 815 742Q807 751 789 755Q771 759 744 759L717 759L717 815L741 815Q790 815 822 807.5Q854 800 870 786Q887 772 895 743.5Q903 715 903 672L903 579Q903 550 908 529.5Q913 509 924 498Q934 487 953 481.5Q972 476 999 476L1024 476L1024 421L999 421Q972 421 953 415.5Q934 410 924 398Q913 387 908 367Q903 347 903 317L903 225Q903 182 895 153Q887 124 870 110Q854 96 822 88.5Q790 81 741 81L717 81ZM732 221Q712 184 671.5 171.5Q631 159 594 179Q567 193 552.5 219Q538 245 539 273Q539 281 528.5 299.5Q518 318 479 339Q429 365 409.5 360Q390 355 390 355L391 357Q368 338 337.5 334.5Q307 331 279 346Q241 366 228.5 406.5Q216 447 236 485Q256 522 296.5 534.5Q337 547 375 527Q376 527 377.5 526Q379 525 380 524L378 527Q378 527 400 522Q422 517 469 546Q516 575 521 593.5Q526 612 526 612L527 610Q524 626 526.5 642.5Q529 659 538 675Q558 712 598.5 724.5Q639 737 677 717Q714 697 726.5 656.5Q739 616 719 578Q711 564 700 553Q689 542 675 535L679 535Q679 535 667 519.5Q655 504 657 449Q658 394 670 379.5Q682 365 682 365L679 365Q682 364 684.5 363Q687 362 690 360Q727 340 739.5 299.5Q752 259 732 221ZM567 684Q545 660 544.5 628.5Q544 597 566 576Q555 587 555 606Q555 625 566 646Q568 648 571.5 650.5Q575 653 581 651Q582 651 582.5 651Q583 651 583 651Q584 651 585.5 651Q587 651 588 651Q597 651 603 657.5Q609 664 609 673Q609 677 607 680.5Q605 684 603 687Q624 700 644.5 702Q665 704 675 695L676 695Q653 715 621.5 712Q590 709 567 684ZM375 502Q353 522 321.5 519Q290 516 267 491Q245 467 244.5 435.5Q244 404 265 383Q255 393 255 412.5Q255 432 266 453Q267 454 271 457Q275 460 281 458Q281 458 281.5 458Q282 458 282 458Q284 458 285.5 457.5Q287 457 288 457Q297 458 303 464.5Q309 471 308 480Q308 484 306.5 487.5Q305 491 303 494Q323 507 344 509Q365 511 375 502L375 502ZM693 338Q671 359 639.5 355.5Q608 352 585 327Q563 303 562.5 271.5Q562 240 583 220Q573 230 573 249.5Q573 269 584 289Q585 291 589 294Q593 297 599 295Q599 294 599.5 294Q600 294 600 294Q602 294 603 294Q604 294 606 294Q615 294 621 300.5Q627 307 626 316Q626 320 624.5 323.5Q623 327 621 330Q641 344 662 345.5Q683 347 693 338L693 338ZM599 363Q606 369 615 387Q624 405 622 446Q621 486 613 504Q605 522 599 528Q594 529 589.5 531Q585 533 580 536Q578 537 575.5 538.5Q573 540 571 541Q567 543 547 542Q527 541 486 516Q439 487 433.5 470.5Q428 454 428 454L428 454Q429 448 429.5 441.5Q430 435 429 428Q430 422 441 405.5Q452 389 492 367Q530 347 549 346Q568 345 574 347Q580 352 586 356Q592 360 599 363Z" fill="#6a9fb5" />
  </g>
</svg>