<?xml version="1.0" encoding="UTF-8"?>
<svg width="16" height="16" viewBox="0 0 16 16" xmlns="http://www.w3.org/2000/svg">
  <g transform="translate(0.020000000000000462, 14.9825) scale(0.015585937499999999, -0.015585937499999999)">
    <path d="M610 354L429 444L610 535L792 444L610 354ZM214 766L396 675L577 766L396 857L214 766ZM410 468L595 561L595 742L410 650L410 468ZM182 749L0 659L182 568L182 749ZM410 39L594 131L410 221L410 39ZM839 39L1024 132L1024 313L839 221L839 39ZM839 468L1024 561L1024 742L839 650ZM643 766L824 675L1006 766L824 857ZM810 421L643 337L810 254L810 421ZM839 254L1006 337L839 421L839 254Z" fill="#46788d" />
  </g>
</svg>