<?xml version="1.0" encoding="UTF-8"?>
<svg width="16" height="16" viewBox="0 0 16 16" xmlns="http://www.w3.org/2000/svg">
  <g transform="translate(0.520930120294746, 14.553189921875) scale(0.01462890625, -0.01462890625)">
    <path d="M568 194Q663 267 684 367Q705 468 675.5 557.5Q646 647 579 705Q511 763 429 750Q275 726 210 622Q145 519 138.5 396Q132 273 169 161Q207 49 258 9Q178 49 122 115Q65 181 34.5 261Q4 341 0 429Q-3 517 22 601Q41 667 82 730Q122 793 181 843Q240 893 317 925Q394 956 487 959Q635 972 726 860Q817 747 835.5 603.5Q854 460 792 334Q729 208 568 194ZM438 700Q354 695 301 655Q248 615 220 556Q192 497 184 428Q177 359 184 297Q194 208 227 135Q260 63 313 15Q366 -33 438 -53Q510 -73 599 -58Q735 -35 848 72Q961 179 1003.5 323.5Q1046 468 995 624Q943 781 752 902Q822 820 856 705Q890 589 879 478Q868 367 808 278Q749 189 633 160Q525 127 450 185Q375 242 345 336Q315 430 335 534Q355 638 438 700Z" fill="#75b5aa" />
  </g>
</svg>