<?xml version="1.0" encoding="UTF-8"?>
<svg width="16" height="16" viewBox="0 0 16 16" xmlns="http://www.w3.org/2000/svg">
  <g transform="translate(0.5099999999999998, 14.55375) scale(0.01462890625, -0.01462890625)">
    <path d="M642 696Q642 696 619 696Q596 696 560.5 696.5Q525 697 481 697Q437 696 395 696L369 480L447 462Q462 482 514 482Q566 482 557 404Q557 404 550.5 371Q544 338 500 346Q472 351 465.5 372Q459 393 459 393L361 393Q360 334 407 301Q455 267 511.5 267Q568 267 614 302Q660 338 655 418Q650 488 602.5 530Q555 572 465 536L474 620L642 620ZM170 220Q159 224 151.5 232.5Q144 241 140 251Q131 278 131.5 305.5Q132 333 132 363Q132 393 117 417Q102 441 78 453Q123 474 128 512Q133 550 132 602Q132 625 141 651Q150 677 170 686L152 737Q100 722 73.5 690Q47 658 47 602Q46 582 47.5 560Q49 538 44 519Q39 502 27.5 494Q16 486 0 486L0 420Q26 419 36.5 401Q47 383 47 363Q47 337 47 310Q47 283 52 260Q64 222 82 201.5Q100 181 152 168ZM221 509Q194 523 194 551Q194 579 221 593Q247 607 274 593Q301 579 301 551Q301 523 274 509Q247 495 221 509ZM221 272Q194 286 194 314Q194 342 221 356Q247 370 274 356Q301 342 301 314Q301 286 274 272Q247 258 221 272ZM854 220Q865 224 872.5 232.5Q880 241 884 251Q893 278 892.5 305.5Q892 333 892 363Q892 393 907 417Q922 441 946 453Q901 474 896 512Q891 550 892 602Q892 625 883 651Q874 677 854 686L872 737Q927 709 952 683.5Q977 658 977 602Q978 582 976.5 560Q975 538 980 519Q985 502 996.5 494Q1008 486 1024 486L1024 420Q998 419 987.5 401Q977 383 977 363Q977 337 977 310Q977 283 972 260Q960 222 942 201.5Q924 181 872 168ZM815 284Q814 257 803.5 230.5Q793 204 778 184Q773 177 767 170.5Q761 164 755 159Q743 168 731.5 173.5Q720 179 705 182Q703 204 716 218Q729 232 733 248Q738 272 737.5 296.5Q737 321 737 347L815 347Q815 331 815 315.5Q815 300 815 284Z" fill="#ee9e2e" />
  </g>
</svg>