<?xml version="1.0" encoding="UTF-8"?>
<svg width="16" height="16" viewBox="0 0 16 16" xmlns="http://www.w3.org/2000/svg">
  <g transform="translate(1, 14.125) scale(0.013671875, -0.013671875)">
    <path d="M909 960L115 960Q69 960 35 928Q1 896 0 845L0 51Q1 0 35 -32Q69 -64 115 -64L909 -64Q968 -63 995.5 -26.5Q1023 10 1024 51L1024 845Q1023 886 995.5 922.5Q968 959 909 960ZM312 129Q306 85 278 58Q250 31 198 29Q159 28 127 45.5Q95 63 75 101L140 141Q140 141 150.5 124.5Q161 108 175 104Q182 101 195 101Q208 101 218 108Q227 114 230 125Q233 136 233 136L233 419L312 419L312 129ZM569 45Q522 24 453.5 36Q385 48 357 111L420 148Q443 103 490 100.5Q537 98 549 127Q560 156 531 171.5Q502 187 459 207Q439 217 415 235Q391 253 382 291Q375 320 385.5 357Q396 394 441 413L441 413Q503 436 547.5 415Q592 394 606 360L545 321Q539 333 525.5 343.5Q512 354 496 355Q481 356 469 347.5Q457 339 457 319Q458 289 491.5 279.5Q525 270 571 240Q605 219 615.5 199.5Q626 180 629 150Q631 128 621.5 96Q612 64 569 45ZM874 31L799 166L723 31L646 31L755 232L653 422L732 422L799 297L866 422L943 422L842 232L951 31L874 31Z" fill="#6a9fb5" />
  </g>
</svg>