<?xml version="1.0" encoding="UTF-8"?>
<svg width="16" height="16" viewBox="0 0 16 16" xmlns="http://www.w3.org/2000/svg">
  <g transform="translate(1, 14.125) scale(0.013671875, -0.013671875)">
    <path d="M396 489Q339 523 310 577Q281 631 281 689Q281 747 310 801Q339 856 396 889Q454 922 515 920Q577 918 627.5 888.5Q678 859 710 807Q743 755 743 689Q743 623 710 571Q678 519 627.5 490Q577 461 515 458Q454 456 396 489ZM461 207Q461 273 429 325Q396 377 345.5 406Q295 435 234 438Q173 440 115 407Q58 373 29 319Q0 265 0 207Q0 149 29 95Q58 40 115 7Q173 -26 234 -24Q295 -22 345.5 7.5Q396 37 429 89Q461 141 461 207ZM1024 207Q1024 273 991 325Q959 377 908.5 406Q858 435 796 438Q735 440 678 407Q620 373 591 319Q563 265 563 207Q563 149 591 95Q620 40 678 7Q735 -26 796 -24Q858 -22 908.5 7.5Q959 37 991 89Q1024 141 1024 207Z" fill="#aa759f" />
  </g>
</svg>