<?xml version="1.0" encoding="UTF-8"?>
<svg width="16" height="16" viewBox="0 0 16 16" xmlns="http://www.w3.org/2000/svg">
  <g transform="translate(1.0937290396341455, 14.553746134009977) scale(0.01462890625, -0.01462890625)">
    <path d="M865 448Q833 471 788.5 483.5Q744 496 697 509L863 674L637 614Q649 659 660.5 706Q672 753 668 789Q747 820 813 792Q880 764 914 706Q948 648 941 576Q933 504 865 448ZM79 448Q101 467 146.5 481.5Q192 496 246 509L80 674L306 614Q293 661 282 708.5Q271 756 275 789Q196 819 130 791Q64 764 29.5 707Q-5 650 3 578Q10 506 79 448ZM668 789Q655 873 598 916Q540 959 473.5 960Q407 961 349 918Q290 876 275 789Q305 777 339.5 744.5Q374 712 411 674L472 900L532 674Q567 710 602.5 743Q638 776 668 789ZM472 283L532 223L554 305L637 283L615 366L697 388L637 448L697 509L615 531L637 614L554 591L532 674L472 613L411 674L389 591L306 614L329 531L246 509L306 448L246 388L329 366L306 283L389 305L411 223L472 283ZM411 344Q351 378 351 448Q351 518 411 553Q471 588 532 553Q593 518 593 448Q593 379 532 344Q471 309 411 344ZM306 283L80 222L246 388Q199 401 154 413.5Q109 426 79 448Q8 391 2 319Q-5 247 30.5 189.5Q66 132 133 104Q200 76 275 108Q271 142 281 185Q291 228 306 283ZM668 108Q642 118 610.5 146Q579 174 532 223L472 -3L411 223Q375 186 341 153.5Q307 121 275 108Q291 20 349 -23Q408 -65 475 -64Q542 -63 599 -19Q656 24 668 108ZM865 448Q835 426 789 413Q743 400 697 388L863 222L637 283Q651 232 662 186.5Q673 141 668 108Q747 76 814 105Q880 133 914 190.5Q948 248 941 321Q933 393 865 448Z" fill="#6a9fb5" />
  </g>
</svg>