<?xml version="1.0" encoding="UTF-8"?>
<svg width="16" height="16" viewBox="0 0 16 16" xmlns="http://www.w3.org/2000/svg">
  <g transform="translate(2.1474804687500004, 14.982553013392856) scale(0.015585937499999999, -0.015585937499999999)">
    <path d="M726 891Q728 862 708 840Q688 818 658 817Q629 815 607.5 835Q586 855 584 885Q583 915 603 937Q623 959 652 960Q682 961 703.5 941Q725 921 726 891ZM387 191Q328 191 274 201Q220 211 173 229.5Q126 248 88 274Q50 300 23 332Q44 275 79 228Q115 181 162.5 146.5Q210 112 267 93Q324 74 387 74Q450 74 507 93Q564 112 611.5 146.5Q659 181 695 228Q731 275 751 332Q724 300 686 274Q648 248 601 229.5Q554 211 500 201Q446 191 387 191ZM387 737Q446 737 500 727Q554 717 601 698.5Q648 680 686 654Q724 628 751 597Q731 653 695 700Q659 748 611.5 782Q564 816 507 835Q450 855 387 855Q324 855 267 835Q210 816 162.5 782Q115 748 79 700Q44 653 23 597Q50 628 88 654Q126 680 173 698.5Q220 717 274 727Q328 737 387 737ZM203 25Q204 -10 180.5 -36Q157 -62 122 -64Q87 -65 61.5 -41.5Q36 -18 34 18Q33 53 56.5 79Q80 105 115 106Q150 108 175.5 84Q201 60 203 25ZM54 770Q32 769 16.5 783.5Q1 798 0 820Q-1 841 13.5 857Q28 873 49 874Q71 875 86.5 860.5Q102 846 103 824Q104 803 89.5 787Q75 771 54 770Z" fill="#4d9085" />
  </g>
</svg>