<?xml version="1.0" encoding="UTF-8"?>
<svg width="16" height="16" viewBox="0 0 16 16" xmlns="http://www.w3.org/2000/svg">
  <g transform="translate(0.020000000000000462, 14.9825) scale(0.015585937499999999, -0.015585937499999999)">
    <path d="M600 592L905 666Q886 566 877 486Q868 406 851.5 336.5Q835 267 803 201Q770 135 705 63L510 128L642 -64Q767 0 831 81Q895 162 927.5 264Q960 366 977 490Q993 615 1024 768L646 700L674 762Q691 804 680 843.5Q669 883 628 902L448 960Q506 894 520.5 820.5Q535 747 506 675L318 640L126 706L254 510L466 561L384 322L0 -64L451 223L600 592Z" fill="#8f5536" />
  </g>
</svg>