<?xml version="1.0" encoding="UTF-8"?>
<svg width="16" height="16" viewBox="0 0 16 16" xmlns="http://www.w3.org/2000/svg">
  <g transform="translate(1.658369140625, 14.55375) scale(0.01462890625, -0.01462890625)">
    <path d="M0 419L867 419Q866 401 856.5 390.5Q847 380 829 377L30 377Q16 381 8 391Q0 401 0 419ZM414 955Q398 960 353 960Q308 960 296 950Q285 940 279 935Q273 930 257 927L173 927Q149 927 132 910Q115 893 115 869L115 815L87 815Q68 816 54.5 801.5Q41 787 41 772L24 447L842 447L827 773Q826 790 811.5 803Q797 816 780 815L141 815L141 871Q141 885 150.5 894.5Q160 904 173 904L267 904Q284 904 287.5 889.5Q291 875 316 875L401 875Q408 875 415.5 877Q423 879 429 884Q442 894 440 921Q438 948 414 955ZM473 3L473 359L382 359L382 3L214 3L214 -64L640 -64L640 3L473 3Z" fill="#6a9fb5" />
  </g>
</svg>