<?xml version="1.0" encoding="UTF-8"?>
<svg width="16" height="16" viewBox="0 0 16 16" xmlns="http://www.w3.org/2000/svg">
  <g transform="translate(1.0097070312500005, 13.48625) scale(0.015585937499999999, -0.015585937499999999)">
    <path d="M641 768Q532 765 460 693Q388 621 385 512Q385 483 391 455L0 64L0 0L64 -64L192 -64L256 0L256 64L320 64L320 128L384 128L384 192L512 192L583 263Q611 256 641 256Q750 259 822 331Q894 403 897 512Q894 621 822 693Q750 765 641 768ZM384 320L64 0L64 64L384 384ZM704 512Q677 513 659 531Q641 549 641 576Q641 603 659 621Q677 639 704 639Q731 639 749 621Q767 603 767 576Q767 549 749 531Q731 513 704 512Z" fill="#66783e" />
  </g>
</svg>