<?xml version="1.0" encoding="UTF-8"?>
<svg width="16" height="16" viewBox="0 0 16 16" xmlns="http://www.w3.org/2000/svg">
  <g transform="translate(0.19655273437500131, 15.411249999999999) scale(0.016542968749999998, -0.016542968749999998)">
    <path d="M301 594Q289 617 284.5 644Q280 671 283 699Q206 699 187.5 724.5Q169 750 167 781L171 841Q173 870 195.5 890.5Q218 911 248 911Q310 908 327 903.5Q344 899 361 880L418 960L465 932Q442 883 443.5 866.5Q445 850 445 849Q499 848 540 827Q582 806 606.5 772Q631 738 636 694Q642 650 624 603Q732 561 805 490Q878 419 912.5 329.5Q947 240 943 138Q939 37 893 -64L831 -64Q851 -30 864 8Q877 46 883.5 85Q890 124 889 164Q889 204 882 243Q827 162 761 169Q694 176 607 193Q520 210 408 196Q295 183 150 62L193 198L102 101Q110 56 128.5 14Q147 -28 173 -64L107 -64Q91 -37 78 -7.5Q65 22 57 53L2 -4Q-4 104 8 196Q19 287 53 362Q87 437 148 495Q208 553 301 594ZM413 48Q413 76 389.5 89.5Q366 103 342 89Q319 76 319 48.5Q319 21 342 7Q366 -6 389.5 7.5Q413 21 413 48ZM666 48Q666 76 642.5 89.5Q619 103 595 89Q572 76 572 48.5Q572 21 595 7Q619 -6 642.5 7.5Q666 21 666 48ZM324 821Q327 835 323 842.5Q319 850 307 852Q307 852 276.5 854Q246 856 246 856Q238 856 232 850.5Q226 845 226 838L222 778Q222 770 227 763.5Q232 757 241 757L294 754Q300 771 307.5 787.5Q315 804 324 821ZM471 594Q461 606 448.5 596Q436 586 446 573L501 506L470 480L491 454L522 480L544 452L480 399L521 350L585 402L600 383Q611 370 623.5 380.5Q636 391 626 403L471 594Z" fill="#6a9fb5" />
  </g>
</svg>