<?xml version="1.0" encoding="UTF-8"?>
<svg width="16" height="16" viewBox="0 0 16 16" xmlns="http://www.w3.org/2000/svg">
  <g transform="translate(0.5099999999999998, 14.558378677368164) scale(0.01462890625, -0.01462890625)">
    <path d="M637 712Q615 714 576.5 716.5Q538 719 478 710Q400 699 327.5 668.5Q255 638 210 600Q130 538 130 460Q130 382 238 322Q303 288 360.5 272Q418 256 492 247L488 246Q426 248 357 263Q287 278 225 304Q163 330 115 365Q68 400 50 442Q35 480 36 521Q37 562 58.5 602Q80 642 124 680Q169 717 240 749Q283 767 334 779Q386 791 441 797Q496 803 552 804Q607 804 657 800Q727 793 793 774Q859 755 910 734.5Q961 714 992 698Q1023 682 1023 682Q1024 643 1024 605.5Q1024 568 1023 532Q998 553 964 581Q930 610 883 637Q836 664 775 685Q714 707 637 712ZM959 475Q936 516 884 549Q832 582 766.5 605Q701 628 630 641Q558 653 496 652L493 651Q574 645 641 627Q708 609 758 584.5Q808 560 839 530Q870 500 878 470Q891 414 871.5 377Q852 340 820 311Q780 274 733 248Q685 222 632.5 206Q580 190 523 184Q466 178 408 182Q343 184 286 198Q230 212 180.5 234Q131 256 86 285Q42 314 0 345L19 196Q212 104 404 94Q596 85 738.5 132.5Q881 180 948 272Q1016 364 959 475Z" fill="#d28445" />
  </g>
</svg>