<?xml version="1.0" encoding="UTF-8"?>
<svg width="16" height="16" viewBox="0 0 16 16" xmlns="http://www.w3.org/2000/svg">
  <g transform="translate(0.5099999999999998, 14.55375) scale(0.01462890625, -0.01462890625)">
    <path d="M0 960L0 -64L1024 -64L1024 960ZM815 876Q867 906 919 876Q971 846 971 786Q971 726 919 696Q867 666 815 696Q763 726 763 786Q763 846 815 876ZM447 50Q453 77 442.5 98Q432 119 410 154L260 358L260 151Q260 115 267.5 89.5Q275 64 289 50L45 50Q64 71 69.5 90Q75 109 74 151L74 723Q74 765 69.5 783Q65 801 45 823L289 823Q275 809 267.5 784Q260 759 260 723L260 532L409 721Q431 749 446 776Q461 803 452 823L713 823Q676 799 652 769.5Q628 740 596 702L401 459L634 138Q655 110 676.5 85Q698 60 714 50L447 50ZM753 50Q766 65 772 81Q778 97 777 141L777 528Q778 563 774 581Q770 599 754 618Q754 618 786 618Q817 618 855.5 618Q894 618 926 618Q958 618 958 618L958 141Q958 103 961 86.5Q964 70 982 50L753 50Z" fill="#ac4142" />
  </g>
</svg>