<?xml version="1.0" encoding="UTF-8"?>
<svg width="16" height="16" viewBox="0 0 16 16" xmlns="http://www.w3.org/2000/svg">
  <g transform="translate(1.05126953125, 14.55375) scale(0.01462890625, -0.01462890625)">
    <path d="M714 960L950 960L950 698Q947 652 928 613Q909 573 878.5 542.5Q848 512 808 493Q767 475 722 472L463 472L463 723Q466 777 487 820Q507 863 540.5 894Q574 925 618 942Q663 959 714 960ZM463 423L722 423Q768 420 808 401Q848 382 878.5 351.5Q909 321 928 281Q947 241 950 195L950 -64L686 -64Q640 -60 601 -41Q562 -21 532 9.5Q502 40 484 80Q466 120 463 165L463 423ZM414 267Q408 157 344 107Q279 56 203 58.5Q127 61 65 113Q2 165 0 259L0 636Q1 728 60 780Q119 832 192 837.5Q265 843 331 799Q396 755 412 657Q414 645 414 582Q415 520 415 450Q415 380 414 323Q414 267 414 267ZM318 630Q318 695 262 727.5Q206 760 150 727Q94 695 94 630.5Q94 566 150 533Q206 501 262 533.5Q318 566 318 630Z" fill="#90a959" />
  </g>
</svg>