<?xml version="1.0" encoding="UTF-8"?>
<svg width="16" height="16" viewBox="0 0 16 16" xmlns="http://www.w3.org/2000/svg">
  <g transform="translate(0.5099999999999998, 14.55375) scale(0.01462890625, -0.01462890625)">
    <path d="M895 548Q901 549 902 546.5Q903 544 899 540L721 362L571 511L895 548ZM682 338Q682 331 679.5 324.5Q677 318 672 313L566 207Q561 202 554.5 199.5Q548 197 541 197Q534 197 527 199.5Q520 202 515 207L410 313Q397 326 387.5 349.5Q378 373 378 391L378 658L672 363Q677 358 679.5 351.5Q682 345 682 338ZM226 316Q217 325 217 338Q217 351 226 360L344 477L344 198L226 316ZM315 540Q324 530 324 517.5Q324 505 315 496L198 378L198 657L315 540ZM874 810Q838 846 796 874Q754 902 708 921Q662 940 613 950Q563 960 512 960Q461 960 411 950Q362 940 316 921Q270 902 228 874Q186 846 150 810Q114 774 86 732Q58 690 39 644Q20 598 10 549Q0 499 0 448Q0 397 10 347Q20 298 39 252Q58 206 86 164Q114 122 150 86Q186 50 228 22Q270 -6 316 -25Q362 -44 411 -54Q461 -64 512 -64Q563 -64 613 -54Q662 -44 708 -25Q754 -6 796 22Q838 50 874 86Q910 122 938 164Q966 206 985 252Q1004 298 1014 347Q1024 397 1024 448Q1024 499 1014 549Q1004 598 985 644Q966 690 938 732Q910 774 874 810Z" fill="#7c4426" />
  </g>
</svg>