<?xml version="1.0" encoding="UTF-8"?>
<svg width="16" height="16" viewBox="0 0 16 16" xmlns="http://www.w3.org/2000/svg">
  <g transform="translate(0.9980681046195654, 14.125) scale(0.013671875, -0.013671875)">
    <path d="M955 -8Q933 -32 904 -44.5Q875 -57 844 -57Q818 -57 792 -47.5Q766 -38 745 -18L396 298Q394 299 393 300.5Q392 302 390 303L665 455L944 202Q990 161 993 99.5Q996 38 955 -8ZM348 772L348 801Q348 867 301.5 913.5Q255 960 189 960Q123 960 76 913.5Q29 867 29 801L29 595L348 772ZM28 106L28 97Q28 30 75 -17Q122 -64 189 -64Q255 -64 302.5 -17Q350 30 350 97L350 284L28 106ZM978 876Q948 930 888.5 947Q829 964 775 934L34 524L34 183L920 674Q973 703 990 762.5Q1007 822 978 876Z" fill="#46788d" />
  </g>
</svg>