<?xml version="1.0" encoding="UTF-8"?>
<svg width="16" height="16" viewBox="0 0 16 16" xmlns="http://www.w3.org/2000/svg">
  <g transform="translate(0.01603857421874956, 14.9825) scale(0.015585937499999999, -0.015585937499999999)">
    <path d="M2 340Q-1 325 1.5 310.5Q4 296 15 283L261 -23Q271 -35 285 -42Q299 -49 314 -49L710 -49Q725 -49 739 -42Q753 -35 763 -23L1009 283Q1019 295 1022.5 310.5Q1026 326 1022 340L934 722Q931 737 921 749.5Q911 762 898 768L541 938Q525 945 510.5 945Q496 945 482 938L126 768Q113 762 103 749.5Q93 737 89 722L2 340ZM494 305L434 197Q474 184 513 183.5Q552 183 591 197L531 305Q523 317 511.5 316Q500 315 494 305ZM404 366L282 345Q296 306 321.5 275Q347 244 380 223L428 337Q431 349 424 358Q417 367 404 366ZM596 337L644 222Q679 244 704 276Q729 308 742 346L620 366Q606 368 599 358.5Q592 349 596 337ZM469 438L493 467L531 467L555 438L546 401L512 385L478 401L469 438ZM636 438L755 403Q759 444 750 482.5Q741 521 720 557L628 474Q620 465 621 454.5Q622 444 636 438ZM396 474L303 557Q283 523 273.5 483.5Q264 444 269 403L388 437Q400 442 403 453Q406 464 396 474ZM582 531L683 603Q654 631 618 648.5Q582 666 542 671L549 548Q551 532 561 528.5Q571 525 582 531ZM340 603L442 531Q454 523 464 529.5Q474 536 475 547L482 671Q441 665 405 648Q369 631 340 603ZM890 318Q882 321 862.5 328.5Q843 336 827 338Q823 339 820 337Q817 335 814 334L804 335Q787 282 752 237.5Q717 193 668 164L672 155Q671 152 670 148.5Q669 145 670 141Q677 125 686 111.5Q695 98 704 85Q720 58 699 45.5Q678 33 663 60Q657 77 651.5 95.5Q646 114 638 125Q636 129 632.5 130.5Q629 132 626 133L621 142Q566 121 511.5 121.5Q457 122 403 142L398 133Q395 132 392.5 131Q390 130 388 128Q380 117 373 94Q366 71 360 58Q348 34 327.5 44.5Q307 55 317 78Q324 92 333.5 104Q343 116 354 141Q355 144 354.5 148Q354 152 352 155L357 165Q309 193 273.5 236.5Q238 280 221 335L210 333Q208 335 204.5 336.5Q201 338 197 338Q187 337 176.5 334.5Q166 332 156 326Q106 296 96 332.5Q86 369 146 366Q170 364 181.5 368Q193 372 199 383L209 386Q200 443 213.5 498Q227 553 257 598L249 605Q249 607 248 611.5Q247 616 245 619Q222 638 210 643Q198 648 185 659Q165 675 179.5 693.5Q194 712 214 696Q226 686 236 674Q246 662 267 647Q271 644 274.5 644.5Q278 645 281 645L289 639Q322 674 371.5 701Q421 728 486 734L487 744Q489 746 491 749Q493 752 494 756Q496 774 492 794Q488 814 488 828Q489 853 512 854Q535 855 536 828Q536 812 532.5 799Q529 786 530 756Q530 751 532.5 748.5Q535 746 537 744L538 734Q594 729 644.5 704Q695 679 734 639L743 645Q745 645 749.5 645Q754 645 757 647Q766 653 778.5 665.5Q791 678 804 692Q824 713 842.5 696.5Q861 680 839 659Q828 650 813.5 643Q799 636 779 619Q776 616 775.5 612.5Q775 609 775 606L766 598Q799 548 811.5 496Q824 444 816 386L825 383Q826 381 829 377.5Q832 374 835 373Q851 368 867 367Q883 366 904 363Q934 360 926.5 334.5Q919 309 890 318Z" fill="#6a9fb5" />
  </g>
</svg>