<?xml version="1.0" encoding="UTF-8"?>
<svg width="16" height="16" viewBox="0 0 16 16" xmlns="http://www.w3.org/2000/svg">
  <g transform="translate(0.5099999999999998, 14.55375) scale(0.01462890625, -0.01462890625)">
    <path d="M1024 -59L5 960L1024 960ZM582 582L646 646Q648 648 648 651Q648 654 646 657L582 721Q580 723 576.5 723Q573 723 571 721L507 657Q504 654 504 651Q504 648 507 646L571 582Q573 579 576.5 579Q580 579 582 582ZM724 726L788 791Q791 793 791 796Q791 799 788 801L724 866Q722 868 718.5 868Q715 868 713 866L649 801Q647 799 647 796Q647 793 649 791L713 726Q715 724 718.5 724Q722 724 724 726ZM725 437L789 502Q792 504 792 507Q792 510 789 512L725 577Q723 579 720 579Q717 579 714 577L650 512Q648 510 648 507Q648 504 650 502L714 437Q717 435 720 435Q723 435 725 437ZM867 582L932 646Q934 649 934 652Q934 655 932 657L867 722Q865 724 862 724Q859 724 856 722L792 657Q790 655 790 652Q790 649 792 646L856 582Q859 580 862 580Q865 580 867 582ZM328 474L256 545L2 293L73 222L328 474ZM469 332L398 403L0 7L71 -64L469 332ZM611 190L540 261L286 9L357 -62L611 190Z" fill="#6a9fb5" />
  </g>
</svg>