<?xml version="1.0" encoding="UTF-8"?>
<svg width="16" height="16" viewBox="0 0 16 16" xmlns="http://www.w3.org/2000/svg">
  <g transform="translate(0.020000000000000462, 14.9825) scale(0.015585937499999999, -0.015585937499999999)">
    <path d="M992 293Q1007 289 1014.5 276Q1022 263 1018 248Q1006 201 984 184.5Q962 168 946 164L946 113L899 113L899 52L938 52L946 44L946 21L84 21L77 28L77 52L115 52L115 113L85 113L77 121L77 295L42 295Q24 295 12 307Q0 319 0 336Q0 353 12 365.5Q24 378 42 378L77 378L77 534L42 534Q24 534 12 546Q0 558 0 576Q0 593 12 605Q24 617 42 617L77 617L77 644Q72 630 59 623Q46 616 32 621Q18 625 10.5 638.5Q3 652 7 666Q10 674 23.5 703.5Q37 733 66 748Q68 749 71 750.5Q74 752 77 753L77 783L115 783L115 844L84 844L77 852L77 875L938 875L946 867L946 844L899 844L899 783L938 783L946 774L946 490L982 490Q1000 490 1012 477.5Q1024 465 1024 448Q1024 431 1012 419Q1000 407 982 407L946 407L946 263Q950 280 963.5 288.5Q977 297 992 293ZM819 844L758 844L758 783L819 783ZM678 844L617 844L617 783L678 783ZM537 844L476 844L476 783L537 783ZM396 844L336 844L336 783L396 783ZM195 844L195 783L256 783L256 844ZM256 52L256 113L195 113L195 52ZM396 52L396 113L336 113L336 52ZM537 52L537 113L476 113L476 52ZM678 52L678 113L617 113L617 52ZM819 52L819 113L758 113L758 52ZM320 687L320 208L799 449L320 687ZM499 422L499 366L445 366L445 422L389 422L389 476L445 476L445 532L499 532L499 476L554 476L554 422ZM988 276Q980 278 973 274Q966 270 964 262Q959 243 950.5 231Q942 219 933 219Q928 218 923.5 220Q919 222 915 226L915 425L982 425Q992 425 999 432Q1006 439 1006 448Q1006 458 999 464.5Q992 471 982 471L915 471L915 768L100 768L100 738Q93 739 86.5 737.5Q80 736 73 732Q49 720 37 692.5Q25 665 24 661Q22 654 26 647Q30 640 37 637Q45 635 52 639Q59 643 61 650Q64 660 72 676.5Q80 693 91 698Q94 699 96 699.5Q98 700 100 699L100 599L42 599Q32 599 25 592Q18 585 18 576Q18 566 25 559Q32 552 42 552L100 552L100 359L42 359Q32 359 25 352.5Q18 346 18 336Q18 327 25 320Q32 313 42 313L100 313L100 136L915 136L915 183Q919 181 923 180.5Q927 180 931 180Q932 180 933 180Q934 180 935 180Q958 182 975.5 201Q993 220 1001 252Q1003 260 999 267Q995 274 988 276ZM162 437Q163 417 163.5 397.5Q164 378 166 359L116 359L116 552L155 552Q158 523 159.5 494Q161 465 162 437ZM116 599L116 692Q128 682 135.5 661Q143 640 149 599ZM899 247Q898 249 896.5 252Q895 255 894 257Q882 285 877 333Q872 381 869 417Q869 419 869 421Q869 423 869 425L899 425L899 247ZM899 471L865 471Q863 481 862.5 491.5Q862 502 861 514Q858 548 853 585Q848 622 839 653Q828 693 809.5 714Q791 735 764 736Q717 738 701.5 693Q686 648 681 625Q678 610 675 588.5Q672 567 670 550L505 632Q504 689 482 714.5Q460 740 435 742Q414 744 396.5 731.5Q379 719 372 698L295 736L295 723L846 450L295 174L295 161L517 272Q521 257 525.5 243.5Q530 230 535 220Q557 181 581.5 180Q606 179 618 182Q649 191 667.5 240Q686 289 692 360L822 425L830 425Q833 384 839 328.5Q845 273 859 242Q867 224 877 211Q887 198 899 190L899 152L116 152L116 313L170 313Q177 269 191 236.5Q205 204 235 187Q241 184 249 181.5Q257 179 267 179Q269 179 270.5 179.5Q272 180 274 180L274 219Q267 217 262 218.5Q257 220 254 221Q235 232 225 256Q215 280 210 313L274 313L274 359L204 359Q203 378 202 398Q201 418 200 438Q199 466 197.5 495Q196 524 194 552L274 552L274 599L188 599Q181 650 167 686Q153 722 116 735L116 752L899 752L899 471ZM826 472L707 531Q710 551 712 571Q714 591 718 607Q727 651 737.5 674.5Q748 698 762 698Q793 696 804.5 630Q816 564 822 511Q823 501 824 491.5Q825 482 826 472ZM465 652L407 681Q409 690 415.5 697Q422 704 433 704Q446 703 454 687.5Q462 672 465 652ZM648 338Q641 277 628 249.5Q615 222 604 219Q594 216 585 221.5Q576 227 572 237Q569 245 563 259.5Q557 274 553 290Z" fill="#46788d" />
  </g>
</svg>