<?xml version="1.0" encoding="UTF-8"?>
<svg width="16" height="16" viewBox="0 0 16 16" xmlns="http://www.w3.org/2000/svg">
  <g transform="translate(0.23820312500000007, 14.9825) scale(0.015585937499999999, -0.015585937499999999)">
    <path d="M410 847L217 958Q213 960 209 960Q205 960 201 958L8 847Q4 845 2 841.5Q0 838 0 833L0 174Q0 169 2 165.5Q4 162 8 160L394 -62Q398 -64 401.5 -64Q405 -64 410 -62L795 160Q799 162 801 165.5Q803 169 803 174L803 384L988 490Q992 493 994 496.5Q996 500 996 504L996 724Q996 727 994 731.5Q992 736 988 738L795 849Q791 851 787 851Q783 851 779 849L586 738Q582 736 580 732.5Q578 729 578 724L578 514L418 421L418 833Q418 837 415.5 841Q413 845 410 847ZM401 192L241 283L594 486L755 394L401 192ZM771 604L771 421L610 514L610 696ZM787 816L948 724L787 632L626 724ZM225 310L225 713L385 805L385 403L225 310ZM209 925L369 833L209 741L48 833L209 925ZM417 -20L417 164L771 366L771 183ZM803 421L803 604L964 696L964 514ZM385 164L385 -20L32 183L32 805L193 713L193 273L385 164Z" fill="#d28445" />
  </g>
</svg>