<?xml version="1.0" encoding="UTF-8"?>
<svg width="16" height="16" viewBox="0 0 16 16" xmlns="http://www.w3.org/2000/svg">
  <g transform="translate(0.266573033707866, 14.989128775247712) scale(0.015585937499999999, -0.015585937499999999)">
    <path d="M356 244L438 154Q392 154 347 148Q302 142 263 134Q282 170 304.5 200Q327 230 356 244ZM502 151L405 256Q420 258 436 259.5Q452 261 469 263Q518 252 551.5 226.5Q585 201 607 164Q583 159 557 155Q531 151 502 151ZM365 889Q437 877 464.5 845.5Q492 814 487 762Q424 729 374 674Q324 619 287 559Q250 499 227 441Q204 383 196 343Q181 279 172 224.5Q163 170 128 116Q75 114 55 114.5Q35 115 9 95L0 52Q23 72 38 69.5Q53 67 94 72Q87 64 79.5 56.5Q72 49 63 41Q34 5 76.5 -42.5Q119 -90 156 -46Q179 -28 198.5 8Q218 44 238 85Q275 88 320 90.5Q365 93 411 95Q415 81 422.5 68Q430 55 442 44Q446 57 455 70.5Q464 84 476 97Q511 98 543 98.5Q575 99 601 100Q601 100 634.5 129.5Q668 159 766 159Q864 159 883 142Q902 125 907 146Q915 177 955.5 185Q996 193 992 203Q982 231 951 219Q920 207 890 188L820 188Q811 225 759.5 203Q708 181 663 175Q640 201 615.5 228Q591 255 556 279Q593 290 648 328Q703 366 746.5 425Q790 484 807 561Q824 639 785 729Q762 783 732 846Q702 909 670 931Q596 983 531 953Q466 923 466 923L400 923Q387 922 381 916.5Q375 911 365 889Z" fill="#46788d" />
  </g>
</svg>