<?xml version="1.0" encoding="UTF-8"?>
<svg width="16" height="16" viewBox="0 0 16 16" xmlns="http://www.w3.org/2000/svg">
  <g transform="translate(0.5099999999999998, 14.555121459960937) scale(0.01462890625, -0.01462890625)">
    <path d="M1024 701Q981 663 911 618Q841 574 771 535.5Q701 497 645 472Q589 448 576 450Q562 451 581 482Q600 513 628.5 549.5Q657 586 682 616Q708 646 708 646Q708 646 642 621Q576 596 508 573Q448 554 405 569Q362 584 334.5 614.5Q307 645 294 680Q281 716 281 738Q281 767 307 827Q333 887 333 887Q261 868 219 827.5Q177 787 159 790Q149 792 105.5 829.5Q62 867 0 916L0 873Q50 831 88.5 792Q127 753 149 729Q164 742 212 786.5Q260 831 281 845Q281 845 235 795.5Q189 746 178 695Q178 695 154.5 705Q131 715 99 734Q78 746 53 761Q28 776 0 793L0 94Q7 99 14 104Q21 109 29 115Q58 136 104 128Q150 120 197.5 98.5Q245 77 287 50Q329 22 350 4Q392 -31 441.5 -15Q491 1 613 68Q680 106 748 195Q815 285 871.5 384Q928 483 969 570Q1010 658 1024 691L1024 701ZM331 548Q331 548 354 543Q376 538 414.5 537.5Q453 537 506 546Q559 555 620 583Q620 583 592 563Q563 544 519.5 528.5Q476 513 426 512Q375 511 331 548ZM574 422Q574 422 605 429Q637 435 690.5 455.5Q744 476 816 515Q888 554 970 619Q970 619 923 576Q876 532 812 487Q748 442 681 416Q614 389 574 422Z" fill="#46788d" />
  </g>
</svg>