<?xml version="1.0" encoding="UTF-8"?>
<svg width="16" height="16" viewBox="0 0 16 16" xmlns="http://www.w3.org/2000/svg">
  <g transform="translate(-0.46999999999999886, 15.41166357421875) scale(0.016542968749999998, -0.016542968749999998)">
    <path d="M1024 905Q834 802 806 785.5Q778 769 771 782Q765 802 793 812.5Q821 823 1024 905ZM271 347Q322 391 374 399Q426 407 421 433Q370 412 338.5 404Q307 396 271 347ZM199 371Q263 415 334 419.5Q405 424 397 460Q330 439 286 429.5Q242 420 199 371ZM120 409Q152 430 196 438Q240 446 280.5 451.5Q321 457 350 464Q379 472 380 494Q290 466 236 464.5Q182 463 120 409ZM45 450Q77 472 130 478Q184 485 236.5 489.5Q289 494 330 504Q370 514 377 542Q332 528 286 522Q240 517 196.5 510Q153 503 114 491Q75 478 45 450ZM0 504Q32 526 94 531Q156 536 218.5 539Q281 542 330 550Q378 558 384 587Q340 574 286 570Q232 566 179 561Q126 556 78 544Q31 533 0 504ZM219 611Q283 631 335.5 616.5Q388 602 390 628Q336 633 303.5 638.5Q271 644 219 611ZM147 665Q224 678 298 653.5Q372 629 380 665Q308 676 258.5 685Q209 694 147 665ZM89 765Q129 766 173 748Q218 730 256.5 712Q295 694 324 686Q352 678 360 700Q267 713 218 751.5Q169 790 89 765ZM65 830Q115 827 162 804Q209 780 249 757.5Q289 735 319 725Q350 714 366 737Q277 768 217.5 805.5Q158 843 65 830ZM62 926Q117 914 165 882Q213 849 255 817.5Q297 786 332 767Q368 747 397 761Q363 779 324 808Q286 836 244 862.5Q202 889 156 908Q110 927 62 926ZM432 313Q396 351 437.5 384.5Q479 418 490 385Q495 367 469.5 355Q444 343 459 371Q459 381 441.5 368Q424 355 442 340Q465 322 493.5 350Q522 378 507 398Q471 445 422.5 387.5Q374 330 428 289Q467 260 505.5 318Q544 376 644 422Q711 457 737 497Q764 537 769 571.5Q774 606 767 629Q760 652 760 652Q745 690 734 680Q723 670 675 652Q621 634 598.5 583Q576 532 610 501Q646 473 689.5 531Q733 589 671 597Q658 589 676.5 580Q695 571 675 546Q636 502 617 546Q598 590 668 621Q709 636 720 647Q731 658 736 645Q753 605 738 566Q722 527 695 501Q668 475 639 470Q610 464 599 491Q594 504 543.5 466Q493 428 514 426Q542 421 537 398Q533 375 513.5 352.5Q494 330 469 315Q444 301 432 313ZM764 802Q739 823 705 821Q671 820 643.5 800Q616 780 604 744Q592 707 613 659Q713 646 743.5 703.5Q774 761 774 761Q756 779 760 790.5Q764 802 764 802ZM668 748Q665 760 682.5 776.5Q700 793 716 785Q726 765 702 751Q678 737 668 748ZM705 775Q711 767 702.5 761.5Q694 756 688 761Q686 766 693 773Q700 780 705 775ZM404 316Q384 301 360 265.5Q336 230 295 227Q341 248 363.5 295Q386 342 404 316ZM411 296Q396 280 367.5 223.5Q339 167 288 152Q342 188 369 254.5Q396 321 411 296ZM425 278Q404 260 388 188.5Q372 117 325 87Q372 153 387 227.5Q402 302 425 278ZM438 272Q433 260 431 232Q428 204 422 168.5Q416 133 405 94Q393 55 370 22Q414 135 411 211Q408 287 438 272ZM455 272Q457 256 459 218Q460 179 459.5 133.5Q459 88 455 43Q450 -2 438 -30Q450 20 447 73Q445 126 440.5 169.5Q436 213 437 242Q438 270 455 272ZM401 491Q420 427 452 431Q483 435 514.5 472Q546 509 571 562Q596 615 603 648Q485 579 431.5 595Q378 611 401 491ZM455 522Q443 581 473 574Q503 567 565 600Q557 570 516.5 513.5Q476 457 455 522ZM380 724Q360 688 386 672.5Q412 657 414 621Q473 621 507 627Q541 633 603 659Q469 684 446.5 736Q424 788 380 724ZM442 641Q437 659 425.5 668Q414 677 425 689Q445 718 458.5 691.5Q472 665 541 655Q510 645 491.5 643Q473 641 442 641Z" fill="#6a9fb5" />
  </g>
</svg>