<?xml version="1.0" encoding="UTF-8"?>
<svg width="16" height="16" viewBox="0 0 16 16" xmlns="http://www.w3.org/2000/svg">
  <g transform="translate(-0.46999999999999886, 15.407542093211205) scale(0.016542968749999998, -0.016542968749999998)">
    <path d="M0 261L172 183Q215 199 259.5 212Q304 225 348 235L156 342L222 445L191 504Q132 456 83.5 396Q35 336 0 261ZM171 600L244 463Q322 449 377 498Q432 547 432 570Q433 589 419.5 617.5Q406 646 371 695Q420 662 446 615Q472 568 445 530Q404 480 359 453.5Q314 427 248 434L196 352L335 275Q389 278 434 295Q479 313 518.5 343Q558 373 593 416Q628 459 662 512Q636 458 607 413Q577 369 542.5 335.5Q508 302 467 281Q426 259 377 251L452 209Q504 212 548 229Q591 245 628.5 273.5Q666 302 699 343Q733 384 766 437Q741 383 713 340Q685 297 652 265.5Q619 234 580 214Q541 194 493 186L572 145Q625 148 667 163Q709 177 745 204Q781 231 814 270Q846 309 880 362Q855 310 829 270Q803 229 773 199.5Q743 170 707 151Q671 132 627 123Q691 104 745.5 114Q800 124 852 157Q870 168 913 229.5Q956 291 1024 402L676 776L528 512Q475 423 416 383Q357 343 267 343Q345 359 404 406Q463 453 503 526L649 785Q593 770 540.5 747.5Q488 725 439 694L408 708Q412 710 416 712.5Q420 715 423 718Q392 725 354 719Q316 713 280 697Q244 681 215 656Q185 631 171 600Z" fill="#ac4142" />
  </g>
</svg>