<?xml version="1.0" encoding="UTF-8"?>
<svg width="16" height="16" viewBox="0 0 16 16" xmlns="http://www.w3.org/2000/svg">
  <g transform="translate(3.247705965909092, 14.979902343749998) scale(0.015585937499999999, -0.015585937499999999)">
    <path d="M25 653Q22 674 19.5 693Q17 712 17 722Q18 738 22.5 761Q27 784 33 809Q37 821 40.5 832Q44 843 51 848Q56 853 60 858Q64 863 66 868Q69 874 72.5 878Q76 882 84 882Q85 882 87.5 884Q90 886 91 887Q93 889 95 890.5Q97 892 100 893Q104 893 108.5 897.5Q113 902 120 907Q125 912 130 915.5Q135 919 139 921Q143 924 186 939Q229 954 233 954Q238 955 241.5 952.5Q245 950 249 950Q264 951 277.5 955.5Q291 960 299 960Q306 960 314 957Q322 954 327 953Q352 950 363 953Q374 956 408 952Q425 947 425.5 941Q426 935 439 925Q447 921 451.5 919.5Q456 918 465 916Q471 915 478.5 911.5Q486 908 494 906Q506 904 518.5 904Q531 904 530 890Q528 879 545 878Q562 877 579 874Q583 872 585 867Q587 862 584 859Q575 848 563.5 838.5Q552 829 552 829Q561 825 567 820.5Q573 816 576 811Q579 804 575 799.5Q571 795 565 796Q560 797 554 798.5Q548 800 540 803Q524 805 525.5 801Q527 797 527 788Q526 769 539 752.5Q552 736 557 736Q566 735 568.5 729Q571 723 573 716Q573 712 573.5 709.5Q574 707 575 707Q584 705 593 706Q602 707 604 699Q605 695 602.5 689.5Q600 684 593 676Q590 672 588 670Q586 668 585 665Q583 659 586.5 656.5Q590 654 586 644Q584 640 579.5 637Q575 634 567 636Q565 636 563.5 636.5Q562 637 561 638Q559 639 557.5 639Q556 639 555 638Q551 630 548 622.5Q545 615 545 609Q547 594 547.5 582Q548 570 546 564Q545 560 545 552.5Q545 545 547 535Q549 525 551.5 519Q554 513 559 500Q564 488 565.5 481.5Q567 475 555 453Q550 443 544.5 436.5Q539 430 532 427Q543 416 555 405Q567 394 574 397Q577 398 577.5 405Q578 412 577 415Q573 423 574 428Q575 433 583 434Q589 434 595 427Q601 420 604 414Q612 398 609 379.5Q606 361 596 350Q580 325 560 327Q540 329 510 326Q508 325 508 323.5Q508 322 510 320Q511 319 512 316.5Q513 314 513 310Q514 306 514 301.5Q514 297 514 293Q514 293 511 288Q508 283 501 277Q496 273 491.5 269.5Q487 266 483 264Q477 262 455 260.5Q433 259 433 259Q432 259 431 256Q430 253 430 251Q429 240 418.5 218.5Q408 197 397 176L427 34Q435 1 433 -10Q431 -21 435 -40Q436 -42 433.5 -46.5Q431 -51 426 -56Q421 -61 417 -63Q413 -65 411 -64Q409 -62 405.5 -59.5Q402 -57 402 -57Q398 -53 393.5 -49Q389 -45 384 -40Q358 -17 327 8Q296 33 262 59.5Q228 86 191 114Q154 142 116 170Q114 179 112.5 186.5Q111 194 113 200Q116 210 123 221.5Q130 233 136 245L127 303Q124 327 119 349.5Q114 372 104 390Q99 400 93.5 409Q88 418 81 423Q71 429 66 438Q61 447 60 456Q60 459 58.5 463Q57 467 53 473L0 547Q-1 597 4 616.5Q9 636 25 653ZM320 233L237 286Q206 319 176.5 351Q147 383 120 415Q118 418 111 417Q104 416 104 413Q108 401 115.5 388.5Q123 376 128 357Q130 349 136 312.5Q142 276 145 252Q146 247 145 243Q144 239 142 236L124 202Q121 193 124 185Q127 177 136 169Q184 131 226 100Q268 68 302.5 41Q337 14 365 -9Q393 -33 412 -55L426 -46Q425 18 409 74Q393 130 386 178Q392 188 398.5 200Q405 212 410 223L320 233ZM320 359Q329 359 337.5 361Q346 363 353 367Q369 376 390.5 399Q412 422 421 425Q430 425 428 429Q426 433 420 437Q410 443 408.5 450.5Q407 458 413 469Q414 472 415.5 475Q417 478 419 480Q421 479 418 470.5Q415 462 417 455Q419 449 427.5 454Q436 459 445 460Q453 461 461 459.5Q469 458 476 460Q488 463 493 460Q498 457 506 455Q514 453 521.5 452Q529 451 533 453Q542 458 548.5 465Q555 472 556 480Q553 500 548 502Q543 504 540 522Q539 536 536 543Q533 550 537 563Q537 563 539 571.5Q541 580 536 605Q534 614 536.5 618.5Q539 623 539 625Q537 626 533.5 624.5Q530 623 517 623Q511 624 507.5 626Q504 628 505 629Q508 629 508.5 628.5Q509 628 511 628Q514 629 516 628.5Q518 628 518 632Q518 640 516.5 638.5Q515 637 514 640L514 643Q516 649 511 647.5Q506 646 499 644Q497 665 496 684Q495 703 500 714Q510 717 515.5 714Q521 711 534 729Q533 720 531 713Q529 706 526 701Q522 697 522 693Q522 689 526 692Q536 703 540.5 711.5Q545 720 544 725Q541 736 533 746.5Q525 757 521 768Q517 779 517.5 787.5Q518 796 512 810Q511 813 507 816Q503 819 497 823Q483 831 486 832Q489 833 472 844Q464 848 457.5 851Q451 854 437 859Q425 863 418.5 866.5Q412 870 396 869Q405 862 412.5 854.5Q420 847 427 839Q425 837 419.5 839.5Q414 842 407 842Q398 842 391 843Q384 844 379 846Q360 852 343 859Q326 866 324 864Q323 859 311.5 858Q300 857 291 863Q290 864 288.5 865Q287 866 286 866Q283 866 282 862.5Q281 859 278 858Q275 858 274 857.5Q273 857 273 855Q271 847 260 849Q249 851 240 847Q232 842 224.5 833.5Q217 825 212 818Q209 813 209 808Q209 803 209 798Q213 787 212.5 774.5Q212 762 214 745L185 712Q174 700 164.5 691.5Q155 683 145 668Q138 638 148.5 608Q159 578 168 527Q175 485 163 482.5Q151 480 122 478L122 447Q122 447 169 400.5Q216 354 228 343Q267 308 313.5 288Q360 268 436 269Q467 269 486.5 278Q506 287 504 312Q504 312 488 311Q472 310 468 310Q447 313 443.5 318.5Q440 324 404 319Q375 313 339.5 321Q304 329 289 335Q282 340 262.5 373Q243 406 262 421Q267 426 268.5 425Q270 424 267 419Q266 416 263 412.5Q260 409 260 404Q259 399 270.5 383.5Q282 368 288 366Q296 363 303.5 361Q311 359 320 359ZM272 672Q276 673 276.5 676.5Q277 680 277 681Q279 682 281 681Q283 680 282 683L282 691Q282 693 282 693.5Q282 694 283 694Q284 694 284 693Q284 692 285 692Q286 689 287 689Q288 689 288 691Q288 696 285.5 699.5Q283 703 283 705Q290 704 294 699Q298 694 302 689Q305 696 306.5 702.5Q308 709 312 715Q316 719 324.5 719.5Q333 720 340 720Q348 725 349.5 721.5Q351 718 359 718Q365 720 360.5 725.5Q356 731 373 723Q388 715 391.5 716.5Q395 718 404 713Q412 706 413 699.5Q414 693 418 693Q422 695 421 702Q420 709 425 710Q427 709 426.5 707Q426 705 426 702Q424 699 423.5 695.5Q423 692 423 689Q424 686 427 666Q430 646 429 643Q429 640 428 636.5Q427 633 426 629Q423 624 421.5 621.5Q420 619 419 618Q419 618 417 618.5Q415 619 412 621Q400 624 390.5 624Q381 624 375 625Q372 625 380 626Q388 627 390 630Q391 632 389.5 634.5Q388 637 384 641Q377 648 372 649.5Q367 651 366 641Q365 635 364.5 631.5Q364 628 364 626Q364 626 363.5 625Q363 624 362 624Q360 623 358.5 623Q357 623 357 624Q357 625 357.5 626Q358 627 359 627Q361 629 361.5 634Q362 639 361 640Q357 641 354 639.5Q351 638 350 641Q350 643 349 644Q348 645 345 644Q339 642 339 638.5Q339 635 333 631Q332 630 330.5 630Q329 630 328 628Q327 627 327 625.5Q327 624 328 623Q330 617 326.5 617.5Q323 618 323 625Q322 628 321 629.5Q320 631 319 631Q316 630 314 627Q312 624 312 623Q312 622 313 621Q314 620 317 619Q320 619 317 618Q314 617 313 617Q312 617 309 616.5Q306 616 304 615Q296 611 290.5 606.5Q285 602 275 600Q267 601 278 604.5Q289 608 287 610Q283 612 275 608.5Q267 605 257 608Q253 611 251.5 610Q250 609 249 605Q249 603 245 603Q241 603 240 605Q234 612 231 604.5Q228 597 226 602Q227 608 230.5 610Q234 612 233 617Q233 621 232 622Q231 623 233 627Q235 632 238.5 631Q242 630 247 648Q249 659 251.5 664Q254 669 258 657Q259 653 260 651.5Q261 650 262 650Q265 653 265 658.5Q265 664 272 672ZM315 605Q314 606 314.5 606.5Q315 607 317 607Q318 607 320.5 607Q323 607 327 606Q335 606 340 605.5Q345 605 345 604Q346 604 343 603.5Q340 603 334 603Q331 603 328 603.5Q325 604 322 604Q319 604 317.5 604.5Q316 605 315 605L315 605L315 605ZM383 612Q379 612 388.5 616.5Q398 621 402 620Q405 619 395.5 615.5Q386 612 383 612ZM443 686Q441 680 439.5 680.5Q438 681 438 688Q438 706 435.5 710.5Q433 715 434 718Q435 718 436 716.5Q437 715 439 713Q445 707 445 700Q445 693 443 686ZM491 328L491 328L491 328Q506 333 503.5 339.5Q501 346 488 341Q477 338 472.5 333Q468 328 457 326L444 321Q452 322 464 323Q476 324 491 328ZM110 619Q106 629 97.5 635.5Q89 642 79 648Q59 659 50.5 657.5Q42 656 38 651Q15 630 13 609.5Q11 589 10 552Q34 518 51.5 493Q69 468 69 461Q70 447 79 438Q88 429 95 428Q100 430 105.5 436Q111 442 114 446L114 479Q112 514 117 544.5Q122 575 110 619ZM95 500Q97 494 96.5 490.5Q96 487 95 485Q94 484 93.5 484.5Q93 485 92 487Q91 496 79.5 499Q68 502 56 530Q47 558 48.5 569Q50 580 50 596Q49 601 44.5 599Q40 597 38 593Q35 588 35.5 581Q36 574 33 577Q26 585 27.5 594.5Q29 604 34 612Q49 634 74 613Q99 592 96 540Q88 537 83 535.5Q78 534 78 530Q78 525 84 519Q90 513 95 500ZM488 648Q488 649 482 650Q476 651 468 650Q461 648 460.5 646.5Q460 645 468 644Q475 644 481.5 645.5Q488 647 488 648Z" fill="#ffffff" />
  </g>
</svg>