<?xml version="1.0" encoding="UTF-8"?>
<svg width="16" height="16" viewBox="0 0 16 16" xmlns="http://www.w3.org/2000/svg">
  <g transform="translate(0.020000000000000462, 14.9825) scale(0.015585937499999999, -0.015585937499999999)">
    <path d="M0 960L0 -64L59 -64Q121 -23 189.5 17Q258 57 347 91Q347 91 318 105Q289 118 256.5 151.5Q224 185 200 241Q177 297 189 383Q199 462 242 541Q285 621 346.5 684Q408 747 481 783Q554 820 623 813Q685 807 722 766Q759 726 776 667Q793 608 793 539Q792 470 779 406Q764 336 739 285Q713 233 688.5 199Q664 165 645 148Q627 131 627 131Q668 123 706.5 105.5Q745 88 774 43Q771 27 764 19Q757 11 753 4Q710 58 639 70Q568 82 486 66Q404 50 321 14Q237 -23 170 -64L1024 -64L1024 960Z" fill="#825078" />
  </g>
</svg>