<?xml version="1.0" encoding="UTF-8"?>
<svg width="16" height="16" viewBox="0 0 16 16" xmlns="http://www.w3.org/2000/svg">
  <g transform="translate(0.014155273437500143, 14.9876953125) scale(0.015585937499999999, -0.015585937499999999)">
    <path d="M998 405Q996 402 998.5 400Q1001 398 1005 399Q998 389 989.5 387.5Q981 386 976 390Q973 393 977.5 392.5Q982 392 986 392Q992 392 995.5 394Q999 396 999 397Q996 398 993.5 396Q991 394 987 395Q979 395 970.5 397Q962 399 962 402Q962 404 963.5 407.5Q965 411 966 410Q968 409 969 407Q970 405 971 405Q972 405 973 406.5Q974 408 976 410Q977 411 977.5 410.5Q978 410 978 410Q978 409 978.5 409.5Q979 410 980 412Q982 416 980 422.5Q978 429 974 433Q970 436 973 439Q976 442 980 442Q989 443 984 447.5Q979 452 970 449Q963 446 959.5 442.5Q956 439 950 437Q944 434 941 434Q938 434 934 433Q925 430 918.5 426.5Q912 423 903 427Q896 430 897.5 427.5Q899 425 902 422Q904 419 904.5 417.5Q905 416 901 414Q889 408 888.5 414Q888 420 883 421Q872 432 867.5 467Q863 502 817 514Q794 524 779.5 526Q765 528 757 534Q778 552 805.5 530.5Q833 509 876 507Q900 506 900.5 497Q901 488 926 482Q944 466 948.5 466Q953 466 949 490Q948 496 942.5 494.5Q937 493 934 498Q932 502 937.5 501.5Q943 501 950 494Q964 480 972 487Q980 494 983 489Q985 485 989.5 489.5Q994 494 1002 497Q1007 498 1011 500.5Q1015 503 1015 504Q1015 508 1003.5 508.5Q992 509 986 513Q980 518 983 511Q986 504 981 502Q971 497 964.5 501Q958 505 950 512Q958 517 960.5 518.5Q963 520 962 515Q960 506 968 514Q976 522 979 531Q979 536 986.5 537.5Q994 539 996 542Q996 544 981.5 546.5Q967 549 965 548Q953 546 947 544.5Q941 543 938 548Q934 553 923.5 555.5Q913 558 903 554Q896 551 888.5 550.5Q881 550 877 549Q875 549 874.5 547Q874 545 876 544Q882 539 865.5 539.5Q849 540 839 546Q833 551 827.5 551.5Q822 552 820 563Q816 576 813.5 572Q811 568 805 575Q800 582 802 584.5Q804 587 814 580Q818 578 822.5 574.5Q827 571 829 569Q837 563 835 562Q833 561 834 557Q835 556 838.5 557Q842 558 848 559Q855 561 863 563.5Q871 566 872 568Q871 570 866 571Q861 572 855 574Q852 576 848.5 576.5Q845 577 843 577Q840 577 840 575Q840 573 834 579Q835 581 845 581Q855 581 866 586Q872 591 897 591Q922 591 927 587Q940 581 940.5 583Q941 585 939 592Q936 599 934 603Q932 607 927 607Q923 607 930 601.5Q937 596 935 588Q934 587 932.5 592.5Q931 598 925 598Q919 598 921.5 601.5Q924 605 923 611Q922 615 929.5 614Q937 613 949 626Q954 631 957 629Q960 627 960 637Q960 644 963 651Q966 658 969 663Q963 666 955.5 657.5Q948 649 940 645Q934 642 935.5 639.5Q937 637 943 636Q945 633 938 628Q931 623 923 624Q915 624 909 626Q903 628 903 632Q902 637 909.5 634.5Q917 632 918 631Q921 626 922.5 631.5Q924 637 916 648Q908 658 907 657Q906 656 905 660Q905 664 908.5 667.5Q912 671 914 675Q912 678 908 676Q904 674 897 666Q884 653 879 643.5Q874 634 859 626Q838 634 837.5 631.5Q837 629 853 615Q842 610 837.5 611Q833 612 830 611Q827 609 830 607Q833 605 845 600Q826 602 817.5 602Q809 602 809 604Q809 607 810.5 611.5Q812 616 813 614Q815 608 820 613.5Q825 619 818 636Q817 642 817 645Q817 648 832 657Q834 658 834.5 658Q835 658 835 659Q834 661 828.5 661Q823 661 817 659Q812 658 808.5 655.5Q805 653 799 653Q788 650 775.5 640.5Q763 631 758 632Q756 634 753 638Q750 642 748 647Q747 643 745.5 639.5Q744 636 743 635Q739 638 735 643Q731 648 728 648Q723 635 727.5 628.5Q732 622 731 618Q729 613 734 611.5Q739 610 729 604Q716 594 708.5 593Q701 592 703 602Q704 612 706 602Q708 592 713 602Q715 615 710.5 626.5Q706 638 715 639Q726 645 711 645.5Q696 646 687 641Q680 638 676 637.5Q672 637 662 637Q670 643 681.5 646.5Q693 650 707 655Q713 657 719 661Q725 665 730 666Q738 669 759 658.5Q780 648 780 655Q780 657 778 660Q776 663 774 667Q773 671 773 674Q773 677 771 680Q768 684 772 683Q776 682 782 689Q793 701 791 691Q789 681 797 692Q800 698 799.5 702.5Q799 707 801 712Q802 716 805.5 718Q809 720 811 723Q801 728 793 720Q785 712 776 705Q772 702 774 701.5Q776 701 776 700Q777 699 776 697.5Q775 696 765 696Q755 697 751.5 697.5Q748 698 747 704Q748 709 749 709.5Q750 710 752 706Q752 705 752 703.5Q752 702 755 706Q759 711 757.5 714.5Q756 718 759 717Q761 715 760.5 711.5Q760 708 763 708Q768 715 768 723Q768 731 762 742Q759 746 766.5 750.5Q774 755 769 757Q760 761 748 748Q736 735 724 727Q721 727 719.5 729Q718 731 715 730Q708 720 706.5 710Q705 700 683 705Q681 705 687 699.5Q693 694 684 692Q681 692 677 688.5Q673 685 675 686Q676 687 678 686.5Q680 686 685 684Q687 682 690 681.5Q693 681 693 680Q693 680 692 679Q691 678 690 677Q657 671 645 654.5Q633 638 623 636Q619 636 620 637.5Q621 639 616 641Q611 642 614 637.5Q617 633 612 631Q605 631 596.5 638Q588 645 582 654Q585 663 587.5 659.5Q590 656 598 655Q602 654 604 650.5Q606 647 610 646Q617 647 618 658Q619 669 617 675Q615 679 613 677.5Q611 676 611 680Q611 682 612 682.5Q613 683 616 682Q621 681 624 683.5Q627 686 631 688Q632 688 632 686.5Q632 685 632 684Q632 682 632.5 681.5Q633 681 634 682Q641 690 651.5 692Q662 694 661 700Q660 701 643.5 703.5Q627 706 622 704Q615 702 622 699.5Q629 697 623 695Q615 694 611 696.5Q607 699 609 707Q609 708 609.5 709Q610 710 610 711Q611 711 612 710.5Q613 710 613 709Q613 708 613.5 708Q614 708 616 710Q622 719 620 728Q618 737 626 740Q632 742 632.5 744Q633 746 628 747Q614 749 609.5 743.5Q605 738 600 738Q596 738 589 734Q582 730 575 724Q574 723 573.5 723.5Q573 724 573 726Q572 735 559.5 724Q547 713 539 721Q537 723 535.5 722.5Q534 722 534 720Q534 718 534.5 715.5Q535 713 533 713Q531 715 526.5 710Q522 705 528 706Q535 706 535.5 704Q536 702 522 696Q507 688 499 686.5Q491 685 493 683Q494 681 497.5 680.5Q501 680 506 679Q509 679 511 676.5Q513 674 518 676Q521 678 526 677.5Q531 677 536 676Q535 669 534.5 660Q534 651 536 650Q539 648 538 650Q537 652 540 653Q542 652 543.5 646.5Q545 641 542 638Q539 635 542.5 635Q546 635 548 637Q551 641 552.5 638.5Q554 636 556 633Q559 626 561 627Q563 628 565 624Q568 620 575 616.5Q582 613 590 611Q593 610 592.5 609.5Q592 609 588 607Q581 603 582 600.5Q583 598 579 595Q563 578 566 554Q569 530 588 516Q604 502 611.5 502Q619 502 635 498Q649 493 672.5 490.5Q696 488 701 483Q709 473 706 459.5Q703 446 693 442Q653 435 610 458.5Q567 482 552 534Q549 538 551.5 543.5Q554 549 552 559Q547 571 544.5 564Q542 557 537 550Q518 562 505 569.5Q492 577 492 581Q492 585 496.5 579Q501 573 506 576Q514 583 510 595.5Q506 608 489 627Q467 649 429 678Q392 706 349.5 732.5Q307 759 265 781Q223 802 193 811Q190 811 188.5 810Q187 809 188 808Q202 795 218.5 787.5Q235 780 251 759Q249 755 242.5 753Q236 751 235 749Q236 747 239 747Q242 747 244 746Q259 742 267.5 732Q276 722 272 717Q268 713 260 714.5Q252 716 250 709Q251 707 255 707Q259 707 270 702Q293 688 294 676.5Q295 665 264 677Q228 689 194 696Q160 703 143 694Q128 688 147 688Q166 688 181 680Q188 675 188.5 673Q189 671 184 669Q169 665 147.5 665Q126 665 109 661Q100 659 94 659Q88 659 82 651Q82 645 97.5 648Q113 651 125 648Q132 646 127 641Q122 636 112 633Q80 624 53.5 618Q27 612 21 605Q13 598 7.5 596.5Q2 595 1 591Q0 589 3 590.5Q6 592 41 600Q55 603 80.5 604Q106 605 109 603Q109 601 105 598.5Q101 596 100 593Q100 591 101 591Q102 591 105 591Q131 599 166 597.5Q201 596 216 591Q221 589 222 584Q223 579 223 575Q224 563 211 554.5Q198 546 199 538Q201 533 205 536.5Q209 540 224 543Q236 546 258.5 539.5Q281 533 292 521Q320 490 307 480Q294 470 286 460Q285 458 284.5 455.5Q284 453 286 450Q288 449 295 454.5Q302 460 320 460Q332 459 354 446.5Q376 434 378 430Q318 400 269 381Q220 362 198 366Q171 377 132.5 391.5Q94 406 75 426Q74 429 90 424Q106 419 116 409Q113 436 89.5 442Q66 448 56 468Q51 478 50.5 497.5Q50 517 47 532Q46 533 44.5 534Q43 535 43 534Q39 529 34.5 503Q30 477 30 461Q30 446 36 426.5Q42 407 50 388Q52 390 54.5 399Q57 408 56 418Q91 379 112 371.5Q133 364 144 353Q85 335 64 307Q43 279 40 246Q32 209 72.5 175.5Q113 142 194 161Q205 165 213.5 151.5Q222 138 240 138Q242 138 245.5 141.5Q249 145 249 137Q248 131 252.5 131Q257 131 258 135Q258 143 257.5 145.5Q257 148 263 147Q272 145 273 151Q274 157 277 147Q279 141 281 141.5Q283 142 286 149Q288 155 283.5 162.5Q279 170 276 183Q285 177 286.5 176.5Q288 176 288 180Q288 186 281.5 191.5Q275 197 263 194Q257 193 253.5 190Q250 187 242 184Q241 184 240.5 183Q240 182 240 181Q238 180 235 181Q232 182 231 184Q234 188 249 201Q264 214 270 251Q278 252 289 251.5Q300 251 308 251Q319 252 324 254.5Q329 257 334 258Q339 256 335.5 250.5Q332 245 333 241Q336 241 345.5 246Q355 251 354 264Q355 268 357 268Q359 268 361 267Q368 263 381.5 262.5Q395 262 402 252Q405 248 404 245.5Q403 243 401 243Q394 242 393.5 235.5Q393 229 400 227Q410 224 415 223Q420 222 422 214Q422 207 429.5 209.5Q437 212 437 208Q436 203 438 200.5Q440 198 440 195Q440 193 437.5 192Q435 191 435 180Q434 170 440.5 166Q447 162 449 162Q452 162 452.5 163.5Q453 165 450 167Q448 169 453.5 168.5Q459 168 465 173Q471 182 484.5 174.5Q498 167 515 157Q521 155 525.5 153Q530 151 542 144Q556 134 560.5 144Q565 154 568 137Q569 132 571.5 134.5Q574 137 574 145Q575 159 572 160Q569 161 574 168Q575 171 576 172.5Q577 174 579 174Q581 174 583.5 172Q586 170 587 167Q591 160 592 167.5Q593 175 588 182Q575 195 569 194Q563 193 561 197Q560 199 563 199.5Q566 200 571 197Q575 195 575 197Q575 199 571 204Q550 219 539 207Q528 195 517 198Q488 211 473 229Q458 247 468 283Q470 290 475.5 285.5Q481 281 482 281Q486 281 483 290.5Q480 300 474 303Q466 307 460.5 314Q455 321 448 323Q446 325 441 325Q436 325 426 327Q432 333 452 339Q472 345 506 340Q515 338 522.5 323Q530 308 531 294Q532 280 535 274Q538 268 540 268Q548 275 547 288.5Q546 302 566 313Q586 299 604 287Q622 275 651 272Q655 272 655.5 270.5Q656 269 655 263Q650 238 652.5 241.5Q655 245 661 240Q664 234 661 219Q658 204 666 210Q669 213 670 212Q671 211 673 206Q676 198 675.5 191Q675 184 679 184Q682 184 682.5 178.5Q683 173 679 174Q672 174 667.5 168Q663 162 665 152Q666 147 669.5 143.5Q673 140 677 134Q677 140 676 146Q675 152 676 153Q677 152 679.5 150Q682 148 686 147Q690 146 696 146.5Q702 147 707 143Q714 136 719 129Q724 122 734 114Q738 111 743.5 106Q749 101 754 96Q759 91 766 96.5Q773 102 777 99Q779 97 777 92.5Q775 88 775 87Q776 85 778 86Q780 87 784 91Q788 97 788.5 101.5Q789 106 787 112Q785 114 786 114.5Q787 115 792 115Q798 114 800.5 115.5Q803 117 806 123Q808 125 811.5 123.5Q815 122 815 117Q815 111 817 111.5Q819 112 822 116Q829 125 823.5 133Q818 141 811 143Q802 145 803.5 148Q805 151 791 156Q778 162 774 158Q770 154 758 153Q735 160 727 181Q719 202 719 246Q720 256 724 255.5Q728 255 728 248Q728 238 732.5 241.5Q737 245 737 232Q736 218 741.5 222Q747 226 750 215Q753 206 755 208Q757 210 762 205Q766 201 767.5 203Q769 205 772 201Q773 197 764 198.5Q755 200 750 184Q748 178 753 174.5Q758 171 763 171Q769 171 766 173Q763 175 763 177Q764 179 767 177.5Q770 176 774 179Q778 183 784.5 177.5Q791 172 797 171Q798 171 799 170Q800 169 801 168Q813 156 827.5 143Q842 130 849 132Q856 132 859 133.5Q862 135 863 129Q864 122 869.5 125.5Q875 129 873 137Q872 146 870.5 151Q869 156 874 155Q877 156 880 159Q883 162 887 167Q889 163 890.5 159.5Q892 156 893 153Q895 153 896 156Q897 159 898 165Q899 173 884.5 185Q870 197 866 197Q859 197 854.5 193Q850 189 841 190Q831 191 818.5 201.5Q806 212 805 216Q791 248 778.5 275Q766 302 771 312Q776 335 782 340Q788 345 789 353Q791 366 789 373Q787 380 793 387Q815 402 827 415.5Q839 429 843 443Q847 436 854 419Q861 402 871 386Q866 384 857 383Q848 382 849 381Q849 379 860 378.5Q871 378 882 379Q890 381 888.5 379Q887 377 892 376Q899 376 892 370Q885 364 879 357Q877 354 884 355Q891 356 900 364Q905 367 907.5 368Q910 369 911 369Q913 369 914 369Q915 369 916 373Q917 384 935 375.5Q953 367 975 354Q978 352 979.5 349.5Q981 347 984 348Q988 363 985.5 373Q983 383 992 385Q1000 388 1004.5 392.5Q1009 397 1010 394Q1011 391 1014 393.5Q1017 396 1017 402Q1018 409 1020.5 413Q1023 417 1024 421Q1022 423 1012.5 416.5Q1003 410 998 405ZM654 528Q639 531 619.5 537Q600 543 597 559Q597 564 603 570.5Q609 577 611 576Q612 574 610 568Q608 562 609 559Q611 559 615 562Q619 565 624 568Q626 567 625.5 562Q625 557 628 557Q630 557 631 556Q632 555 632 553Q632 550 637.5 544Q643 538 653 531Q655 529 655 528.5Q655 528 654 528ZM154 245Q157 245 161.5 243.5Q166 242 160 233Q157 228 157 225Q157 222 162 223Q167 225 164.5 215Q162 205 160 203Q148 198 116 210Q84 222 84 231Q86 246 112.5 267Q139 288 163 292Q165 292 166 278Q167 264 157 257Q153 252 150 247.5Q147 243 154 245Z" fill="#46788d" />
  </g>
</svg>