<?xml version="1.0" encoding="UTF-8"?>
<svg width="16" height="16" viewBox="0 0 16 16" xmlns="http://www.w3.org/2000/svg">
  <g transform="translate(0.2055796185661767, 14.9825) scale(0.015585937499999999, -0.015585937499999999)">
    <path d="M887 696Q877 703 885.5 714Q894 725 900 729Q914 730 935 728.5Q956 727 963 716Q966 722 964 730.5Q962 739 955 745Q942 750 921.5 755Q901 760 889 790Q889 792 888 793.5Q887 795 885 796Q885 797 885 798Q885 799 885 801Q889 800 893 799.5Q897 799 900 798L901 801Q897 802 893 802.5Q889 803 885 804Q889 805 893.5 805.5Q898 806 903 805L904 808Q898 809 893 808.5Q888 808 884 807L884 811Q888 813 892.5 813.5Q897 814 902 813L902 817Q897 817 892.5 816.5Q888 816 884 815L884 817Q889 821 894 824Q899 827 904 827L904 830Q900 830 896.5 828.5Q893 827 889 825Q891 828 895.5 830.5Q900 833 904 834L902 836L906 836L904 840Q899 840 894.5 839.5Q890 839 886 837L886 840Q890 843 894.5 845Q899 847 904 849L903 852Q898 850 894.5 848.5Q891 847 887 845Q888 846 888.5 848Q889 850 890 851Q892 852 894.5 852.5Q897 853 900 854L899 858Q897 858 895 857.5Q893 857 892 856Q896 864 900 865Q904 866 904 866L904 869Q904 869 900 868.5Q896 868 891 861Q891 863 890.5 864Q890 865 890 867Q892 869 894 870.5Q896 872 898 874L896 876Q894 875 892.5 873.5Q891 872 889 870Q889 872 888.5 873Q888 874 888 874Q888 875 889.5 876.5Q891 878 893 879L891 881Q888 880 885.5 877Q883 874 883 874L884 877Q888 880 895 884Q902 888 909 882L911 885Q906 889 901 888.5Q896 888 891 886L903 899L901 901L895 895Q895 901 893 907Q891 913 891 913L888 911Q888 911 890.5 904Q893 897 891 891Q892 896 889.5 900.5Q887 905 879 909L878 907Q885 902 887.5 897Q890 892 886 886L883 888L882 886Q881 888 880.5 890Q880 892 879 894L882 898L880 900L878 898Q877 901 874.5 908Q872 915 872 915L869 914L872 905Q871 899 866 891.5Q861 884 859 877Q858 882 857.5 890.5Q857 899 862 901L860 904Q857 902 856 897.5Q855 893 855 888L851 896Q853 906 860 913Q867 920 868 920L866 923Q865 922 858.5 916.5Q852 911 849 902Q848 906 847.5 910.5Q847 915 848 919L845 920Q844 916 844 912.5Q844 909 845 905L841 914Q841 921 844 924Q847 927 847 927L845 930Q845 930 843 928Q841 926 839 922Q839 927 841 931Q843 935 847 937L846 940Q842 938 839 934.5Q836 931 836 925L834 930Q834 936 837 939Q840 942 840 942L838 945Q838 945 835.5 942.5Q833 940 832 936L830 940L826 938Q826 937 831 926Q836 915 840 906Q838 907 836.5 908Q835 909 833 910Q833 914 833 916Q833 918 833 918L830 918Q830 918 830 916Q830 914 830 911Q826 913 822.5 914.5Q819 916 816 916L815 913Q819 913 822.5 911Q826 909 830 908L830 900L823 903Q824 903 825 903.5Q826 904 826 904L826 908Q825 907 823 906Q821 905 820 904L813 906Q813 910 814 914Q815 918 816 922Q818 923 819.5 924Q821 925 823 925L823 928Q822 928 820.5 927.5Q819 927 817 926Q818 928 818.5 929.5Q819 931 819 931L816 932Q816 932 815 929.5Q814 927 813 924Q811 922 808.5 920Q806 918 805 916L803 920Q809 929 816 934.5Q823 940 823 940L821 942Q821 942 814.5 937Q808 932 802 924L800 929L797 928L799 922Q797 923 794.5 923.5Q792 924 790 924Q790 925 791.5 928.5Q793 932 794 935Q799 940 803.5 941Q808 942 813 938L815 940Q811 944 807 944.5Q803 945 798 943Q800 945 802 948Q804 951 806 953L803 955Q797 947 794.5 942Q792 937 790 935Q790 936 790 936.5Q790 937 790 938L791 958L788 958Q788 958 787.5 955Q787 952 787 948Q784 953 780.5 956.5Q777 960 776 960L774 957Q774 957 778 953.5Q782 950 785 945Q782 948 779 950.5Q776 953 776 953L774 950Q776 948 780.5 944.5Q785 941 787 937Q786 933 786.5 927.5Q787 922 787 922Q783 933 779 938.5Q775 944 775 944L772 942Q772 942 777.5 934Q783 926 787 909Q784 911 780 911Q776 911 772 911L771 913L768 911L769 910Q767 909 766 909Q765 909 765 909L766 906L770 907L771 905Q768 903 766 901Q764 899 763 898L762 902Q762 911 766 916.5Q770 922 780 923L780 926Q773 925 767.5 921.5Q762 918 760 912L758 920L761 928Q763 930 766 932.5Q769 935 772 934L773 937Q770 938 767.5 937Q765 936 763 935Q765 940 767 943.5Q769 947 770 947L768 950Q765 948 762.5 941Q760 934 757 927L756 935Q758 941 760.5 947Q763 953 766 956L765 959Q761 956 759 952Q757 948 755 943Q754 947 754 949.5Q754 952 754 952L751 952Q751 952 751 948.5Q751 945 752 939L742 950L739 948L753 933L754 925L735 944L732 941L736 938Q735 938 733.5 937.5Q732 937 731 937L729 955L725 955L727 935L709 951L706 947L715 939Q708 940 704.5 936.5Q701 933 701 933L703 932Q706 935 712.5 935.5Q719 936 723 932Q721 929 719.5 927Q718 925 718 924Q713 924 709.5 923.5Q706 923 706 923L707 919Q708 919 709 919Q710 919 711 919Q711 919 709.5 918.5Q708 918 707 917Q705 919 703.5 921.5Q702 924 700 926L700 949L696 949L696 931L687 940L684 937L694 926Q685 929 676.5 929Q668 929 668 929L666 926L672 926Q668 922 665.5 916Q663 910 663 906L658 913L660 924L656 924L655 916L647 921L646 919L655 912L660 905Q653 907 647 907.5Q641 908 635 908L636 903Q642 904 649 903Q656 902 663 899L671 889Q666 888 660.5 886Q655 884 650 881L647 883Q648 889 652 891Q656 893 663 892L663 895Q655 896 650.5 893.5Q646 891 644 885L636 892L633 889Q633 889 637.5 885.5Q642 882 650 875Q648 874 646 873Q644 872 642 871L633 877Q628 881 625 884Q622 887 622 890L619 890Q619 888 620.5 885Q622 882 625 879Q619 880 613.5 878.5Q608 877 608 877L609 874Q609 874 616.5 876Q624 878 632 874Q634 873 635.5 871.5Q637 870 638 870Q636 869 634 868Q632 867 632 867Q630 868 628.5 868Q627 868 625 868L622 875L618 874L621 868Q617 868 614.5 867.5Q612 867 612 867L609 870L607 868Q607 868 610.5 864Q614 860 620 855Q618 853 617 851Q616 849 615 847Q612 848 609.5 848.5Q607 849 605 849L604 846Q606 846 608.5 845.5Q611 845 613 845Q611 841 609.5 838.5Q608 836 608 836L611 834Q611 834 612.5 837Q614 840 616 844Q619 843 622.5 843Q626 843 629 843Q626 841 624 839.5Q622 838 620 836L622 834Q624 836 627 838Q630 840 633 841L637 831Q634 830 632 829Q630 828 627 827Q620 832 614 833Q608 834 608 834L607 830Q607 830 612 829Q617 828 623 825Q622 824 620.5 823.5Q619 823 618 822Q610 824 604 825Q598 826 591 825Q594 822 597 818.5Q600 815 602 811L601 809Q596 811 591.5 812.5Q587 814 583 815L582 812Q586 811 590 809.5Q594 808 598 807Q595 803 591.5 799Q588 795 586 791L589 789Q591 793 594 797Q597 801 601 805Q603 804 605 802.5Q607 801 609 800L595 793L596 789L619 800Q614 794 614.5 792.5Q615 791 613 791L612 792L609 791L610 789L587 776Q583 778 581.5 784Q580 790 580 793L576 793Q576 793 576.5 787Q577 781 581 776Q577 779 574 782Q571 785 571 785L569 784Q569 784 572.5 779.5Q576 775 581 773L576 769L578 765Q578 765 584.5 769.5Q591 774 601 779Q594 774 590 769Q586 764 584 759L587 758Q589 764 596 771Q603 778 613 784Q614 782 615.5 779.5Q617 777 619 775L616 773Q605 772 597.5 766.5Q590 761 590 761L592 758Q592 758 598 762.5Q604 767 613 769L610 766L612 764Q612 764 613.5 765.5Q615 767 618 770Q627 770 632 771.5Q637 773 642 777Q640 773 636 769.5Q632 766 628 762L628 765Q628 765 624.5 763.5Q621 762 617 755L614 753Q606 755 601 755.5Q596 756 596 756L595 751Q595 751 598.5 751Q602 751 608 750Q605 748 602 746Q599 744 599 744Q594 748 585.5 750Q577 752 577 752L577 749Q580 748 586 746.5Q592 745 596 742L591 738Q585 740 577.5 740.5Q570 741 570 741L570 738Q570 738 574 737.5Q578 737 583 736Q580 735 578 733Q576 731 575 729L578 727Q580 731 583.5 733Q587 735 593 733Q592 732 591 730.5Q590 729 589 728Q589 728 588 729Q587 730 587 730L584 728L586 725Q585 725 584.5 724Q584 723 583 723L584 720Q585 720 586 721Q587 722 588 723Q590 721 591.5 719Q593 717 596 716Q592 714 589 712Q586 710 584 708Q580 714 574.5 719Q569 724 565 727L562 724Q565 721 571.5 715.5Q578 710 580 705Q577 702 575 699.5Q573 697 571 695Q567 698 565.5 701Q564 704 564 704L560 702Q565 695 570 689.5Q575 684 582 680Q579 679 576.5 677.5Q574 676 572 675Q568 678 566 679.5Q564 681 564 681L562 678Q562 678 563.5 676.5Q565 675 567 673Q563 671 560.5 669.5Q558 668 558 668L561 664Q561 664 563.5 666Q566 668 571 671L578 666Q574 664 571.5 662.5Q569 661 569 661L571 657Q571 657 574.5 659Q578 661 583 663L590 658Q588 657 586 655.5Q584 654 584 654L587 651Q587 651 589 652.5Q591 654 594 656Q600 653 606 650Q612 647 619 645Q587 628 550 604Q512 580 476 551.5Q440 523 410 492Q380 461 364 432Q348 421 335.5 407Q323 393 313 375Q304 359 284.5 329Q265 299 272 259Q197 207 162.5 158.5Q128 110 16 59Q-1 51 0.5 40Q2 29 25 24Q109 22 122 33.5Q135 45 167 52Q203 54 256.5 95Q310 136 376 189Q376 189 385 190Q394 191 404 190Q434 187 468.5 174Q503 161 529 153L530 73Q530 53 514.5 47.5Q499 42 481 37Q464 33 456 29Q448 25 443 9L453 12Q454 16 461 19Q468 22 471 16Q474 10 480.5 10.5Q487 11 494 18Q512 19 556.5 17.5Q601 16 615 9Q615 9 625.5 7.5Q636 6 653 13Q665 18 675 18Q685 18 685 18Q683 23 678 26.5Q673 30 664 31Q658 36 650 37.5Q642 39 637 44Q630 52 608.5 51.5Q587 51 569 54Q563 55 561.5 61Q560 67 559 75Q557 97 559.5 125Q562 153 562 153Q603 150 618.5 153.5Q634 157 655 153Q667 128 678 96.5Q689 65 699 30Q702 21 684.5 13Q667 5 650 2Q639 0 629.5 -2.5Q620 -5 616 -19Q615 -23 618 -24.5Q621 -26 624 -21Q627 -15 631 -14.5Q635 -14 637 -15Q640 -17 642.5 -19Q645 -21 651 -21Q659 -20 664.5 -17Q670 -14 675 -11Q682 -5 711.5 -6.5Q741 -8 739 -9Q765 -36 779.5 -38.5Q794 -41 806 -56Q806 -56 811 -57.5Q816 -59 818 -56Q822 -52 826 -51Q830 -50 831 -53Q832 -57 831.5 -60.5Q831 -64 831 -64Q831 -64 834.5 -54.5Q838 -45 829 -38Q822 -33 802 -23.5Q782 -14 782 -9Q782 -9 808.5 -8Q835 -7 841 -9Q847 -11 863 -11Q879 -11 883 -8Q889 -2 897.5 -6Q906 -10 906 -10Q903 4 888.5 7.5Q874 11 837 11Q836 12 830.5 14Q825 16 825 17Q825 21 839.5 20Q854 19 861 16Q859 24 853 30.5Q847 37 840 37Q805 39 780.5 34.5Q756 30 747 35Q724 66 711 100.5Q698 135 692 173Q845 232 862 283.5Q879 335 912 361Q963 404 984 450Q1004 496 998.5 541Q993 586 964 626Q934 666 887 696ZM864 804Q864 805 864 806Q864 807 864 808Q864 807 864.5 805.5Q865 804 866 803Q865 803 864.5 803.5Q864 804 864 804ZM866 847Q865 845 863.5 843Q862 841 861 839Q861 839 861 839.5Q861 840 861 841Q862 843 863.5 846Q865 849 866 852Q866 851 866 849.5Q866 848 866 847ZM867 811Q867 812 866.5 813.5Q866 815 866 816Q866 816 866 816.5Q866 817 866 817Q866 815 866.5 814Q867 813 867 811ZM865 825L864 824L864 825L865 827L865 825ZM865 838Q865 838 865 837Q865 836 865 835Q864 834 863.5 833Q863 832 862 831Q862 831 862 831.5Q862 832 862 833Q863 834 863.5 835.5Q864 837 865 839ZM868 832Q868 832 868.5 832.5Q869 833 869 834Q869 832 868.5 830Q868 828 868 827Q868 828 868 829.5Q868 831 868 832ZM878 829Q879 829 880 829.5Q881 830 882 831Q882 829 881.5 826.5Q881 824 881 822Q879 819 876.5 816Q874 813 872 810Q872 817 874 822Q876 827 878 829ZM877 833Q879 835 880 836Q881 837 883 838Q883 837 882.5 836.5Q882 836 882 836Q881 835 880 834.5Q879 834 877 833ZM881 813Q880 813 877 810Q874 807 872 805Q872 805 872 805Q872 805 872 806Q873 808 875.5 811Q878 814 881 815Q881 815 881 814Q881 813 881 813ZM881 809Q881 808 881 807.5Q881 807 881 806Q880 805 879 804.5Q878 804 878 804Q877 804 876.5 804Q876 804 876 804Q877 805 878.5 806.5Q880 808 881 809ZM878 801L881 801Q881 800 881.5 799.5Q882 799 882 798Q881 799 880 799.5Q879 800 878 800Q878 800 878 800.5Q878 801 878 801ZM884 842Q880 840 877 837.5Q874 835 872 833Q873 834 873 836Q873 838 874 839Q876 842 879 844.5Q882 847 885 849Q885 847 884.5 845.5Q884 844 884 842ZM901 836Q897 835 892.5 832Q888 829 884 825Q885 827 885 829Q885 831 885 832Q889 834 893 835Q897 836 901 836ZM887 854Q885 853 882.5 851.5Q880 850 877 848Q879 852 881.5 856Q884 860 887 864Q888 862 888 859.5Q888 857 887 854ZM885 872Q886 871 886 870Q886 869 887 868Q881 862 877.5 856Q874 850 872 843Q871 842 870 841Q869 840 868 839Q868 841 868 842.5Q868 844 869 846Q872 853 876.5 859.5Q881 866 885 872ZM880 873L880 871Q878 868 875.5 864Q873 860 871 856Q871 858 871.5 859Q872 860 872 862Q874 865 876 867.5Q878 870 880 873ZM879 882Q876 878 874 874Q872 870 871 866Q871 873 872.5 879Q874 885 877 891L879 882ZM874 900Q875 899 875 897.5Q875 896 876 895Q875 894 874.5 892.5Q874 891 873 889Q871 889 869.5 887.5Q868 886 866 885Q868 889 870.5 893Q873 897 874 900ZM871 883Q869 880 868.5 875Q868 870 867 865Q866 866 864.5 867.5Q863 869 862 871Q863 874 865 877.5Q867 881 871 883ZM860 866Q862 865 863.5 863Q865 861 866 859Q865 856 863.5 853Q862 850 860 848Q860 854 860 859Q860 864 860 866ZM861 816Q862 815 862 814.5Q862 814 862 814Q861 811 861 808.5Q861 806 861 804Q861 804 860.5 804Q860 804 860 804Q860 806 859.5 808Q859 810 858 812Q859 813 860 814Q861 815 861 816ZM631 650Q628 651 625 652.5Q622 654 619 655Q619 656 618.5 656.5Q618 657 618 657Q621 657 624 657.5Q627 658 630 658Q631 657 632.5 655Q634 653 635 652Q634 651 633 651Q632 651 631 650ZM606 674Q602 675 598.5 676Q595 677 592 679Q594 680 597 680.5Q600 681 603 682Q603 680 604 678Q605 676 606 674ZM604 689Q605 688 606 687.5Q607 687 608 687Q607 687 606 687Q605 687 605 686Q604 687 604 687.5Q604 688 604 689ZM597 672Q595 672 593.5 671.5Q592 671 591 671Q589 672 586.5 673.5Q584 675 583 676Q584 676 584.5 676.5Q585 677 586 677Q589 676 591.5 674.5Q594 673 597 672ZM608 669Q608 668 608.5 667.5Q609 667 609 666Q607 666 605.5 665.5Q604 665 602 665Q600 665 599 666Q598 667 596 668Q599 669 602 669Q605 669 608 669ZM611 662L612 660Q612 661 611 661Q610 661 609 661Q609 661 608.5 661Q608 661 607 662Q608 662 609 662Q610 662 611 662ZM612 668Q613 668 614 667.5Q615 667 616 667Q616 666 615.5 665Q615 664 614 663Q614 664 613 665.5Q612 667 612 668ZM610 673Q608 675 607.5 677.5Q607 680 606 682Q608 683 611 683.5Q614 684 617 684Q617 684 618 683.5Q619 683 619 683Q620 681 621 678.5Q622 676 623 674Q622 673 621 672.5Q620 672 619 671Q617 671 614.5 671.5Q612 672 610 673ZM626 716L618 717Q615 721 613 725.5Q611 730 610 734Q611 735 612 735Q613 735 613 735Q614 727 618 722.5Q622 718 626 716ZM617 732L624 730Q623 729 622 727Q621 725 621 724Q620 726 619 728Q618 730 617 732ZM663 844Q661 845 658.5 845Q656 845 654 845Q651 848 648 850.5Q645 853 643 855Q645 857 648 858Q651 859 655 860Q660 857 666 852.5Q672 848 675 844Q673 844 671 844Q669 844 668 844Q664 850 658 853.5Q652 857 652 857L651 854Q651 854 655.5 851.5Q660 849 663 844ZM667 857Q672 855 676.5 852.5Q681 850 688 846Q688 845 688 844Q688 843 688 842Q686 842 683.5 842.5Q681 843 679 843Q678 847 674.5 850.5Q671 854 667 857ZM712 831Q704 832 698 832Q692 832 692 832L692 829Q692 829 701.5 829Q711 829 721 825L728 821Q720 822 711.5 823Q703 824 693 824Q690 828 685.5 830.5Q681 833 674 834Q688 836 695 835.5Q702 835 712 831ZM700 838Q698 839 695.5 839.5Q693 840 691 841Q691 842 691 842.5Q691 843 691 844ZM692 849Q693 851 694 851.5Q695 852 695 853Q696 851 697 849Q698 847 699 845L692 849ZM691 892Q689 891 687 889.5Q685 888 685 888L687 886Q687 886 688.5 887Q690 888 693 890Q694 889 694.5 887.5Q695 886 696 885Q694 882 692 879.5Q690 877 689 875Q687 879 685.5 884.5Q684 890 683 894L696 905Q700 903 703.5 901.5Q707 900 710 897Q706 898 702 897Q698 896 695 895L694 897L690 894L691 892ZM698 882Q700 880 701.5 877.5Q703 875 705 873Q703 871 701.5 869.5Q700 868 699 867Q697 868 695 870Q693 872 692 874Q692 875 693.5 877.5Q695 880 698 882ZM708 869L711 866Q710 866 709.5 863Q709 860 709 857Q707 859 705.5 860.5Q704 862 702 864Q703 865 704.5 866Q706 867 708 869ZM708 876Q707 878 705 880Q703 882 701 885Q703 886 705 886.5Q707 887 709 887L709 890Q706 890 704 889Q702 888 700 887Q699 888 698 889.5Q697 891 697 892Q700 894 704.5 894.5Q709 895 713 893Q713 891 714 889.5Q715 888 716 887Q714 884 712 881Q710 878 708 876ZM719 883L721 879Q721 875 720 871.5Q719 868 717 865Q716 867 714.5 869Q713 871 711 872Q713 875 715 877.5Q717 880 719 883ZM751 853Q747 857 742 862Q737 867 732 873Q733 876 734.5 880.5Q736 885 739 887Q742 876 745.5 866Q749 856 751 853ZM740 898Q742 897 745 896Q748 895 751 893Q749 890 747.5 887.5Q746 885 745 883Q744 886 743 890Q742 894 740 898ZM794 859Q791 866 788 872.5Q785 879 782 885Q782 888 781.5 890Q781 892 781 893Q784 893 786.5 892Q789 891 791 890Q791 887 791.5 883Q792 879 792 874L789 882L786 880Q789 872 791.5 867.5Q794 863 794 859ZM808 880Q807 882 806.5 883.5Q806 885 805 886Q806 887 806.5 888.5Q807 890 808 891Q809 889 809 886.5Q809 884 810 882Q810 881 809.5 880.5Q809 880 808 880ZM811 867Q809 864 808.5 860Q808 856 808 853Q807 856 806.5 858Q806 860 805 862Q805 865 806 867Q807 869 808 872Q809 871 809.5 869.5Q810 868 811 867ZM806 875Q805 873 804.5 871.5Q804 870 803 868Q803 870 802 872.5Q801 875 801 875L803 881Q804 880 804.5 878.5Q805 877 806 875ZM810 837L808 836Q805 844 802 851Q799 858 796 864Q796 870 795.5 876Q795 882 794 887Q798 873 802 861Q806 849 810 837ZM843 846Q845 846 847 845.5Q849 845 851 844Q852 842 853.5 840Q855 838 856 836Q855 834 854 831Q853 828 853 826Q851 831 848.5 836Q846 841 843 846ZM852 820L851 815Q849 821 847 827Q845 833 843 839Q846 834 848 829Q850 824 852 820ZM841 849Q841 849 841 849.5Q841 850 841 850Q842 851 843.5 852Q845 853 846 854Q847 853 847.5 851.5Q848 850 849 848Q847 849 845 849Q843 849 841 849ZM839 853Q839 855 838.5 856.5Q838 858 838 860Q839 860 840.5 861Q842 862 843 862Q844 861 844.5 859.5Q845 858 845 857Q844 856 842.5 855Q841 854 839 853ZM838 845Q840 838 842 831Q844 824 847 817Q844 821 840 827Q836 833 833 838L832 842Q833 843 835 843.5Q837 844 838 845ZM849 808L848 806Q846 807 845 808.5Q844 810 843 812Q842 814 841 816.5Q840 819 839 821Q841 818 843.5 814.5Q846 811 849 808ZM831 846Q831 847 830.5 849Q830 851 830 852Q830 853 831 854Q832 855 833 856Q834 855 835 853.5Q836 852 836 851Q835 850 833.5 848.5Q832 847 831 846ZM829 856Q828 859 828 861Q828 863 828 866L832 859L829 856ZM830 837Q831 837 832.5 831Q834 825 835 823Q832 827 830.5 830Q829 833 827 836Q828 837 829 838Q830 839 830 837ZM829 824Q829 823 829.5 822.5Q830 822 830 822Q829 822 828 822Q827 822 826 821Q826 821 826 821.5Q826 822 826 822Q827 822 827.5 822.5Q828 823 829 824ZM743 772Q741 773 737.5 773.5Q734 774 731 775Q732 777 733 778.5Q734 780 736 782Q740 781 743 780Q746 779 749 779Q748 777 746.5 775.5Q745 774 743 772ZM734 759Q732 757 730.5 756Q729 755 727 753Q726 753 725.5 753Q725 753 724 753Q721 754 719 755.5Q717 757 715 759Q716 759 717.5 759Q719 759 720 759Q720 758 720 757.5Q720 757 720 757L723 759L735 759L734 759ZM718 716Q717 717 715 718Q713 719 712 720L714 725Q715 724 716.5 722.5Q718 721 720 720L718 716ZM713 731L711 734Q714 738 718 741.5Q722 745 727 748Q727 748 727.5 748Q728 748 729 748L727 744Q724 742 720.5 739.5Q717 737 713 731ZM666 693Q673 689 679 685Q685 681 688 677Q687 676 686 675.5Q685 675 684 674Q677 680 672.5 684.5Q668 689 666 693ZM631 689Q629 691 627.5 693.5Q626 696 626 697Q628 697 630 697Q632 697 633 697Q636 695 638.5 692.5Q641 690 644 687Q641 688 637.5 688.5Q634 689 631 689ZM635 677Q632 677 630 676.5Q628 676 625 675Q625 677 624.5 679Q624 681 623 682Q625 681 627.5 680.5Q630 680 632 680Q633 679 633.5 678.5Q634 678 635 677ZM638 715Q637 715 635.5 715Q634 715 632 716Q633 717 635 718.5Q637 720 639 721Q638 719 638 717.5Q638 716 638 715ZM645 710Q647 708 648 706.5Q649 705 651 703Q646 702 641.5 701.5Q637 701 633 701Q630 703 627 706Q624 709 621 712Q628 712 634 711.5Q640 711 645 710ZM738 860Q739 859 740 858Q741 857 742 856Q740 854 737.5 853Q735 852 733 852Q733 853 732.5 854.5Q732 856 732 858Q733 858 734.5 858.5Q736 859 738 860ZM731 862Q731 863 731 865Q731 867 730 868Q731 867 732.5 866Q734 865 735 863Q734 863 733 862.5Q732 862 731 862ZM745 853Q747 851 748 850Q749 849 750 848Q748 846 746.5 844.5Q745 843 744 841Q742 843 740 844.5Q738 846 735 848Q738 849 740.5 849.5Q743 850 745 853ZM747 834Q746 833 744.5 832Q743 831 743 830Q742 830 741.5 830.5Q741 831 740 832Q739 834 738 837Q737 840 736 842Q738 840 741 838Q744 836 747 834ZM760 826Q760 824 760 822.5Q760 821 761 819Q757 821 753.5 823Q750 825 746 828Q747 829 748 830Q749 831 750 832Q753 830 755 828.5Q757 827 760 826ZM754 834Q755 835 756.5 835.5Q758 836 759 837Q759 835 759 833.5Q759 832 759 831Q758 832 756.5 832.5Q755 833 754 834ZM783 833Q778 838 774 843Q770 848 766 853Q767 856 768 858.5Q769 861 770 863Q773 855 776 847.5Q779 840 783 833ZM773 865Q773 865 773 866Q773 867 773 868Q774 866 774.5 864.5Q775 863 776 861Q775 861 775 860.5Q775 860 774 860Q774 862 773.5 862.5Q773 863 773 865ZM798 821Q799 818 801 816Q803 814 804 812Q803 811 802.5 810.5Q802 810 801 809Q800 811 798 813Q796 815 795 817Q796 818 796.5 819Q797 820 798 821ZM794 823Q794 824 793.5 826Q793 828 792 830Q793 829 794 827.5Q795 826 795 824Q795 824 794.5 823.5Q794 823 794 823ZM800 823Q800 824 800.5 824.5Q801 825 802 825Q803 823 803.5 820.5Q804 818 805 816Q804 818 802.5 819.5Q801 821 800 823ZM798 827Q796 830 794.5 832.5Q793 835 792 837Q793 839 794 840Q795 841 797 843Q798 839 798.5 836Q799 833 800 830Q800 829 799 828.5Q798 828 798 827ZM793 813Q794 810 794.5 808.5Q795 807 796 805Q795 804 794 803.5Q793 803 792 802Q792 803 791.5 804Q791 805 790 806Q790 807 791 809Q792 811 793 813ZM787 810Q786 812 784.5 814Q783 816 782 818Q783 820 783.5 822Q784 824 785 826Q786 824 787.5 822Q789 820 791 818Q790 816 789 814Q788 812 787 810ZM774 829Q774 832 774.5 834Q775 836 775 837Q776 835 779 832Q782 829 782 829Q781 827 780.5 825.5Q780 824 779 822Q778 824 776.5 826Q775 828 774 829ZM776 812L776 810L773 812L773 816ZM778 806Q779 805 780.5 804Q782 803 783 802Q783 801 782.5 800Q782 799 782 798Q781 799 779.5 799.5Q778 800 776 801Q777 802 777 803.5Q777 805 778 806ZM787 864Q785 865 783 865Q781 865 778 863L778 865Q779 867 780.5 869.5Q782 872 784 873Q785 871 786 869Q787 867 787 865Q787 865 787 865Q787 865 787 864ZM786 861Q786 858 785.5 855Q785 852 785 849Q784 852 782.5 855Q781 858 780 861Q781 862 783 862Q785 862 786 861ZM786 841Q786 840 786 839Q786 838 786 837Q786 837 785.5 836.5Q785 836 785 835Q783 840 780.5 845.5Q778 851 776 856Q776 857 776.5 857.5Q777 858 777 858Q779 855 781 850.5Q783 846 786 841ZM772 841Q772 841 771.5 839Q771 837 770 834Q768 836 766.5 838Q765 840 764 841Q764 843 764.5 845Q765 847 765 849Q767 847 768.5 845Q770 843 772 841ZM757 805Q760 803 763.5 801.5Q767 800 770 798Q770 797 770 795.5Q770 794 771 794Q769 794 767 795Q765 796 764 796Q762 798 760 800.5Q758 803 757 805ZM757 797Q752 799 747 800.5Q742 802 738 803Q739 804 742 806Q745 808 749 808Q751 805 753 802.5Q755 800 757 797ZM769 814Q768 814 767.5 814.5Q767 815 766 816Q765 818 764.5 819.5Q764 821 764 823Q765 822 766.5 821Q768 820 769 820Q769 818 769 817Q769 816 769 814ZM767 826L763 828L763 830L767 826ZM765 807Q761 809 757 811.5Q753 814 749 816Q748 818 746.5 820Q745 822 744 824Q749 821 753.5 818Q758 815 762 813Q763 811 763.5 810Q764 809 765 807ZM744 810Q741 809 738.5 807Q736 805 734 804Q732 805 729.5 805.5Q727 806 724 806Q726 809 729 811Q732 813 736 814Q738 813 740 812Q742 811 744 810ZM721 807L712 809Q715 812 718 814.5Q721 817 724 817Q726 817 727.5 816.5Q729 816 731 816Q728 814 725 811.5Q722 809 721 807ZM709 810Q707 810 705 810.5Q703 811 701 811Q703 814 707 816.5Q711 819 715 819Q716 819 716.5 818.5Q717 818 718 818Q715 817 712.5 814.5Q710 812 709 810ZM697 812Q695 812 693.5 812Q692 812 691 813Q692 815 694 817Q696 819 699 820Q701 820 703 820Q705 820 707 819Q704 818 701 815.5Q698 813 697 812ZM706 806Q705 805 705 804.5Q705 804 704 804Q700 804 695.5 804.5Q691 805 685 806Q681 807 677.5 808Q674 809 671 810Q679 810 690.5 808.5Q702 807 706 806ZM700 696Q700 695 700 694Q700 693 700 692Q693 699 686.5 700.5Q680 702 671 706Q674 707 677 708.5Q680 710 683 712Q684 712 685.5 711.5Q687 711 689 711Q692 708 695 704.5Q698 701 700 696ZM696 709Q698 709 699.5 708Q701 707 703 706Q702 705 702 704Q702 703 702 702Q700 704 699 706Q698 708 696 709ZM706 779Q704 779 702 779Q700 779 698 779Q698 780 697.5 780Q697 780 697 781Q699 782 701 783.5Q703 785 704 786Q706 786 708 786Q710 786 711 786Q710 784 708.5 782.5Q707 781 706 779ZM709 774Q711 774 714 774Q717 774 720 773Q720 773 719.5 772.5Q719 772 719 771Q716 770 713.5 768.5Q711 767 708 765Q706 768 704 770.5Q702 773 701 775Q703 775 704 774.5Q705 774 708 773Q708 773 708 773.5Q708 774 709 774ZM706 763Q703 763 699.5 763Q696 763 692 763Q691 766 690.5 768.5Q690 771 689 773Q690 774 690.5 774.5Q691 775 691 775Q692 775 693.5 775Q695 775 697 775Q698 773 700.5 769.5Q703 766 706 763ZM682 763Q683 765 684 766.5Q685 768 686 769Q686 768 686.5 766Q687 764 688 763Q683 763 678 763Q673 763 668 763Q670 765 674 770Q678 775 683 780Q683 779 683.5 777.5Q684 776 684 774Q683 772 681 769.5Q679 767 678 765L682 763ZM689 759Q690 757 691 755Q692 753 693 751Q691 751 689 751Q687 751 685 751Q683 753 682 755Q681 757 681 759Q683 759 685 759Q687 759 689 759ZM695 747Q696 746 696.5 745.5Q697 745 697 744Q696 743 694.5 742.5Q693 742 691 741Q690 742 689 743.5Q688 745 687 747Q689 747 691 747Q693 747 695 747ZM696 754Q696 755 695.5 756.5Q695 758 694 759Q696 759 697.5 759Q699 759 701 759Q699 757 698 756Q697 755 696 754ZM688 778Q688 780 687.5 781.5Q687 783 687 784Q687 784 687.5 784.5Q688 785 689 785Q691 785 693 785.5Q695 786 697 786Q694 784 692 782Q690 780 688 778ZM686 788Q683 787 679.5 786.5Q676 786 672 785Q679 791 687 794.5Q695 798 703 799Q698 797 693.5 794Q689 791 686 788ZM679 782Q673 777 668.5 770.5Q664 764 663 763Q665 769 669 774Q673 779 679 782ZM676 759Q676 757 677 755.5Q678 754 680 751L660 751Q660 753 660.5 755Q661 757 661 759Q665 759 668.5 759Q672 759 676 759ZM660 747L671 747Q668 746 665 744.5Q662 743 659 741Q659 743 659.5 744.5Q660 746 660 747ZM683 746Q684 744 685 742.5Q686 741 687 739Q685 738 683 736.5Q681 735 679 734Q676 735 672.5 736.5Q669 738 665 740Q669 742 673.5 743.5Q678 745 683 746ZM676 731Q675 730 674 729.5Q673 729 673 729Q672 730 671 731Q670 732 670 733Q671 733 672.5 732.5Q674 732 676 731ZM676 720Q677 719 678.5 718Q680 717 681 717Q679 717 676.5 718Q674 719 671 720Q671 720 673 720Q675 720 676 720ZM677 713Q674 712 671.5 710.5Q669 709 666 708Q665 709 663.5 710Q662 711 660 712Q663 713 665 714Q667 715 668 717Q671 716 673 715Q675 714 677 713ZM661 706Q660 706 658.5 705.5Q657 705 656 704Q654 706 653 707.5Q652 709 650 711Q652 711 653 711Q654 711 656 711Q657 710 658.5 708.5Q660 707 661 706ZM666 703Q669 702 672.5 701Q676 700 679 699Q685 698 690 695.5Q695 693 700 686Q700 686 699.5 686Q699 686 699 686Q690 693 681.5 697.5Q673 702 663 699Q662 700 661.5 700.5Q661 701 660 701Q661 702 662.5 702.5Q664 703 666 703ZM686 719Q685 719 684.5 719.5Q684 720 684 720Q685 720 685.5 720Q686 720 687 720Q687 719 686.5 719Q686 719 686 719ZM679 724Q678 724 677 724.5Q676 725 676 726Q677 726 678 727Q679 728 680 729Q683 728 686.5 726Q690 724 693 722Q690 723 686 723Q682 723 679 724ZM684 732Q685 733 686.5 734Q688 735 690 735Q692 733 693.5 731Q695 729 697 727Q697 727 696.5 726.5Q696 726 695 726Q692 727 689.5 728.5Q687 730 684 732ZM694 738Q695 738 696.5 739Q698 740 700 740Q701 739 702 737Q703 735 705 734L700 730Q699 732 697 734Q695 736 694 738ZM700 747Q702 747 706 747.5Q710 748 710 748Q708 747 705.5 746.5Q703 746 701 745Q701 746 700.5 746.5Q700 747 700 747ZM704 742Q707 743 711 744.5Q715 746 719 747Q716 744 713.5 742Q711 740 708 737Q707 738 706 739.5Q705 741 704 742ZM699 751Q701 753 702.5 755Q704 757 707 759L710 759Q712 757 714 755.5Q716 754 718 752Q714 752 709 751.5Q704 751 699 751ZM723 768Q722 767 721.5 766Q721 765 721 763Q719 763 717 763Q715 763 713 763Q715 765 717.5 766Q720 767 723 768ZM722 777Q719 778 716.5 778Q714 778 711 779Q712 781 713.5 782.5Q715 784 717 785Q718 785 719 785Q720 785 721 785Q721 783 721.5 781.5Q722 780 723 778Q722 778 722 777.5Q722 777 722 777ZM714 789Q713 789 712 789Q711 789 710 789Q712 790 715 791.5Q718 793 721 793Q719 792 717.5 791Q716 790 714 789ZM701 789Q699 789 697.5 789Q696 789 694 789Q701 794 707.5 796Q714 798 719 797Q714 796 710 794Q706 792 701 789ZM690 800Q683 798 676.5 794Q670 790 663 783L659 782Q666 790 675 795Q684 800 690 800ZM667 781Q668 781 669 781.5Q670 782 671 782Q667 779 663.5 774Q660 769 658 763Q656 763 654.5 763.5Q653 764 651 764Q654 768 658 772.5Q662 777 667 781ZM660 737Q661 737 663 736Q665 735 665 735Q666 732 667 729.5Q668 727 670 725Q669 725 669 724.5Q669 724 668 723Q667 723 665 723Q663 723 662 723L646 728Q650 730 653.5 732.5Q657 735 660 737ZM654 744L649 745Q650 747 651 747Q652 747 655 747Q655 746 654.5 745Q654 744 654 744ZM654 739Q651 737 648.5 735Q646 733 644 731Q644 734 645 736.5Q646 739 646 742Q648 741 650 740.5Q652 740 654 739ZM652 722Q649 721 646.5 720.5Q644 720 643 720Q643 721 643 722Q643 723 643 724L652 722ZM659 719L663 718Q660 716 654.5 715.5Q649 715 643 715Q643 715 643 716Q643 717 643 717Q645 718 649.5 718.5Q654 719 659 719ZM638 697Q643 697 647 698Q651 699 655 700Q655 699 656 698.5Q657 698 657 698Q652 696 648.5 694.5Q645 693 645 693L650 690Q650 690 652.5 691.5Q655 693 660 695Q661 692 664 688Q667 684 672 679Q666 682 660.5 683.5Q655 685 649 686Q647 690 644 692.5Q641 695 638 697ZM692 680Q688 684 682 688Q676 692 669 696Q675 696 681 693Q687 690 696 683Q695 682 694 681Q693 680 692 680ZM688 715Q689 716 690.5 717Q692 718 693 719Q696 718 699 717Q702 716 705 715Q705 714 704.5 713Q704 712 704 711Q700 712 695.5 713.5Q691 715 688 715ZM699 724Q699 724 699.5 724.5Q700 725 700 725Q702 724 703.5 722Q705 720 707 719Q705 720 703 721Q701 722 699 724ZM703 727Q704 728 705.5 729.5Q707 731 707 731Q708 730 709 729Q710 728 711 728Q710 726 709.5 725Q709 724 708 723Q707 724 706 725Q705 726 703 727ZM728 787L725 787Q726 789 726.5 790.5Q727 792 727 792Q729 793 731 794Q733 795 733 795L737 794Q735 792 732.5 790.5Q730 789 728 787ZM732 783Q731 781 730 780Q729 779 728 777Q728 778 727.5 778.5Q727 779 727 779Q727 780 728 781Q729 782 730 783Q730 783 731 783Q732 783 732 783ZM727 770Q729 769 730.5 767Q732 765 734 764Q732 764 729.5 763.5Q727 763 724 763Q725 765 726 767Q727 769 727 770ZM733 770Q735 770 736.5 769.5Q738 769 740 768L739 766Q737 767 735.5 768Q734 769 733 770ZM735 785L732 786Q734 788 737 790Q740 792 744 792Q742 791 739.5 789.5Q737 788 735 785ZM708 803Q708 804 708.5 804.5Q709 805 709 805Q712 805 730 800.5Q748 796 762 791Q762 791 762.5 790.5Q763 790 763 790Q753 794 737 798Q721 802 708 803ZM812 808Q813 809 814 810.5Q815 812 816 813Q816 813 817.5 810Q819 807 821 804Q820 804 818.5 804Q817 804 815 804Q814 805 813 806.5Q812 808 812 808ZM820 825Q820 825 820 825.5Q820 826 821 827Q821 826 821.5 825Q822 824 822 824L821 823Q816 818 816.5 819.5Q817 821 820 825ZM828 805Q826 806 823.5 809Q821 812 819 815Q819 816 819.5 816Q820 816 821 817Q823 813 826 810Q829 807 832 805Q831 805 830 805Q829 805 828 805ZM824 826Q824 827 823.5 828Q823 829 823 830Q823 830 823.5 831Q824 832 824 832Q825 831 825.5 830Q826 829 827 827Q826 827 825.5 826.5Q825 826 824 826ZM825 852L823 856Q823 856 822.5 860.5Q822 865 824 870Q824 867 824.5 862.5Q825 858 826 853ZM823 836Q823 835 822.5 834.5Q822 834 821 833Q821 834 820.5 835Q820 836 819 838Q820 838 820.5 838.5Q821 839 822 839Q822 839 822 839Q822 839 822 839Q822 838 822.5 837.5Q823 837 823 836ZM819 862Q818 865 817 866.5Q816 868 816 869Q817 871 818.5 872.5Q820 874 821 875L822 874Q821 871 820.5 868Q820 865 819 862ZM814 872Q814 875 814 877Q814 879 813 881Q814 882 814.5 882.5Q815 883 816 884L820 878Q819 877 817.5 875.5Q816 874 814 872ZM821 843Q820 843 819.5 842.5Q819 842 818 842Q817 846 816 850Q815 854 815 858Q817 854 818.5 850.5Q820 847 821 843ZM819 830Q819 829 818.5 828.5Q818 828 818 828Q817 830 816 831.5Q815 833 814 835Q815 835 815.5 835.5Q816 836 816 836Q817 835 817.5 833Q818 831 819 830ZM816 825Q816 824 815.5 823.5Q815 823 815 823Q814 825 812.5 827.5Q811 830 810 832Q811 833 811 833Q811 833 812 833Q813 831 814 829Q815 827 816 825ZM812 818Q812 816 811.5 816Q811 816 809 815Q808 818 806.5 821Q805 824 804 828Q805 828 805 828.5Q805 829 806 829Q807 826 809 823.5Q811 821 812 818ZM796 847Q794 846 792.5 844.5Q791 843 790 842Q789 846 789 850.5Q789 855 790 859Q792 856 793.5 853Q795 850 796 847ZM783 876Q781 875 779 873Q777 871 776 869Q775 870 774.5 871.5Q774 873 774 874Q775 877 776 880.5Q777 884 779 885L783 876ZM770 872Q770 874 769.5 875.5Q769 877 768 878Q769 881 771.5 885Q774 889 776 892Q776 891 776.5 890Q777 889 778 888Q774 886 772.5 881Q771 876 770 872ZM768 868Q768 868 766.5 865Q765 862 763 857Q762 859 760.5 861Q759 863 758 865Q760 868 762.5 870Q765 872 767 873Q767 871 767.5 870.5Q768 870 768 868ZM762 853Q762 851 761.5 849Q761 847 760 845Q760 845 757 851Q754 857 753 858Q754 859 754.5 860Q755 861 756 862Q757 860 758.5 858Q760 856 762 853ZM753 863Q753 864 753 864.5Q753 865 754 866Q754 866 754 865.5Q754 865 754 865Q754 865 753.5 864.5Q753 864 753 863ZM753 845Q756 843 756.5 842.5Q757 842 758 841Q756 840 754 839Q752 838 750 837Q750 837 749 837.5Q748 838 748 838Q749 840 750.5 842Q752 844 753 845ZM729 877Q728 877 727.5 878Q727 879 726 879Q728 884 730 888Q732 892 735 896Q736 895 736.5 895Q737 895 737 894Q737 894 737.5 893Q738 892 738 891Q734 889 732 884.5Q730 880 729 877ZM727 861Q725 861 723.5 861Q722 861 722 861L720 862Q722 865 723.5 868Q725 871 725 874Q725 874 725.5 873.5Q726 873 726 873Q726 870 726.5 867Q727 864 727 861ZM724 883Q721 887 718.5 891Q716 895 716 897Q717 899 718 900Q719 901 720 902Q723 901 726 900Q729 899 732 897Q729 894 727 890.5Q725 887 724 883ZM713 864L718 859Q716 858 715 856Q714 854 714 853L712 854Q712 856 712.5 859Q713 862 713 864ZM721 856Q723 854 725 852Q727 850 730 847Q731 845 731.5 842Q732 839 733 836Q731 839 724.5 843.5Q718 848 717 850Q718 852 719 853.5Q720 855 721 856ZM737 829Q738 827 739 824.5Q740 822 741 820Q739 821 736 822.5Q733 824 731 826Q729 828 727.5 831.5Q726 835 725 837Q728 835 731 833Q734 831 737 829ZM687 813Q684 813 681.5 813.5Q679 814 677 814Q679 815 681.5 817Q684 819 687 820Q688 820 689.5 820Q691 820 693 820Q691 818 689.5 816.5Q688 815 687 813ZM672 814Q665 815 659 814.5Q653 814 649 814L648 817Q650 817 659 818Q668 819 680 820Q677 818 675 816.5Q673 815 672 814ZM646 821L640 835Q644 831 648 827.5Q652 824 656 822Q653 822 650 821.5Q647 821 646 821ZM647 809Q650 810 653.5 810Q657 810 661 810L673 806Q664 806 657.5 805.5Q651 805 645 803Q645 804 645.5 806Q646 808 647 809ZM674 799Q667 796 662 791.5Q657 787 654 782Q652 783 651 783.5Q650 784 649 785Q650 786 650.5 787.5Q651 789 652 789Q655 793 660.5 795.5Q666 798 674 799ZM656 779Q657 779 657.5 779Q658 779 659 779L651 770Q652 772 653.5 774.5Q655 777 656 779ZM657 759Q656 756 655.5 754Q655 752 655 751Q651 751 648.5 750Q646 749 644 747Q643 747 642 747.5Q641 748 640 748Q641 750 643 753Q645 756 648 760L657 759ZM642 743Q641 740 640.5 736.5Q640 733 639 730L630 733Q632 736 635 739Q638 742 642 743ZM638 726Q635 724 632.5 722Q630 720 629 718Q628 719 626.5 719.5Q625 720 624 721Q625 722 625.5 724Q626 726 628 729ZM614 717Q612 717 610.5 717.5Q609 718 607 718Q602 722 601.5 727Q601 732 601 733Q603 733 604 733Q605 733 606 734Q608 730 610 726Q612 722 614 717ZM617 713Q619 710 622 707Q625 704 628 701Q625 701 623 701.5Q621 702 619 702Q617 705 613.5 708Q610 711 605 714Q608 714 611 713.5Q614 713 617 713ZM621 698Q621 696 622 694Q623 692 625 689Q624 689 623 689Q622 689 621 689Q620 692 619.5 694.5Q619 697 619 698Q620 698 620 698Q620 698 621 698ZM621 666Q622 666 623.5 666Q625 666 626 666Q627 665 627.5 663.5Q628 662 629 661Q626 661 623 660.5Q620 660 618 660Q618 662 619 663.5Q620 665 621 666ZM630 666Q634 665 637.5 664.5Q641 664 644 663Q641 663 638 662.5Q635 662 632 662Q631 663 630.5 664Q630 665 630 666ZM628 670Q628 670 627.5 670.5Q627 671 627 671Q630 673 634 672.5Q638 672 642 671Q643 670 644 669Q645 668 647 667Q642 668 637 669Q632 670 628 670ZM647 675Q646 676 644.5 677.5Q643 679 642 680Q646 680 649.5 679Q653 678 657 676Q658 674 659 671.5Q660 669 661 667Q658 670 654.5 672Q651 674 647 675ZM661 675Q665 673 668.5 671.5Q672 670 676 669Q673 667 670.5 666Q668 665 665 664Q665 666 663.5 669.5Q662 673 661 675ZM707 694Q706 694 705.5 695Q705 696 705 697L706 704Q707 703 708.5 702Q710 701 711 699Q710 698 709 696.5Q708 695 707 694ZM713 703Q712 705 710.5 706Q709 707 707 708L709 712Q710 711 712 710Q714 709 715 707Q715 706 714.5 705Q714 704 713 703ZM721 725Q720 726 718.5 726.5Q717 727 716 728Q718 732 720.5 734Q723 736 725 737Q724 734 723 731Q722 728 721 725ZM738 785Q741 787 743.5 788.5Q746 790 748 790Q749 790 752.5 789Q756 788 759 787Q757 785 755.5 784Q754 783 752 781Q749 782 745.5 783Q742 784 738 785ZM837 805Q834 808 832 811.5Q830 815 828 818Q829 819 830 819Q831 819 832 819Q834 816 837 812Q840 808 843 805Q841 805 840 805Q839 805 837 805ZM855 806Q855 808 855 808.5Q855 809 856 810Q856 808 856.5 807Q857 806 857 804Q857 804 856.5 804.5Q856 805 856 805Q856 805 855.5 805.5Q855 806 855 806ZM857 843Q855 846 853 849.5Q851 853 850 856Q852 857 853 857Q854 857 854 857L853 861Q853 861 852 860.5Q851 860 849 859Q849 860 848.5 861Q848 862 847 864Q850 864 852 863.5Q854 863 856 861Q856 856 856 851.5Q856 847 857 843ZM855 865Q853 866 851 866.5Q849 867 846 867Q845 871 844.5 873.5Q844 876 844 876L840 875Q840 875 840.5 872Q841 869 842 865Q841 865 840 864.5Q839 864 837 863Q837 868 836 873Q835 878 835 883Q840 881 845.5 878Q851 875 856 871Q856 868 856 867Q856 866 855 865ZM851 886Q852 884 853 881.5Q854 879 855 877Q850 881 845 883.5Q840 886 834 887Q834 889 834 891.5Q834 894 834 895Q838 894 842.5 891.5Q847 889 851 886ZM843 900Q844 898 845.5 896Q847 894 848 892Q844 894 840.5 896Q837 898 833 899Q833 901 833 902.5Q833 904 833 906Q836 904 838.5 902.5Q841 901 843 900ZM834 861Q833 864 831 867Q829 870 827 872Q827 876 827 879Q827 882 827 884Q828 884 829 884Q830 884 831 883Q832 878 832.5 872.5Q833 867 834 861ZM821 900Q823 899 825.5 898.5Q828 898 830 897Q830 895 830.5 892.5Q831 890 831 888Q830 888 829 888Q828 888 827 888Q828 891 828 892.5Q828 894 828 894L825 895Q825 894 824.5 890.5Q824 887 824 881Q824 881 823.5 880.5Q823 880 822 880Q821 882 819 885Q817 888 814 892Q816 894 817.5 896Q819 898 821 900ZM817 901Q816 900 815 898.5Q814 897 813 896Q813 897 813 899Q813 901 813 902Q814 902 815 902Q816 902 817 901ZM812 889L814 886L813 885L812 888L812 889ZM815 840Q814 840 813.5 839.5Q813 839 813 839Q812 841 811.5 842.5Q811 844 810 846Q810 846 810.5 850Q811 854 812 859Q812 854 812.5 849.5Q813 845 815 840ZM812 918Q810 914 809.5 908.5Q809 903 810 897Q809 902 808 905.5Q807 909 806 913Q807 914 808.5 915.5Q810 917 812 918ZM805 903Q806 901 806.5 899Q807 897 807 895Q805 892 803 888.5Q801 885 800 881Q799 883 798.5 885.5Q798 888 797 890Q799 894 801 897Q803 900 805 903ZM801 916Q801 915 802 912.5Q803 910 804 906Q802 904 799.5 901Q797 898 795 894Q795 895 795 896Q795 897 794 898Q794 902 796 907Q798 912 801 916ZM790 921Q791 921 793.5 920.5Q796 920 798 919Q796 915 794.5 911.5Q793 908 792 904Q791 907 790.5 911.5Q790 916 790 921ZM789 904Q789 902 789.5 899.5Q790 897 791 894Q789 895 786.5 895.5Q784 896 782 896Q783 899 784.5 900Q786 901 787 901L786 904Q783 904 781.5 902Q780 900 779 897Q778 897 778 897Q778 897 777 897L775 903Q776 903 777 903.5Q778 904 779 904L780 907Q778 907 776.5 906.5Q775 906 774 906L773 908Q779 909 783 908Q787 907 789 904ZM772 902Q772 901 772.5 900Q773 899 774 897Q773 898 771.5 897.5Q770 897 770 897Q769 897 768 896Q767 895 767 894L774 894Q772 892 770 889Q768 886 767 883Q766 886 765.5 888.5Q765 891 764 893Q765 895 767 897.5Q769 900 772 902ZM766 876Q763 875 760.5 873Q758 871 756 868L755 870Q757 874 759.5 875.5Q762 877 762 877L761 880Q761 880 756.5 877Q752 874 750 866L750 867Q750 870 752 876Q754 882 758 883L757 886Q753 885 751 881Q749 877 748 873Q747 874 747 875.5Q747 877 746 878Q747 881 749 884.5Q751 888 753 891Q758 888 761.5 884Q765 880 766 876ZM760 895L762 888Q761 890 759 891Q757 892 755 894Q757 895 758 895.5Q759 896 760 895ZM759 899Q758 899 756 898Q754 897 753 895Q748 898 744.5 899.5Q741 901 739 901L738 905Q744 908 750 906.5Q756 905 759 899ZM739 935L755 920L756 916Q750 922 743.5 923.5Q737 925 737 925L737 922Q737 922 745.5 919.5Q754 917 758 906Q751 912 745 910.5Q739 909 737 908Q734 921 733 925.5Q732 930 731 934Q733 934 735 934.5Q737 935 739 935ZM726 930L728 928L730 921Q728 922 725.5 922.5Q723 923 721 924Q722 925 723 926.5Q724 928 726 930ZM714 917L713 920Q718 920 723 919Q728 918 731 915Q732 911 733 907.5Q734 904 736 899Q732 901 728.5 902.5Q725 904 723 904Q724 906 725.5 907Q727 908 728 908L728 912Q725 911 722 908Q719 905 715 901Q715 904 713 907.5Q711 911 709 914Q710 915 711.5 916Q713 917 714 917ZM711 902Q708 904 705.5 905.5Q703 907 700 908Q701 909 702.5 910Q704 911 705 912Q707 909 708.5 906.5Q710 904 711 902ZM666 901Q667 911 670.5 918Q674 925 680 926Q684 925 689 924Q694 923 699 920L703 914L696 909Q693 910 689.5 911Q686 912 686 912L685 908Q687 907 688.5 906.5Q690 906 692 906L683 898Q682 904 682 908.5Q682 913 682 913L679 913Q679 913 679 907.5Q679 902 680 895L675 891Q675 895 675 902Q675 909 678 912L675 914Q672 911 671.5 905.5Q671 900 672 895Q670 898 668.5 899.5Q667 901 666 901ZM682 883Q681 885 680 886.5Q679 888 677 889Q678 889 679 890Q680 891 681 892Q681 890 681.5 887.5Q682 885 682 883ZM674 887Q682 878 695 865Q708 852 721 841Q720 838 721 835.5Q722 833 723 830Q715 838 714 842Q713 846 713 846L710 847Q710 847 710 844Q710 841 715 835Q714 835 713.5 835.5Q713 836 712 837Q708 842 706 847.5Q704 853 704 853L701 853Q701 853 702.5 849Q704 845 706 840L705 840Q699 848 698 855Q697 862 697 862L694 862Q694 862 694 860.5Q694 859 694 856Q694 856 692.5 854.5Q691 853 690 851L686 853Q686 854 684.5 860Q683 866 687 870L683 873Q681 870 680.5 866.5Q680 863 680 859Q675 867 673.5 872.5Q672 878 672 878L669 877Q669 875 670 871.5Q671 868 675 862L670 866Q666 871 667 875.5Q668 880 673 882L672 885Q667 883 665 879Q663 875 664 870L653 879Q658 881 663 883Q668 885 674 887ZM653 873L668 861Q665 862 660.5 863.5Q656 865 652 865Q650 866 648.5 867Q647 868 645 869Q647 870 649 871Q651 872 653 873ZM616 863L623 863L624 860Q623 859 622.5 858.5Q622 858 622 857Q620 859 618.5 860.5Q617 862 616 863ZM618 847Q619 848 620 849.5Q621 851 622 852Q623 851 625 849Q627 847 628 846Q626 846 623.5 846Q621 846 618 847ZM624 855Q624 855 624.5 855.5Q625 856 626 857L629 850Q627 851 626 852.5Q625 854 624 855ZM629 860L631 863Q635 863 639.5 862.5Q644 862 648 862Q646 861 644 859.5Q642 858 640 857Q637 859 635 860Q633 861 633 861L632 858Q632 858 633.5 857Q635 856 638 854Q638 853 637.5 852Q637 851 636 850L639 849Q639 850 639.5 851Q640 852 641 853Q643 851 645 849Q647 847 650 845L635 845L629 860ZM637 842Q653 842 664.5 841.5Q676 841 686 839Q680 838 676 837.5Q672 837 672 837L673 834Q670 835 667 836.5Q664 838 661 840L658 837Q665 831 673 830Q681 829 687 824Q683 824 679 824Q675 824 671 824Q667 828 658 833Q649 838 647 839L645 835Q650 833 655.5 829.5Q661 826 665 823L661 823Q656 825 649.5 830.5Q643 836 637 842ZM638 828L645 813Q644 813 643.5 813Q643 813 642 813Q639 817 636 820Q633 823 630 825Q632 826 634 827Q636 828 638 828ZM626 823Q629 821 632 818.5Q635 816 638 812Q636 812 635.5 812Q635 812 634 812Q632 814 629 816.5Q626 819 622 821Q623 821 624 822Q625 823 626 823ZM599 821Q602 821 606 820.5Q610 820 613 819Q611 818 609 816.5Q607 815 605 813L599 821ZM604 807Q604 808 604 808Q604 808 605 808L607 805Q606 806 605 806.5Q604 807 604 807ZM607 810Q609 812 610.5 813Q612 814 614 816Q613 813 612 810.5Q611 808 611 806L607 810ZM613 802Q614 806 615 810.5Q616 815 619 817Q622 816 625 814Q628 812 630 810ZM641 808Q641 806 640.5 804.5Q640 803 640 802Q635 800 629.5 798Q624 796 618 793Q620 797 625 801.5Q630 806 641 808ZM615 786Q628 793 640.5 797.5Q653 802 664 802Q653 799 642.5 793Q632 787 621 777Q620 779 618.5 781.5Q617 784 615 786ZM627 774Q626 774 625.5 774.5Q625 775 624 775Q629 780 636.5 785Q644 790 652 794Q650 792 649 791Q648 790 647 786Q643 782 638 778.5Q633 775 627 774ZM641 771L640 767L644 770Q645 773 646 775.5Q647 778 648 781Q649 781 649.5 780.5Q650 780 652 780Q648 775 646 770.5Q644 766 643 764Q640 763 637.5 762.5Q635 762 632 761Q634 763 636.5 765.5Q639 768 641 771ZM642 759Q640 756 638 753.5Q636 751 635 749Q631 750 627.5 751Q624 752 621 752Q626 755 631.5 757Q637 759 642 759ZM618 748Q622 748 626.5 747Q631 746 636 744Q633 743 630.5 740Q628 737 626 734Q619 736 618 737Q617 738 617 740Q617 743 617.5 745Q618 747 618 748ZM615 749Q614 746 614 743.5Q614 741 613 739Q612 738 611 738Q610 738 608 737Q608 739 607.5 741Q607 743 606 744Q608 745 610.5 746.5Q613 748 615 749ZM604 742Q604 741 604.5 739.5Q605 738 605 737Q603 736 600 736Q597 736 595 736Q597 737 599 738.5Q601 740 604 742ZM591 725Q593 728 594.5 730Q596 732 596 732L598 733Q598 731 598.5 726.5Q599 722 603 718Q602 717 601 717Q600 717 599 717Q597 719 594.5 721Q592 723 591 725ZM600 713Q605 710 608.5 708Q612 706 614 703Q606 705 601.5 707.5Q597 710 597 711L594 707Q595 707 600.5 704Q606 701 616 699Q616 696 616.5 694Q617 692 618 688Q614 689 610 690.5Q606 692 603 693Q602 696 602 698Q602 700 602 700L599 700Q599 699 599 698Q599 697 599 695Q594 698 590 700.5Q586 703 585 704Q589 707 592.5 709.5Q596 712 600 713ZM574 692Q575 694 577.5 696.5Q580 699 582 701Q584 699 589 696Q594 693 600 690Q601 689 601 688Q601 687 601 686Q598 685 594 684Q590 683 587 682Q583 684 579.5 686.5Q576 689 574 692ZM583 668Q581 669 579 670.5Q577 672 576 673Q576 673 576.5 673Q577 673 578 674Q579 673 581 672Q583 671 586 669Q585 669 584.5 668.5Q584 668 583 668ZM594 661Q593 662 591 663Q589 664 587 665Q588 665 589 665.5Q590 666 591 666Q592 665 593.5 664Q595 663 597 662Q596 662 595.5 661.5Q595 661 594 661ZM601 660Q606 658 610 655.5Q614 653 619 651Q619 650 619.5 649.5Q620 649 621 648Q615 651 609.5 653.5Q604 656 599 659Q599 659 600 659.5Q601 660 601 660ZM638 653L634 659Q638 660 644.5 660Q651 660 656 660Q652 658 647 656.5Q642 655 638 653Z" fill="#be2f31" />
  </g>
</svg>