<?xml version="1.0" encoding="UTF-8"?>
<svg width="16" height="16" viewBox="0 0 16 16" xmlns="http://www.w3.org/2000/svg">
  <g transform="translate(1.227437855113637, 14.983149414062499) scale(0.015585937499999999, -0.015585937499999999)">
    <path d="M771 268Q767 238 750.5 223.5Q734 209 717 203Q721 235 726.5 267.5Q732 300 734 325Q734 325 755 311Q776 297 771 268ZM186 113Q198 94 214.5 67Q231 40 247 22Q258 9 297 -6Q337 -21 384 -34Q431 -47 475 -56Q519 -64 538 -64Q563 -64 588 -40Q613 -17 632 11Q651 39 663 62Q675 85 675 85Q675 85 722.5 98Q770 111 792 138Q818 168 834 213.5Q850 259 862 291Q872 317 865.5 342.5Q859 368 854 376Q829 420 784 436Q739 452 739 452Q739 452 741 483Q744 515 746.5 558Q749 601 752 645Q754 688 754 711Q754 733 742 770.5Q730 808 713 830Q688 865 621 891Q554 917 478 933.5Q402 950 334 956Q265 963 237 958Q206 953 164 917Q122 880 84 832Q46 784 21 735Q-4 686 1 655Q6 620 22 552Q39 483 63.5 403.5Q88 324 120 246Q151 167 186 113ZM53 658Q36 715 56 765Q77 816 120 853Q163 890 221 911Q280 933 340 932Q392 932 450 921Q509 910 560 889Q611 868 649 837Q686 806 698 765Q704 747 703 715Q702 683 689.5 647Q677 611 650 576Q623 541 576 516Q542 498 501 490Q460 481 415.5 480.5Q371 480 326 487Q281 494 240 508Q167 534 115 578.5Q63 623 53 658ZM291 520Q277 524 262.5 528Q248 532 234 537Q193 551 158.5 572Q124 593 98 616Q99 678 132.5 722.5Q166 767 217 794Q211 788 210.5 781.5Q210 775 216 768Q235 749 298 757Q361 765 383 703Q346 659 315.5 596Q285 533 291 520ZM572 547Q531 523 476.5 514.5Q422 506 367 509Q373 517 376.5 524.5Q380 532 380 546Q381 568 401.5 604.5Q422 641 422 641Q422 641 466 597.5Q510 554 572 547ZM247 807Q289 823 336.5 828Q384 833 430 827Q580 805 625 753.5Q670 702 665 645Q665 645 659.5 630Q654 615 622 585Q622 585 596.5 592.5Q571 600 540 615Q512 627 492.5 643.5Q473 660 444 701Q399 762 353.5 787Q308 812 247 807ZM610 287Q613 290 615.5 288.5Q618 287 617 285Q602 260 580.5 259Q559 258 559 258Q553 247 543 236.5Q533 226 521 219Q503 209 482 208Q461 207 444 215Q434 220 430.5 228Q427 236 430 246Q432 254 442 262Q452 270 471 273Q489 276 506.5 274Q524 272 547 269Q551 279 556 293.5Q561 308 561 308Q557 302 543.5 294.5Q530 287 525 307Q525 307 520 300Q515 293 509 288Q502 283 493.5 281.5Q485 280 482 290Q480 299 483.5 309.5Q487 320 491 340Q492 345 491.5 348.5Q491 352 489 352Q485 353 481.5 350Q478 347 476 343Q471 337 469 326.5Q467 316 463 300Q461 293 457.5 286.5Q454 280 451 276Q439 264 425 264Q411 264 408 276Q399 259 387 253.5Q375 248 367 264Q353 238 339 240Q325 242 323 247Q322 248 321.5 248Q321 248 321 248Q308 230 293.5 229Q279 228 273 239Q269 247 270.5 260Q272 273 276 290Q271 289 266.5 290.5Q262 292 262 292Q262 292 258 268.5Q254 245 241 225Q233 213 220 206Q207 199 186 202Q158 207 141.5 229.5Q125 252 129 276Q133 301 153 307.5Q173 314 173 314Q159 326 156 341Q153 356 159 367Q163 375 171.5 380.5Q180 386 191 384Q200 382 208 377.5Q216 373 222 360Q226 351 224 342.5Q222 334 217 333Q217 333 214.5 333.5Q212 334 210 337Q209 341 210 344.5Q211 348 206 353Q204 355 199 358.5Q194 362 183 360Q177 360 173.5 355.5Q170 351 169 345Q168 337 172 329Q176 321 183 318Q189 315 192.5 316Q196 317 203 313Q208 309 206.5 306.5Q205 304 202 303Q198 302 193 303.5Q188 305 184 306Q164 304 155.5 283.5Q147 263 164 239Q174 225 188.5 222Q203 219 215 224Q207 226 202 229.5Q197 233 194 237Q190 243 188 248.5Q186 254 186 261Q187 264 188.5 269Q190 274 194 276Q198 278 202.5 279.5Q207 281 214 280Q224 278 231.5 271Q239 264 242 249Q250 263 252.5 277Q255 291 256 297Q256 297 253 303Q250 309 248 315Q246 320 246.5 324.5Q247 329 251 330Q259 332 262.5 321.5Q266 311 265 302Q267 299 272 299.5Q277 300 280 310Q282 317 289 314.5Q296 312 290 297Q287 291 286 278.5Q285 266 288 257Q291 248 300 247.5Q309 247 315 257Q315 257 312 267.5Q309 278 311 305Q313 328 320 354.5Q327 381 336 398Q358 437 366 427Q374 417 375 413Q378 401 370.5 360.5Q363 320 330 286Q329 280 330.5 272Q332 264 335 260Q340 255 348 258Q356 261 364 279Q366 308 377.5 326Q389 344 401 347Q405 348 410 346.5Q415 345 416 340Q416 340 416.5 340Q417 340 417 341Q417 343 417.5 345Q418 347 419 348Q420 349 420.5 349.5Q421 350 423 351Q425 352 427 352.5Q429 353 432 354Q437 356 436 351Q435 346 435 346Q435 346 430.5 324.5Q426 303 424 292Q423 289 423 285Q423 281 424 279Q425 277 431 276.5Q437 276 444 293Q444 293 449.5 319Q455 345 456 353Q457 355 458.5 358.5Q460 362 463 362Q468 365 470 365.5Q472 366 473 367Q473 367 475 367Q477 367 476 363Q475 361 474 357Q473 353 473 351Q476 357 487 367Q498 377 507 371Q513 367 512 358Q511 349 508 337Q506 330 504 323.5Q502 317 501 310Q500 300 508 303Q516 306 523 319Q530 350 542.5 369.5Q555 389 570 394Q574 395 580 393.5Q586 392 587 385Q587 385 588 388.5Q589 392 590 395Q592 398 598 400Q604 402 607 403Q610 403 609 400Q608 397 608 397Q603 383 598.5 368.5Q594 354 590 340Q583 318 576 298.5Q569 279 564 267Q564 267 572 267Q580 267 588 270Q596 272 601 276.5Q606 281 610 287ZM357 405Q359 409 364 401Q369 393 360 362Q352 330 341 313.5Q330 297 330 297Q333 343 343 371.5Q353 400 357 405ZM203 241Q200 246 198 253Q196 260 200 266Q201 270 205.5 271Q210 272 215 271Q220 270 224 266Q228 262 230 256Q233 246 230 239.5Q227 233 227 233Q227 233 223.5 232.5Q220 232 216 233Q212 233 208.5 236Q205 239 203 241ZM411 314Q407 290 402.5 285Q398 280 396 278Q393 274 387.5 276.5Q382 279 382 289Q382 301 388 318.5Q394 336 404 336Q413 337 412 326.5Q411 316 411 314ZM501 221Q484 217 469 220.5Q454 224 453 238Q453 246 456.5 252Q460 258 470 261Q478 265 494.5 264.5Q511 264 542 260Q535 244 522 233.5Q509 223 501 221ZM547 316Q540 318 543.5 332.5Q547 347 552 358Q560 377 569.5 380.5Q579 384 580 376Q581 369 575.5 353.5Q570 338 570 338Q570 338 563 325.5Q556 313 547 316Z" fill="#be2f31" />
  </g>
</svg>