<?xml version="1.0" encoding="UTF-8"?>
<svg width="16" height="16" viewBox="0 0 16 16" xmlns="http://www.w3.org/2000/svg">
  <g transform="translate(-0.47326505962170873, 15.415518617438504) scale(0.016542968749999998, -0.016542968749999998)">
    <path d="M375 180Q470 146 512 143.5Q554 141 648 180Q727 207 791.5 249Q856 291 889 408Q938 418 970 446Q1002 473 1015 511Q1028 549 1022 595Q1015 640 986 685Q948 741 890.5 728Q833 715 810 663Q768 704 690 728Q611 751 523 753Q435 755 351 733Q267 711 213 663Q197 694 176 709Q155 724 113 728Q64 723 33 678Q3 632 0.5 577Q-2 522 29 473Q60 424 135 411Q147 357 172 319Q196 281 228 254Q260 227 298 209Q336 192 375 180ZM299 274Q253 301 221 352Q189 403 188 464Q169 462 136.5 469.5Q104 477 84 498Q45 537 64.5 603.5Q84 670 114 670Q153 671 167 628Q181 585 212 567Q247 634 334 666Q422 697 519 695.5Q616 694 700 662Q785 629 814 567Q834 575 850 613Q866 651 883 662Q911 679 930 662Q950 644 959 613Q968 582 964 548Q960 513 942 498Q921 477 889 470Q857 463 838 464Q837 403 805 352Q773 301 726 274Q548 201 515 202.5Q482 204 299 274ZM493 299Q487 301 487 306Q487 311 495 312Q500 313 498.5 319Q497 325 491 323Q483 323 479 318Q475 313 475 303Q475 296 479 291.5Q483 287 491 287Q496 288 497 293Q498 298 493 299ZM551 303Q551 313 546.5 318Q542 323 535 323Q527 324 526.5 318Q526 312 531 312Q537 311 538 309.5Q539 308 539 305Q539 299 533.5 299Q528 299 529 292Q529 285 540 288Q551 291 551 303ZM280 352Q215 389 215 464.5Q215 540 280 577Q345 615 410 577Q475 539 475 464Q475 390 410 352Q345 314 280 352ZM419 483Q409 510 382 518Q355 526 333 511Q349 510 354.5 497.5Q360 485 354 475Q348 466 334.5 463Q321 460 310 478Q304 455 317 433.5Q330 412 356 408Q388 402 409 427.5Q430 453 419 483ZM613 352Q548 389 548 464.5Q548 540 613 577Q678 615 743 577Q808 539 808 464Q808 390 743 352Q678 314 613 352ZM713 483Q703 511 676.5 519Q650 527 627 511Q644 510 648.5 497.5Q653 485 647 475Q642 466 628 463Q614 460 604 478Q598 455 611 433Q624 411 650 407Q682 401 703 426.5Q724 452 713 483Z" fill="#825078" />
  </g>
</svg>