<?xml version="1.0" encoding="UTF-8"?>
<svg width="16" height="16" viewBox="0 0 16 16" xmlns="http://www.w3.org/2000/svg">
  <g transform="translate(0.5167049153645836, 14.554770621366279) scale(0.01462890625, -0.01462890625)">
    <path d="M1021 252Q998 251 962 227Q926 203 892.5 174.5Q859 146 834 123Q810 100 810 100Q766 56 734.5 70Q703 84 703 84Q669 103 635.5 96Q602 89 602 89Q578 82 555.5 80.5Q533 79 533 79Q452 85 408 123Q365 160 345 203Q325 246 322 280Q319 315 319 315Q319 400 357 447Q394 495 439.5 517.5Q485 540 522 545Q560 550 560 550Q667 550 682.5 473Q698 396 698 396Q695 334 669 300Q643 267 613 251.5Q583 236 558 234Q533 232 533 232Q459 232 450 280.5Q441 329 441 329Q447 413 491.5 427Q536 441 536 441Q577 441 584 426Q591 411 591 411Q591 395 571 382.5Q551 370 551 370Q528 360 526 343Q524 326 524 326Q528 297 542 283Q556 269 556 269Q566 264 565 270.5Q564 277 564 277Q548 316 568 325Q588 334 588 334Q599 336 614 343.5Q629 351 629 351Q652 371 652.5 395.5Q653 420 653 420Q641 486 590.5 494Q540 502 540 502Q473 495 437 466Q402 437 386.5 404.5Q371 372 370 346Q368 320 368 320Q377 189 450.5 167.5Q524 146 524 146Q579 146 606.5 151Q634 156 634 156Q688 169 704 144Q720 119 720 119Q736 94 745.5 103Q755 112 755 112Q770 136 805.5 205.5Q841 275 841 275Q858 309 880.5 312Q903 315 903 315Q935 315 925.5 348.5Q916 382 916 382Q906 401 892 434Q878 467 865 498.5Q852 530 843 554Q833 577 833 577Q823 609 840 623.5Q857 638 857 638Q874 652 861 663Q848 674 848 674Q822 690 785 698Q749 707 715 711Q681 715 657 715Q634 716 634 716Q467 716 376 654Q285 592 242 517Q199 442 192 380Q184 318 184 318Q184 195 228 126Q272 57 324.5 23Q377 -11 421 -20Q465 -28 465 -28Q523 -33 558.5 -17Q594 -1 594 -1Q620 17 645.5 10.5Q671 4 671 4Q692 -7 712 -8.5Q732 -10 732 -10Q757 -10 785 14Q814 39 839 68Q864 97 880 122Q897 146 897 146Q930 191 975.5 219.5Q1021 248 1021 248Q1026 251 1023.5 251.5Q1021 252 1021 252ZM765 639Q749 630 731 617Q713 604 713 604Q696 591 683 591.5Q670 592 670 592Q627 601 626 623Q625 645 627 650Q650 666 697.5 660Q745 654 765 639ZM719 216Q719 216 712 227Q705 238 717 254Q717 254 727.5 263.5Q738 273 750 274Q751 266 748.5 244.5Q746 223 729 204Q727 207 724 210Q721 213 719 216ZM791 398Q758 413 760 437Q762 461 762 461Q765 470 768.5 475.5Q772 481 777 484Q811 474 824 435.5Q837 397 839 388Q823 390 815.5 391Q808 392 791 398ZM266 16Q266 10 260.5 13.5Q255 17 255 17Q233 30 218.5 31.5Q204 33 204 33Q172 33 144 2.5Q116 -28 116 -28Q104 -41 108 -32.5Q112 -24 112 -24Q138 21 156.5 84Q175 147 175 147Q177 157 180.5 156.5Q184 156 184 156Q212 133 239 74.5Q266 16 266 16ZM13 250Q-7 250 1 253Q9 256 9 256Q97 285 122.5 317.5Q148 350 148 350Q155 360 157.5 355Q160 350 160 350Q168 325 169 263.5Q170 202 170 202Q169 192 162 197.5Q155 203 155 203Q124 241 68.5 245.5Q13 250 13 250ZM28 537Q121 502 163.5 522.5Q206 543 206 543Q219 550 219 544.5Q219 539 219 539Q214 503 188.5 451.5Q163 400 163 400Q156 394 153 399.5Q150 405 150 405Q124 455 76 493Q28 531 28 531Q17 539 22.5 538Q28 537 28 537ZM202 790Q198 803 200.5 799Q203 795 203 795Q254 691 296 686Q338 681 338 681Q350 682 348.5 679Q347 676 347 676Q335 652 288 613.5Q241 575 241 575Q232 570 233 579Q234 588 234 588Q241 638 221.5 714Q202 790 202 790ZM376 711Q392 722 409 756Q426 789 441 824Q456 859 466 886Q475 914 475 914Q484 938 484 930Q484 922 484 922Q469 812 493.5 782Q518 752 518 752Q530 747 525.5 743Q521 739 521 739Q488 721 432 711Q376 701 376 701Q367 701 371.5 706Q376 711 376 711Z" fill="#6a9fb5" />
  </g>
</svg>