<?xml version="1.0" encoding="UTF-8"?>
<svg width="16" height="16" viewBox="0 0 16 16" xmlns="http://www.w3.org/2000/svg">
  <g transform="translate(0.017502253605768736, 14.9825) scale(0.015585937499999999, -0.015585937499999999)">
    <path d="M849 484L745 484L745 535L698 535L698 649Q740 665 772 644Q804 623 813 592L849 592Q904 590 903.5 538.5Q903 487 849 484ZM324 442L309 346L372 346Q437 350 436 410.5Q435 471 372 474L331 474Q324 495 310.5 510Q297 525 279 535L279 442L324 442ZM956 704Q882 832 762 896Q642 960 513 960Q384 960 264 896Q143 833 69 705Q-4 577 0 441Q5 305 69 193Q133 81 249 8Q364 -64 511 -64Q658 -64 774 8Q889 80 954 192Q1019 304 1024 440Q1029 576 956 704ZM371 124L397 304L616 375L640 212L371 124ZM605 535L419 535L419 670L512 728L605 670L605 535ZM761 31L700 442L745 442L745 466L849 466Q921 470 921.5 538Q922 606 849 610L825 610Q808 647 773.5 663.5Q739 680 698 668L698 721L512 838L326 721L326 535L311 535Q296 549 276 556.5Q256 564 234 564Q175 562 145 525Q116 489 116.5 446Q117 403 146 367Q176 331 234 329L307 329L309 346L234 346Q185 348 160 379Q135 409 134.5 446Q134 483 159 514Q184 545 234 547Q247 547 258 544Q269 541 279 535L311 535Q322 526 330 515Q338 504 343 492L372 492Q454 487 453.5 409.5Q453 332 372 329L307 329L263 31Q182 79 126 154Q69 230 44 319Q19 408 29 504Q39 601 92 692Q162 813 276 874Q390 934 513 934Q636 934 750 873Q863 812 933 691Q985 600 995 504Q1005 408 979.5 319Q954 230 898 155Q841 80 761 31Z" fill="#46788d" />
  </g>
</svg>