<?xml version="1.0" encoding="UTF-8"?>
<svg width="16" height="16" viewBox="0 0 16 16" xmlns="http://www.w3.org/2000/svg">
  <g transform="translate(0.012207031250000036, 14.987527721774192) scale(0.015585937499999999, -0.015585937499999999)">
    <path d="M349 300Q354 298 359 295Q364 292 369 290Q386 238 411 216Q436 194 459 188Q476 159 496 133.5Q516 108 539 86Q508 44 473 27Q438 10 429 7Q383 39 363 112.5Q343 186 349 300ZM774 246Q841 261 903.5 294Q966 327 1024 378Q984 408 939 428Q894 448 840 458Q828 440 814.5 422.5Q801 405 785 389Q833 369 835.5 336Q838 303 758 277L774 246ZM622 749Q644 715 652.5 675Q661 635 656 587Q689 603 719.5 613.5Q750 624 780 629Q795 728 778.5 795.5Q762 863 762 863Q719 841 684 812.5Q649 784 622 749ZM338 308Q290 338 255.5 378Q221 418 201 468Q142 448 99.5 421Q57 394 43 384Q80 350 116 324Q153 298 189.5 278.5Q226 259 263 247Q299 235 336 230Q336 249 336.5 268Q337 287 338 308ZM911 285Q879 268 846.5 255.5Q814 243 779 235Q791 212 801.5 191Q812 170 821 150Q894 153 941.5 174.5Q989 196 1024 237Q1017 248 984 257Q951 266 911 285ZM171 591Q176 593 181.5 595Q187 597 193 599Q160 619 113 629.5Q66 640 1 626Q-7 610 32.5 555Q72 500 119 445Q136 454 155.5 462.5Q175 471 196 479Q186 505 180 533Q174 561 171 591ZM337 219Q292 224 247.5 240Q203 256 159 282Q112 246 60.5 194Q9 142 6 95Q35 77 75 73Q116 69 162 73.5Q208 78 257 89Q306 100 351 114Q345 136 341.5 162.5Q338 189 337 219ZM558 816Q575 805 590.5 789Q606 773 615 759Q623 769 632 779Q641 789 650 799Q632 841 617 872.5Q602 904 599 910Q592 924 579.5 922.5Q567 921 556 908Q525 864 499.5 819Q474 774 455 723Q459 718 462 713Q465 708 468 702Q479 737 502 766.5Q525 796 558 816ZM289 598Q267 651 273 703.5Q279 756 294 802Q277 815 260 823.5Q243 832 227 834Q190 815 201.5 743.5Q213 672 236 607Q249 608 263 606Q277 604 289 598ZM847 468Q858 466 868 463.5Q878 461 888 459Q936 512 967 566.5Q998 621 1016 678Q975 678 918.5 672Q862 666 793 638L792 631Q824 634 853 632Q882 630 909 622Q900 579 884.5 541Q869 503 847 468ZM588 248Q523 183 464 198Q405 213 379 298Q333 321 298 352Q264 382 240.5 418Q217 454 203 496Q189 537 184 583Q233 602 268 593Q303 584 328 556Q286 609 284.5 673.5Q283 738 311 814Q371 784 417 747.5Q463 711 469 656Q478 715 502.5 747.5Q527 780 559 800Q618 754 635 694.5Q652 635 642 567Q710 603 773.5 616Q837 629 895 614Q881 555 851 498Q821 441 765 385Q858 347 806.5 313Q755 279 588 248ZM691 471Q684 477 653.5 470Q623 463 610 445Q622 461 626.5 498Q631 535 631 535L604 524L618 585Q604 577 590.5 561Q577 545 566 521Q571 546 572 565Q573 584 568 595Q558 573 549.5 553.5Q541 534 528 516Q528 516 528.5 536.5Q529 557 537 578Q529 574 519.5 556Q510 538 505 531Q500 523 507.5 550.5Q515 578 515 591Q499 591 479.5 568Q460 545 446 524Q432 504 437.5 538.5Q443 573 443 573Q443 573 431.5 571.5Q420 570 412 558Q405 546 402 502.5Q399 459 399 459Q399 459 399 458.5Q399 458 399 457Q387 491 389.5 504Q392 517 392 517Q392 517 384 513.5Q376 510 367 486Q358 463 362.5 441Q367 419 405 365Q433 325 473.5 322Q514 319 539 324Q543 324 551.5 326Q560 328 564 332Q570 338 578 350.5Q586 363 597 363Q608 363 630 373Q652 383 658 400Q663 417 655 419Q647 421 654 427Q661 433 673 450Q685 467 691 471ZM474 185Q504 137 541 100Q579 62 623.5 35.5Q668 9 719 -7Q769 -23 825 -26Q842 -1 842 31Q841 63 828 100.5Q815 138 793 182Q771 225 747 273Q720 265 682.5 255.5Q645 246 594 237Q568 210 536.5 195.5Q505 181 474 185Z" fill="#90a959" />
  </g>
</svg>