<?xml version="1.0" encoding="UTF-8"?>
<svg width="16" height="16" viewBox="0 0 16 16" xmlns="http://www.w3.org/2000/svg">
  <g transform="translate(1.6954882812500003, 14.9825) scale(0.015585937499999999, -0.015585937499999999)">
    <path d="M724 629L414 460L414 801ZM414 74L725 261L414 422L414 74ZM744 279L744 611L432 441L744 279ZM388 814L74 640L388 463L388 814ZM65 615L65 266L372 442L65 615ZM388 423L88 250L388 75ZM352 -64L352 28L7 227L0 666L447 960L447 859L805 657L809 247L352 -64ZM388 44L388 -2L770 258L771 633L414 841L414 892L36 641L39 248L388 44Z" fill="#90a959" />
  </g>
</svg>