<?xml version="1.0" encoding="UTF-8"?>
<svg width="16" height="16" viewBox="0 0 16 16" xmlns="http://www.w3.org/2000/svg">
  <g transform="translate(0.9049804687499998, 14.555421875) scale(0.01462890625, -0.01462890625)">
    <path d="M142 960L436 917Q444 916 450 912Q456 908 461 902L834 304L949 256Q960 251 966 240Q972 229 969 217L912 -37Q910 -49 900.5 -56.5Q891 -64 879 -64L679 -64Q669 -64 660 -58Q651 -52 647 -42L518 301L451 281L310 -43Q306 -53 297 -58.5Q288 -64 278 -64L85 -64Q73 -64 64 -57Q55 -50 52 -39L1 136Q-1 145 1 153.5Q3 162 9 169L375 564L335 633L219 656Q210 658 203.5 664Q197 670 194 678L105 914Q99 931 109.5 946.5Q120 962 142 960ZM703 5L852 5L896 204L797 245Q792 247 788 250.5Q784 254 781 259L411 852L190 884L251 720L364 697Q371 696 377 691.5Q383 687 387 681L447 576Q453 566 451.5 555Q450 544 442 536L73 137L110 5L256 5L394 323Q397 330 402.5 335Q408 340 415 342L528 376Q541 380 553.5 374Q566 368 570 355L703 5Z" fill="#cc00a3" />
  </g>
</svg>