<?xml version="1.0" encoding="UTF-8"?>
<svg width="16" height="16" viewBox="0 0 16 16" xmlns="http://www.w3.org/2000/svg">
  <g transform="translate(-0.46999999999999886, 15.411081194196427) scale(0.016542968749999998, -0.016542968749999998)">
    <path d="M881 474Q846 474 829.5 455.5Q813 437 813 405L813 260Q813 205 761.5 203Q710 201 710 256L710 443Q710 492 756 536Q802 580 872 581Q924 581 925 635Q926 689 872 689L345 689Q306 689 288.5 668.5Q271 648 271 620L271 308Q271 253 218.5 253.5Q166 254 166 308L166 626Q166 684 210.5 741Q255 798 342 798L870 798Q949 797 987 748Q1024 700 1024 641Q1024 582 987 531Q950 480 881 474ZM484 309Q539 309 538.5 255.5Q538 202 484 202L180 202Q149 202 127.5 219.5Q106 237 106 275L106 631Q106 691 53 690.5Q0 690 0 632L0 263Q4 185 51 142Q98 99 159 98L501 98Q568 97 607 145Q646 194 648.5 252.5Q651 311 614 361Q576 411 491 415Q434 415 434.5 469Q435 523 491 523L646 523Q699 523 698 578Q697 633 646 633L480 633Q400 627 362 576Q324 526 325.5 467.5Q327 409 368 361Q408 312 484 309Z" fill="#aa759f" />
  </g>
</svg>