<?xml version="1.0" encoding="UTF-8"?>
<svg width="16" height="16" viewBox="0 0 16 16" xmlns="http://www.w3.org/2000/svg">
  <g transform="translate(-0.46999999999999886, 15.413225279850746) scale(0.016542968749999998, -0.016542968749999998)">
    <path d="M1024 686Q1024 686 1016.5 704Q1009 722 983 749Q955 779 933 778Q911 777 910 781Q909 784 912 788.5Q915 793 915 793Q915 793 902.5 786.5Q890 780 864 756Q848 740 834.5 724.5Q821 709 813 700Q813 700 813 700Q813 700 812 700Q815 711 829 740Q843 769 889 833Q834 772 819 741.5Q804 711 803 702Q799 701 796.5 697.5Q794 694 794 689Q794 685 796.5 682Q799 679 802 677Q804 665 805 641Q806 617 805 583Q805 546 798 517.5Q791 489 787 478Q786 478 785.5 478.5Q785 479 785 479Q783 478 777.5 469.5Q772 461 770 455Q768 450 769 446.5Q770 443 770 443Q770 443 770 443Q770 443 770 443Q770 442 769.5 441.5Q769 441 769 440Q767 436 762.5 426.5Q758 417 751 405Q751 406 750.5 406Q750 406 750 406Q750 406 748.5 406Q747 406 745 405Q744 404 739.5 399.5Q735 395 724 389Q720 387 717 386Q714 385 711 384Q714 402 717 423Q720 444 721 468Q726 556 679.5 600.5Q633 645 587 647Q585 647 584 647Q583 647 581 647Q581 647 581 647Q581 647 582 648Q582 651 581.5 651.5Q581 652 578 649Q577 648 576.5 647.5Q576 647 575 646Q574 646 572.5 646Q571 646 569 646Q569 647 569 648Q569 649 569 651Q569 653 569 654Q569 655 565 652Q563 650 561.5 648Q560 646 559 645Q558 645 557.5 644.5Q557 644 556 644Q555 646 554.5 647.5Q554 649 554 651Q554 655 554.5 655.5Q555 656 552 654Q549 651 546 647Q543 643 543 641Q542 641 541 640.5Q540 640 539 640Q538 640 536.5 642Q535 644 535 647Q535 651 534.5 652Q534 653 532 650Q529 646 528 642Q527 638 526 635Q525 634 524 633.5Q523 633 522 633Q521 634 520.5 635.5Q520 637 520 640Q519 645 519.5 647Q520 649 517 643Q515 640 513.5 635Q512 630 511 626Q509 625 508 624Q507 623 506 622Q506 624 506 626Q506 628 506 630Q506 634 506 636.5Q506 639 503 631Q502 628 501 624.5Q500 621 500 617Q487 605 479.5 588Q472 571 472 550Q472 537 473.5 527Q475 517 478 510Q474 505 474 492Q474 479 477 475Q479 471 489 465Q499 459 502 458Q509 454 510 441.5Q511 429 507 421Q504 414 509 411.5Q514 409 519 408Q525 406 531.5 408Q538 410 539 413Q541 416 536.5 423Q532 430 529 445Q526 459 530.5 462Q535 465 535 465Q535 465 537.5 463Q540 461 545 454Q548 449 552 444.5Q556 440 559 437Q558 435 556 433Q554 431 550 429Q554 429 557.5 430.5Q561 432 563 433Q564 432 565 431.5Q566 431 566 431Q566 430 565.5 429.5Q565 429 564 429Q566 429 567 429Q568 429 569 430Q570 429 571 429Q572 429 573 429Q578 428 587.5 436.5Q597 445 597 448Q597 450 591.5 453.5Q586 457 582 463Q577 468 576.5 474Q576 480 576 480Q576 480 578 490.5Q580 501 556 528Q547 538 536.5 545.5Q526 553 517 558Q515 580 530 597Q545 614 581 612Q635 609 658.5 561.5Q682 514 675 460Q675 458 674.5 457Q674 456 674 454Q674 454 674 454Q674 454 674 454Q671 452 671.5 451.5Q672 451 673 451Q673 448 672.5 445Q672 442 671 439Q671 439 670.5 438.5Q670 438 670 438Q666 436 666.5 435.5Q667 435 670 434Q669 432 668 430Q667 428 667 425Q666 425 665 424.5Q664 424 663 424Q658 422 659 421.5Q660 421 662 420Q663 420 663.5 419.5Q664 419 664 419Q663 416 662 414Q661 412 660 409Q659 409 658 409Q657 409 656 408Q652 407 652.5 406.5Q653 406 655 405Q656 404 656.5 403.5Q657 403 657 403Q656 401 655 398.5Q654 396 653 394Q651 394 649.5 394Q648 394 646 393Q641 392 642 391.5Q643 391 645 389Q646 389 647 388Q648 387 649 387Q647 384 646 382Q645 380 643 378Q642 378 639.5 378Q637 378 635 377Q630 376 631 375.5Q632 375 634 373Q635 372 636 371.5Q637 371 638 370Q637 368 635.5 366Q634 364 633 362Q631 363 628.5 363Q626 363 623 363Q618 362 619 361Q620 360 621 359Q624 357 625 355.5Q626 354 627 354Q626 353 625 352Q624 351 624 350Q622 352 619 354Q616 356 613 358Q611 360 606.5 362Q602 364 601 364Q599 364 591.5 358.5Q584 353 558 356Q531 358 525.5 360Q520 362 517 362Q515 362 511.5 361Q508 360 508 359Q505 361 503 362Q501 363 499 365Q468 384 451 400.5Q434 417 434 417Q434 417 435.5 420.5Q437 424 432 429Q428 432 420.5 438Q413 444 407 448Q403 454 395 467.5Q387 481 377 502Q362 537 359 560Q356 583 356 593Q360 596 361.5 599.5Q363 603 363 607Q363 614 358.5 619Q354 624 348 624Q341 638 307 675.5Q273 713 176 787Q270 706 299 669Q328 632 333 619Q332 619 332 618.5Q332 618 332 618Q320 627 299.5 641.5Q279 656 254 671Q213 696 193.5 702Q174 708 174 708Q174 708 178.5 703.5Q183 699 182 696Q181 693 145.5 693.5Q110 694 66 665Q24 637 12 619.5Q0 602 0 602Q0 602 17 621Q34 640 67 657Q67 646 69 598Q71 550 86 481Q103 410 127 351Q151 292 155 282Q155 277 155.5 274Q156 271 156 271Q156 271 162.5 319Q169 367 188 426Q194 417 214.5 392.5Q235 368 277 337Q327 299 352 285.5Q377 272 379 271Q379 266 379 263.5Q379 261 379 261Q379 261 379.5 264Q380 267 380 272Q382 275 389 284Q396 293 404 301Q412 309 418.5 313.5Q425 318 427 319Q428 316 429 313Q430 310 431 307Q430 310 429.5 313Q429 316 428 319Q432 319 445.5 316Q459 313 480 303Q491 297 499.5 290.5Q508 284 514 277Q514 277 514 277Q514 277 513 277Q513 277 516.5 273Q520 269 525 260Q515 260 507 259Q499 258 494 256Q493 258 492 260Q491 262 490 264Q489 266 489 267.5Q489 269 488 270Q487 272 485 273.5Q483 275 481 276Q480 277 479 278Q478 279 476 279Q476 280 475 280.5Q474 281 474 282Q471 288 454.5 284Q438 280 434 275Q428 268 427 260.5Q426 253 428 249Q429 247 430.5 246Q432 245 434 244Q434 237 438.5 222.5Q443 208 451 196Q447 217 446.5 225Q446 233 447 239Q448 229 453.5 217Q459 205 472 191Q463 209 463 220.5Q463 232 464 242Q464 242 464 242Q464 242 464 242Q465 233 469.5 223.5Q474 214 485 201Q477 214 476.5 225Q476 236 477 245Q478 245 478 245Q478 245 478 245Q479 244 480.5 242.5Q482 241 483 239Q488 234 490 228.5Q492 223 493 219Q492 215 492.5 210.5Q493 206 495 203Q474 187 454 174.5Q434 162 415 152Q381 171 355 183.5Q329 196 301 201Q271 207 247 194Q223 181 217 155Q212 135 226.5 109.5Q241 84 294 81Q325 80 361.5 92.5Q398 105 435 123Q439 121 442 119.5Q445 118 448 116Q530 71 587.5 64.5Q645 58 711 85Q680 76 624.5 70.5Q569 65 494 107Q482 113 471.5 119Q461 125 451 131Q472 142 493.5 153.5Q515 165 534 176Q534 176 534 176Q534 176 534 176Q534 176 536.5 176.5Q539 177 541 177Q547 179 554.5 182Q562 185 571 190Q572 186 574 183Q576 180 579 179Q587 176 592.5 177.5Q598 179 602 184Q605 185 608 187Q611 189 613 190Q615 190 616.5 190.5Q618 191 620 192Q615 183 615.5 175Q616 167 616 167Q617 179 622 186.5Q627 194 632 198Q634 198 636.5 199Q639 200 641 200Q643 200 644.5 199.5Q646 199 647 197Q649 194 653.5 191.5Q658 189 663 188Q663 183 660 174.5Q657 166 645 151Q659 160 666 168Q673 176 675 183Q675 176 672.5 165.5Q670 155 662 138Q669 145 674.5 152Q680 159 684 165Q684 159 683.5 150.5Q683 142 681 131Q692 153 693 167Q694 181 691 189Q691 190 690.5 190.5Q690 191 690 192Q691 193 691.5 193.5Q692 194 692 194Q696 200 692.5 205Q689 210 685 212Q684 213 679 216Q674 219 666 219Q659 227 649.5 224.5Q640 222 625 213Q623 211 621.5 210Q620 209 618 209Q618 210 617.5 211Q617 212 616 214Q621 217 626.5 220Q632 223 637 227Q647 233 654.5 240Q662 247 668 253Q684 270 693.5 285.5Q703 301 720 315Q719 315 719 315Q719 315 719 315Q720 315 720.5 315.5Q721 316 722 316Q748 330 762.5 334.5Q777 339 779 340Q779 338 779 337Q779 336 779 334Q779 335 779 336.5Q779 338 779 340Q781 339 787 335.5Q793 332 800 325Q807 318 811 311.5Q815 305 815 304Q816 298 816.5 294.5Q817 291 817 291Q817 291 817 294.5Q817 298 817 305Q822 311 845 338.5Q868 366 890 411Q913 455 922 488.5Q931 522 934 535Q948 494 955 462Q962 430 962 430Q962 430 962 434Q962 438 961 446Q964 457 974 501.5Q984 546 988 606Q991 660 987.5 694.5Q984 729 982 742Q1002 725 1013 705.5Q1024 686 1024 686ZM272 115Q236 125 251 161Q266 197 327 173Q342 167 359.5 159.5Q377 152 397 143Q356 123 324 116Q292 109 272 115ZM510 358Q509 359 508.5 359Q508 359 508 359Q508 359 508.5 359Q509 359 510 358ZM510 240Q509 239 507 238.5Q505 238 504 237Q502 238 501 240.5Q500 243 498 246Q498 246 498 246.5Q498 247 497 248Q500 246 503.5 244Q507 242 510 240Z" fill="#ee9e2e" />
  </g>
</svg>