<?xml version="1.0" encoding="UTF-8"?>
<svg width="16" height="16" viewBox="0 0 16 16" xmlns="http://www.w3.org/2000/svg">
  <g transform="translate(1.60197265625, 14.9825) scale(0.015585937499999999, -0.015585937499999999)">
    <path d="M91 100Q91 100 105.5 128.5Q120 157 157 162Q193 166 206.5 137.5Q220 109 220 109Q185 46 151.5 47Q118 48 91 100ZM163 283Q143 265 120 257.5Q97 250 71 251Q70 216 72 183Q74 150 83 120Q108 187 163.5 184.5Q219 182 230 134Q242 144 252 204Q262 264 263 295Q235 286 210 277.5Q185 269 163 283ZM153 306Q153 312 159 310.5Q165 309 166 304Q169 294 197 300Q225 306 256 318Q277 326 290.5 337.5Q304 349 304 359Q306 365 312.5 362.5Q319 360 319 346Q318 335 308.5 324.5Q299 314 283 304Q280 241 267 188Q255 136 236 99.5Q217 63 194 43Q170 23 146 24Q90 28 72.5 100.5Q55 173 56 251Q44 253 39.5 261Q35 269 39 280Q40 284 43 286Q46 288 47 285Q51 272 64.5 269.5Q78 267 101 273Q122 278 136.5 287.5Q151 297 153 306ZM157 351Q155 351 149.5 369Q144 387 160 391Q182 398 174.5 375.5Q167 353 157 351ZM182 376Q188 378 221 389.5Q254 401 302 404Q311 404 317.5 404Q324 404 328 403Q339 402 341.5 396Q344 390 339 387Q333 387 329.5 391.5Q326 396 303 394Q274 392 240.5 384Q207 376 183 367Q179 368 179.5 371.5Q180 375 182 376ZM188 393Q225 422 276.5 446Q328 470 373 478Q378 476 378 471.5Q378 467 374 464Q327 450 289 436.5Q251 423 198 387Q191 385 189 387Q187 389 188 393ZM182 403Q199 431 222.5 452Q246 473 276 492Q307 512 342.5 530Q378 548 406 559Q411 559 411.5 556Q412 553 408 547Q408 547 362.5 527Q317 507 281 484Q245 460 225.5 440.5Q206 421 198 408Q189 395 185.5 399Q182 403 182 403ZM136 362Q104 351 76.5 338.5Q49 326 29 304Q26 300 27.5 297Q29 294 32 297Q52 318 81 330.5Q110 343 141 353Q144 354 143.5 359Q143 364 136 362ZM133 373Q93 374 64 367Q35 360 13 343Q11 338 14 337.5Q17 337 20 337Q45 354 72.5 359Q100 364 133 365Q138 367 136.5 369.5Q135 372 133 373ZM0 374L1 387Q63 414 93 408.5Q123 403 146 389Q145 388 143.5 385.5Q142 383 141 380Q104 405 67.5 396Q31 387 0 374ZM257 603Q253 608 256 616.5Q259 625 263 630Q267 635 269.5 630Q272 625 272 616Q272 606 266.5 602Q261 598 257 603ZM233 604Q233 631 256 639.5Q279 648 279 632L276 530Q275 514 253.5 502Q232 490 232 512ZM103 553Q97 552 90 546Q83 540 82 529Q80 513 77.5 475.5Q75 438 75 438Q76 424 92.5 433Q109 442 109 460L114 535Q107 521 102.5 518Q98 515 98 529Q97 538 103 541Q109 544 115 542Q115 548 111.5 550.5Q108 553 103 553ZM642 960Q600 936 555 892.5Q510 849 460 762L414 791L414 -64L821 -24L785 536L661 624Q669 656 675 699Q680 743 679 789Q678 835 669 880Q661 925 642 960ZM630 917Q644 877 648 833Q651 789 649 747.5Q647 706 640 670Q634 634 626 608L586 631Q601 685 599.5 737Q598 789 585 797Q562 787 544.5 767Q527 747 514 724L477 749Q508 800 547 848.5Q586 897 630 917ZM579 774Q587 759 587 726Q587 693 581 676L526 713Q536 735 550 750.5Q564 766 579 774ZM185 651Q185 668 186.5 686.5Q188 705 196 722Q216 721 226 712.5Q236 704 250 691L237 682Q230 688 223.5 694Q217 700 205 703Q202 693 200 682Q198 671 201 659ZM128 615Q121 706 125.5 764Q130 822 146 849Q210 841 247 807Q284 773 315 732L292 716Q275 738 239.5 776Q204 814 163 815Q147 758 147.5 715Q148 672 150 630Z" fill="#be2f31" />
  </g>
</svg>