<?xml version="1.0" encoding="UTF-8"?>
<svg width="16" height="16" viewBox="0 0 16 16" xmlns="http://www.w3.org/2000/svg">
  <g transform="translate(2.8731711647727254, 14.980859375) scale(0.015585937499999999, -0.015585937499999999)">
    <path d="M315 565Q315 595 305 621.5Q295 648 278 669L235 626Q245 613 251 597.5Q257 582 257 565Q257 545 249.5 528Q242 511 230 498L266 448Q289 470 302 500.5Q315 531 315 565ZM302 771Q302 780 304.5 787.5Q307 795 311 802L283 828Q275 816 270.5 801.5Q266 787 266 771Q266 755 271.5 740Q277 725 286 713L312 739Q307 746 304.5 754Q302 762 302 771ZM158 467Q117 467 88 495.5Q59 524 59 565Q59 606 88 635Q117 664 158 664Q174 664 189 658.5Q204 653 216 645L260 688Q239 706 213 716Q187 726 158 726Q93 726 46.5 679Q0 632 0 566Q0 499 46 452Q92 405 158 405Q179 405 198.5 410.5Q218 416 235 426L198 476Q189 471 179 469Q169 467 158 467ZM599 361Q570 397 533 419Q495 441 453.5 448.5Q412 456 369 448Q326 441 287 418L331 353Q380 382 436 372.5Q492 363 531 318Q553 292 565.5 258.5Q578 225 577 190Q576 151 561.5 117Q547 83 517 55Q466 10 401 14Q336 18 290 68Q240 124 243.5 201.5Q247 279 301 330L255 396Q208 359 185.5 310Q163 261 161 208Q161 147 177.5 101.5Q194 56 225 19Q259 -20 304 -41Q350 -62 398.5 -64Q447 -66 494 -49Q541 -33 578 3Q615 38 635 84Q655 130 657.5 178.5Q660 227 646 274Q631 322 599 361ZM362 870Q345 870 329 864Q313 858 301 847L328 821Q335 826 344 829Q353 832 362 832Q388 832 405.5 814.5Q423 797 423 771Q423 746 405.5 728.5Q388 711 362 711Q354 711 345.5 713.5Q337 716 331 720L304 693Q316 683 331 677.5Q346 672 362 672Q402 672 430.5 701Q459 730 459 771Q459 812 431 841Q403 870 362 870ZM227 863Q212 863 201 874Q190 885 190 900Q190 915 201 926Q212 937 227 937Q242 937 253 926Q264 915 264 900Q264 896 263 892.5Q262 889 261 885L278 869Q282 876 284.5 884Q287 892 287 900Q287 925 269.5 942.5Q252 960 227 960Q203 960 185.5 942.5Q168 925 168 900Q168 875 185 857.5Q202 840 227 840Q236 840 244.5 842.5Q253 845 260 850L242 866Q239 865 235 864Q231 863 227 863Z" fill="#aa759f" />
  </g>
</svg>