<?xml version="1.0" encoding="UTF-8"?>
<svg width="16" height="16" viewBox="0 0 16 16" xmlns="http://www.w3.org/2000/svg">
  <g transform="translate(1, 14.125) scale(0.013671875, -0.013671875)">
    <path d="M1024 165L282 165L353 236L931 236L931 299L416 299L486 369L931 369L931 432L549 432L609 491L931 491L931 554L671 554L731 614L931 614L931 677L794 677L854 736L931 736L931 799L868 799L868 862L806 862L806 777L746 718L746 862L683 862L683 655L623 595L623 862L561 862L561 532L501 473L501 862L438 862L438 410L368 340L368 862L305 862L305 277L243 215L243 960L117 960L117 165L0 165L0 39L117 39L117 -64L243 -64L243 39L1024 39Z" fill="#6a9fb5" />
  </g>
</svg>