<?xml version="1.0" encoding="UTF-8"?>
<svg width="16" height="16" viewBox="0 0 16 16" xmlns="http://www.w3.org/2000/svg">
  <g transform="translate(2.483688086709486, 14.556033698034502) scale(0.01462890625, -0.01462890625)">
    <path d="M0 515Q-1 505 3 457Q7 409 9 374Q12 330 12 287Q12 244 19 200Q26 145 50.5 94Q75 43 120 11Q169 -23 229 -39.5Q289 -56 348 -62Q398 -67 459.5 -59Q521 -51 569 -32Q630 -9 660.5 36.5Q691 82 702 111Q717 154 714 204Q711 254 687 292Q663 332 618.5 355Q574 378 529 391Q473 406 412.5 402.5Q352 399 296 384Q256 372 223.5 352Q191 332 155 300Q140 288 140.5 274Q141 260 149 251Q159 240 172.5 239Q186 238 207 251Q223 261 241 279Q259 297 283 300Q291 301 293.5 296Q296 291 292 284Q290 284 281 247.5Q272 211 289 172Q302 144 328.5 122Q355 100 386 94Q421 87 460 97.5Q499 108 523 135Q545 159 553.5 196Q562 233 550 263Q546 272 535.5 279Q525 286 515 284Q510 284 506 279.5Q502 275 501 270Q500 266 504.5 262.5Q509 259 507 255Q505 241 489.5 235.5Q474 230 461 239Q450 245 448.5 260.5Q447 276 453 286Q461 300 480 304.5Q499 309 515 308Q543 306 571.5 292Q600 278 613 253Q631 222 628.5 181Q626 140 607 110Q586 75 545 56Q504 37 464 29Q412 21 358 25Q304 29 259 47Q206 64 167 104Q128 144 117 194Q108 235 108.5 281.5Q109 328 107 375Q106 403 102 436Q98 469 79 492Q68 507 51 517Q34 527 16 526Q8 527 3.5 524Q-1 521 0 515ZM123 888Q104 884 95 866Q86 848 86 831Q95 781 107 728Q119 674 132.5 622Q146 570 160 523Q174 475 187 436Q195 425 208.5 417.5Q222 410 235 414Q247 417 253 430Q259 443 261 455Q253 515 243 577Q233 639 223 693.5Q213 748 203 791Q193 834 185 856Q179 872 159.5 882.5Q140 893 123 888ZM332 960Q312 958 300.5 939Q289 920 286 902Q289 848 293 789Q298 731 303.5 674.5Q309 618 316 565Q323 513 331 469Q336 454 348.5 444.5Q361 435 375 439Q390 440 398 452.5Q406 465 407 479Q408 544 407 610Q406 677 403.5 736.5Q401 796 397 843Q393 890 388 914Q385 932 367.5 947Q350 962 332 960ZM555 899Q538 901 524 886Q510 871 505 856Q497 807 491 754Q484 702 479.5 650.5Q475 599 472 551Q469 503 468 463Q469 449 478.5 438Q488 427 502 428Q515 426 524.5 436Q534 446 537 458Q549 515 560 575Q571 635 579 688Q587 741 592 783Q597 826 597 848Q598 865 585 881Q572 897 555 899ZM724 771Q709 775 696 764Q683 753 677 741Q665 702 654 660Q643 617 633.5 575.5Q624 534 616 495Q608 456 603 424Q603 412 610 402Q617 392 628 392Q639 389 648 396Q657 403 661 413Q678 458 693 506Q709 553 721.5 596Q734 639 743 673Q751 707 754 725Q756 739 746.5 753.5Q737 768 724 771Z" fill="#75b5aa" />
  </g>
</svg>