<?xml version="1.0" encoding="UTF-8"?>
<svg width="16" height="16" viewBox="0 0 16 16" xmlns="http://www.w3.org/2000/svg">
  <g transform="translate(1, 14.125) scale(0.013671875, -0.013671875)">
    <path d="M512 833Q432 833 362 803Q292 772 239.5 720Q187 668 157 598Q127 528 127 448Q127 368 157 298Q187 228 239.5 176Q292 124 362 94Q432 63 512 63Q592 63 662 94Q732 124 784 176Q836 228 866 298Q897 368 897 448Q897 528 866 598Q836 668 784 720Q732 772 662 803Q592 833 512 833ZM671 720Q718 720 751 687Q784 654 784 608Q784 561 751 528Q718 495 671 495Q625 495 592 528Q559 561 559 608Q559 654 592 687Q625 720 671 720ZM195 812L175 835Q187 846 200.5 856Q214 866 228 875L245 850Q232 841 219.5 831.5Q207 822 195 812ZM86 162Q95 148 105.5 134.5Q116 121 127 109L150 129Q140 141 130 153.5Q120 166 111 179L86 162ZM359 905L349 934Q333 929 317.5 922.5Q302 916 287 909L300 881Q314 888 329 894Q344 900 359 905ZM150 767L127 787Q116 775 105.5 761.5Q95 748 86 734L111 717Q120 730 129.5 742.5Q139 755 150 767ZM79 662L52 675Q45 660 38.5 644.5Q32 629 26 613L55 603Q60 618 66 633Q72 648 79 662ZM287 -13Q302 -20 317.5 -26.5Q333 -33 349 -38L359 -9Q344 -4 329.5 2Q315 8 300 15L287 -13ZM26 282Q32 267 38.5 251Q45 235 52 220L80 234Q73 248 66.5 262.5Q60 277 55 292L26 282ZM993 485L1023 488Q1022 504 1019.5 521Q1017 538 1014 554L984 548Q987 533 989.5 517Q992 501 993 485ZM39 542L9 548Q6 532 3.5 515Q1 498 0 482L30 480Q32 495 34 511Q36 527 39 542ZM30 416L0 414Q1 397 3.5 380.5Q6 364 9 347L39 353Q36 369 33.5 384.5Q31 400 30 416ZM175 61Q188 50 201.5 40Q215 30 229 21L245 46Q232 55 219.5 64.5Q207 74 195 84L175 61ZM783 49L800 24Q814 33 827.5 43.5Q841 54 853 65L833 88Q821 78 808.5 68Q796 58 783 49ZM483 930L481 960Q464 959 447 957Q430 955 414 952L420 922Q435 925 451 927Q467 929 483 930ZM877 133L901 113Q911 126 921.5 139.5Q932 153 941 167L915 184Q907 171 897.5 158Q888 145 877 133ZM947 239L974 226Q981 241 987.5 256.5Q994 272 999 288L970 298Q965 283 959 268Q953 253 947 239ZM994 422Q993 406 991 390.5Q989 375 986 359L1016 353Q1019 370 1021 387Q1023 404 1024 420L994 422ZM995 619Q990 635 983 650.5Q976 666 969 681L942 667Q949 653 955 638.5Q961 624 967 609L995 619ZM414 -55Q431 -59 447.5 -61Q464 -63 481 -64L483 -33Q467 -32 451.5 -30Q436 -28 420 -25ZM615 950Q598 954 581.5 956Q565 958 548 960L546 929Q562 928 577.5 926Q593 924 609 921L615 950ZM546 -33L549 -64Q565 -62 582 -60Q599 -58 615 -54L609 -24Q594 -28 578 -30Q562 -32 546 -33ZM742 907Q727 914 711.5 920.5Q696 927 680 933L670 904Q685 899 699.5 892.5Q714 886 728 879L742 907ZM670 -8L680 -36Q696 -31 711.5 -24.5Q727 -18 742 -10L728 17Q714 10 699.5 4Q685 -2 670 -8ZM897 720Q943 720 976 753Q1009 786 1009 833Q1009 880 976 913Q943 946 897 946Q850 946 817 913Q784 880 784 833Q784 786 817 753Q850 720 897 720Z" fill="#90a959" />
  </g>
</svg>