<?xml version="1.0" encoding="UTF-8"?>
<svg width="16" height="16" viewBox="0 0 16 16" xmlns="http://www.w3.org/2000/svg">
  <g transform="translate(0.018006449854650164, 14.9825) scale(0.015585937499999999, -0.015585937499999999)">
    <path d="M705 251Q675 295 637 335Q599 375 579 425L579 281Q608 264 640 257Q672 250 705 251ZM803 525Q767 526 731 527.5Q695 529 660 522Q638 513 623.5 493Q609 473 611 448Q610 416 635 395Q660 374 690 374Q728 375 769.5 372.5Q811 370 843 396Q875 426 861.5 472.5Q848 519 803 525ZM212 624L212 270L390 258L390 328L279 332L279 627ZM933 591Q902 624 858 638Q814 652 770 652Q797 615 827.5 580Q858 545 883 507Q911 464 892 412Q873 360 824 346Q786 338 747 340.5Q708 343 669 341L783 196Q792 184 802 172.5Q812 161 825 155Q844 150 862.5 161Q881 172 884 191Q887 211 875 227Q863 243 854 258Q891 273 922 298.5Q953 324 971 360Q999 416 989 481.5Q979 547 933 591ZM672 731Q657 752 628.5 745.5Q600 739 593 714Q587 693 600 675.5Q613 658 623 642L581 624L580 478Q589 505 609 527.5Q629 550 658 556Q695 562 732.5 560Q770 558 807 559L672 731ZM580 927L579 756Q595 765 611 774Q627 783 646 779Q685 773 706 741.5Q727 710 750 683Q800 687 850.5 675.5Q901 664 939 629Q993 586 1014 516Q1035 446 1013 381Q1001 337 971.5 303Q942 269 904 245Q912 224 916 200.5Q920 177 905 156Q888 127 852 120Q816 113 790 136Q772 154 756.5 175Q741 196 723 216Q686 215 650 220.5Q614 226 579 240L580 -31L510 -31L0 58L0 838L513 927Z" fill="#46788d" />
  </g>
</svg>