<?xml version="1.0" encoding="UTF-8"?>
<svg width="16" height="16" viewBox="0 0 16 16" xmlns="http://www.w3.org/2000/svg">
  <g transform="translate(1.58250434525516, 15.417556929445553) scale(0.016542968749999998, -0.016542968749999998)">
    <path d="M154 547Q180 504 214 454Q248 403 284.5 353.5Q321 304 357 258Q394 212 425 178Q359 177 298 207Q236 237 194.5 288Q153 339 139 406Q125 474 154 547ZM341 697Q206 853 122 914Q37 976 11 954.5Q-15 933 21 835Q58 736 165 572Q190 529 226 475Q262 422 301.5 368Q341 314 381 264Q421 215 454 179Q605 17 681 -33Q757 -83 771.5 -50.5Q786 -18 746 81Q706 180 623 314Q650 393 635 466Q620 539 577.5 593Q535 647 472 677Q410 706 341 697ZM534 207Q549 215 562 226Q575 237 586 250Q641 127 632.5 99.5Q624 72 514 196Q512 199 473 249Q433 299 382.5 368Q332 437 284 510Q235 584 214 634Q137 774 156 780Q175 786 275 677Q263 671 252 664Q241 657 231 650Q253 602 288 545Q323 488 364.5 429.5Q406 371 450 314Q494 256 534 207Z" fill="#4d9085" />
  </g>
</svg>