<?xml version="1.0" encoding="UTF-8"?>
<svg width="16" height="16" viewBox="0 0 16 16" xmlns="http://www.w3.org/2000/svg">
  <g transform="translate(2.7319531250000004, 14.979502704326924) scale(0.015585937499999999, -0.015585937499999999)">
    <path d="M352 396Q352 396 376.5 446.5Q401 497 406 565Q410 634 401 673Q392 712 392 712L503 797L573 874Q573 874 495 865Q417 856 402 845Q420 862 471 877.5Q522 893 602 900Q602 900 617 901.5Q632 903 618 887Q616 885 601 870Q586 855 581 848L676 917L675 936Q675 936 643 947Q612 958 555.5 959.5Q499 961 421 943Q343 925 250 867Q196 886 139.5 904.5Q83 923 0 915Q0 915 31 901Q62 888 97 869.5Q132 851 157 832Q182 812 169 801Q161 793 146 768Q130 743 118.5 706.5Q107 670 103 626Q100 581 115 533Q136 465 165 409Q194 354 226.5 308Q259 262 292 223Q326 183 357 147Q347 85 363.5 10.5Q380 -64 380 -64Q380 -64 384.5 -12Q389 40 422 65Q454 89 501 96Q548 103 548 103Q509 136 477.5 148.5Q446 161 437 160Q425 158 410 180Q396 202 381.5 235Q367 268 352 306Q337 344 324 374Q318 389 315 423Q313 457 312.5 492Q312 527 313 555Q315 583 318 585Q319 586 326 586Q333 586 336 572Q344 532 348 464Q352 396 352 396Z" fill="#46788d" />
  </g>
</svg>