<?xml version="1.0" encoding="UTF-8"?>
<svg width="16" height="16" viewBox="0 0 16 16" xmlns="http://www.w3.org/2000/svg">
  <g transform="translate(0.5099999999999998, 14.55375) scale(0.01462890625, -0.01462890625)">
    <path d="M240 312L444 516L240 720L172 652L308 516L172 380ZM444 380L716 380L716 312L444 312ZM775 892L103 892Q82 891 63.5 883.5Q45 876 31 861Q16 847 8.5 828.5Q1 810 0 789L0 108L0 107Q1 86 8.5 67.5Q16 49 31 35Q45 20 63.5 12.5Q82 5 103 4L921 4Q942 5 960.5 12.5Q979 20 993 35Q1008 49 1015.5 67.5Q1023 86 1024 107L1024 543L1024 543L1024 638L775 892ZM952 614L762 614L762 805ZM942 86Q938 81 932 79Q926 77 919 76L105 76Q98 77 92 79Q86 81 82 86Q77 90 75 96Q73 102 72 109L72 787Q73 794 75 800Q77 806 82 810Q86 815 92 817Q98 819 105 820L694 820L694 546L952 546L952 109Q951 102 949 96Q947 90 942 86Z" fill="#7c4426" />
  </g>
</svg>