<?xml version="1.0" encoding="UTF-8"?>
<svg width="16" height="16" viewBox="0 0 16 16" xmlns="http://www.w3.org/2000/svg">
  <g transform="translate(-1.0300000000000011, 15.901250000000001) scale(0.017636718750000002, -0.017636718750000002)">
    <path d="M217 567L145 685L0 448L171 169L315 169L144 448L217 567ZM487 685L440 608L512 490L559 567L487 685ZM171 727L342 448L486 448L315 727L171 727ZM657 727L513 727L684 448L513 169L657 169L828 448L657 727ZM853 727L709 727L879 448L709 169L853 169L1024 448Z" fill="#6a9fb5" />
  </g>
</svg>