<?xml version="1.0" encoding="UTF-8"?>
<svg width="16" height="16" viewBox="0 0 16 16" xmlns="http://www.w3.org/2000/svg">
  <g transform="translate(0.020000000000000462, 12.9875) scale(0.015585937499999999, -0.015585937499999999)">
    <path d="M950 640L74 640Q43 639 22 618Q1 597 0 566L0 74Q1 43 22 22Q43 1 74 0L950 0Q981 1 1002 22Q1023 43 1024 74L1024 566Q1023 597 1002 618Q981 639 950 640ZM576 128L448 128L448 320L352 197L256 320L256 128L128 128L128 512L256 512L352 384L448 512L576 512ZM767 96L608 320L704 320L704 512L832 512L832 320L928 320Z" fill="#aa759f" />
  </g>
</svg>