<?xml version="1.0" encoding="UTF-8"?>
<svg width="16" height="16" viewBox="0 0 16 16" xmlns="http://www.w3.org/2000/svg">
  <g transform="translate(-0.46999999999999886, 15.411249999999999) scale(0.016542968749999998, -0.016542968749999998)">
    <path d="M684 388L946 650L1024 579L682 239L475 448L552 521ZM553 590L405 449L631 221L52 221Q31 221 15.5 236.5Q0 252 0 274L0 623Q0 644 15.5 659.5Q31 675 52 675L634 675Q655 675 670 659.5Q685 644 684 623L684 458L553 590ZM392 590L300 590L231 498L162 590L70 590L70 314L162 314L162 452L231 364L300 452L300 314L392 314Z" fill="#4d9085" />
  </g>
</svg>