<?xml version="1.0" encoding="UTF-8"?>
<svg width="16" height="16" viewBox="0 0 16 16" xmlns="http://www.w3.org/2000/svg">
  <g transform="translate(0.02000000000000024, 14.9825) scale(0.015585937499999999, -0.015585937499999999)">
    <path d="M1006 272L868 444L1001 609L811 654L824 855L630 784L526 960L416 788L216 871L235 649L37 613L183 462L18 293L237 254L211 23L410 129L495 -25L495 -28L496 -28L516 -64L537 -28L538 -28L538 -26L623 125L812 25L809 244L1006 272ZM699 309L787 338L866 306L769 292ZM592 306L517 203L439 313L520 405ZM667 656L667 518L535 470L535 604L667 656ZM493 609L493 479L380 524L372 657L493 609ZM366 483L489 435L405 339L278 380L366 483ZM553 431L681 478L754 372L629 331L553 431ZM877 347L801 378L748 457L810 430L877 347ZM906 577L822 472L724 513L789 604L906 577ZM756 631L710 567L710 686L764 748L756 631ZM717 759L667 702L567 663L616 722ZM524 859L586 754L517 668L457 754L524 859ZM424 727L468 665L366 706L313 773ZM327 686L334 574L290 628L280 746L327 686ZM144 578L259 599L324 519L232 488L144 578ZM243 447L294 464L229 387L162 364L243 447ZM166 320L241 347L335 317L274 301L166 320ZM292 262L399 289L399 184L275 118L292 262ZM442 182L442 236L495 161L495 85L442 182ZM538 160L592 232L592 177L538 82ZM634 180L634 281L756 252L757 114L634 180Z" fill="#a35f27" />
  </g>
</svg>