<?xml version="1.0" encoding="UTF-8"?>
<svg width="16" height="16" viewBox="0 0 16 16" xmlns="http://www.w3.org/2000/svg">
  <g transform="translate(0.5099999999999998, 14.55375) scale(0.01462890625, -0.01462890625)">
    <path d="M992 225Q970 280 950 335Q930 391 910 446.5Q890 502 871 558Q851 613 830 669Q812 716 793 762.5Q774 809 749 853Q739 869 728 885Q717 901 701 911Q697 914 692.5 915Q688 916 683 916Q676 916 668.5 912.5Q661 909 655 904Q633 887 618.5 863.5Q604 840 589 817Q564 774 534.5 732Q505 690 462 662Q442 648 417.5 642Q393 636 374 621Q347 601 327 574.5Q307 548 285 523Q280 517 273 514Q266 511 259 508Q194 481 129 454.5Q64 428 0 400Q55 358 112 319Q169 280 224 240Q240 243 255 247Q270 251 286 248Q311 240 327 219.5Q343 199 354 177Q377 129 395.5 79.5Q414 30 433 -20Q464 -18 492.5 -3.5Q521 11 545 30Q592 68 630 114.5Q668 161 707 207Q726 226 746.5 246Q767 266 796 272Q824 279 853 270Q882 261 903 241Q933 215 961 186.5Q989 158 1024 138Q1019 161 1009.5 182Q1000 203 992 225ZM344 328Q316 312 287.5 298Q259 284 230 270Q186 300 142 331Q98 362 54 393Q113 419 173 443.5Q233 468 293 492Q322 470 351 448.5Q380 427 408 405Q395 384 379 364.5Q363 345 344 328ZM425 427Q397 448 368.5 469Q340 490 312 512Q330 537 350 559.5Q370 582 393 602Q409 612 426.5 616.5Q444 621 461 630Q499 650 527 682Q555 714 579 747Q563 706 547 664Q530 623 511 582.5Q492 542 471 503Q450 464 425 427Z" fill="#8f5536" />
  </g>
</svg>