<?xml version="1.0" encoding="UTF-8"?>
<svg width="16" height="16" viewBox="0 0 16 16" xmlns="http://www.w3.org/2000/svg">
  <g transform="translate(0.4353970655195533, 14.566777767523504) scale(0.01462890625, -0.01462890625)">
    <path d="M165 169Q152 166 121.5 165Q91 164 90 194Q89 212 129 258Q170 304 218.5 351.5Q267 399 307 436Q348 473 348 473Q348 473 334 504.5Q320 536 285 580Q245 630 217 646.5Q189 663 102 685Q36 702 8.5 759.5Q-19 817 29 885Q72 945 117 944Q162 943 206 914Q264 876 274 816Q284 756 343 705Q402 655 451.5 642Q501 629 536 658Q571 688 573 733Q575 778 597 827Q619 876 662.5 897.5Q706 919 749 902Q792 884 814.5 854Q837 824 845 802Q863 753 825 716Q787 679 787 679Q787 679 842 696.5Q897 714 913 701Q929 687 919.5 670.5Q910 654 870 614Q846 590 810 553Q775 516 742.5 481Q710 446 687 421Q664 397 664 397Q664 397 682 372Q700 347 735 316Q801 260 876.5 254.5Q952 249 977 217Q1040 138 1021.5 81.5Q1003 25 957 -7Q911 -40 872 -42Q833 -44 790 -15Q748 14 744.5 68Q741 122 670 191Q629 232 575 276Q521 320 496 288Q472 257 463 212.5Q454 168 455 143Q456 77 422 20.5Q388 -36 343 -42Q297 -48 253.5 -45.5Q210 -43 156 20Q125 55 139.5 104.5Q154 154 165 169ZM141 921Q121 920 114.5 905.5Q108 891 125 876Q141 860 146.5 858Q152 856 162 862Q178 873 186 885.5Q194 898 178 907Q162 916 151.5 918.5Q141 921 141 921ZM185 831Q206 809 234.5 778Q263 747 266 750Q269 754 267.5 761.5Q266 769 254 789Q243 809 222 835Q201 861 194 855Q187 850 186 840.5Q185 831 185 831ZM719 888Q713 904 682.5 889.5Q652 875 627 847Q607 807 600 748.5Q593 690 577 672Q571 663 551.5 649Q532 635 538 633Q544 632 568 646.5Q592 661 604 684Q617 706 619.5 740.5Q622 775 635 797Q640 805 655.5 828Q671 851 681 858Q692 865 705.5 876.5Q719 888 719 888ZM751 876Q736 878 721 873.5Q706 869 707 848Q707 827 711 823.5Q715 820 730 818Q757 814 765.5 830.5Q774 847 773 855Q771 864 761 870Q751 876 751 876ZM325 179Q325 179 348.5 168.5Q372 158 380 159Q389 161 384 175.5Q379 190 359 199Q338 208 330.5 200.5Q323 193 325 179ZM908 205Q853 243 796.5 263Q740 283 758 243Q765 230 818 202.5Q871 175 907 157Q943 138 947.5 130.5Q952 123 963 136Q974 150 948 171.5Q922 193 908 205ZM195 87Q187 111 186.5 113.5Q186 116 186 132Q186 147 201.5 167Q217 187 206 183Q194 179 178.5 158Q163 137 161 120Q153 63 165.5 40Q178 17 188 12Q224 -6 226.5 12Q229 30 222 39Q216 48 207.5 61.5Q199 75 195 87ZM303 308Q303 308 348.5 343.5Q394 379 401 398Q415 439 410 461Q405 483 388 518Q370 558 340.5 584Q311 610 309 601Q308 592 315 586.5Q322 581 333 562Q344 544 363.5 510.5Q383 477 384 435Q384 405 333.5 361Q283 317 303 308ZM531 552Q519 547 504.5 540.5Q490 534 488 526Q486 517 502.5 512Q519 507 524 516Q528 525 534 534Q540 543 557 550Q566 554 618 574Q670 594 729 617Q788 640 836 660Q885 680 885 683Q886 688 887.5 688.5Q889 689 869 682Q859 678 807 659Q755 639 695.5 616Q636 593 586 574Q536 555 531 552ZM118 210Q176 270 192 286.5Q208 303 257 348Q283 370 319.5 412Q356 454 356 454Q356 454 306 408Q256 362 235 344Q214 326 166 268Q118 210 118 210Z" fill="#66783e" />
  </g>
</svg>