<?xml version="1.0" encoding="UTF-8"?>
<svg width="16" height="16" viewBox="0 0 16 16" xmlns="http://www.w3.org/2000/svg">
  <g transform="translate(0.020000000000000462, 14.9825) scale(0.015585937499999999, -0.015585937499999999)">
    <path d="M755 189L907 189Q907 189 924 206.5Q941 224 946 277Q952 352 968.5 384Q985 416 1024 430L873 430Q861 427 852 420.5Q843 414 837 400Q835 409 834 416.5Q833 424 832 427Q809 551 790 627.5Q771 704 750 708L591 708Q574 704 555 638.5Q536 573 510 433Q500 488 490 537Q479 586 469 623.5Q459 661 449 684Q439 706 429 708L271 708Q253 704 235.5 646.5Q218 589 192 448Q190 439 188.5 429.5Q187 420 185 410Q178 420 169.5 425Q161 430 151 430L0 430Q30 422 49.5 383.5Q69 345 79 281Q91 212 101.5 201.5Q112 191 114 189L265 189Q283 193 300.5 250.5Q318 308 343 448Q345 458 347.5 473Q350 488 350 488L354 469Q376 345 395 268.5Q414 192 436 188Q437 188 442 188.5Q447 189 447 189L585 189Q603 193 620.5 250.5Q638 308 664 448Q665 458 667.5 471.5Q670 485 670 485L673 470Q696 346 715 269.5Q734 193 755 189ZM107 211Q102 221 97.5 239Q93 257 89 282Q80 334 66.5 368Q53 402 34 420L151 420Q159 420 165 416.5Q171 413 178 405Q179 403 180 400.5Q181 398 182 396Q169 327 155 272.5Q141 218 127 198Q125 198 122.5 198Q120 198 117 198Q117 198 117 198Q117 198 117 198Q116 199 113.5 201Q111 203 107 211ZM423 215Q419 225 414 238.5Q409 252 404 271Q395 307 384.5 357Q374 407 363 471Q362 473 361 478.5Q360 484 359 491Q358 496 357.5 501Q357 506 356 509Q358 519 359.5 528.5Q361 538 362 547Q374 601 385.5 642Q397 683 408 699L428 699Q429 699 433 694.5Q437 690 442 676Q447 665 452.5 648Q458 631 464 609Q474 567 485 513Q496 459 506 407Q492 335 477.5 277Q463 219 448 198Q445 198 442 197.5Q439 197 437 197Q436 198 432 201.5Q428 205 423 215ZM743 216Q738 225 733.5 239Q729 253 724 272Q714 308 704 358Q694 408 682 472Q682 474 681.5 476Q681 478 681 480Q680 481 680 483Q680 485 679 487Q679 494 678 500.5Q677 507 676 513Q688 579 701.5 629.5Q715 680 729 699L748 699Q750 699 753.5 695Q757 691 762 681Q767 671 771.5 657.5Q776 644 781 625Q791 589 801 539Q811 489 823 425L823 425L823 425Q824 421 826 410Q828 399 830 388Q830 387 830 386Q830 385 830 384Q825 369 820.5 349Q816 329 812 304Q806 268 796.5 240Q787 212 775 198Q769 198 764.5 198Q760 198 757 198Q755 198 751.5 202Q748 206 743 216Z" fill="#c97071" />
  </g>
</svg>