<?xml version="1.0" encoding="UTF-8"?>
<svg width="16" height="16" viewBox="0 0 16 16" xmlns="http://www.w3.org/2000/svg">
  <g transform="translate(0.36328067555147037, 14.561064453124999) scale(0.01462890625, -0.01462890625)">
    <path d="M589 554Q596 557 601 556.5Q606 556 604 548Q602 542 596.5 523.5Q591 505 585 487Q581 476 578 471.5Q575 467 554 472Q522 479 503.5 482Q485 485 467 490Q463 492 464 497Q465 502 469 503Q491 510 532 528.5Q573 547 589 554L589 554ZM517 -63Q594 -61 673 -51.5Q752 -42 830 -27Q876 -14 913.5 12Q951 38 976 75Q1013 133 1029 195Q1045 257 1044 321Q1044 374 1034 427Q1024 480 1008 531L1008 531Q991 581 964 622.5Q937 664 887 690Q845 710 801 721Q757 732 712.5 736Q668 740 623 740Q578 739 534 737Q483 733 431 724.5Q379 716 333 687Q297 662 277 627Q256 593 246 554Q236 515 235 475Q234 434 239 396Q243 346 257.5 296.5Q272 247 320 220Q374 190 435 175Q496 161 557 163.5Q618 166 674 187Q731 208 776 248Q787 258 799.5 266Q812 274 821 286Q828 295 801.5 314.5Q775 334 762 347Q750 359 734 365.5Q718 372 701 380Q647 401 593.5 393Q540 385 481 397Q442 405 408 428.5Q374 452 347 480Q345 481 346 486.5Q347 492 348 493Q370 513 390 533Q410 553 441 573Q458 581 478 593.5Q498 606 515 610Q571 631 636 629Q700 628 757.5 607Q815 586 858 548Q900 510 913 458Q921 423 925.5 384Q930 345 930 305Q929 259 919 215Q909 171 879 135Q833 85 765 73Q697 61 634 57Q584 53 536 51Q488 49 440.5 50.5Q393 52 346 59Q299 66 251 82Q224 91 204.5 110Q185 129 173 154Q161 178 151.5 205Q142 232 136 258Q124 318 119 374Q114 430 116.5 484Q119 538 130 589Q140 641 159 691Q177 740 245.5 765.5Q314 791 373 804Q437 819 526 824Q615 829 695.5 829Q776 829 832 827Q888 825 888 825Q888 825 884.5 879Q881 933 879 960Q815 950 724 943Q633 935 534.5 924Q436 913 341 896Q245 878 171 848Q138 835 104.5 805.5Q71 776 54 743Q25 671 12 593Q-1 515 0 441Q1 382 7 316Q14 250 32.5 188Q51 126 85 74Q119 22 173 -7Q230 -37 293 -49Q356 -61 422 -63L517 -63ZM549 231Q551 238 556.5 256Q562 274 568 292Q572 304 575 308.5Q578 313 599 308Q631 301 649.5 298Q668 295 686 290Q690 287 689 282.5Q688 278 684 276Q662 269 621 251Q580 233 564 226Q557 223 552 223.5Q547 224 549 231L549 231L549 231Z" fill="#ac4142" />
  </g>
</svg>