<?xml version="1.0" encoding="UTF-8"?>
<svg width="16" height="16" viewBox="0 0 16 16" xmlns="http://www.w3.org/2000/svg">
  <g transform="translate(0.5099999999999998, 14.55375) scale(0.01462890625, -0.01462890625)">
    <path d="M512 960Q406 960 313 920Q219 880 149.5 810.5Q80 741 40 647Q0 554 0 448Q0 342 40 249Q80 155 149.5 85.5Q219 16 313 -24Q406 -64 512 -64Q618 -64 711 -24Q805 16 874.5 85.5Q944 155 984 249Q1024 342 1024 448Q1024 554 984 647Q944 741 874.5 810.5Q805 880 711 920Q618 960 512 960ZM686 646L536 542L493 605L642 709ZM162 600L311 704L355 641L205 537L162 600ZM328 601L478 705L521 643L372 539ZM528 60L485 123L634 227L678 164ZM585 220L542 283L692 387L735 324L585 220ZM643 381L600 443L750 548L793 485L643 381ZM703 542L660 605L810 709L853 646L703 542Z" fill="#825078" />
  </g>
</svg>