<?xml version="1.0" encoding="UTF-8"?>
<svg width="16" height="16" viewBox="0 0 16 16" xmlns="http://www.w3.org/2000/svg">
  <g transform="translate(0.020000000000000462, 14.9825) scale(0.015585937499999999, -0.015585937499999999)">
    <path d="M1024 186L668 186L668 56L614 0L613 191L391 192L392 264Q336 270 308 298.5Q280 327 280 380Q282 437 310 466.5Q338 496 399 500Q443 499 460.5 480.5Q478 462 480 430Q481 400 464.5 379.5Q448 359 421 344L393 384Q434 400 434 425Q434 450 400 451Q368 447 351 431Q334 415 333 378Q331 345 349.5 330Q368 315 400 311Q441 318 469 344Q497 370 513 413L513 475Q503 541 451.5 556.5Q400 572 339 529L338 582Q348 593 361 599.5Q374 606 389 607L389 804Q351 778 323 745Q295 712 275 672Q255 632 242 586Q230 540 222 489Q215 536 202 579Q190 623 170 663Q150 703 122 738Q95 773 57 803L55 47L0 12L0 895Q38 880 70 857Q103 833 130.5 803.5Q158 774 182 738Q206 702 226 660Q243 702 269 741Q295 781 324.5 813.5Q354 846 384 868Q415 890 440 896L439 604Q491 600 522 570Q553 540 563 485L564 282L519 264L515 325Q502 306 484.5 291Q467 276 444 267L446 245L609 246L607 546Q584 600 552 641Q520 682 477 705L492 752Q550 718 586.5 675Q623 632 640 582Q659 637 696 677Q733 717 783 746L811 704Q760 678 723 639.5Q686 601 671 544L670 248L933 249L836 502L763 325L861 326L837 281L685 280L837 629L1024 186Z" fill="#46788d" />
  </g>
</svg>