<?xml version="1.0" encoding="UTF-8"?>
<svg width="16" height="16" viewBox="0 0 16 16" xmlns="http://www.w3.org/2000/svg">
  <g transform="translate(0.020000000000000462, 14.912363281249998) scale(0.015585937499999999, -0.015585937499999999)">
    <path d="M43 659Q25 659 12.5 646.5Q0 634 0 616L0 271Q0 253 12.5 240.5Q25 228 43 228L981 228Q999 228 1011.5 240.5Q1024 253 1024 271L1024 616Q1024 634 1011.5 646.5Q999 659 981 659L43 659ZM701 577L792 486L883 577L915 545L824 455L913 366L881 334L792 423L703 334L672 366L760 455L669 545ZM495 574L540 574L540 404L602 465L634 433L517 319L406 433L439 464L495 406L495 574ZM101 568L222 449L346 567L346 331L300 331L300 459L222 384L147 458L147 331L101 331L101 568Z" fill="#d28445" />
  </g>
</svg>