<?xml version="1.0" encoding="UTF-8"?>
<svg width="16" height="16" viewBox="0 0 16 16" xmlns="http://www.w3.org/2000/svg">
  <g transform="translate(0.016607766544116276, 14.9844482421875) scale(0.015585937499999999, -0.015585937499999999)">
    <path d="M607 -59Q606 -57 604 -52Q602 -47 600 -42Q597 -33 590.5 -24.5Q584 -16 570 -2Q562 5 553.5 20.5Q545 36 542 49Q541 52 540.5 58.5Q540 65 540 70Q540 77 538.5 83Q537 89 534 96Q529 108 526.5 122.5Q524 137 524 154Q524 175 523.5 182.5Q523 190 522 191Q520 193 519 187Q518 181 516 164Q515 144 509.5 117.5Q504 91 495 64Q492 54 489 42.5Q486 31 485 26Q480 4 463 -21.5Q446 -47 434 -50Q430 -51 427.5 -50Q425 -49 422 -46L417 -41L410 -50Q407 -54 404 -56Q401 -58 399 -57Q396 -55 396 -36Q396 -17 399 16Q400 28 401 38.5Q402 49 402 51Q403 54 397.5 46.5Q392 39 380 21Q379 19 377 17.5Q375 16 374 16Q372 16 371.5 17.5Q371 19 371 25Q372 29 373 34.5Q374 40 375 44Q376 48 377.5 58.5Q379 69 380 81Q381 92 382 103Q383 114 383 118L385 129L372 118Q367 113 362.5 110Q358 107 357 107Q356 107 354.5 105.5Q353 104 353 102Q352 100 348 94Q344 88 340 82Q328 67 317 48Q306 29 303 19Q300 9 295.5 2Q291 -5 287 -5Q283 -5 281 2Q279 9 278 26Q277 42 278 50Q279 58 287 83Q291 98 293.5 108Q296 118 295 118Q294 118 278 107Q262 96 254 88Q249 84 244.5 78.5Q240 73 238 70Q234 63 226.5 56.5Q219 50 215 50Q203 50 207.5 83Q212 116 227 147Q231 157 234.5 164.5Q238 172 238 173Q238 173 237 172.5Q236 172 234 170Q233 169 227.5 166Q222 163 216 161Q210 158 204 155Q198 152 195 150Q192 148 190 147Q188 146 187 146Q185 146 163 130.5Q141 115 139 113Q137 110 125.5 104Q114 98 111 98Q106 98 107 103Q108 108 115 117Q119 123 126 134Q133 145 139 156Q154 180 170 199Q186 218 203 232Q207 234 208.5 236Q210 238 210 239Q210 239 205.5 237.5Q201 236 196 234Q172 224 140.5 222.5Q109 221 78 229Q57 234 46 238.5Q35 243 35 247Q35 248 36 250Q37 252 38 254Q40 257 46.5 257.5Q53 258 76 259Q91 259 101.5 259.5Q112 260 113 261Q114 262 117.5 263.5Q121 265 124 265Q127 266 130 267Q133 268 134 269Q135 270 137 270.5Q139 271 141 272Q143 272 139 273Q135 274 128 274Q118 275 108 274.5Q98 274 85 272Q48 266 39 265.5Q30 265 22 269Q14 273 12.5 278.5Q11 284 17 287Q20 288 25.5 292.5Q31 297 37 302Q43 307 48 310.5Q53 314 55 314Q56 314 59.5 316Q63 318 67 320Q70 322 75 325Q80 328 83 329Q87 330 95.5 336.5Q104 343 113 350Q133 367 144 375Q155 383 167 388Q172 391 175.5 393Q179 395 179 395Q179 396 170.5 396Q162 396 149 395Q132 394 124 394.5Q116 395 109 397Q99 401 85 401.5Q71 402 58 400Q46 398 35.5 399Q25 400 24 403Q23 406 30 408.5Q37 411 51 412Q59 412 64.5 413.5Q70 415 71 416Q72 418 82 422Q92 426 114 435Q118 436 121 437.5Q124 439 124 440Q124 441 121 442Q118 443 114 444Q110 445 103.5 448Q97 451 91 454Q85 457 74 462Q63 467 53 471Q22 483 13 490.5Q4 498 12 504Q21 512 40.5 516Q60 520 95 521Q109 521 118 522.5Q127 524 134 527Q140 529 147.5 531Q155 533 160 533L173 535L165 541Q160 545 156 546Q152 547 145 547Q141 548 132.5 549Q124 550 117 551Q106 554 103 555.5Q100 557 99 560Q99 563 100 564.5Q101 566 103 567Q116 571 118 574Q120 577 110 577Q106 577 90.5 581.5Q75 586 56 592Q47 596 37.5 604Q28 612 28 617Q28 621 36.5 626.5Q45 632 51 630Q52 630 59 630.5Q66 631 74 633Q82 634 88 635Q94 636 95 635Q97 635 102.5 635.5Q108 636 115 638Q122 639 133.5 640.5Q145 642 154 642Q170 643 178 642Q186 641 208 635Q221 632 233.5 628.5Q246 625 251 623Q255 621 258.5 619.5Q262 618 263 619Q264 620 257.5 632.5Q251 645 248 646Q247 647 246 649Q245 651 246 654Q246 658 245 659Q244 660 239 660Q235 660 233.5 661.5Q232 663 231 669Q230 679 215 697.5Q200 716 193 716Q190 716 189 717.5Q188 719 188 723Q188 725 189 727.5Q190 730 191 732Q192 733 192 736Q192 739 190 745Q186 759 194 761Q202 763 221 751Q227 747 235.5 743Q244 739 250 737Q270 731 300.5 714.5Q331 698 342 688Q346 685 348.5 683.5Q351 682 351 682Q352 683 351 688.5Q350 694 348 701Q346 708 344 721.5Q342 735 341 746Q339 771 342 792Q345 813 352 835Q355 844 357 852.5Q359 861 359 865Q359 870 360 874.5Q361 879 362 882Q363 884 363.5 892Q364 900 365 908Q365 916 366 924Q367 932 369 934Q372 941 376.5 941Q381 941 382 934Q384 927 396.5 897Q409 867 412 862Q413 860 416.5 854Q420 848 423 843Q425 837 428.5 832Q432 827 433 826Q435 824 436.5 825Q438 826 440 832Q444 841 449.5 860.5Q455 880 455 884Q455 887 453.5 889.5Q452 892 449 893Q441 899 440 905.5Q439 912 447 912Q454 912 458 915Q462 918 463 923Q467 940 472 942Q477 944 483 931Q488 920 491 921Q494 922 498 936Q504 952 511 958Q518 964 520 954Q522 943 525.5 930.5Q529 918 532 911Q533 908 534.5 897.5Q536 887 537 876Q538 858 542.5 841Q547 824 551 820Q552 819 553.5 821Q555 823 556 826Q559 833 573.5 854.5Q588 876 602 893Q606 899 609 904Q612 909 612 910Q612 910 615 913.5Q618 917 622 921Q630 929 636.5 930.5Q643 932 645 927Q646 926 645.5 908.5Q645 891 644 867Q644 844 643 824.5Q642 805 642 801L642 790L656 804Q667 814 678.5 822Q690 830 694 830Q696 830 698.5 831.5Q701 833 703 835Q706 837 709 838Q712 839 714 839Q716 839 719.5 840.5Q723 842 726 845Q736 853 754.5 864.5Q773 876 777 876Q784 876 780 866Q776 856 762 838Q755 829 745.5 810Q736 791 732 779Q731 773 728 766Q725 759 723 754Q720 750 719 746Q718 742 718 742Q719 741 737.5 752.5Q756 764 765 771Q769 774 773 776Q777 778 779 779Q781 780 784 781.5Q787 783 788 785Q791 788 797 792Q803 796 824 808Q833 814 835 816.5Q837 819 837 822Q836 828 839.5 829.5Q843 831 849 827Q852 825 854.5 824.5Q857 824 861 826Q863 827 866 829.5Q869 832 870 835Q872 839 872 841.5Q872 844 869 851Q865 858 865 862.5Q865 867 868 867Q869 867 872 865.5Q875 864 878 862Q883 859 885 855.5Q887 852 888 847L890 838L903 839Q908 839 912 838.5Q916 838 917 838Q917 837 917 834Q917 831 915 828Q914 824 914 820.5Q914 817 917 810Q920 803 922 801.5Q924 800 930 800Q935 799 936.5 798Q938 797 940 793Q941 789 941 786.5Q941 784 939 781Q934 774 918.5 753.5Q903 733 892 720Q886 713 879 704Q872 695 867 689Q862 683 856.5 676.5Q851 670 848 666L840 659L851 660Q856 661 868 661.5Q880 662 892 662Q911 661 919 662Q927 663 939 667Q950 671 957 671.5Q964 672 974 671Q977 670 974.5 666Q972 662 966 655Q962 651 959.5 648Q957 645 957 645Q958 644 963 644.5Q968 645 975 647Q982 648 989.5 649Q997 650 1000 650Q1005 650 1006 649Q1007 648 1007 645Q1007 642 1004 638.5Q1001 635 994 629Q989 625 977.5 615Q966 605 956 594Q945 583 933 572.5Q921 562 914 558Q890 542 878 534.5Q866 527 862 526Q860 525 857.5 523.5Q855 522 852 520L847 516L866 510Q880 506 887 505Q894 504 915 505Q927 505 940.5 506.5Q954 508 960 510Q974 513 979 512Q984 511 984 504Q984 500 981 496Q978 492 969 484Q955 473 948.5 470Q942 467 916 462Q901 459 891.5 456Q882 453 871 447Q864 443 857.5 439Q851 435 850 434Q848 433 841 431.5Q834 430 825 429Q816 428 809.5 427Q803 426 802 425Q801 424 805.5 420.5Q810 417 818 413Q827 409 848 393Q869 377 883 364Q895 353 909.5 344Q924 335 930 335Q932 335 934.5 334Q937 333 939 332Q940 331 946.5 329Q953 327 960 326Q968 325 974.5 323.5Q981 322 983 321Q985 320 990.5 318.5Q996 317 1002 316Q1010 314 1013 312.5Q1016 311 1016 308Q1017 302 1013 299Q1009 296 996 294Q966 290 938 290.5Q910 291 874 298L865 299L876 282Q886 265 898 250Q910 235 920 228Q929 220 931 215.5Q933 211 927 207Q924 204 920 203.5Q916 203 907 204Q900 204 889 206Q878 208 869 211Q860 213 853 214.5Q846 216 846 215Q845 215 848 212.5Q851 210 855 207Q860 204 864.5 199.5Q869 195 872 192Q874 189 880.5 182.5Q887 176 893 170Q903 160 915.5 145Q928 130 941 112Q944 106 946 102Q948 98 947 94Q947 89 945 88Q943 87 935 87Q928 86 921.5 87.5Q915 89 903 94Q895 97 889.5 99Q884 101 884 100Q884 99 887 93Q890 87 894 78Q899 70 902 63Q905 56 905 54Q905 47 900 48.5Q895 50 885 59Q880 63 869 71.5Q858 80 848 87Q830 98 813 111Q796 124 787 133Q784 135 782 136.5Q780 138 780 138Q779 138 782 128.5Q785 119 789 107Q794 94 798 81Q802 68 803 63Q806 51 812 39Q818 27 824 19Q826 16 829 10Q832 4 834 -3Q837 -13 837.5 -16Q838 -19 834 -23Q829 -30 822 -30Q815 -30 808 -23Q805 -20 798.5 -15Q792 -10 786 -7Q761 11 744.5 26.5Q728 42 711 63L702 75L700 56Q697 38 700 20.5Q703 3 713 -19Q722 -41 722 -50.5Q722 -60 713 -60Q707 -60 697.5 -51Q688 -42 684 -33Q683 -29 677 -18.5Q671 -8 665 2Q659 12 653 22.5Q647 33 644 38Q641 43 638.5 46.5Q636 50 636 50Q635 50 634.5 40Q634 30 634 16Q633 0 632 -15Q631 -30 629 -40L625 -63L618 -64Q614 -64 611.5 -63Q609 -62 607 -59L607 -59ZM682 95Q690 85 693.5 82Q697 79 697 84Q697 85 692.5 91Q688 97 682 105Q667 123 656.5 145Q646 167 637 197Q631 218 629.5 228Q628 238 628 256Q627 275 627.5 279.5Q628 284 632 286Q636 289 639.5 289Q643 289 646 286Q647 285 650 284Q653 283 655 283Q660 283 660.5 287Q661 291 656 298Q655 301 654.5 303.5Q654 306 654 307Q657 309 660.5 305Q664 301 668 291Q673 281 676.5 275.5Q680 270 682 272Q683 272 682.5 274.5Q682 277 681 279Q680 282 678 288.5Q676 295 675 302Q674 309 672.5 315.5Q671 322 670 325Q668 331 669.5 336.5Q671 342 675 342Q679 342 685.5 335Q692 328 699 316Q706 303 717.5 288.5Q729 274 740 265Q747 258 771 242Q795 226 798 226Q799 226 806 222.5Q813 219 821 215Q830 211 837 208Q844 205 844 205Q845 205 844 207Q843 209 840 211Q838 214 835.5 217.5Q833 221 832 223Q831 225 829 226.5Q827 228 826 228Q825 228 822 229Q819 230 816 232Q812 234 806.5 237Q801 240 796 242Q759 259 730 291Q701 323 688 360Q684 372 683.5 376Q683 380 685 383Q688 388 695 387Q702 386 713 378Q719 374 723 371.5Q727 369 728 370Q728 370 726 373.5Q724 377 720 381Q717 385 713 390Q709 395 708 398Q706 401 703 405Q700 409 697 412Q689 419 686.5 425Q684 431 686 436Q690 443 691 446Q692 449 689 449Q688 448 687.5 451.5Q687 455 687 463Q688 469 688.5 474Q689 479 689 479Q690 480 692.5 481Q695 482 699 482Q703 483 705.5 484Q708 485 708 487Q708 489 705 489.5Q702 490 693 490L679 490L679 500Q679 505 680 508.5Q681 512 685 516Q688 518 690 521.5Q692 525 692 527Q692 530 690.5 530.5Q689 531 683 531Q676 531 672.5 527.5Q669 524 671 519Q671 517 671 516Q671 515 670 515Q669 515 668 517Q667 519 666 522Q665 524 664.5 527Q664 530 663 532Q662 535 664 538Q666 541 672 547Q680 554 682.5 558.5Q685 563 681 563Q680 563 676.5 562Q673 561 668 559Q659 555 657.5 554.5Q656 554 653 558Q650 560 650.5 562Q651 564 654 571Q659 584 658 586.5Q657 589 647 587Q637 586 634.5 583.5Q632 581 637 577Q639 576 641 573Q643 570 643 568Q644 564 643.5 563.5Q643 563 641 564Q639 565 636 566Q633 567 630 568Q628 569 625.5 571Q623 573 623 575Q622 577 620 580Q618 583 616 585Q612 588 611.5 590Q611 592 613 597Q614 600 614.5 602.5Q615 605 614 606Q612 607 597.5 599.5Q583 592 583 590Q583 589 581.5 590Q580 591 578 594Q576 596 575 599Q574 602 575 604Q575 606 575 607.5Q575 609 574 610Q571 612 563 605.5Q555 599 553 593Q550 587 548 586.5Q546 586 546 591Q547 597 543 608Q539 619 534 629Q529 639 527 639Q525 639 527 629Q528 626 528 622Q528 618 527 614Q526 610 524.5 608.5Q523 607 520 608Q517 609 515.5 607.5Q514 606 513 600Q513 596 512 593.5Q511 591 510 591Q509 591 509 592Q509 593 510 596Q512 599 511.5 600.5Q511 602 507 605Q502 609 499 608.5Q496 608 492 603Q486 598 483.5 598Q481 598 477 604Q473 611 469 611Q465 611 461 603Q460 600 457.5 597Q455 594 454 594Q450 592 445 583.5Q440 575 441 570Q441 567 441 566.5Q441 566 439 568Q438 569 437.5 571Q437 573 437 575Q437 578 430 585.5Q423 593 420 593Q420 593 416 596Q412 599 407 604Q402 608 398.5 610.5Q395 613 394 613Q394 612 395 607.5Q396 603 399 597Q402 588 403.5 581.5Q405 575 405 565Q405 553 404 550.5Q403 548 399 546Q395 544 391.5 544Q388 544 379 547Q374 548 369.5 549Q365 550 365 549Q364 548 365.5 545Q367 542 369 537Q373 531 373.5 528.5Q374 526 371 524Q370 523 369.5 521.5Q369 520 369 518Q370 517 369.5 515Q369 513 368 511Q368 510 367 507.5Q366 505 365 503Q364 501 361.5 500Q359 499 351 499Q344 499 341.5 498.5Q339 498 339 496Q339 495 340 493Q341 491 343 490Q344 490 346.5 486Q349 482 351 477Q354 470 354 468Q354 466 351 464Q343 459 341 456Q339 453 341 449Q343 446 342 444Q341 442 337 438Q334 436 331.5 432.5Q329 429 328 427Q326 425 324 423.5Q322 422 320 422Q318 422 315.5 421Q313 420 311 420Q310 418 311.5 417Q313 416 318 415Q327 412 335 405Q343 398 343 393Q343 391 341.5 387Q340 383 337 380Q332 372 332.5 369Q333 366 340 363Q346 361 350 356Q354 351 353 347Q353 345 354 343Q355 341 358 339Q360 337 362 335Q364 333 364 331Q364 329 366 327Q368 325 372 324Q375 322 378 319.5Q381 317 382 315Q383 313 386.5 309.5Q390 306 393 304Q396 302 399.5 297.5Q403 293 404 290Q407 285 409 283Q411 281 415 280Q422 279 427 275Q432 271 435 265Q437 258 439 258Q441 258 446 263Q449 266 451.5 267Q454 268 457 267Q462 266 466.5 262.5Q471 259 471 256Q471 255 472 253Q473 251 474 250Q476 247 477.5 247Q479 247 483 248Q487 250 489 250Q491 250 495 247Q499 245 501 244.5Q503 244 507 246Q513 249 517 248Q521 247 524 243Q526 240 528.5 238.5Q531 237 534 237Q537 237 539 235Q541 233 543 229Q545 226 546 223.5Q547 221 548 221Q548 221 550.5 223Q553 225 556 229Q563 236 566 236.5Q569 237 571 232Q572 229 573.5 230Q575 231 579 239Q583 245 586 247Q589 249 592 249Q603 247 605 248Q607 249 608 254Q608 260 610.5 262Q613 264 616 262Q618 260 618 257Q618 254 618 249Q617 241 618.5 234Q620 227 629 195Q639 164 648.5 145.5Q658 127 682 95L682 95ZM515 303Q514 305 512 306.5Q510 308 508 308Q506 308 503.5 309Q501 310 500 312Q496 316 493.5 315Q491 314 493 310Q493 308 493 306.5Q493 305 491 305Q490 305 488.5 307.5Q487 310 486 313Q483 320 480 321Q477 322 479 315Q480 310 479.5 309Q479 308 476 308Q474 308 473 310Q472 312 472 313Q472 315 471 316.5Q470 318 469 318Q467 318 466.5 316.5Q466 315 466 313Q466 308 464 307.5Q462 307 460 312Q458 319 455.5 322.5Q453 326 451 326Q445 326 442 330Q439 334 439 340Q439 346 437.5 348Q436 350 433 346Q431 342 429.5 344.5Q428 347 429 353Q429 357 429 359.5Q429 362 428 362Q427 362 426 361.5Q425 361 425 360Q425 359 424.5 358.5Q424 358 423 358Q422 358 421.5 359.5Q421 361 421 364Q421 366 420 367.5Q419 369 417 369Q413 369 412.5 373Q412 377 415 380Q418 382 418 383Q418 384 416 386Q414 387 412.5 390Q411 393 410 396Q410 400 410.5 402.5Q411 405 415 409Q420 415 420.5 416.5Q421 418 417 421Q414 423 414 424Q414 425 417 428Q420 431 420 432.5Q420 434 419 436Q417 438 418 440Q419 442 423 447Q426 450 427.5 452.5Q429 455 429 456Q427 459 432.5 470Q438 481 440 480Q441 480 442 477Q443 474 444 471L445 462L448 468Q449 471 449.5 474Q450 477 449 479Q449 481 449.5 482.5Q450 484 451 485Q453 485 453.5 487Q454 489 453 491Q453 494 453.5 495.5Q454 497 455 497Q456 497 456.5 498.5Q457 500 456 503Q455 506 455.5 507Q456 508 458 508Q460 508 461 507.5Q462 507 463 506Q463 506 466.5 506Q470 506 474 508Q478 509 481 509.5Q484 510 485 509Q488 506 494 511Q500 516 499 520Q499 522 500 523.5Q501 525 504 526Q510 529 512 529Q514 529 514 525Q514 523 517.5 519Q521 515 524 515Q525 515 525 516.5Q525 518 525 520Q523 525 526 524.5Q529 524 534 519L540 514L539 520Q537 526 539.5 526.5Q542 527 552 522Q556 520 560 519Q564 518 564 519Q567 520 570 515.5Q573 511 572 507Q571 505 572 504.5Q573 504 576 505Q579 505 580.5 504.5Q582 504 582 501Q583 500 584 498.5Q585 497 586 497Q588 497 602.5 484.5Q617 472 628 461Q636 453 637 449Q638 445 633 445Q630 445 629 442Q628 439 628 432Q628 430 627 426.5Q626 423 625 420Q624 418 623 415Q622 412 622 411Q622 410 621 409Q620 408 618 408Q615 408 615 406Q615 404 617 402Q621 398 618 396Q615 394 610 397Q607 398 606.5 398Q606 398 606 396Q606 394 607.5 393Q609 392 611 392Q614 392 615.5 391.5Q617 391 617 390Q617 389 616 388.5Q615 388 614 388Q612 388 606.5 381.5Q601 375 601 371Q601 370 600 370Q599 370 597 370Q592 372 589.5 370.5Q587 369 589 366Q592 363 590 357Q588 351 585 349Q582 347 582 345.5Q582 344 586 339Q592 332 592 329Q592 326 586 322Q583 320 581 320Q579 320 578 321Q576 323 576.5 323.5Q577 324 580 325Q584 326 585 330.5Q586 335 582 335Q581 335 579.5 335.5Q578 336 578 337Q578 338 575.5 339Q573 340 570 340L563 342L570 337Q572 335 574 333Q576 331 576 329Q576 326 570 327.5Q564 329 560 333Q556 336 553 337Q550 338 552 335Q552 335 551.5 330.5Q551 326 550 321Q548 312 546.5 309.5Q545 307 540 306Q537 306 534.5 305Q532 304 531 303Q531 302 529.5 302Q528 302 526 302Q524 303 522.5 302.5Q521 302 521 301Q521 298 519 298.5Q517 299 515 303L515 303Z" fill="#f4bf75" />
  </g>
</svg>