<?xml version="1.0" encoding="UTF-8"?>
<svg width="16" height="16" viewBox="0 0 16 16" xmlns="http://www.w3.org/2000/svg">
  <g transform="translate(0.031689453125000246, 14.977824218750001) scale(0.015585937499999999, -0.015585937499999999)">
    <path d="M561 459Q550 461 549.5 466Q549 471 546 471Q542 471 538 463.5Q534 456 529 451Q524 445 517.5 447Q511 449 511 461Q511 473 509.5 473Q508 473 508 473Q505 469 494 450Q483 431 475 433Q469 435 464.5 436.5Q460 438 459 442Q459 442 448.5 434Q438 426 428 419Q419 412 412 412.5Q405 413 405 413Q405 420 408 431Q411 442 405 438Q389 429 367 415.5Q345 402 347 414Q351 434 351.5 442Q352 450 352 450Q334 437 311.5 432Q289 427 284 427Q279 426 274 433.5Q269 441 290 456Q311 471 312.5 476Q314 481 313 485Q313 490 297.5 485Q282 480 267 479Q263 479 244 481.5Q225 484 246 493Q267 501 287.5 518.5Q308 536 308 536Q275 515 244 517Q213 519 203 525Q193 530 198 532.5Q203 535 203 535Q266 545 276.5 554.5Q287 564 287 564Q212 547 186.5 553Q161 559 148 569Q134 579 140.5 581.5Q147 584 147 584Q228 583 259.5 595Q291 607 291 607L284 609Q228 595 175 599Q122 603 107 615Q93 626 103.5 630Q114 634 114 634Q208 625 254.5 636.5Q301 648 301 648Q301 648 241.5 648.5Q182 649 143 652Q104 654 77.5 670Q51 686 47 695Q43 703 52 702.5Q61 702 61 702Q85 697 103.5 692.5Q122 688 139 685Q226 674 254.5 682Q283 690 283 690Q283 690 277.5 690Q272 690 252 688Q231 685 226 691.5Q221 698 221 698Q185 695 160.5 701Q136 707 81 726Q24 746 12 759Q0 772 0 776Q0 780 13 779.5Q26 779 26 779Q54 766 95 756Q137 746 177.5 739Q218 732 251 730Q283 727 293 730Q313 736 302 737Q291 738 291 738Q291 738 248.5 742Q206 746 151 759Q101 771 62.5 787Q24 803 7 819Q-8 833 7 834.5Q22 836 35 835Q41 834 71 824Q101 815 143.5 803Q186 791 236 781Q285 771 332 769Q349 767 352.5 768Q356 769 356 769Q339 773 313.5 776.5Q288 780 275 789Q263 798 264 807Q265 816 273 811Q292 796 330 789Q368 782 368 782Q424 778 454 782Q484 786 524 765Q555 747 553 727Q551 707 547 687Q539 636 548.5 608Q558 580 576 560Q596 537 616.5 530Q637 523 637 523Q650 520 650 512.5Q650 505 643 501Q643 501 607.5 479.5Q572 458 561 459ZM526 679Q526 679 530.5 701Q535 723 516 741Q500 758 480 758Q460 758 460 758Q458 757 458 755Q458 753 461 753Q461 753 478 749.5Q495 746 507 732Q518 718 521 702.5Q524 687 524 683Q524 678 525 678.5Q526 679 526 679ZM773 583Q805 604 862 606.5Q919 609 919 609Q865 643 817 659Q770 676 727.5 682.5Q685 689 648 689Q610 688 576 689Q585 689 612 678Q640 667 671.5 651Q703 635 732 617Q761 599 773 583ZM642 289Q642 289 623.5 303Q605 317 591 337Q585 347 583.5 359.5Q582 372 582 378Q581 399 593 405.5Q605 412 614 411Q625 409 635.5 401.5Q646 394 646 394Q640 421 659 431.5Q678 442 758 440Q771 440 784 440Q797 440 817 427L876 389L959 408Q958 383 966.5 347Q975 311 975 311Q976 307 977 303Q978 299 969 296Q966 295 961.5 294Q957 293 953 292Q947 291 943.5 287Q940 283 939 278L934 247L893 247L893 235Q896 232 905.5 229.5Q915 227 921 227Q930 229 930.5 220Q931 211 928 210Q925 209 920.5 209Q916 209 913 206Q912 205 910 202.5Q908 200 908 197Q908 192 910.5 187Q913 182 914 179Q920 166 923.5 150Q927 134 915 128Q908 125 890 126.5Q872 128 855 130Q793 138 746.5 176Q700 214 699 217Q697 219 692.5 224.5Q688 230 688 230Q698 150 733.5 131Q769 112 784 107Q773 89 770.5 74.5Q768 60 768 60Q777 72 791.5 79.5Q806 87 836 97Q843 100 849 100.5Q855 101 861 101Q911 101 923 116Q935 131 939 139Q942 146 940 164.5Q938 183 935 189Q932 194 939.5 201Q947 208 947 208Q947 208 947 218Q947 228 947 230Q947 232 949.5 234.5Q952 237 955 240Q957 243 956 259Q955 275 955 275Q955 275 976.5 275Q998 275 996 289Q995 303 987 321.5Q979 340 976 351Q974 362 979.5 397Q985 432 985 432Q1020 454 1021.5 522Q1023 590 1023 590Q964 584 914 574Q864 564 824.5 552.5Q785 541 755 529Q725 518 706 510Q666 494 631.5 469.5Q597 445 541 404Q464 349 410 302.5Q356 256 356 256Q356 256 342.5 237.5Q329 219 337 202Q344 185 351.5 182Q359 179 359 179Q359 179 380 204Q400 229 430 260.5Q460 292 496 321Q531 351 562 359Q590 308 607.5 300.5Q625 293 642 289Z" fill="#75b5aa" />
  </g>
</svg>