<?xml version="1.0" encoding="UTF-8"?>
<svg width="16" height="16" viewBox="0 0 16 16" xmlns="http://www.w3.org/2000/svg">
  <g transform="translate(1.9370019531250007, 15.411874262971697) scale(0.016542968749999998, -0.016542968749999998)">
    <path d="M733 160Q691 141 678.5 100Q666 59 619 0Q574 -56 502.5 -63Q431 -70 357 -24Q335 -10 289 11.5Q243 33 216 85Q203 109 193 148Q183 186 177.5 229Q172 272 173 314Q173 356 182 388Q190 419 214 444.5Q238 470 271 486Q302 502 317.5 520.5Q333 539 299 595Q299 595 280 582.5Q261 570 257 556Q251 536 202.5 497.5Q154 459 149 451Q132 426 111 415.5Q90 405 78 398Q76 409 93 421Q110 433 97 436Q85 439 59 428.5Q33 418 30 426Q29 429 42 434Q55 439 58 444Q45 447 38 452Q31 457 31 457Q31 457 71 459.5Q111 462 133 459Q143 474 157.5 499.5Q172 525 200 552Q200 552 176 549Q152 546 147 543Q141 540 139.5 527Q138 514 135 513Q131 512 131.5 532Q132 552 85 540Q85 540 73.5 523Q62 506 60 475Q60 475 53.5 483Q47 491 42 504Q40 511 29.5 505Q19 499 14 503Q26 511 30 525Q34 539 32 556Q21 554 13 556.5Q5 559 0 566Q23 563 42.5 592.5Q62 622 79 672L49 654Q59 714 96 725.5Q133 737 164 787Q154 790 145.5 788.5Q137 787 130 780Q144 809 169 804Q194 799 219 877Q224 893 234.5 903Q245 913 260 926Q271 936 281.5 945Q292 954 311 959Q326 963 370 951Q414 939 434 904Q452 872 444.5 817.5Q437 763 410 742Q410 742 408.5 736Q407 730 415 724Q423 717 436.5 698.5Q450 680 467 637Q474 615 509 606Q544 597 585 561Q585 574 591.5 585.5Q598 597 605 607Q614 620 623 628.5Q632 637 638 637Q662 622 640.5 598.5Q619 575 619 575Q623 574 628.5 573.5Q634 573 641 574Q634 557 614.5 547Q595 537 586 537Q563 537 517.5 554Q472 571 438 589Q429 580 420 559.5Q411 539 400 516Q390 467 408.5 400.5Q427 334 313 248Q299 237 289.5 199Q280 161 281 135Q282 91 304 59Q326 27 365 4Q400 16 415 51Q429 86 451 127Q473 168 518 206Q562 244 657 260Q618 221 604.5 186Q591 151 570 108Q615 117 626.5 133Q638 149 733 160Z" fill="#6a9fb5" />
  </g>
</svg>