<?xml version="1.0" encoding="UTF-8"?>
<svg width="16" height="16" viewBox="0 0 16 16" xmlns="http://www.w3.org/2000/svg">
  <g transform="translate(0.5099999999999998, 14.549686414930555) scale(0.01462890625, -0.01462890625)">
    <path d="M639 175Q682 183 737.5 182Q793 181 821 214Q833 228 834 267Q834 306 828 354Q822 402 811 451Q799 501 787 539Q776 575 757.5 588Q739 601 724 598Q687 583 674 516.5Q661 450 636 388Q619 344 583 326Q547 308 485 307Q407 305 382 348Q357 391 350 444Q343 497 336 544Q328 590 285 597Q269 600 249 568Q229 535 213.5 485Q198 435 191 377Q184 319 192 270Q198 240 227.5 211Q257 182 297 177Q311 176 354 174Q397 172 399 119Q399 119 401.5 89.5Q404 60 374 45Q352 34 316 29Q280 25 240.5 25.5Q201 26 164 30Q126 35 101 41Q72 48 34 107.5Q-4 167 0 260Q5 351 23 440Q40 529 59 599Q78 669 93 712Q107 755 107 755Q122 789 145 829.5Q168 870 279 870Q316 870 368 862.5Q420 855 435 812Q447 779 448 741Q448 702 449.5 667.5Q451 633 459 609Q466 584 492 580Q537 580 541 625Q546 670 553.5 724Q561 778 593 823Q626 868 727 868Q766 868 814.5 860Q863 852 889 798Q928 718 959 617Q990 517 1007 419Q1024 321 1024 238Q1024 155 1000 110Q984 79 952 59Q920 39 880 36Q786 31 717 33Q648 35 648 35Q597 60 598.5 111.5Q600 163 639 175Z" fill="#90a959" />
  </g>
</svg>