<?xml version="1.0" encoding="UTF-8"?>
<svg width="16" height="16" viewBox="0 0 16 16" xmlns="http://www.w3.org/2000/svg">
  <g transform="translate(0.504680397727272, 14.541881264740567) scale(0.01462890625, -0.01462890625)">
    <path d="M0 950L877 21Q877 21 895 13.5Q913 6 930 25Q947 43 941 58.5Q935 74 935 74L0 950ZM278 862L945 142Q945 142 963 134.5Q981 127 998 146Q1015 164 1009 179.5Q1003 195 1003 195L278 862ZM83 674L750 -46Q750 -46 768 -53.5Q786 -61 803 -42Q820 -24 814 -8.5Q808 7 808 7L83 674ZM512 787L979 284Q979 284 991.5 278.5Q1004 273 1016 286Q1028 299 1023.5 310Q1019 321 1019 321L512 787ZM147 457L613 -46Q613 -46 625.5 -51.5Q638 -57 650 -44Q662 -31 658 -20.5Q654 -10 654 -10L147 457ZM752 678L964 449Q964 449 970 446.5Q976 444 982 450Q988 456 986 461Q984 466 984 466L752 678ZM264 225L475 -4Q475 -4 481 -6.5Q487 -9 493 -3Q499 3 497 8Q495 13 495 13L264 225Z" fill="#a35f27" />
  </g>
</svg>