<?xml version="1.0" encoding="UTF-8"?>
<svg width="16" height="16" viewBox="0 0 16 16" xmlns="http://www.w3.org/2000/svg">
  <g transform="translate(0.021113281250001028, 14.99115061884341) scale(0.015585937499999999, -0.015585937499999999)">
    <path d="M1024 620Q949 602 886 599.5Q823 597 769 605Q735 563 712 521Q689 479 672 438Q745 458 815 485.5Q885 513 944 548Q912 525 878 505Q844 484 808 467Q772 450 735 436Q698 422 661 410Q630 328 596 261Q562 194 506 151Q550 166 609 196Q667 227 735 281.5Q803 336 876 418Q950 501 1024 620ZM497 181Q557 233 584 301Q612 370 644 447Q676 524 732 605Q788 686 903 762Q712 800 572 792Q432 784 338 756.5Q244 729 193 696Q142 664 127 653Q49 596 23 528Q-4 460 0.5 405Q5 350 30 321Q55 292 79 314Q119 348 171 403Q222 458 290.5 516.5Q359 575 448 628Q537 681 652 711Q548 683 460 625Q372 567 304 504Q236 441 191 384Q146 328 126 303Q92 250 119 200Q145 150 205.5 123.5Q266 97 345 106Q425 115 497 181Z" fill="#90a959" />
  </g>
</svg>