<?xml version="1.0" encoding="UTF-8"?>
<svg width="16" height="16" viewBox="0 0 16 16" xmlns="http://www.w3.org/2000/svg">
  <g transform="translate(0.5099999999999998, 14.55375) scale(0.01462890625, -0.01462890625)">
    <path d="M896 960L128 960Q75 960 37.5 922.5Q0 885 0 832L0 64Q0 11 37.5 -26.5Q75 -64 128 -64L896 -64Q949 -64 986.5 -26.5Q1024 11 1024 64L1024 832Q1024 885 986.5 922.5Q949 960 896 960ZM896 -8L128 -8Q98 -8 77 13Q56 34 56 64L56 832Q56 862 77 883Q98 904 128 904L546 904L546 763Q546 743 567 718Q588 693 622 695L968 695L968 64Q968 34 947 13Q926 -8 896 -8ZM502 174L137 174L332 601L149 601L149 701L487 701L289 274L502 274L502 174ZM641 414Q645 375 646 338Q647 301 646 258Q645 237 644.5 215.5Q644 194 644 174L544 174L544 412Q543 429 540.5 443Q538 457 535 466Q527 493 509.5 509Q492 525 478 539L562 588Q571 578 582 567.5Q593 557 611 528Q646 558 696 581Q746 604 795 584Q820 574 838 559.5Q856 545 867 521Q877 500 879 485.5Q881 471 881 433L881 174L781 174L782 439Q775 495 727 489.5Q679 484 641 414Z" fill="#46788d" />
  </g>
</svg>