<?xml version="1.0" encoding="UTF-8"?>
<svg width="16" height="16" viewBox="0 0 16 16" xmlns="http://www.w3.org/2000/svg">
  <g transform="translate(3.2854047379032263, 14.983535003662109) scale(0.015585937499999999, -0.015585937499999999)">
    <path d="M568 842Q599 884 579.5 897.5Q560 911 521 914Q521 914 504.5 937Q488 960 449 960Q410 960 394 940.5Q378 921 378 921Q370 897 347 891.5Q324 886 324 878Q324 853 300 842.5Q276 832 268 831Q188 827 214 819Q240 811 232 805Q220 796 206 791.5Q192 787 192 785Q191 778 206.5 778Q222 778 227 771Q232 764 227.5 744Q223 724 233 710Q237 720 250 727Q263 734 263 734Q273 735 273.5 718.5Q274 702 283 696Q305 698 333 732.5Q361 767 407 785Q410 794 412 803.5Q414 813 414 822Q409 826 397.5 821.5Q386 817 381 821Q374 824 375 867Q376 910 384 913Q384 913 395.5 912.5Q407 912 409 895Q411 878 412 874.5Q413 871 423 852Q436 826 474.5 799.5Q513 773 521 748Q529 719 470.5 739Q412 759 401 770Q365 728 334 705.5Q303 683 309 667Q311 660 317 647.5Q323 635 328 621Q326 617 324.5 614.5Q323 612 322 609Q308 587 290.5 590.5Q273 594 265 574Q258 556 243.5 516Q229 476 243 459Q266 432 257 428Q248 424 246 415Q240 389 193 386Q146 383 88 326Q75 313 70 283Q65 253 48 224Q8 156 1 123.5Q-6 91 28 69Q77 20 112.5 7.5Q148 -5 114 -56Q225 -59 304 -63.5Q383 -68 482 -24Q498 120 472 115.5Q446 111 455 298Q481 332 484 374Q488 417 481.5 457.5Q475 498 466 531Q456 565 458 581L533 730L573 707Q622 773 593.5 796Q565 819 568 842Z" fill="#ac4142" />
  </g>
</svg>