<?xml version="1.0" encoding="UTF-8"?>
<svg width="16" height="16" viewBox="0 0 16 16" xmlns="http://www.w3.org/2000/svg">
  <g transform="translate(0.020000000000000462, 14.981694126443895) scale(0.015585937499999999, -0.015585937499999999)">
    <path d="M79 502L79 954L281 954L281 876Q311 929 351.5 943Q392 957 435 953Q495 947 530.5 919.5Q566 892 594 832L594 889Q609 941 686.5 952.5Q764 964 826 925Q864 901 881.5 855Q899 809 900 753L900 504Q855 526 799.5 528Q744 530 696 511L696 715Q697 743 667 749.5Q637 756 599 747L599 502L396 502L396 715Q395 748 348 750Q301 752 279 737L279 502L79 502ZM244 474L0 474L0 299L244 299L244 474ZM644 474L274 474L274 -32L492 -32L492 260L644 260L644 474ZM244 267L0 267L0 -32L244 -32ZM744 157Q722 198 715 239Q708 280 708 280Q747 244 793 228Q840 212 884 218Q928 224 966 254Q1003 284 1024 340Q999 398 958 435Q918 473 869.5 489.5Q821 506 769 501Q717 497 670 471L670 234L529 234Q529 166 554.5 105Q580 44 628 3Q664 -28 709 -45Q754 -61 802 -59Q850 -57 896 -34Q943 -11 982 36Q982 36 959 47Q936 58 881 66Q815 75 789.5 96.5Q764 118 744 157ZM877 413Q900 428 928.5 377Q957 326 931 315Q908 304 884.5 353Q861 402 877 413ZM810 377Q833 392 861.5 341Q890 290 864 279Q841 267 817.5 316.5Q794 366 810 377Z" fill="#ac4142" />
  </g>
</svg>