<?xml version="1.0" encoding="UTF-8"?>
<svg width="16" height="16" viewBox="0 0 16 16" xmlns="http://www.w3.org/2000/svg">
  <g transform="translate(3.4650390625, 14.554393028846153) scale(0.01462890625, -0.01462890625)">
    <path d="M0 302Q0 302 19 347Q39 393 62.5 478.5Q86 564 105 686Q124 808 124 960Q124 960 171 950Q218 940 214 874Q199 631 247 534Q295 437 358.5 453.5Q422 470 477 584Q532 697 531 875Q531 875 542 918.5Q553 962 620 960L620 -64Q588 -64 572.5 -0.5Q557 63 548 156Q542 219 539 290Q536 360 534.5 428.5Q533 497 532 558Q531 619 531 664Q498 487 444 396Q390 305 332.5 307Q275 309 221 408Q168 506 137 708Q137 708 138 644Q139 580 128.5 503.5Q118 427 89 364Q60 300 0 302Z" fill="#6a9fb5" />
  </g>
</svg>