<?xml version="1.0" encoding="UTF-8"?>
<svg width="16" height="16" viewBox="0 0 16 16" xmlns="http://www.w3.org/2000/svg">
  <g transform="translate(1.0850390625000008, 15.411249999999999) scale(0.016542968749999998, -0.016542968749999998)">
    <path d="M318 121Q356 121 376.5 143Q397 165 397 205L397 270Q397 292 383.5 312Q370 332 350 339L350 469L467 469L467 495L560 495L560 371L434 -64L126 -64L0 371L0 495L91 495L91 469L278 469L278 339Q253 333 242 312Q231 291 231 270L231 198Q231 165 252.5 143Q274 121 318 121ZM316 146Q345 146 359.5 162Q374 178 374 210L374 262Q374 287 361 303Q348 319 330 319Q330 319 329 319Q328 319 326 319L326 516L736 516Q775 518 805.5 540.5Q836 563 836 607L836 786Q836 812 810 838Q784 864 748 866L652 866Q652 894 631 924.5Q610 955 573 960L276 960Q237 960 210.5 929.5Q184 899 184 848L184 618Q184 578 214.5 547Q245 516 302 516L302 319Q279 317 265.5 299Q252 281 252 254L252 209Q252 172 271.5 159Q291 146 316 146ZM564 796L275 796Q258 796 245.5 808Q233 820 233 838L233 872Q233 890 245.5 902Q258 914 275 914L564 914Q582 914 594 902Q606 890 606 872L606 842Q606 824 593 810Q580 796 564 796Z" fill="#d28445" />
  </g>
</svg>