<?xml version="1.0" encoding="UTF-8"?>
<svg width="16" height="16" viewBox="0 0 16 16" xmlns="http://www.w3.org/2000/svg">
  <g transform="translate(0.5099999999999998, 14.55375) scale(0.01462890625, -0.01462890625)">
    <path d="M579 661L125 661Q63 661 31 699Q0 736 0 780.5Q0 825 30 862Q61 899 121 899L573 899Q642 899 675 862Q709 825 708.5 780.5Q708 736 676 699Q643 662 579 661ZM889 559L437 559Q376 559 346 521Q315 484 315.5 439.5Q316 395 347 358Q378 321 441 321L895 321Q958 321 991 358Q1024 395 1024 439.5Q1024 484 991 521Q957 558 889 559ZM573 234L121 234Q61 234 30 196Q0 159 0 114.5Q0 70 31 33Q63 -4 125 -4L579 -4Q643 -4 676 33Q708 70 708.5 114.5Q709 159 675 196Q642 233 573 234ZM240 439Q240 509 180 543.5Q120 578 60 543Q0 509 0 439.5Q0 370 60 336Q120 301 180 335.5Q240 370 240 440ZM1024 780Q1024 850 964 884.5Q904 919 844 884Q784 850 784 780.5Q784 711 844 677Q904 642 964 676.5Q1024 711 1024 780ZM1024 116Q1024 185 964 219.5Q904 254 844 219Q784 185 784 115.5Q784 46 844 12Q904 -23 964 11.5Q1024 46 1024 116Z" fill="#d28445" />
  </g>
</svg>