<?xml version="1.0" encoding="UTF-8"?>
<svg width="16" height="16" viewBox="0 0 16 16" xmlns="http://www.w3.org/2000/svg">
  <g transform="translate(3.71, 15.149999999999999) scale(0.011171875, -0.011171875)">
    <path d="M440.5 71.5Q440.5 71.5 452.25 83.25Q464 95 464 128Q464 161 440.5 184.5Q417 208 384 208Q351 208 327.5 184.5Q304 161 304 128Q304 95 327.5 71.5Q351 48 384 48Q417 48 440.5 71.5ZM672 288L672 992Q672 1005 662.5 1014.5Q653 1024 640 1024L128 1024Q115 1024 105.5 1014.5Q96 1005 96 992L96 288Q96 275 105.5 265.5Q115 256 128 256L640 256Q653 256 662.5 265.5Q672 275 672 288ZM464 1120Q480 1120 480 1136Q480 1152 464 1152L304 1152Q288 1152 288 1136Q288 1120 304 1120L464 1120ZM768 1152L768 128Q768 76 730 38Q692 0 640 0L128 0Q76 0 38 38Q0 76 0 128L0 1152Q0 1204 38 1242Q76 1280 128 1280L640 1280Q692 1280 730 1242Q768 1204 768 1152Z" fill="#46788d" />
  </g>
</svg>