<?xml version="1.0" encoding="UTF-8"?>
<svg width="16" height="16" viewBox="0 0 16 16" xmlns="http://www.w3.org/2000/svg">
  <g transform="translate(2.8799511718750006, 15.411249999999999) scale(0.016542968749999998, -0.016542968749999998)">
    <path d="M366 653Q426 697 428 739Q431 781 412.5 819.5Q394 858 374 894Q353 929 366 960Q256 849 313 794.5Q370 740 366 653ZM247 644Q328 705 275.5 759.5Q223 814 247 850Q175 772 210.5 742.5Q246 713 247 644ZM619 564Q619 575 611 584.5Q603 594 589 594L30 594Q19 594 9.5 585.5Q0 577 0 564Q0 526 5 449Q9 371 26 280Q43 189 75 99Q108 9 164 -55Q168 -60 173 -62Q178 -64 185 -64L435 -64Q441 -64 446 -62Q451 -60 455 -55Q511 7 544 97Q576 187 593 278Q610 369 615 447Q619 525 619 564ZM399 22L223 22Q217 22 212 24.5Q207 27 202 31Q164 76 142 139Q120 201 108 265Q96 329 91 385Q87 441 86 472Q86 483 94.5 492.5Q103 502 116 502L509 502Q520 502 529.5 493.5Q539 485 539 472Q539 441 535 385Q531 329 518.5 266Q506 203 484 140Q461 77 423 31Q416 27 411 24.5Q406 22 399 22ZM491 299Q482 239 462.5 175.5Q443 112 405 67Q400 63 395.5 60.5Q391 58 387 58L238 58Q234 58 228.5 60.5Q223 63 220 67Q193 100 175 143.5Q157 187 146 234Q204 226 260 226Q317 225 364.5 232.5Q412 240 445 257Q479 273 491 299Z" fill="#ac4142" />
  </g>
</svg>