<?xml version="1.0" encoding="UTF-8"?>
<svg width="16" height="16" viewBox="0 0 16 16" xmlns="http://www.w3.org/2000/svg">
  <g transform="translate(-0.46999999999999886, 15.492915162991752) scale(0.016542968749999998, -0.016542968749999998)">
    <path d="M799 630Q790 697 729 700.5Q668 704 569 621Q564 694 515 700Q466 706 407 671Q375 651 342.5 621.5Q310 592 273 554Q254 536 226 505Q197 474 161.5 435Q126 396 85 350Q44 304 0 254Q18 243 32.5 228Q47 213 57 194L342 543Q342 543 397 596.5Q452 650 492 634Q531 618 515.5 573.5Q500 529 492 511Q478 481 453 436Q429 390 404.5 347.5Q380 305 363 274Q345 243 345 243Q345 243 373 283Q401 323 442 378Q483 433 530 490Q577 548 615 582Q625 591 654 613Q683 635 710 637Q733 638 747 618Q761 598 746 559Q730 515 699.5 456Q669 397 626 332Q626 332 627.5 328Q629 324 644 345Q666 376 702 425Q739 474 779.5 521Q820 568 861 602Q902 637 933 639Q959 641 970.5 621Q982 601 978 574Q969 525 936.5 471.5Q904 418 904 418Q901 415 903 412.5Q905 410 907 411Q951 475 986.5 520Q1022 565 1024 617Q1024 617 994 687Q964 757 799 630ZM818 278Q791 294 791 325.5Q791 357 818 373Q846 389 873.5 373Q901 357 901 326Q901 294 873.5 278Q846 262 818 278Z" fill="#be2f31" />
  </g>
</svg>