<?xml version="1.0" encoding="UTF-8"?>
<svg width="16" height="16" viewBox="0 0 16 16" xmlns="http://www.w3.org/2000/svg">
  <g transform="translate(0.43177598741319545, 14.585057458162568) scale(0.01462890625, -0.01462890625)">
    <path d="M256 5Q233 20 302 165Q370 309 466 474.5Q562 640 654 771Q745 903 767 891Q790 878 721 733Q653 588 557 422Q461 256 370 124Q279 -8 256 5ZM340 547Q384 625 447 694Q509 763 571 812Q633 861 687 884Q740 906 767 891Q709 922 640 911Q571 899 503 857Q435 815 373 750Q310 685 265 610Q215 526 188 431Q161 336 159 250.5Q157 165 181 99Q205 32 256 5Q230 25 225 86Q219 147 231.5 226.5Q244 306 272 392Q300 477 340 547ZM767 891Q798 857 802 790Q805 723 789.5 643Q774 563 743 481Q712 398 673 335Q636 273 579 209Q523 144 463 95Q403 46 347 19Q292 -7 256 5Q302 -25 369 -14Q437 -2 509.5 39.5Q582 81 650 148Q718 214 763 294Q805 367 834 455Q863 542 869 625.5Q875 709 852 780Q829 851 767 891ZM758 897Q533 1007 346 934Q160 861 69 701.5Q-22 542 11 344Q43 146 256 5Q80 114 68 301Q55 489 147 652Q239 815 406 902Q573 989 758 897ZM778 885Q855 838 899 765Q944 692 955.5 605Q967 518 947 424Q927 329 875 239Q830 162 763 96Q697 31 616.5 -6.5Q536 -44 444 -45Q352 -46 256 5Q348 -48 449 -59Q550 -71 645 -45.5Q740 -20 821 40Q902 101 955 193Q1007 281 1019 379Q1032 478 1009 572Q986 666 928 748Q869 830 778 885Z" fill="#6a9fb5" />
  </g>
</svg>