<?xml version="1.0" encoding="UTF-8"?>
<svg width="16" height="16" viewBox="0 0 16 16" xmlns="http://www.w3.org/2000/svg">
  <g transform="translate(0.020000000000000462, 14.9825) scale(0.015585937499999999, -0.015585937499999999)">
    <path d="M264 720L18 812L266 900L510 810L264 720ZM280 506Q319 519 358 518Q397 517 434 504L529 688L529 783L280 692L280 506ZM710 897L711 159L1024 292ZM464 491Q511 465 543.5 425.5Q576 386 582 328Q578 284 560.5 245Q543 206 512 175Q480 142 438.5 124Q397 106 353 106Q310 106 268 121Q226 136 194 164Q160 193 142.5 230.5Q125 268 124 309Q126 368 154.5 415Q183 462 247 493L247 692L0 785L0 457L134 395Q115 365 104 329.5Q93 294 93 255Q93 201 114 154Q134 107 169 72Q204 37 252 16Q299 -4 352 -4Q398 -4 439 11Q480 25 513 51.5Q546 78 570 113Q593 149 604 191L674 159L674 897L464 491Z" fill="#66783e" />
  </g>
</svg>