<?xml version="1.0" encoding="UTF-8"?>
<svg width="16" height="16" viewBox="0 0 16 16" xmlns="http://www.w3.org/2000/svg">
  <g transform="translate(0.020000000000000462, 14.984966129351267) scale(0.015585937499999999, -0.015585937499999999)">
    <path d="M510 549Q508 587 572.5 607Q637 627 662 596Q673 556 685 512Q697 469 707 425.5Q717 382 723 342Q729 302 726 271Q721 215 674.5 192.5Q628 170 572 219Q548 243 519 273Q490 304 459.5 333Q429 362 399 385Q369 409 343 420Q344 434 349 442.5Q354 451 362 453Q346 450 338.5 438.5Q331 427 331 408Q331 398 334.5 375Q338 352 344 315Q355 250 351.5 233Q348 216 330 200Q262 159 236 187.5Q210 216 194 277Q174 378 192 446Q210 515 255.5 541.5Q301 568 370 548Q438 528 518 452Q534 406 551 353Q568 300 575 262Q573 285 564 324Q554 364 543 406.5Q532 449 522 488Q512 527 510 549ZM556 612Q539 605 527 595Q515 585 507 573Q501 632 511 671Q521 710 547 730Q541 711 543 681.5Q545 652 556 612ZM663 675Q664 664 663 657.5Q662 651 659 650Q657 645 657 635.5Q657 626 659 612Q641 622 614 622Q587 622 566 615Q556 649 552.5 680Q549 711 558 730Q560 734 562.5 737.5Q565 741 569 742Q609 754 636.5 731.5Q664 709 663 675ZM668 645Q678 667 668.5 703Q659 739 618 751Q640 750 665.5 738Q691 726 719 703Q724 692 716 665.5Q708 639 686 618Q681 620 676.5 621.5Q672 623 668 624Q667 630 667 635Q667 640 668 645ZM670 607Q670 609 669.5 610.5Q669 612 669 614Q671 614 673 613Q675 612 677 611Q676 610 674 609Q672 608 670 607ZM714 516Q712 518 705 524Q698 530 686 541Q682 556 678 570Q674 584 672 597Q677 600 681 602.5Q685 605 687 607Q703 600 722.5 588Q742 576 766 558Q749 542 734.5 530.5Q720 519 714 516ZM730 694Q744 684 767.5 660.5Q791 637 816 611Q808 600 797 588Q786 576 773 564Q750 581 730.5 594Q711 607 696 614Q713 632 722.5 654Q732 676 730 694ZM774 552Q787 542 797 533.5Q807 525 815 518Q812 510 802.5 499.5Q793 489 778 476Q769 478 755 486.5Q741 495 722 510Q732 515 747 528Q762 541 774 552ZM859 549Q855 544 845.5 537.5Q836 531 822 524Q813 532 802.5 540.5Q792 549 782 558Q793 570 803.5 581.5Q814 593 822 604Q836 589 848 573.5Q860 558 859 549ZM795 478Q807 489 814.5 498.5Q822 508 825 515Q831 517 838 521Q845 525 854 531Q848 514 829.5 499Q811 484 795 478ZM255 5Q128 79 64 199Q0 319 0 448Q0 577 64 697Q128 817 255 891Q383 965 519 960Q655 955 767.5 890.5Q880 826 952 711Q1024 595 1024 448Q1024 301 952 185Q880 70 767.5 5.5Q655 -59 519 -64Q383 -69 255 5ZM972 448Q972 580 907 684Q842 787 741.5 845Q641 903 518 908Q396 912 282 846Q167 780 110 672Q52 564 52 448Q52 332 110 224Q167 116 282 50Q396 -16 518 -12Q641 -7 741.5 51Q842 109 907 212Q972 316 972 448Z" fill="#75b5aa" />
  </g>
</svg>