<?xml version="1.0" encoding="UTF-8"?>
<svg width="16" height="16" viewBox="0 0 16 16" xmlns="http://www.w3.org/2000/svg">
  <g transform="translate(-0.46999999999999886, 15.411249999999999) scale(0.016542968749999998, -0.016542968749999998)">
    <path d="M326 128Q323 128 322 126Q321 124 324 121Q370 75 416.5 28.5Q463 -18 509 -64Q554 -18 593.5 20.5Q633 59 679 105Q687 112 685.5 117Q684 122 680 119Q644 96 605.5 83.5Q567 71 550 68Q489 58 436.5 73Q384 88 329 127Q328 127 327 127.5Q326 128 326 128ZM732 737Q728 738 725.5 734.5Q723 731 727 730Q751 708 754.5 647Q758 586 731 539Q718 517 699 503Q680 489 659 478Q642 469 613 465Q584 461 587 456Q585 451 619 446Q653 441 673 431Q688 424 700.5 413.5Q713 403 724 389Q764 339 761 274Q758 209 721 157Q719 155 724 153Q729 151 732 154Q769 192 806 228Q842 265 878.5 301.5Q915 338 951 375Q987 411 1024 448Q988 484 952 520Q917 555 881 591Q845 627 809 663Q773 699 737 735Q736 736 734.5 736.5Q733 737 732 737ZM451 774Q433 775 416 767Q399 759 390 743Q432 729 442 682.5Q452 636 421 607Q398 585 366 584.5Q334 584 307 601Q295 608 287.5 619Q280 630 276 643Q269 666 275.5 687Q282 708 290 729Q291 731 288 732Q285 733 283 732Q280 729 236 685Q191 640 138.5 587Q86 534 43 491Q0 447 0 447Q0 447 31 417Q61 386 105.5 342Q150 298 199 248Q248 199 285 162Q288 172 280.5 181Q273 190 270 200Q267 209 264.5 218Q262 227 260 237Q259 247 260 256.5Q261 266 264 276Q276 313 312.5 325.5Q349 338 383 325Q419 311 430.5 273Q442 235 427 202Q419 185 403.5 175.5Q388 166 369 163Q390 126 435 122.5Q480 119 506 156Q511 164 514 172.5Q517 181 518 190Q518 193 518 222Q519 250 519 284Q519 318 518 349Q517 379 514 386Q501 425 468 429Q435 433 386 434Q379 434 379.5 441Q380 448 380 458Q380 470 380.5 473.5Q381 477 389 478Q425 479 472 480.5Q519 482 520 524Q520 575 519.5 624Q519 673 520 725Q520 744 505.5 755Q491 766 474 771Q468 773 462.5 773.5Q457 774 451 774ZM514 960Q514 960 495 941Q475 922 448 895Q421 868 391 838Q361 808 340 786Q336 782 332 778.5Q328 775 329 770Q330 765 334.5 766Q339 767 341 769Q381 797 424 810Q468 823 513 821.5Q558 820 603 807Q648 793 689 769Q693 767 697 770Q701 773 697 776Q673 801 641 833Q610 864 581.5 892.5Q553 921 533 940Q514 960 514 960Z" fill="#66783e" />
  </g>
</svg>