<?xml version="1.0" encoding="UTF-8"?>
<svg width="16" height="16" viewBox="0 0 16 16" xmlns="http://www.w3.org/2000/svg">
  <g transform="translate(-0.06584442138671828, 14.986001951241562) scale(0.015585937499999999, -0.015585937499999999)">
    <path d="M270 162Q276 143 284.5 124Q293 105 303 93Q252 37 191 30Q131 24 83 52Q35 80 11 134Q-12 189 10 254L128 645L270 162ZM165 746Q158 721 158.5 694Q159 667 167 642Q190 565 214 483Q238 401 259.5 329.5Q281 258 299 204Q316 151 324 131Q362 64 425 48Q487 32 541.5 56Q596 80 626 139Q656 198 628 280L483 751Q467 808 421 837Q376 867 324.5 867.5Q273 868 227 838Q181 808 165 746ZM297 645Q268 662 268 695.5Q268 729 297 745Q326 762 355 745Q384 728 384 695Q384 662 355 645Q326 628 297 645ZM700 149Q729 77 793 57Q857 36 916 58Q975 80 1008 138Q1041 197 1010 284L865 755Q842 828 781 853Q720 877 660.5 860.5Q601 844 563 791Q525 737 548 656L700 149ZM681 646Q652 662 652 695.5Q652 729 681 746Q710 762 739 745.5Q768 729 768 696Q768 663 739 646Q710 629 681 646Z" fill="#aa759f" />
  </g>
</svg>