<?xml version="1.0" encoding="UTF-8"?>
<svg width="16" height="16" viewBox="0 0 16 16" xmlns="http://www.w3.org/2000/svg">
  <g transform="translate(0.025862243225525904, 14.985032482078852) scale(0.015585937499999999, -0.015585937499999999)">
    <path d="M354 433L234 389Q201 442 137 448Q73 454 30 404Q-17 348 7.5 279Q32 210 104 197Q171 185 218 234.5Q265 284 251 349L366 400Q396 338 465 320Q534 302 591 346L688 254Q661 215 657 170Q653 124 669 83.5Q685 43 719 12Q753 -18 801 -29Q853 -40 899 -24Q945 -7 976 27.5Q1007 62 1019 109Q1031 156 1015 207Q1000 253 966 284Q933 315 891 326.5Q849 338 805 331Q761 323 724 293L621 376Q658 427 647.5 490Q637 553 585 588L637 712Q692 700 734.5 739.5Q777 779 767 838Q757 900 697 922Q637 944 589 904Q543 866 549.5 807.5Q556 749 607 722L547 607Q506 620 467 611Q429 602 401 577.5Q373 553 360 515Q346 478 354 433Z" fill="#6a9fb5" />
  </g>
</svg>