<?xml version="1.0" encoding="UTF-8"?>
<svg width="16" height="16" viewBox="0 0 16 16" xmlns="http://www.w3.org/2000/svg">
  <g transform="translate(0.5099999999999998, 14.556064700356012) scale(0.01462890625, -0.01462890625)">
    <path d="M484 835L484 476L291 476Q263 475 263 448Q263 421 290 420L540 420L540 835Q539 863 512 863Q485 863 484 835ZM290 65Q180 128 124 232Q69 336 69 448Q69 560 124 664Q180 768 290 831Q401 895 518 891Q636 887 733 831Q830 775 892 675Q955 575 955 448Q955 321 892 221Q830 121 733 65Q636 9 518 5Q401 1 290 65ZM1024 448Q1024 595 952 711Q880 826 767.5 890.5Q655 955 519 960Q383 965 255 891Q128 817 64 697Q0 577 0 448Q0 319 64 199Q128 79 255 5Q383 -69 519 -64Q655 -59 767.5 5.5Q880 70 952 185Q1024 301 1024 448Z" fill="#75b5aa" />
  </g>
</svg>