<?xml version="1.0" encoding="UTF-8"?>
<svg width="16" height="16" viewBox="0 0 16 16" xmlns="http://www.w3.org/2000/svg">
  <g transform="translate(-1.0303327682783028, 15.899290364583335) scale(0.017636718750000002, -0.017636718750000002)">
    <path d="M1024 436Q1023 483 987 512Q951 541 906 533Q903 532 900.5 531.5Q898 531 895 531Q883 554 869.5 577.5Q856 601 839 621Q817 645 791.5 668.5Q766 692 738 708Q713 723 686 732.5Q659 742 631 748Q606 754 579.5 753Q553 752 529 754Q515 755 500.5 755Q486 755 473 762Q463 768 461.5 775Q460 782 470 803Q453 791 444 781Q435 771 431 757Q430 752 426.5 766.5Q423 781 429 795Q415 788 408.5 774.5Q402 761 399 760Q394 760 391.5 773.5Q389 787 388 798Q377 787 374 770Q371 753 371 753Q368 752 362 770Q356 788 361 800Q346 790 346 770Q346 750 341 748Q335 745 329.5 765Q324 785 287 797L287 797Q301 778 303.5 768Q306 758 297 745Q295 742 293 739.5Q291 737 289 734Q271 712 249.5 693Q228 674 210 652Q192 631 175.5 609.5Q159 588 146 564Q142 555 138 547Q134 539 130 530Q128 531 124.5 531.5Q121 532 118 533Q73 541 37 512Q1 483 0 436Q-1 391 28.5 360.5Q58 330 104 333Q106 310 113 284.5Q120 259 130 238Q142 216 158 198Q174 180 194 164Q207 153 222.5 145Q238 137 253 131Q286 119 320.5 114Q355 109 389 104Q425 99 461.5 95.5Q498 92 535 93Q568 93 601 96.5Q634 100 667 106Q696 111 722.5 116.5Q749 122 775 134Q797 145 817 158.5Q837 172 854 189Q873 209 890 229Q907 249 918 274Q924 288 928 303Q932 318 934 333Q974 336 999.5 365Q1025 394 1024 436ZM112 473Q107 452 104 428.5Q101 405 101 383Q96 381 91 380.5Q86 380 82 382Q67 389 58.5 401Q50 413 53 432Q56 451 65.5 460.5Q75 470 91 474Q97 476 102.5 475.5Q108 475 112 473ZM843 326Q841 311 838 296Q835 281 828 267Q819 248 805 232.5Q791 217 775 204Q759 190 740.5 180.5Q722 171 703 164Q679 155 655.5 150Q632 145 607 141Q575 137 542 136Q509 135 477 137Q446 139 414.5 143Q383 147 353 156Q331 163 310 171.5Q289 180 270 194Q255 205 240.5 219Q226 233 217 250Q205 271 198 295Q191 319 190 343Q189 375 197 404Q205 433 217 463Q226 484 239.5 503Q253 522 269 538Q283 552 299.5 565.5Q316 579 335 587Q353 594 372.5 597.5Q392 601 412 600Q429 600 445 596Q461 592 477 585Q488 581 499.5 573.5Q511 566 519 561Q528 566 538.5 574.5Q549 583 561 588Q580 595 600.5 599Q621 603 641 603Q659 603 675.5 599.5Q692 596 708 589Q725 582 739 571.5Q753 561 766 548Q780 534 790.5 517.5Q801 501 810 483Q820 463 828.5 442Q837 421 841 399Q844 381 844.5 362.5Q845 344 843 326ZM948 382Q945 381 942 380.5Q939 380 936 381Q936 398 934 414.5Q932 431 928 446Q927 454 924.5 460.5Q922 467 920 474Q924 475 929 475.5Q934 476 939 474Q955 470 965 460.5Q975 451 978 432Q981 413 972 401Q963 389 948 382ZM386 403Q386 386 374.5 374Q363 362 346 362Q329 362 317.5 374Q306 386 306 403Q306 419 317.5 431Q329 443 346 443Q363 443 374.5 431Q386 419 386 403ZM733 403Q733 386 721.5 374Q710 362 693 362Q676 362 664 374Q652 386 652 403Q652 419 664 431Q676 443 693 443Q710 443 721.5 431Q733 419 733 403ZM502 329Q500 326 494.5 325.5Q489 325 483 328Q477 331 473.5 335.5Q470 340 472 343Q474 347 479.5 347Q485 347 491 345Q497 342 500.5 337.5Q504 333 502 329ZM538 329Q540 326 545.5 325.5Q551 325 558 328Q564 331 567 335.5Q570 340 569 343Q567 347 561.5 347Q556 347 550 345Q543 342 540 337.5Q537 333 538 329ZM419 268Q420 268 420.5 266Q421 264 421 263Q422 260 423.5 258Q425 256 427 255Q431 251 437 249.5Q443 248 449 247Q462 244 475.5 243.5Q489 243 502 243Q514 243 526 243.5Q538 244 549 245Q563 246 576.5 248.5Q590 251 603 255Q607 256 612.5 258.5Q618 261 618 266Q618 269 616.5 273.5Q615 278 621 274Q627 271 626.5 264.5Q626 258 623 253Q619 248 613.5 244.5Q608 241 602 238Q579 229 553.5 225.5Q528 222 503 223Q488 223 472.5 225Q457 227 442 232Q435 235 428.5 238.5Q422 242 418 248Q416 251 414.5 259.5Q413 268 419 268Z" fill="#8f5536" />
  </g>
</svg>