<?xml version="1.0" encoding="UTF-8"?>
<svg width="16" height="16" viewBox="0 0 16 16" xmlns="http://www.w3.org/2000/svg">
  <g transform="translate(0.668024088541666, 15.901250000000001) scale(0.017636718750000002, -0.017636718750000002)">
    <path d="M463 425Q475 431 486.5 424Q498 417 501 402Q502 393 495 377Q488 361 472 359Q462 359 454.5 365Q447 371 446 380Q444 389 451 405.5Q458 422 463 425ZM229 433Q233 432 242 424Q251 416 252 400Q253 383 258 381.5Q263 380 254 373Q238 364 220 368.5Q202 373 195 388Q192 394 194 406Q196 418 200 422Q204 427 214 430.5Q224 434 229 433ZM96 166Q83 164 50.5 152Q18 140 8 127Q-2 114 1 104.5Q4 95 21 98Q30 100 26 107.5Q22 115 32 115Q35 115 34.5 108Q34 101 39 99Q44 97 56 96.5Q68 96 68 102Q68 109 76.5 113Q85 117 91 115Q98 112 97 104.5Q96 97 103 97Q111 98 112.5 109Q114 120 121 120Q129 120 118.5 143.5Q108 167 96 166ZM629 172Q625 168 634 136.5Q643 105 630 95Q618 86 605 71.5Q592 57 598 53Q603 49 613 48Q623 47 632 56Q642 66 647.5 68Q653 70 658 65Q663 60 663 48Q663 36 679 37Q693 38 693.5 49Q694 60 699 63Q704 66 714.5 46Q725 26 737 26Q743 26 748.5 37Q754 48 749 53Q743 61 743 65Q743 69 747 69Q750 68 762.5 48Q775 28 782 26Q788 25 791 40Q794 55 788 59Q785 62 771.5 73.5Q758 85 765 83Q770 82 787.5 66.5Q805 51 812 50Q819 49 819.5 52.5Q820 56 812 67Q805 76 763.5 99.5Q722 123 707 131Q692 138 697 163Q702 188 702 188Q685 186 663 186.5Q641 187 629 172ZM300 168Q303 180 339.5 181.5Q376 183 387 170Q390 159 381 136Q372 113 369 110Q367 107 342.5 107Q318 107 316 109Q313 112 305 133.5Q297 155 300 168ZM108 533Q88 536 75 553Q62 570 55 586Q47 548 45.5 512Q44 476 44 455Q46 423 48.5 378.5Q51 334 59 304Q64 290 78 259Q92 228 108.5 194Q125 160 139 131Q154 103 159 93Q168 77 181.5 54.5Q195 32 205 23Q207 19 207 15.5Q207 12 203 6Q199 0 194.5 -6Q190 -12 193 -26Q196 -40 199.5 -43.5Q203 -47 208 -46Q214 -44 216.5 -40Q219 -36 219 -29Q218 -22 218.5 -12.5Q219 -3 221 -7Q223 -11 228 -17.5Q233 -24 234 -35Q235 -47 240.5 -55.5Q246 -64 257 -64Q267 -64 266 -57.5Q265 -51 264 -44Q262 -38 258 -27.5Q254 -17 255 -15Q257 -13 264 -22.5Q271 -32 276 -39Q281 -47 287 -53.5Q293 -60 303 -60Q312 -59 315.5 -55.5Q319 -52 315 -43Q320 -43 324 -40Q328 -37 332 -35Q343 -38 350.5 -32.5Q358 -27 353 -19Q360 -15 364 -8Q368 -1 373 5Q375 -3 372 -13Q369 -23 365 -33Q364 -37 361 -45.5Q358 -54 371 -54Q385 -54 389 -38Q393 -22 395 -19Q396 -15 399.5 -10Q403 -5 403 -5Q403 -5 408 -5.5Q413 -6 417 -12Q420 -17 418.5 -26Q417 -35 417 -38Q418 -40 424 -47Q430 -54 434 -51Q443 -44 443.5 -31Q444 -18 440 -10Q437 -4 427.5 4.5Q418 13 419 14Q432 6 439.5 -5Q447 -16 448 -25Q450 -31 456.5 -32Q463 -33 467 -31Q472 -30 468 -15Q464 0 462 7Q459 13 447.5 15Q436 17 432 17Q430 19 431.5 22.5Q433 26 441 30Q475 50 507 78.5Q539 107 563 135Q578 155 590 177Q602 199 612 218Q642 270 655.5 329Q669 388 678 436L698 433Q693 367 671 303.5Q649 240 621 191Q631 198 641 202.5Q651 207 659 208Q688 208 705 206Q722 204 732 218Q770 257 796 298.5Q822 340 824 389Q828 421 830 460.5Q832 500 825 523Q819 545 797 590.5Q775 636 754 670Q743 687 724 715Q706 742 684 771.5Q662 801 640 828Q618 856 599 872Q564 906 518.5 933Q473 960 424 960Q375 960 334.5 946Q294 932 269 912Q254 901 218.5 858Q183 815 148 767Q165 744 178 720Q191 696 210 673Q235 698 272.5 719Q310 740 342 741Q401 742 438 711Q475 680 497 641Q503 630 518.5 645.5Q534 661 540 673Q554 705 580.5 720Q607 735 636 721Q650 715 661.5 699.5Q673 684 676 662Q676 619 662 575.5Q648 532 609 509Q601 505 593.5 501.5Q586 498 578 495Q586 448 581.5 397.5Q577 347 569 306Q567 284 554 267.5Q541 251 529 237Q506 213 491 182Q476 151 460 126Q439 100 425 79Q411 58 385 45Q373 39 357 24.5Q341 10 328 1Q321 11 305.5 18Q290 25 280 43Q280 48 253 90.5Q226 133 209 160Q187 190 165 224Q143 258 128 288Q109 341 115 399.5Q121 458 132 511Q128 517 122 523.5Q116 530 108 533ZM80 721Q69 696 65.5 667.5Q62 639 69 613Q73 597 82.5 578.5Q92 560 108 554Q118 554 125 548.5Q132 543 137 537Q147 569 161.5 601Q176 633 196 657Q181 677 165 698Q149 719 141 743Q139 748 136 750Q133 752 128 753Q111 752 98 743.5Q85 735 80 721ZM342 720Q300 715 269.5 694.5Q239 674 213 644Q190 610 174 571.5Q158 533 151 500Q144 455 135.5 396.5Q127 338 147 297Q164 264 190.5 223.5Q217 183 240 153Q257 133 271.5 105Q286 77 310 70Q330 64 349.5 61.5Q369 59 384 69Q404 82 417.5 101.5Q431 121 442 137Q459 167 474.5 195Q490 223 513 250Q520 261 531 271Q542 281 545 293Q551 329 557 368Q563 407 562 439Q561 459 560.5 474.5Q560 490 551 514Q530 551 510 584.5Q490 618 465 648Q446 672 419 696.5Q392 721 342 720ZM559 665Q550 649 538 639.5Q526 630 509 624Q524 595 546.5 571Q569 547 577 517Q577 517 577 517Q577 517 577 517Q617 535 638 576Q659 617 655 659Q652 678 639.5 692Q627 706 609 707Q592 707 578 692Q564 677 559 665ZM285 -7Q291 -11 296.5 -16Q302 -21 308 -24L307 -30Q301 -23 295.5 -18.5Q290 -14 285 -7Z" fill="#825078" />
  </g>
</svg>