<?xml version="1.0" encoding="UTF-8"?>
<svg width="16" height="16" viewBox="0 0 16 16" xmlns="http://www.w3.org/2000/svg">
  <g transform="translate(1.451389266304349, 13.695961119186048) scale(0.00890625, -0.00890625)">
    <path d="M1262 233Q1208 224 1152 224Q970 224 815 314Q660 404 570 559Q480 714 480 896Q480 1088 584 1253Q383 1193 255.5 1024Q128 855 128 640Q128 510 179 391.5Q230 273 315.5 187.5Q401 102 519.5 51Q638 0 768 0Q912 0 1041.5 61.5Q1171 123 1262 233ZM1465 318Q1371 115 1181.5 -6.5Q992 -128 768 -128Q612 -128 470 -67Q328 -6 225 97Q122 200 61 342Q0 484 0 640Q0 793 57.5 932.5Q115 1072 213.5 1174Q312 1276 449 1338.5Q586 1401 739 1407Q783 1409 800 1368Q818 1327 785 1296Q699 1218 653.5 1114.5Q608 1011 608 896Q608 748 681 623Q754 498 879 425Q1004 352 1152 352Q1270 352 1380 403Q1421 421 1452 390Q1466 376 1469.5 356Q1473 336 1465 318Z" fill="#f4bf75" />
  </g>
</svg>