<?xml version="1.0" encoding="UTF-8"?>
<svg width="16" height="16" viewBox="0 0 16 16" xmlns="http://www.w3.org/2000/svg">
  <g transform="translate(1.2780175781249996, 14.556048828125) scale(0.01462890625, -0.01462890625)">
    <path d="M912 604L701 925Q694 937 668 950.5Q642 964 596 953Q561 964 519 957.5Q477 951 452 926L279 893Q240 902 204.5 895Q169 888 146 868L57 851Q31 846 15.5 830.5Q0 815 0 793L25 312Q25 307 26.5 301.5Q28 296 31 291L203 -30Q217 -54 246 -60Q275 -66 297 -62L832 65Q858 71 873 86.5Q888 102 888 122L919 581Q919 586 917 592Q915 598 912 604ZM506 922Q549 936 593 921.5Q637 907 637 878Q637 849 593 834.5Q549 820 506 835Q462 849 462 878Q462 907 506 922ZM753 700Q753 669 706.5 653.5Q660 638 614 653Q568 668 568 699.5Q568 731 614 746Q660 761 706.5 745.5Q753 730 753 700ZM195 860Q239 875 282.5 860Q326 845 326 816Q326 787 282.5 772.5Q239 758 195 772Q152 787 152 816Q152 845 195 860ZM439 642Q439 611 393 595.5Q347 580 300 595Q254 611 254 642Q254 673 300 688Q347 704 393 688.5Q439 673 439 642ZM703 344L687 131L479 117L512 225L620 190L592 302L696 308L615 375L592 302L512 225L439 209L479 117Q460 116 439 126.5Q418 137 421 173L425 254Q425 286 478 340.5Q531 395 577 398L641 399Q678 401 691 382Q704 363 703 344ZM857 553L290 441Q272 437 254 442Q236 447 230 458L35 786Q28 797 36.5 807Q45 817 64 821L122 832Q121 828 120.5 823.5Q120 819 120 815L120 761Q122 722 157.5 701Q193 680 235 679Q228 671 225 661Q222 651 222 641L222 583Q224 542 262 520Q300 499 345.5 498Q391 497 429 519Q467 540 469 584L469 642Q467 678 435.5 701Q404 724 348 727Q353 735 356 744Q359 753 359 763L359 817Q359 832 351 846Q343 860 329 871L432 891Q431 887 431 884Q431 881 431 877L431 823Q432 786 468 763.5Q504 741 552 742Q544 732 540 721Q536 710 536 698L536 641Q538 601 576 579Q614 557 659 556.5Q704 556 742 576Q780 597 781 642L781 699Q782 736 743.5 761.5Q705 787 652 784Q658 793 661.5 803.5Q665 814 665 824L665 879Q665 891 660 903Q655 915 646 925Q656 923 663.5 918.5Q671 914 675 908L886 587Q892 577 883.5 566.5Q875 556 857 553Z" fill="#ac4142" />
  </g>
</svg>