<?xml version="1.0" encoding="UTF-8"?>
<svg width="16" height="16" viewBox="0 0 16 16" xmlns="http://www.w3.org/2000/svg">
  <g transform="translate(0.5099999999999998, 14.55375) scale(0.01462890625, -0.01462890625)">
    <path d="M583 933L583 832L992 832Q1005 832 1014.5 822.5Q1024 813 1024 800L1024 104Q1024 91 1014.5 82Q1005 73 992 73L583 73L583 -37L0 66L0 830L583 933ZM390 509Q391 532 385 554Q379 576 363 591Q345 609 324.5 614Q304 619 251 616L193 613L193 287L252 287L252 400Q333 393 359.5 430Q386 467 390 509ZM322 509Q320 469 302 463.5Q284 458 252 459L252 557Q288 558 304.5 549.5Q321 541 322 509ZM945 509L835 394L719 509L806 509L806 660L583 660L583 365L672 452L803 320Q803 320 783 300Q763 281 738.5 257.5Q714 234 693 214Q673 194 671 194Q669 194 626 235Q583 276 583 276L583 106L990 106L990 798L583 798L583 714L860 714L860 509L945 509Z" fill="#90a959" />
  </g>
</svg>