<?xml version="1.0" encoding="UTF-8"?>
<svg width="16" height="16" viewBox="0 0 16 16" xmlns="http://www.w3.org/2000/svg">
  <g transform="translate(1.1244140624999996, 14.552287109375) scale(0.01462890625, -0.01462890625)">
    <path d="M457 426Q479 434 500.5 441Q522 448 544 454Q547 446 550 411.5Q553 377 552 366Q528 379 504.5 394.5Q481 410 457 426ZM438 421Q469 403 498 386.5Q527 370 552 358Q524 338 490.5 320Q457 302 420 287Q428 319 433 350Q438 381 438 421ZM334 379Q335 380 376.5 396Q418 412 418 412Q420 379 415 349.5Q410 320 400 288Q376 307 359.5 330Q343 353 334 379ZM240 222Q260 256 278.5 292.5Q297 329 311 368Q311 370 313.5 371Q316 372 317 372Q329 342 348 317.5Q367 293 389 274Q354 260 315.5 247Q277 234 240 222ZM286 359Q271 326 251.5 291Q232 256 209 220Q196 243 193.5 267Q191 291 197 317Q215 327 237.5 337.5Q260 348 286 359ZM553 348Q553 316 550.5 282.5Q548 249 542 214Q512 222 483 236.5Q454 251 425 270Q459 287 492.5 307Q526 327 553 348ZM169 303Q164 276 168 252Q172 228 186 205Q147 193 108 181.5Q69 170 30 159Q29 172 57.5 218Q86 264 169 303ZM353 130Q371 162 386 194.5Q401 227 411 259Q441 241 474 228.5Q507 216 541 207Q504 188 455.5 168.5Q407 149 353 130ZM386 251Q372 216 355 182.5Q338 149 319 117Q289 134 265.5 153.5Q242 173 224 196Q264 206 304.5 220Q345 234 386 251ZM499 56Q457 64 418 75.5Q379 87 344 104Q358 111 426 141.5Q494 172 539 197Q533 166 522.5 130.5Q512 95 499 56ZM186 185Q158 145 131 107.5Q104 70 93 52Q64 76 48 100.5Q32 125 29 149Q66 157 105 166.5Q144 176 186 185ZM107 42L101 46Q123 78 150 111Q177 144 205 178Q232 145 258 129Q284 113 291 107Q246 91 199.5 74.5Q153 58 107 42ZM255 -22Q254 -22 251.5 -21.5Q249 -21 249 -20Q272 9 292.5 36.5Q313 64 329 89Q366 75 407 65Q448 55 495 50Q430 28 367 10.5Q304 -7 255 -22ZM302 89Q282 57 263 26.5Q244 -4 236 -17Q202 -7 169 7Q136 21 116 36Q163 49 209.5 62Q256 75 302 89ZM495 43Q485 14 472.5 -20.5Q460 -55 457 -56Q408 -50 361.5 -42Q315 -34 273 -26Q323 -16 384.5 1.5Q446 19 495 43ZM377 952Q382 911 390 888.5Q398 866 398 862Q361 870 321.5 876.5Q282 883 240 889Q271 907 305.5 922.5Q340 938 377 952ZM308 805L228 883Q264 871 310 862Q356 853 404 849Q382 837 361 826Q340 815 322 803L308 805ZM222 878Q222 878 248.5 845Q275 812 275 811Q248 816 225 821Q202 826 184 833Q184 846 196.5 857.5Q209 869 222 878ZM348 799Q363 807 378.5 818Q394 829 408 841Q415 825 423 810Q431 795 437 784Q411 788 383 793Q355 798 348 799ZM461 781Q435 826 414 871Q393 916 381 960Q323 942 271 920.5Q219 899 178 872Q155 856 156 846.5Q157 837 172 822Q246 765 281 702Q315 638 305 567.5Q295 497 239 418Q182 339 75 251Q-24 168 4 107.5Q32 47 129 -1Q163 -17 210 -29Q256 -41 304 -49Q352 -57 395 -61Q438 -65 465 -64Q496 -11 520 50Q544 111 558.5 178Q573 245 576 316Q579 387 568 459Q616 474 663 486Q710 499 756 510Q802 521 847 530Q892 539 936 546Q905 602 856 641Q808 680 746.5 707Q685 734 612 752Q540 769 461 781ZM198 814Q209 810 226.5 805.5Q244 801 264 796Q270 778 276.5 756.5Q283 735 289 712Q272 741 249 767Q226 793 198 814ZM395 770Q370 755 347 739.5Q324 724 306 704Q300 727 292 749.5Q284 772 274 793Q274 793 274 793Q274 793 274 793L274 793L274 793Q279 793 320 784.5Q361 776 395 770ZM420 664Q392 673 367.5 680.5Q343 688 321 694Q336 711 358 729.5Q380 748 408 768Q417 743 420 717Q423 691 420 664ZM419 766Q456 761 492.5 754Q529 747 567 739Q529 721 496 703Q463 685 438 667Q438 694 433.5 719Q429 744 419 766ZM535 613Q515 624 494.5 634Q474 644 453 653Q479 673 512 693Q545 713 584 734Q581 710 568 678Q555 646 535 613ZM596 732Q636 722 676.5 708Q717 694 757 676Q708 665 658.5 650Q609 635 561 615Q575 645 583.5 674Q592 703 596 732ZM318 563Q321 584 320 610.5Q319 637 315 667Q336 663 358.5 656.5Q381 650 404 641Q382 623 360.5 603.5Q339 584 318 563ZM645 506Q630 529 610 551Q590 573 563 593Q607 613 658 631.5Q709 650 768 667Q743 629 710 588Q677 547 645 506ZM779 664Q815 645 850.5 617Q886 589 920 552Q853 547 790 536.5Q727 526 665 511Q697 539 729 578.5Q761 618 779 664ZM397 531Q409 553 418.5 577.5Q428 602 434 629Q451 621 469.5 611.5Q488 602 508 592Q479 578 451.5 562.5Q424 547 397 531ZM414 625Q407 595 395 567Q383 539 366 511Q356 522 345 530.5Q334 539 321 545Q342 565 365 585Q388 605 414 625ZM537 574Q563 557 586.5 539Q610 521 630 501Q575 487 520 469.5Q465 452 412 432Q450 466 481.5 501.5Q513 537 537 574ZM378 496Q406 514 437.5 531Q469 548 505 566Q481 530 453.5 495Q426 460 396 426Q396 444 391 461.5Q386 479 378 496ZM272 440Q283 458 292.5 477Q302 496 309 518Q318 514 327 508Q336 502 344 496Q323 480 304.5 466Q286 452 272 440ZM361 477Q369 469 376 452.5Q383 436 385 421Q337 403 297 386Q257 369 227 354Q267 383 301 413.5Q335 444 361 477ZM246 405Q250 410 252.5 412.5Q255 415 261 419Q278 432 307.5 451.5Q337 471 337 471Q309 437 275.5 407.5Q242 378 202 354Q201 354 219 373Q237 392 246 405Z" fill="#aa759f" />
  </g>
</svg>