<?xml version="1.0" encoding="UTF-8"?>
<svg width="16" height="16" viewBox="0 0 16 16" xmlns="http://www.w3.org/2000/svg">
  <g transform="translate(0.31224745457952646, 14.981525275735294) scale(0.015585937499999999, -0.015585937499999999)">
    <path d="M910 307L902 647Q945 660 966 702Q987 744 967 789Q944 841 888.5 849Q833 857 797 817L665 870Q668 900 649.5 927Q631 954 597 959Q560 965 533 942.5Q506 920 503 887L173 804Q151 851 99.5 855.5Q48 860 17 818Q-13 776 8 728Q29 680 81 674L129 343Q95 316 98 272.5Q101 229 139 207Q153 199 167.5 197.5Q182 196 196 198L285 83Q262 42 280 -3Q298 -48 346 -61Q394 -73 431.5 -42.5Q469 -12 469 34L811 160Q837 121 886 120Q935 119 966 159Q999 202 980.5 250.5Q962 299 910 307ZM797 222L449 94Q437 109 421 118.5Q405 128 388 131L368 303L573 359Q589 344 611.5 340.5Q634 337 654 346L800 236Q799 233 798 229.5Q797 226 797 222ZM522 826Q530 816 540 809.5Q550 803 562 800L567 702L395 655Q372 703 321.5 714Q271 725 231 695L179 740L522 826ZM770 759Q770 759 770 758.5Q770 758 769 757L630 719L625 807Q627 809 629.5 810.5Q632 812 635 814L770 759ZM838 648L847 295Q844 294 841.5 292Q839 290 837 288L695 394Q703 423 687.5 450Q672 477 643 485L634 654L783 695Q792 679 806 667Q820 655 838 648ZM361 367L345 508Q369 520 385 542.5Q401 565 405 592L571 637L580 474Q567 464 559 449.5Q551 435 549 419L361 367ZM193 644Q175 596 201.5 550.5Q228 505 282 498L299 350L239 334Q229 344 216.5 350.5Q204 357 190 359L143 687ZM261 274L306 286L323 138L248 234Q254 243 257 253Q260 263 261 274Z" fill="#ac4142" />
  </g>
</svg>