<?xml version="1.0" encoding="UTF-8"?>
<svg width="16" height="16" viewBox="0 0 16 16" xmlns="http://www.w3.org/2000/svg">
  <g transform="translate(0.018166360294119777, 14.974835587686567) scale(0.015585937499999999, -0.015585937499999999)">
    <path d="M110 463Q112 475 106.5 484Q101 493 88 492Q71 490 66.5 464.5Q62 439 98 427Q128 417 153 436Q178 455 212 490Q251 528 292 549Q333 570 372.5 572Q412 574 449 556Q485 538 513 499Q524 520 553 544Q581 567 624.5 571.5Q668 576 725 552Q782 528 852 454Q904 400 939 429.5Q974 459 948 487Q937 500 922 488Q907 476 918 463L915 463Q863 509 931 533Q999 557 1020 478Q1032 419 1010 383Q988 348 947 334Q906 320 853 325Q800 330 750 352Q557 449 492 434.5Q427 420 239 340Q182 316 120.5 325.5Q59 335 31 363Q-3 395 0 454Q3 513 47 529Q92 547 119 519.5Q146 492 110 463Z" fill="#d28445" />
  </g>
</svg>