<?xml version="1.0" encoding="UTF-8"?>
<svg width="16" height="16" viewBox="0 0 16 16" xmlns="http://www.w3.org/2000/svg">
  <g transform="translate(1.58, 12.815000000000001) scale(0.008359375, -0.008359375)">
    <path d="M1536 1312L1536 192Q1536 142 1502 103Q1468 64 1416 42.5Q1364 21 1312.5 10.5Q1261 0 1216 0Q1171 0 1119.5 10.5Q1068 21 1016 42.5Q964 64 930 103Q896 142 896 192Q896 242 930 281Q964 320 1016 341.5Q1068 363 1119.5 373.5Q1171 384 1216 384Q1321 384 1408 345L1408 882L640 645L640 -64Q640 -114 606 -153Q572 -192 520 -213.5Q468 -235 416.5 -245.5Q365 -256 320 -256Q275 -256 223.5 -245.5Q172 -235 120 -213.5Q68 -192 34 -153Q0 -114 0 -64Q0 -14 34 25Q68 64 120 85.5Q172 107 223.5 117.5Q275 128 320 128Q425 128 512 89L512 1056Q512 1087 531 1112.5Q550 1138 580 1148L1412 1404Q1424 1408 1440 1408Q1480 1408 1508 1380Q1536 1352 1536 1312Z" fill="#46788d" />
  </g>
</svg>