<?xml version="1.0" encoding="UTF-8"?>
<svg width="16" height="16" viewBox="0 0 16 16" xmlns="http://www.w3.org/2000/svg">
  <g transform="translate(0.020000000000000462, 14.9825) scale(0.015585937499999999, -0.015585937499999999)">
    <path d="M257 468Q254 431 279.5 406Q305 381 327 381Q339 381 363 397Q388 413 412.5 431.5Q437 450 456 466Q475 482 475 482Q517 534 524 561.5Q531 589 531 607Q529 648 496 643Q463 638 419 609.5Q375 581 330 540Q284 499 257 468ZM744 510Q764 553 739.5 584.5Q715 616 656 574Q610 545 557 495.5Q504 446 475 422Q462 395 491.5 347.5Q521 300 574 339Q638 385 682.5 428Q727 471 744 510ZM817 852L834 960L1024 960L1024 764L954 763L870 479Q874 403 848.5 384Q823 365 818 331Q812 287 788 249Q764 211 733.5 182.5Q703 154 672 137Q642 121 623 121Q599 121 581.5 144Q564 167 558 192Q593 231 631 264Q670 298 702 322.5Q734 347 755 362Q776 376 776 376Q782 416 781.5 437.5Q781 459 824 493L880 783Q844 806 828 814.5Q812 823 817 852ZM446 373Q482 300 536.5 302Q591 304 672 397Q674 388 675 377Q676 366 672 345Q589 271 511 201Q434 131 368.5 74.5Q303 18 254 -19Q206 -56 182 -64L0 -64L0 -15Q11 0 58 42Q105 84 169.5 139.5Q234 195 307 256Q381 318 446 373ZM770 185Q763 122 710.5 63Q658 4 581 -64L257 -64L530 167Q566 86 627.5 94Q689 102 770 185ZM387 376L0 46L0 260L227 445Q237 394 284.5 362.5Q332 331 387 376Z" fill="#46788d" />
  </g>
</svg>