<?xml version="1.0" encoding="UTF-8"?>
<svg width="16" height="16" viewBox="0 0 16 16" xmlns="http://www.w3.org/2000/svg">
  <g transform="translate(0.5099999999999998, 14.556064700356012) scale(0.01462890625, -0.01462890625)">
    <path d="M257 246L257 652L438 652L601 426L601 652L758 652L758 246L580 246L413 470L411 246L257 246ZM255 891Q128 817 64 697Q0 577 0 448Q0 319 64 199Q128 79 255 5Q383 -69 519 -64Q655 -59 767.5 5.5Q880 70 952 185Q1024 301 1024 448Q1024 595 952 711Q880 826 767.5 890.5Q655 955 519 960Q383 965 255 891ZM308 96Q207 155 156 250Q106 345 106 448Q106 551 156 646Q207 741 308 800Q410 858 518 854Q626 851 715 799.5Q804 748 861 656Q918 565 918 448Q918 331 861 240Q804 148 715 96.5Q626 45 518 42Q410 38 308 96Z" fill="#ac4142" />
  </g>
</svg>