<?xml version="1.0" encoding="UTF-8"?>
<svg width="16" height="16" viewBox="0 0 16 16" xmlns="http://www.w3.org/2000/svg">
  <g transform="translate(2.3678710937499994, 14.55375) scale(0.01462890625, -0.01462890625)">
    <path d="M7 694Q-6 755 5 800Q15 845 41 874Q67 903 104 917Q141 931 180 929Q269 923 295.5 877.5Q322 832 322 832Q359 893 407 925Q455 957 539 960Q576 957 614 939Q651 922 680.5 889Q710 856 729 808Q747 760 747 696L747 103Q748 62 751.5 11Q755 -40 765 -64L614 -64Q597 -47 589.5 -12Q582 23 582 80L582 688Q576 726 542 749Q508 771 466.5 774.5Q425 778 387 760Q349 742 336 698Q335 671 334 593Q333 516 332 433.5Q331 351 330 287Q330 223 330 223L182 223L178 734Q165 806 116.5 808.5Q68 811 62 704Q62 704 45 692.5Q28 681 7 694Z" fill="#6a9fb5" />
  </g>
</svg>