<?xml version="1.0" encoding="UTF-8"?>
<svg width="16" height="16" viewBox="0 0 16 16" xmlns="http://www.w3.org/2000/svg">
  <g transform="translate(0.5099999999999998, 14.55375) scale(0.01462890625, -0.01462890625)">
    <path d="M1024 251Q1024 228 1008 212Q992 196 969 196Q946 196 930 212Q914 228 914 251Q914 274 912.5 285.5Q911 297 904 306Q897 315 884 319.5Q871 324 859 324Q836 324 820 340Q804 356 804 379Q804 402 820 418Q836 434 859 434Q882 434 898 418Q914 402 914 379Q914 356 913.5 343Q913 330 922 322Q930 313 938 309.5Q946 306 969 306Q992 306 1008 290Q1024 274 1024 251ZM165 311Q142 311 134 315Q126 319 118 327Q109 336 109.5 348.5Q110 361 110 384Q110 407 94 423Q78 439 55 439Q32 439 16 423Q0 407 0 384Q0 361 16 345Q32 329 55 329Q67 329 80 325Q93 321 100 311Q107 302 108.5 290.5Q110 279 110 256Q110 233 126 217Q142 201 165 201Q188 201 204 217.5Q220 234 220 256Q220 279 204 295Q188 311 165 311ZM302 311Q278 311 270 315Q262 319 254 327Q246 336 246.5 348.5Q247 361 247 384Q247 407 230.5 423Q214 439 191 439Q169 439 152.5 423Q136 407 136 384Q136 361 152 345Q168 329 191 329Q203 329 216.5 325Q230 321 236 311Q243 302 244.5 290.5Q246 279 246 256Q246 233 262.5 217Q279 201 302 201Q324 201 340.5 217.5Q357 234 357 256Q357 279 341 295Q325 311 302 311ZM435 311Q412 311 404 315Q396 319 388 327Q379 336 379.5 348.5Q380 361 380 384Q380 407 364 423Q348 439 325 439Q302 439 286 423Q270 407 270 384Q270 361 286 345Q302 329 325 329Q337 329 350 325Q363 321 370 311Q377 302 378.5 290.5Q380 279 380 256Q380 233 396 217Q412 201 435 201Q458 201 474 217.5Q490 234 490 256Q490 279 474 295Q458 311 435 311ZM435 696Q412 696 404 699.5Q396 703 388 712Q379 720 379.5 733Q380 746 380 769Q380 792 364 808Q348 824 325 824Q302 824 286 808Q270 792 270 769Q270 746 286 730Q302 714 325 714Q337 714 350 709.5Q363 705 370 696Q377 687 378.5 675.5Q380 664 380 641Q380 618 396 602Q412 586 435 586Q458 586 474 602Q490 618 490 641Q490 664 474 680Q458 696 435 696ZM567 696Q544 696 536 699.5Q528 703 520 712Q512 720 512 733Q512 746 512 769Q512 792 496 808Q480 824 457 824Q434 824 418 808Q402 792 402 769Q402 746 418 730Q434 714 457 714Q469 714 482 709.5Q495 705 502 696Q509 687 510.5 675.5Q512 664 512 641Q512 618 528 602Q544 586 567 586Q590 586 606 602Q622 618 622 641Q622 664 606 680Q590 696 567 696ZM671 383Q671 360 687 344Q703 328 726 328Q749 328 765 344Q781 360 781 383Q781 406 782.5 417Q784 428 791 438Q798 447 811 451Q824 455 836 455Q859 455 875 471.5Q891 488 891 510Q891 533 875 549.5Q859 566 836 566Q813 566 797 549.5Q781 533 781 510Q781 488 781 475Q781 462 773 453Q765 445 757 441.5Q749 438 726 438Q703 438 687 421.5Q671 405 671 383ZM534 383Q534 360 550.5 344Q567 328 589 328Q612 328 628 344Q644 360 644 383Q644 406 646 417Q648 428 655 438Q661 447 674.5 451Q688 455 699 455Q723 455 738.5 471.5Q754 488 754 510Q754 533 738 549.5Q722 566 699 566Q677 566 660.5 549.5Q644 533 644 510Q644 488 644.5 475Q645 462 637 453Q629 445 620.5 441.5Q612 438 589 438Q566 438 550 421.5Q534 405 534 383ZM401 383Q401 360 417 344Q433 328 456 328Q478 328 494.5 344Q511 360 511 383Q511 406 512.5 417Q514 428 521 438Q528 447 541 451Q554 455 566 455Q589 455 605 471.5Q621 488 621 510Q621 533 605 549.5Q589 566 566 566Q543 566 527 549.5Q511 533 511 510Q511 488 511 475Q511 462 503 453Q495 445 487 441.5Q479 438 456 438Q433 438 417 421.5Q401 405 401 383ZM139 515Q139 492 155.5 476Q172 460 194 460Q217 460 233 476Q249 492 249 515Q249 538 251 549Q253 560 260 570Q266 579 279.5 583.5Q293 588 304 588Q328 588 343.5 604Q359 620 359 643Q359 665 343 681.5Q327 698 304 698Q282 698 265.5 681.5Q249 665 249 643Q249 620 249.5 607Q250 594 242 585Q234 577 225.5 573.5Q217 570 194 570Q171 570 155 553.5Q139 537 139 515ZM534 127Q534 104 550.5 88Q567 72 589 72Q612 72 628 88Q644 104 644 127Q644 150 646 161.5Q648 173 655 182Q661 191 674.5 195.5Q688 200 699 200Q723 200 738.5 216Q754 232 754 255Q754 278 738 294Q722 310 699 310Q677 310 660.5 294Q644 278 644 255Q644 232 644.5 219Q645 206 637 198Q629 190 620.5 186Q612 182 589 182Q566 182 550 166Q534 150 534 127ZM401 127Q401 104 417 88Q433 72 456 72Q478 72 494.5 88Q511 104 511 127Q511 150 512.5 161.5Q514 173 521 182Q528 191 541 195.5Q554 200 566 200Q589 200 605 216Q621 232 621 255Q621 278 605 294Q589 310 566 310Q543 310 527 294Q511 278 511 255Q511 232 511 219Q511 206 503 198Q495 190 487 186Q479 182 456 182Q433 182 417 166Q401 150 401 127Z" fill="#d28445" />
  </g>
</svg>