<?xml version="1.0" encoding="UTF-8"?>
<svg width="16" height="16" viewBox="0 0 16 16" xmlns="http://www.w3.org/2000/svg">
  <g transform="translate(0.3896080553209463, 14.554506667564658) scale(0.01462890625, -0.01462890625)">
    <path d="M1023 842Q1014 787 963.5 765Q913 743 868 771L803 706Q888 611 911 494Q934 377 902 267.5Q870 158 787 71Q704 -15 579 -48Q451 -82 334 -46Q217 -10 135 73Q53 156 17 273Q-18 390 16 518Q50 643 137 726Q224 808 333 839.5Q442 871 559 848Q676 825 770 739L835 804Q810 842 824 888.5Q838 935 884 953Q939 974 985.5 937Q1032 900 1023 842ZM677 318L711 318Q714 318 715.5 319Q717 320 717 324L717 419Q726 424 734 426Q742 428 748 427Q755 426 758.5 420.5Q762 415 761 404L761 324Q761 322 762 319.5Q763 317 768 318L802 318Q805 318 806.5 319Q808 320 808 324L808 411Q808 431 803.5 447.5Q799 464 781 469Q766 473 747.5 469Q729 465 711 450Q706 461 696.5 466Q687 471 675 471Q663 472 650.5 468Q638 464 626 454L626 462Q626 464 625 466Q624 468 619 468L586 468Q583 468 581.5 467Q580 466 580 462L580 324Q580 321 581.5 319.5Q583 318 586 318L619 318Q624 317 625 319Q626 321 626 324L626 419Q651 431 661 426.5Q671 422 670 405L670 324Q671 321 672 319.5Q673 318 677 318ZM556 452Q556 455 556 457Q556 459 554 460Q541 469 513.5 471Q486 473 467 466Q450 460 443 447.5Q436 435 436 422Q436 397 452.5 388Q469 379 496 376Q505 375 509.5 372.5Q514 370 513 363Q514 350 490.5 351.5Q467 353 448 356Q441 357 440 355.5Q439 354 438 351L435 336Q434 330 435.5 327.5Q437 325 445 321Q479 312 511 316Q543 320 555 341Q563 355 560.5 374Q558 393 543 402Q533 408 522.5 410Q512 412 503 413Q493 415 487.5 416.5Q482 418 482 424Q483 432 488 433.5Q493 435 509 434Q525 433 536 431.5Q547 430 550 431Q552 432 553 438.5Q554 445 556 452ZM394 458Q381 469 351.5 471Q322 473 289 464Q283 462 280.5 460Q278 458 279 452Q281 444 282 438Q283 432 285 431Q293 430 312 432.5Q331 435 348 433Q355 431 358 427Q361 423 361 411L326 411Q294 411 280 397.5Q266 384 267 360Q267 342 275 329Q283 316 308 315Q323 315 338 320.5Q353 326 365 336Q366 332 368 328Q370 324 374 321Q378 318 388 316.5Q398 315 409 316Q416 318 420.5 320Q425 322 424 326L424 345Q424 348 423 349Q422 350 418 351Q410 351 408.5 353.5Q407 356 407 365L407 414Q406 427 404 438.5Q402 450 394 458ZM321 351Q317 352 315.5 354.5Q314 357 314 363Q314 373 318.5 377Q323 381 332 381L360 381L360 361Q350 355 339.5 352Q329 349 321 351ZM201 324Q201 321 202.5 319.5Q204 318 207 318L241 318Q243 318 245 318.5Q247 319 247 324L247 411Q248 431 244.5 442.5Q241 454 233 461Q220 473 196.5 470.5Q173 468 152 453L152 462Q152 466 150.5 467Q149 468 146 468L112 468Q109 468 107.5 466.5Q106 465 106 462L106 324Q106 322 106.5 319.5Q107 317 112 318L146 318Q149 318 150.5 319Q152 320 152 324L152 419Q171 427 186 427.5Q201 428 201 404Z" fill="#46788d" />
  </g>
</svg>