<?xml version="1.0" encoding="UTF-8"?>
<svg width="16" height="16" viewBox="0 0 16 16" xmlns="http://www.w3.org/2000/svg">
  <g transform="translate(0.5045141601562502, 14.55375) scale(0.01462890625, -0.01462890625)">
    <path d="M124 704Q105 722 105.5 738.5Q106 755 113 761Q119 768 149.5 798Q180 828 193 841Q211 860 226.5 856.5Q242 853 246 849Q250 844 287.5 805.5Q325 767 325 767L325 438Q329 343 389 299Q449 255 519 260Q589 265 647 317Q705 369 705 467L705 767L782 842Q782 842 797 852.5Q812 863 829 846Q845 830 878.5 796.5Q912 763 912 763Q912 763 919.5 745.5Q927 728 904 705L836 635Q833 585 841.5 561.5Q850 538 885 538L993 536Q1004 533 1012.5 527Q1021 521 1023 508Q1023 508 1024 448Q1025 388 1022 379Q1019 369 1010 362.5Q1001 356 984 356L875 356L829 303Q824 295 823.5 285Q823 275 828 264Q828 264 862.5 229Q897 194 913 177Q923 166 922 152.5Q921 139 917 132Q917 132 879 94Q841 56 831 46Q819 33 803.5 38.5Q788 44 788 44L705 126Q651 127 632 119Q613 111 606 88Q606 88 605.5 43.5Q605 -1 605 -25Q605 -48 591 -55.5Q577 -63 567 -63Q556 -63 522 -63.5Q488 -64 460 -64Q432 -64 427.5 -45.5Q423 -27 423 -27Q423 -27 423 20.5Q423 68 423 76Q423 85 401.5 104.5Q380 124 380 124Q370 130 355.5 131.5Q341 133 328 127Q328 127 295 94Q262 61 247 46Q232 32 216 39Q200 46 200 46Q200 46 164.5 78.5Q129 111 115 126Q102 140 106.5 155.5Q111 171 111 171L193 257Q194 289 191 315Q188 341 157 354Q157 354 115.5 354Q74 354 36 354Q-2 354 0.5 424.5Q3 495 3 495Q3 524 20 531Q37 538 37 538Q37 538 86 538Q135 538 144 538Q153 538 167 551.5Q181 565 193 579Q209 599 194.5 627.5Q180 656 124 704ZM603 610L603 928Q603 945 575 952Q547 960 513 960Q479 960 451 951Q423 942 423 926L423 611Q482 638 515.5 636Q549 634 603 610Z" fill="#6a9fb5" />
  </g>
</svg>