<?xml version="1.0" encoding="UTF-8"?>
<svg width="16" height="16" viewBox="0 0 16 16" xmlns="http://www.w3.org/2000/svg">
  <g transform="translate(0.9016367187499998, 14.55375) scale(0.01462890625, -0.01462890625)">
    <path d="M131 124Q131 124 173 162Q215 200 284 211Q241 213 222.5 206Q204 199 192 209Q179 217 196.5 237Q214 257 214 257Q214 257 157 213.5Q100 170 131 124ZM262 512Q262 512 309.5 479Q357 446 373 471Q390 497 350.5 505.5Q311 514 262 512ZM707 512Q707 512 659.5 479Q612 446 596 471Q581 497 619.5 505.5Q658 514 707 512ZM847 124Q847 124 805 162Q763 200 694 211Q737 213 756 206Q775 199 786 209Q797 219 780.5 238Q764 257 764 257Q764 257 821 213.5Q878 170 847 124ZM98 812Q95 800 97.5 778.5Q100 757 100 757Q100 757 117 732.5Q134 708 144 678Q154 649 153 621Q152 593 122 528Q99 482 93 448Q87 414 81 401Q69 378 61 371Q53 364 57 305Q57 305 107 350Q157 395 131 410Q111 421 141.5 444Q172 467 236 475Q210 500 227 527Q244 554 288 550Q332 543 368 518Q404 493 443 473Q453 468 456.5 482Q460 496 452 506Q440 519 425 525.5Q410 532 410 545Q410 555 429 563.5Q448 572 441 589Q431 615 401.5 609Q372 603 362 619Q353 636 360 647Q367 658 386 661Q406 664 386.5 701.5Q367 739 317 718Q266 696 240.5 708.5Q215 721 183 753Q162 776 141 789.5Q120 803 98 812ZM124 746Q190 723 214 693Q238 663 238 663Q238 663 220 648.5Q202 634 172 624Q184 694 154 720Q124 746 124 746ZM865 812Q868 800 865 778.5Q862 757 862 757Q862 757 845.5 732.5Q829 708 819 678Q809 649 810 621Q811 593 841 528Q864 482 870 448Q876 414 882 401Q894 378 901.5 371Q909 364 906 305Q906 305 856 350Q806 395 832 410Q852 421 821.5 444Q791 467 727 475Q753 500 736 527Q719 554 675 550Q630 543 594.5 518Q559 493 520 473Q510 468 506.5 482Q503 496 511 506Q522 519 537 525.5Q552 532 552 545Q552 555 533.5 563.5Q515 572 522 589Q532 615 561.5 609Q591 603 600 619Q610 637 603 647.5Q596 658 576 661Q557 664 576.5 701.5Q596 739 646 718Q697 696 722.5 708.5Q748 721 779 753Q801 776 821.5 789.5Q842 803 865 812ZM838 746Q773 723 749 693Q725 663 725 663Q725 663 743 648.5Q761 634 790 624Q777 694 807.5 720Q838 746 838 746ZM15 960Q10 903 21 850Q32 797 47.5 755Q63 713 79 685Q94 657 96 650Q101 637 98.5 617Q96 597 81 582Q59 554 43 503Q28 452 18.5 395.5Q9 339 4 285Q0 232 0 200Q2 136 13 120Q24 104 24 104Q24 104 26.5 112Q29 120 39 135Q41 104 57.5 50Q74 -4 133 -60Q141 6 171 42Q200 79 235 96Q270 113 304 115Q337 117 354 115Q355 99 377 37.5Q399 -24 404 -29Q407 -34 465.5 -47.5Q524 -61 563 -31Q603 0 597 35Q591 70 622 113Q685 121 728 102Q770 84 795 54Q820 24 829 -9Q839 -43 836 -64Q885 -15 900 32.5Q915 80 915 80Q915 80 925 73Q935 66 943 58Q974 153 970 246Q966 340 946.5 417.5Q927 495 901 550Q876 605 865 624Q938 776 943 845.5Q948 915 943 949Q917 926 878 898Q839 869 799.5 844Q760 819 725 802Q690 785 672 785Q636 785 610 800.5Q584 816 535 825Q535 805 511 774.5Q487 744 487 744Q487 744 467.5 769.5Q448 795 434 825Q389 826 356.5 802.5Q324 779 288 788Q250 798 202 826Q155 855 113.5 884.5Q72 914 44 937Q15 960 15 960ZM428 395Q420 381 433.5 363Q447 345 452 333Q462 315 425 294Q388 273 354 281Q321 289 343 311.5Q365 334 391 336Q424 339 400 356Q376 373 330 373Q284 373 260 365.5Q236 358 212 349Q187 339 149 323.5Q111 308 46 250Q41 313 50 367Q60 421 74.5 462.5Q89 504 103 530Q117 556 122 563Q132 576 139 593Q146 610 138 628Q97 723 81.5 798Q66 873 66 873Q66 873 108 841.5Q150 810 205 772Q261 735 305 741.5Q349 748 408 768Q425 679 457 640.5Q489 602 489 602Q525 633 539 679Q553 725 548 742Q545 758 551.5 770.5Q558 783 596 768Q657 748 683.5 750Q710 752 764 777Q815 803 857.5 840Q900 877 900 877Q900 877 905 858.5Q910 840 904 829Q882 784 873.5 743Q865 702 847 667Q837 653 834 628.5Q831 604 869 536Q888 503 902 454Q916 406 923 361Q930 316 929 284Q929 253 919 253Q898 253 866.5 292Q835 331 793 349Q768 360 732 367Q696 373 662 373Q628 373 604 366Q579 358 576 342Q575 332 589.5 331.5Q604 331 627 325Q651 318 651 307.5Q651 297 646 288Q641 276 621.5 281.5Q602 287 581 292Q559 297 539 305.5Q519 314 522 322Q528 344 542.5 353Q557 362 557 384Q551 418 496 422.5Q441 427 428 395ZM428 12Q416 27 400.5 84Q385 141 369 159Q354 165 320 163Q286 160 246 147.5Q206 135 167 111Q129 88 105 52Q92 95 90 139Q89 183 106.5 219.5Q124 256 163 281Q203 305 271 309Q303 268 315 261Q327 254 365 250Q379 209 384 180Q389 151 437 67Q437 69 437 96Q437 124 437.5 157Q438 190 439 217Q439 244 439 244Q439 244 448.5 239.5Q458 235 456 222Q458 207 457 195Q456 183 456 183L474 202L489 183L507 200L522 183Q522 183 523 198.5Q524 214 524 224Q524 231 534 238.5Q544 246 544 246L544 159L533 63Q533 63 559 110.5Q585 158 596 239Q644 256 667 273.5Q690 291 690 309Q707 313 740 306Q772 299 805 281.5Q838 264 864 236Q890 208 893 170Q891 130 880 94Q869 58 869 58Q869 58 811 112.5Q753 167 609 159Q581 113 571.5 78.5Q562 44 559 19Q554 -13 507 -18Q460 -23 428 12ZM452 65L520 65L520 106L500 87L485 104L469 89L452 106L452 65Z" fill="#d28445" />
  </g>
</svg>