<?xml version="1.0" encoding="UTF-8"?>
<svg width="16" height="16" viewBox="0 0 16 16" xmlns="http://www.w3.org/2000/svg">
  <g transform="translate(1.1244140624999996, 14.55375) scale(0.01462890625, -0.01462890625)">
    <path d="M441 761L441 482L343 482L343 743Q343 798 304 826Q266 853 220.5 853Q175 853 136 826Q98 798 98 743L98 482L0 482L0 761Q0 860 69 910Q138 960 220.5 960Q303 960 372 910Q441 860 441 761ZM499 215L499 -64L597 -64L597 197Q597 252 636 280Q674 308 719.5 308Q765 308 804 280Q842 252 842 197L842 -64L940 -64L940 215Q940 315 871 364Q802 414 719.5 414Q637 414 568 364Q499 315 499 215ZM940 583L702 583Q663 583 635 601.5Q607 620 607 665L937 665Q937 665 939 710Q940 756 922.5 811Q905 866 858 912Q811 958 715 958Q618 958 571 921Q524 885 506.5 836.5Q489 788 490 739Q492 690 492 665Q492 639 501 605Q510 571 534 540Q558 509 598 487Q639 465 702 465Q827 465 883.5 465Q940 465 940 465L940 583ZM607 754Q607 806 642 831Q677 857 719 857Q761 857 796 831Q831 806 831 754ZM109 108Q109 74 143 57Q178 40 220 40Q262 40 297 57Q332 74 332 108L332 239Q332 279 297 299Q262 318 220 318Q178 318 143 299Q109 279 109 239L109 108ZM3 261Q3 339 71 378Q139 416 220.5 416Q302 416 370 378Q438 339 438 261L438 96Q438 18 370 -21Q302 -61 220.5 -61Q139 -61 71 -21Q3 18 3 96L3 261Z" fill="#7f7f7f" />
  </g>
</svg>