<?xml version="1.0" encoding="UTF-8"?>
<svg width="16" height="16" viewBox="0 0 16 16" xmlns="http://www.w3.org/2000/svg">
  <g transform="translate(1.2703629178779061, 14.557585062103595) scale(0.01462890625, -0.01462890625)">
    <path d="M203 637Q203 657 185.5 667Q168 677 151 667Q134 657 134 637Q134 617 151 607Q168 597 185.5 607Q203 617 203 637ZM209 542Q209 562 191.5 572Q174 582 157 572Q139 562 139 542Q139 522 157 512Q174 502 191.5 512Q209 522 209 542ZM437 858Q437 878 420 888Q403 898 385 888Q368 878 368 858Q368 838 385 828Q403 818 420 828Q437 838 437 858ZM528 826Q528 846 510.5 856Q493 866 476 856Q459 846 459 826Q459 806 476 796Q493 786 510.5 796Q528 806 528 826ZM230 442Q230 462 212.5 472Q195 482 178 472Q160 462 160 442Q160 422 178 412Q195 402 212.5 412Q230 422 230 442ZM277 352Q277 371 260 381Q243 391 225 382Q208 372 208 352Q208 332 225 322Q243 312 260 322Q277 332 277 352ZM648 225Q648 245 630.5 255Q613 265 596 255Q579 245 579 225Q579 205 596 195Q613 185 630.5 195.5Q648 206 648 225ZM711 300Q711 320 693.5 330Q676 340 659 330Q641 320 641 300Q641 280 659 270Q676 260 693.5 270Q711 280 711 300ZM548 65Q617 82 678 120Q739 157 784.5 211.5Q830 266 858 335Q885 404 887 484Q915 534 917 588Q918 643 897.5 691.5Q877 740 836 776Q795 813 738 826Q696 864 645 890Q594 916 538 928.5Q482 941 423 939Q365 937 307 918Q278 949 233 958Q188 967 146 943Q99 915 86.5 865Q74 815 96 772Q39 701 16 616Q-7 530 3 444Q13 358 56 279Q99 200 175 142Q171 58 217 5Q264 -47 328 -60Q392 -73 455 -43Q519 -14 548 65ZM322 897Q371 912 421 914Q470 917 517.5 908Q565 899 609 880Q653 861 692 833Q629 835 576 808Q524 780 491.5 733.5Q459 687 450 628Q441 569 466 510Q491 449 540 413Q589 377 646 367.5Q703 358 761 377Q818 396 860 445Q853 379 826 322Q799 264 758.5 218.5Q718 173 666 141Q614 108 555 92Q569 185 521 243Q473 301 405 315.5Q337 330 270 296Q203 262 179 170Q111 224 73 297Q35 370 26.5 449Q18 528 39 606Q59 685 109 750Q150 703 199 701Q248 699 285.5 725Q323 751 337 798Q352 845 322 897Z" fill="#6a9fb5" />
  </g>
</svg>