<?xml version="1.0" encoding="UTF-8"?>
<svg width="16" height="16" viewBox="0 0 16 16" xmlns="http://www.w3.org/2000/svg">
  <g transform="translate(0.49805305989583215, 14.55375) scale(0.01462890625, -0.01462890625)">
    <path d="M401 958L863 835Q876 831 885.5 821.5Q895 812 899 799L1022 337Q1026 324 1022.5 311Q1019 298 1009 289L671 -49Q662 -59 649 -62.5Q636 -66 623 -62L161 61Q148 65 138.5 74.5Q129 84 125 97L2 559Q-2 572 1.5 585Q5 598 15 607L353 945Q362 955 375 958.5Q388 962 401 958ZM366 915L45 594Q38 586 35 575.5Q32 565 35 555L152 117Q155 106 162.5 98.5Q170 91 181 88L619 -29Q629 -32 639.5 -29Q650 -26 658 -19L979 302Q986 310 989 320.5Q992 331 989 341L872 779Q869 790 861.5 797.5Q854 805 843 808L405 925Q395 928 384.5 925Q374 922 366 915Z" fill="#75b5aa" />
  </g>
</svg>