<?xml version="1.0" encoding="UTF-8"?>
<svg width="16" height="16" viewBox="0 0 16 16" xmlns="http://www.w3.org/2000/svg">
  <g transform="translate(0.5062865084134605, 14.55464200647866) scale(0.01462890625, -0.01462890625)">
    <path d="M604 812Q590 834 592 850Q594 866 602 881Q609 894 608 915Q607 936 582 954Q605 962 632.5 949.5Q660 937 660 910Q647 892 622.5 876Q598 860 604 812ZM819 154Q808 119 801.5 88Q795 57 748 -16Q790 12 821 45Q852 77 874 112.5Q896 148 910 187Q923 226 930 267Q938 233 939.5 201.5Q941 170 937 140Q972 186 997 253Q1023 320 1023.5 400.5Q1024 481 992 571Q960 662 880 754Q877 713 857 678Q837 643 805 620Q773 597 731 589Q690 580 644 593Q722 602 764 649Q806 696 811 753.5Q816 811 785 865Q754 920 687 943Q690 887 643.5 877.5Q597 868 619 794Q581 816 524 828Q466 841 406 840Q346 839 292 824Q237 809 203 776Q169 742 140.5 717.5Q112 693 69 691Q33 689 6 645.5Q-21 602 40 572Q46 548 62.5 534Q79 520 91 518Q88 474 96 484.5Q104 495 118 514Q113 459 121 468Q129 477 150 505Q241 524 311 501Q380 478 428 434.5Q476 391 501 336Q526 282 526 236Q526 253 506 267.5Q486 282 472 277Q462 257 451.5 241Q441 225 429 217Q430 230 429 243Q428 256 426 269Q422 253 414 236.5Q406 220 393 203Q368 201 342.5 218.5Q317 236 327 267Q341 297 321 304.5Q301 312 278 303Q261 297 250.5 283Q240 269 238 264Q233 244 239.5 206Q246 168 285 138Q275 136 265 134Q255 132 248 128Q314 88 376 93Q438 98 476 113Q537 137 577 195.5Q617 254 623 307Q632 270 629 232Q625 193 611 158Q597 123 573 92Q548 61 514 39Q534 37 569 48Q604 59 643 73Q614 36 575.5 1.5Q537 -33 479 -61Q536 -56 586 -40Q636 -23 678 4Q720 31 755 69Q791 107 819 154Z" fill="#ac4142" />
  </g>
</svg>