<?xml version="1.0" encoding="UTF-8"?>
<svg width="16" height="16" viewBox="0 0 16 16" xmlns="http://www.w3.org/2000/svg">
  <g transform="translate(0.020000000000000462, 14.9825) scale(0.015585937499999999, -0.015585937499999999)">
    <path d="M740 607L760 735L858 637L756 593ZM883 612L986 509Q999 495 1011.5 483.5Q1024 472 1024 458L771 566ZM1019 425Q987 385 948.5 348Q910 311 870 271L714 304Q714 313 709 321.5Q704 330 696 336L724 515Q735 514 745 521Q755 528 758 537ZM842 243L650 51L684 253Q691 256 696.5 260.5Q702 265 707 271ZM609 10L589 -10L348 335Q351 338 353 340.5Q355 343 356 346L622 289Q624 279 633.5 269Q643 259 651 256ZM566 -33L532 -61L486 -61Q455 -29 407 18Q360 65 316 109Q272 153 241 184Q210 215 210 215L274 313Q287 308 301 309Q315 310 325 316ZM133 292L241 340L248 330L182 244ZM108 317L13 415L232 369ZM0 451Q3 471 16 485Q29 499 38 509L128 599L253 417L240 401ZM151 622L271 742L425 676Q420 658 424 643.5Q428 629 438 622L313 432Q303 436 296.5 435Q290 434 284 432ZM297 765Q297 765 326 795Q354 824 389.5 859.5Q425 895 456 925Q487 956 492 957L527 957L607 888L495 714Q481 717 466 715.5Q451 714 442 705ZM630 865L732 763L709 607Q704 606 699 604Q694 602 691 598L530 667Q532 675 530 683.5Q528 692 522 696ZM673 572L673 557L346 417L343 420L468 609Q486 608 501 615.5Q516 623 523 636ZM358 389L686 530L694 522L665 346Q653 344 642 337Q631 330 626 320L364 376Z" fill="#46788d" />
  </g>
</svg>