<?xml version="1.0" encoding="UTF-8"?>
<svg width="16" height="16" viewBox="0 0 16 16" xmlns="http://www.w3.org/2000/svg">
  <g transform="translate(0.020000000000000462, 14.9825) scale(0.015585937499999999, -0.015585937499999999)">
    <path d="M1024 700L1024 891Q953 876 890 852Q826 827 765 791Q704 755 643 706Q582 658 515 594Q416 709 328 774Q239 840 170 872Q101 904 56 912Q11 919 0 920L0 725Q5 725 36 717Q67 709 117.5 681Q168 653 235 599Q302 545 379 452Q337 412 291 377Q245 342 197.5 312Q150 282 100 258Q51 233 0 215L0 12Q72 33 140 63Q207 92 269.5 128.5Q332 165 389 207Q447 249 499 296Q549 231 611 178Q673 125 741.5 84.5Q810 44 882 17Q954 -10 1024 -24L1024 177Q981 188 933 207Q885 226 834.5 257Q784 288 734 333Q683 377 635 438Q689 497 737 541Q786 585 832.5 616.5Q879 648 926 668Q973 688 1024 700Z" fill="#66783e" />
  </g>
</svg>