<?xml version="1.0" encoding="UTF-8"?>
<svg width="16" height="16" viewBox="0 0 16 16" xmlns="http://www.w3.org/2000/svg">
  <g transform="translate(0.5095123697916666, 14.552526062551479) scale(0.01462890625, -0.01462890625)">
    <path d="M773 889Q646 964 510 960Q374 956 261 892.5Q148 829 75 714Q1 599 0 452Q-1 308 67 195Q135 81 242 14Q349 -53 481 -63Q613 -73 740 -10L371 533L371 197Q371 169 335.5 169Q300 169 300 197L300 647Q300 669 329.5 671Q359 673 370 653L791 19Q909 95 968 213Q1026 332 1024 457.5Q1022 583 959 700Q896 816 773 889ZM725 253L654 362L654 661Q654 682 689.5 682Q725 682 725 661Z" fill="#7f7f7f" />
  </g>
</svg>