<?xml version="1.0" encoding="UTF-8"?>
<svg width="16" height="16" viewBox="0 0 16 16" xmlns="http://www.w3.org/2000/svg">
  <g transform="translate(0.5392578124999998, 14.55375) scale(0.01462890625, -0.01462890625)">
    <path d="M750 960L1020 689L946 615L676 886ZM0 -26L449 424Q431 457 444.5 495Q458 533 497 546Q544 562 581.5 529.5Q619 497 610 448Q601 405 562 387Q523 369 487 387L35 -64Q169 8 286 55Q403 101 499 127.5Q595 154 668 162Q741 170 788 165Q792 197 797 259Q802 321 813 388.5Q824 456 843 517Q861 578 893 610L670 832Q639 801 578 782Q517 763 449.5 752.5Q382 742 320 737Q258 732 225 728Q231 681 221 602Q211 522 184 421.5Q157 321 111 206Q66 91 0 -26Z" fill="#a35f27" />
  </g>
</svg>