<?xml version="1.0" encoding="UTF-8"?>
<svg width="16" height="16" viewBox="0 0 16 16" xmlns="http://www.w3.org/2000/svg">
  <g transform="translate(0.011696016905738774, 14.981726626834353) scale(0.015585937499999999, -0.015585937499999999)">
    <path d="M942 727Q861 851 738 909Q615 966 486 959Q357 952 240 882Q123 812 56 681Q-11 550 1 414Q13 278 83.5 169.5Q154 61 272 -5Q391 -71 538 -63Q685 -56 797 23Q908 101 967 216.5Q1026 332 1024 468Q1022 604 942 727ZM535 2Q407 -5 303 53Q199 110 137.5 205Q76 300 66 418Q56 537 114 651Q170 761 266 822Q362 883 469.5 893Q577 903 682 862Q787 822 861 728L798 586Q750 599 690.5 589.5Q631 580 587 508Q570 481 562 446Q553 410 557.5 372.5Q562 335 581 299Q600 263 640 235L579 99L634 74L694 207Q730 197 780 203.5Q830 210 871 221L871 286Q851 274 804.5 268Q758 262 722 271L826 501Q846 494 858.5 487Q871 480 871 480L871 557L855 565L901 669Q962 562 959 447Q956 332 903.5 235Q851 138 755 73Q660 8 535 2ZM669 299Q632 323 625 364Q617 406 632.5 444.5Q648 483 683 507Q718 530 767 518ZM327 767L512 767L512 705L381 705L349 635Q349 635 374 626Q400 618 430.5 598.5Q461 579 487 548Q512 516 512 471L512 381Q512 369 508 339Q503 308 486 275.5Q469 243 436 218Q403 192 345 192L193 192L193 258L337 258Q391 258 414.5 302.5Q438 347 438 381L438 471Q438 499 410 519Q382 539 347.5 552Q313 565 285 571Q257 577 257 577L257 635L327 767Z" fill="#7f7f7f" />
  </g>
</svg>