<?xml version="1.0" encoding="UTF-8"?>
<svg width="16" height="16" viewBox="0 0 16 16" xmlns="http://www.w3.org/2000/svg">
  <g transform="translate(1.4135944733796304, 14.982652803308824) scale(0.015585937499999999, -0.015585937499999999)">
    <path d="M584 37Q673 69 736 130Q799 190 826.5 266Q854 342 841 426Q828 509 763 587Q755 632 741.5 673.5Q728 715 710 751L731 939Q732 949 724 955.5Q716 962 706 958L577 911Q499 961 422.5 960Q346 959 270 910L137 958Q128 962 120 955.5Q112 949 113 939L135 745Q117 709 104.5 669.5Q92 630 85 587Q26 517 8 437Q-10 357 12.5 281Q35 205 97 140Q160 76 263 37Q228 22 226 -18Q224 -58 257 -64Q269 -64 278 -51Q287 -38 287 -19Q287 -38 296 -51Q305 -64 318 -64Q331 -64 340 -51Q349 -38 349 -19Q349 -38 358 -51Q367 -64 380 -64Q393 -64 402 -50.5Q411 -37 411 -18Q417 -19 423.5 -19Q430 -19 436 -18Q436 -37 445 -50.5Q454 -64 467 -64Q479 -64 488.5 -51Q498 -38 498 -19Q498 -38 507 -51Q516 -64 528 -64Q541 -64 550 -51Q559 -38 559 -19Q559 -38 568 -51Q577 -64 590 -64Q620 -61 620.5 -20.5Q621 20 584 37ZM281 452Q200 458 160 515Q120 571 120.5 637.5Q121 704 162 761Q203 817 283 823Q327 823 364 798Q401 773 422 733Q444 773 481 798Q518 823 562 823Q644 818 684 762Q725 706 725.5 639.5Q726 573 686 516Q646 459 567 452Q630 411 654 342Q679 272 662 205.5Q645 139 586 91Q527 42 424 42Q327 42 269 89Q210 135 191.5 200.5Q173 266 195 335Q217 405 281 452ZM293 318Q293 286 325.5 286Q358 286 358 318ZM392 318Q392 286 424.5 286Q457 286 457 318ZM491 318Q491 286 523.5 286Q556 286 556 318ZM293 190Q293 157 325.5 157Q358 157 358 190ZM392 190Q392 157 424.5 157Q457 157 457 190ZM491 190Q491 157 523.5 157Q556 157 556 190ZM244 255Q244 222 276.5 222Q309 222 309 255ZM343 255Q343 222 375.5 222Q408 222 408 255ZM442 255Q442 222 474.5 222Q507 222 507 255ZM540 255Q540 222 573 222Q606 222 606 255ZM343 383Q343 350 375.5 350Q408 350 408 383ZM442 383Q442 350 474.5 350Q507 350 507 383ZM343 126Q343 113 352.5 103.5Q362 94 375 94Q389 94 398.5 103.5Q408 113 408 126ZM442 126Q442 113 451.5 103.5Q461 94 474 94Q488 94 497.5 103.5Q507 113 507 126L442 126ZM507 501Q493 479 475.5 461.5Q458 444 437 427Q431 423 424.5 423Q418 423 413 427Q391 444 374 461.5Q357 479 343 501Q339 507 339.5 514Q340 521 344 526Q358 542 373 553.5Q388 565 411 574Q417 577 424.5 576.5Q432 576 439 574Q460 565 476 553.5Q492 542 505 526Q510 521 510 514Q510 507 507 501ZM257 740Q209 713 209 658Q209 603 257 576Q304 549 351.5 576Q399 603 399 658Q399 712 351.5 739.5Q304 767 257 740ZM308 661Q297 667 297 680Q297 693 308 699Q319 705 330 698.5Q341 692 341 680Q341 667 330 661Q319 655 308 661ZM489 740Q441 713 441 658Q441 603 489 576Q536 549 583.5 576Q631 603 631 658Q631 712 583.5 739.5Q536 767 489 740ZM540 661Q529 667 529 680Q529 693 540 699Q551 705 562 698.5Q573 692 573 680Q573 667 562 661Q551 655 540 661Z" fill="#7c4426" />
  </g>
</svg>