<?xml version="1.0" encoding="UTF-8"?>
<svg width="16" height="16" viewBox="0 0 16 16" xmlns="http://www.w3.org/2000/svg">
  <g transform="translate(0.020000000000000462, 14.9825) scale(0.015585937499999999, -0.015585937499999999)">
    <path d="M381 443L354 434Q349 441 345 447Q341 453 330 463L317 503L295 483Q285 489 274 494Q263 499 251 501L232 532L213 508Q201 511 191.5 510Q182 509 172 507L154 532L143 500Q135 495 131.5 491Q128 487 125 483L105 497L138 340Q172 247 242.5 236Q313 225 336 281L381 443ZM336 355L314 321L284 317L232 374L182 346L157 365L139 405Q150 443 180 452Q210 461 242 450.5Q274 440 302 414Q329 388 336 355ZM1024 721L1024 209L512 6L0 209L0 721L230 797L743 625L742 490Q761 509 763 506.5Q765 504 790 499Q806 495 809.5 502.5Q813 510 834 519L834 656L321 827L513 890Z" fill="#7f7f7f" />
  </g>
</svg>