<?xml version="1.0" encoding="UTF-8"?>
<svg width="16" height="16" viewBox="0 0 16 16" xmlns="http://www.w3.org/2000/svg">
  <g transform="translate(0.5099999999999998, 14.55375) scale(0.01462890625, -0.01462890625)">
    <path d="M888 239L983 497L1024 683Q1024 683 994.5 672Q965 661 945 653Q935 666 918.5 681Q902 696 879 708Q865 736 846.5 771.5Q828 807 828 807Q828 807 803 786.5Q778 766 751 745Q714 753 671.5 760Q629 767 590 765Q565 788 540.5 812.5Q516 837 516 837Q516 837 489.5 814Q463 791 435 767Q404 768 357.5 761Q311 754 279 742Q252 762 226.5 783.5Q201 805 201 805Q201 805 182 768.5Q163 732 149 707Q131 697 112 684Q93 671 75 654Q55 663 27.5 675.5Q0 688 0 688L43 494Q43 494 52 469Q61 444 75 406.5Q89 369 106 325Q122 281 136 243Q165 201 205 167Q245 133 294 109.5Q343 86 398 72Q453 59 511 59Q568 59 622 71Q677 83 726 106.5Q775 130 816 163Q857 196 888 239ZM519 626Q589 626 648 613Q707 600 753.5 575.5Q800 551 833 516Q866 480 884 435L811 343L708 313L514 424L318 315L214 344L145 442Q159 481 195 515Q230 549 280 573.5Q330 598 392 612Q453 626 519 626Z" fill="#90a959" />
  </g>
</svg>