<?xml version="1.0" encoding="UTF-8"?>
<svg width="16" height="16" viewBox="0 0 16 16" xmlns="http://www.w3.org/2000/svg">
  <g transform="translate(0.5099999999999998, 14.55375) scale(0.01462890625, -0.01462890625)">
    <path d="M419 526L211 807L211 526L128 526L128 936L210 936L404 671L404 936L487 936L487 526L419 526ZM569 863L569 936L650 936L650 863ZM569 526L569 819L650 819L650 526ZM889 520L831 520Q785 520 764.5 544Q744 568 744 597L744 759L698 759L705 819L744 819L744 883L825 891L825 819L896 819L896 759L825 759L825 627Q825 593 832.5 586.5Q840 580 874 580L896 580ZM190 184L256 184L273 270L207 270ZM670 184L736 184L753 270L687 270ZM0 472L0 -40L1024 -40L1024 472L0 472ZM396 270L341 270L323 184L396 184L396 120L310 120L286 6L220 6L243 120L177 120L153 6L86 6L109 120L69 120L69 184L122 184L140 270L69 270L69 334L154 334L177 448L244 448L221 334L286 334L309 448L379 448L355 334L396 334L396 270ZM876 270L821 270L803 184L876 184L876 120L790 120L767 6L700 6L723 120L657 120L633 6L566 6L589 120L549 120L549 184L602 184L620 270L549 270L549 334L634 334L657 448L724 448L701 334L767 334L789 448L859 448L835 334L876 334L876 270Z" fill="#66783e" />
  </g>
</svg>