<?xml version="1.0" encoding="UTF-8"?>
<svg width="16" height="16" viewBox="0 0 16 16" xmlns="http://www.w3.org/2000/svg">
  <g transform="translate(0.020000000000000462, 14.9825) scale(0.015585937499999999, -0.015585937499999999)">
    <path d="M402 615L153 183L95 282L162 397L28 398L0 447L29 498L219 497L287 615L402 615ZM422 270L920 270L864 170L730 170L797 54L768 5L710 5L615 170L479 170L422 270ZM712 459L463 891L577 892L644 776L711 891L768 891L797 841L701 677L769 559L712 459ZM312 437L562 5L447 4L381 120L314 5L257 5L227 55L323 219L255 337L312 437ZM602 627L103 627L160 727L293 727L227 843L255 892L314 892L408 727L544 727L602 627ZM622 281L871 713L929 614L862 499L996 498L1024 449L995 399L805 399L737 281L622 281Z" fill="#75b5aa" />
  </g>
</svg>