<?xml version="1.0" encoding="UTF-8"?>
<svg width="16" height="16" viewBox="0 0 16 16" xmlns="http://www.w3.org/2000/svg">
  <g transform="translate(0.01516547309027892, 14.979090576171874) scale(0.015585937499999999, -0.015585937499999999)">
    <path d="M901 424Q904 421 907 419.5Q910 418 914 416Q917 415 919.5 413.5Q922 412 925 411Q927 409 930 407Q933 405 930 402Q929 400 925.5 400Q922 400 920 399Q916 399 912 399Q908 399 904 399Q900 400 895.5 399Q891 398 886 398Q883 398 880 398Q877 398 873 398Q872 398 871 398Q870 398 869 399Q868 400 868.5 401Q869 402 869 403Q870 404 871 405.5Q872 407 873 408Q874 408 874.5 409Q875 410 876 410Q878 412 878.5 413.5Q879 415 878 417Q876 419 874.5 421Q873 423 873 425Q873 429 875 430.5Q877 432 880 432Q885 434 886 433Q887 432 891 430Q893 429 896.5 426.5Q900 424 901 424ZM117 422Q114 420 110.5 418.5Q107 417 104 415Q101 413 98 412Q95 411 93 409Q90 408 87.5 406Q85 404 87 401Q89 399 92 398.5Q95 398 97 398Q101 397 105 397Q109 397 113 397Q117 398 121.5 397Q126 396 131 396Q134 396 137.5 396Q141 396 144 396Q145 396 146 395.5Q147 395 148 396Q149 398 149 399Q149 400 148 401Q147 402 146.5 403Q146 404 145 405Q144 406 143 406.5Q142 407 141 408Q139 409 138.5 411Q138 413 140 415Q142 417 143 418.5Q144 420 145 423Q145 426 143 428Q141 430 138 430Q134 430 132.5 429.5Q131 429 127 427Q125 426 121.5 424Q118 422 117 422ZM1019 388Q994 359 945 357.5Q896 356 818 318Q714 269 672 240.5Q630 212 511 211Q387 211 346 241.5Q305 272 196 321Q109 359 61 359Q13 359 3 389Q-11 429 29 463.5Q69 498 99 520Q168 568 220 600Q272 632 318 650.5Q364 669 408 677Q453 684 507 684Q565 687 621 674Q677 660 730 636Q783 612 831 581Q879 551 921 520Q951 497 995 459.5Q1039 422 1019 388ZM517 421L517 388Q543 390 561 408.5Q579 427 582 453L549 453Q547 441 538 432Q529 423 517 421ZM536 453L517 453L517 434Q524 435 529 440.5Q534 446 536 453ZM536 466Q535 474 529.5 479.5Q524 485 517 487L517 466L536 466ZM440 466L473 466Q475 479 483.5 488Q492 497 504 499L504 533Q479 531 460.5 512Q442 493 440 466ZM504 434L504 453L486 453Q488 446 493 441Q498 436 504 434ZM473 453L440 453Q443 427 461 408.5Q479 390 504 388L504 421Q492 423 483.5 432Q475 441 473 453ZM504 466L504 486Q498 484 493 478.5Q488 473 486 466ZM582 466Q580 493 561.5 512Q543 531 517 533L517 500Q530 498 538.5 488.5Q547 479 549 466L582 466ZM439 294Q388 315 355.5 360.5Q323 406 323 464Q323 495 333 523.5Q343 552 362 575Q324 559 270.5 526.5Q217 494 134 437Q121 428 94 418Q67 408 76 399Q83 392 114 392.5Q145 393 174 385Q274 353 329.5 329Q385 305 439 294ZM891 436Q814 492 758.5 525Q703 558 660 575Q678 552 688 523.5Q698 495 698 464Q698 408 667.5 363.5Q637 319 589 297Q654 312 718 340Q782 368 843 385Q885 397 906 394Q927 391 946 401Q953 404 927.5 416.5Q902 429 891 436Z" fill="#46788d" />
  </g>
</svg>