<?xml version="1.0" encoding="UTF-8"?>
<svg width="16" height="16" viewBox="0 0 16 16" xmlns="http://www.w3.org/2000/svg">
  <g transform="translate(0.9239843750000007, 14.981900540865384) scale(0.015585937499999999, -0.015585937499999999)">
    <path d="M415 -53L289 21Q275 29 278 32Q281 35 286 37Q305 43 313.5 47Q322 51 342 63Q345 64 347.5 63.5Q350 63 352 62L448 5Q451 3 454 3Q457 3 460 5L835 221Q838 223 839.5 226Q841 229 841 232L841 665Q841 668 839.5 670.5Q838 673 835 675L460 891Q457 893 454 893Q451 893 448 891L73 675Q70 673 68.5 670.5Q67 668 67 665L67 232Q67 228 68.5 225.5Q70 223 73 222L176 162Q218 141 242 158Q266 175 266 200L266 628Q266 632 269 635.5Q272 639 277 639L324 639Q329 639 332 635.5Q335 632 335 628L335 200Q335 144 306 113.5Q277 83 224 83Q208 83 190.5 86Q173 89 138 107L39 163Q21 174 10.5 192.5Q0 211 0 232L0 665Q0 686 10.5 704.5Q21 723 39 733L415 950Q432 960 454 960Q476 960 493 950L869 733Q887 723 897.5 704.5Q908 686 908 665L908 232Q908 211 897.5 192.5Q887 174 869 163L493 -53Q474 -65 454 -64Q434 -63 415 -53ZM731 507L682 507Q679 507 676 509.5Q673 512 672 516Q663 554 637.5 569Q612 584 555 584Q490 584 474 566Q458 548 458 532Q458 511 478.5 501.5Q499 492 587 481Q673 469 715 446.5Q757 424 757 363Q757 302 708 268Q659 234 570 234Q447 234 409 280Q371 326 371 373Q371 378 374 381Q377 384 382 384L430 384Q435 384 438 381.5Q441 379 441 375Q447 338 471 319Q495 300 570 300Q629 300 655.5 314.5Q682 329 682 360Q682 378 662 391.5Q642 405 550 414Q473 422 428.5 445Q384 468 384 529Q384 586 429 618Q474 650 555 650Q645 650 690.5 618Q736 586 742 519Q742 515 739 511Q736 507 731 507Z" fill="#66783e" />
  </g>
</svg>