<?xml version="1.0" encoding="UTF-8"?>
<svg width="16" height="16" viewBox="0 0 16 16" xmlns="http://www.w3.org/2000/svg">
  <g transform="translate(1.4101732935298108, 14.55072332974138) scale(0.01462890625, -0.01462890625)">
    <path d="M426 856L246 753Q188 750 145 782Q102 814 73 853.5Q44 893 30 927Q15 960 15 960Q-10 847 5 769.5Q20 692 54 642Q23 628 11.5 615Q0 602 0 583L1 -39Q0 -51 12 -59.5Q24 -68 37 -60L276 76Q287 83 293.5 94Q300 105 300 118L300 409Q300 422 306.5 433.5Q313 445 324 451L426 510Q435 516 449.5 516Q464 516 474 510L576 451Q587 445 593.5 433.5Q600 422 600 409L600 118Q600 105 606.5 94Q613 83 625 76L863 -60Q875 -68 887 -61.5Q899 -55 900 -39L900 583Q900 602 889 614Q878 626 847 642Q881 692 896 769.5Q911 847 885 960Q885 960 871 927Q856 893 827.5 853.5Q799 814 756 782Q712 750 655 753L474 856Q462 863 449.5 862.5Q437 862 426 856Z" fill="#90a959" />
  </g>
</svg>