<?xml version="1.0" encoding="UTF-8"?>
<svg width="16" height="16" viewBox="0 0 16 16" xmlns="http://www.w3.org/2000/svg">
  <g transform="translate(0.5099999999999998, 14.55667578125) scale(0.01462890625, -0.01462890625)">
    <path d="M474 916L579 874L866 874L907 925L1009 852Q1004 845 995 840Q986 835 970 834L970 647Q967 641 942 630.5Q917 620 875 622L875 667L564 667L564 485L713 485L713 636L841 624Q840 612 832 605Q824 598 805 594L805 485L870 485L925 557L1024 472Q1022 463 1014.5 459Q1007 455 996 455L805 455L805 295L857 295L903 345L1000 271Q996 265 986 260Q976 255 963 253L963 -6Q963 -12 930.5 -23Q898 -34 867 -31L867 31L659 31L659 -16Q657 -25 628 -37Q599 -49 565 -46L565 336L664 295L713 295L713 455L562 455Q558 390 546 324Q535 257 512 193Q489 129 451 70Q414 10 359 -41L344 -30Q368 8 386.5 48Q405 88 419 130Q391 116 358 99Q325 83 286.5 64Q248 45 204 25Q160 4 109 -18Q106 -28 99.5 -34.5Q93 -41 85 -44L21 70Q48 75 91 84Q134 93 187 104L187 439L41 439L33 469L187 469L187 599L109 599L101 629Q80 606 58 587Q36 568 13 551L0 561Q29 598 57 647Q85 696 109 748Q133 800 151 851Q169 901 178 943L309 900Q307 890 297.5 884.5Q288 879 268 878Q366 848 404 809Q441 770 440.5 740Q440 710 414 697Q388 684 361 705Q348 736 320.5 777Q293 818 256 856Q229 801 190 742Q151 683 102 630L275 630L325 700Q325 700 357 671Q389 642 414 616Q412 607 404.5 603Q397 599 386 599L272 599L272 469L309 469L358 538Q358 538 390.5 509.5Q423 481 447 456Q445 447 438 443Q431 439 420 439L272 439L272 124Q309 132 348 140.5Q387 149 427 158Q437 186 446 230Q456 275 462.5 358Q469 441 472 575Q476 709 474 916ZM659 265L659 62L867 62L867 265L659 265ZM564 843L564 698L875 698L875 843L564 843ZM70 386Q129 332 147 281Q164 231 156 197Q148 163 124 154Q100 144 78 172Q84 222 76 280Q68 338 56 383Q56 383 63 384.5Q70 386 70 386ZM294 180Q303 221 312 279Q321 337 327 393L440 358Q436 349 426.5 342.5Q417 336 400 335Q382 293 359 250Q336 207 312 173L294 180Z" fill="#ac4142" />
  </g>
</svg>