<?xml version="1.0" encoding="UTF-8"?>
<svg width="16" height="16" viewBox="0 0 16 16" xmlns="http://www.w3.org/2000/svg">
  <g transform="translate(0.5099999999999998, 14.556064700356012) scale(0.01462890625, -0.01462890625)">
    <path d="M255 891Q128 817 64 697Q0 577 0 448Q0 319 64 199Q128 79 255 5Q383 -69 519 -64Q655 -59 767.5 5.5Q880 70 952 185Q1024 301 1024 448Q1024 595 952 711Q880 826 767.5 890.5Q655 955 519 960Q383 965 255 891ZM573 452Q573 384 510.5 384Q448 384 448 452Q448 468 448 522Q448 577 448 639Q448 701 448 756Q448 811 448 829Q448 894 510.5 894Q573 894 573 829Q573 811 573 759Q573 707 573 647Q573 587 573 531Q573 476 573 452Z" fill="#7f7f7f" />
  </g>
</svg>