<?xml version="1.0" encoding="UTF-8"?>
<svg width="16" height="16" viewBox="0 0 16 16" xmlns="http://www.w3.org/2000/svg">
  <g transform="translate(0.020000000000000462, 14.9825) scale(0.015585937499999999, -0.015585937499999999)">
    <path d="M974 446L755 237L974 27L974 446ZM952 468L514 468L733 258L952 468ZM952 498L733 708L514 498L952 498ZM695 714L257 714L476 504ZM974 939L755 729L974 519ZM695 744L476 954L257 744ZM438 960L0 960L219 750ZM50 450L269 659L50 869ZM291 638L72 428L510 428L291 638ZM72 398L291 188L510 398L72 398ZM50 377L50 -43L269 167L50 377ZM767 182L548 392L329 182ZM329 152L548 -58L767 152L329 152ZM586 -64L1024 -64L805 146Z" fill="#4d9085" />
  </g>
</svg>