<?xml version="1.0" encoding="UTF-8"?>
<svg width="16" height="16" viewBox="0 0 16 16" xmlns="http://www.w3.org/2000/svg">
  <g transform="translate(1.7754003906250002, 14.55375) scale(0.01462890625, -0.01462890625)">
    <path d="M581 628L647 561L354 268L203 419L270 486L355 402L581 628ZM716 448Q716 532 675 597Q634 662 570.5 699Q507 736 430 739Q352 741 280 700Q207 658 171 590Q135 522 135 448.5Q135 375 171 307Q207 239 280 197Q352 155 430 158Q507 160 570.5 197Q634 234 675 299Q716 365 716 448ZM425 -64Q355 -30 282 13Q208 57 146.5 109.5Q85 162 44 222Q3 283 0 351L0 801L425 960L851 801L851 353Q850 295 819 240Q789 185 733 133.5Q677 82 599 32Q520 -17 425 -64Z" fill="#66783e" />
  </g>
</svg>