<?xml version="1.0" encoding="UTF-8"?>
<svg width="16" height="16" viewBox="0 0 16 16" xmlns="http://www.w3.org/2000/svg">
  <g transform="translate(2.464842403017242, 14.9825) scale(0.015585937499999999, -0.015585937499999999)">
    <path d="M604 206Q605 196 602.5 187.5Q600 179 593 172L463 172Q453 171 444.5 167.5Q436 164 428 158L47 158Q28 157 14.5 169.5Q1 182 0 200L0 855Q1 871 14.5 885.5Q28 900 64 897L64 266Q65 240 83 223Q101 206 126 206L604 206ZM685 918L685 314Q679 356 647 386.5Q615 417 570 421Q527 422 525 379.5Q523 337 566 333Q591 331 597.5 297.5Q604 264 604 224L126 224Q109 224 96 236Q83 248 83 266L83 918Q83 936 96 948Q109 960 126 960L640 960Q661 960 672.5 947.5Q684 935 685 918ZM403 477L174 477L174 420L403 420L403 477ZM589 601L174 601L174 545L589 545ZM589 726L174 726L174 670L589 670ZM589 840L174 840L174 784L589 784ZM668 -64L464 -64Q444 -61 432 -45.5Q420 -30 423 -11L423 100Q420 120 432 135.5Q444 151 463 154L622 154Q623 265 614.5 304Q606 343 566 351Q542 352 543 378Q544 404 569 403Q614 399 641 366.5Q668 334 668 283L668 154Q685 154 697.5 138.5Q710 123 710 100L710 -11Q712 -30 699.5 -45.5Q687 -61 668 -64ZM572 115Q539 113 534 84Q529 55 558 44L558 -20Q558 -32 571 -32Q584 -32 584 -20L584 44Q615 54 609 83.5Q603 113 572 115Z" fill="#90a959" />
  </g>
</svg>