<?xml version="1.0" encoding="UTF-8"?>
<svg width="16" height="16" viewBox="0 0 16 16" xmlns="http://www.w3.org/2000/svg">
  <g transform="translate(0.5099999999999998, 14.564721679687501) scale(0.01462890625, -0.01462890625)">
    <path d="M438 819L742 819Q801 819 852 797Q903 775 941.5 736.5Q980 698 1002 647Q1024 596 1024 538L1024 233Q1024 175 1002 124Q980 72 941.5 34Q903 -4 852 -26Q801 -48 742 -48L438 -48Q380 -48 328 -26Q277 -4 239 34Q201 72 179 124Q156 175 156 233L156 538Q156 596 179 647Q201 698 239 736.5Q277 775 328 797Q380 819 438 819ZM199 845Q199 902 149 931Q99 960 50 931Q0 902 0 844.5Q0 787 50 759Q99 730 149 759Q199 788 199 845ZM484 566Q484 627 431 657Q378 687 326 657Q273 627 273 566Q273 505 326 475Q378 445 431 475Q484 505 484 566ZM896 233Q896 286 870 327Q845 368 805 391Q765 414 717 415Q668 417 623 391Q577 365 555 322Q532 279 532 233Q532 187 555 145Q577 102 623 76Q668 49 717 51Q765 53 805 76Q845 99 870 140Q896 181 896 233Z" fill="#6a9fb5" />
  </g>
</svg>