<?xml version="1.0" encoding="UTF-8"?>
<svg width="16" height="16" viewBox="0 0 16 16" xmlns="http://www.w3.org/2000/svg">
  <g transform="translate(1.451171875, 14.125) scale(0.013671875, -0.013671875)">
    <path d="M407 752L236 838L48 745L224 656L407 752ZM486 712L665 622L479 528L303 617ZM725 837L909 745L745 662L565 752L725 837ZM646 877L480 960L316 878L487 792ZM516 162L516 -64L717 36L717 263ZM717 342L717 566L516 466L516 242ZM958 384L958 157L787 71L786 297ZM958 463L958 686L786 601L786 376ZM445 466L310 534L310 240L129 624Q127 627 122.5 630Q118 633 117 634L0 693L0 174L120 109L120 381L286 63Q287 60 297.5 41.5Q308 23 321 15Q339 3 392 -29Q445 -61 445 -61L445 466Z" fill="#4d9085" />
  </g>
</svg>