<?xml version="1.0" encoding="UTF-8"?>
<svg width="16" height="16" viewBox="0 0 16 16" xmlns="http://www.w3.org/2000/svg">
  <g transform="translate(0.020000000000000462, 14.9825) scale(0.015585937499999999, -0.015585937499999999)">
    <path d="M699 664L692 660Q691 661 690 663Q689 665 688 667Q678 681 664.5 688Q651 695 638 694Q639 704 635 714.5Q631 725 623 734Q612 748 597 753.5Q582 759 569 756Q570 758 570.5 760Q571 762 571 765Q571 782 554.5 794.5Q538 807 516 807Q493 807 477 795Q461 783 461 765Q461 764 461 763.5Q461 763 461 762Q450 761 438.5 754.5Q427 748 418 736Q411 726 408 715Q405 704 406 693Q394 693 382.5 687Q371 681 362 670Q360 668 358.5 666Q357 664 356 662L348 668L0 161L83 105L431 611L424 615Q425 616 425.5 616.5Q426 617 426 617Q435 627 438.5 639Q442 651 441 661Q453 662 464.5 668.5Q476 675 485 687Q492 696 495.5 706Q499 716 499 726Q503 725 507 724Q511 723 516 723Q524 723 531.5 725Q539 727 545 730Q543 718 546.5 705Q550 692 559 681Q569 669 582 663Q595 657 607 658Q607 649 610 639Q613 629 619 619Q620 618 621 617.5Q622 617 622 616L613 610L939 89L1024 143L699 664ZM377 659Q385 670 396.5 672.5Q408 675 415 668Q423 662 422.5 650.5Q422 639 414 629Q413 628 412 627Q411 626 410 625L372 652Q373 654 374 656Q375 658 377 659ZM434 726Q442 737 453 740Q464 743 472 737Q480 731 480 719.5Q480 708 472 698Q464 687 453 684Q442 681 434 687Q426 693 426 704.5Q426 716 434 726ZM517 740Q504 741 494.5 748Q485 755 485 765Q485 775 494.5 781.5Q504 788 517 788Q530 788 539 781Q548 774 548 764Q548 754 539 747Q530 740 517 740ZM573 693Q564 703 563.5 715Q563 727 571 733Q579 739 590 736.5Q601 734 609 724Q618 714 618.5 702.5Q619 691 611 684Q604 678 592.5 680.5Q581 683 573 693ZM634 631Q626 641 626.5 653Q627 665 636 670Q644 676 655 672.5Q666 669 673 658Q674 656 675 654Q676 652 677 650L638 626Q637 627 636 628Q635 629 634 631L634 631Z" fill="#66783e" />
  </g>
</svg>