<?xml version="1.0" encoding="UTF-8"?>
<svg width="16" height="16" viewBox="0 0 16 16" xmlns="http://www.w3.org/2000/svg">
  <g transform="translate(0.5099999999999998, 14.55375) scale(0.01462890625, -0.01462890625)">
    <path d="M382 585L382 646Q387 646 391.5 646.5Q396 647 400 647Q463 649 514 626Q565 604 601.5 576.5Q638 549 658 526Q677 503 677 503Q677 503 657 477Q636 451 602 420.5Q568 390 524 364Q479 338 432 338Q418 338 405.5 340Q393 342 382 346L382 532Q431 526 450.5 502.5Q470 479 500 430L587 503Q587 503 541.5 545Q496 587 416 587Q407 587 398.5 586Q390 585 382 585ZM382 787L382 695Q387 696 391.5 696Q396 696 400 696Q487 699 558 670Q629 640 679.5 603.5Q730 567 757 536Q785 506 785 506Q785 506 755 472Q724 439 674.5 399.5Q625 360 561 327Q497 294 429 294Q416 294 404.5 295Q393 296 382 298L382 241Q391 240 401 239.5Q411 239 421 239Q484 239 540 254Q595 269 645 294.5Q695 320 740 355Q786 389 830 427Q845 415 889.5 392Q934 369 947 356Q905 321 838 290Q772 259 698.5 236Q625 213 552 200Q479 186 424 186Q413 186 402.5 187Q392 188 382 189L382 109L1024 109L1024 787L382 787ZM382 346L382 298Q323 308 285 339Q246 370 223.5 403Q201 436 192 462Q183 488 183 488Q183 488 236 531.5Q289 575 382 585L382 532Q382 532 382 532Q382 532 382 532Q333 538 299 508Q265 478 265 478Q265 478 290.5 423Q316 368 382 346ZM105 495Q105 495 122 517Q139 538 174 565Q209 592 261 616Q313 641 382 646L382 695Q305 689 236 659Q167 628 114.5 594Q62 560 31 533Q0 506 0 506Q0 506 20 460Q40 414 85.5 357Q131 300 204 249Q276 199 382 189L382 241Q305 251 252 292Q198 333 165.5 378Q133 423 119 459Q105 495 105 495Z" fill="#90a959" />
  </g>
</svg>