<?xml version="1.0" encoding="UTF-8"?>
<svg width="16" height="16" viewBox="0 0 16 16" xmlns="http://www.w3.org/2000/svg">
  <g transform="translate(-0.4606031436011889, 15.4110845703125) scale(0.016542968749999998, -0.016542968749999998)">
    <path d="M336 175Q320 175 316 207Q313 238 315.5 276.5Q318 315 325 348Q331 380 337 383Q343 381 350 347Q357 314 360 275.5Q363 237 358 205Q353 174 336 175ZM513 367Q507 364 500 314Q493 263 490 203Q487 143 492 94Q496 45 513 45Q530 44 535 93Q539 142 536.5 202Q534 262 526 313Q519 364 513 367ZM687 381Q681 378 674 346Q668 314 665 276Q662 238 666 207Q670 175 685 175Q703 174 707 205Q712 237 709.5 275Q707 313 700 346Q693 378 687 381ZM1006 569Q1006 569 941 539Q876 509 845 488Q834 481 835 477Q836 473 832 444Q823 383 814.5 369Q806 355 797 353Q791 351 783.5 387.5Q776 424 719 433Q722 387 683.5 389.5Q645 392 650 432Q627 427 601 423.5Q575 420 547 418Q554 374 513 374Q472 374 479 417Q451 420 424 423.5Q397 427 372 432Q376 392 337 390.5Q298 389 302 433Q275 429 254.5 407.5Q234 386 228 352Q212 354 202.5 391Q193 428 191 461Q189 477 188 479.5Q187 482 182 485Q147 510 79.5 541Q12 572 12 572Q12 572 2.5 581Q-7 590 8 595Q22 600 45 606.5Q68 613 97 632Q95 660 81.5 675Q68 690 63 698Q84 705 117 689Q150 673 156 667Q156 667 160 669Q164 671 162 688Q156 739 143 769Q130 799 151 827Q161 841 180 846Q199 851 199 851Q192 815 208.5 783Q225 751 256 730Q320 767 385 784Q449 801 513 800Q577 799 642 782Q706 764 770 732Q806 752 819.5 789Q833 826 825 851Q864 843 876 822.5Q888 802 879 767Q870 733 863 703Q856 673 870 668Q898 686 921 694.5Q944 703 962 699Q948 686 938.5 668.5Q929 651 926 632Q926 632 954.5 618Q983 604 1005 599Q1025 594 1024 586Q1023 578 1006 569ZM731 677Q697 602 638 565Q578 527 513 526.5Q448 526 388 563Q328 601 292 677Q251 663 211.5 643.5Q172 624 154 606Q147 599 144.5 592.5Q142 586 141 579Q149 568 170 569Q191 570 199 567Q214 561 212 556.5Q210 552 225 543Q230 540 251.5 540.5Q273 541 305 530Q353 515 391 501Q429 487 514 487Q579 487 613 496Q647 505 697 523Q739 538 768.5 539.5Q798 541 798 541Q809 547 810.5 553.5Q812 560 823 566Q830 571 849 568.5Q868 566 884 577Q886 605 838 630Q790 655 731 677ZM567 709Q565 674 549.5 643Q534 612 530 597Q587 603 635 627Q683 651 696 687Q668 696 636 701.5Q604 707 567 709ZM448 708Q411 705 380.5 700Q350 695 328 687Q345 648 390.5 625.5Q436 603 488 598Q478 618 465 644Q452 670 448 708ZM489 711Q490 694 495.5 653Q501 612 508 614Q517 616 521.5 652Q526 688 527 711Q518 710 508.5 710Q499 710 489 711Z" fill="#8f5536" />
  </g>
</svg>