<?xml version="1.0" encoding="UTF-8"?>
<svg width="16" height="16" viewBox="0 0 16 16" xmlns="http://www.w3.org/2000/svg">
  <g transform="translate(-0.468496093749998, 15.411249999999999) scale(0.016542968749999998, -0.016542968749999998)">
    <path d="M511 357L381 560L381 389L157 766L0 766L0 130L156 130L156 506L378 147L511 357ZM382 603L537 603L537 766L382 766ZM850 389Q816 433 764 425.5Q712 418 693 369Q742 427 781 402.5Q820 378 850 389ZM867 380Q872 371 882 367Q892 363 903 366Q918 369 924 359Q930 349 954 344Q955 363 947.5 368.5Q940 374 922 381Q903 387 889.5 396Q876 405 867 421Q839 474 776 461Q713 448 696 397Q730 442 785.5 438Q841 434 867 380ZM603 485L537 588L382 588L529 357L385 130L536 130L602 231L669 130L820 130L683 345Q673 362 687.5 399Q702 436 730 455Q764 477 810.5 473Q857 469 882 418Q902 392 932.5 389.5Q963 387 963 352Q964 322 993.5 322.5Q1023 323 1023 354Q1022 442 974 500Q926 558 859 578Q792 598 721 577Q650 555 603 485ZM996 276Q996 276 990.5 280.5Q985 285 991 294Q997 304 1007.5 306.5Q1018 309 1023 321Q1026 305 1018 288Q1010 271 996 276Z" fill="#46788d" />
  </g>
</svg>