<?xml version="1.0" encoding="UTF-8"?>
<svg width="16" height="16" viewBox="0 0 16 16" xmlns="http://www.w3.org/2000/svg">
  <g transform="translate(2.6618164062500007, 14.9825) scale(0.015585937499999999, -0.015585937499999999)">
    <path d="M685 849L0 849L0 41L685 41ZM115 770L563 770L563 474L115 474L115 770ZM208 225L85 298L208 374ZM407 93L265 93L265 178L407 178L407 93ZM407 225L265 225L265 372L407 372ZM470 225L470 374L593 298ZM503 960L650 960L650 893L503 893L503 960ZM39 960L465 960L465 893L39 893L39 960ZM650 -1L650 -64L35 -64L35 -1Z" fill="#d28445" />
  </g>
</svg>