<?xml version="1.0" encoding="UTF-8"?>
<svg width="16" height="16" viewBox="0 0 16 16" xmlns="http://www.w3.org/2000/svg">
  <g transform="translate(-0.4705013020833313, 15.411249999999999) scale(0.016542968749999998, -0.016542968749999998)">
    <path d="M321 354Q311 362 303.5 372Q296 382 291 393Q320 408 354 423Q388 439 425.5 455Q463 471 506 487Q548 503 595 520Q599 504 600.5 485.5Q602 467 601 446Q524 431 452 405Q380 379 321 354ZM451 721Q513 721 563 704Q613 688 649.5 659Q686 630 708 591Q730 552 737 506Q743 440 723 387Q703 334 660 296.5Q617 259 554 240Q491 220 411 220Q362 220 319 229Q276 239 241.5 259.5Q207 280 183 313Q159 346 147 392Q131 461 148 521Q164 581 206 625Q248 669 312 694Q375 720 451 721ZM432 289Q511 293 570.5 335.5Q630 378 625 466Q626 542 582 593Q538 644 433 648Q352 648 302 595.5Q252 543 252 457Q252 388 302.5 338.5Q353 289 432 289ZM153 314Q58 252 29 213.5Q0 175 0 175L181 276Q173 285 166 294.5Q159 304 153 314ZM708 175L806 175Q842 201 878 238.5Q914 276 950 318Q976 346 995 383Q1015 419 1021.5 454Q1028 489 1018 518Q1008 547 976 560Q938 579 858.5 573.5Q779 568 748 563Q757 539 761.5 510.5Q766 482 763 451Q821 437 829 398.5Q837 360 816 321Q791 276 761.5 235.5Q732 195 708 175Z" fill="#aa759f" />
  </g>
</svg>