<?xml version="1.0" encoding="UTF-8"?>
<svg width="16" height="16" viewBox="0 0 16 16" xmlns="http://www.w3.org/2000/svg">
  <g transform="translate(0.6590234375000001, 14.981634114583333) scale(0.015585937499999999, -0.015585937499999999)">
    <path d="M0 887L82 159Q85 138 97 122.5Q109 107 125 99L442 -57Q458 -63 473.5 -64Q489 -65 506 -57L822 99Q842 109 853 127.5Q864 146 863 167L942 890Q942 918 920.5 939Q899 960 869 960L73 960Q43 960 20 938Q-3 916 0 887ZM649 351L649 398Q650 442 633 453.5Q616 465 578 464L578 519Q611 519 630 528Q649 537 649 585L649 636Q649 681 671 704Q693 727 744 726L793 726L793 671Q772 672 757 669.5Q742 667 736 660Q713 634 726 568.5Q739 503 681 493Q739 480 726.5 417.5Q714 355 736 326Q741 319 756.5 317Q772 315 793 315L793 260L744 260Q699 260 674 279.5Q649 299 649 351ZM246 555Q272 588 312.5 586Q353 584 367 549L367 581L415 581L415 410Q461 415 473 477.5Q485 540 448 589Q420 627 381 641Q341 656 301.5 650Q262 644 228 620Q194 596 177 559Q148 490 163 431Q179 371 220 336.5Q261 302 317 300Q374 298 427 344L451 304Q405 266 361 258Q316 250 279 258.5Q242 267 215 285Q187 303 175 318Q142 352 126 403Q111 454 117.5 507Q124 560 155 607Q185 654 242 681Q301 704 351 697Q401 689 438.5 661.5Q476 634 497 592Q518 550 518 504Q515 426 472.5 394Q430 362 367 363L367 401Q353 365 314 364Q275 363 251 389Q221 422 222 473Q223 524 246 555ZM362 475Q362 541 318 541Q274 541 274 475Q272 410 318 409.5Q364 409 362 475Z" fill="#be2f31" />
  </g>
</svg>