<?xml version="1.0" encoding="UTF-8"?>
<svg width="16" height="16" viewBox="0 0 16 16" xmlns="http://www.w3.org/2000/svg">
  <g transform="translate(0.5099999999999999, 14.55375) scale(0.01462890625, -0.01462890625)">
    <path d="M556 673L528 690Q523 685 516 684Q509 683 503 687Q497 690 494.5 697Q492 704 494 711L417 759L500 719Q504 723 511 724Q518 725 524 721Q529 718 531.5 713Q534 708 533 702L565 687L556 673ZM938 39Q946 15 932.5 -24.5Q919 -64 867 -64Q841 -64 731 -64Q621 -64 495.5 -64Q370 -64 262 -64Q154 -64 133 -64Q90 -64 75.5 -27Q61 10 67 25Q80 66 101 126Q122 186 129 201Q136 215 150.5 235Q165 255 207 255Q217 255 241.5 255Q266 255 301 255L293 300L332 350Q346 369 354 391Q362 413 362 435L362 516Q362 516 362 516Q362 516 362 516Q357 517 351.5 517.5Q346 518 341 519L341 519L341 435Q341 417 334 398.5Q327 380 314 363L289 330L256 538Q166 564 111 612Q56 660 56 730Q56 781 92 824Q127 866 188.5 896.5Q250 927 332 943Q414 960 508 960Q601 960 685 943Q768 927 831 896.5Q894 866 931 824Q968 781 968 730Q968 652 909 604.5Q850 557 755 533L738 422Q766 415 808 405Q850 395 860 392Q883 385 876.5 339.5Q870 294 837 302Q825 306 786.5 316.5Q748 327 725 334L713 255Q748 255 771.5 255Q795 255 801 255Q824 255 845.5 244.5Q867 234 880 196Q891 165 910.5 114Q930 63 938 39ZM840 318Q847 316 854 323.5Q861 331 864 343Q867 355 864 365Q861 375 855 376Q848 378 841 370.5Q834 363 831 351Q828 339 831 329Q834 319 840 318ZM236 710Q236 719 230 725.5Q224 732 215 732Q206 732 199.5 725.5Q193 719 193 710Q193 701 199.5 695Q206 689 215 689Q224 689 230 695Q236 701 236 710ZM320 710Q320 725 309.5 735.5Q299 746 284 746Q270 746 259.5 735.5Q249 725 249 710Q249 695 259.5 684.5Q270 674 284 674Q299 674 309.5 684.5Q320 695 320 710ZM772 710Q772 701 778 695Q784 689 793 689Q802 689 808.5 695Q815 701 815 710Q815 719 808.5 725.5Q802 732 793 732Q784 732 778 725.5Q772 719 772 710ZM688 710Q688 695 698.5 684.5Q709 674 724 674Q739 674 749.5 684.5Q760 695 760 710Q760 725 749.5 735.5Q739 746 724 746Q709 746 698.5 735.5Q688 725 688 710ZM380 709Q380 656 417.5 619Q455 582 507 582Q560 582 597 619Q634 656 634 709Q634 761 597 798.5Q560 836 507 836Q455 836 417.5 798.5Q380 761 380 709ZM593 391Q593 391 593 391Q593 391 593 391Q593 391 593 391Q593 391 593 391ZM632 512Q567 507 504.5 507.5Q442 508 380 514L380 514L380 471Q380 471 387.5 462.5Q395 454 411 448L411 426Q411 426 417.5 415.5Q424 405 448 405Q453 405 459.5 405Q466 405 473 405L473 388Q473 385 475.5 382Q478 379 481 379L492 379L492 368Q492 365 493.5 363.5Q495 362 498 362L515 362Q517 362 519 363.5Q521 365 521 368L521 379L531 379Q534 379 537 382Q540 385 540 388L540 405Q543 405 546 405Q549 405 552 405Q557 405 562 406Q567 407 572 408Q572 408 572 407.5Q572 407 572 406Q572 401 580 398Q588 395 593 394Q593 404 596 415.5Q599 427 606 434Q605 435 603.5 435Q602 435 601 436L601 446Q612 451 620.5 458.5Q629 466 631 472Q632 476 632 487.5Q632 499 632 512Z" fill="#be2f31" />
  </g>
</svg>