<?xml version="1.0" encoding="UTF-8"?>
<svg width="16" height="16" viewBox="0 0 16 16" xmlns="http://www.w3.org/2000/svg">
  <g transform="translate(1, 14.125) scale(0.013671875, -0.013671875)">
    <path d="M0 513L0 765Q0 819 38 856.5Q76 894 129 894L895 894Q948 894 986 856.5Q1024 819 1024 765L1024 2L599 2Q599 2 584 43.5Q569 85 565 112Q564 119 565 126Q566 133 564 140Q562 146 558.5 148Q555 150 552 155Q545 167 538.5 182Q532 197 532 212Q531 226 527.5 238.5Q524 251 523 264Q523 271 523.5 277.5Q524 284 524 290Q523 294 523 300Q523 306 521 310L523 316Q522 317 533 317Q544 317 548 317Q556 317 563.5 316.5Q571 316 578 316Q594 315 608.5 315.5Q623 316 638 318Q672 323 689.5 334Q707 345 715 351Q746 374 760.5 402Q775 430 775 430Q780 441 782.5 458Q785 475 796 484Q809 495 828 497.5Q847 500 862 507Q871 511 878 512.5Q885 514 894 512Q901 511 910 507.5Q919 504 922 514Q920 516 919 518Q918 520 917 521Q929 523 922 543Q915 563 910 568Q903 577 891 582Q879 587 866 590Q850 594 835.5 597.5Q821 601 806 598Q780 593 774.5 602Q769 611 754 611Q736 611 710 607.5Q684 604 679 586Q676 578 673 575.5Q670 573 665 566Q662 561 664 555.5Q666 550 664 544Q662 538 659 520.5Q656 503 653 495Q648 482 641 468.5Q634 455 622 455Q606 453 592.5 453Q579 453 566 458Q559 461 547.5 465Q536 469 530 471Q499 484 491 495.5Q483 507 483 507Q480 512 457 559Q434 606 430 618Q424 632 416.5 643Q409 654 403 659Q393 668 382.5 677.5Q372 687 353 683Q350 682 339.5 680.5Q329 679 320 671Q313 665 309.5 655Q306 645 300 636Q297 631 291.5 617.5Q286 604 280 591Q277 582 274 575.5Q271 569 267 565Q264 563 256.5 560Q249 557 239 567Q235 571 226.5 585Q218 599 211 611Q191 647 178 663.5Q165 680 142 681Q112 681 103 665.5Q94 650 81 626Q81 626 64.5 587Q48 548 0 513ZM0 221L0 2L198 2Q198 2 206.5 34.5Q215 67 218 76Q220 84 222.5 90Q225 96 226 104Q227 111 226.5 117.5Q226 124 225 130Q224 146 233.5 155Q243 164 249 178Q255 190 259 203.5Q263 217 268 230Q272 242 279.5 256.5Q287 271 299 278Q298 279 281 280Q264 281 257 282Q238 284 214 288.5Q190 293 177 296Q170 298 150.5 305Q131 312 126 314Q113 320 103.5 331.5Q94 343 83 342Q77 341 71 338Q65 335 61 329Q58 323 56 315Q54 307 52 301Q49 294 45 287.5Q41 281 37 274Q30 261 17.5 248Q5 235 0 221ZM552 35Q549 41 545.5 51Q542 61 540 66Q538 71 532.5 81Q527 91 523 95Q516 103 513 107Q510 111 508 122Q504 141 494.5 172Q485 203 473 227Q467 239 457.5 249.5Q448 260 439 269Q430 277 416 287.5Q402 298 399 297Q368 291 354.5 266.5Q341 242 327 218Q319 205 311 193Q303 181 297 167Q291 155 289 141.5Q287 128 277 117Q267 106 260 93.5Q253 81 248 67Q247 64 241 33Q235 2 235 2L565 2L564 3Q561 13 557 22.5Q553 32 552 35Z" fill="#be2f31" />
  </g>
</svg>