<?xml version="1.0" encoding="UTF-8"?>
<svg width="16" height="16" viewBox="0 0 16 16" xmlns="http://www.w3.org/2000/svg">
  <g transform="translate(0.5099999999999998, 14.558913924257034) scale(0.01462890625, -0.01462890625)">
    <path d="M92 634L55 634Q32 634 16 618Q0 602 0 580L0 341Q0 318 16 302Q32 286 55 286L166 286Q227 173 316 94Q404 16 501.5 -22.5Q599 -61 697 -56Q794 -51 873 4L991 4Q1005 4 1014.5 13.5Q1024 23 1024 37L1024 197Q1024 206 1020 213Q1016 220 1010 224Q1020 274 1019 327Q1018 380 1006 434.5Q994 489 972 544Q950 598 918 650Q920 652 921 655Q922 658 922 662L922 786Q922 795 915 802Q908 809 898 809L783 809Q678 900 564 933Q450 967 351.5 944Q253 921 182 844Q112 766 92 634ZM331 301Q339 308 343.5 318.5Q348 329 348 341L348 580Q348 602 332 618Q316 634 294 634L257 634Q275 716 323 771Q371 826 438 847.5Q505 869 586 855Q667 841 751 784L751 662Q751 652 758 645Q765 638 774 638L890 638Q922 588 941 535Q961 481 967 428Q973 375 966 324Q959 274 938 230L831 230Q817 230 807.5 220.5Q798 211 798 197L798 98Q740 77 678 80Q616 82 555 107.5Q494 133 436 181Q379 230 331 301Z" fill="#a35f27" />
  </g>
</svg>