<?xml version="1.0" encoding="UTF-8"?>
<svg width="16" height="16" viewBox="0 0 16 16" xmlns="http://www.w3.org/2000/svg">
  <g transform="translate(0.5251725480363176, 14.523413305664063) scale(0.01462890625, -0.01462890625)">
    <path d="M180 54L690 937Q959 810 1006 592Q1053 373 952 196.5Q851 20 639 -49Q428 -118 180 54ZM726 819L300 83Q475 -11 630 45Q785 100 866 230Q947 360 926 526Q904 692 726 819ZM602 953L121 114Q10 259 1 419Q-7 578 64 706Q135 834 275 907Q415 980 602 953ZM450 867Q450 867 420 860Q390 854 345.5 833.5Q301 813 249 774Q197 735 153 671Q108 606 98 538Q88 471 93 416Q98 361 110 326Q122 291 122 291L450 867Z" fill="#6a9fb5" />
  </g>
</svg>