<?xml version="1.0" encoding="UTF-8"?>
<svg width="16" height="16" viewBox="0 0 16 16" xmlns="http://www.w3.org/2000/svg">
  <g transform="translate(0.8106321022727281, 14.981242904713115) scale(0.015585937499999999, -0.015585937499999999)">
    <path d="M273 185L29 99Q12 94 4.5 110Q-3 126 1 135L396 546Q403 554 408.5 562Q414 570 412 580L380 757Q373 784 396 790.5Q419 797 429 776L528 569Q534 559 533 547Q532 535 525 525L289 197Q286 193 282 189.5Q278 186 273 185ZM711 470L567 101Q564 93 559 87Q554 81 547 76L337 -60Q316 -72 304.5 -53.5Q293 -35 302 -23L585 468Q590 476 591 483.5Q592 491 588 500L515 658Q502 681 520.5 694Q539 707 550 696L705 511Q712 503 713.5 492Q715 481 711 470ZM811 272Q798 246 777.5 259Q757 272 763 298L802 470Q804 475 802.5 480Q801 485 798 489L410 916Q396 932 408 949Q420 966 440 958L683 864L915 517Q921 508 921.5 497Q922 486 917 477Z" fill="#7f7f7f" />
  </g>
</svg>