<?xml version="1.0" encoding="UTF-8"?>
<svg width="16" height="16" viewBox="0 0 16 16" xmlns="http://www.w3.org/2000/svg">
  <g transform="translate(0.020000000000000462, 14.9825) scale(0.015585937499999999, -0.015585937499999999)">
    <path d="M790 -64L234 -64Q186 -64 143 -46Q101 -27 69 5Q37 37 18 79Q0 122 0 170L0 726Q0 774 18 817Q37 859 69 891Q101 923 143 942Q186 960 234 960L790 960Q838 960 881 942Q923 923 955 891Q987 859 1006 817Q1024 774 1024 726L1024 170Q1024 122 1006 79Q987 37 955 5Q923 -27 881 -46Q838 -64 790 -64ZM813 488Q781 510 745 499Q709 488 694 455L523 471Q522 482 519 492.5Q516 503 512 513L617 597Q647 577 684 588.5Q721 600 734 638Q749 681 719 716Q689 751 645 742Q607 735 590 702Q573 669 585 636L480 550Q458 569 434.5 576Q411 583 371 576L339 634Q365 659 363 696.5Q361 734 329 756Q291 783 248.5 764Q206 745 201 699Q197 659 222 634Q247 609 293 612L329 551Q287 515 287 458.5Q287 402 333 368L291 280Q256 284 227.5 260Q199 236 201 199Q203 154 244 133.5Q285 113 324 137Q358 159 361 197Q364 235 337 260L378 347Q399 342 420 345.5Q441 349 460 358L564 247Q545 216 558 179.5Q571 143 609 130Q652 115 686 145Q720 175 710 220Q701 257 668 274Q635 291 602 279L498 390Q503 397 507.5 405Q512 413 515 421L690 405Q698 369 732 351Q766 333 801 350Q843 369 847 415Q851 461 813 488Z" fill="#66783e" />
  </g>
</svg>