<?xml version="1.0" encoding="UTF-8"?>
<svg width="16" height="16" viewBox="0 0 16 16" xmlns="http://www.w3.org/2000/svg">
  <g transform="translate(0.5088450863486829, 14.55375) scale(0.01462890625, -0.01462890625)">
    <path d="M1015 349Q1025 403 1023.5 458Q1022 513 1018 567Q1021 618 1023.5 669.5Q1026 721 1019 772Q1016 800 990 803.5Q964 807 943 811Q940 820 937 829Q934 838 931 847Q891 854 850 855Q809 856 768 855.5Q727 855 686 854Q645 853 604 855L604 948L535 948L0 855L0 41L531 -52L604 -52L604 40L860 40Q878 41 896.5 41.5Q915 42 930 52Q938 64 939.5 79Q941 94 944 108Q964 112 989.5 116Q1015 120 1019 147Q1024 197 1023.5 248Q1023 299 1015 349ZM429 261Q410 262 391.5 263Q373 264 354 265Q320 332 283.5 398Q247 464 213 531Q215 466 214.5 401.5Q214 337 214 273Q198 274 182.5 275Q167 276 151 277Q151 321 151 365Q151 410 151 454Q151 498 151 543Q151 587 151 631Q169 632 187 633Q205 634 223 635Q257 573 291.5 510.5Q326 448 359 385Q359 385 359 413Q359 441 359 481.5Q359 522 359 566Q359 611 359 643Q377 644 394.5 645Q412 646 429 647Q429 598 429 550Q429 502 429 454Q429 406 429 358Q429 309 429 261ZM907 607L907 96L604 96L604 169L825 169L825 215L604 215L604 274L825 274L825 320L604 320L604 378L825 378L825 425L604 425L604 483L825 483L825 529L604 529L604 588L825 588L825 634L604 634L604 692L825 692L825 739L604 739Q604 739 604 759.5Q604 780 604 800L907 800L907 754Q927 754 940 753.5Q953 753 973 752Q974 706 974.5 680.5Q975 655 973 609Q953 608 930 607.5Q907 607 907 607ZM987 148Q976 147 964.5 146.5Q953 146 941 145Q941 192 941 238.5Q941 285 941 332Q953 332 964.5 331.5Q976 331 987 330Q988 284 988 238.5Q988 193 987 148ZM987 368Q975 367 964 366.5Q953 366 941 366Q941 413 941 459.5Q941 506 941 553Q953 553 964 552.5Q975 552 987 551Q988 505 988.5 459.5Q989 414 987 368Z" fill="#825078" />
  </g>
</svg>