<?xml version="1.0" encoding="UTF-8"?>
<svg width="16" height="16" viewBox="0 0 16 16" xmlns="http://www.w3.org/2000/svg">
  <g transform="translate(2.361242370605469, 14.55375) scale(0.01462890625, -0.01462890625)">
    <path d="M403 504Q406 580 426 645Q446 711 481 767.5Q516 824 565 872Q614 920 675 960L679 928Q679 928 670.5 905Q662 882 663 864Q665 846 714.5 814Q764 782 773 728Q773 706 743 705.5Q713 705 666 710Q666 710 663.5 646.5Q661 583 691 535Q703 516 697.5 461.5Q692 407 693 351Q694 307 667 260Q640 213 611 202Q574 189 551.5 146Q529 103 561 20L581 -22L447 -26Q447 -26 440.5 25Q434 76 413 76Q392 76 334.5 105.5Q277 135 277 154Q277 174 242 147.5Q207 121 207 88Q207 55 225 22.5Q243 -10 243 -10Q243 -10 230.5 -23Q218 -36 167 -30Q170 -48 154.5 -56Q139 -64 139 -64Q119 -61 111 -44.5Q103 -28 91 -28Q65 -28 64 22.5Q63 73 58 159L18 197L15 376Q15 376 1.5 414Q-12 452 25 480Q63 509 90 524Q117 539 153 512Q162 505 202 503Q243 501 287.5 501Q332 501 367 503Q403 504 403 504Z" fill="#90a959" />
  </g>
</svg>