<?xml version="1.0" encoding="UTF-8"?>
<svg width="16" height="16" viewBox="0 0 16 16" xmlns="http://www.w3.org/2000/svg">
  <g transform="translate(0.5025071455792678, 14.55406258346688) scale(0.01462890625, -0.01462890625)">
    <path d="M119 475Q123 551 178 585Q233 619 308 583Q341 685 427 733Q514 782 607 772.5Q700 763 775 692Q850 622 859 484Q939 472 981 421Q1023 370 1024 309.5Q1025 249 985 195Q944 140 859 122L156 122Q84 137 45 184Q6 232 1 287.5Q-4 343 25 396Q55 449 119 475Z" fill="#6a9fb5" />
  </g>
</svg>