<?xml version="1.0" encoding="UTF-8"?>
<svg width="16" height="16" viewBox="0 0 16 16" xmlns="http://www.w3.org/2000/svg">
  <g transform="translate(0.8235416666666673, 14.9825) scale(0.015585937499999999, -0.015585937499999999)">
    <path d="M811 214Q667 154 615.5 117Q564 80 460 -64Q359 64 320 103Q281 142 111 211L111 455Q107 460 88 484Q69 508 48.5 540.5Q28 573 12 607Q-3 642 1 667Q5 698 34 748Q64 798 97 845Q130 892 157 926Q184 960 184 960Q184 960 176 929Q167 899 156.5 857.5Q146 816 138 775Q130 733 132 712Q133 686 164 658Q195 630 205 622Q258 677 323 707Q388 736 456 737.5Q524 739 591 711Q658 684 717 624Q730 634 758 660.5Q786 687 788 712Q790 733 782 775Q774 816 763.5 857.5Q753 899 744 929Q736 960 736 960Q736 960 763 926Q790 892 823 845Q856 798 885 748Q915 698 919 667Q923 643 909 610Q895 578 875.5 547Q856 516 837 491Q818 466 811 458L811 214ZM505 467Q505 492 483 505Q461 518 439 505Q417 493 417 467.5Q417 442 439 429Q461 416 483 429Q505 442 505 467Z" fill="#75b5aa" />
  </g>
</svg>