<?xml version="1.0" encoding="UTF-8"?>
<svg width="16" height="16" viewBox="0 0 16 16" xmlns="http://www.w3.org/2000/svg">
  <g transform="translate(0.5031640625000007, 14.977754281850963) scale(0.015585937499999999, -0.015585937499999999)">
    <path d="M592 145L592 119L962 119L962 130Q787 147 752.5 164Q718 181 678 236L523 434L798 669Q843 710 847 751.5Q851 793 820 824Q731 905 631 935Q532 966 435.5 958Q339 950 254 908Q170 867 111 802Q205 871 297 897Q389 923 467.5 920Q546 917 606 893Q665 868 694 835Q717 811 724 780.5Q731 750 699 717L461 514L319 695Q303 716 316.5 728Q330 740 374 740L374 763L0 763L0 757Q129 745 185 730Q241 715 275 667L421 481L144 245Q104 209 98.5 158.5Q93 108 127 70Q157 40 195 16Q233 -8 276 -25.5Q319 -43 365 -53Q410 -62 455 -64Q527 -66 592 -52Q657 -38 710.5 -13.5Q764 11 804 43Q845 76 869 112Q839 84 797 55Q755 25 700.5 3Q646 -19 581 -27Q516 -36 441 -21Q327 2 281 38Q234 74 225.5 108.5Q217 143 231 170Q246 198 254 203L485 401L647 194Q662 175 647.5 159Q633 143 592 145Z" fill="#ff00cc" />
  </g>
</svg>