<?xml version="1.0" encoding="UTF-8"?>
<svg width="16" height="16" viewBox="0 0 16 16" xmlns="http://www.w3.org/2000/svg">
  <g transform="translate(0.4902312077702696, 14.55386082504735) scale(0.01462890625, -0.01462890625)">
    <path d="M568 281L631 -64L389 -64L452 280Q384 306 358.5 378Q333 450 377 517Q403 556 442 574Q481 593 522 591.5Q563 590 599 568Q636 546 657 505Q691 439 661.5 372.5Q632 306 568 281ZM953 698Q878 828 757 894Q637 959 507.5 960Q378 961 259 896Q139 832 67 703Q12 606 3 503Q-7 401 20 305.5Q47 210 107 129Q167 49 251 -4L286 216Q254 251 233 295Q213 340 207 388Q201 436 210 486Q220 536 247 583Q292 660 365 698Q437 736 515 735.5Q593 735 665 695Q737 656 780 578Q807 531 815 481Q824 431 817 383Q810 335 789 291Q768 248 735 212L766 -15Q854 35 915 116Q977 196 1004 292.5Q1031 389 1021 494Q1010 599 953 698Z" fill="#d28445" />
  </g>
</svg>