<?xml version="1.0" encoding="UTF-8"?>
<svg width="16" height="16" viewBox="0 0 16 16" xmlns="http://www.w3.org/2000/svg">
  <g transform="translate(-1.0300000000000011, 15.903613281250003) scale(0.017636718750000002, -0.017636718750000002)">
    <path d="M783 457L863 457L863 356L837 356L832 377Q811 344 750.5 355.5Q690 367 687 448Q686 494 712 519Q737 543 768.5 546.5Q800 550 828 533Q856 517 860 481L820 481Q815 506 793 510.5Q771 515 754 505Q740 497 734 481Q728 465 728 448Q729 420 743.5 401.5Q758 383 787 386Q801 388 812.5 396.5Q824 405 826 426L783 426L783 457ZM931 391L931 542L889 542L889 356L1024 356L1024 391L931 391ZM290 400Q275 366 236.5 355.5Q198 345 166 362Q206 329 271 305Q337 282 415 275.5Q493 269 576 282Q659 294 734 333Q638 255 512 235Q385 214 271 236Q157 258 78 315Q-1 372 0 448Q1 529 83 585Q166 642 282 662Q398 682 523 660Q648 638 734 563Q670 599 590 613Q509 627 430 622Q351 617 281 595Q212 573 169 538Q217 563 271 524Q325 485 290 400ZM152 409Q169 370 210.5 372Q252 374 267 410Q284 449 268 487Q252 525 209 526Q169 527 151 487Q133 447 152 409ZM669 356L669 434Q670 453 661.5 463Q653 473 640 476Q627 479 611 475Q595 471 587 456L587 475L568 475L568 356L588 356L588 423Q588 440 600.5 452Q613 464 634 457Q640 456 644 451Q648 446 649 436L649 356ZM338 475L338 459Q343 473 372 477Q401 481 419 459Q426 451 429.5 440Q433 429 433 415Q433 408 430 393.5Q427 379 416 368Q404 355 378.5 353.5Q353 352 338 372L338 311L318 311L318 475L338 475ZM357 376Q374 367 393 374Q412 381 413 415Q414 443 394.5 455Q375 467 357 455Q338 442 338 415.5Q338 389 357 376ZM464 409Q464 401 467 392.5Q470 384 477 378Q489 369 509 371.5Q529 374 533 394L553 394Q547 361 517 355.5Q487 350 467 363Q453 372 448 387Q443 402 443 416Q443 478 500.5 477.5Q558 477 555 409L464 409ZM464 427L533 427Q529 462 497.5 460.5Q466 459 464 427Z" fill="#4d9085" />
  </g>
</svg>