<?xml version="1.0" encoding="UTF-8"?>
<svg width="16" height="16" viewBox="0 0 16 16" xmlns="http://www.w3.org/2000/svg">
  <g transform="translate(0.020000000000000462, 14.9825) scale(0.015585937499999999, -0.015585937499999999)">
    <path d="M1024 882Q1024 914 1001 937Q978 960 946 960L78 960Q46 960 23 937Q0 914 0 882L0 584L116 584L0 312L0 14Q0 -18 23 -41Q46 -64 78 -64L946 -64Q978 -64 1001 -41Q1024 -18 1024 14L1024 312L908 312L1024 584ZM488 320Q464 334 464 361.5Q464 389 488 402Q512 416 536 402.5Q560 389 560 361Q560 334 536 320Q512 306 488 320ZM396 228Q373 242 373 269.5Q373 297 396 311Q420 324 444 310.5Q468 297 468 269Q468 242 444 228Q420 214 396 228ZM580 228Q556 242 556 269.5Q556 297 580 311Q604 324 627.5 310.5Q651 297 651 269Q651 242 627.5 228Q604 214 580 228ZM305 136Q281 150 281 177.5Q281 205 305 219Q328 233 352 219Q376 205 376 178Q376 150 352 136.5Q328 123 305 136ZM488 136Q464 150 464 177.5Q464 205 488 219Q512 233 536 219Q560 205 560 178Q560 150 536 136.5Q512 123 488 136ZM672 136Q648 150 648 177.5Q648 205 672 219Q695 233 719 219Q743 205 743 178Q743 150 719 136.5Q695 123 672 136ZM213 45Q189 58 189 85.5Q189 113 213 127Q236 141 260 127Q284 113 284 86Q284 58 260 44.5Q236 31 213 45ZM396 45Q373 58 373 85.5Q373 113 396 127Q420 141 444 127Q468 113 468 86Q468 58 444 44.5Q420 31 396 45ZM580 45Q556 58 556 85.5Q556 113 580 127Q604 141 627.5 127Q651 113 651 86Q651 58 627.5 44.5Q604 31 580 45ZM763 45Q740 58 740 85.5Q740 113 763 127Q787 141 811 127Q835 113 835 86Q835 58 811 44.5Q787 31 763 45ZM498 512Q485 520 485 536Q485 552 498 560Q512 567 525.5 559.5Q539 552 539 536Q539 520 525.5 512.5Q512 505 498 512ZM439 572Q426 579 426 595Q426 611 439 619Q453 627 466.5 619Q480 611 480 595Q480 580 466.5 572Q453 564 439 572ZM557 572Q544 579 544 595Q544 611 557 619Q571 627 584.5 619Q598 611 598 595Q598 580 584.5 572Q571 564 557 572ZM617 631Q603 639 603 654.5Q603 670 617 678Q630 686 644 678Q658 670 658 654Q658 639 644 631Q630 623 617 631ZM498 631Q485 639 485 654.5Q485 670 498 678Q512 686 525.5 678Q539 670 539 654Q539 639 525.5 631Q512 623 498 631ZM380 631Q366 639 366 654.5Q366 670 380 678Q394 686 407.5 678Q421 670 421 654Q421 639 407.5 631Q394 623 380 631ZM557 690Q544 698 544 713.5Q544 729 557 737Q571 745 584.5 737Q598 729 598 714Q598 698 584.5 690Q571 682 557 690ZM676 690Q662 698 662 713.5Q662 729 676 737Q689 745 703 737Q717 729 717 714Q717 698 703 690Q689 682 676 690ZM439 690Q426 698 426 713.5Q426 729 439 737Q453 745 466.5 737Q480 729 480 714Q480 698 466.5 690Q453 682 439 690ZM321 690Q307 698 307 713.5Q307 729 321 737Q334 745 348 737Q362 729 362 714Q362 698 348 690Q334 682 321 690ZM498 749Q485 757 485 773Q485 789 498 797Q512 804 525.5 796.5Q539 789 539 773Q539 757 525.5 749Q512 741 498 749ZM617 749Q603 757 603 773Q603 789 617 797Q630 804 644 796.5Q658 789 658 773Q658 757 644 749Q630 741 617 749ZM735 749Q721 757 721 773Q721 789 735 797Q749 804 762.5 796.5Q776 789 776 773Q776 757 762.5 749Q749 741 735 749ZM380 749Q366 757 366 773Q366 789 380 797Q394 804 407.5 796.5Q421 789 421 773Q421 757 407.5 749Q394 741 380 749ZM262 749Q248 757 248 773Q248 789 262 797Q275 804 289 796.5Q303 789 303 773Q303 757 289 749Q275 741 262 749ZM557 809Q544 816 544 832Q544 848 557 856Q571 864 584.5 856Q598 848 598 832Q598 816 584.5 808.5Q571 801 557 809ZM676 809Q662 816 662 832Q662 848 676 856Q689 864 703 856Q717 848 717 832Q717 816 703 808.5Q689 801 676 809ZM794 809Q780 816 780 832Q780 848 794 856Q808 864 821.5 856Q835 848 835 832Q835 816 821.5 808.5Q808 801 794 809ZM439 809Q426 816 426 832Q426 848 439 856Q453 864 466.5 856Q480 848 480 832Q480 816 466.5 808.5Q453 801 439 809ZM321 809Q307 816 307 832Q307 848 321 856Q334 864 348 856Q362 848 362 832Q362 816 348 808.5Q334 801 321 809ZM203 809Q189 816 189 832Q189 848 203 856Q216 864 230 856Q244 848 244 832Q244 816 230 808.5Q216 801 203 809Z" fill="#46788d" />
  </g>
</svg>