<?xml version="1.0" encoding="UTF-8"?>
<svg width="16" height="16" viewBox="0 0 16 16" xmlns="http://www.w3.org/2000/svg">
  <g transform="translate(2.176907649253732, 14.978832720588235) scale(0.015585937499999999, -0.015585937499999999)">
    <path d="M446 960Q434 960 425.5 951.5Q417 943 417 931Q417 914 431.5 905.5Q446 897 461 905Q476 914 476 931Q476 948 461 956Q457 958 453.5 959Q450 960 446 960ZM452 865Q443 865 436.5 858.5Q430 852 430 842L430 842Q430 829 441 822.5Q452 816 464 823Q475 829 475 842Q475 855 464 862Q461 863 458 864Q455 865 452 865ZM699 837Q695 837 691 836.5Q687 836 684 833Q669 825 669 808Q669 791 683 782Q698 774 713 782.5Q728 791 728 808Q728 821 719 829Q710 837 699 837ZM214 803Q210 803 206.5 802Q203 801 199 799Q184 791 184 774Q184 757 199 748Q214 740 228.5 748.5Q243 757 243 774Q243 786 234 794.5Q225 803 214 803ZM458 785Q451 785 445 780Q439 775 439 767L439 767Q439 756 448.5 750.5Q458 745 467 751Q477 756 477 766.5Q477 777 467 783Q465 784 462.5 784.5Q460 785 458 785ZM625 781Q622 781 619 780.5Q616 780 614 778L614 778Q602 771 602 758Q602 745 613 739Q625 732 636 738.5Q647 745 647 758Q647 768 640.5 774.5Q634 781 625 781ZM294 757Q291 757 288 756.5Q285 756 282 754Q271 748 271 735Q271 722 282 715Q293 709 304.5 715.5Q316 722 316 735Q316 745 309 751Q302 757 294 757ZM562 734Q560 734 557.5 733.5Q555 733 553 732Q544 727 544 716Q544 705 553 700Q562 694 571.5 699.5Q581 705 581 716Q581 724 575.5 729Q570 734 562 734ZM362 721Q359 721 356.5 720Q354 719 352 718Q343 713 343 702Q343 691 352 686Q361 680 370.5 685.5Q380 691 380 702Q380 710 374.5 715Q369 720 362 721ZM463 719Q457 719 452.5 715Q448 711 448 705Q448 697 455.5 693Q463 689 470 693Q477 697 477.5 705.5Q478 714 471 718Q469 719 467 719Q465 719 463 719ZM511 695Q509 695 507 694.5Q505 694 504 693Q496 689 496.5 681Q497 673 504 669Q512 664 519 668Q526 672 526 680Q526 687 521.5 691Q517 695 511 695ZM417 690Q406 689 404 680.5Q402 672 406 666L89 618L89 589L159 565Q104 510 62 445Q21 380 6.5 313Q-8 246 11 182Q30 118 96 63Q119 44 157 20Q196 -4 237 -24Q278 -44 316 -56Q354 -68 375 -63Q441 -61 501 -19Q561 23 594.5 79.5Q628 136 626 193Q623 250 566 280L435 328Q377 319 351.5 292Q326 265 317 236L430 178Q443 201 462 224Q481 247 527 257Q531 222 517 178Q504 133 469 96.5Q434 60 376 40Q317 20 230 35Q204 93 222 156Q240 220 281.5 279Q323 338 380 389Q437 439 490 471L594 441L594 472L515 612Q526 614 528.5 624Q531 634 521 639Q516 642 510.5 640.5Q505 639 502 634L478 677L430 670Q434 678 428.5 684Q423 690 417 690ZM570 618Q562 618 556.5 613Q551 608 551 600Q551 589 560.5 583.5Q570 578 579 584Q588 589 588 600Q588 611 579 616L579 616Q577 617 574.5 617.5Q572 618 570 618ZM638 589Q629 589 622.5 583Q616 577 616 567Q616 554 627 547.5Q638 541 649 547Q661 554 661 567Q661 580 649 586Q647 588 644 588.5Q641 589 638 589ZM717 557Q706 557 697 549Q688 541 688 528Q688 511 703 502.5Q718 494 732 503Q747 511 747 528Q747 545 732 553L732 553Q729 556 725 556.5Q721 557 717 557Z" fill="#d28445" />
  </g>
</svg>