<?xml version="1.0" encoding="UTF-8"?>
<svg width="16" height="16" viewBox="0 0 16 16" xmlns="http://www.w3.org/2000/svg">
  <g transform="translate(-0.47083644224017007, 15.411249999999999) scale(0.016542968749999998, -0.016542968749999998)">
    <path d="M584 889Q589 887 590.5 882.5Q592 878 593 873Q595 860 595 847Q595 834 599 821Q604 805 610.5 806.5Q617 808 622 823Q623 826 624.5 830Q626 834 627 838L635 835Q631 825 631 811Q631 797 644 794L658 839Q677 834 672 814.5Q667 795 677 783Q687 770 692 782.5Q697 795 699 802Q699 804 700.5 807Q702 810 705 808Q708 806 707.5 802.5Q707 799 707 797Q706 792 707 779.5Q708 767 714 766Q719 765 723 768Q727 771 730 774Q738 781 745 790Q752 799 756 810Q757 813 760 820.5Q763 828 769 825Q773 823 771 816Q769 809 768 806Q764 793 759.5 778.5Q755 764 758 750Q762 739 772.5 748Q783 757 786 761Q788 762 791 764Q794 766 796 763Q802 754 785.5 744Q769 734 785 725Q787 728 788.5 731Q790 734 792 736Q794 738 795 739.5Q796 741 797 743Q801 747 805.5 746.5Q810 746 808 739Q807 732 801 720Q795 708 802 702Q808 698 819 704Q830 710 837 712Q839 702 828.5 698Q818 694 820 685Q821 679 829 680.5Q837 682 840 684Q853 687 864.5 692.5Q876 698 887 705Q890 707 894.5 710.5Q899 714 903 710Q907 706 902 700Q897 694 894 691Q886 682 877.5 673Q869 664 863 653Q856 640 859 635Q862 630 876 632Q882 633 888 634.5Q894 636 900 636Q896 626 882.5 623Q869 620 868 609Q867 597 875 590.5Q883 584 891 577Q896 571 901 563Q906 555 911 548Q915 542 917.5 533Q920 524 909 523Q909 518 909 511.5Q909 505 911 501Q914 493 921.5 485.5Q929 478 933 470Q943 453 950 433.5Q957 414 959 394Q980 394 983.5 372.5Q987 351 1006 344Q1011 343 1015 345Q1019 347 1023 348Q1030 318 992.5 307Q955 296 938 315L937 315Q930 305 920.5 296Q911 287 902 278Q900 275 895 271.5Q890 268 889 264Q888 258 895.5 250Q903 242 906 238Q907 237 909 234Q911 231 909 229Q907 228 903.5 230Q900 232 898 233Q891 238 884.5 242.5Q878 247 869 250Q868 244 869.5 238.5Q871 233 874 228Q875 225 877.5 222Q880 219 878 216Q876 213 872 214.5Q868 216 866 216Q859 219 853 221Q847 223 844 212Q844 210 844 208Q844 206 844 205Q848 187 866 176Q884 165 885 148L874 147Q867 157 849 165Q831 173 819 173Q813 173 805.5 168Q798 163 797 157Q796 150 804.5 138Q813 126 817 120Q820 116 821.5 111.5Q823 107 817 103Q804 96 794 115.5Q784 135 774 139Q766 141 754 131Q742 121 735 119L742 82L756 44Q749 46 744 51.5Q739 57 735 62Q723 75 710 87Q697 99 678 98Q679 88 681 78Q683 68 684 58Q685 54 684.5 49.5Q684 45 679 43Q675 41 671 44Q667 47 665 50Q660 60 657 70.5Q654 81 650 91Q646 90 641.5 89Q637 88 634 86Q627 79 624.5 63.5Q622 48 621 39Q620 32 620 20.5Q620 9 613 7L593 62L583 84L565 86Q565 76 562.5 59Q560 42 550 37Q546 48 546 62.5Q546 77 539 86Q533 95 525.5 91Q518 87 515 80Q510 70 505 59.5Q500 49 497 39Q496 35 495 29Q494 23 491 21Q488 19 485.5 21Q483 23 481 25Q483 39 482 53.5Q481 68 478 82Q477 88 475.5 94Q474 100 471 104Q466 109 458.5 110.5Q451 112 445 115L430 75Q427 75 423 75.5Q419 76 417 78Q408 90 418 107.5Q428 125 405 129Q401 130 397.5 126.5Q394 123 391 120Q384 112 378.5 102.5Q373 93 368 84Q367 81 363.5 74Q360 67 356 70Q351 74 354 87Q357 100 358 106Q360 115 362 129.5Q364 144 359 153Q356 159 349 163.5Q342 168 336 171Q327 176 319 163.5Q311 151 308 144Q306 141 302 138.5Q298 136 294 140Q291 144 294 152Q297 160 299 164Q304 178 305.5 187Q307 196 293 206Q282 214 265 198.5Q248 183 242 175Q240 173 234.5 166Q229 159 225 163Q222 167 227 175Q232 183 234 187Q240 199 248.5 218Q257 237 253 251Q249 267 236.5 261Q224 255 216 248Q215 247 210.5 243Q206 239 203 242Q201 245 203.5 249Q206 253 208 255Q213 261 220 270Q227 279 228 287Q229 296 222 307.5Q215 319 212 328Q202 325 199 311.5Q196 298 192 290Q185 276 171 268Q157 260 143 256Q139 255 133 254Q127 253 123 254Q120 255 120 257Q120 259 122 260Q124 262 127 263Q130 264 132 267Q140 276 137.5 288Q135 300 133 310Q123 350 101.5 385.5Q80 421 54 452Q48 458 41 465Q34 472 26 474Q19 475 11 471Q3 467 0 475Q20 488 45 501Q70 514 95 502Q110 494 124 483Q138 472 151 462Q156 458 162.5 451.5Q169 445 176 445Q184 444 192.5 456.5Q201 469 197 476Q192 486 177.5 490Q163 494 154 499L154 502Q164 505 179.5 499.5Q195 494 203 503Q206 507 203 511Q200 515 197 517Q188 524 177 529.5Q166 535 159 544Q155 549 158 554Q161 559 167 560Q173 560 178 557.5Q183 555 188 553Q195 550 201.5 548Q208 546 216 546L223 572L187 588L187 591L224 590Q219 596 213.5 602Q208 608 202 614Q198 618 194.5 621.5Q191 625 187 628Q184 630 182 632Q180 634 178 636Q171 641 170.5 647.5Q170 654 181 651Q195 647 206 639Q217 631 232 629Q236 628 243.5 628.5Q251 629 253 634Q257 641 245.5 649.5Q234 658 233 666L270 650L238 686L226 703L230 714Q245 714 257 704Q269 694 281 686Q284 684 290.5 680Q297 676 302 679Q307 683 307 688.5Q307 694 306 699Q302 710 295 720Q288 730 280 739Q278 742 272.5 748Q267 754 271 759Q275 763 280.5 757.5Q286 752 288 749Q297 740 306.5 731.5Q316 723 328 719Q333 718 340.5 719.5Q348 721 347 729Q346 732 344 735.5Q342 739 341 743Q339 748 336 753.5Q333 759 332 765Q344 767 349.5 753Q355 739 366 738Q373 738 371.5 745.5Q370 753 369 756Q364 769 359 785.5Q354 802 354 816Q357 816 360.5 816.5Q364 817 366 816Q379 809 382 789Q385 769 400 763Q407 761 411 769.5Q415 778 414 783Q414 801 406.5 818Q399 835 395 852Q404 856 409 847.5Q414 839 418 833Q426 818 437 803.5Q448 789 467 789L466 826Q479 823 479.5 807Q480 791 498 790Q499 797 499 803Q499 809 498 816Q497 820 496.5 824Q496 828 496 832Q495 838 498 849.5Q501 861 509 848Q517 836 519.5 815Q522 794 541 797L535 837Q548 836 548 822Q548 808 559 807Q564 806 567.5 814Q571 822 572 825Q577 841 577.5 857.5Q578 874 584 889L584 889ZM586 851Q585 823 574.5 805Q564 787 533 786L547 729Q535 741 529.5 756.5Q524 772 519 788Q516 798 512.5 807.5Q509 817 507 828L506 828Q506 810 508 793Q510 776 507 758Q505 749 500.5 740.5Q496 732 493 723L492 723L499 780Q478 778 459.5 779Q441 780 427 801Q424 805 421.5 810Q419 815 417 820L416 820Q418 804 425 786.5Q432 769 416 755Q413 753 410 751.5Q407 750 404 749L424 718L436 703Q412 719 396 745Q380 771 368 797L367 797Q370 776 379.5 756.5Q389 737 392 716Q393 708 394 699Q395 690 389 685L378 734Q367 728 357 715.5Q347 703 332 706Q326 707 320.5 711Q315 715 309 717Q312 708 316.5 699.5Q321 691 317 681Q315 677 312.5 674Q310 671 308 668L349 653Q343 646 333 649Q323 652 317 655Q304 661 292 668.5Q280 676 269 684Q262 689 254.5 694.5Q247 700 239 702Q244 691 255 682Q266 673 274 665Q281 659 287 652Q293 645 298 637Q304 630 310 621.5Q316 613 313 604Q302 614 292 620Q282 626 266 623Q261 621 256 619Q251 617 245 617Q234 617 223.5 621.5Q213 626 203 629Q209 617 220.5 608.5Q232 600 235 586Q238 575 233 563Q228 551 227 541L270 534L270 532Q242 524 220 534Q198 544 171 548L171 547Q189 539 207.5 525.5Q226 512 239 497Q243 491 247.5 485Q252 479 252 471Q247 475 238.5 483Q230 491 223 490Q217 489 214.5 484Q212 479 211 474Q209 461 209 447Q209 433 209 420Q203 425 202.5 431Q202 437 202 444Q195 440 187.5 435.5Q180 431 171 433Q162 435 153.5 443.5Q145 452 139 458Q127 470 113 480.5Q99 491 81 494Q72 495 54 492Q36 489 48 475Q50 474 51 472.5Q52 471 54 470Q61 467 72.5 469Q84 471 91 471L91 470L59 463Q69 443 86.5 450Q104 457 116 444Q108 447 96 447Q84 447 76 444L94 421L102 410L133 407L133 406L106 406Q107 395 116.5 395.5Q126 396 134 397L134 395L112 391Q115 385 120.5 372Q126 359 132 356Q136 354 142 357Q148 360 152 362Q147 352 140.5 351Q134 350 139 336L160 346Q156 342 151.5 339Q147 336 144 331Q142 325 144.5 317Q147 309 149 304L170 319L150 297L152 274Q165 280 175 289.5Q185 299 190 312Q193 317 194 323.5Q195 330 197 335Q199 338 203.5 339Q208 340 209 344Q212 352 209.5 358.5Q207 365 211 373L212 373L216 353Q226 355 232 367.5Q238 380 241 389L243 389Q246 376 238.5 367Q231 358 227 348Q233 346 242.5 342Q252 338 251 330L219 341L243 287L245 287Q253 300 262.5 318Q272 336 284 346Q289 332 278.5 320Q268 308 263 296Q271 298 283.5 305Q296 312 304 308Q293 303 283.5 296.5Q274 290 267 282Q264 279 260.5 275Q257 271 257 267Q257 262 261 257.5Q265 253 267 250Q275 238 285.5 226.5Q296 215 309 207Q314 217 318.5 227.5Q323 238 325 249Q327 254 327.5 259.5Q328 265 333 268Q338 241 325 213Q312 185 306 160Q324 175 338.5 196Q353 217 376 227Q375 214 361.5 205.5Q348 197 347 183Q347 178 351.5 175Q356 172 359 170Q368 163 377 156.5Q386 150 396 146Q400 144 404 142.5Q408 141 411 144Q418 151 419 162.5Q420 174 419 183Q419 188 418 195.5Q417 203 421 207L430 155L425 93L426 93Q435 116 445 139.5Q455 163 472 180Q472 168 462.5 153Q453 138 448 126Q466 118 486.5 112.5Q507 107 526 103Q528 115 527.5 127Q527 139 524 151Q522 156 519.5 162.5Q517 169 520 174Q532 148 542.5 121.5Q553 95 553 66L555 66Q555 83 557.5 101Q560 119 563 137Q564 140 565.5 149Q567 158 571 158Q576 158 575.5 152.5Q575 147 575 144Q573 132 570.5 120.5Q568 109 566 97L622 98L641 101L640 121L614 167Q621 169 628 159.5Q635 150 639 144Q651 124 660 99Q669 74 674 50L676 50Q673 82 668 112.5Q663 143 667 175Q676 171 674.5 153Q673 135 674 126Q674 123 674.5 117.5Q675 112 679 111Q682 109 687 111Q692 113 695 114Q706 118 717 123Q728 128 739 133Q743 135 747.5 137.5Q752 140 753 146Q754 164 741 172.5Q728 181 717 191Q727 192 734.5 187Q742 182 749 176Q760 167 770.5 157.5Q781 148 790 138Q795 132 799.5 124.5Q804 117 810 112Q806 122 799.5 132Q793 142 788 152Q778 171 771.5 191.5Q765 212 762 233L763 233L788 169Q798 172 806 182Q814 192 820 200Q823 203 826 206.5Q829 210 829 215Q845 221 833.5 231.5Q822 242 819 247Q830 249 840.5 241.5Q851 234 861 232Q856 242 850.5 254.5Q845 267 847 278L849 278L858 252Q875 268 893.5 284.5Q912 301 924 321Q942 348 943 380.5Q944 413 931 443Q928 451 924.5 461Q921 471 915 477Q906 487 899.5 477Q893 467 892 460Q896 459 900 457.5Q904 456 907 454Q920 445 922 431Q924 417 918 403Q916 397 912.5 391.5Q909 386 909 380Q908 372 911 364.5Q914 357 916 349Q918 336 912.5 323.5Q907 311 898 303Q890 295 878.5 291Q867 287 856 289Q851 290 845 293Q839 296 834 294Q826 291 822.5 280.5Q819 270 813 264Q811 278 818.5 288.5Q826 299 828 312Q829 318 825.5 327.5Q822 337 820 344Q819 349 815.5 358.5Q812 368 804 366Q799 364 796 359Q793 354 791 350Q784 341 776.5 331Q769 321 757 318Q761 330 771 340Q781 350 788 360Q802 381 810.5 412Q819 443 801 466Q796 473 788 478Q780 483 772 486Q762 491 750 493.5Q738 496 727 499L727 502L745 505L741 533L730 529Q730 564 757.5 586Q785 608 810 627L804 610L820 586L852 536L839 537Q841 523 842.5 510Q844 497 840 483Q836 474 830 466Q824 458 822 449Q821 445 822 440.5Q823 436 823 431Q823 425 821.5 419Q820 413 819 407Q836 415 844 434Q852 453 870 460Q869 468 866 476Q863 484 862 493Q861 512 863 531Q865 550 862 569Q859 590 851 609Q843 628 835 647L847 642Q849 656 858 664.5Q867 673 874 684Q863 679 847.5 670.5Q832 662 820 669Q811 674 806.5 683Q802 692 793 696L777 635L776 635Q771 656 778 676.5Q785 697 790 717Q776 705 763 692.5Q750 680 730 677L767 704L776 717L765 726L736 747L749 744L754 785L753 785Q751 781 748.5 777.5Q746 774 743 771Q739 767 733.5 761Q728 755 723 754Q711 750 697 758.5Q683 767 673 770L673 711Q663 712 662.5 720.5Q662 729 662 738Q661 757 661 775.5Q661 794 662 814L660 814Q657 792 648.5 766.5Q640 741 619 730Q625 740 630.5 748.5Q636 757 639 768Q640 772 641.5 776.5Q643 781 639 784Q630 791 617 790Q604 789 596 801Q588 812 589 825.5Q590 839 586 851L586 851ZM449 242Q456 246 464.5 256.5Q473 267 476 274Q468 272 464 265.5Q460 259 454 254L450 281Q473 283 485.5 302Q498 321 512 336Q520 345 529.5 350Q539 355 550 360Q543 368 535.5 363Q528 358 523 354Q507 342 496.5 328.5Q486 315 472 301L483 328L481 328Q477 318 471.5 308.5Q466 299 456 294L461 312L459 312Q455 302 449.5 297Q444 292 434 292L447 322L445 322L429 294L423 295L436 319L435 319Q430 311 424 303Q418 295 408 297L420 319Q415 316 411.5 308.5Q408 301 403 299Q400 298 396.5 299.5Q393 301 394 305Q395 309 401 313.5Q407 318 410 322Q419 335 428.5 352.5Q438 370 453 378Q465 385 481.5 380.5Q498 376 511 376Q518 376 525.5 379Q533 382 535 390Q529 391 523 388.5Q517 386 511 386Q495 386 472 389.5Q449 393 435 382Q423 372 419 359Q415 346 407 333Q403 327 396.5 322.5Q390 318 385 314Q383 312 380 309.5Q377 307 378 304Q379 300 384 297.5Q389 295 393 294Q400 291 408 288Q416 285 423 284Q428 283 433.5 282.5Q439 282 442 279Q449 275 448.5 262Q448 249 449 242L449 242ZM740 545Q762 550 785.5 552Q809 554 831 550Q828 561 820.5 571Q813 581 805 590Q803 593 799.5 597Q796 601 792 602Q786 602 781.5 598Q777 594 774 592Q763 583 754 570.5Q745 558 740 545ZM871 575L874 545L902 541Q899 550 890 561Q881 572 871 575ZM812 466Q819 470 823 477Q827 484 829 492Q832 501 832.5 519.5Q833 538 821 542Q815 545 805.5 543.5Q796 542 789 542Q783 542 772 542Q761 542 756 537Q752 533 754 520.5Q756 508 759 504Q763 499 769.5 497.5Q776 496 781 493Q791 489 799 482.5Q807 476 812 466ZM871 536L871 524Q889 530 891.5 514.5Q894 499 875 499L880 470Q893 476 897.5 498Q902 520 891 531Q888 535 882 535Q876 535 871 536L871 536ZM806 530Q804 528 801.5 526.5Q799 525 797 522Q787 505 809 505Q831 505 821 524Q819 526 817 527.5Q815 529 813 530L806 527ZM876 349Q874 355 873.5 362.5Q873 370 869 376Q864 383 853 384Q842 385 834 385Q831 385 827 384.5Q823 384 821 381Q819 378 821.5 371.5Q824 365 825 362Q828 347 833 330Q838 313 851 303Q859 297 872.5 299.5Q886 302 893 309Q904 320 906 340.5Q908 361 897 373Q883 388 880.5 372Q878 356 876 349L876 349ZM878 385Q880 385 881.5 385Q883 385 883 385Q883 384 885 384.5Q887 385 889 386Q900 389 908 403.5Q916 418 913 429Q910 441 897.5 448.5Q885 456 874 452Q867 450 860 444Q853 438 842 423Q836 415 830.5 408Q825 401 823 399Q821 397 819.5 396Q818 395 818 394Q818 394 822 393.5Q826 393 831 394Q843 394 852.5 398Q862 402 874 411Q885 419 886 419.5Q887 420 881 413Q874 404 871.5 400.5Q869 397 869 394Q869 391 872 388.5Q875 386 878 385L878 385ZM574 762L553 669Q565 677 569 698Q573 719 574 731L575 731Q577 720 579 709Q581 698 585 687Q587 683 589.5 678.5Q592 674 597 675L581 732L574 762ZM448 745Q448 721 455.5 697.5Q463 674 458 649Q463 652 464 657.5Q465 663 465 668Q465 680 463.5 691.5Q462 703 462 714L463 714Q467 703 476 685Q485 667 498 666Q496 672 492 677Q488 682 484 687Q477 699 468.5 718.5Q460 738 448 745ZM712 731Q701 714 688 694Q675 674 659 662L659 660Q671 663 682.5 675.5Q694 688 698 699L699 699Q699 682 695 664Q691 646 698 629L699 629Q704 647 704 666.5Q704 686 708 704Q709 710 712 718Q715 726 712 731L712 731ZM627 680Q621 667 616.5 655.5Q612 644 600 635L600 632Q608 630 614 638Q620 646 622 653L623 653Q624 646 625.5 635.5Q627 625 635 623L628 653L627 680ZM351 678Q353 655 374 636Q395 617 391 591Q396 594 396 599Q396 604 394 609Q390 619 385 628.5Q380 638 376 647Q385 639 398 632Q411 625 423 631L396 642ZM529 668Q526 658 520.5 642.5Q515 627 519 618L521 618L530 649L532 649Q534 640 538 629.5Q542 619 552 618L532 668ZM443 636L449 582L452 582L450 620Q457 616 465 608.5Q473 601 481 605Q478 609 474 610Q470 611 466 614Q460 619 455.5 627Q451 635 443 636ZM212 424Q214 416 219.5 417.5Q225 419 230 420Q238 420 249 417.5Q260 415 264 408L273 409Q271 420 259 422Q247 424 238 425Q244 431 251.5 435Q259 439 261 449L212 424ZM398 435L382 421Q387 419 395 416Q403 413 407 417L390 424L398 435ZM318 430Q312 417 303.5 406Q295 395 284 385Q279 379 271.5 373Q264 367 261 359L318 371L348 377Q334 387 314.5 380.5Q295 374 282 368Q291 386 304.5 397Q318 408 322 429L320 430ZM345 354Q351 354 367.5 354.5Q384 355 387 359L359 363L375 393Q368 390 358 375.5Q348 361 345 354ZM358 344Q355 329 346 316Q337 303 328 292Q323 287 317.5 281.5Q312 276 310 269Q326 274 343.5 285Q361 296 378 295Q374 303 358 296.5Q342 290 335 288Q341 298 348.5 306.5Q356 315 360 326Q361 330 361.5 335.5Q362 341 358 344L358 344ZM398 272Q398 253 395.5 235Q393 217 387 198Q394 198 398 203.5Q402 209 406 214Q413 223 421 232.5Q429 242 440 247L440 249Q429 250 416.5 237Q404 224 400 215L399 215Q402 228 404 243.5Q406 259 400 272L398 272ZM359 591L359 590Q367 581 374 570.5Q381 560 386 550Q388 544 389 538Q390 532 396 529Q396 540 392 549.5Q388 559 384 569Q390 565 399 560.5Q408 556 416 559L416 561Q405 566 396 571Q387 576 377 583Q373 587 368.5 590Q364 593 359 591L359 591ZM273 579Q274 571 279.5 567Q285 563 291 558Q299 552 306.5 545.5Q314 539 320 530Q324 525 327.5 517.5Q331 510 336 506Q335 520 327 534.5Q319 549 305 555L305 556Q319 553 333 550.5Q347 548 360 554L360 556L338 557L273 579ZM458 521Q460 515 463 510Q466 505 471 501L463 518L479 516Q476 522 470 521.5Q464 521 458 521ZM393 514L411 492L400 510L416 512L414 518L393 514ZM263 478L263 475L300 462Q299 469 291.5 472Q284 475 278 476L304 499Q293 501 282 492Q271 483 263 478ZM317 483L317 480L345 470L362 458Q360 469 351.5 472.5Q343 476 336 481Q345 483 355 485Q365 487 369 497L317 483ZM475 223L474 221Q478 209 482.5 197Q487 185 489 171Q490 165 490.5 157.5Q491 150 497 146Q502 156 505 167.5Q508 179 513 189Q516 195 519.5 201Q523 207 521 214Q512 209 506.5 193Q501 177 498 167Q493 180 491 198Q489 216 475 223L475 223ZM726 628Q716 618 706 611Q696 604 682 600L682 597Q691 595 698.5 598.5Q706 602 713 606Q712 601 708 589.5Q704 578 709 574L722 611L726 628ZM506 599L498 559Q503 562 504.5 571.5Q506 581 507 587L519 574Q518 581 514.5 587.5Q511 594 506 599ZM632 595L607 570L631 587L635 564Q638 569 636.5 579.5Q635 590 632 595ZM683 543L662 527L681 537L678 521Q682 524 683.5 531.5Q685 539 683 543L683 543ZM535 525Q535 520 535.5 515.5Q536 511 541 508L541 521L556 516L535 525ZM614 507L620 519L628 514Q624 525 619 520Q614 515 614 507ZM445 435L461 431L452 440L457 452Q452 449 449.5 444.5Q447 440 445 435ZM510 439L496 421L514 415L501 422Q503 426 508 430Q513 434 510 439L510 439ZM731 435L745 421L732 409Q739 410 744.5 412Q750 414 756 418Q752 425 745 429.5Q738 434 731 435ZM614 420L615 406Q620 408 623 411.5Q626 415 627 420L618 413ZM663 394L662 376L650 384Q651 378 655 375Q659 372 664 371L665 394L663 394ZM577 366L591 350L597 366L591 355ZM707 366L705 346L692 354Q692 348 699 341.5Q706 335 712 332L709 366L707 366ZM645 313Q641 317 636.5 321Q632 325 626 324L650 295L656 332Q649 331 648 325Q647 319 645 313ZM524 319L523 326L519 326L520 309Q526 310 531 318Q536 326 537 331L524 319ZM571 310L565 294L564 294L553 308L562 278L564 278Q566 285 571.5 294.5Q577 304 571 310ZM710 301L718 259Q712 264 697 280Q682 296 674 287Q692 281 702.5 265Q713 249 728 239L722 264L714 303ZM779 292Q774 280 782 268Q790 256 794 245Q782 251 770 259.5Q758 268 743 268L743 263Q764 261 778 244.5Q792 228 810 218Q809 236 798 255.5Q787 275 781 292L779 292ZM517 273L508 272Q511 266 514 261.5Q517 257 519 251Q521 245 521.5 237.5Q522 230 529 227Q532 233 537 243Q542 253 541 260Q535 257 532.5 252Q530 247 529 241L528 241L517 273ZM616 243L587 264Q588 260 591 258Q594 256 597 253Q602 248 608 238.5Q614 229 622 228L624 270Q616 267 616 258.5Q616 250 616 243ZM690 246Q683 234 689 213Q695 192 696 179L695 179Q690 190 680.5 200Q671 210 663 219Q662 220 657 225.5Q652 231 650 227Q648 223 655.5 216.5Q663 210 665 207Q673 198 679.5 188Q686 178 692 167Q696 161 699.5 154.5Q703 148 709 144Q704 169 698.5 194.5Q693 220 692 246L690 246ZM562 210Q573 188 581.5 167Q590 146 596 122Q603 126 603.5 132.5Q604 139 604 146Q603 161 607 177Q611 193 610 209Q606 207 604.5 203Q603 199 602 194Q600 184 599 173Q598 162 596 152Q591 164 584.5 185.5Q578 207 562 210ZM956 377L949 345L945 328L954 322L951 333L952 333Q957 323 962.5 320Q968 317 979 317L970 336Q975 331 978 325Q981 319 988 318L979 335Q986 328 990.5 324.5Q995 321 1004 326L1004 328Q988 336 981 355Q974 374 956 377L956 377Z" fill="#a35f27" />
  </g>
</svg>