<?xml version="1.0" encoding="UTF-8"?>
<svg width="16" height="16" viewBox="0 0 16 16" xmlns="http://www.w3.org/2000/svg">
  <g transform="translate(0.020000000000000462, 14.97844765625) scale(0.015585937499999999, -0.015585937499999999)">
    <path d="M94 299Q99 313 104.5 326.5Q110 340 116 352L29 404Q22 384 16 363.5Q10 343 7 321L94 299ZM90 514Q75 494 62.5 472.5Q50 451 40 429L129 375Q137 390 147 403.5Q157 417 168 429L90 514ZM515 720L476 532Q504 526 530.5 515Q557 504 581 488L694 689Q653 704 608 712Q563 720 515 720ZM299 677Q272 666 247 652Q222 638 199 621L259 501Q276 510 294 517Q312 524 330 529L299 677ZM690 376L923 529Q886 574 839 610.5Q792 647 737 672L598 477Q615 464 630 450Q645 436 659 420L395 251Q377 239 377.5 220.5Q378 202 390 189Q401 176 418.5 175.5Q436 175 449 187L678 395Q681 390 684 385.5Q687 381 690 376ZM3 295Q1 283 0.5 270.5Q0 258 0 245Q0 237 0.5 229.5Q1 222 1 214L77 214Q78 229 80.5 244.5Q83 260 87 274L3 295ZM953 487L704 350Q719 320 729 285.5Q739 251 742 214L1023 214Q1023 222 1023.5 229.5Q1024 237 1024 245Q1024 311 1005.5 372Q987 433 953 487ZM187 448Q198 459 210 468.5Q222 478 235 486L172 600Q154 586 137.5 569.5Q121 553 107 535L187 448ZM452 536L476 719Q438 717 402.5 709.5Q367 702 333 691L359 535Q371 537 383.5 538Q396 539 409 539Q420 539 431 538.5Q442 538 452 536Z" fill="#ac4142" />
  </g>
</svg>