<?xml version="1.0" encoding="UTF-8"?>
<svg width="16" height="16" viewBox="0 0 16 16" xmlns="http://www.w3.org/2000/svg">
  <g transform="translate(0.5099999999999998, 14.55375) scale(0.01462890625, -0.01462890625)">
    <path d="M512 960Q406 960 313 920Q219 880 149.5 810.5Q80 741 40 647Q0 554 0 448Q0 421 3 394Q6 367 11 341Q58 354 106 357Q153 361 199 357Q245 353 288 341Q331 330 370 312Q423 351 486 375Q548 400 614.5 408.5Q681 417 751 408Q820 399 888 371Q895 368 893.5 362Q892 356 886 356Q816 361 746 352Q676 343 612 319Q548 295 493 255Q437 215 396 157Q392 152 388.5 149Q385 146 379 151Q346 183 305 206Q264 230 218.5 245Q173 260 125 267Q77 275 30 275Q56 201 104 139Q151 77 214 31.5Q277 -14 353 -39Q429 -64 512 -64Q618 -64 711 -24Q805 16 874.5 85.5Q944 155 984 249Q1024 342 1024 448Q1024 554 984 647Q944 741 874.5 810.5Q805 880 711 920Q618 960 512 960ZM915 651Q874 658 832 656Q791 653 752.5 642Q714 631 681 611Q648 590 625 562Q623 560 621 559.5Q619 559 617 561Q595 588 561 608Q527 628 487 639Q447 650 405 653Q363 656 324 648Q320 648 319.5 652Q319 656 321 658Q351 674 387 684Q423 693 461.5 694Q500 695 541 685Q581 676 620 654Q648 670 683 681Q718 692 756.5 694.5Q795 697 836 689Q877 682 917 661Q921 659 920 655Q919 651 915 651Z" fill="#be2f31" />
  </g>
</svg>