<?xml version="1.0" encoding="UTF-8"?>
<svg width="16" height="16" viewBox="0 0 16 16" xmlns="http://www.w3.org/2000/svg">
  <g transform="translate(1.6080697866586533, 14.125) scale(0.013671875, -0.013671875)">
    <path d="M777 -64Q776 -54 761 -19Q746 16 717.5 60.5Q689 105 647 151Q604 196 549 229Q474 269 493.5 327Q513 385 519 410Q519 410 566 393Q613 376 657 440Q696 430 726 437.5Q756 445 790 433Q810 424 866 434.5Q922 445 890 493L933 532Q938 556 930 564.5Q922 573 919 580Q918 595 906.5 600Q895 605 879 594Q817 606 779 600Q741 594 670 634Q662 660 644 662Q626 664 603 674Q622 718 630.5 749.5Q639 781 663 845Q672 879 688 919.5Q704 960 691 960Q682 960 665 936Q649 912 629 875Q609 838 587 793Q566 748 546 706Q538 718 533.5 732Q529 746 529 760Q528 779 506 759Q484 739 489 706Q489 706 462 701Q435 696 435 696Q428 726 412.5 740Q397 754 386 720Q363 666 361 620.5Q359 575 391 524Q376 459 328 408Q280 357 230.5 311.5Q181 266 146 222Q110 177 120 125Q123 125 138 102Q152 80 183.5 58Q215 36 265 25Q316 14 391 37Q481 62 550 51Q619 40 667.5 16Q716 -8 744 -34Q772 -60 777 -64ZM98 140Q84 191 118 236Q152 280 202 324.5Q252 369 301 417Q350 465 366 524Q339 562 336.5 588Q334 614 335 649Q303 616 265 609Q227 602 173 593Q152 589 125 571Q98 552 72 524.5Q46 497 27 462Q7 427 1 390Q-5 296 23 231Q51 166 98 140Z" fill="#66783e" />
  </g>
</svg>