<?xml version="1.0" encoding="UTF-8"?>
<svg width="16" height="16" viewBox="0 0 16 16" xmlns="http://www.w3.org/2000/svg">
  <g transform="translate(0.10572265625000021, 14.9825) scale(0.015585937499999999, -0.015585937499999999)">
    <path d="M0 845L0 61L596 -64L596 960ZM300 271Q229 275 197 331Q164 387 166 452.5Q168 518 204 572Q239 626 305 627Q375 622 407 567Q440 511 437.5 445.5Q435 380 400 326Q365 272 300 271ZM303 560Q266 558 248 523Q229 488 229.5 447Q230 406 248 372Q266 338 302 338Q339 340 357 375Q374 410 374 451Q374 492 356 526Q338 560 303 560ZM698 424Q704 419 711 421.5Q718 424 718 424Q713 422 759 452Q805 482 861.5 519.5Q918 557 965 589Q1013 621 1013 621L1013 253Q1013 222 996.5 209Q980 196 958 196L634 196L634 468ZM634 743L634 543L704 499Q705 498 707.5 498Q710 498 712 499L1013 702Q1013 720 1000 731.5Q987 743 978 743Z" fill="#6a9fb5" />
  </g>
</svg>