<?xml version="1.0" encoding="UTF-8"?>
<svg width="16" height="16" viewBox="0 0 16 16" xmlns="http://www.w3.org/2000/svg">
  <g transform="translate(3.3580572350543476, 14.5432171875) scale(0.01462890625, -0.01462890625)">
    <path d="M354 763Q354 781 337 791.5Q320 802 310 809Q301 815 263.5 795Q226 775 207 763Q183 747 182.5 722Q182 697 182 697Q176 690 172.5 684.5Q169 679 167 668Q165 660 167.5 651.5Q170 643 172 635Q173 629 173 625Q173 621 173 621Q158 616 147.5 603.5Q137 591 137 591L131 591Q128 596 126.5 619.5Q125 643 130 652Q169 681 143.5 708.5Q118 736 79 752Q69 756 62 755Q55 754 48 752Q15 745 27.5 692.5Q40 640 40 640L40 628Q40 628 19 676Q-2 724 0 742Q2 755 12.5 766Q23 777 36 780Q40 781 38.5 790.5Q37 800 39 811Q42 826 51.5 841Q61 856 61 856Q69 847 77.5 818.5Q86 790 86 790L122 790Q122 790 147 801Q172 812 203.5 825Q235 838 264 850Q292 862 300 864L338 960Q358 947 369 921.5Q380 896 381 863Q381 863 402 857.5Q423 852 439 835Q470 799 486.5 753Q503 707 547 672Q566 657 583 642Q600 627 611 602Q624 574 630 538Q636 502 634.5 464.5Q633 427 623 390Q613 354 595 324Q595 324 575 294Q556 265 533 225.5Q510 186 492 147Q474 109 477 90Q483 54 519 46.5Q555 39 609 39L555 -36Q476 -52 402.5 -64Q329 -76 338 12Q338 12 306 -4Q273 -21 229 -37Q185 -53 138 -60Q92 -67 64 -48Q54 -41 41 -10Q28 20 19 62.5Q10 105 10 154Q9 203 24 247Q31 269 46 295.5Q61 322 82 346Q129 401 165 430Q201 459 227 483Q247 502 263 511Q279 520 286 532Q300 556 295 572.5Q290 589 290 589Q318 601 336.5 617Q355 633 362 645Q370 659 360.5 661Q351 663 351 663Q351 663 362 678Q373 693 377 708Q377 711 374 714.5Q371 718 371 721Q373 730 374 740.5Q375 751 372 754Q365 766 359.5 764.5Q354 763 354 763ZM198 96Q288 105 316.5 133Q345 161 345 162Q345 162 317.5 163Q290 164 284 165Q277 166 274 169Q271 172 271 172Q373 169 423.5 218.5Q474 268 504 319Q547 392 532 469Q517 546 495 600Q460 573 411 537Q363 502 312.5 461Q262 420 217 377Q171 333 142 291Q120 259 116 211Q113 162 119.5 115Q126 68 137 32Q149 -5 156 -12Q163 -19 190 -3Q216 13 245.5 35Q275 57 298 76Q321 96 321 96Q281 85 248 82.5Q215 80 198 96ZM129 699Q130 687 121 672Q112 657 88 655Q65 653 51.5 669Q38 685 38 691Q37 710 49.5 718.5Q62 727 80 727Q97 727 113 719Q129 711 129 699ZM110 686Q111 700 104.5 706Q98 712 82 712Q67 713 61.5 703.5Q56 694 61 682Q66 671 87.5 672Q109 673 110 686ZM206 717Q208 728 219 742.5Q230 757 266 758Q311 760 321.5 734.5Q332 709 326 693Q316 670 289 658Q262 646 239 663Q215 680 209.5 693Q204 706 206 717ZM234 701Q234 701 242.5 689.5Q251 678 270 680Q289 682 296 693Q303 704 304 712Q304 716 301 723.5Q298 731 291 735Q282 740 269.5 740Q257 740 248 737Q232 731 233 716Q234 701 234 701Z" fill="#46788d" />
  </g>
</svg>