<?xml version="1.0" encoding="UTF-8"?>
<svg width="16" height="16" viewBox="0 0 16 16" xmlns="http://www.w3.org/2000/svg">
  <g transform="translate(0.020000000000000462, 14.9825) scale(0.015585937499999999, -0.015585937499999999)">
    <path d="M2 166L11 173Q25 185 82 230Q139 275 202 316Q196 306 191 297Q186 288 182 280Q127 253 73.5 216Q20 179 2 166L2 166ZM0 155L20 155Q20 155 70.5 190Q121 225 165 250L145 214Q114 202 92 188.5Q70 175 59 167L43 155L75 155L77 156Q85 162 98.5 170.5Q112 179 130 187L111 155L133 155L158 199Q171 203 183.5 206.5Q196 210 208 213Q220 215 235 215.5Q250 216 268 215L240 155L261 155L288 213Q309 210 333.5 204.5Q358 199 385 191Q386 183 388 175Q390 167 393 159L394 155L414 155L412 163Q410 169 408.5 174Q407 179 406 185Q420 180 432.5 176Q445 172 454 168L421 155L470 155L472 155Q473 156 540 181.5Q607 207 651 224Q639 210 630.5 194Q622 178 626 162L609 155L656 155L659 155Q680 164 712 176Q744 188 766 192Q767 183 770 175Q773 167 777 158L779 155L800 155L795 165Q791 172 788.5 179Q786 186 785 194Q820 195 849 185.5Q878 176 896 157L898 155L922 155L913 166Q898 184 865.5 199.5Q833 215 785 213Q787 237 800 253Q813 269 817 273Q821 274 827 275Q833 276 836 276Q862 276 883.5 268.5Q905 261 927 245Q930 243 944 223Q958 203 956 162L956 155L975 155L975 161Q976 173 975 184Q974 195 971 205Q980 196 990 184.5Q1000 173 1012 159L1024 146L1024 175L1022 177Q1006 196 992 210.5Q978 225 967 236Q980 238 994.5 240Q1009 242 1018 244L1024 244L1024 264L1016 263Q1003 261 981.5 257.5Q960 254 948 252Q931 267 914 276Q897 285 879 289Q879 290 878 291Q877 292 877 292Q900 299 947.5 311.5Q995 324 1018 326L1024 326L1024 345L1017 345Q995 343 953.5 332.5Q912 322 884 314Q892 324 901.5 338Q911 352 920 369Q922 374 924.5 379.5Q927 385 930 391Q957 400 979 405.5Q1001 411 1018 411L1024 411L1024 430L1017 430Q1001 430 981.5 426Q962 422 939 414Q946 432 952 450.5Q958 469 962 485Q978 489 991.5 491Q1005 493 1017 492L1024 492L1024 511L1018 511Q1006 512 994 510.5Q982 509 968 506L969 508Q975 530 981 550Q987 570 993 579Q999 579 1004.5 578.5Q1010 578 1015 577L1024 574L1024 620L1016 619Q1009 618 1000.5 612.5Q992 607 983 598Q983 598 983 598Q983 598 983 598Q960 596 933 586Q906 576 875 558Q886 580 897 601Q908 622 919 636Q946 669 973.5 664Q1001 659 1014 651L1024 645L1024 669L1021 671Q1012 677 997.5 680.5Q983 684 964 686Q929 688 887 660Q844 631 804.5 593Q765 555 734 517Q703 480 691 465Q627 514 575.5 538.5Q524 563 486 563Q476 563 461.5 561Q447 559 428 552Q416 580 374 626Q332 672 276 707L276 707Q237 730 206.5 740Q176 750 148 750Q100 750 57.5 715Q15 680 2 665L0 663L0 614L9 618Q25 625 42 631Q59 637 69 637L73 637Q78 637 84 637Q90 637 98 637Q97 636 96.5 635Q96 634 95 633Q83 616 72 598Q61 580 51 560Q35 563 23.5 563Q12 563 6 562L0 562L0 543L7 543Q12 544 21 544Q30 544 42 542Q33 524 25.5 505.5Q18 487 11 468Q10 468 9.5 468Q9 468 8 468L0 470L0 450L5 449Q4 446 2.5 442Q1 438 0 435L0 352L4 350Q10 347 28.5 338.5Q47 330 66 321Q61 303 58 288.5Q55 274 53 266Q43 270 30 275.5Q17 281 10 283L3 286L1 280L0 267L4 265Q15 261 26 256.5Q37 252 44 249Q38 241 31.5 235Q25 229 20 223L0 227L0 155ZM276 233Q255 235 237 234.5Q219 234 205 231Q196 230 188 228Q180 226 172 223L195 266Q216 276 232 282Q248 288 260 290Q271 292 282 292.5Q293 293 304 293Q297 279 290 264Q283 249 277 234L276 233ZM515 230Q511 219 509.5 208.5Q508 198 508 190Q500 187 491.5 184Q483 181 479 179Q471 182 451 189.5Q431 197 403 206Q401 226 404 243Q407 260 415 273Q445 263 470.5 251.5Q496 240 515 230ZM257 309Q248 307 236.5 303.5Q225 300 211 294Q218 306 224.5 317Q231 328 237 338Q265 354 286.5 363.5Q308 373 323 375Q330 375 338 375.5Q346 376 354 376Q344 363 334 347.5Q324 332 314 312Q299 313 285 312Q271 311 257 309ZM320 492Q304 481 287 468.5Q270 456 252 442Q230 466 206.5 485.5Q183 505 158 520Q175 540 193 544Q211 548 230 549Q239 550 247.5 551Q256 552 264 555Q279 541 292.5 525.5Q306 510 320 492ZM237 430Q223 418 207.5 405Q192 392 177 377Q162 391 146.5 403Q131 415 114 425Q118 438 122 449.5Q126 461 130 470Q133 480 137.5 488.5Q142 497 147 505Q170 491 193 472Q216 453 237 430ZM228 568Q208 567 185 561.5Q162 556 141 530Q124 539 106 545.5Q88 552 70 556Q80 574 90 590.5Q100 607 111 622Q113 625 115.5 628Q118 631 120 634Q152 628 184 612Q216 596 247 570Q243 569 238 569Q233 569 228 568ZM162 365Q150 353 137 341Q124 329 111 316Q107 319 101 322.5Q95 326 88 330Q93 351 98 370Q103 389 108 406Q123 397 136.5 386.5Q150 376 162 365ZM479 415Q501 412 521 411.5Q541 411 559 413Q595 392 628.5 368.5Q662 345 686 325Q669 319 652.5 317.5Q636 316 619 320Q600 324 582 326.5Q564 329 548 331Q505 354 466.5 368.5Q428 383 394 390Q413 406 434.5 412.5Q456 419 479 415ZM389 458Q416 463 450 456.5Q484 450 525 430Q515 431 504 432Q493 433 482 434Q450 439 422 428.5Q394 418 370 393Q356 395 344 395Q332 395 320 393Q309 392 293.5 386.5Q278 381 259 371Q266 382 273.5 392.5Q281 403 288 412Q318 430 343 441.5Q368 453 389 458ZM377 373Q406 369 438 358.5Q470 348 505 331Q472 330 448 320.5Q424 311 409 295Q389 301 370.5 304.5Q352 308 334 310Q345 330 355.5 345.5Q366 361 377 373ZM552 208Q546 205 540 202.5Q534 200 527 198Q528 203 529 209Q530 215 532 220Q538 217 543 213.5Q548 210 553 208ZM553 242Q566 245 574 241.5Q582 238 590 232Q592 231 594.5 229Q597 227 599 226Q593 223 587 221Q581 219 574 216Q571 219 562.5 224.5Q554 230 541 237Q544 239 546.5 240.5Q549 242 553 242ZM563 263Q560 263 556.5 262.5Q553 262 549 261Q541 260 535 256Q529 252 524 246Q500 259 476.5 269.5Q453 280 429 288Q447 303 475 309Q503 315 542 312Q578 292 605.5 273Q633 254 648 244Q642 242 636.5 239.5Q631 237 625 235Q618 237 612.5 240Q607 243 601 247Q594 253 585 258Q576 263 563 263ZM615 301Q637 297 659 299.5Q681 302 703 311Q716 300 726.5 290.5Q737 281 744 275Q727 271 708.5 264.5Q690 258 669 251Q662 257 641 272Q620 287 590 306Q596 305 602.5 304Q609 303 615 301ZM706 334Q684 352 653.5 374.5Q623 397 588 418Q600 421 610.5 426Q621 431 629 438Q640 446 645.5 454Q651 462 654 468Q680 450 707.5 427.5Q735 405 763 380Q756 372 741.5 358.5Q727 345 706 334ZM618 453Q608 445 594 440Q580 435 563 433Q521 456 484 467.5Q447 479 416 479Q407 479 399.5 478.5Q392 478 385 476Q371 473 356 467.5Q341 462 324 454Q335 465 346 475Q357 485 369 494Q382 505 395 513.5Q408 522 420 528Q439 536 455.5 540Q472 544 486 544L486 544Q515 544 553 528Q591 512 638 480Q637 475 632 467.5Q627 460 618 453ZM336 503Q323 520 309.5 535Q296 550 283 563Q304 577 320.5 596.5Q337 616 345 629Q371 603 388 580.5Q405 558 410 544Q393 537 374.5 526.5Q356 516 336 503ZM268 577Q236 606 203 624Q170 642 135 650Q180 692 222.5 690Q265 688 273 686Q288 677 302.5 665.5Q317 654 331 642Q324 631 307 610Q290 589 268 577ZM130 514Q125 506 120.5 497Q116 488 112 477Q108 468 104.5 457.5Q101 447 97 435Q77 446 59.5 452.5Q42 459 29 463Q37 483 45 502Q53 521 62 539Q79 535 96 529Q113 523 130 514ZM83 311Q87 309 91 307Q95 305 98 303Q92 297 86.5 291.5Q81 286 76 281Q77 287 79 295Q81 303 83 311ZM296 231Q303 246 310 261.5Q317 277 325 292Q342 291 360 287.5Q378 284 397 279Q389 265 385.5 248Q382 231 383 212Q359 218 337.5 223Q316 228 296 231ZM777 367Q796 349 814.5 330.5Q833 312 848 296L847 294Q844 294 841.5 294.5Q839 295 836 295Q825 295 807 291.5Q789 288 765 281Q760 286 748.5 296.5Q737 307 722 320Q742 332 756 345.5Q770 359 777 367ZM903 377Q892 355 878.5 338Q865 321 858 313Q850 321 842 329.5Q834 338 826 346Q838 352 859 362Q880 372 905 382Q905 381 904.5 380Q904 379 903 377ZM812 360Q803 368 795 376Q787 384 778 392Q797 405 843.5 433Q890 461 941 479Q936 462 929.5 443.5Q923 425 916 406Q882 394 853 380.5Q824 367 812 360ZM904 648Q904 648 904 648Q904 648 904 648Q892 633 882 613.5Q872 594 860 571Q857 563 853 555Q849 547 845 539Q803 511 769.5 482Q736 453 722 440Q718 443 714 446.5Q710 450 706 453Q714 463 735 488Q755 513 783 542.5Q811 572 842 601Q874 630 904 648ZM824 500Q812 480 795.5 457Q779 434 756 411Q751 415 746.5 419.5Q742 424 737 428Q747 437 770.5 457.5Q794 478 824 500ZM947 501Q905 488 864 466Q823 444 795 426Q817 452 832.5 477.5Q848 503 859 525Q891 546 919 559Q947 572 971 577Q966 565 961 548.5Q956 532 951 513L947 501ZM243 383Q238 375 233 367.5Q228 360 223 352Q192 334 159.5 311Q127 288 98 266Q129 294 166.5 325Q204 356 243 383ZM698 240Q703 242 733 251Q763 260 787 267Q780 257 773.5 242.5Q767 228 766 211Q740 207 704.5 193.5Q669 180 644 169Q643 189 664.5 210Q686 231 698 240ZM2 636L12 648Q17 654 59 692.5Q101 731 148 731Q167 731 187 726Q207 721 230 710Q205 709 173.5 697.5Q142 686 113 654Q100 656 89.5 656Q79 656 73 656L69 656Q55 656 35.5 649Q16 642 4 637L2 636ZM2 371L13 411Q15 419 17.5 427.5Q20 436 23 445Q36 441 53.5 434.5Q71 428 92 416Q86 399 81 379.5Q76 360 70 340Q51 349 33.5 357Q16 365 9 368L2 371Z" fill="#75b5aa" />
  </g>
</svg>