<?xml version="1.0" encoding="UTF-8"?>
<svg width="16" height="16" viewBox="0 0 16 16" xmlns="http://www.w3.org/2000/svg">
  <g transform="translate(0.5099999999999998, 14.55375) scale(0.01462890625, -0.01462890625)">
    <path d="M512 960Q406 960 313 920Q219 880 149.5 810.5Q80 741 40 647Q0 554 0 448Q0 342 40 249Q80 155 149.5 85.5Q219 16 313 -24Q406 -64 512 -64Q618 -64 711 -24Q805 16 874.5 85.5Q944 155 984 249Q1024 342 1024 448Q1024 554 984 647Q944 741 874.5 810.5Q805 880 711 920Q618 960 512 960ZM762 91Q759 116 757.5 171.5Q756 227 764 277Q768 303 791.5 326.5Q815 350 824 362Q762 393 738.5 345.5Q715 298 669 233Q652 497 705.5 504.5Q759 512 746 647Q736 754 715 769.5Q694 785 694 785Q694 785 688.5 725Q683 665 657 619Q639 589 612 580Q585 571 572 539Q552 492 551.5 449Q551 406 532 450Q527 480 497.5 502Q468 524 454 547Q418 609 415 660Q412 712 422.5 749.5Q433 787 448 808Q462 829 462 829Q468 842 467 848Q466 854 457 854Q403 836 377 790Q350 743 341 691Q332 639 335 592Q339 546 344 528Q385 400 375.5 365Q366 330 361 326Q353 319 342 347.5Q331 376 305 402Q281 424 270 463Q259 502 257 538Q257 544 253 555Q249 566 240 545Q206 459 216.5 393.5Q227 328 254 280Q293 209 287 161.5Q281 114 259 94Q217 123 184 162Q150 200 126 245.5Q102 291 89 342Q76 393 76 448Q76 538 111 618Q145 697 204 756Q263 815 342 849Q422 884 512 884Q602 884 682 849Q761 815 820 756Q879 697 913 618Q948 538 948 448Q948 393 934 341Q921 289 896.5 243.5Q872 198 838 159Q804 120 762 91Z" fill="#4d9085" />
  </g>
</svg>