<?xml version="1.0" encoding="UTF-8"?>
<svg width="16" height="16" viewBox="0 0 16 16" xmlns="http://www.w3.org/2000/svg">
  <g transform="translate(0.5099999999999998, 14.55375) scale(0.01462890625, -0.01462890625)">
    <path d="M375 -64L0 585L649 960L1024 311L375 -64ZM194 669Q127 631 116.5 567Q106 503 143 439Q179 376 240 352.5Q301 329 368 368Q432 405 445 470Q458 535 422 597Q385 661 323.5 684.5Q262 708 194 669ZM226 614Q241 622 254.5 622Q268 622 281 611Q297 598 309.5 579.5Q322 561 332 544Q347 518 359 481Q371 444 335 424Q299 403 270.5 439Q242 475 228 500Q214 525 203 559.5Q192 594 226 614ZM784 590L572 468L606 409L723 477L693 234L729 172L957 303L921 366L786 288L815 536L784 590Z" fill="#f4bf75" />
  </g>
</svg>