<?xml version="1.0" encoding="UTF-8"?>
<svg width="16" height="16" viewBox="0 0 16 16" xmlns="http://www.w3.org/2000/svg">
  <g transform="translate(0.5099999999999998, 14.55375) scale(0.01462890625, -0.01462890625)">
    <path d="M945 125L945 316L1023 316L1023 425L945 425L945 838L812 838L489 424L489 316L820 316L820 125L184 125L184 404Q275 401 339 418Q403 434 443.5 464.5Q484 495 504 538Q523 581 526 633Q531 755 470 796.5Q409 838 312 838L38 838L38 125L0 125L0 58L1024 58L1024 125ZM607 425L820 694L820 425ZM184 738Q184 738 214 740Q244 741 279.5 735Q315 729 345 709Q375 689 375 647Q375 585 345 555Q315 525 279.5 513.5Q244 502 214 503Q184 503 184 503L184 738Z" fill="#825078" />
  </g>
</svg>