<?xml version="1.0" encoding="UTF-8"?>
<svg width="16" height="16" viewBox="0 0 16 16" xmlns="http://www.w3.org/2000/svg">
  <g transform="translate(2.0150000000000006, 13.48625) scale(0.015585937499999999, -0.015585937499999999)">
    <path d="M384 832Q221 828 112.5 719.5Q4 611 0 448L0 384Q1 357 19 339Q37 321 64 320L64 0Q67 -54 157.5 -90.5Q248 -127 384 -128Q520 -127 610.5 -90.5Q701 -54 704 0L704 320Q731 321 749 339Q767 357 768 384L768 448Q764 611 655.5 719.5Q547 828 384 832ZM576 192L576 160Q576 146 567 137Q558 128 544 128Q530 128 521 137Q512 146 512 160L512 192Q512 206 503 215Q494 224 480 224Q466 224 457 215Q448 206 448 192L448 32Q448 18 439 9Q430 0 416 0Q402 0 393 9Q384 18 384 32L384 160Q384 174 375 183Q366 192 352 192Q338 192 329 183Q320 174 320 160L320 128Q319 101 301 83Q283 65 256 65Q229 65 211 83Q193 101 192 128L192 192Q165 193 147 211Q129 229 128 256L128 371Q172 348 238.5 334Q305 320 384 320Q463 320 529.5 334Q596 348 640 371L640 256Q639 229 621 211Q603 193 576 192ZM384 384Q302 384 239 401.5Q176 419 147 448Q176 477 239 494.5Q302 512 384 512Q466 512 529 494.5Q592 477 621 448Q592 419 529 401.5Q466 384 384 384ZM384 576Q248 575 158 538.5Q68 502 64 448L64 448Q67 584 157.5 674.5Q248 765 384 768Q520 765 610.5 674.5Q701 584 704 448Q701 502 610.5 538.5Q520 575 384 576Z" fill="#aa759f" />
  </g>
</svg>