<?xml version="1.0" encoding="UTF-8"?>
<svg width="16" height="16" viewBox="0 0 16 16" xmlns="http://www.w3.org/2000/svg">
  <g transform="translate(0.5100000000000001, 14.55375) scale(0.01462890625, -0.01462890625)">
    <path d="M977 866L47 866L47 960L977 960ZM977 774L47 774L47 680L977 680ZM419 588L47 588L47 494L419 494ZM977 588L605 588L605 494L977 494ZM419 402L47 402L47 308L419 308ZM977 402L605 402L605 308L977 308ZM977 216L47 216L47 122L977 122ZM419 30L47 30L47 -64L419 -64ZM977 30L605 30L605 -64L977 -64Z" fill="#ac4142" />
  </g>
</svg>