<?xml version="1.0" encoding="UTF-8"?>
<svg width="16" height="16" viewBox="0 0 16 16" xmlns="http://www.w3.org/2000/svg">
  <g transform="translate(0.5106649502840916, 14.555984971788195) scale(0.01462890625, -0.01462890625)">
    <path d="M574 628Q512 628 443.5 616.5Q375 605 278 557Q224 530 183 490Q142 449 114.5 411.5Q87 374 73 347Q60 320 60 320Q61 370 73 418.5Q85 467 108 511Q86 538 59.5 551.5Q33 565 0 565Q6 572 8 579.5Q10 587 5 597Q60 591 82.5 569.5Q105 548 113 520Q131 553 155 583Q179 613 209 638Q243 667 287 690Q330 713 375.5 729Q421 745 466 754Q510 763 547 765Q522 727 529 687Q536 647 574 628ZM671 477Q663 468 637 429Q611 391 582.5 333Q554 275 531 201Q509 128 510 50Q549 48 592.5 55Q636 62 679 77Q679 77 677 104Q675 131 680.5 174.5Q686 218 705 271Q723 324 763 375Q818 444 853 505Q888 566 902 626Q917 688 905.5 734.5Q894 781 881 799Q857 832 818 840Q778 849 739.5 846Q701 843 673 835Q645 827 645 827Q594 811 564 776Q535 741 535.5 705Q536 669 571 641Q606 612 685 609Q685 609 717 587.5Q749 566 671 477ZM758 754Q758 747 748.5 741.5Q739 736 725 736Q711 736 701 741.5Q691 747 691 754Q691 762 701 767Q711 772 725 772Q739 772 748.5 767Q758 762 758 754ZM961 301Q1000 367 1015 435Q1029 503 1021 568.5Q1013 634 984 695Q955 757 907 810Q895 823 875.5 828.5Q856 834 856 834Q875 817 895 791Q915 764 921.5 721Q928 678 912 617Q897 556 844 470Q821 433 792 396Q762 359 737.5 314.5Q713 270 698 214Q684 158 690 83Q690 83 718 92Q745 102 786.5 126Q828 150 875 192Q922 235 961 301Z" fill="#90a959" />
  </g>
</svg>