<?xml version="1.0" encoding="UTF-8"?>
<svg width="16" height="16" viewBox="0 0 16 16" xmlns="http://www.w3.org/2000/svg">
  <g transform="translate(2.1630664062500005, 14.988957031249997) scale(0.015585937499999999, -0.015585937499999999)">
    <path d="M80 678Q69 781 103 844Q137 907 192 934Q219 948 264.5 956.5Q310 965 381 956Q445 949 505 904Q566 858 615.5 782Q665 706 700 602Q735 498 749 372Q681 357 652 295Q623 233 577 140Q553 93 524 56Q495 20 464 -6Q433 -32 402 -46Q371 -61 344 -63Q314 -67 278 -51Q242 -35 208 -5Q174 25 145 66Q117 107 102 155Q88 197 97 244.5Q106 292 120 319Q166 306 218.5 310Q271 314 307 344Q314 404 308 462Q302 520 277 566Q252 612 204 642Q156 672 80 678ZM348 817Q326 817 311 802Q296 787 296 765Q296 743 311 728Q326 713 348 713Q369 713 384 728Q399 743 399 765Q399 787 384 802Q369 817 348 817ZM348 800Q333 800 322.5 790Q312 780 312 765Q312 750 322.5 740Q333 730 348 730Q362 730 372.5 740Q383 750 383 765Q383 780 372.5 790Q362 800 348 800ZM72 662Q50 653 33 617Q16 580 7.5 530.5Q-1 481 0 426Q2 371 15 325Q16 323 17 322.5Q18 322 19 323Q41 337 55 369Q68 402 86 433.5Q104 465 133 486Q162 508 215 501Q191 451 161.5 417Q132 383 85 369Q80 367 80.5 363Q81 359 82 358Q107 326 183.5 324Q260 322 294 354Q297 410 291 464Q285 518 261.5 561Q238 604 193 631Q148 659 72 662Z" fill="#46788d" />
  </g>
</svg>