<?xml version="1.0" encoding="UTF-8"?>
<svg width="16" height="16" viewBox="0 0 16 16" xmlns="http://www.w3.org/2000/svg">
  <g transform="translate(0.5120898437499983, 14.5544814453125) scale(0.01462890625, -0.01462890625)">
    <path d="M935 224Q954 172 939 127Q924 82 870 54Q818 27 761.5 9Q705 -9 648 -22Q612 -30 575.5 -35.5Q539 -41 503 -44Q469 -47 437.5 -40Q406 -33 379 -11Q357 7 343 30.5Q329 54 325 82Q323 100 330 114.5Q337 129 353 139Q375 151 390 168.5Q405 186 412 210Q414 217 414.5 223Q415 229 413 236Q410 253 410 269.5Q410 286 415 302Q424 327 441.5 344Q459 361 482 371Q497 378 537.5 389Q578 400 589 403Q600 405 610 406Q620 407 631 408Q657 409 680 401.5Q703 394 723 377Q736 367 745 354.5Q754 342 760 327Q764 319 770 312.5Q776 306 783 300Q802 287 822.5 279.5Q843 272 866 272Q892 273 909 260Q926 247 935 224ZM479 755Q486 745 489 734.5Q492 724 492 713Q491 703 490.5 693.5Q490 684 489 675Q484 642 500.5 615.5Q517 589 547 583Q587 575 621.5 584Q656 593 683 626Q698 643 704.5 662.5Q711 682 707 705Q705 720 699.5 734.5Q694 749 686 762Q668 790 644.5 811Q621 832 590 845Q572 879 548 905Q524 931 500 941Q496 930 497.5 921.5Q499 913 507 905Q518 895 522.5 882Q527 869 528 855Q518 852 508 850Q498 848 489 844Q472 837 465 824Q458 811 463 793Q465 783 469 773Q473 763 479 755ZM201 626Q206 586 229.5 557.5Q253 529 293 518Q332 508 365 516.5Q398 525 427 552Q437 561 442 573.5Q447 586 444 600Q442 609 439 619Q436 629 431 637Q425 646 418 654.5Q411 663 404 671Q392 685 384 701Q376 717 378 737Q374 772 353 787Q332 802 297 793Q292 791 287 790Q282 789 277 788Q268 801 263.5 814Q259 827 261 842Q262 853 257 860Q252 867 243 872Q231 854 227.5 818Q224 782 232 752Q212 723 204.5 692Q197 661 201 626ZM987 627Q984 631 981 635Q978 639 977 645Q973 672 961.5 695Q950 718 935 740Q933 742 930 744Q927 746 924 750Q918 740 916 731.5Q914 723 919 713Q924 702 926 691Q928 680 923 667Q893 671 874.5 660.5Q856 650 846 622Q836 593 818.5 558Q801 523 788 494Q776 468 784 446.5Q792 425 817 409Q849 389 883 386.5Q917 384 953 400Q978 411 994.5 429.5Q1011 448 1018 474Q1028 516 1020.5 554.5Q1013 593 987 627ZM289 348Q281 356 271 362.5Q261 369 251 375Q226 390 189.5 413Q153 436 128 452Q109 464 88.5 459.5Q68 455 47 430Q40 436 36 443.5Q32 451 31 460Q30 472 22.5 479Q15 486 3 492Q2 487 1 482.5Q0 478 0 475Q1 450 5.5 426.5Q10 403 21 381Q23 377 24.5 372Q26 367 26 363Q29 339 36.5 317.5Q44 296 57 276Q83 237 118.5 217Q154 197 203 203Q237 207 262 224.5Q287 242 302 273Q313 295 310 313.5Q307 332 289 348Z" fill="#ac4142" />
  </g>
</svg>