<?xml version="1.0" encoding="UTF-8"?>
<svg width="16" height="16" viewBox="0 0 16 16" xmlns="http://www.w3.org/2000/svg">
  <g transform="translate(0.5099999999999998, 14.55375) scale(0.01462890625, -0.01462890625)">
    <path d="M954 6L954 6Q920 -29 876 -47Q832 -64 786.5 -64Q741 -64 697 -47Q653 -29 618 6L70 554Q35 589 17 633Q0 677 0 722.5Q0 768 17 812Q35 856 70 890L70 890Q104 925 148 943Q192 960 237.5 960Q283 960 327 943Q371 925 406 890L954 342Q989 307 1007 263Q1024 219 1024 173.5Q1024 128 1007 84Q989 40 954 6ZM444 703L257 516L575 198L762 385L444 703ZM174 599Q165 591 165 579Q165 567 174 559Q182 551 194 551Q206 551 214 559Q222 567 222 579Q222 591 214 599Q206 608 194 608Q182 608 174 599ZM268 694Q260 685 260 673.5Q260 662 268 653Q276 645 288 645Q300 645 308 653Q317 662 317 673.5Q317 685 308 694Q300 702 288 702Q276 702 268 694ZM363 788Q354 780 354 768Q354 756 363 748Q371 739 383 739Q395 739 403 748Q411 756 411 768Q411 780 403 788Q395 797 383 797Q371 797 363 788ZM248 805Q240 797 240 785Q240 773 248 765Q256 757 268 757Q280 757 288 765Q297 773 297 785Q297 797 288 805Q280 814 268 814Q256 814 248 805ZM157 714Q148 705 148 693.5Q148 682 156 673Q165 665 176.5 665Q188 665 197 673Q205 682 205 693.5Q205 705 197 714Q188 722 176.5 722Q165 722 157 714ZM131 831Q122 823 122 811Q122 799 131 791Q139 782 151 782Q163 782 171 791Q179 799 179 811Q179 823 171 831Q163 839 151 839Q139 839 131 831ZM849 301Q858 310 858 321.5Q858 333 849 342Q841 350 829.5 350Q818 350 809 342Q801 333 801 321.5Q801 310 809 301Q818 293 829.5 293Q841 293 849 301ZM755 207Q763 215 763 227Q763 239 755 247Q747 255 735 255Q723 255 715 247Q706 239 706 227Q706 215 715 207Q723 198 735 198Q747 198 755 207ZM661 112Q669 121 669 132.5Q669 144 661 153Q652 161 640.5 161Q629 161 620 153Q612 144 612 132.5Q612 121 620 112Q629 104 640.5 104Q652 104 661 112ZM775 95Q783 104 783 115.5Q783 127 775 136Q767 144 755 144Q743 144 735 136Q726 127 726 115.5Q726 104 735 95Q743 87 755 87Q767 87 775 95ZM867 187Q875 195 875 207Q875 219 867 227Q858 235 846.5 235Q835 235 826 227Q818 219 818 207Q818 195 826 187Q835 178 846.5 178Q858 178 867 187ZM892 69Q901 78 901 89.5Q901 101 892 110Q884 118 872 118Q860 118 852 110Q844 101 844 89.5Q844 78 852 69Q860 61 872 61Q884 61 892 69ZM867 467L954 554Q989 589 1007 633Q1024 677 1024 722.5Q1024 768 1007 812Q989 856 954 890L954 890Q920 925 876 943Q832 960 786.5 960Q741 960 697 943Q653 925 618 890L531 803L867 467ZM157 429L70 342Q35 307 17 263Q0 219 0 173.5Q0 128 17 84Q35 40 70 6L70 6Q104 -29 148 -47Q192 -64 237.5 -64Q283 -64 327 -47Q371 -29 406 6L493 93L157 429Z" fill="#90a959" />
  </g>
</svg>