<?xml version="1.0" encoding="UTF-8"?>
<svg width="16" height="16" viewBox="0 0 16 16" xmlns="http://www.w3.org/2000/svg">
  <g transform="translate(0.5099999999999998, 14.554925537109375) scale(0.01462890625, -0.01462890625)">
    <path d="M0 -43L180 -43L180 939L0 939ZM471 252Q380 305 334 392Q288 478 288 571Q288 664 334 750Q380 837 471 889Q563 942 661 939Q759 935 839.5 888.5Q920 842 972 760Q1024 677 1024 571Q1024 465 972 382Q920 299 839.5 252.5Q759 206 661 203Q563 199 471 252Z" fill="#d28445" />
  </g>
</svg>