<?xml version="1.0" encoding="UTF-8"?>
<svg width="16" height="16" viewBox="0 0 16 16" xmlns="http://www.w3.org/2000/svg">
  <g transform="translate(4.69140625, 14.12464021381579) scale(0.013671875, -0.013671875)">
    <path d="M419 215Q456 235 454 264.5Q452 294 373 322Q373 322 362 348Q351 373 337.5 407.5Q324 442 312 477Q301 513 300 533Q298 559 299.5 565.5Q301 572 301 572Q389 585 378 611.5Q367 638 343 641Q376 665 396 702.5Q416 740 416 784Q416 857 365 908.5Q314 960 243 960Q171 960 120.5 908.5Q70 857 70 784Q70 740 89.5 702.5Q109 665 142 641Q90 627 111 602Q132 577 181 572Q184 572 184.5 564Q185 556 185 534Q185 504 158.5 434.5Q132 365 112 321Q112 321 89 314.5Q66 308 46 290Q27 274 30.5 253Q34 232 67 214Q7 145 4 77.5Q1 10 1 10Q16 -29 91 -47Q166 -65 251 -64Q336 -63 407 -45Q477 -26 483 10Q483 48 475.5 100Q468 152 419 215Z" fill="#d28445" />
  </g>
</svg>