<?xml version="1.0" encoding="UTF-8"?>
<svg width="16" height="16" viewBox="0 0 16 16" xmlns="http://www.w3.org/2000/svg">
  <g transform="translate(0.015085515202705109, 14.980128226902174) scale(0.015585937499999999, -0.015585937499999999)">
    <path d="M473 343Q514 319 556 343Q598 367 598 415Q598 463 556 487Q514 511 473 487Q431 463 431 415Q431 367 473 343ZM363 616Q319 633 273 626Q228 619 195 593.5Q162 568 149 528Q136 487 157 437Q103 417 76 378Q50 339 54.5 298Q59 257 95 223Q131 190 200 180L802 180Q871 182 913 217Q954 251 964 294Q974 337 950 378Q926 419 863 435Q884 474 876 515Q868 555 838.5 584Q809 613 761 623Q713 634 654 613Q644 651 608 675Q573 698 528.5 701.5Q484 705 439 685Q394 665 363 616ZM95 461Q81 515 99 560Q118 605 155 635.5Q192 666 242 678Q292 690 342 676Q382 726 433 744Q485 763 534 759Q583 755 623 730Q663 706 681 669Q732 684 781 674Q830 664 866 635Q902 606 920 561Q938 515 929 460Q987 434 1010 381Q1033 328 1019 274Q1005 220 955 179Q905 138 819 136L181 136Q97 149 53 191Q10 234 2 285.5Q-6 337 19 386Q43 436 95 461Z" fill="#90a959" />
  </g>
</svg>