<?xml version="1.0" encoding="UTF-8"?>
<svg width="16" height="16" viewBox="0 0 16 16" xmlns="http://www.w3.org/2000/svg">
  <g transform="translate(2.0150000000000006, 12.9875) scale(0.015585937499999999, -0.015585937499999999)">
    <path d="M576 768L0 768L0 -128L768 -128L768 576ZM64 704L320 704Q310 701 300.5 691.5Q291 682 285 661Q275 623 279.5 567.5Q284 512 301 452Q278 382 230 282Q182 182 172 164Q159 160 128 145.5Q97 131 64 104ZM347 397Q390 289 421.5 263Q453 237 482 229Q421 220 366.5 208Q312 196 250 170Q251 172 289 250Q327 328 347 397ZM704 -64L66 -64L64 -64L64 -64L66 -64Q90 -68 132.5 -33.5Q175 1 246 118Q276 130 298 138L325 147Q369 159 417 167.5Q465 176 512 181Q555 160 601.5 147.5Q648 135 680 132Q694 132 704 134ZM704 247Q686 258 663.5 264.5Q641 271 615 272Q578 272 536 267Q514 273 473 308Q432 343 389 457Q401 536 402 583Q403 630 402 631Q406 670 389.5 687Q373 704 350 704L350 704L512 704L704 512Z" fill="#ac4142" />
  </g>
</svg>