<?xml version="1.0" encoding="UTF-8"?>
<svg width="16" height="16" viewBox="0 0 16 16" xmlns="http://www.w3.org/2000/svg">
  <g transform="translate(1.5044348538306451, 14.981013183593749) scale(0.015585937499999999, -0.015585937499999999)">
    <path d="M113 960L545 511L437 541Q451 599 409 640Q367 681 313 668Q309 667 306.5 668Q304 669 301 673L101 941Q97 947 98.5 954Q100 961 113 960ZM287 657L80 934Q73 944 66.5 943.5Q60 943 54 932L3 843Q0 837 0 832.5Q0 828 2 823L269 284Q274 289 280 295Q286 301 281 310L26 825Q25 827 24.5 830Q24 833 25 835L58 894L343 365Q345 360 348 357.5Q351 355 357 354Q376 350 384.5 333Q393 316 384 299Q381 295 381.5 291.5Q382 288 384 284L514 28Q518 20 523.5 13Q529 6 539 3Q508 -29 482.5 -36.5Q457 -44 449 -32L321 228L303 214L436 -54Q441 -68 471 -63Q501 -58 516 -45Q555 -11 579.5 7Q604 25 596 54Q590 86 577.5 115.5Q565 145 551 174Q545 182 526.5 185.5Q508 189 484 237Q472 261 471 276.5Q470 292 479 304Q481 306 480.5 309Q480 312 479 314L405 460Q399 472 391 478.5Q383 485 370 487Q282 502 261.5 559.5Q241 617 287 657ZM743 104Q761 119 779 133.5Q797 148 815 164Q833 178 833.5 193.5Q834 209 819 225Q759 288 704 345.5Q649 403 619 431Q602 414 590.5 412.5Q579 411 563 429Q551 443 520.5 449.5Q490 456 468 462Q487 442 512 415Q537 388 566 358Q569 355 582 355Q595 355 602 352Q626 340 643 321Q660 302 671 278Q678 260 672 257.5Q666 255 677 243Q700 220 723.5 198Q747 176 778 161L714 109Q710 105 706.5 104.5Q703 104 699 107Q682 119 666 131Q650 143 634 155Q607 177 610 195Q613 213 594 238Q574 264 554 278Q534 292 513 296Q501 298 496 292Q491 286 494 274Q515 279 538.5 262Q562 245 576 222Q590 200 588 187Q586 174 591 169Q620 138 643.5 119Q667 100 697 84Q709 77 718.5 84.5Q728 92 743 104ZM282 632Q257 599 277 558.5Q297 518 348 506L557 452Q564 451 569 444Q574 437 581 431Q587 426 595 428.5Q603 431 606 440Q610 454 604 466.5Q598 479 584 483L419 531Q420 537 422 541.5Q424 546 425 551Q438 617 376.5 646.5Q315 676 282 632ZM315 604Q327 628 358 612.5Q389 597 384 559Q382 548 377.5 545.5Q373 543 363 547Q335 559 320 571.5Q305 584 315 604ZM307 235L367 299Q385 316 367 333Q349 350 332 333L272 266Q256 248 273.5 232.5Q291 217 307 235Z" fill="#ac4142" />
  </g>
</svg>