<?xml version="1.0" encoding="UTF-8"?>
<svg width="16" height="16" viewBox="0 0 16 16" xmlns="http://www.w3.org/2000/svg">
  <g transform="translate(0.5099999999999998, 14.556064700356012) scale(0.01462890625, -0.01462890625)">
    <path d="M425 77Q421 69 406.5 72.5Q392 76 373 82Q355 88 305 113Q255 138 219 178Q183 219 165 270.5Q147 322 149 373Q150 425 164 453.5Q178 482 202 515Q226 548 277 589Q328 630 349 642Q370 655 394 674.5Q418 694 432 711Q445 729 452 745Q459 761 458 785Q457 809 458.5 828.5Q460 848 459 856Q458 864 459.5 875.5Q461 887 468 884Q475 881 476.5 873Q478 865 478 856Q478 847 476 816Q474 785 472 750Q470 715 447.5 686.5Q425 658 404 637Q384 616 337 564.5Q290 513 268 481Q245 449 234.5 410Q224 371 226 336Q229 300 240.5 264.5Q252 229 286 192Q319 155 343 135.5Q367 116 384 107Q401 99 415 92Q429 85 425 77ZM464 26Q459 19 451 15.5Q443 12 442 15Q441 17 447.5 20Q454 23 460 30Q465 36 465.5 44.5Q466 53 470 54Q474 54 472 43.5Q470 33 464 26ZM484 103Q472 89 436 124Q400 159 377 188Q353 216 333 267Q313 318 312 364Q311 409 331 449Q351 489 369 514Q387 540 415.5 576.5Q444 613 454 633Q463 653 472 675Q481 697 485 725Q488 753 486.5 823.5Q485 894 485 894Q485 894 485.5 922.5Q486 951 493 946Q500 941 502.5 917.5Q505 894 505 869Q505 856 505 826Q505 796 505 761.5Q505 727 503 696Q501 664 497 650Q489 620 472.5 589Q456 558 436 529Q416 500 397.5 449Q379 398 380 361Q381 323 398 272Q415 221 432 195Q448 170 469 140.5Q490 111 484 103ZM515 4Q512 4 512.5 12.5Q513 21 513 34Q513 46 512.5 54.5Q512 63 515 63Q518 63 518 54.5Q518 46 518 34Q518 21 518 12.5Q518 4 515 4ZM584 15Q583 12 575.5 15.5Q568 19 562 26Q556 33 554.5 43.5Q553 54 556 54Q560 54 560.5 45Q561 36 567 30Q573 23 579.5 20.5Q586 18 584 15ZM652 77Q638 71 627.5 68Q617 65 605 76Q585 94 565.5 99.5Q546 105 522 111Q515 113 510 124.5Q505 136 503 141Q495 159 488.5 178Q482 197 478 216Q466 262 464 308Q462 353 466.5 399Q471 445 481 490Q491 536 502 581Q512 619 518 657.5Q524 696 525 736Q525 757 522.5 777.5Q520 798 518 819Q517 827 515.5 840.5Q514 854 525 837Q529 830 535 834Q541 838 542 831Q543 825 544 792.5Q545 760 547 745Q553 708 588.5 684Q624 660 652 643Q684 623 720 599Q755 576 786 547.5Q817 519 840 485Q863 451 869 410Q877 357 867 307Q857 258 830 215.5Q803 173 758 137Q714 102 652 77ZM1024 448Q1024 595 952 711Q880 826 767.5 890.5Q655 955 519 960Q383 965 255 891Q128 817 64 697Q0 577 0 448Q0 319 64 199Q128 79 255 5Q383 -69 519 -64Q655 -59 767.5 5.5Q880 70 952 185Q1024 301 1024 448Z" fill="#6a9fb5" />
  </g>
</svg>