<?xml version="1.0" encoding="UTF-8"?>
<svg width="16" height="16" viewBox="0 0 16 16" xmlns="http://www.w3.org/2000/svg">
  <g transform="translate(0.4868768901209682, 14.55128770884901) scale(0.01462890625, -0.01462890625)">
    <path d="M489 514Q488 524 488.5 534Q489 544 490 554Q491 573 491 590.5Q491 608 483 623Q483 623 483 623.5Q483 624 483 624L474 646L465 633L471 632L469 620L455 623Q454 623 452.5 624Q451 625 451 626Q450 628 450 629Q450 630 451 632L469 662Q470 664 471.5 664.5Q473 665 475 665Q477 665 478 664Q479 663 480 662L494 628Q502 611 502.5 591.5Q503 572 501 553Q501 543 500.5 533.5Q500 524 500 515L489 514ZM540 554Q539 573 539 590.5Q539 608 547 623Q547 623 547 623.5Q547 624 547 624L556 646L564 633L559 632L561 620L575 623Q576 623 577 624Q578 625 579 626Q580 628 579.5 629Q579 630 579 632L560 662Q560 664 558.5 664.5Q557 665 555 665Q553 665 552 664Q551 663 550 662L536 628Q527 611 527 591.5Q527 572 529 553Q529 543 529.5 533.5Q530 524 530 515L541 514Q542 524 541.5 534Q541 544 540 554ZM402 480Q388 480 378 470Q368 460 368 446Q368 432 378 422.5Q388 413 402 413Q416 413 425.5 422.5Q435 432 435 446Q435 460 425.5 470Q416 480 402 480ZM624 483Q610 483 600.5 473.5Q591 464 591 450Q591 436 600.5 426.5Q610 417 624 417Q638 417 648 426.5Q658 436 658 450Q658 464 648 473.5Q638 483 625 483ZM509 163L486 201L486 243L476 243L476 200Q476 199 476 198.5Q476 198 476 197L500 158L509 163ZM562 163L539 201L539 243L529 243L529 200Q529 199 529 198.5Q529 198 529 197L553 158L562 163ZM927 439Q902 421 874.5 410Q847 399 819 395Q826 391 833.5 386.5Q841 382 848 377Q908 333 923 264Q938 195 899 141Q859 87 789 80.5Q719 74 659 118Q623 144 603 180.5Q583 217 580 255Q565 250 549 247.5Q533 245 515 245Q500 245 485 247Q470 249 456 254Q452 216 432 180.5Q412 145 377 120Q317 76 247 82.5Q177 89 138 143Q98 196 113 265Q128 334 188 378Q198 385 207.5 390.5Q217 396 227 400Q194 402 161 413.5Q128 425 98 447Q61 475 37 511Q13 548 4.5 588Q-4 628 3 667Q11 707 35 740Q59 774 95 792Q130 811 170.5 815Q211 819 254 807Q296 796 333 768Q398 721 421 648.5Q444 576 417 513Q424 511 430.5 507.5Q437 504 443 500Q459 506 477.5 509.5Q496 513 515 513Q533 513 550 510Q567 507 583 502Q588 506 594 508.5Q600 511 606 513Q584 575 607.5 644Q631 713 693 758Q730 786 772 797Q814 808 854 804.5Q894 801 930 782Q965 763 989 730Q1013 697 1021 658Q1028 618 1019.5 578.5Q1011 539 987 503Q964 466 927 439ZM344 411Q342 414 340.5 417.5Q339 421 338 424Q333 422 328.5 419.5Q324 417 319 415Q325 415 331.5 414Q338 413 344 411ZM452 446Q452 467 437.5 482Q423 497 402 497Q381 497 366.5 482Q352 467 352 446Q352 426 366.5 411Q381 396 402 396Q423 396 437.5 411Q452 426 452 446ZM576 335L576 338L561 338Q561 338 561 336.5Q561 335 561 332Q563 323 561.5 316.5Q560 310 554 306Q544 298 523 300.5Q502 303 484 314Q480 316 472 323.5Q464 331 465 341L450 343Q449 331 455.5 320Q462 309 477 301Q486 295 498 291Q510 287 521 286Q524 285 526.5 285Q529 285 531 285Q541 285 549 287.5Q557 290 563 294Q570 298 575 308Q580 318 576 335ZM674 450Q674 471 659.5 485.5Q645 500 625 500Q604 500 589 485.5Q574 471 574 450Q574 429 589 414.5Q604 400 625 400Q645 400 659.5 414.5Q674 429 674 450ZM699 411Q695 413 691 415Q687 417 683 419Q682 417 681 415Q680 413 678 411Q679 409 679.5 408Q680 407 680 406Q684 407 689 408.5Q694 410 699 411Z" fill="#825078" />
  </g>
</svg>