<?xml version="1.0" encoding="UTF-8"?>
<svg width="16" height="16" viewBox="0 0 16 16" xmlns="http://www.w3.org/2000/svg">
  <g transform="translate(0.011706054687500307, 14.987247440732757) scale(0.015585937499999999, -0.015585937499999999)">
    <path d="M408 869Q315 898 243 900Q171 901 122 875.5Q73 850 49 798Q25 746 29 667Q30 652 35 622.5Q40 593 50 554Q59 516 72 472.5Q85 429 101 388Q117 347 136 312.5Q155 278 178 257Q190 247 203.5 240.5Q217 234 232 235Q247 235 261.5 243Q276 251 289 266Q320 300 342.5 323.5Q365 347 370 352Q384 345 398 341Q412 337 430 337Q414 317 405.5 309Q397 301 370 298Q341 294 320 282.5Q299 271 314 247Q325 230 387 222Q449 214 495 254Q496 194 497 141Q499 88 513 50Q527 12 558 -6Q588 -24 647 -16Q742 -1 757 65.5Q772 132 790 265Q878 248 947 286.5Q1016 325 986 352Q971 366 926.5 351.5Q882 337 843 356Q874 396 906 460Q938 524 959.5 592Q981 660 987 721Q992 781 970 813Q939 849 898 872Q858 895 811 905Q764 915 713 912Q662 909 610 893Q542 907 493 899.5Q444 892 408 869ZM659 877Q718 889 774 882Q829 876 871.5 856Q914 836 938 805Q963 774 960 736Q955 686 944 639Q932 593 914.5 549Q897 505 874 463Q852 422 825 382Q824 383 823 384.5Q822 386 820 388Q852 442 844.5 482.5Q837 523 836 569Q835 591 841.5 628.5Q848 666 845 675Q826 727 790 780.5Q754 834 659 877ZM535 874Q591 872 636 856Q680 840 714 813.5Q748 787 772 753Q796 719 812 682Q731 689 704.5 656Q678 623 693 567Q704 532 720 499.5Q736 467 755 437Q766 421 771 408Q776 395 806 359Q779 352 770.5 334.5Q762 317 763 294Q761 276 752 205Q743 134 737 102Q728 50 702 34Q676 18 641 11Q551 -2 538 65Q525 132 525 306Q524 330 504.5 346Q485 362 461 357Q473 410 500.5 461Q528 512 500 620Q485 674 434.5 677.5Q384 681 328 654Q339 756 388.5 815.5Q438 875 535 874ZM294 496Q289 458 303.5 423.5Q318 389 345 367Q331 351 311 332Q291 313 280 299Q239 244 206.5 270.5Q174 297 129 397Q105 472 86 535Q67 598 60.5 651Q54 704 63 748Q72 792 104 828Q154 873 226.5 872Q299 871 381 849Q361 830 346.5 807.5Q332 785 323 762Q290 674 297.5 619Q305 564 294 496ZM802 413Q779 452 753.5 499Q728 546 722 573Q710 618 728.5 640Q747 662 816 654Q816 634 811.5 615Q807 596 806 570Q806 531 813 487.5Q820 444 802 413ZM432 364Q384 365 350 402.5Q316 440 323 493Q328 523 328.5 555Q329 587 326 620Q362 643 413 650.5Q464 658 472 614Q497 505 473.5 468Q450 431 432 364ZM789 635Q787 645 762.5 642Q738 639 739 629Q742 618 759.5 614.5Q777 611 788 631Q788 632 788.5 633Q789 634 789 635ZM454 613Q469 629 437.5 634.5Q406 640 403 626Q401 618 418.5 606Q436 594 454 613ZM955 328Q916 294 863.5 290Q811 286 793 294Q793 310 796.5 320.5Q800 331 824 335Q842 322 874 320Q906 318 955 328ZM342 262Q350 267 372.5 270.5Q395 274 412 282Q425 288 435 299.5Q445 311 458 324Q470 339 486 324.5Q502 310 493 293Q460 249 412 249.5Q364 250 342 262ZM22 548Q-12 671 5 753Q22 835 76 877.5Q130 920 215 924Q300 929 404 898Q445 920 497 926Q549 932 612 921Q667 936 722 939Q778 941 828.5 928.5Q879 916 923 890Q966 863 999 821Q1017 792 1017 742Q1018 693 1003.5 632.5Q989 572 961 505Q932 439 891 374Q947 377 962 384Q977 391 1005 372Q1031 348 1022 321Q1013 295 981.5 274Q950 253 904 241Q859 229 812 233Q811 230 810.5 226.5Q810 223 810 219Q808 147 796.5 100Q785 53 761 22Q738 -9 705.5 -22Q673 -35 645 -40Q588 -48 554 -32Q520 -16 501.5 18.5Q483 53 477 102Q472 151 471 207Q422 186 366.5 196Q311 206 292 229Q253 200 218.5 207.5Q184 215 158 237Q135 259 116 290Q97 321 81 360Q65 399 51 446Q36 493 22 548Z" fill="#46788d" />
  </g>
</svg>