<?xml version="1.0" encoding="UTF-8"?>
<svg width="16" height="16" viewBox="0 0 16 16" xmlns="http://www.w3.org/2000/svg">
  <g transform="translate(1.44625, 14.55375) scale(0.01462890625, -0.01462890625)">
    <path d="M248 249L200 184L200 212ZM243 61L239 -1L261 -14L245 54L243 61ZM896 275L869 250L846 251L861 273L853 292L779 318L731 318L647 295L558 219L570 192L593 175L611 219L658 197L658 184L625 199L620 190L652 173L664 145L635 170L630 166L634 92L597 138L596 144L520 112L494 172L487 206L482 202L487 97L535 49L553 85L600 64L600 53L569 67L563 56L592 41L604 11L577 37L569 34L574 -40L540 -1L540 3L493 -14L466 43L465 9L493 -56L387 83L400 62L411 -64L333 80L307 18L307 -45L269 79L272 162L271 160L216 88L235 166L296 249L437 344L338 331L374 355L284 390L329 386L216 448L277 437L302 422L135 549L199 527L75 641L137 618L155 616L109 651L16 785L115 725L0 883L327 710L234 810L220 888L310 809L252 960L642 638L652 595L715 469L672 511L688 442L700 428L779 410L858 386L895 325L896 275Z" fill="#75b5aa" />
  </g>
</svg>