<?xml version="1.0" encoding="UTF-8"?>
<svg width="16" height="16" viewBox="0 0 16 16" xmlns="http://www.w3.org/2000/svg">
  <g transform="translate(0.020000000000000462, 14.984966129351267) scale(0.015585937499999999, -0.015585937499999999)">
    <path d="M255 5Q128 79 64 199Q0 319 0 448Q0 577 64 697Q128 817 255 891Q383 965 519 960Q655 955 767.5 890.5Q880 826 952 711Q1024 595 1024 448Q1024 301 952 185Q880 70 767.5 5.5Q655 -59 519 -64Q383 -69 255 5ZM926 448Q926 567 868 660Q809 753 718.5 805.5Q628 858 518 862Q408 866 305 806Q201 747 150 650Q98 553 98 448Q98 343 150 246Q201 149 305 90Q408 30 518 34Q628 38 718.5 90.5Q809 143 868 236Q926 329 926 448ZM780 197L680 287L688 296L788 205ZM237 204L230 213L332 300L340 292L237 204ZM803 223L695 304L702 314L810 233L803 223ZM213 234L207 243L318 320L324 311L213 234ZM823 252L708 323L714 332L829 262ZM193 266L187 276L305 341L311 331L193 266ZM840 283L719 342L724 352L845 293L840 283ZM175 301L171 311L295 363L300 353L175 301ZM855 315L728 362L732 373L859 326ZM162 337L158 348L288 386L291 375L162 337ZM866 349L735 383L738 394L869 360ZM152 374L150 385L282 410L285 399ZM874 383L741 405L743 416L876 395ZM146 412L145 423L280 434L281 423ZM878 418L744 427L744 439L879 430ZM279 447L144 450L145 462L280 459L279 447ZM745 449L744 461L879 465L879 453ZM281 472L147 489L148 500L282 483ZM743 474L742 485L875 503L877 492ZM284 496L153 527L156 538L287 507ZM739 498L737 509L868 541L870 530ZM290 519L163 564L167 575L294 530ZM733 521L729 532L856 577L860 567L733 521ZM299 542L177 600L182 610L304 552L299 542ZM724 544L719 554L841 613L846 602ZM310 564L195 634L201 644L316 573L310 564ZM713 566L707 575L822 646L828 636ZM323 584L216 666L223 675L330 593ZM699 586L692 595L799 677L806 668ZM339 603L240 696L248 704L346 611ZM651 635L641 641L719 751L729 745L651 635ZM631 648L621 654L687 771L697 766ZM407 629Q355 599 328 550Q302 501 302 448Q302 395 328 346Q355 297 407 267Q459 236 515 238Q571 240 617 266.5Q663 293 692 340Q722 388 722 448Q722 508 692 556Q663 603 617 629.5Q571 656 515 658Q459 660 407 629ZM491 411Q469 423 469 448Q469 473 491 485Q512 497 533.5 485Q555 473 555 448Q555 423 533.5 411Q512 399 491 411ZM567 477Q531 498 531 540.5Q531 583 567 604Q604 625 641 603.5Q678 582 678 540Q678 498 641 476.5Q604 455 567 477Z" fill="#66783e" />
  </g>
</svg>