<?xml version="1.0" encoding="UTF-8"?>
<svg width="16" height="16" viewBox="0 0 16 16" xmlns="http://www.w3.org/2000/svg">
  <g transform="translate(-0.46999999999999886, 15.413323735730994) scale(0.016542968749999998, -0.016542968749999998)">
    <path d="M119 755Q134 758 148 760Q162 762 176 762Q173 742 153 739.5Q133 737 119 755ZM481 285Q446 308 422 293Q398 278 353 277Q326 277 290 287.5Q254 298 209 327Q245 275 287 244.5Q329 214 374 201Q461 176 500.5 196Q540 216 623 188Q611 208 588 218.5Q565 229 539 234Q514 239 494.5 237Q475 235 454 245Q436 253 440 267Q444 281 481 285ZM479 638Q498 612 521.5 591.5Q545 571 581 555Q629 536 677.5 533.5Q726 531 775 548Q814 561 841 548.5Q868 536 882 499Q885 544 865 566Q845 588 824 599Q779 621 729 599.5Q679 578 624 583Q588 586 553.5 596.5Q519 607 479 638ZM686 319Q677 311 665 305Q653 299 645 298Q646 297 646 296.5Q646 296 646 296Q689 296 734.5 307Q780 318 817 358Q841 384 855 397.5Q869 411 916 402Q884 428 837 423.5Q790 419 752 384Q737 371 722.5 354Q708 337 686 319ZM531 416Q578 393 632.5 394.5Q687 396 736 428Q782 459 819.5 449.5Q857 440 861 446Q826 470 792 473Q758 476 725 468Q662 453 636.5 424Q611 395 531 416ZM676 628Q668 628 651 625Q634 622 611 630Q574 644 542.5 675Q511 706 429 705Q440 689 467 668Q493 647 528 631.5Q563 616 602 612Q641 609 676 628ZM1024 318Q982 329 955.5 366Q929 403 861 362Q915 364 935.5 323.5Q956 283 1024 318ZM660 516Q619 515 583 531Q547 546 515.5 572Q484 598 456 629Q429 661 406 692Q376 732 332 759Q287 787 234 795.5Q181 804 121 791Q61 777 0 736Q0 736 56.5 727Q113 718 124 598Q130 531 131 498.5Q132 466 156 423Q189 366 228 341Q268 316 303 309Q338 302 361 305Q385 309 385 309L385 309Q325 317 298 351.5Q271 386 264 419Q260 437 273 454Q286 471 317 470Q348 469 375.5 436.5Q403 404 443 358Q498 289 571.5 305.5Q645 322 703 374Q700 382 676.5 374.5Q653 367 624 367Q580 368 540 378.5Q500 389 468 411Q406 459 401 508.5Q396 558 449 554Q472 552 492.5 530.5Q513 509 534 499Q564 486 595 490Q626 494 660 516ZM688 98Q660 110 644 146.5Q628 183 539 178Q592 165 614 129Q636 93 688 98Z" fill="#ac4142" />
  </g>
</svg>