<?xml version="1.0" encoding="UTF-8"?>
<svg width="16" height="16" viewBox="0 0 16 16" xmlns="http://www.w3.org/2000/svg">
  <g transform="translate(0.5131488993630489, 14.55322066457648) scale(0.01462890625, -0.01462890625)">
    <path d="M996 546Q988 523 963 516.5Q938 510 917 532Q885 569 841 587Q797 605 753 600.5Q709 596 672 567Q635 539 618 483Q605 443 614 404Q623 365 651 335Q679 305 724 289Q769 273 828 278Q853 280 868.5 260.5Q884 241 875 216L798 3Q783 -36 747.5 -54Q712 -72 667 -58L71 160Q30 174 11 212Q-8 250 5 290L226 894Q244 934 275.5 950.5Q307 967 356 955L953 737Q993 723 1012.5 684.5Q1032 646 1018 607L996 546ZM882 440Q882 500 829.5 530.5Q777 561 725 531Q673 500 673 439.5Q673 379 725 349Q777 319 829.5 349Q882 379 882 440Z" fill="#aa759f" />
  </g>
</svg>