<?xml version="1.0" encoding="UTF-8"?>
<svg width="16" height="16" viewBox="0 0 16 16" xmlns="http://www.w3.org/2000/svg">
  <g transform="translate(0.9991455078125, 14.127979767628204) scale(0.013671875, -0.013671875)">
    <path d="M341 260Q337 284 326 302Q315 320 291 329Q281 333 272.5 338.5Q264 344 255 349Q244 353 233.5 357.5Q223 362 212 365Q203 367 195.5 363.5Q188 360 183 353Q179 346 181 339.5Q183 333 187 327Q191 321 196 314.5Q201 308 206 302Q214 292 223 282Q232 272 240 262Q247 252 252.5 241Q258 230 257 217Q255 188 242.5 164Q230 140 209 121Q206 119 202.5 117.5Q199 116 196 117Q183 118 171 123Q159 128 149 138Q138 148 139.5 159.5Q141 171 155 179Q158 181 161 183Q164 185 167 187Q175 193 177.5 202.5Q180 212 176 221Q174 226 171.5 230.5Q169 235 165 238Q148 253 131 269Q114 285 95 299Q51 334 27.5 379.5Q4 425 1 480Q-3 541 11 598.5Q25 656 58 708Q70 728 85.5 746Q101 764 123 773Q138 780 154 784.5Q170 789 186 793Q230 805 274.5 811Q319 817 364 810Q404 803 432 782Q460 761 473 722Q482 697 484.5 670.5Q487 644 484 618Q479 565 443.5 522.5Q408 480 357 466Q335 460 321 464.5Q307 469 294 487Q285 500 276.5 514Q268 528 260 542Q258 544 257 546.5Q256 549 255 551Q254 553 253 555Q252 557 251 560Q254 537 260.5 515Q267 493 279 474Q286 463 295 456Q304 449 318 447Q366 443 406.5 459.5Q447 476 476 515Q508 558 516.5 608Q525 658 516 711Q514 721 511.5 731.5Q509 742 506 752Q505 759 507.5 763.5Q510 768 517 771Q520 772 523 772.5Q526 773 529 774Q569 782 609 785Q649 788 690 784Q736 779 779 765.5Q822 752 860 727Q921 687 960 631Q999 575 1019 506Q1022 496 1023 485Q1024 474 1024 464Q1024 457 1020 455Q1016 453 1011 458Q1005 463 999.5 468Q994 473 989 479Q985 484 980.5 490Q976 496 972 502Q968 506 965 505.5Q962 505 961 500Q960 496 959 493Q958 490 957 486Q946 448 928.5 414Q911 380 884 351Q880 347 877 341.5Q874 336 874 330Q873 315 872.5 300Q872 285 873 270Q876 238 880 206Q884 174 888 142Q890 124 883.5 113Q877 102 860 96Q848 91 835.5 88Q823 85 811 84Q791 83 770.5 83.5Q750 84 730 84Q729 106 727 126.5Q725 147 704 159Q708 176 712 192Q716 208 719 224Q722 238 719.5 251Q717 264 707 275Q698 285 687.5 287.5Q677 290 667 284Q636 267 604.5 265.5Q573 264 540 276Q525 281 514.5 278Q504 275 496 261Q487 246 483 230Q479 214 480 197Q481 177 484.5 156Q488 135 490 114Q492 103 489.5 98.5Q487 94 475 91Q450 84 423.5 83Q397 82 371 84Q370 84 368.5 84.5Q367 85 366 85Q365 107 362 127.5Q359 148 333 160Q344 184 344.5 209.5Q345 235 341 260L341 260ZM134 375Q137 378 140 383.5Q143 389 144 394Q147 407 139 421.5Q131 436 120 441Q114 443 108.5 442Q103 441 99 436Q89 425 79 413Q69 401 58 389Q57 387 55.5 385Q54 383 52 380Q48 373 50.5 367.5Q53 362 62 360Q67 358 72.5 357.5Q78 357 83 357Q97 358 110 361.5Q123 365 134 375ZM135 547Q135 557 128.5 563.5Q122 570 113 570Q103 570 96 563Q89 556 90 547Q90 537 97 530.5Q104 524 113 524Q122 525 128.5 531.5Q135 538 135 547Z" fill="#ac4142" />
  </g>
</svg>