<?xml version="1.0" encoding="UTF-8"?>
<svg width="16" height="16" viewBox="0 0 16 16" xmlns="http://www.w3.org/2000/svg">
  <g transform="translate(0.5077493990384605, 14.549841787300856) scale(0.01462890625, -0.01462890625)">
    <path d="M659 791Q649 790 638.5 787.5Q628 785 619 780Q577 756 577 709Q577 662 619 638Q660 615 701.5 638.5Q743 662 743 709Q743 745 717 768Q691 791 659 791ZM683 768Q694 768 703 760Q712 752 712 739Q712 722 697 713.5Q682 705 667 713Q653 722 653 739Q653 756 667 764Q671 766 675 767Q679 768 683 768ZM586 960Q529 961 477 950Q425 940 374.5 925Q324 910 273 893Q223 877 170 864Q110 850 70.5 849Q31 848 0 866Q9 829 31 781.5Q53 734 121 693Q88 625 79 555Q70 486 78.5 421Q87 356 110 299Q133 242 162 199Q204 139 265 85Q326 31 406 -6Q486 -43 584 -58Q681 -73 795 -54Q755 -17 719 23Q683 64 658.5 108.5Q634 153 624 199Q614 246 624 294Q583 307 545 330Q506 353 475.5 385.5Q445 418 425 461Q406 504 404 555Q401 664 448 727.5Q495 791 569 838Q634 877 709.5 863Q785 849 851 808L762 605Q752 586 735 581Q718 576 674 558Q628 540 626 491Q624 442 670 394Q657 370 645 344.5Q633 319 624 294Q667 283 694 282Q721 281 745 282Q745 273 743 264.5Q741 256 734 247Q809 259 875 306Q941 354 980.5 423.5Q1020 493 1024 579Q1028 665 980 754Q959 792 923 829Q887 865 837 894Q787 923 724 941Q661 959 586 960Z" fill="#6a9fb5" />
  </g>
</svg>