<?xml version="1.0" encoding="UTF-8"?>
<svg width="16" height="16" viewBox="0 0 16 16" xmlns="http://www.w3.org/2000/svg">
  <g transform="translate(0.5099999999999998, 14.55375) scale(0.01462890625, -0.01462890625)">
    <path d="M409 960L409 756L204 756L204 551L0 551L0 345L204 345L204 140L409 140L409 -64L615 -64L615 140L820 140L820 345L1024 345L1024 551L820 551L820 756L615 756L615 960L409 960ZM411 754L613 754L613 549L818 549L818 347L614 346L613 142L411 142L411 347L206 347L206 549L411 549Z" fill="#ac4142" />
  </g>
</svg>