<?xml version="1.0" encoding="UTF-8"?>
<svg width="16" height="16" viewBox="0 0 16 16" xmlns="http://www.w3.org/2000/svg">
  <g transform="translate(2.5873046874999996, 14.55375) scale(0.01462890625, -0.01462890625)">
    <path d="M570 788L653 788Q653 788 653 767.5Q653 747 653 727Q653 717 665 694Q677 671 701 647Q708 641 724 605Q740 569 740 497Q740 497 740 465Q740 434 740 388Q740 342 740 289Q740 236 740 192Q740 144 721 98Q703 52 669.5 16Q636 -20 590 -42Q544 -64 488 -64L230 -64Q190 -62 149 -42Q108 -22 75 10.5Q42 43 21 86Q0 130 0 180Q0 180 0 218Q0 256 0 309.5Q0 363 0 421Q0 480 0 521Q0 626 42 651Q84 676 84 737Q84 758 84 773Q84 788 84 788L167 788Q167 788 167 768.5Q167 749 167 728Q167 706 159.5 684Q152 662 142 646Q176 615 234 623Q292 631 357.5 645.5Q423 660 488 664Q554 669 603 633Q580 668 575.5 700Q571 732 571 732L570 788ZM90 960Q65 954 48.5 939Q32 924 27 894L27 862Q27 862 32.5 843Q38 824 68 820Q68 820 78.5 819.5Q89 819 99 827Q106 834 115 855.5Q124 877 139 876Q155 875 169 847.5Q183 820 199 820Q213 819 225.5 847Q238 875 255 875Q271 876 283.5 848Q296 820 311 819Q327 818 339.5 849.5Q352 881 367 876Q384 872 396.5 846Q409 820 425 820Q440 820 454 849Q468 878 483 876Q501 875 512.5 847Q524 819 539 820Q556 822 567.5 848Q579 874 598 876Q616 877 630.5 849Q645 821 654 819Q680 819 695 828.5Q710 838 710 859L710 892Q708 914 694 932Q680 950 651 960L90 960ZM628 533Q628 533 624.5 540.5Q621 548 616 548Q612 549 596.5 538.5Q581 528 570 513Q548 526 514 515Q481 504 445 481Q409 458 376 430Q343 401 323 380Q302 357 264 317Q226 277 193.5 233Q161 189 145 147Q128 104 151 77Q176 47 225 69Q275 91 325 130Q375 169 412 206Q449 244 449 244Q449 244 477 275Q505 306 534 348Q563 390 582 434Q600 477 581 502Q594 522 611 527.5Q628 533 628 533Z" fill="#4d9085" />
  </g>
</svg>