<?xml version="1.0" encoding="UTF-8"?>
<svg width="16" height="16" viewBox="0 0 16 16" xmlns="http://www.w3.org/2000/svg">
  <g transform="translate(0.014990234375000817, 14.98094140625) scale(0.015585937499999999, -0.015585937499999999)">
    <path d="M921 702Q921 706 895 698.5Q869 691 831 677Q820 673 766.5 652.5Q713 632 701 627Q702 632 702 641.5Q702 651 698 663Q692 683 679 685Q666 687 652 682Q634 675 622 667Q610 659 600 651Q592 644 585.5 637.5Q579 631 573 623Q563 621 555 618Q547 615 541 612Q535 608 528 601.5Q521 595 518 590Q517 588 516.5 586.5Q516 585 517 585Q519 584 531.5 588Q544 592 547 592Q548 593 548.5 593Q549 593 550 593Q543 582 534.5 568Q526 554 527 553Q527 551 528 552Q529 553 529 553Q529 553 540 565Q551 577 563 590Q568 582 573 575.5Q578 569 582 565Q587 562 593.5 558Q600 554 607 552Q614 550 623.5 550Q633 550 635 550Q639 551 640.5 552Q642 553 642 554Q641 555 632 556Q623 557 618 558Q614 559 608.5 561Q603 563 598 567Q594 570 590 574.5Q586 579 583 586Q581 589 579.5 594.5Q578 600 578 600Q578 600 586 602Q594 604 600 604Q606 604 611 603Q616 602 619 602Q621 601 624.5 599Q628 597 628 597Q628 597 625.5 592.5Q623 588 624 585Q624 578 626.5 574.5Q629 571 633 569Q638 566 643 567Q648 568 652 571Q655 570 657 567Q659 564 662 562Q666 560 669.5 560Q673 560 675 563Q676 564 675.5 568.5Q675 573 675 573Q675 573 673.5 574.5Q672 576 670 579Q669 580 666.5 584Q664 588 662 593Q658 599 655.5 602.5Q653 606 647 610Q639 617 627.5 620.5Q616 624 600 625Q609 632 618.5 637.5Q628 643 640 646Q652 650 660.5 649.5Q669 649 673 644Q676 640 677 632.5Q678 625 678 620Q677 615 675.5 611.5Q674 608 674 604Q673 599 673 596.5Q673 594 675 593Q677 591 690.5 599Q704 607 707 608Q712 611 724.5 616.5Q737 622 747 627Q763 634 784.5 643.5Q806 653 820 659Q834 664 873 679.5Q912 695 916 697Q920 699 921 700.5Q922 702 921 702ZM639 588Q639 588 642 585Q645 582 646 580Q644 579 643.5 579Q643 579 642 578Q641 579 638.5 581Q636 583 636 583L639 588ZM518 618Q517 621 492 613.5Q467 606 464 605Q459 604 452 604.5Q445 605 440 608Q438 609 414 621.5Q390 634 390 634Q390 634 367.5 649Q345 664 341 665Q336 668 330 668.5Q324 669 318 667Q305 663 292 654.5Q279 646 269 639Q252 626 242 610.5Q232 595 231 591Q229 584 230 579.5Q231 575 238 570Q249 561 282 544.5Q315 528 317 527Q318 527 324.5 526.5Q331 526 334 526Q337 527 340 528.5Q343 530 343 532Q344 534 340 533.5Q336 533 331 536Q324 540 296 556Q268 572 266 574Q265 575 260.5 578Q256 581 256 586Q257 590 267 601Q277 612 284 617Q297 626 306.5 630.5Q316 635 320 636Q327 638 335.5 636.5Q344 635 349 632Q354 630 374.5 620Q395 610 403 606Q412 602 426 596Q440 590 445 589Q447 589 456 590Q465 591 471 594Q474 595 485.5 601Q497 607 499 608Q502 609 510.5 612.5Q519 616 518 618ZM308 624L331 631L410 575ZM282 607L301 621L379 563ZM264 585L276 600L354 549ZM340 370Q342 368 311.5 330.5Q281 293 268 274Q254 255 236.5 230Q219 205 219 205Q219 205 218 202.5Q217 200 221 199Q224 197 246.5 196.5Q269 196 269 196Q269 196 295.5 195.5Q322 195 328 198Q333 201 341 223Q349 245 351 250Q353 255 366.5 295Q380 335 380 325Q380 315 374.5 283Q369 251 369 251Q369 251 364 230.5Q359 210 357 205Q356 200 349 190Q342 180 320 176Q297 172 258.5 173Q220 174 203 175Q185 175 186.5 188.5Q188 202 191 207Q193 211 223 249Q253 287 263 297Q278 313 307.5 342.5Q337 372 340 370ZM299 203L314 202L360 325ZM267 204L284 204L334 320ZM233 205L251 205L315 316ZM504 460Q507 455 485.5 437.5Q464 420 448 393Q446 388 439 373Q432 358 433 348Q434 337 442 328Q450 319 462 318Q473 316 495.5 322Q518 328 529 332Q540 337 553 342.5Q566 348 569 349Q593 356 600.5 352.5Q608 349 608 349Q608 349 592 345Q576 341 569 337Q562 333 534.5 319.5Q507 306 492 301Q477 296 453 294Q429 292 417 297Q406 302 403 310Q400 318 400 323Q401 346 410 366Q419 386 433 405Q447 423 465.5 438Q484 453 487 455Q490 456 495.5 459.5Q501 463 504 460ZM888 355Q888 355 826.5 356.5Q765 358 744 359Q723 361 698 365.5Q673 370 664 368Q655 367 642 357.5Q629 348 629 348Q629 348 638 349.5Q647 351 650 350Q652 350 655.5 348.5Q659 347 660 345Q660 343 661.5 336.5Q663 330 663 330Q663 330 676.5 336Q690 342 696 344Q703 347 711.5 347.5Q720 348 723 345Q725 342 724 333.5Q723 325 724 324Q724 322 725.5 321Q727 320 727 320Q727 320 733 325.5Q739 331 741 333Q743 335 752.5 340Q762 345 767 346Q772 347 777 344.5Q782 342 783 340Q784 337 783 333.5Q782 330 782 330Q782 330 784 330Q786 330 787 331Q789 332 794.5 335.5Q800 339 801 339Q804 341 811.5 342.5Q819 344 823 345Q828 346 853 347.5Q878 349 881 350Q884 351 886 353Q888 355 888 355ZM310 500Q310 500 288 481Q265 462 238 439.5Q211 417 187 397Q164 378 162 376Q158 372 123.5 338Q89 304 83 300Q77 297 69.5 296.5Q62 296 59 295Q57 294 43.5 289.5Q30 285 23 282Q17 280 9.5 274Q2 268 1 264Q0 260 0.5 255.5Q1 251 6 247Q11 242 22 239.5Q33 237 33 237Q33 237 45 233Q57 229 61 226Q66 222 65.5 216.5Q65 211 65 208Q66 205 70 196Q74 187 78 185Q82 183 85 185.5Q88 188 91 190Q94 192 99.5 204.5Q105 217 105 217Q105 217 108.5 229.5Q112 242 116 251Q121 260 133 268.5Q145 277 145 277Q145 277 144 268.5Q143 260 145 258Q147 256 162.5 257Q178 258 184 259Q190 260 191.5 263.5Q193 267 195 274Q197 282 198 290Q199 298 200 302Q202 306 205 310.5Q208 315 213 318Q217 320 226.5 324Q236 328 236 328Q236 328 220 327Q204 326 180 316Q169 311 160 304.5Q151 298 145 295Q139 292 122.5 278.5Q106 265 102 258Q98 250 95 242.5Q92 235 91 229Q89 223 87.5 219Q86 215 83 214Q80 214 80 216.5Q80 219 79 220Q78 221 79 224.5Q80 228 79 231Q77 234 66 240Q55 246 45 248Q35 250 27 252.5Q19 255 17 256Q16 257 15.5 258.5Q15 260 16 262Q17 265 25 269Q33 273 39 275Q45 278 56 281.5Q67 285 70 285Q74 284 75 283Q76 282 76 280Q76 277 75 272.5Q74 268 74 268Q74 268 85.5 281.5Q97 295 102 301Q107 307 156.5 353Q206 399 226 416Q247 433 272.5 451.5Q298 470 309 475Q318 481 324.5 484Q331 487 331 487L310 500ZM159 290Q165 296 178 302.5Q191 309 191 309Q191 309 188.5 304.5Q186 300 185 288Q184 282 182.5 277.5Q181 273 177 272Q174 271 165 270Q156 269 156 271Q155 274 155.5 279.5Q156 285 159 290ZM162 272L174 274L175 298ZM880 378L886 406L865 384Q844 391 823 400.5Q802 410 802 410Q802 410 777 421.5Q752 433 750 435Q749 437 749.5 440Q750 443 750 443Q750 443 738.5 439.5Q727 436 726 434Q725 433 725 431Q725 429 727 427Q728 426 756 414Q784 402 791 399Q798 397 836 385Q874 373 877 373Q879 372 884.5 371Q890 370 891 370Q893 371 894.5 372.5Q896 374 895 376Q893 375 889.5 376Q886 377 880 378ZM1015 431Q1014 431 1011.5 432Q1009 433 1006 434L998 471L988 440Q986 440 984.5 440.5Q983 441 981 442L973 474L964 446Q954 449 945 451.5Q936 454 933 455Q925 457 885.5 467Q846 477 842 473Q848 471 908 453Q968 435 993 422Q997 420 999 416Q1001 412 999 407Q995 397 983.5 390Q972 383 954 378Q953 377 951.5 377Q950 377 949 376L944 404L931 377Q928 377 924.5 377Q921 377 918 376Q915 374 914 370.5Q913 367 915 363Q917 357 929.5 358.5Q942 360 948 361Q962 363 977 369Q992 375 1003 383Q1012 390 1016.5 396Q1021 402 1023 407Q1025 414 1023.5 419.5Q1022 425 1015 431ZM1020 715Q1017 719 1013.5 721Q1010 723 1000 723Q994 723 986 721Q978 719 971 717Q957 712 930.5 698Q904 684 885 669Q862 652 831 626Q800 600 783 583Q774 575 733 535Q692 495 687 490Q677 480 679.5 471.5Q682 463 684 461Q686 459 695.5 453Q705 447 707 446Q709 446 712.5 445.5Q716 445 718 447Q720 449 720 450.5Q720 452 717 455Q716 457 712 460.5Q708 464 707 466Q704 469 704.5 472.5Q705 476 706 477Q708 479 727 500Q746 521 754 528Q759 533 775 548Q791 563 811 580L826 562L825 593Q829 596 832 598.5Q835 601 838 604L849 584L854 617Q857 619 860 621.5Q863 624 866 626Q874 632 887 641.5Q900 651 913 660L924 637L927 670Q930 671 932.5 673Q935 675 937 676L949 649L951 685Q960 689 967 691Q974 693 982 693Q986 693 990 689.5Q994 686 994 681Q994 673 981 655.5Q968 638 965 635Q962 632 929.5 597Q897 562 894 559Q890 555 868 531Q846 507 842 501Q837 495 834.5 489.5Q832 484 832 484Q832 484 872.5 525Q913 566 919 572Q923 576 935 588Q947 600 961 614L979 589L977 630Q979 632 981 634Q983 636 984 638L1000 602L999 655Q1006 664 1014 677Q1022 690 1023 700Q1023 705 1022.5 708.5Q1022 712 1020 715ZM521 577L495 564L510 598L469 577L437 574L330 509L352 485L292 454L197 378L107 293L153 328L150 316L171 342L172 330L187 359L187 340L202 370L201 349L221 385L220 360L240 398L240 369L260 412L262 383L282 425L280 392L302 441L300 403L322 451L318 413L342 462L339 422L364 473L363 433L396 495L390 447L422 507L419 462L451 526L451 478L478 542L481 490Z" fill="#6a9fb5" />
  </g>
</svg>