<?xml version="1.0" encoding="UTF-8"?>
<svg width="16" height="16" viewBox="0 0 16 16" xmlns="http://www.w3.org/2000/svg">
  <g transform="translate(0.4889343749999991, 14.550228226273148) scale(0.01462890625, -0.01462890625)">
    <path d="M160 412L491 875Q502 888 515 887.5Q528 887 538 873L859 420Q867 407 866 396Q865 385 852 378L737 311Q710 343 673.5 343.5Q637 344 611 318L483 411Q488 460 462 486Q436 512 403 514Q370 516 341 494Q313 471 313 423L200 357Q174 373 163 385Q152 397 160 412ZM163 272L3 50Q-4 39 3 23.5Q10 8 24 8L994 9Q1014 9 1020.5 23Q1027 37 1021 50L839 306L756 256Q753 213 725 193Q697 173 665 175Q633 177 608 200Q583 223 587 266L449 366Q426 345 397 347Q368 349 335 371L163 272Z" fill="#90a959" />
  </g>
</svg>