<?xml version="1.0" encoding="UTF-8"?>
<svg width="16" height="16" viewBox="0 0 16 16" xmlns="http://www.w3.org/2000/svg">
  <g transform="translate(0.5099999999999998, 14.55375) scale(0.01462890625, -0.01462890625)">
    <path d="M613 910L512 960L412 910Q355 952 298 958Q241 964 199 942Q157 920 138 875Q118 831 137 772L0 704L0 192L512 -64L1024 192L1024 704L887 772Q906 829 887 874Q869 919 827 941Q785 963 728 958Q671 953 613 910ZM769 599L603 682L758 682Q783 682 807.5 691.5Q832 701 851 719L930 679L769 599ZM419 842Q437 819 452 793Q467 767 482 743L352 809L419 842ZM605 842L672 808L542 743Q557 767 572 793Q587 819 605 842ZM809 740Q798 733 784.5 729.5Q771 726 758 726L602 726L720 785L809 740ZM304 785L421 726L266 726Q253 726 240 730Q227 734 215 740L304 785ZM266 682L421 682L255 599L94 679L173 719Q193 701 217 691.5Q241 682 266 682ZM490 434L490 18L276 125L276 541ZM534 434L748 541L748 125L534 18Q534 18 534 83Q534 148 534 226Q534 304 534 369Q534 434 534 434ZM512 472L303 577L455 652L428 583L468 567L512 678L556 567L596 583L569 652L721 575L512 472ZM655 888Q744 940 806 903Q868 866 849 792ZM567 861Q552 841 539 819Q526 797 512 776Q498 797 485 819Q472 841 457 861L512 888ZM174 790Q156 878 223.5 907Q291 936 368 887ZM64 647L234 562L234 146L64 232L64 647ZM790 146L790 562L960 647L960 232Z" fill="#46788d" />
  </g>
</svg>