<?xml version="1.0" encoding="UTF-8"?>
<svg width="16" height="16" viewBox="0 0 16 16" xmlns="http://www.w3.org/2000/svg">
  <g transform="translate(1.3837695312500005, 14.985097656249998) scale(0.015585937499999999, -0.015585937499999999)">
    <path d="M531 207Q506 247 499 309Q493 370 508.5 430.5Q524 491 563 539Q602 587 668 600Q704 606 741.5 582.5Q779 559 792 506Q809 450 777 388Q745 326 696 278.5Q647 231 598 208Q548 185 531 207ZM329 207Q312 185 262 208Q213 231 164.5 278.5Q116 326 83 388Q51 450 68 506Q81 559 118.5 582.5Q156 606 192 600Q258 587 297 539Q337 491 352.5 430.5Q368 370 361 309Q355 247 329 207ZM644 840Q673 843 689 868.5Q705 894 694 922Q681 954 647 959Q613 964 591 937Q574 915 580 888.5Q586 862 608 849L578 743Q491 763 422 762Q353 761 269 740L240 850Q265 865 268 895Q271 925 247 945Q221 968 188.5 956.5Q156 945 149 912Q144 883 162.5 862Q181 841 208 840L237 731Q194 716 152 693Q110 670 76 634Q42 598 21 548Q0 498 0 430Q1 332 56 243Q111 153 183 85Q255 17 325 -23Q394 -64 424 -64Q454 -64 524 -23Q593 18 665.5 87Q738 156 793 245Q849 334 849 430Q849 499 828 549Q807 600 773.5 636Q740 672 698 695Q656 719 614 732L644 840ZM275 381Q275 412 247.5 428Q220 444 193 428Q166 412 166 380.5Q166 349 193 334Q220 318 247.5 334Q275 350 275 381ZM691 381Q691 412 663.5 428Q636 444 609 428Q582 412 582 380.5Q582 349 609 334Q636 318 663.5 334Q691 350 691 381Z" fill="#d28445" />
  </g>
</svg>