<?xml version="1.0" encoding="UTF-8"?>
<svg width="16" height="16" viewBox="0 0 16 16" xmlns="http://www.w3.org/2000/svg">
  <g transform="translate(0.020000000000000462, 14.9825) scale(0.015585937499999999, -0.015585937499999999)">
    <path d="M1004 940L1004 660L724 660L724 940ZM652 940L652 660L372 660L372 940ZM300 940L300 660L20 660L20 940ZM1004 588L1004 308L724 308L724 588ZM1024 960L704 960L704 640L1024 640ZM672 960L352 960L352 640L672 640ZM320 960L0 960L0 640L320 640ZM1024 608L704 608L704 288L1024 288ZM672 288L352 288L352 608L672 608ZM672 256L352 256L352 -64L672 -64ZM1024 256L704 256L704 -64L1024 -64ZM320 256L0 256L0 -64L320 -64Z" fill="#d28445" />
  </g>
</svg>