<?xml version="1.0" encoding="UTF-8"?>
<svg width="16" height="16" viewBox="0 0 16 16" xmlns="http://www.w3.org/2000/svg">
  <g transform="translate(0.509542846679687, 14.54456440770349) scale(0.01462890625, -0.01462890625)">
    <path d="M400 -34L71 -34Q42 -34 21 -13Q0 8 0 37L0 887Q0 916 21 937Q42 958 71 958L602 958L850 710L850 515Q804 543 796.5 551.5Q789 560 779 595L779 674L567 887L71 887L71 37L338 37Q353 15 367.5 -2Q382 -19 400 -34ZM532 533L142 533L142 462L430 462Q452 479 477.5 496.5Q503 514 532 533ZM290 250L142 250L142 179L287 179Q286 197 286.5 215Q287 233 290 250ZM142 745L142 674L425 674L425 745ZM358 391L142 391L142 320L313 320Q322 339 332.5 356.5Q343 374 358 391ZM623 668Q623 672 634.5 665Q646 658 646 651Q645 616 643 590Q641 564 638 547Q633 501 581.5 446Q530 391 474 312Q446 270 439 227Q431 184 442 142.5Q453 101 481 62Q508 24 551 -9Q565 -21 593 -31Q621 -41 616 -53Q608 -68 541.5 -40.5Q475 -13 430 38Q401 72 380 120Q359 168 364.5 223.5Q370 279 412 340Q453 400 547 457Q565 474 581.5 490Q598 506 616 552Q620 563 621.5 597Q623 631 623 668ZM669 715Q673 714 680.5 709Q688 704 690 699Q692 691 693 658Q694 625 693 586Q692 547 690 512Q689 477 685 464Q683 439 665 410Q647 382 627.5 349Q608 316 594 278Q579 241 582 196Q589 91 634 43.5Q679 -4 673 -30Q662 -37 636 -17Q610 2 583.5 37.5Q557 73 537 118Q517 163 518 206Q518 309 581 355.5Q644 402 660 508Q664 546 665 620Q666 694 669 715ZM700 -20Q677 27 666 73Q654 120 653 165Q652 210 660 254Q668 297 682 339Q699 385 713 436.5Q727 488 714 635Q714 635 725 634.5Q736 634 736 627Q736 543 747.5 521.5Q759 500 825 458Q854 440 886 419Q918 397 946 371.5Q974 346 995 315Q1015 285 1021 248Q1028 199 1019 155Q1010 110 985.5 71.5Q961 33 921 1Q881 -30 825 -53Q788 -74 780.5 -52Q773 -30 700 -20Z" fill="#46788d" />
  </g>
</svg>