<?xml version="1.0" encoding="UTF-8"?>
<svg width="16" height="16" viewBox="0 0 16 16" xmlns="http://www.w3.org/2000/svg">
  <g transform="translate(4.103515625, 14.125) scale(0.013671875, -0.013671875)">
    <path d="M570 960L570 902L380 902L380 923L328 923L328 263L242 263L242 923L191 923L191 902L0 902L0 960L191 960L191 944L380 944L380 960ZM381 243L190 243L190 284L12 284L12 241L46 241L46 200L256 200L256 0L240 0L240 -64L331 -64L331 0L314 0L314 200L524 200L524 241L559 241L559 284L381 284L381 243Z" fill="#d28445" />
  </g>
</svg>