<?xml version="1.0" encoding="UTF-8"?>
<svg width="16" height="16" viewBox="0 0 16 16" xmlns="http://www.w3.org/2000/svg">
  <g transform="translate(0.5099999999999998, 14.55375) scale(0.01462890625, -0.01462890625)">
    <path d="M293 672Q292 673 290 674.5Q288 676 287 678Q298 687 307.5 694Q317 701 324 706Q318 700 310.5 691.5Q303 683 293 672ZM403 477Q395 477 387 476.5Q379 476 371 476Q364 476 357.5 476Q351 476 345 477Q342 445 339.5 411.5Q337 378 337 344Q357 342 377.5 342Q398 342 419 344Q416 366 413 387Q410 408 408 427Q407 440 405.5 452.5Q404 465 403 477ZM339 829Q337 827 335 826Q333 825 331 824Q336 822 341 820Q346 818 351 816Q348 819 345 822Q342 825 339 829ZM412 700Q412 696 412 683.5Q412 671 413 653Q419 654 425.5 655.5Q432 657 438 659L423 703Q420 702 417 701.5Q414 701 412 700ZM328 656Q338 674 345.5 686Q353 698 355 702Q355 702 354 702.5Q353 703 352 703Q349 700 338.5 689.5Q328 679 312 661Q316 660 319.5 658.5Q323 657 326 656Q327 656 327.5 656Q328 656 328 656ZM273 694Q277 697 281 700.5Q285 704 289 707Q284 704 280 701.5Q276 699 271 697Q271 696 271.5 695.5Q272 695 273 694ZM443 710L458 666Q463 667 467.5 669.5Q472 672 476 674Q466 689 458.5 699Q451 709 449 713Q447 712 445.5 711.5Q444 711 443 710ZM501 830Q505 832 510.5 833.5Q516 835 521 837Q521 838 520 838.5Q519 839 518 839Q513 837 509 834.5Q505 832 501 830ZM518 813Q524 814 530.5 814.5Q537 815 545 816Q544 817 543 818.5Q542 820 541 821Q535 819 529 817Q523 815 518 813ZM508 791Q519 790 531.5 789Q544 788 557 787Q557 789 556.5 791Q556 793 555 795Q541 794 529 793Q517 792 508 791ZM299 799Q307 798 319.5 798Q332 798 332 798Q332 798 324.5 802.5Q317 807 310 809Q307 807 304 804.5Q301 802 299 799ZM442 840Q445 843 449.5 847Q454 851 459 856Q458 856 456 856Q454 856 452 856Q449 852 446.5 848Q444 844 442 840ZM422 501Q438 504 454 507.5Q470 511 486 517L445 638Q437 636 429 634Q421 632 414 631Q415 606 417 573Q419 540 422 501ZM334 566Q337 582 339.5 598Q342 614 345 630Q343 631 342 631Q341 631 339 631Q327 608 312.5 577Q298 546 284 510Q294 507 304.5 504.5Q315 502 326 501Q328 517 330 533Q332 549 334 566ZM808 354Q791 382 773.5 408.5Q756 435 737 460Q721 444 703 430Q685 416 665 404Q679 375 693.5 344.5Q708 314 722 282Q745 298 766.5 316Q788 334 808 354ZM857 414Q863 423 868 431Q873 439 878 448Q860 471 839.5 492Q819 513 796 533Q795 530 793 527Q791 524 788 521Q780 509 771 497.5Q762 486 752 475Q772 449 790 423Q808 397 823 371Q832 381 840.5 392Q849 403 857 414ZM724 477Q712 491 700.5 505Q689 519 678 532Q666 545 655.5 557Q645 569 634 580Q623 570 611 560.5Q599 551 587 543Q594 531 601.5 518.5Q609 506 616 493Q625 476 635 458.5Q645 441 655 423Q674 435 691.5 448.5Q709 462 724 477ZM721 735Q720 728 718.5 721.5Q717 715 715 708Q717 707 719.5 706Q722 705 724 704Q749 693 773.5 680Q798 667 820 653Q822 665 823.5 676.5Q825 688 825 699Q802 709 777 718Q752 727 724 734Q724 735 723 735Q722 735 721 735ZM697 849Q701 843 704 837Q707 831 710 824Q711 822 711.5 820Q712 818 713 817Q739 815 763 812Q787 809 809 805Q805 816 800.5 826Q796 836 790 846Q767 849 743.5 850Q720 851 697 849ZM816 781Q792 787 767 790Q742 793 719 795Q721 785 722 775.5Q723 766 723 757Q748 750 774 741.5Q800 733 825 722Q825 726 824.5 729.5Q824 733 824 736Q823 748 821 759Q819 770 816 781ZM636 412Q627 429 617.5 446.5Q608 464 598 482Q590 495 583 507.5Q576 520 569 531Q556 524 542.5 517.5Q529 511 515 505Q514 505 513.5 504.5Q513 504 512 504L556 375Q577 383 597.5 392Q618 401 636 412ZM266 749Q271 750 276 752Q281 754 285 755Q281 755 276.5 754Q272 753 268 753Q267 752 267 751Q267 750 266 749ZM264 717Q276 725 288 730.5Q300 736 311 739Q300 737 288 733.5Q276 730 263 725Q263 723 263.5 721Q264 719 264 717ZM318 637Q313 638 308 640Q303 642 298 645Q282 624 263 597.5Q244 571 226 539Q235 533 244.5 527.5Q254 522 264 518Q278 553 292 583Q306 613 318 637ZM279 776Q285 776 290.5 776.5Q296 777 302 777Q297 778 292 779Q287 780 282 780Q281 779 280.5 778Q280 777 279 776ZM492 497Q475 491 458 487Q441 483 424 480Q427 449 431 415.5Q435 382 440 347Q463 350 487 355.5Q511 361 535 369L492 497ZM447 191Q439 225 433 258Q427 291 422 323Q410 322 398.5 321.5Q387 321 376 321Q366 321 356 321.5Q346 322 337 322Q337 290 338.5 258.5Q340 227 344 195Q370 192 395.5 191Q421 190 447 191ZM557 766Q544 767 532 768Q520 769 508 770Q517 768 529 765.5Q541 763 555 760Q556 761 556 762.5Q556 764 557 766ZM178 595Q183 603 189 609.5Q195 616 200 622Q215 640 229 654Q243 668 256 680Q256 681 255 682.5Q254 684 253 685Q232 671 211 652.5Q190 634 170 613Q171 612 171.5 610Q172 608 173 606Q174 603 175 600.5Q176 598 178 595ZM674 797Q647 798 622.5 797.5Q598 797 577 796Q577 793 577.5 790Q578 787 579 784Q607 781 638 775.5Q669 770 701 762Q701 771 700 779.5Q699 788 697 796Q691 796 685 796.5Q679 797 674 797ZM807 552Q829 532 849.5 511Q870 490 889 468Q899 487 907 506.5Q915 526 921 546Q917 550 913 554Q909 558 905 562Q889 577 871 591.5Q853 606 834 619Q829 602 822.5 585Q816 568 807 552ZM839 641Q861 626 881 610.5Q901 595 919 578Q921 576 923 574Q925 572 927 570Q930 582 932 594.5Q934 607 935 619Q935 623 935.5 627.5Q936 632 936 636Q916 651 893.5 664.5Q871 678 846 690Q845 678 843.5 665.5Q842 653 839 641ZM162 670Q162 662 162.5 654Q163 646 164 638Q185 658 205.5 675Q226 692 245 705Q244 708 243.5 710.5Q243 713 243 716Q223 706 202.5 694.5Q182 683 162 670ZM259 338Q253 340 247 342Q241 344 235 346Q230 317 226.5 288Q223 259 222 231Q228 228 234 225.5Q240 223 247 221Q265 214 284 208.5Q303 203 321 199Q321 205 320.5 211.5Q320 218 319 225Q317 249 316 274Q315 299 315 325Q301 327 287 330.5Q273 334 259 338ZM295 485Q290 486 285.5 487.5Q281 489 276 490Q273 482 270 473.5Q267 465 264 456Q257 434 251 411.5Q245 389 240 367Q246 365 252.5 362.5Q259 360 266 358Q278 354 290.5 351.5Q303 349 316 347Q316 378 318 411.5Q320 445 324 479Q317 480 309.5 481.5Q302 483 295 485ZM11 558Q7 538 4 518Q1 498 0 477Q3 471 5.5 465Q8 459 11 453Q22 468 35 486.5Q48 505 64 524Q58 540 55 556.5Q52 573 50 589Q38 580 28 571.5Q18 563 11 558ZM213 102Q193 111 174.5 121Q156 131 138 142Q140 131 141.5 119.5Q143 108 145 96Q156 84 168.5 73Q181 62 194 52Q203 48 212.5 44Q222 40 232 37Q226 53 221 69Q216 85 213 102ZM654 16Q623 6 591.5 -1Q560 -8 528 -12Q533 -23 537.5 -34Q542 -45 546 -55Q578 -53 609 -47Q640 -41 670 -32L654 16ZM49 616Q49 628 50.5 640.5Q52 653 54 665Q55 667 55.5 670Q56 673 56 675Q55 675 54.5 674.5Q54 674 53 673Q43 654 35 634Q27 614 21 593Q27 598 34 604Q41 610 49 616ZM81 308Q77 312 73.5 316.5Q70 321 66 325Q60 307 55.5 288Q51 269 47 249Q62 232 78.5 216Q95 200 114 185Q114 207 114.5 229Q115 251 118 273Q108 281 99 289.5Q90 298 81 308ZM997 610Q989 635 977.5 658.5Q966 682 953 704Q955 690 956.5 675.5Q958 661 957 646Q968 638 978 629Q988 620 997 610ZM94 460Q92 464 89.5 468Q87 472 85 476Q81 482 78 488Q75 494 73 501Q58 481 45 463.5Q32 446 21 431Q30 415 39 400Q48 385 58 371Q66 395 75.5 417.5Q85 440 94 460ZM921 746Q903 756 882 763.5Q861 771 839 776Q841 767 842.5 757.5Q844 748 845 738Q846 732 846 725.5Q846 719 846 713Q870 702 892.5 689.5Q915 677 936 662Q935 684 931.5 705Q928 726 921 746ZM619 595Q593 621 569.5 643Q546 665 527 682Q522 678 517 674.5Q512 671 507 667Q521 646 538.5 619.5Q556 593 576 561Q587 569 598 577.5Q609 586 619 595ZM542 697Q562 680 585 658Q608 636 634 610Q640 617 646 624Q652 631 658 638Q630 656 602.5 672Q575 688 548 702Q546 701 545 699.5Q544 698 542 697ZM561 720Q588 705 615.5 689Q643 673 669 656Q675 666 680 676Q685 686 689 696Q656 709 625.5 718.5Q595 728 569 735Q567 731 565 727Q563 723 561 720ZM465 645L506 524Q506 524 506.5 524.5Q507 525 507 525Q520 530 533 536.5Q546 543 558 550Q538 582 520.5 608.5Q503 635 489 656Q483 653 477 650.5Q471 648 465 645ZM576 755Q602 748 632.5 738.5Q663 729 695 716Q697 722 698 728.5Q699 735 700 741Q671 748 640.5 753.5Q610 759 578 763Q577 761 577 759Q577 757 576 755ZM547 730Q548 732 549.5 734.5Q551 737 553 740Q539 743 528 745Q517 747 508 749Q517 744 527 739.5Q537 735 547 730ZM815 631Q792 646 767 659Q742 672 716 684Q714 685 712 686Q710 687 709 687Q704 677 699 666Q694 655 687 644Q714 626 740 607Q766 588 791 567Q799 582 805 598Q811 614 815 631ZM210 553Q227 584 245.5 610Q264 636 280 656Q277 658 275 660Q273 662 270 664Q258 652 244 638Q230 624 215 607Q209 600 202.5 592Q196 584 190 576Q194 570 199 564Q204 558 210 553ZM495 685Q499 687 503 690Q507 693 511 696Q493 711 483 719Q473 727 472 727Q472 727 470.5 726.5Q469 726 467 724Q470 719 477.5 709Q485 699 495 685ZM199 534Q193 539 187 545Q181 551 176 558Q162 537 147.5 513.5Q133 490 119 462Q126 452 134 443Q142 434 151 425Q161 453 173 480Q185 507 199 534ZM488 851Q484 848 480 845Q476 842 473 839Q477 841 481.5 844Q486 847 492 850Q491 850 490 850.5Q489 851 488 851ZM88 520Q91 511 95 503Q99 495 103 487Q104 486 104.5 485Q105 484 106 483Q120 510 134.5 533.5Q149 557 164 577Q161 581 158.5 586Q156 591 154 597Q136 578 119.5 558.5Q103 539 88 520ZM649 595Q660 583 671 571Q682 559 693 547Q705 533 716.5 519.5Q728 506 739 492Q748 502 756 512Q764 522 771 533Q773 536 775.5 540Q778 544 780 547Q755 569 729 588.5Q703 608 675 627Q669 618 662.5 610Q656 602 649 595ZM1008 565Q997 579 984 593Q971 607 956 619Q956 619 956 618.5Q956 618 956 617Q955 601 952 584.5Q949 568 945 552Q959 537 971.5 521Q984 505 995 489Q1000 508 1003 527Q1006 546 1008 565ZM563 827Q565 825 566.5 822.5Q568 820 569 817Q592 818 618.5 818.5Q645 819 674 818Q678 818 682 818Q686 818 690 818Q686 826 682 833.5Q678 841 673 848Q642 845 614 839.5Q586 834 563 827ZM291 888Q302 895 313.5 901Q325 907 338 912L334 922Q319 916 304.5 909.5Q290 903 276 896Q280 894 283.5 892Q287 890 291 888ZM515 945Q529 944 542 942Q555 940 568 937Q569 936 570.5 936Q572 936 573 935Q578 938 583 941Q588 944 593 946Q576 949 558.5 950.5Q541 952 522 952Q521 951 519 949Q517 947 515 945ZM441 942Q453 944 465 945Q477 946 488 946Q490 947 491 949Q492 951 494 952Q481 952 468 951Q455 950 443 948Q442 947 441.5 945.5Q441 944 441 942ZM8 411Q6 408 4.5 406Q3 404 1 402Q4 368 11.5 336Q19 304 31 274Q35 293 39.5 311Q44 329 50 346Q38 361 27.5 377Q17 393 8 411ZM178 829Q171 823 163.5 816Q156 809 150 802Q161 804 172.5 804.5Q184 805 196 806Q203 815 211 823.5Q219 832 227 840Q224 841 220.5 842.5Q217 844 213 845Q210 846 207 847Q204 848 201 850Q195 845 189 840Q183 835 177 830L178 829ZM246 856Q252 861 258 865.5Q264 870 271 875Q266 877 261.5 879.5Q257 882 253 884Q245 879 237.5 874.5Q230 870 222 865Q228 862 234 860Q240 858 246 856ZM116 158Q102 168 89.5 178Q77 188 66 199Q77 179 90.5 160Q104 141 119 124Q118 132 117 140.5Q116 149 116 158ZM939 359Q929 378 917 395.5Q905 413 893 430Q880 409 865.5 389.5Q851 370 834 351Q836 349 837 346.5Q838 344 839 342Q849 325 857 308Q865 291 872 274Q891 294 908 315Q925 336 939 359ZM956 388Q966 406 973.5 424.5Q981 443 988 462Q977 479 964.5 496Q952 513 938 528Q931 508 922.5 488.5Q914 469 904 450Q917 433 929 415.5Q941 398 952 380Q953 382 954 384Q955 386 956 388ZM601 926Q609 923 617 919.5Q625 916 632 911Q644 915 656.5 918.5Q669 922 681 924Q669 928 656.5 932Q644 936 631 939Q624 936 616.5 933Q609 930 601 926ZM819 335Q799 314 777 296Q755 278 731 262Q739 243 746 224Q753 205 760 185Q787 202 810.5 220Q834 238 855 258Q847 277 838 296.5Q829 316 819 335ZM655 896Q662 890 669 883.5Q676 877 682 870Q704 872 727.5 871.5Q751 871 775 869Q774 870 773.5 870.5Q773 871 773 872Q768 878 763 883Q758 888 753 893Q745 897 737.5 901Q730 905 722 908Q706 907 689 904Q672 901 655 896ZM833 800Q851 796 867 791Q883 786 897 780Q885 795 871 808.5Q857 822 842 834Q835 836 829 837.5Q823 839 817 841Q822 831 826 820.5Q830 810 833 800ZM357 920Q372 926 387 930.5Q402 935 417 938Q418 940 418.5 941.5Q419 943 420 944Q403 941 386.5 937Q370 933 354 928L357 920ZM975 378Q972 373 969.5 368Q967 363 964 359Q970 348 975 337Q980 326 985 315Q995 334 1004 354Q1013 374 1021 396Q1021 396 1021 396.5Q1021 397 1021 397Q1017 408 1012 418Q1007 428 1002 438Q996 422 989.5 407Q983 392 975 378ZM381 -16Q352 -13 324.5 -8.5Q297 -4 271 3Q300 -13 331.5 -24.5Q363 -36 397 -44Q392 -37 388 -30Q384 -23 381 -16ZM1021 505Q1019 495 1016.5 485Q1014 475 1011 465Q1014 459 1017.5 453Q1021 447 1024 441Q1024 443 1024 444.5Q1024 446 1024 448Q1024 462 1023 476.5Q1022 491 1021 505ZM506 -14Q489 -16 471.5 -17Q454 -18 437 -18Q430 -18 423.5 -18Q417 -18 410 -17Q409 -17 408 -17Q407 -17 406 -17Q410 -26 415.5 -34Q421 -42 426 -49Q447 -53 468.5 -54.5Q490 -56 512 -56Q515 -56 518 -56Q521 -56 524 -56Q519 -46 514.5 -35.5Q510 -25 506 -14ZM886 151Q863 129 839.5 111.5Q816 94 792 79Q795 68 797.5 56Q800 44 802 32Q826 49 848.5 68Q871 87 891 109Q890 120 889 130.5Q888 141 886 151ZM981 266Q964 238 944.5 214Q925 190 905 169Q906 159 907.5 150Q909 141 911 131Q933 159 952 190Q971 221 985 255Q984 258 983 260.5Q982 263 981 266ZM593 197Q564 188 534 181.5Q504 175 474 172Q474 172 473.5 172Q473 172 473 172Q478 150 483.5 128Q489 106 496 84Q525 88 556.5 95.5Q588 103 620 116L593 197ZM972 291Q967 303 962 314.5Q957 326 951 338Q936 315 918.5 293.5Q901 272 880 253Q886 238 890.5 223Q895 208 899 194Q919 215 937 239Q955 263 972 291ZM647 36L627 96Q594 83 563 75Q532 67 502 63Q506 49 511 35.5Q516 22 520 9Q553 13 584.5 20Q616 27 647 36ZM499 6Q494 20 489.5 33.5Q485 47 481 60Q466 59 452.5 58.5Q439 58 425 58Q412 58 398.5 58.5Q385 59 372 60Q377 46 382.5 32Q388 18 394 5Q398 5 402.5 4.5Q407 4 411 4Q433 3 455 3.5Q477 4 499 6ZM863 237Q861 235 859 233Q857 231 855 229Q835 211 813 195Q791 179 767 164Q773 149 777.5 133Q782 117 786 101Q810 116 834 134.5Q858 153 881 176Q878 191 873.5 206.5Q869 222 863 237ZM773 68Q752 56 731.5 46.5Q711 37 691 30Q687 28 682.5 26.5Q678 25 674 23L690 -25Q714 -16 737.5 -5Q761 6 783 20Q781 31 778.5 43Q776 55 773 68ZM684 49Q703 57 724.5 67Q746 77 767 90Q763 104 758.5 120Q754 136 749 153Q725 140 700 127.5Q675 115 649 104Q648 104 647.5 103.5Q647 103 647 103L667 43Q671 45 675.5 46.5Q680 48 684 49ZM347 498Q353 498 359 497.5Q365 497 371 497Q378 497 385.5 497.5Q393 498 401 499Q397 537 395 570Q393 603 392 629Q388 628 384 628Q380 628 376 628Q373 628 370.5 628Q368 628 366 628Q363 612 360.5 595.5Q358 579 355 563Q353 547 351 531Q349 515 347 498ZM207 785Q204 780 200.5 775.5Q197 771 195 767Q193 764 191 761Q189 758 188 755Q205 761 221 765Q237 769 252 772Q254 775 255.5 777.5Q257 780 258 783Q246 784 233 784.5Q220 785 207 785ZM384 847L389 836Q390 839 390.5 842.5Q391 846 392 849Q390 849 388 848.5Q386 848 384 847ZM379 698Q377 686 374.5 674Q372 662 370 649Q375 649 380.5 649Q386 649 391 650Q391 668 390.5 680Q390 692 390 698Q387 698 384.5 698Q382 698 379 698ZM312 876Q321 870 328.5 864.5Q336 859 342 854Q346 856 349.5 857.5Q353 859 357 860L345 892Q336 888 328 884Q320 880 312 876ZM224 806Q237 806 249 805Q261 804 273 803Q276 807 280 810.5Q284 814 287 818Q278 821 268.5 824.5Q259 828 250 832Q243 826 236.5 819.5Q230 813 224 806ZM269 847Q278 844 287.5 840.5Q297 837 306 833Q310 836 314 838.5Q318 841 322 843Q315 849 307 854Q299 859 292 863Q286 859 280 855.5Q274 852 269 847ZM359 838Q362 835 364.5 832Q367 829 370 826L364 840Q363 840 362 839.5Q361 839 359 838ZM640 124Q668 135 693 147.5Q718 160 742 174Q735 192 728 211Q721 230 712 251Q707 248 702 245Q697 242 692 239Q673 229 653.5 220Q634 211 613 204L640 124Q640 124 640 124Q640 124 640 124ZM377 867Q382 869 387.5 870.5Q393 872 399 873Q402 884 405 894.5Q408 905 410 914Q399 912 387.5 908.5Q376 905 365 900L377 867ZM465 876Q469 876 473.5 875.5Q478 875 482 874Q496 885 512.5 896.5Q529 908 546 920Q535 922 523 923Q511 924 499 924Q491 914 482.5 901.5Q474 889 465 876ZM540 850Q542 849 543.5 847.5Q545 846 547 845Q558 848 571.5 851.5Q585 855 599 858Q612 861 626 863Q640 865 655 867Q649 873 642.5 878Q636 883 629 888Q605 880 582 870Q559 860 540 850ZM422 876Q426 877 431 877Q436 877 440 877Q448 889 456 901Q464 913 472 924Q463 923 453.5 922Q444 921 434 919Q431 910 428 899Q425 888 422 876ZM410 832Q410 832 410.5 832Q411 832 411 832Q414 836 417.5 842Q421 848 426 855Q423 855 420.5 854.5Q418 854 416 854Q414 849 412.5 843.5Q411 838 410 832ZM508 867Q510 866 512.5 865Q515 864 517 863Q536 873 558 883Q580 893 604 902Q597 905 590 907.5Q583 910 575 913Q558 902 540.5 890Q523 878 508 867ZM370 7Q364 20 358.5 34Q353 48 349 63Q317 68 289 75.5Q261 83 237 93Q241 76 246 60Q251 44 258 28Q284 21 312.5 15.5Q341 10 370 7ZM244 463Q247 472 250 480.5Q253 489 256 498Q245 503 235 508.5Q225 514 216 520Q201 493 189.5 465.5Q178 438 169 410Q180 400 193 392Q206 384 220 377Q225 398 231 419.5Q237 441 244 463ZM342 86Q336 107 331.5 130Q327 153 324 177Q302 181 280.5 187Q259 193 239 201Q235 203 230.5 204.5Q226 206 222 208Q223 184 225 161.5Q227 139 231 118Q255 108 282.5 99.5Q310 91 342 86ZM474 81Q468 103 462 125.5Q456 148 451 170Q442 170 433 169.5Q424 169 416 169Q398 169 380.5 170Q363 171 346 174Q350 150 354.5 127Q359 104 365 82Q390 79 417.5 78.5Q445 78 474 81ZM542 348Q517 340 492 334.5Q467 329 443 326Q448 293 454.5 260Q461 227 468 193Q499 196 529 202.5Q559 209 586 218L542 348ZM682 258Q688 261 693.5 264Q699 267 704 271Q692 299 677.5 329.5Q663 360 646 393Q627 382 606 372.5Q585 363 562 355L606 225Q627 232 646 240.5Q665 249 682 258ZM75 661Q74 654 73 647Q72 640 71 633Q87 645 105 657.5Q123 670 142 683Q143 691 145 700Q147 709 149 718Q130 711 113 703Q96 695 82 688Q80 681 78 674.5Q76 668 75 661ZM80 544Q81 546 82 547.5Q83 549 85 550Q100 569 115.5 586.5Q131 604 146 619Q144 628 142.5 637.5Q141 647 141 656Q122 643 104 630Q86 617 71 605Q71 590 73.5 574.5Q76 559 80 544ZM166 698Q185 710 204.5 720.5Q224 731 242 739Q243 741 243.5 743.5Q244 746 244 748Q227 745 209.5 739.5Q192 734 175 728Q172 720 170 712.5Q168 705 166 698ZM162 388Q157 373 153.5 358.5Q150 344 147 329Q145 317 143 305.5Q141 294 140 282Q154 271 169.5 260.5Q185 250 202 242Q203 269 206.5 297.5Q210 326 216 355Q201 362 187.5 370.5Q174 379 162 388ZM92 717Q101 721 110 725Q119 729 128 733Q136 736 144 739Q152 742 159 745Q163 753 167 761.5Q171 770 176 778Q177 779 178 780.5Q179 782 180 784Q167 783 154 781.5Q141 780 129 778Q117 764 108 748.5Q99 733 92 717ZM127 334Q130 351 134.5 368.5Q139 386 144 403Q134 411 125.5 420.5Q117 430 109 440Q99 420 90 397Q81 374 73 350Q79 343 85 336Q91 329 97 322Q103 316 109 310Q115 304 121 299Q122 308 123.5 316.5Q125 325 127 334ZM208 128Q204 150 202.5 172.5Q201 195 201 218Q184 226 168 236Q152 246 137 257Q136 235 135.5 213Q135 191 136 169Q153 158 171 147.5Q189 137 208 128ZM523 704L534 713L534 718L489 737L523 704Z" fill="#6a9fb5" />
  </g>
</svg>