<?xml version="1.0" encoding="UTF-8"?>
<svg width="16" height="16" viewBox="0 0 16 16" xmlns="http://www.w3.org/2000/svg">
  <g transform="translate(0.018104413006757802, 14.981720703125) scale(0.015585937499999999, -0.015585937499999999)">
    <path d="M509 49Q565 50 625 62Q685 74 745 95.5Q805 117 864 147Q924 177 979 216L948 259Q935 250 921 241Q907 232 893 223Q870 245 848 276Q825 308 806.5 336.5Q788 365 777 386Q765 406 765 406Q772 430 790 492Q808 554 843 602Q849 610 855 611Q861 612 861 612Q861 612 871.5 594Q882 576 911 577Q920 574 929.5 570.5Q939 567 948 561Q996 533 1010 555.5Q1024 578 1024 578Q1027 613 993 656.5Q959 700 959 700Q959 700 953.5 711Q948 722 942 728Q932 736 917 750Q902 764 902 764Q898 776 892.5 809Q887 842 873 847Q851 841 843 819Q835 797 833 753Q776 737 729 707Q682 677 646 632Q613 593 549 593Q485 593 438 616Q406 632 376.5 647Q347 662 319 664Q291 666 268.5 659.5Q246 653 229 641L227 642Q139 725 81.5 688Q24 651 4 559Q-7 507 10.5 465Q28 423 0 359Q48 354 63.5 393Q79 432 80 480Q82 518 82 550.5Q82 583 98 608Q119 641 155.5 633Q192 625 204 616Q174 577 171 526.5Q168 476 185 450Q216 404 228.5 396Q241 388 229 351Q219 317 202.5 283Q186 249 164 212Q149 223 135 235Q121 247 107 260L70 222Q119 175 174 140Q229 105 288 84Q337 66 396 57Q455 48 509 49ZM830 189Q792 169 753 154Q714 139 675 128Q636 117 598 110Q559 104 521 102Q465 100 411 108Q357 116 306 134Q281 143 256 155Q231 167 208 182Q245 237 283 295Q321 353 356 382Q364 388 374.5 385Q385 382 390 379Q421 360 458 350Q495 340 534.5 338.5Q574 337 614 344Q655 351 693 368Q736 306 779.5 261.5Q823 217 830 189Z" fill="#be7953" />
  </g>
</svg>