<?xml version="1.0" encoding="UTF-8"?>
<svg width="16" height="16" viewBox="0 0 16 16" xmlns="http://www.w3.org/2000/svg">
  <g transform="translate(0.9825303819444441, 14.118359375) scale(0.013671875, -0.013671875)">
    <path d="M926 774Q920 781 913.5 789Q907 797 901 805Q895 813 888.5 820.5Q882 828 874 835Q858 848 841 860Q824 872 806 883Q771 904 731 919Q691 934 651 943Q629 947 607.5 949Q586 951 564 953Q542 954 520 954.5Q498 955 476 953Q434 949 390.5 943.5Q347 938 307 923Q270 909 235 887.5Q200 866 169 840Q153 827 140 811Q127 795 114 779Q100 762 87.5 745Q75 728 65 709Q42 669 25 624.5Q8 580 5 534Q4 522 4.5 510.5Q5 499 7 488Q8 476 9.5 464Q11 452 15 440Q15 439 16 437.5Q17 436 17 434Q17 432 16 431Q15 430 15 428Q15 427 16 426Q17 425 18 424Q19 421 18.5 419Q18 417 18 415Q18 410 19.5 405Q21 400 22 395Q24 390 23.5 385.5Q23 381 21 376Q23 377 25 378.5Q27 380 29 381Q31 375 33 368Q35 361 37 354Q38 347 40 342.5Q42 338 48 333Q48 341 46 349Q44 357 43 365Q44 365 45 364.5Q46 364 47 364Q44 361 48 354.5Q52 348 53 345Q55 347 57 348Q59 349 62 349Q61 352 60.5 354.5Q60 357 58 360Q58 362 56.5 364Q55 366 54 368Q54 369 54.5 370Q55 371 54 373Q53 374 52 375Q51 376 50 377Q48 381 49.5 384.5Q51 388 51 392Q49 401 47 409Q45 417 44 426Q43 434 43 442.5Q43 451 37 457Q33 454 32.5 448.5Q32 443 26 445Q22 447 22.5 451.5Q23 456 28 455Q28 459 27 461Q26 463 28 466Q30 469 32 471.5Q34 474 36 478Q39 485 40 493.5Q41 502 42 510Q43 528 46.5 544.5Q50 561 56 579Q67 611 83 642Q99 673 117 703Q151 758 200 803.5Q249 849 308 876Q327 884 346 890Q365 896 385 901Q404 906 424 906.5Q444 907 463 909Q447 886 430.5 862.5Q414 839 397 817Q381 795 364 773.5Q347 752 331 731Q314 708 298.5 684.5Q283 661 267 638Q259 626 251.5 614.5Q244 603 236 592Q232 587 228 582Q224 577 219 572Q217 569 216.5 566.5Q216 564 215 562Q214 559 212.5 556Q211 553 209 550Q208 552 207.5 553Q207 554 206 555Q203 549 199.5 543Q196 537 192 531Q190 527 186 522Q182 517 188 514Q187 513 185.5 512Q184 511 183 510Q185 508 187.5 506.5Q190 505 192 503Q192 504 192.5 504.5Q193 505 193 505Q194 501 195.5 503.5Q197 506 198 508Q200 510 201 511.5Q202 513 204 515Q207 518 211 521Q215 524 218 527Q225 534 231 541.5Q237 549 243 556Q257 573 269.5 590Q282 607 296 623Q294 606 293 589.5Q292 573 291 557Q290 549 290.5 541Q291 533 290 525Q289 517 288.5 509Q288 501 288 493Q288 476 288.5 459.5Q289 443 288 427Q288 420 288.5 413.5Q289 407 289 401Q289 396 289.5 391.5Q290 387 295 387Q295 377 292.5 367Q290 357 291 346Q291 341 290.5 336Q290 331 290 326Q290 321 293 316.5Q296 312 296 306Q293 306 290.5 306.5Q288 307 287 304Q286 301 286.5 296.5Q287 292 287 289Q288 284 288 279Q288 274 287 268Q287 265 287.5 258.5Q288 252 285 249Q283 247 279 247Q275 247 271 247Q265 247 258.5 247Q252 247 246 247Q234 247 222 246.5Q210 246 197 246Q173 246 148.5 246Q124 246 99 245Q89 244 78 243Q67 242 57 238Q53 237 51.5 234.5Q50 232 49 228Q48 227 46.5 227Q45 227 45 226Q45 224 46.5 221.5Q48 219 49 217Q50 218 51 218.5Q52 219 53 220Q52 218 51.5 216.5Q51 215 50 214Q52 215 55 216Q58 217 61 218Q61 216 68 217Q75 218 77 218Q81 217 85 216Q89 215 93 215Q103 213 114 212Q125 211 136 210Q157 209 177.5 209Q198 209 219 209Q240 209 261.5 208.5Q283 208 305 209Q325 209 345.5 210Q366 211 387 212Q429 213 471 213.5Q513 214 556 217Q598 219 640.5 221.5Q683 224 725 225Q748 226 771.5 227Q795 228 819 230Q842 231 865.5 232.5Q889 234 912 232Q911 231 909.5 230Q908 229 907 228Q914 228 908 221Q902 214 901 213Q900 211 899.5 209Q899 207 897 205Q896 203 894.5 202Q893 201 892 200Q891 200 890.5 198.5Q890 197 890 196Q889 194 888.5 192Q888 190 887 188Q884 184 882 182Q880 180 874 178Q875 178 876.5 177.5Q878 177 879 177Q878 176 878.5 174Q879 172 878 170Q877 167 874.5 164Q872 161 870 158Q865 151 859.5 145.5Q854 140 848 135Q838 126 829 117Q820 108 810 100Q799 92 788.5 84.5Q778 77 766 70Q756 63 744.5 57Q733 51 723 44Q711 37 699 32.5Q687 28 675 23Q663 18 651 12.5Q639 7 626 6Q612 4 598 2Q584 0 570 -1Q556 -3 542.5 -5Q529 -7 515 -7Q509 -7 503.5 -7Q498 -7 492 -6Q485 -5 478.5 -4Q472 -3 465 -2Q452 -1 439 1Q426 3 414 7Q409 8 405.5 8.5Q402 9 397 10Q391 10 385.5 12.5Q380 15 374 15Q369 16 367.5 17.5Q366 19 362 21Q357 24 351.5 26Q346 28 341 31Q336 34 331 37Q326 40 320 43Q315 45 309 46Q303 47 297 50Q292 52 288 55Q284 58 279 61Q274 64 269.5 65.5Q265 67 260 70Q248 74 238 82Q228 90 219 97Q211 105 200.5 109Q190 113 186 124Q184 127 181.5 128.5Q179 130 176 133Q172 137 167 141Q162 145 157 149Q147 156 140 165Q133 174 126 183Q124 187 120.5 192Q117 197 113 200Q109 202 106.5 199Q104 196 100 196Q106 186 112 177Q118 168 123 159Q122 160 119.5 160Q117 160 116 162Q115 163 115 165Q115 167 114 168Q112 170 107.5 170Q103 170 100 170Q104 164 108 156.5Q112 149 115 143Q118 137 124 132Q130 127 134 121Q128 120 132.5 113.5Q137 107 139 106Q141 103 143 101.5Q145 100 147 97Q150 94 150 91.5Q150 89 150 85Q153 89 154.5 88Q156 87 159 85Q160 84 161.5 83Q163 82 164 81Q165 81 165.5 80.5Q166 80 167 80Q169 80 170 80Q171 80 172 81Q172 81 175 79Q178 77 178 77Q179 77 179 75.5Q179 74 180 74Q183 72 184.5 72Q186 72 189 70Q197 62 205.5 54Q214 46 223 39Q244 23 268.5 9.5Q293 -4 317 -15Q329 -20 341.5 -24Q354 -28 366 -31Q380 -35 394 -39Q408 -43 422 -45Q432 -47 443.5 -49.5Q455 -52 466 -53Q472 -53 478.5 -52.5Q485 -52 492 -53Q494 -53 502 -53.5Q510 -54 503 -57Q518 -60 533.5 -59.5Q549 -59 564 -59Q571 -58 578.5 -55.5Q586 -53 592 -53Q593 -53 594 -54Q595 -55 597 -55Q598 -55 599 -54Q600 -53 601 -52Q604 -51 606.5 -51Q609 -51 612 -51Q625 -50 637 -46.5Q649 -43 663 -40Q665 -40 668 -39.5Q671 -39 673 -38Q675 -37 675 -35.5Q675 -34 676 -32Q679 -28 685 -24Q691 -20 696 -20Q695 -21 694 -22Q693 -23 692 -24Q695 -23 699 -23.5Q703 -24 705 -22Q708 -21 708.5 -18.5Q709 -16 711 -15Q713 -13 715.5 -13Q718 -13 721 -12Q725 -11 729 -9.5Q733 -8 737 -6Q741 -4 744 -3Q747 -2 751 -1Q753 0 755 1.5Q757 3 760 4Q761 4 762.5 4.5Q764 5 765 6Q766 6 766.5 6.5Q767 7 767 8Q768 7 769 7Q770 7 771 7Q775 8 778.5 10.5Q782 13 786 16Q784 16 782 16Q780 16 778 16Q779 17 781.5 18.5Q784 20 786 20Q787 20 788 19Q789 18 791 18Q794 17 801.5 20.5Q809 24 806 29Q808 30 809.5 29Q811 28 813 29Q814 29 815.5 30.5Q817 32 818 32Q821 35 820 37.5Q819 40 821 43Q824 46 828 48Q832 50 835 53Q837 54 839 56Q841 58 843 59Q844 59 846.5 61Q849 63 849 64Q850 65 851.5 66.5Q853 68 855 69Q859 73 864 77Q869 81 873 85Q883 94 891.5 104Q900 114 908 124Q923 142 936 163Q949 184 960 205Q963 211 966 218.5Q969 226 976 228Q980 229 984 229Q988 229 991 229Q997 229 1001 230.5Q1005 232 1010 234Q1005 242 995.5 254.5Q986 267 989 277Q994 291 999.5 305Q1005 319 1008 333Q1016 366 1019.5 400.5Q1023 435 1022 469Q1021 511 1018 553Q1015 595 1001 635Q989 672 970 707Q951 742 926 774ZM360 707Q360 707 359.5 706.5Q359 706 360 707Q362 710 363.5 711Q365 712 366 714Q368 718 369.5 720.5Q371 723 375 725Q377 727 378 728.5Q379 730 381 733Q382 735 384 736.5Q386 738 387 740Q388 741 389.5 744Q391 747 391 743Q395 748 398.5 753Q402 758 403 763Q403 763 402.5 763.5Q402 764 401 764Q401 765 402 766Q403 767 403 768Q404 769 405.5 771Q407 773 409 774Q410 775 411 775Q412 775 414 776Q416 777 417.5 779.5Q419 782 420 784Q422 785 424 787Q426 789 427 791Q427 792 426.5 794.5Q426 797 427 797Q428 796 428.5 794Q429 792 430 791Q431 793 432.5 796Q434 799 435 802Q436 805 435.5 805.5Q435 806 435 809Q436 812 439 815Q442 818 444 821Q446 824 449 828Q452 832 454 836Q464 850 473.5 864.5Q483 879 495 891Q538 836 577 779.5Q616 723 655 666Q634 666 613 666.5Q592 667 571 665Q550 664 529 662Q508 660 487 659Q446 658 404.5 655.5Q363 653 321 654Q331 667 340.5 680.5Q350 694 360 707ZM701 567L703 509Q698 520 691.5 531Q685 542 679 552Q671 563 662.5 573Q654 583 643 591Q633 599 621 605Q609 611 597 616Q597 616 636 617Q675 618 681 618Q687 618 689.5 616Q692 614 695 609Q702 600 701.5 589Q701 578 701 567ZM342 604Q363 605 383.5 606Q404 607 425 609Q412 601 401 591Q390 581 380 570Q370 558 359.5 547Q349 536 341 523Q342 543 342.5 563.5Q343 584 342 604ZM368 246Q365 246 356 245Q347 244 345 247Q342 250 343 257.5Q344 265 344 270Q343 291 341 311.5Q339 332 339 353Q344 342 349.5 332Q355 322 362 312Q365 308 368 303Q371 298 375 294Q377 291 383 288.5Q389 286 389 282Q390 280 388 278.5Q386 277 388 274Q390 271 393.5 270Q397 269 400 267Q404 265 407.5 262.5Q411 260 415 257Q421 254 427.5 252.5Q434 251 439 248Q422 247 404 247Q386 247 368 246ZM434 287Q435 286 436 285.5Q437 285 436 286Q436 286 436 286Q436 286 436 286Q426 290 416.5 295Q407 300 399 308Q395 312 391 315.5Q387 319 383 323Q380 327 377.5 331.5Q375 336 373 341Q368 350 361 358Q354 366 351 376Q350 378 347.5 381.5Q345 385 342 380Q340 377 342 373Q344 369 345 366Q343 366 341.5 365Q340 364 340 363Q340 379 339.5 394.5Q339 410 339 425Q345 422 348 427.5Q351 433 353 437Q353 439 353.5 442Q354 445 355 448Q355 449 357 452Q359 455 359 456Q358 460 356 459.5Q354 459 356 464Q357 467 359 469.5Q361 472 362 475Q363 478 365 484.5Q367 491 369 493Q369 492 369 491Q369 490 369 490Q374 493 377 496Q380 499 382 505Q383 511 386.5 514.5Q390 518 393 523Q397 528 400 531.5Q403 535 409 538Q413 541 417 546Q421 551 426 553Q429 554 431.5 554.5Q434 555 437 557Q439 558 441 559.5Q443 561 444 563Q445 564 444.5 565Q444 566 445 568Q448 571 455 573Q462 575 466 577Q471 580 477 582.5Q483 585 489 585Q486 578 494.5 579.5Q503 581 506 580Q506 587 508.5 589Q511 591 518 591Q526 591 533.5 591Q541 591 549 590Q565 588 578 579.5Q591 571 603 562Q616 553 628 544Q640 535 649 522Q653 516 656 509.5Q659 503 661 496Q663 488 665.5 479Q668 470 667 461Q666 454 665 446.5Q664 439 663 431Q662 422 660 413.5Q658 405 654 397Q653 395 651 392.5Q649 390 650 388Q650 386 651.5 385.5Q653 385 653 383Q653 381 651 377.5Q649 374 649 372Q647 369 646 366Q645 363 643 359Q631 334 612 313.5Q593 293 565 284Q536 274 499.5 272.5Q463 271 434 287ZM608 255Q612 257 615.5 259.5Q619 262 623 265Q625 267 628 270Q631 273 634 275Q634 274 634 274Q634 274 634 274Q633 274 632 273Q631 272 631 271Q631 272 631 272Q631 272 631 272Q632 272 632.5 272.5Q633 273 634 275Q639 279 644.5 283Q650 287 655 291Q659 295 663 300Q667 305 671 310Q679 321 685 333Q691 345 697 357Q698 332 700.5 307.5Q703 283 706 258L608 255ZM915 262Q902 263 889 262.5Q876 262 863 262Q847 262 831.5 261.5Q816 261 801 260Q794 260 787 260Q780 260 773 259Q770 259 767 258.5Q764 258 761 259Q758 259 756.5 260.5Q755 262 753 264Q753 263 752.5 262.5Q752 262 752 262Q750 264 749.5 267.5Q749 271 749 273Q749 274 749.5 275.5Q750 277 751 279Q753 278 754.5 283Q756 288 756 289Q756 291 755.5 292.5Q755 294 754 295Q752 297 752 296.5Q752 296 751 298Q750 299 750.5 302Q751 305 751 307Q753 305 753.5 307.5Q754 310 756 311Q758 312 759.5 312Q761 312 763 312Q762 315 761.5 318.5Q761 322 760 325Q759 330 759.5 331Q760 332 766 334Q762 335 760.5 336Q759 337 758 340Q758 342 758 345.5Q758 349 758 351Q758 354 757.5 357Q757 360 756 363Q755 366 752.5 367Q750 368 750 371Q752 370 754 369.5Q756 369 758 368Q757 372 755 376Q753 380 752 384Q751 388 751 392Q751 396 751 400Q752 400 753 400Q754 400 755 399Q755 402 755 404Q755 406 754 408Q754 409 753 410.5Q752 412 751 413Q750 417 750.5 421Q751 425 751 429Q752 429 752.5 428.5Q753 428 754 428Q754 431 756 433Q758 435 760 436Q757 436 756 436Q755 436 754 439Q754 440 754 442.5Q754 445 754 446Q754 450 752.5 453.5Q751 457 752 461Q752 476 752.5 491.5Q753 507 753 522Q784 481 811 436.5Q838 392 869 351Q877 340 900.5 309.5Q924 279 926 276Q927 275 930 271.5Q933 268 933 266Q933 261 926 261.5Q919 262 915 262ZM967 501Q966 502 965 503Q964 504 963 506Q962 504 961.5 500.5Q961 497 958 498Q957 492 958 487Q959 482 959 476Q960 477 960.5 477.5Q961 478 962 479Q962 475 964.5 471Q967 467 966 463Q966 459 963.5 460Q961 461 960 459Q958 457 958.5 449.5Q959 442 960 440Q961 439 962.5 438Q964 437 964 434Q965 432 964.5 428.5Q964 425 964 422Q961 410 961 398Q961 386 960 374Q959 367 957.5 368.5Q956 370 952 370Q946 370 947.5 364.5Q949 359 950 356Q946 357 946 353Q946 349 946 346Q946 341 944 337Q942 333 942 329Q927 350 913.5 372Q900 394 885 416Q870 437 855 459.5Q840 482 824 504Q809 525 795 547.5Q781 570 766 592Q763 596 759 600.5Q755 605 754 610Q752 615 752 621Q752 627 752 632Q752 638 752 643.5Q752 649 752 654Q752 660 753 662.5Q754 665 758 669Q749 669 739 669Q729 669 719 669Q713 669 708.5 674.5Q704 680 700 685Q695 692 690.5 699Q686 706 681 713Q669 730 656.5 747Q644 764 631 781Q607 813 584 845.5Q561 878 535 908Q552 906 568.5 905Q585 904 601 902Q617 899 633 896Q649 893 665 888Q695 880 723 868Q751 856 779 842Q785 839 791 835.5Q797 832 803 829Q809 825 814.5 820Q820 815 825 809Q836 797 846.5 785Q857 773 868 761Q886 740 903.5 718.5Q921 697 932 672Q938 656 943 639Q948 622 951 605Q953 597 953.5 588Q954 579 956 570Q957 567 957.5 563.5Q958 560 959 557Q959 556 960 554Q961 552 961 552Q961 550 962 548Q963 546 965 549Q967 537 967.5 525Q968 513 967 501ZM142 470Q143 471 143.5 471.5Q144 472 145 472Q140 471 139.5 473.5Q139 476 141 479Q142 483 145.5 486Q149 489 151 492Q153 491 154 490Q155 489 156 488Q159 492 162 495.5Q165 499 168 502Q171 498 174 497.5Q177 497 173 491Q171 488 168.5 485Q166 482 163 479Q164 477 165 476Q166 475 166 472Q166 468 160.5 461.5Q155 455 152 452Q149 449 146.5 449Q144 449 143 446Q141 444 141 442.5Q141 441 140 439Q139 438 137 437Q135 436 134 435Q132 433 130.5 429.5Q129 426 126 425Q123 423 120.5 423.5Q118 424 118 428Q116 427 113.5 426.5Q111 426 109 426Q111 429 113.5 433.5Q116 438 119 441Q121 444 123.5 446Q126 448 128 450Q131 453 132 456Q133 459 136 461Q138 464 139.5 465.5Q141 467 142 470Z" fill="#ee9e2e" />
  </g>
</svg>