<?xml version="1.0" encoding="UTF-8"?>
<svg width="16" height="16" viewBox="0 0 16 16" xmlns="http://www.w3.org/2000/svg">
  <g transform="translate(0.5099999999999998, 14.55375) scale(0.01462890625, -0.01462890625)">
    <path d="M591 907Q612 901 625 895.5Q638 890 651 880L312 485Q347 463 380 425Q413 387 435 341.5Q457 296 463 247Q468 197 449 151Q458 214 435 267Q412 321 373 361Q334 401 287 427Q240 452 202 458L591 907ZM320 -7Q368 -9 415.5 -10Q463 -11 511 -11Q565 -11 617 -10Q669 -9 720 -6.5Q771 -4 820 0Q870 3 918 8Q952 11 978 36Q1004 61 1009 96Q1016 161 1020 228Q1024 295 1024 364Q1024 433 1020 500Q1016 567 1009 631Q1004 667 978 691.5Q952 716 918 720Q876 724 832.5 727Q789 730 745 733Q745 733 707 650Q669 566 621 462Q573 358 530 265Q487 172 477 151Q450 91 411.5 49Q373 7 320 -7ZM425 181Q425 242 380 285Q336 328 275.5 352.5Q215 377 153 381Q91 386 56 369L490 872Q470 877 451.5 875.5Q433 874 433 874L310 734Q257 732 206 728.5Q155 725 106 720Q71 716 45.5 691.5Q20 667 15 631Q7 567 3.5 500Q0 433 0 364Q0 295 3.5 228Q7 161 15 96Q20 56 45.5 35Q71 14 106 8Q155 0 210 1Q266 3 313.5 21Q361 39 393 77Q425 115 425 181Z" fill="#d28445" />
  </g>
</svg>