<?xml version="1.0" encoding="UTF-8"?>
<svg width="16" height="16" viewBox="0 0 16 16" xmlns="http://www.w3.org/2000/svg">
  <g transform="translate(0.011955645161291032, 14.9825) scale(0.015585937499999999, -0.015585937499999999)">
    <path d="M810 63L41 63Q21 63 9 78Q-3 93 1 113L152 772Q158 799 175.5 816Q193 833 220 833L985 833Q1004 833 1015.5 818.5Q1027 804 1023 785L868 109Q864 89 847.5 76Q831 63 810 63ZM260 166L614 420Q630 431 632.5 452Q635 473 620 487L387 735Q358 766 325 735Q292 704 321 673L519 463L207 239Q170 212 196.5 175.5Q223 139 260 166ZM692 254L505 254Q464 254 464 213Q464 172 505 172L692 172Q732 172 732 213Q732 254 692 254Z" fill="#46788d" />
  </g>
</svg>