<?xml version="1.0" encoding="UTF-8"?>
<svg width="16" height="16" viewBox="0 0 16 16" xmlns="http://www.w3.org/2000/svg">
  <g transform="translate(0.7436053466796873, 14.559235839843751) scale(0.01462890625, -0.01462890625)">
    <path d="M672 729Q610 765 610 836.5Q610 908 672 943Q734 979 796 943Q858 907 858 836Q858 765 796 729.5Q734 694 672 729ZM551 890L0 890L0 855L551 855ZM249 755L0 755L0 724L249 724L249 755ZM269 403L0 403L0 371L269 371ZM184 280L0 280L0 248L184 248ZM152 -49Q162 -35 202 22Q241 79 287.5 142.5Q334 206 375 257Q415 309 427 311Q450 305 485.5 293.5Q521 282 517 275Q512 266 479 220Q446 174 443 157Q439 140 462 111.5Q485 83 524 112Q543 126 572 156Q600 187 625 220Q650 253 666 283Q682 313 678 325Q668 350 620 382.5Q572 415 512 440Q510 444 544.5 481.5Q579 519 603 561Q605 565 624 545Q643 525 668 499.5Q693 474 717 453Q742 433 755 435Q775 439 813 464Q851 489 888.5 519.5Q926 550 956 578Q985 606 989 616Q996 637 987 660Q978 683 950 702Q937 711 913 692Q890 673 863.5 646.5Q837 620 810 597Q784 574 762 576Q733 580 704 633.5Q675 687 606 730Q546 767 469.5 782Q393 797 370 794Q357 792 336 777Q314 763 284.5 736.5Q255 710 218 674Q182 637 139 592Q111 563 150.5 525.5Q190 488 215 506Q290 561 336.5 615.5Q383 670 401 669Q418 669 448 653.5Q478 638 478 638Q478 638 419 555Q361 472 287 366Q213 260 147 162Q81 63 66 34Q33 -31 82 -54Q131 -77 152 -49Z" fill="#d28445" />
  </g>
</svg>