<?xml version="1.0" encoding="UTF-8"?>
<svg width="16" height="16" viewBox="0 0 16 16" xmlns="http://www.w3.org/2000/svg">
  <g transform="translate(0.5082267992424239, 14.55375) scale(0.01462890625, -0.01462890625)">
    <path d="M977 843L604 843L604 948L539 948L0 855L0 41L532 -52L604 -52L604 64L953 64Q968 65 984 65.5Q1000 66 1012 76Q1023 91 1023 109.5Q1023 128 1024 146L1024 798Q1026 818 1011.5 831.5Q997 845 977 843ZM341 409Q321 399 299 398.5Q277 398 256 399L256 262L186 268L187 641Q234 639 286.5 646.5Q339 654 379 618Q416 573 406.5 505Q397 437 341 409ZM968 119L604 119L604 192L884 192L884 239L604 239L604 297L884 297L884 343L605 343Q605 343 604.5 369Q604 395 604 412Q639 401 676 403Q713 405 744 425Q777 445 795 480Q813 515 816 552L663 552L663 704L604 693L604 788L968 788L968 119ZM686 729Q746 726 791 681Q836 636 839 576L686 576ZM256 578Q273 579 292 578.5Q311 578 322 562Q332 545 332 524Q332 503 324 485Q314 467 294.5 465Q275 463 257 461Q256 490 255.5 519.5Q255 549 256 578Z" fill="#ac4142" />
  </g>
</svg>