<?xml version="1.0" encoding="UTF-8"?>
<svg width="16" height="16" viewBox="0 0 16 16" xmlns="http://www.w3.org/2000/svg">
  <g transform="translate(1.581495672487745, 14.55375) scale(0.01462890625, -0.01462890625)">
    <path d="M610 911L24 911Q-1 912 0 936Q1 960 24 960L610 960Q633 960 633.5 936Q634 912 610 911ZM24 716Q-1 717 0 741Q1 765 24 765L366 765Q390 765 390.5 741Q391 717 366 716L24 716ZM268 814Q243 815 243.5 838.5Q244 862 268 862L756 862Q780 862 780.5 838.5Q781 815 756 814L268 814ZM658 765Q682 765 682.5 741Q683 717 658 716L463 716Q438 717 438.5 741Q439 765 463 765ZM756 716Q731 717 731.5 741Q732 765 756 765L805 765Q829 765 829 741Q829 717 805 716ZM24 619Q-1 620 0 643.5Q1 667 24 667L122 667Q146 667 146.5 643.5Q147 620 122 619ZM609 619Q585 620 585.5 643.5Q586 667 609 667L853 667Q877 667 877.5 643.5Q878 620 853 619ZM219 619Q195 620 195.5 643.5Q196 667 219 667L268 667Q292 667 292.5 643.5Q293 620 268 619ZM24 34Q-1 35 0 58.5Q1 82 24 82L122 82Q146 82 146.5 58.5Q147 35 122 34L24 34ZM219 34Q195 35 195.5 58.5Q196 82 219 82L268 82Q292 82 292.5 58.5Q293 35 268 34L219 34ZM609 521Q585 522 585.5 546Q586 570 609 570L853 570Q877 570 877.5 546Q878 522 853 521ZM24 521Q-1 522 0 546Q1 570 24 570L268 570Q292 570 292.5 546Q293 522 268 521L24 521ZM24 131Q-1 132 0 156Q1 180 24 180L268 180Q292 179 292.5 155.5Q293 132 268 131L24 131ZM24 -64Q-1 -63 0 -39Q1 -15 24 -15L268 -15Q292 -16 292.5 -39.5Q293 -63 268 -64L24 -64ZM24 424Q-1 425 0 448.5Q1 472 24 472L73 472Q97 472 97.5 448.5Q98 425 73 424ZM171 424Q146 425 146.5 448.5Q147 472 171 472L317 472Q341 472 341.5 448.5Q342 425 317 424ZM414 424Q390 425 390.5 448.5Q391 472 414 472L805 472Q829 472 829 448.5Q829 425 805 424ZM609 326Q585 327 585.5 351Q586 375 609 375L756 375Q780 374 780.5 350.5Q781 327 756 326ZM317 326Q292 327 292.5 351Q293 375 317 375L512 375Q536 374 536.5 350.5Q537 327 512 326L317 326ZM24 326Q-1 327 0 351Q1 375 24 375L220 375Q243 374 243.5 350.5Q244 327 220 326L24 326ZM24 229Q-1 230 0 253.5Q1 277 24 277L73 277Q97 277 97.5 253.5Q98 230 73 229L24 229ZM171 229Q146 230 146.5 253.5Q147 277 171 277L610 277Q633 277 633.5 253.5Q634 230 610 229L171 229ZM24 814Q-1 815 0 838.5Q1 862 24 862L171 862Q195 862 195 838.5Q195 815 171 814L24 814Z" fill="#4d9085" />
  </g>
</svg>