<?xml version="1.0" encoding="UTF-8"?>
<svg width="16" height="16" viewBox="0 0 16 16" xmlns="http://www.w3.org/2000/svg">
  <g transform="translate(0.5034605305989586, 14.554346286939538) scale(0.01462890625, -0.01462890625)">
    <path d="M373 673L374 225L464 225L464 391L595 391Q656 396 685 431.5Q714 467 718 525Q721 579 680.5 626Q640 673 595 673ZM587 589Q638 577 633 523.5Q628 470 587 471L464 471L464 589ZM506 957Q490 956 474.5 950Q459 944 448 932L28 517Q-2 492 0 447.5Q2 403 33 379L453 -38Q473 -60 508.5 -61Q544 -62 571 -40L981 371Q1011 397 1022.5 436.5Q1034 476 993 518L573 933Q563 944 544.5 951Q526 958 506 957ZM511 885Q515 885 518.5 884Q522 883 525 882L942 466Q950 456 947.5 445Q945 434 938 428L529 23Q522 13 513 12Q504 11 492 26L81 437Q73 445 73 454Q73 463 79 468L494 877Q499 882 503.5 883.5Q508 885 511 885Z" fill="#ee9e2e" />
  </g>
</svg>