<?xml version="1.0" encoding="UTF-8"?>
<svg width="16" height="16" viewBox="0 0 16 16" xmlns="http://www.w3.org/2000/svg">
  <g transform="translate(0.5099999999999998, 14.55375) scale(0.01462890625, -0.01462890625)">
    <path d="M0 960L0 -64L1024 -64L1024 960ZM528 484Q500 444 446 425Q392 406 315 409L315 215L228 215L228 753L360 755Q442 758 498 715Q554 672 554 586Q554 555 548 529.5Q542 504 528 484ZM813 543Q813 541 812 540Q811 539 809 539Q784 541 760 538Q736 535 715 530L715 215L628 215L628 532Q628 546 627.5 557Q627 568 626 579Q625 580 626 582Q627 584 630 586Q663 597 710 608.5Q757 620 809 619Q811 619 812 618Q813 617 813 615L813 543ZM465 583Q465 563 461.5 548.5Q458 534 450 523Q431 497 399.5 492.5Q368 488 356 487L315 487L315 677L362 677Q419 677 441.5 650.5Q464 624 465 583Z" fill="#8f5536" />
  </g>
</svg>