<?xml version="1.0" encoding="UTF-8"?>
<svg width="16" height="16" viewBox="0 0 16 16" xmlns="http://www.w3.org/2000/svg">
  <g transform="translate(1.7954356317934774, 14.550975552262932) scale(0.01462890625, -0.01462890625)">
    <path d="M763 148L303 12Q293 9 285 16.5Q277 24 279 35L443 820Q445 831 456.5 832.5Q468 834 473 824L777 179Q781 169 777 160Q773 151 763 148ZM842 180L490 927Q472 960 439 960Q406 960 390 933L9 315Q0 300 0 283.5Q0 267 9 253L196 -36Q210 -53 225 -60.5Q240 -68 263 -61L805 99Q832 107 843 130.5Q854 154 842 180Z" fill="#46788d" />
  </g>
</svg>