<?xml version="1.0" encoding="UTF-8"?>
<svg width="16" height="16" viewBox="0 0 16 16" xmlns="http://www.w3.org/2000/svg">
  <g transform="translate(1.045, 13.350000000000001) scale(0.008359375, -0.008359375)">
    <path d="M384 0L1280 0L1280 256L384 256ZM384 640L1280 640L1280 1024L1120 1024Q1080 1024 1052 1052Q1024 1080 1024 1120L1024 1280L384 1280ZM1517 531Q1517 531 1526.5 540.5Q1536 550 1536 576Q1536 602 1517 621Q1498 640 1472 640Q1446 640 1427 621Q1408 602 1408 576Q1408 550 1427 531Q1446 512 1472 512Q1498 512 1517 531ZM1664 576L1664 160Q1664 147 1654.5 137.5Q1645 128 1632 128L1408 128L1408 -32Q1408 -72 1380 -100Q1352 -128 1312 -128L352 -128Q312 -128 284 -100Q256 -72 256 -32L256 128L32 128Q19 128 9.5 137.5Q0 147 0 160L0 576Q0 655 56.5 711.5Q113 768 192 768L256 768L256 1312Q256 1352 284 1380Q312 1408 352 1408L1024 1408Q1064 1408 1112 1388Q1160 1368 1188 1340L1340 1188Q1368 1160 1388 1112Q1408 1064 1408 1024L1408 768L1472 768Q1551 768 1607.5 711.5Q1664 655 1664 576Z" fill="#be2f31" />
  </g>
</svg>