<?xml version="1.0" encoding="UTF-8"?>
<svg width="16" height="16" viewBox="0 0 16 16" xmlns="http://www.w3.org/2000/svg">
  <g transform="translate(0.020000000000000462, 14.9825) scale(0.015585937499999999, -0.015585937499999999)">
    <path d="M848 557L1024 405L511 -42L0 403L178 556L512 66L848 557ZM372 382L315 550L150 642ZM651 380L711 550L873 641ZM512 938L78 743L233 743L266 693L756 693L788 743L944 743L512 938ZM546 818L512 801L478 818L478 853L512 871L546 853ZM873 642L150 642L375 608L372 382L503 219L503 432Q503 439 511.5 439Q520 439 520 432L520 219L651 380L648 608L873 642ZM505 473Q498 477 498 485Q498 493 505 497Q512 501 519 497Q526 493 526 485Q526 477 519 473Q512 469 505 473ZM505 531Q498 535 498 543Q498 551 505 555Q512 559 519 555Q526 551 526 543Q526 535 519 531Q512 527 505 531ZM505 592Q498 596 498 604Q498 612 505 616Q512 620 519 616Q526 612 526 604Q526 596 519 592Q512 588 505 592Z" fill="#d28445" />
  </g>
</svg>