<?xml version="1.0" encoding="UTF-8"?>
<svg width="16" height="16" viewBox="0 0 16 16" xmlns="http://www.w3.org/2000/svg">
  <g transform="translate(0.5099999999999998, 14.55375) scale(0.01462890625, -0.01462890625)">
    <path d="M318 806L318 77L404 77L404 299L584 299Q631 299 664 332Q697 365 697 412L697 693Q697 740 664 773Q631 806 584 806L318 806ZM643 199Q615 199 595 179Q575 159 575 132Q575 104 595 84Q615 64 643 64Q671 64 690.5 84Q710 104 710 132Q710 159 690.5 179Q671 199 643 199ZM623 162L675 131L623 101L623 162ZM791 199Q763 199 743.5 179Q724 159 724 132Q724 104 743.5 84Q763 64 791 64Q819 64 838.5 84Q858 104 858 132Q858 159 838.5 179Q819 199 791 199ZM768 155L815 155L815 107L768 107ZM149 959L875 959Q937 959 980.5 915.5Q1024 872 1024 810L1024 86Q1024 24 980.5 -19.5Q937 -63 875 -63L149 -63Q87 -63 43.5 -19.5Q0 24 0 86L0 810Q0 872 43.5 915.5Q87 959 149 959ZM404 723L586 723Q597 723 604.5 716Q612 709 612 698L612 410Q612 400 604.5 392.5Q597 385 586 385L404 385L404 723Z" fill="#46788d" />
  </g>
</svg>