<?xml version="1.0" encoding="UTF-8"?>
<svg width="16" height="16" viewBox="0 0 16 16" xmlns="http://www.w3.org/2000/svg">
  <g transform="translate(0.020000000000000462, 14.9825) scale(0.015585937499999999, -0.015585937499999999)">
    <path d="M0 960L1024 960L1024 -64L0 -64ZM146 601L146 301Q145 231 136 219Q127 207 74 202L74 171L303 171L303 203Q237 206 231.5 224Q226 242 224 301L224 662Q224 680 227.5 683.5Q231 687 263 687Q331 687 360 647.5Q389 608 386 557Q384 514 365.5 481Q347 448 272 432Q264 430 264 418.5Q264 407 273 404Q357 405 415.5 444.5Q474 484 473 562Q472 620 448 655Q423 690 373.5 707Q324 724 250 725Q175 726 74 717L74 686Q137 684 140.5 667Q144 650 146 601ZM671 311L670 592Q671 666 680 677Q689 688 743 692L743 724L516 724L516 692Q564 689 578.5 681Q593 673 592 594L592 303Q592 232 582.5 219Q573 206 516 203L516 171L913 171Q922 187 935 235.5Q948 284 950 290Q951 298 938 302.5Q925 307 920 300Q886 232 867.5 222Q849 212 770 212Q706 212 688 227Q670 242 671 311Z" fill="#4d9085" />
  </g>
</svg>