<?xml version="1.0" encoding="UTF-8"?>
<svg width="16" height="16" viewBox="0 0 16 16" xmlns="http://www.w3.org/2000/svg">
  <g transform="translate(0.9927539062499999, 14.55375) scale(0.01462890625, -0.01462890625)">
    <path d="M240 -2L240 274L0 135ZM497 956Q489 960 479 960Q469 960 461 956L213 812L692 536L692 -18L940 125Q947 129 952.5 138.5Q958 148 958 157L958 689ZM223 663L0 536L346 335L346 -64L568 63Q576 68 581 77Q586 86 586 95L586 475L258 663Q251 668 240.5 668Q230 668 223 663Z" fill="#90a959" />
  </g>
</svg>