<?xml version="1.0" encoding="UTF-8"?>
<svg width="16" height="16" viewBox="0 0 16 16" xmlns="http://www.w3.org/2000/svg">
  <g transform="translate(0.8921028963414642, 14.981791548295455) scale(0.015585937499999999, -0.015585937499999999)">
    <path d="M912 469Q912 515 903 560Q894 604 877 644.5Q860 685 836 721Q811 757 781 788Q770 822 771.5 863Q773 904 787 926Q792 934 797.5 941.5Q803 949 808 957Q758 965 716 951Q674 937 645 901Q641 896 638 893.5Q635 891 631 890Q587 907 543 916Q499 925 455 925Q411 925 367 916Q324 907 280 889Q276 891 272.5 893.5Q269 896 266 901Q237 937 195 951Q153 965 102 957Q130 924 137 882.5Q144 841 129 786Q68 718 38 650Q7 582 1.5 512.5Q-4 443 11 371Q26 300 57 223Q62 207 70.5 159.5Q79 112 75 63L167 148Q180 136 197 125.5Q214 115 234 107Q191 76 188.5 25.5Q186 -25 223 -60Q213 -23 234 6Q255 35 295 36Q334 37 356 4Q378 -29 365 -64Q389 -43 400 -7.5Q411 28 391 69Q423 65 455.5 64.5Q488 64 521 66Q503 29 512 -4.5Q521 -38 544 -60Q534 -26 555 5.5Q576 37 616 36Q660 36 679 2.5Q698 -31 686 -64Q719 -37 724.5 13Q730 63 687 101Q708 109 726 118.5Q744 128 758 139L838 66Q833 128 845 177Q856 226 871 272Q886 318 899 365Q913 411 912 469ZM53 333L36 384L58 363L94 375ZM62 296L84 275L119 288L79 245ZM117 372L138 350L174 359L131 320L117 372ZM100 156L83 207L106 186L141 198Q141 198 120.5 177Q100 156 100 156ZM157 228L140 280L163 259L198 271ZM196 357L217 334L253 344L209 304L196 357ZM797 366L783 314L740 353L776 344L797 366L797 366ZM661 338L697 328L718 350L705 298Q705 298 683 318Q661 338 661 338ZM757 222L716 265L751 253L774 274L757 222ZM814 149L773 192L808 180L831 201L814 149ZM835 239L795 281L830 269L852 290ZM861 326L820 369L856 357L878 378ZM457 567Q492 567 517 542Q542 517 542 482Q542 465 535.5 451.5Q529 438 521 423L457 303L415 381Q403 405 387.5 429.5Q372 454 372 482Q372 517 397 542Q422 567 457 567ZM531 420Q521 402 489 342Q457 282 457 282L457 282Q457 282 436 320.5Q415 359 409 371Q397 393 382.5 416Q368 439 363 464Q311 423 240.5 425Q170 427 119 480Q82 517 73 564Q63 611 75.5 655Q88 699 121 733Q155 768 205 780Q252 792 296 780Q339 767 370.5 738Q402 709 418 668Q435 626 428 580Q444 585 459.5 584.5Q475 584 490 579Q484 618 494 655Q505 693 528.5 722.5Q552 752 588 770Q623 788 666 789Q718 790 759 765Q800 740 823.5 700.5Q847 661 849 613Q852 565 826 520Q805 482 771 459Q737 437 699 430.5Q661 424 622 434Q584 444 553 470Q550 456 543.5 444Q537 432 531 420ZM254 595Q261 591 269 595.5Q277 600 277 609Q277 618 269 622Q261 626 254 622Q246 618 246 609Q246 600 254 595ZM259 542Q286 526 313.5 542Q341 558 341 589Q341 621 313.5 636.5Q286 652 259 637Q231 621 231 589Q231 557 259 542ZM674 541Q702 525 729.5 541Q757 557 757 588Q757 620 729.5 636Q702 652 674 636Q647 620 647 588.5Q647 557 674 541ZM239 513Q193 539 193 591.5Q193 644 239 670Q284 696 329.5 670Q375 644 375 591Q375 539 329.5 513Q284 487 239 513ZM669 595Q662 600 662 609Q662 618 669 622Q677 626 684.5 622Q692 618 692 609Q692 600 684.5 595.5Q677 591 669 595ZM660 509Q614 535 614 587.5Q614 640 660 666Q705 692 750.5 666Q796 640 796 588Q796 536 750.5 509.5Q705 483 660 509Z" fill="#aa759f" />
  </g>
</svg>