<?xml version="1.0" encoding="UTF-8"?>
<svg width="16" height="16" viewBox="0 0 16 16" xmlns="http://www.w3.org/2000/svg">
  <g transform="translate(0.02015904017857172, 14.97757363349303) scale(0.015585937499999999, -0.015585937499999999)">
    <path d="M536 784Q614 791 679.5 786Q745 781 814 766Q902 747 963 748Q1024 749 1024 796Q1024 846 962 855Q900 865 818 854.5Q736 844 655 825Q574 805 534 797Q532 804 526 808Q520 812 512 812Q504 812 497.5 806.5Q491 801 489 793Q413 790 350 791.5Q287 793 185 815Q95 834 47 825.5Q-1 817 0 779Q2 733 56 722Q110 712 186.5 720Q263 728 347 747Q430 766 491 779Q493 776 495.5 773Q498 770 502 768L502 744Q496 741 492.5 735.5Q489 730 489 723Q489 716 493 710.5Q497 705 503 702Q493 699 486 690Q479 681 479 669Q479 661 483 653.5Q487 646 493 642Q346 626 259 556Q171 487 125.5 403.5Q80 320 67 242Q54 165 57 132Q63 84 203 60Q344 36 511.5 35.5Q679 35 820 59Q961 83 967 132Q969 220 941 306Q914 393 859 464Q804 535 723 583Q641 631 533 641Q540 646 543.5 653.5Q547 661 547 669Q547 681 540 690Q533 699 523 702Q529 705 532.5 710.5Q536 716 536 723Q536 730 532 736Q528 742 522 745L522 768Q527 770 530.5 774.5Q534 779 536 784ZM495 640Q496 640 497 639Q498 638 499 638Q471 624 451 575Q432 525 419.5 463Q407 401 401 338Q395 274 393 232Q333 228 279.5 221.5Q226 215 180 205Q189 284 213 359Q237 434 275.5 494Q314 554 369 593Q423 633 495 640ZM939 135Q939 122 905 110Q871 97 812.5 87Q754 77 675 71Q596 65 505 65Q435 65 365 69Q294 74 235.5 83Q177 92 136 105Q95 119 83 137Q83 137 98 147Q113 158 157.5 171Q202 184 283 194Q365 205 497 205Q645 205 732 194Q819 183 865 170Q911 157 925 146Q939 135 939 135ZM845 203Q793 216 739.5 222.5Q686 229 631 231Q629 276 623 340Q617 404 605 465Q593 526 574 575Q555 623 527 638Q528 638 530 639Q532 640 533 641Q599 636 654 593Q710 551 751 488Q792 425 817 349Q842 274 845 203Z" fill="#d28445" />
  </g>
</svg>