<?xml version="1.0" encoding="UTF-8"?>
<svg width="16" height="16" viewBox="0 0 16 16" xmlns="http://www.w3.org/2000/svg">
  <g transform="translate(0.5099999999999998, 14.55375) scale(0.01462890625, -0.01462890625)">
    <path d="M1024 -64L1024 960L0 960L0 -64ZM813 526Q752 553 714 546Q676 539 675 519Q675 504 684 491.5Q693 479 754 449Q827 414 828.5 352Q830 290 792 256Q770 237 732 230Q694 223 660 226Q633 229 614 237.5Q595 246 595 246L595 331Q595 331 614 320Q633 309 659 303Q686 296 712 300.5Q738 305 745 324Q758 360 702.5 382Q647 404 616 441Q592 470 597 528Q602 586 666 610Q710 627 756.5 618.5Q803 610 813 605L813 526ZM378 749Q428 747 485.5 715Q543 683 543 584Q543 534 523 501Q502 467 469 447.5Q436 428 395 421Q354 414 312 418L312 231L230 231L230 747Q230 747 278.5 749Q327 751 378 749ZM399 500Q425 509 441 530Q457 551 457 583Q457 618 441 640Q425 662 398 669Q369 676 340.5 674.5Q312 673 312 673L312 493Q312 493 347.5 493.5Q383 494 399 500Z" fill="#46788d" />
  </g>
</svg>