<?xml version="1.0" encoding="UTF-8"?>
<svg width="16" height="16" viewBox="0 0 16 16" xmlns="http://www.w3.org/2000/svg">
  <g transform="translate(0.020000000000000462, 14.9825) scale(0.015585937499999999, -0.015585937499999999)">
    <path d="M990 801Q990 801 950 801Q910 801 862 800.5Q814 800 773 799Q733 797 733 795Q732 795 761 778Q789 761 823.5 741Q858 721 886 705Q915 689 915 689L915 300L990 300ZM251 560Q289 561 303 552.5Q317 544 321 516Q322 472 301 463Q280 454 251 454ZM251 399L286 401Q316 403 334 411.5Q352 420 368 442Q391 475 387 524.5Q383 574 355 598Q340 611 320.5 614Q301 617 252 615L192 612Q192 612 192 562Q193 512 193 451.5Q193 391 194 341Q194 291 195 290Q196 289 223.5 288Q251 287 251 287ZM882 680L581 680L581 613L811 613L811 480L581 480L581 421L811 421L811 379L581 379L581 317L811 317L811 275L581 275L581 212L811 212L811 170L581 170L581 108L882 108ZM0 68L0 829L581 930L581 714L703 714Q703 714 702 759Q701 804 703 809Q709 827 732.5 831Q756 835 865 835Q967 835 990 832Q1013 829 1019 815Q1022 810 1023 729Q1024 647 1024 550.5Q1024 454 1023 373Q1022 291 1019 286Q1014 274 1000.5 270Q987 266 955 266L915 266L915 145Q915 97 906 85.5Q897 74 856 74L581 74L581 -34Z" fill="#4d9085" />
  </g>
</svg>