<?xml version="1.0" encoding="UTF-8"?>
<svg width="16" height="16" viewBox="0 0 16 16" xmlns="http://www.w3.org/2000/svg">
  <g transform="translate(0.019610351562501016, 14.985963541666665) scale(0.015585937499999999, -0.015585937499999999)">
    <path d="M852 715Q872 705 902 679Q932 652 959.5 624Q987 596 1006 573Q1025 550 1024 546Q1021 540 989 512Q957 484 944 470Q915 404 891.5 370.5Q868 337 859 389Q848 326 830 314Q812 302 803 271Q790 208 760.5 194Q731 180 714 168Q699 153 678.5 155Q658 157 641 148Q620 140 586 135Q552 131 516 130.5Q480 130 447 134Q413 138 393 147Q371 156 350 155Q329 154 267 196Q234 229 233 248Q232 267 220 289Q201 321 191 324.5Q181 328 167 401Q163 342 136 366.5Q109 391 80 470Q80 470 41.5 505Q3 540 0 546Q-1 550 18 573Q37 596 64.5 624Q92 652 122 679Q152 705 172 715Q229 741 319 753Q409 766 506.5 766Q604 766 696 753Q789 740 852 715ZM592 483Q654 462 701.5 404Q749 346 739 286Q739 254 736.5 232Q734 210 729 196Q782 230 779 249Q776 268 797 301Q816 335 824 340Q832 345 842 390Q836 436 829.5 501.5Q823 567 816 591Q810 612 785 648.5Q760 685 740 711Q691 730 624 737Q557 744 490.5 743Q424 742 369 734Q314 725 289 713Q269 687 243 649.5Q217 612 211 591Q204 568 197.5 504Q191 440 186 393Q190 349 214 324.5Q238 300 243 277Q249 239 265 222Q281 205 305 192Q300 207 297 230Q294 253 294 287Q284 357 337 411.5Q390 466 446 483Q461 524 520.5 522Q580 520 592 483ZM607 257Q607 300 579 331Q551 362 524 365L527 449Q578 452 573.5 478Q569 504 518 506Q478 506 463.5 480.5Q449 455 509 449L509 365Q483 365 455.5 333.5Q428 302 428 258Q432 302 460.5 324Q489 346 520 346Q551 345 575.5 322Q600 299 607 257ZM332 539Q332 550 323 555Q314 560 305 555Q296 550 296 539.5Q296 529 305 523Q314 518 323 523.5Q332 529 332 539ZM260 447Q225 467 225 508Q225 549 260 569Q296 589 331 568.5Q366 548 366 508Q366 467 331 447Q296 427 260 447ZM701 447Q666 467 666 508Q666 549 701 569Q736 589 771 568.5Q806 548 806 508Q806 467 771 447Q736 427 701 447ZM736 539Q736 550 727 555Q718 560 709 555Q699 550 699 539.5Q699 529 709 523Q718 518 727 523.5Q736 529 736 539Z" fill="#ac4142" />
  </g>
</svg>