<?xml version="1.0" encoding="UTF-8"?>
<svg width="16" height="16" viewBox="0 0 16 16" xmlns="http://www.w3.org/2000/svg">
  <g transform="translate(0.5115133351293109, 14.555181774239184) scale(0.01462890625, -0.01462890625)">
    <path d="M966 765Q923 799 875 801Q827 802 788.5 778.5Q750 755 730 710Q709 666 722 608L384 270Q364 249 329 247Q294 245 273 264L216 321L326 431L0 431L1 106L108 213Q119 201 148 172Q177 143 211 124Q271 92 339.5 95.5Q408 99 470 140L831 500Q897 484 943 510Q990 536 1010 580.5Q1030 625 1021 677Q1012 729 966 765ZM894 559Q843 545 805 582.5Q767 620 781 671Q794 722 845.5 736Q897 750 935 713Q973 676 959.5 624.5Q946 573 894 559Z" fill="#46788d" />
  </g>
</svg>