<?xml version="1.0" encoding="UTF-8"?>
<svg width="16" height="16" viewBox="0 0 16 16" xmlns="http://www.w3.org/2000/svg">
  <g transform="translate(3.4395192649147717, 14.9825) scale(0.015585937499999999, -0.015585937499999999)">
    <path d="M547 445Q522 520 487 581Q451 643 411.5 702.5Q372 762 332 824Q293 885 261 960Q229 885 194 811Q160 736 129 670.5Q98 605 73 550Q48 496 36 461Q2 366 0 275Q-2 185 27 112.5Q56 40 116 -8Q176 -55 266 -64Q362 -65 434 -30Q505 6 544 72.5Q583 139 585 234Q588 329 547 445ZM282 852Q306 801 329 748Q351 695 369 647Q387 599 397 559Q408 519 407 493Q458 482 478 452Q498 422 514 400Q499 446 476 497Q453 548 424 603Q395 658 362 717Q329 776 295 839Q310 813 326.5 788Q343 763 360 737Q381 706 402 673Q424 639 445.5 602Q467 565 487 524Q507 483 525 436Q540 395 550 348Q560 300 560.5 251.5Q561 203 550 156Q539 109 513 70Q491 36 461 17Q431 -2 371 -22Q282 11 248 103Q214 196 214 319.5Q214 443 236 584Q259 724 282 852ZM46 371Q54 415 73 466Q92 516 118 572.5Q144 629 175 692Q205 755 238 823Q227 720 191 651Q155 582 160 521Q130 502 100.5 460.5Q71 419 46 371Z" fill="#7f7f7f" />
  </g>
</svg>