<?xml version="1.0" encoding="UTF-8"?>
<svg width="16" height="16" viewBox="0 0 16 16" xmlns="http://www.w3.org/2000/svg">
  <g transform="translate(0.5099999999999998, 14.55375) scale(0.01462890625, -0.01462890625)">
    <path d="M376 224L296 298L648 298L727 224L376 224ZM376 485L296 411L648 411L727 485L376 485ZM727 598L648 672L296 672L376 598L727 598ZM260 524L207 577L11 381Q6 376 3 369Q0 362 0 354Q0 347 3 340Q6 333 11 328L207 132L260 185L90 354L260 524ZM1013 568L817 764L765 711L934 542L765 372L817 319L1013 515Q1018 520 1021 527Q1024 534 1024 542Q1024 549 1021 556Q1018 563 1013 568Z" fill="#825078" />
  </g>
</svg>