<?xml version="1.0" encoding="UTF-8"?>
<svg width="16" height="16" viewBox="0 0 16 16" xmlns="http://www.w3.org/2000/svg">
  <g transform="translate(1.3584765625, 14.55375) scale(0.01462890625, -0.01462890625)">
    <path d="M908 348L726 281L726 68L364 -64L364 363L724 497L724 842L908 775L908 348ZM554 233Q530 225 513.5 201Q497 177 497 152Q497 127 513.5 115.5Q530 104 554 112Q577 121 594 144.5Q611 168 611 193Q611 218 594 230Q577 242 554 233ZM669 535L308 401L309 130L181 84L0 149L0 576L181 644L181 856L466 960L669 895L669 535ZM430 770Q407 762 390.5 738Q374 714 374 689Q374 664 390.5 652.5Q407 641 430 649Q454 658 470.5 681.5Q487 705 487 730Q487 756 470.5 767.5Q454 779 430 770Z" fill="#46788d" />
  </g>
</svg>