<?xml version="1.0" encoding="UTF-8"?>
<svg width="16" height="16" viewBox="0 0 16 16" xmlns="http://www.w3.org/2000/svg">
  <g transform="translate(-0.18763131716342454, 14.9552619278169) scale(0.015585937499999999, -0.015585937499999999)">
    <path d="M565 263L565 244Q552 238 539.5 233.5Q527 229 513 228L513 251Q512 260 503.5 259Q495 258 495 251L495 228Q484 229 471.5 232Q459 235 444 241L444 261Q443 270 435 268.5Q427 267 427 261L427 248Q422 250 417.5 252Q413 254 408 257Q401 261 397 253Q393 245 401 242Q407 238 414 235Q421 232 427 229L427 209Q427 201 435.5 201Q444 201 444 209L444 223Q458 218 471 215Q484 212 495 211L495 200Q495 192 504 192Q513 192 513 200L513 211Q526 211 539.5 215Q553 219 565 225L565 212Q565 203 574 203Q583 203 582 212L582 234Q588 237 594 240Q600 243 606 246Q613 249 608 256.5Q603 264 598 261Q594 259 590 257Q586 255 582 253L582 263Q581 272 573 270Q565 268 565 263ZM358 416Q384 400 410.5 416Q437 432 437 463Q437 494 410.5 510Q384 526 358 510Q332 494 332 463Q332 432 358 416ZM353 705L471 538Q475 420 520 391Q565 362 642 403Q651 405 659.5 402Q668 399 675 389Q685 408 694 419Q703 430 710 441Q695 481 654.5 548Q614 615 495 577L392 725Q381 723 371 717.5Q361 712 353 705ZM678 237Q678 237 694 218Q710 199 730 173Q750 147 768 120Q786 93 790 77Q794 62 799 45Q804 28 808 -4Q810 -16 842 -22.5Q874 -29 881 -3Q886 18 889 31Q892 44 892 44Q1011 65 1006 79Q1001 93 989 113Q978 134 957 124Q936 114 896 105Q876 101 744 224Q613 346 514 444Q415 542 422 540Q428 538 685 285ZM269 698Q283 704 292.5 712Q302 720 310 726L242 826Q233 838 221.5 882Q210 926 168 914Q146 907 160.5 863.5Q175 820 175 820Q175 820 106 831.5Q37 843 42 792Q42 783 44 770.5Q46 758 57 755Q81 749 98.5 756.5Q116 764 150 768Q196 773 218.5 743.5Q241 714 269 698ZM308 294Q308 294 291 266Q273 238 249 203.5Q225 169 200 140Q175 111 161 109Q32 94 82 62.5Q132 31 151 33Q151 33 152 5.5Q153 -22 180 -17Q186 -16 196.5 -14.5Q207 -13 206 -6Q202 9 205 24Q208 39 208 39Q223 95 254.5 143Q286 191 322 238Q317 250 313.5 264Q310 278 308 294ZM243 659Q243 669 221 687Q199 705 176 724Q129 729 72.5 715Q16 701 1 772Q-4 818 18 847Q40 876 115 872Q112 909 128 933Q144 957 196 956Q219 956 245.5 924Q272 892 278 839L350 747Q350 747 388 758Q425 769 481 771.5Q537 774 602 758Q667 742 721 688Q765 646 780.5 572Q796 498 779 452Q759 412 729.5 394Q700 376 692 333L853 166Q892 126 931 157.5Q970 189 1010 149Q1033 124 1047.5 95Q1062 66 1008 34Q994 26 974.5 20Q955 14 929 5Q905 -53 865 -61.5Q825 -70 782 -43Q767 -33 765 10Q763 53 747 77L660 192Q646 149 606 124Q567 98 518 95Q469 92 420 115Q371 138 338 193Q298 148 278.5 108.5Q259 69 244 33Q250 -10 239 -28Q228 -46 194 -55Q178 -59 151.5 -53.5Q125 -48 109 -1Q60 22 46.5 45Q33 68 41 93Q46 109 59 121.5Q72 134 151 149Q205 207 235 255.5Q265 304 299 351Q285 379 250.5 394Q216 409 206 448Q189 511 208 573.5Q227 636 243 659Z" fill="#be2f31" />
  </g>
</svg>