<?xml version="1.0" encoding="UTF-8"?>
<svg width="16" height="16" viewBox="0 0 16 16" xmlns="http://www.w3.org/2000/svg">
  <g transform="translate(0.020000000000000462, 14.9825) scale(0.015585937499999999, -0.015585937499999999)">
    <path d="M95 864L95 960L255 960L255 864ZM707 864L707 960L546 960L546 864ZM481 864L481 960L320 960L320 864ZM979 834L45 834Q0 834 0 789Q0 744 45 744L979 744Q1024 744 1024 789Q1024 834 979 834ZM932 864L932 960L772 960L772 864ZM772 713L772 479L932 479L932 713ZM546 713L546 309L707 309L707 713ZM320 713L320 91L481 91L481 713ZM95 713L95 -64L255 -64L255 713L95 713Z" fill="#6a9fb5" />
  </g>
</svg>