<?xml version="1.0" encoding="UTF-8"?>
<svg width="16" height="16" viewBox="0 0 16 16" xmlns="http://www.w3.org/2000/svg">
  <g transform="translate(1.2836445847602755, 14.127237675998149) scale(0.013671875, -0.013671875)">
    <path d="M141 196L224 196L224 318Q224 318 239.5 390.5Q255 463 361 463L596 463Q596 463 662 479Q728 495 728 597L728 840Q720 902 643 931Q566 961 478 960Q390 959 320 929Q250 899 255 843L255 728L493 728L493 693L161 693Q77 695 39 617Q0 540 0 446.5Q0 353 37 274Q74 196 141 196ZM842 700L760 700L760 578Q760 578 744.5 505.5Q729 433 623 433L388 433Q388 433 322 417Q256 401 256 299L256 74Q248 8 322 -27Q395 -61 486 -63.5Q577 -66 653 -38Q730 -9 728 51L728 168L491 168L491 203L822 203Q904 196 943 274Q982 352 982.5 447.5Q983 543 947 623Q911 702 842 700ZM336 796Q315 809 315 834.5Q315 860 336 873Q357 886 378.5 873Q400 860 400 834Q400 809 378.5 796Q357 783 336 796ZM605 22Q583 35 583 61Q583 87 605 100Q626 113 647.5 100Q669 87 669 61Q669 35 647.5 22.5Q626 10 605 22Z" fill="#90a959" />
  </g>
</svg>