<?xml version="1.0" encoding="UTF-8"?>
<svg width="16" height="16" viewBox="0 0 16 16" xmlns="http://www.w3.org/2000/svg">
  <g transform="translate(0.020000000000000462, 14.984966129351267) scale(0.015585937499999999, -0.015585937499999999)">
    <path d="M255 5Q128 79 64 199Q0 319 0 448Q0 577 64 697Q128 817 255 891Q383 965 519 960Q655 955 767.5 890.5Q880 826 952 711Q1024 595 1024 448Q1024 301 952 185Q880 70 767.5 5.5Q655 -59 519 -64Q383 -69 255 5ZM679 312Q668 311 657 310Q646 309 635 308L727 168Q748 178 768.5 168.5Q789 159 796 136Q968 181 925.5 233Q883 285 679 312ZM352 779Q351 771 348 764.5Q345 758 340 752L447 591Q504 593 562.5 591.5Q621 590 678 584Q881 614 917 655Q953 696 882.5 730Q812 764 665 781Q517 798 352 779ZM352 332Q408 338 467 340Q526 342 588 340L445 556Q421 557 397.5 559Q374 561 352 564Q211 547 128 517Q46 487 38.5 453.5Q31 420 105 387Q180 354 352 332ZM678 563Q629 557 577 555.5Q525 554 470 555L614 338Q631 337 647 336Q663 335 678 333Q981 369 986.5 446.5Q992 524 678 563ZM1003 469Q1000 523 987 573.5Q974 624 951 669Q940 636 886 612.5Q832 589 755 574Q840 560 911 535.5Q982 511 1003 469ZM352 585Q369 586 386.5 587.5Q404 589 421 590L323 740Q302 731 284 738.5Q266 746 257 764Q73 721 109.5 666Q146 611 352 585ZM276 575Q195 591 137 618.5Q79 646 84 689Q56 640 40 584.5Q24 529 21 469Q42 510 112 535Q182 560 276 575ZM276 321Q180 335 109 361.5Q38 388 21 427Q24 367 40 312Q56 257 84 207Q79 252 139.5 278.5Q200 305 276 321ZM698 118Q697 128 700 137.5Q703 147 711 156L610 307Q547 303 482.5 304.5Q418 306 352 311Q167 286 125 245Q83 204 145.5 169Q208 134 355 116Q503 98 698 118ZM950 227Q973 272 986.5 322.5Q1000 373 1003 427Q987 390 917 363Q847 336 755 322Q827 308 883.5 284.5Q940 261 950 227ZM619 899Q609 911 579 916Q549 922 514 922.5Q479 923 447 917Q416 911 405 899Q414 888 445 882Q477 877 513 877Q549 877 580 882Q611 888 619 899ZM905 742Q878 778 845 808Q813 839 775 863Q737 887 695 904Q653 921 607 930Q656 911 631.5 883.5Q607 856 512 856Q421 855 393.5 882.5Q366 910 417 930Q369 920 324 902Q280 883 240.5 857Q201 831 167 798Q134 764 107 725Q130 745 167.5 759Q205 773 252 784Q251 826 293 834.5Q335 843 350 800Q433 809 514 810Q594 810 666.5 802.5Q739 795 800 780Q861 765 905 742ZM405 -3Q412 -14 442 -20Q472 -26 507.5 -26.5Q543 -27 575 -21Q608 -16 619 -3Q615 6 586 12Q557 18 521.5 19Q486 20 452 15Q418 10 405 -3ZM512 40Q599 41 629 14.5Q659 -12 608 -34Q653 -25 695 -8Q737 9 774.5 33Q812 57 845 88Q878 118 905 153Q882 141 855 131.5Q828 122 797 115Q792 81 758 73.5Q724 66 704 98Q612 87 520 87Q428 86 347.5 95.5Q267 105 204 124Q141 143 107 171Q134 132 167 98Q201 65 240.5 39Q280 13 324 -6Q369 -24 417 -34Q365 -14 393.5 14Q422 42 512 40Z" fill="#46788d" />
  </g>
</svg>