<?xml version="1.0" encoding="UTF-8"?>
<svg width="16" height="16" viewBox="0 0 16 16" xmlns="http://www.w3.org/2000/svg">
  <g transform="translate(0.4971997070312498, 14.554794921875) scale(0.01462890625, -0.01462890625)">
    <path d="M302 417Q285 465 294 510Q304 556 333 590.5Q362 625 406 642Q449 659 499 650Q549 641 584 610Q619 578 634 536Q649 494 643 448Q636 401 603 362Q570 324 526 309Q481 295 437 303Q393 311 356 340Q319 369 302 417ZM453 944Q338 941 242 886Q145 831 84 743Q23 655 5 544Q-13 433 28 318Q69 205 152 132Q234 58 335.5 28.5Q437 -1 544 15Q652 31 743 97L914 -48L1024 85L862 223Q949 363 944 495Q938 626 871 727Q804 828 692 887Q579 947 453 944ZM459 767Q473 767 488.5 766Q504 765 519 762Q602 747 659 695Q716 644 741 574.5Q766 505 755 429Q744 353 690 289Q636 225 563 202Q489 178 417 191Q345 204 284 252Q223 299 195 378Q169 449 180 518Q192 587 230 641.5Q268 696 327 731Q387 765 459 767Z" fill="#90a959" />
  </g>
</svg>