<?xml version="1.0" encoding="UTF-8"?>
<svg width="16" height="16" viewBox="0 0 16 16" xmlns="http://www.w3.org/2000/svg">
  <g transform="translate(2.0773437500000007, 14.984993750000001) scale(0.015585937499999999, -0.015585937499999999)">
    <path d="M737 796Q737 796 710 809Q682 822 636 835Q590 848 529 853Q469 858 403 842Q352 830 301 800Q251 769 211 719.5Q171 670 146 601Q121 531 121 441Q121 355 143 288Q164 222 200 173.5Q236 125 281 96Q327 66 375 53Q446 35 512 41Q577 47 627.5 61.5Q678 76 708 92Q737 107 737 107L737 -3Q708 -22 657 -38Q606 -54 544.5 -60.5Q483 -67 415 -61Q348 -56 284 -32Q232 -13 181 23Q130 60 90 117.5Q50 175 25 255Q0 335 0 441Q0 507 12 563Q23 619 43 666Q63 713 90 751Q117 790 147 820Q213 885 295 917Q378 949 460.5 957Q543 965 616 953Q690 940 737 916L737 796ZM372 304L434 257L505 257L412 324Q412 324 438 350Q464 376 471 423Q478 462 472 502Q467 541 447.5 572.5Q428 604 393 622Q358 640 306 636Q261 633 228 606Q195 580 178.5 540.5Q162 501 164 455Q166 409 189 365Q222 306 284 300Q346 294 372 304ZM263 346Q236 357 219 397Q203 436 204.5 479.5Q206 523 231 559Q255 596 311 601Q372 603 400 572Q427 541 432.5 500.5Q438 460 429 423Q420 385 409 374Q398 354 360 336.5Q322 319 263 346ZM695 494L681 428L742 428L737 400L675 400L657 312L628 312L646 400L587 400L569 312L540 312L559 400L499 400L504 428L564 428L578 494L516 494L521 522L584 522L603 612L631 612L613 522L672 522L691 612L719 612L700 522L760 522L755 494L695 494ZM666 494L607 494L593 428L652 428Z" fill="#825078" />
  </g>
</svg>