<?xml version="1.0" encoding="UTF-8"?>
<svg width="16" height="16" viewBox="0 0 16 16" xmlns="http://www.w3.org/2000/svg">
  <g transform="translate(0.020000000000000462, 14.9825) scale(0.015585937499999999, -0.015585937499999999)">
    <path d="M141 824L0 683L0 72L881 72L1024 215L1024 824L141 824ZM271 666Q296 682 326 687.5Q356 693 386 693Q414 693 442 686.5Q470 680 494 664Q511 652 522 634.5Q533 617 541 598Q553 567 557 533.5Q561 500 562 467Q562 433 559 399.5Q556 366 545 334Q538 312 524 293.5Q510 275 492 262Q505 240 518.5 218.5Q532 197 546 175Q529 167 512 159.5Q495 152 478 144Q464 168 449.5 191.5Q435 215 421 239Q401 236 381.5 236Q362 236 342 238Q319 241 296 248.5Q273 256 255 272Q241 284 232 300Q223 316 217 333Q207 362 203.5 392.5Q200 423 200 454Q200 486 203 519Q206 552 216 584Q223 608 236.5 630Q250 652 271 666ZM652 363L652 513L603 513L603 574L652 574L652 667L721 667L721 574L813 574L811 513L721 513L721 360Q720 310 741 307.5Q762 305 809 308L813 252Q737 241 693 252.5Q649 264 652 363ZM280 389Q273 429 272.5 470Q272 511 281 551Q285 594 318 615Q352 637 390 633Q428 629 457 597Q487 566 483 502Q485 474 484.5 445.5Q484 417 480 389Q480 343 449 320Q417 297 379.5 297.5Q342 298 311 320Q279 343 280 389Z" fill="#ee9e2e" />
  </g>
</svg>