<?xml version="1.0" encoding="UTF-8"?>
<svg width="16" height="16" viewBox="0 0 16 16" xmlns="http://www.w3.org/2000/svg">
  <g transform="translate(0.5099999999999998, 14.556064700356014) scale(0.01462890625, -0.01462890625)">
    <path d="M664 323Q644 280 616 245Q587 211 553 183.5Q519 156 481 136Q444 116 406 102Q405 92 405 68.5Q405 45 404 32Q465 20 517.5 20Q570 20 619 33L619 145Q651 156 675.5 172Q700 188 722 204Q713 232 699.5 259Q686 286 664 323ZM97 333Q123 257 156.5 213.5Q190 170 206 153Q236 177 258.5 184.5Q281 192 301 204Q321 190 348 176Q375 162 408 148Q421 167 440.5 192Q460 217 481 255Q433 253 354 262Q275 271 160 360ZM829 505Q816 511 768.5 517Q721 523 696 519Q728 470 744 425Q760 379 766 337Q772 295 769 256Q767 217 763 181L817 149Q853 176 887.5 239Q922 302 924 333L826 390Q828 425 831.5 453Q835 481 829 505ZM515 531Q453 532 438 469Q423 406 472 378Q522 354 559 378Q596 402 596 449Q596 485 571 508Q546 531 515 531ZM205 749Q181 715 149.5 670.5Q118 626 100 566L196 509Q196 509 193.5 465Q191 421 200 392Q281 381 306 380Q331 379 331 379Q318 395 302 423Q285 452 273.5 493.5Q262 535 258 590Q254 645 266 714Q250 723 244 726Q238 729 205 749ZM624 753Q613 746 586 711Q559 676 546 643Q594 648 642 637Q690 627 732.5 609.5Q775 592 810 571Q845 549 868 530L923 564Q913 589 898 633Q883 677 818 747L724 693Q699 707 678.5 722Q658 737 624 753ZM620 863Q568 881 513 878.5Q458 876 404 866L405 755Q376 744 351 728.5Q326 713 305 695Q314 651 329 624.5Q344 598 359 573Q381 611 407 644Q433 677 465.5 705Q498 733 536 756Q575 779 621 796L620 863ZM255 5Q128 79 64 199Q0 319 0 448Q0 577 64 697Q128 817 255 891Q383 965 519 960Q655 955 767.5 890.5Q880 826 952 711Q1024 595 1024 448Q1024 301 952 185Q880 70 767.5 5.5Q655 -59 519 -64Q383 -69 255 5Z" fill="#6a9fb5" />
  </g>
</svg>