<?xml version="1.0" encoding="UTF-8"?>
<svg width="16" height="16" viewBox="0 0 16 16" xmlns="http://www.w3.org/2000/svg">
  <g transform="translate(1.1600000000000001, 13.7) scale(0.00890625, -0.00890625)">
    <path d="M896 160L896 352Q896 366 887 375Q878 384 864 384L672 384Q658 384 649 375Q640 366 640 352L640 160Q640 146 649 137Q658 128 672 128L864 128Q878 128 887 137Q896 146 896 160ZM1152 832Q1152 920 1096.5 995Q1041 1070 958 1111Q875 1152 788 1152Q545 1152 417 939Q402 915 425 897L557 797Q564 791 576 791Q592 791 601 803Q654 871 687 895Q721 919 773 919Q821 919 858.5 893Q896 867 896 834Q896 796 876 773Q856 750 808 728Q745 700 692.5 641.5Q640 583 640 516L640 480Q640 466 649 457Q658 448 672 448L864 448Q878 448 887 457Q896 466 896 480Q896 499 917.5 529.5Q939 560 972 579Q1004 597 1021 607.5Q1038 618 1067 642.5Q1096 667 1111.5 690.5Q1127 714 1139.5 751Q1152 788 1152 832ZM1433 1025.5Q1433 1025.5 1484.5 937.25Q1536 849 1536 640Q1536 431 1433 254.5Q1330 78 1153.5 -25Q977 -128 768 -128Q559 -128 382.5 -25Q206 78 103 254.5Q0 431 0 640Q0 849 103 1025.5Q206 1202 382.5 1305Q559 1408 768 1408Q977 1408 1153.5 1305Q1330 1202 1433 1025.5Z" fill="#46788d" />
  </g>
</svg>