<?xml version="1.0" encoding="UTF-8"?>
<svg width="16" height="16" viewBox="0 0 16 16" xmlns="http://www.w3.org/2000/svg">
  <g transform="translate(-0.49032130111882694, 15.416943359374999) scale(0.016542968749999998, -0.016542968749999998)">
    <path d="M978 351Q1040 450 1021 531Q1002 612 939 672.5Q876 733 787 772Q698 811 619 826Q461 856 314 809Q166 762 81.5 672.5Q-3 583 1 468Q5 353 151 246Q194 215 254.5 193.5Q315 172 384 162L384 59L556 59L556 155Q593 158 630 163Q667 168 702 177Q725 133 742 96Q759 59 759 59L954 59Q954 59 917 121Q880 183 850 234Q890 257 922.5 286Q955 315 978 351ZM556 233L556 296L620 296Q628 296 641 279.5Q654 263 669 237Q641 234 612.5 233Q584 232 556 233ZM684 410L556 410L556 524L684 524Q684 524 705.5 510Q727 496 727 466Q727 437 705.5 423.5Q684 410 684 410ZM825 277Q823 280 821.5 282.5Q820 285 819 286Q808 303 772 314Q736 325 736 325Q736 325 761 329Q786 332 816 348.5Q846 365 870 399Q895 433 894 493Q893 583 826 614.5Q759 646 714 646L384 646L384 264Q364 271 347 279.5Q330 288 315 298Q204 373 201 454Q197 535 262 598Q327 661 440 694Q553 727 674 706Q734 696 803 668Q871 641 919.5 598Q968 555 982 498Q996 441 949 371Q928 341 896 317.5Q864 294 825 277Z" fill="#6a9fb5" />
  </g>
</svg>