<?xml version="1.0" encoding="UTF-8"?>
<svg width="16" height="16" viewBox="0 0 16 16" xmlns="http://www.w3.org/2000/svg">
  <g transform="translate(0.5099999999999998, 14.55375) scale(0.01462890625, -0.01462890625)">
    <path d="M176 65Q135 100 103 142Q70 185 47.5 234Q25 283 12 337Q0 391 0 448Q0 520 19 587Q39 653 74 711Q109 769 158 815Q207 862 266 894Q284 899 304 904.5Q324 910 346 915Q382 924 398.5 908.5Q415 893 423 881Q442 853 460.5 805.5Q479 758 482 697Q483 662 448 588Q413 514 363.5 423.5Q314 333 262 238Q209 142 176 65ZM1024 448Q1024 553 984 646Q944 739 874.5 808Q805 877 711 917Q618 957 512 957Q488 957 464.5 954.5Q441 952 418 948Q463 952 498.5 938Q534 924 561 867Q569 849 585.5 807Q602 765 628 704Q633 693 646 665Q658 637 676.5 597Q695 557 717 507Q740 456 764 401Q797 326 834.5 258Q872 190 897 112Q926 146 950 185Q974 223 990.5 265.5Q1007 308 1015 354Q1024 400 1024 448ZM781 15L757 29Q733 105 708 177Q683 250 657.5 317.5Q632 385 606 448Q580 510 553 566Q539 601 523.5 603Q508 605 494 572Q468 515 439 448Q410 381 380.5 311.5Q351 242 323 173Q296 105 273 46L211 36Q243 13 278 -5Q313 -23 351 -35.5Q389 -48 429 -54Q470 -61 512 -61Q586 -61 654 -41Q722 -21 781 15Z" fill="#c97071" />
  </g>
</svg>