<?xml version="1.0" encoding="UTF-8"?>
<svg width="16" height="16" viewBox="0 0 16 16" xmlns="http://www.w3.org/2000/svg">
  <g transform="translate(2.0322265625, 14.056640625) scale(0.013671875, -0.013671875)">
    <path d="M555 955L0 955L55 867L552 867Q597 867 638.5 849Q680 831 713 798Q745 765 762 723Q779 681 779 635Q779 589 762.5 549Q746 509 714 477Q683 447 642 428Q601 409 554 403L493 403L326 404L374 320L448 320L452 314L452 314L669 -53L671 -55Q678 -62 687 -65.5Q696 -69 707 -69Q726 -69 740 -54.5Q754 -40 754 -20Q754 -12 752 -8Q750 -4 746 0Q745 1 743.5 3Q742 5 740 9L561 314Q623 315 679.5 339Q736 363 780 408Q825 453 849 511.5Q873 570 873 635Q873 701 848 759Q823 818 780 861.5Q737 905 679 930Q621 955 555 955Z" fill="#75b5aa" />
  </g>
</svg>