<?xml version="1.0" encoding="UTF-8"?>
<svg width="16" height="16" viewBox="0 0 16 16" xmlns="http://www.w3.org/2000/svg">
  <g transform="translate(0.5095936414930549, 14.55192138671875) scale(0.01462890625, -0.01462890625)">
    <path d="M671 3L957 288Q992 325 1008 366Q1025 408 1024 450Q1023 492 1006 533Q989 573 957 607L671 893Q638 926 597 943Q555 959 512 959Q469 959 428 943Q386 926 353 893L67 607Q32 570 15 528Q-1 486 0 444Q1 402 18 362Q35 322 67 288L357 -2Q394 -36 438 -51Q481 -65 524 -63Q567 -61 605 -43Q644 -26 671 3ZM684 289Q646 299 608 320Q570 340 535.5 370.5Q501 401 472 440Q443 479 425 526Q476 506 528 511Q581 515 624.5 540Q668 565 698 609Q729 652 736 710L898 548Q918 528 929 502Q940 476 940 448Q940 427 934 407Q928 387 917 370Q910 361 903 352.5Q896 344 888 337Q848 299 794.5 286.5Q741 274 684 289ZM126 548L236 658Q221 608 212 556Q203 505 200.5 454Q198 403 202 353Q205 304 216 258L126 347Q81 394 84 451Q87 508 126 548ZM314 628Q328 533 370 454Q413 375 473 318Q533 261 604 229Q676 197 747 198Q748 198 748 198Q748 198 748 198L612 62Q553 9 496 20Q438 30 392.5 79.5Q347 129 317 207Q288 284 285 365Q280 430 287.5 496.5Q295 563 314 628ZM441 611Q406 632 388 665Q370 698 370 734Q370 770 388 803Q406 836 441 857Q476 877 514 876Q552 874 583 856Q614 838 634 807Q654 775 654 734Q654 693 634 661Q614 629 583 611.5Q552 594 514 592Q476 591 441 611Z" fill="#d28445" />
  </g>
</svg>