<?xml version="1.0" encoding="UTF-8"?>
<svg width="16" height="16" viewBox="0 0 16 16" xmlns="http://www.w3.org/2000/svg">
  <g transform="translate(0.5099999999999998, 14.553410136521464) scale(0.01462890625, -0.01462890625)">
    <path d="M944 511Q931 498 905 477Q879 455 852 434Q825 413 805 398Q785 383 785 383Q819 418 843 463.5Q867 509 884 560Q895 555 909.5 554.5Q924 554 940 554Q926 558 913.5 566Q901 574 891 586Q891 586 891 586Q891 586 891 586Q920 582 945.5 588.5Q971 595 989 611Q967 603 940.5 604Q914 605 900 616Q898 622 924 626.5Q950 631 973 654Q953 644 935.5 641Q918 638 905 644Q906 646 906 647.5Q906 649 907 650Q939 671 965 715Q991 759 996 813Q1015 816 1003 847.5Q991 879 955 862Q933 851 944.5 829.5Q956 808 972 809Q972 809 963.5 764.5Q955 720 887 676Q871 691 847 704.5Q823 718 794 730Q806 739 823.5 739.5Q841 740 867 729Q844 747 823 746Q802 745 781 735Q780 736 779 736.5Q778 737 776 737Q782 760 798 772Q814 784 844 779Q826 786 800.5 778.5Q775 771 747 748Q746 748 745 748.5Q744 749 742 749Q748 760 763.5 781Q779 802 768 828Q772 798 754.5 785Q737 772 705 760Q704 761 703 761Q702 761 701 761Q712 788 704 808.5Q696 829 664 842Q695 824 692 807.5Q689 791 666 776Q668 787 656.5 797.5Q645 808 621 816Q639 805 644 795Q649 785 643 775Q628 778 612.5 780.5Q597 783 582 785Q536 818 493 848Q450 878 452 907Q468 909 476.5 930.5Q485 952 446 951Q397 949 412.5 929Q428 909 428 909Q434 875 460 837.5Q486 800 514 783Q508 772 503 762Q498 752 493 743Q483 744 462.5 759.5Q442 775 420 796Q444 767 460 744.5Q476 722 476 709Q448 719 422 731Q396 743 367 775Q380 748 406.5 721.5Q433 695 455 679Q441 674 426 677Q411 680 385 690Q414 661 428.5 653.5Q443 646 456 651Q445 614 440.5 578.5Q436 543 438 509Q390 599 344 669Q297 740 254 790Q211 840 170 869Q130 898 93 905Q69 902 45 843Q22 785 15.5 707Q9 629 28 551Q47 472 109 429Q98 391 99.5 362Q101 333 121 319Q141 303 204 310Q267 317 272 336Q282 334 289.5 331Q297 328 301 325Q212 241 169 171Q126 100 101.5 50Q77 0 58 -26Q39 -52 0 -46Q62 -54 139 -55Q215 -56 293 -46Q371 -36 443 -13Q515 10 568 51Q597 46 616 55Q635 64 652 81Q685 57 744 54.5Q803 52 826 82Q831 85 834.5 120.5Q838 156 838 182Q870 199 900 240Q931 282 957 336.5Q983 391 1001 453Q1018 515 1024 574Q1008 597 983.5 562Q959 527 944 511Z" fill="#f4bf75" />
  </g>
</svg>