<?xml version="1.0" encoding="UTF-8"?>
<svg width="16" height="16" viewBox="0 0 16 16" xmlns="http://www.w3.org/2000/svg">
  <g transform="translate(0.5099999999999998, 14.55375) scale(0.01462890625, -0.01462890625)">
    <path d="M676 793Q676 849 571 878Q465 906 338 906Q211 906 106 878Q0 849 0 793L0 680Q3 651 37 629Q71 607 124.5 592.5Q178 578 245 572Q313 566 383 568L383 640L676 640L676 793ZM12 595Q36 571 75 554Q115 537 164 527Q213 517 269 514Q326 510 383 512L383 343Q320 339 252 345Q185 351 129.5 365.5Q74 380 38 403Q2 425 0 454L0 567Q0 575 3.5 582Q7 589 12 595ZM0 229L0 342Q0 349 3.5 356Q7 363 12 370Q35 343 77 326Q120 309 171.5 299.5Q223 290 279 288Q334 285 383 287L383 117Q329 115 264 119Q199 124 141.5 137Q84 150 44 173Q4 195 0 229ZM741 358L606 358L606 479L741 479Q741 479 763 464Q785 449 785 418Q785 387 763 372.5Q741 358 741 358ZM725 178Q749 131 784 60.5Q819 -10 819 -10L1024 -10L882 229Q870 247 832.5 258.5Q795 270 795 270Q795 270 822 273Q848 277 879 294.5Q910 312 936 347Q962 383 961 446Q960 541 889.5 574Q819 607 772 607L425 607L425 -10L606 -10L606 239L673 239Q682 239 695.5 221.5Q709 204 725 178ZM225 745Q113 761 113 793Q113 825 225 841Q281 849 341 849Q401 848 450.5 841Q500 834 532 822Q564 809 564 793Q564 777 532 764Q500 752 450.5 745Q401 738 341 737Q281 737 225 745Z" fill="#f4bf75" />
  </g>
</svg>