<?xml version="1.0" encoding="UTF-8"?>
<svg width="16" height="16" viewBox="0 0 16 16" xmlns="http://www.w3.org/2000/svg">
  <g transform="translate(0.5099999999999998, 14.43671875) scale(0.01462890625, -0.01462890625)">
    <path d="M804 117L804 -13L674 -13ZM427 54L67 54L67 858L536 858L737 657L737 655L804 655L804 724L603 925L0 925L0 -13L494 -13L427 54ZM804 615L364 615L144 395L584 -45L1024 395L804 615ZM254 395L419 560L749 560L914 395L584 65L254 395ZM749 505L584 505L584 120L859 395L749 505Z" fill="#ac4142" />
  </g>
</svg>