<?xml version="1.0" encoding="UTF-8"?>
<svg width="16" height="16" viewBox="0 0 16 16" xmlns="http://www.w3.org/2000/svg">
  <g transform="translate(0.5099999999999998, 14.55375) scale(0.01462890625, -0.01462890625)">
    <path d="M1024 -64L0 -64L0 960L1024 960ZM628 32L938 32L938 108L725 108L725 186L911 186L911 264L725 264L725 341L932 341L932 421L628 421ZM221 30L321 30L321 141L398 141L456 30L570 30L487 160Q540 182 554.5 241.5Q569 301 544 351Q529 382 496 401.5Q463 421 416 422L221 422L221 30ZM413 343Q466 338 464.5 278Q463 218 397 218L321 218L321 343Z" fill="#d28445" />
  </g>
</svg>