<?xml version="1.0" encoding="UTF-8"?>
<svg width="16" height="16" viewBox="0 0 16 16" xmlns="http://www.w3.org/2000/svg">
  <g transform="translate(1.734453125, 14.98425341796875) scale(0.015585937499999999, -0.015585937499999999)">
    <path d="M28 -63Q120 -41 213 -27Q307 -13 400.5 -7Q494 -1 589 -2Q683 -4 778 -12Q789 -13 796.5 -5.5Q804 2 804 11L804 875Q804 883 798.5 889Q793 895 785 897Q690 918 595 933Q499 947 403.5 954Q308 961 212 960Q116 959 21 949Q12 948 6 942Q0 936 0 927L0 -41Q0 -52 8.5 -59Q17 -66 28 -63ZM758 35Q698 41 639 43Q580 45 520.5 44Q461 43 401 38Q342 34 283 27L283 914Q342 913 402 909Q461 905 520.5 897.5Q580 890 639 880Q699 870 758 857L758 35ZM694 762Q651 769 608 776Q565 782 521.5 786.5Q478 791 434 794Q391 796 348 798Q325 801 325.5 821.5Q326 842 349 843Q393 842 437 839Q482 836 526 831.5Q570 827 614 821Q658 814 702 807Q724 801 720 780Q716 759 694 762ZM348 733Q393 732 437 730Q481 728 525.5 724Q570 720 614 714Q658 709 702 702Q724 696 720.5 675.5Q717 655 694 657Q651 664 608 669Q565 675 521.5 678.5Q478 682 435 684Q391 687 348 687Q325 689 325.5 710.5Q326 732 348 733ZM187 797Q164 796 129 793.5Q94 791 94 791Q72 792 71 813Q70 834 92 836Q115 838 138.5 839.5Q162 841 185 842Q208 842 208.5 820Q209 798 187 797ZM187 683Q164 682 129 679Q94 676 94 676Q73 678 71.5 698Q70 718 92 722Q115 724 138 726Q161 728 184 729Q207 729 208 707.5Q209 686 187 683ZM695 552Q652 558 608 563Q565 568 521.5 571Q478 574 435 575Q392 577 348 577Q326 578 325.5 599.5Q325 621 348 622Q392 622 437 621Q481 619 525 616Q569 613 613 608Q657 604 701 597Q723 593 720 571.5Q717 550 695 552ZM695 447Q652 453 609 457Q566 461 522.5 463.5Q479 466 435 466Q392 467 349 466Q326 467 325.5 488.5Q325 510 348 512Q392 513 436 512Q480 511 524.5 508.5Q569 506 613 502Q657 498 701 492Q723 489 720 467Q717 445 695 447ZM695 342Q652 347 609 351Q566 354 522.5 355.5Q479 357 436 357Q392 357 349 356Q326 355 325.5 377.5Q325 400 347 401Q392 403 436 403Q480 403 524.5 401Q569 399 613 396Q657 393 701 388Q723 384 720.5 362.5Q718 341 695 342Z" fill="#7f7f7f" />
  </g>
</svg>