<?xml version="1.0" encoding="UTF-8"?>
<svg width="16" height="16" viewBox="0 0 16 16" xmlns="http://www.w3.org/2000/svg">
  <g transform="translate(0.5099999999999998, 14.55375) scale(0.01462890625, -0.01462890625)">
    <path d="M469 183L469 91L248 219L248 475L327 429Q306 347 344 276.5Q382 206 469 183ZM747 572L747 828L525 955L525 700ZM499 700L499 955L277 828L277 572ZM803 475L803 219L1024 91L1024 347L803 475ZM554 183L554 91L776 219L776 475L697 429Q720 346 681.5 277.5Q643 209 554 183ZM221 219L221 475L0 347L0 91ZM654 503L733 549L512 677L291 549L370 503Q399 534 435 549Q472 565 510 565Q548 565 585 550Q623 535 654 503ZM13 68L235 -59L456 68L235 196L13 68ZM568 68L789 -59L1011 68L789 196ZM655 372Q655 413 635 445Q615 477 583.5 495Q552 513 514 515Q476 516 440 496Q405 475 387 441Q369 408 369 372Q369 336 387 302Q405 269 440 248Q476 227 514 229Q552 230 583.5 248Q615 266 635 298Q655 331 655 372Z" fill="#a35f27" />
  </g>
</svg>