<?xml version="1.0" encoding="UTF-8"?>
<svg width="16" height="16" viewBox="0 0 16 16" xmlns="http://www.w3.org/2000/svg">
  <g transform="translate(0.5094680397727274, 14.554057976973684) scale(0.01462890625, -0.01462890625)">
    <path d="M601 450Q601 503 555.5 529.5Q510 556 465 529Q420 503 420 450.5Q420 398 465 371Q510 345 555.5 371.5Q601 398 601 450ZM809 619Q832 726 820 796Q808 865 768 889.5Q728 914 662 890Q597 866 512 788Q433 863 368 888Q302 914 260 892.5Q218 871 204 802Q190 734 214 620Q103 586 51 541Q-2 495 0 447Q2 399 57 354Q112 309 217 277Q193 172 202 103Q212 33 250.5 7.5Q289 -18 356 4Q422 27 512 106Q600 28 666 5Q731 -18 770.5 7.5Q810 33 820 103Q830 172 806 278Q920 317 973 363Q1026 408 1024 454Q1022 500 967 543Q912 586 809 619ZM769 630Q733 638 698 643.5Q663 649 628 652Q609 679 587.5 706Q566 733 541 758Q676 888 744.5 851.5Q813 815 769 630ZM303 395Q317 366 333 340.5Q349 315 362 293Q341 295 317.5 298.5Q294 302 270 306Q277 328 285.5 350.5Q294 373 303 395ZM301 498Q291 522 282 544.5Q273 567 266 589Q291 594 315.5 598.5Q340 603 362 604Q346 579 330.5 552.5Q315 526 301 498ZM326 446Q348 490 371.5 531.5Q395 573 421 610Q467 613 512.5 612.5Q558 612 603 609Q628 574 651.5 532.5Q675 491 698 446Q681 411 657.5 371Q634 331 606 288Q560 285 513 285Q466 285 417 288Q393 325 370 364.5Q347 404 326 446ZM720 395Q729 374 737 352Q745 330 753 308Q730 304 707 300Q684 296 662 294Q677 318 691.5 343.5Q706 369 720 395ZM662 604Q686 601 710 596.5Q734 592 757 587Q749 565 740 542.5Q731 520 722 498Q708 526 693 552.5Q678 579 662 604ZM569 657Q541 658 512.5 658Q484 658 455 657Q467 674 481.5 691.5Q496 709 511 727Q526 711 540.5 693.5Q555 676 569 657ZM482 758Q458 733 436 707Q414 681 396 654Q361 650 325.5 644.5Q290 639 254 631Q212 819 279.5 853.5Q347 888 482 758ZM227 317Q40 373 44 450Q48 527 225 579Q236 546 249 513Q262 480 277 448Q262 415 249.5 381.5Q237 348 227 317ZM259 266Q291 259 324.5 254.5Q358 250 393 246Q415 216 437 188.5Q459 161 482 137Q345 5 278.5 45Q212 85 259 266ZM511 167Q495 183 479.5 202.5Q464 222 450 242Q482 242 513 242Q544 242 574 242Q559 222 543.5 203Q528 184 511 167ZM541 137Q566 164 588.5 191.5Q611 219 630 247Q663 250 697 255Q731 260 765 268Q812 74 741.5 43.5Q671 13 541 137ZM795 319Q785 350 773 382.5Q761 415 747 448Q762 480 774.5 512.5Q787 545 797 578Q970 526 976.5 451.5Q983 377 795 319Z" fill="#6a9fb5" />
  </g>
</svg>