<?xml version="1.0" encoding="UTF-8"?>
<svg width="16" height="16" viewBox="0 0 16 16" xmlns="http://www.w3.org/2000/svg">
  <g transform="translate(1.489999999999999, 13.696250000000001) scale(0.012714843750000001, -0.012714843750000001)">
    <path d="M1016 448Q1016 342 976 249Q937 155 868.5 85.5Q800 16 708 -24Q616 -64 512 -64Q408 -64 316 -24Q224 16 155.5 85.5Q87 155 48 249Q8 342 8 448Q8 554 48 647Q87 741 155.5 810.5Q224 880 316 920Q408 960 512 960Q616 960 708 920Q800 880 868.5 810.5Q937 741 976 647Q1016 554 1016 448ZM498 726Q441 726 391 705Q341 683 304 646.5Q267 610 245 561Q224 511 224 455Q224 399 245 350Q267 301 304 264Q341 227 391 206Q441 185 498 185Q555 185 605 206Q655 227 692 264Q729 301 751 350Q772 399 772 455Q772 511 751 561Q729 610 692 646.5Q655 683 605 705Q555 726 498 726ZM498 566Q452 566 419 533.5Q386 501 386 455Q386 409 419 377Q452 345 498 345Q544 345 577 377Q610 409 610 455Q610 501 577 533.5Q544 566 498 566Z" fill="#46788d" />
  </g>
</svg>