<?xml version="1.0" encoding="UTF-8"?>
<svg width="16" height="16" viewBox="0 0 16 16" xmlns="http://www.w3.org/2000/svg">
  <g transform="translate(0.5108892952127659, 13.708988715277778) scale(0.008359375, -0.008359375)">
    <path d="M836 367L821 -1L819 -23L399 6Q363 9 332 37.5Q301 66 285 103Q274 130 270.5 158Q267 186 274.5 223Q282 260 286.5 278Q291 296 308 342Q325 388 327 395Q405 383 836 367ZM449 953L629 574L482 666Q419 594 370.5 521.5Q322 449 298 396.5Q274 344 258.5 302Q243 260 240 239L236 218L46 575Q29 601 28 631Q27 661 34 678L42 696Q77 759 156 884L16 970ZM1680 436L1492 77Q1480 48 1455.5 30.5Q1431 13 1412 10L1394 6Q1323 -1 1175 -6L1183 -170L953 197L1164 559L1171 386Q1341 370 1454 381Q1567 392 1624 414ZM895 1360Q848 1297 630 925L313 1112L294 1124L519 1480Q539 1511 579 1525Q619 1539 659 1535Q683 1533 707.5 1523Q732 1513 749.5 1502Q767 1491 791 1469Q815 1447 827 1434.5Q839 1422 863 1395Q887 1368 895 1360ZM1550 1053L1762 690Q1780 653 1774.5 614Q1769 575 1747 540Q1734 520 1714 503Q1694 486 1676 475Q1658 464 1627.5 453Q1597 442 1580.5 437Q1564 432 1529 423Q1494 414 1483 411Q1449 483 1218 847L1531 1042ZM1407 1279L1549 1362L1329 989L910 1009L1061 1095Q1027 1184 986 1261Q945 1338 910.5 1384.5Q876 1431 846 1464.5Q816 1498 799 1511L782 1524L1187 1523Q1218 1526 1245 1512.5Q1272 1499 1284 1484L1295 1469Q1334 1408 1407 1279Z" fill="#66783e" />
  </g>
</svg>