<?xml version="1.0" encoding="UTF-8"?>
<svg width="16" height="16" viewBox="0 0 16 16" xmlns="http://www.w3.org/2000/svg">
  <g transform="translate(1, 14.126708984375) scale(0.013671875, -0.013671875)">
    <path d="M625 158Q627 156 629 150Q631 144 626 135Q624 131 621 127.5Q618 124 614 121Q609 116 598.5 113.5Q588 111 573 121Q566 126 562.5 127.5Q559 129 548 128Q540 127 537.5 133Q535 139 537 145Q540 152 550.5 155Q561 158 575 150Q581 146 590.5 141Q600 136 608 144Q612 146 614.5 149Q617 152 622 158Q623 158 623.5 158Q624 158 625 158ZM571 720Q577 718 584.5 717Q592 716 600 716Q625 715 642.5 723Q660 731 660 742Q660 755 643 763Q626 771 604 771Q586 772 566 768Q546 764 533 758Q532 757 532.5 756Q533 755 534 755Q537 755 539 755.5Q541 756 544 756Q568 758 585.5 754.5Q603 751 604 744Q605 739 595.5 733.5Q586 728 571 724Q569 724 569 722Q569 720 571 720ZM459 690Q440 690 426 688.5Q412 687 401 686Q389 686 380.5 692.5Q372 699 368 704Q364 709 355 710Q346 711 340 697Q334 683 342 670.5Q350 658 360 656Q360 656 372 639Q384 622 396 635Q404 643 416 648.5Q428 654 472 657Q493 658 498 662.5Q503 667 502 672Q502 679 490 684.5Q478 690 459 690ZM148 246Q162 253 179.5 250Q197 247 206 231Q212 221 217.5 215Q223 209 229 205Q235 202 242.5 199.5Q250 197 261 197Q266 197 272 199Q278 201 280 206Q282 212 279.5 216.5Q277 221 270 224Q259 229 254.5 235.5Q250 242 245 252Q239 261 230 269.5Q221 278 219 296Q217 314 231 331Q245 348 273 341Q293 336 306 317Q319 298 324 289Q343 269 351 286Q359 303 375 283Q380 275 410 243Q440 211 478 210Q516 209 538.5 215Q561 221 577 221Q589 220 596 216Q603 212 609 211Q621 209 630.5 215.5Q640 222 653 222Q663 221 674.5 216.5Q686 212 698 212Q709 212 727.5 220Q746 228 745 223Q745 212 739 197Q733 182 732 174Q730 168 730 155.5Q730 143 727 132Q724 121 715.5 108.5Q707 96 705 92Q695 78 687.5 70Q680 62 673 48Q664 31 652.5 17.5Q641 4 638 -1Q633 -8 655 -3Q677 2 688 13Q697 22 714 42.5Q731 63 757 69Q791 78 783.5 86Q776 94 787 102Q817 114 857.5 117Q898 120 942 111Q981 171 1002.5 241.5Q1024 312 1024 389Q1024 495 984 588Q944 681 874.5 750.5Q805 820 711 860Q618 901 512 901Q406 901 313 860Q219 820 149.5 750.5Q80 681 40 588Q0 495 0 389Q0 346 7 305Q14 264 27 225Q63 225 90 227.5Q117 230 148 246ZM752 475Q751 472 752 470Q753 468 757 470Q781 482 789 497Q797 512 801 525Q866 510 901.5 477.5Q937 445 928 399Q919 348 876 315Q834 282 770 267Q706 252 628 256Q549 260 469 284Q342 322 250 378Q159 433 123.5 483Q88 533 121 566Q153 599 273 591Q263 571 269.5 547Q276 523 320 496Q374 465 447.5 443Q521 421 546 423Q555 424 561 428.5Q567 433 558 438Q550 444 543 455.5Q536 467 531 486Q529 497 517 510.5Q505 524 447 535Q323 559 306 589.5Q289 620 292 640Q292 640 300.5 676Q309 712 313 730Q318 747 340 773.5Q362 800 442 782Q488 772 514.5 779.5Q541 787 554 790Q588 799 623 792.5Q658 786 679 765Q701 742 727 683.5Q753 625 768 573Q778 536 772.5 517.5Q767 499 752 475Z" fill="#be2f31" />
  </g>
</svg>