<?xml version="1.0" encoding="UTF-8"?>
<svg width="16" height="16" viewBox="0 0 16 16" xmlns="http://www.w3.org/2000/svg">
  <g transform="translate(-0.46999999999999886, 15.407114257812498) scale(0.016542968749999998, -0.016542968749999998)">
    <path d="M512 37Q512 37 492 57Q472 78 448.5 102Q425 126 405 146Q385 166 385 166L777 305Q777 305 735 263Q694 221 644.5 171Q595 121 553 79Q512 37 512 37ZM575 315L529 446Q525 458 513.5 463.5Q502 469 490 465L194 359L349 203L556 276Q568 281 573.5 292.5Q579 304 575 315ZM878 736L709 806L719 689Q721 668 708 652.5Q695 637 674 635L450 616Q430 614 414 627Q398 640 396 661L381 834L146 736L0 555L155 399L827 634Q844 641 861 633Q878 625 884 607L935 465L1024 555L878 736ZM614 842Q614 851 605.5 856Q597 861 588 856Q580 852 580 842Q580 832 588 827Q597 822 605.5 827Q614 832 614 842ZM485 819Q476 824 476 834Q476 844 485 849Q493 854 501.5 849Q510 844 510 834Q510 824 501.5 819.5Q493 815 485 819ZM652 675Q643 680 643 690Q643 700 652 705Q660 710 668.5 705Q677 700 677 690Q677 680 668.5 675Q660 670 652 675ZM549 668Q540 673 540 682.5Q540 692 549 697Q557 702 565.5 697Q574 692 574 682Q574 673 565.5 668Q557 663 549 668ZM446 661Q437 666 437 675.5Q437 685 446 690Q454 695 462.5 690Q471 685 471 675Q471 666 462.5 661Q454 656 446 661ZM643 779Q634 784 634 794Q634 804 643 808Q651 813 659.5 808Q668 803 668 794Q668 784 659.5 779Q651 774 643 779ZM539 771Q531 776 531 786Q531 796 539 801Q548 806 556.5 801Q565 796 565 786Q565 776 556.5 771.5Q548 767 539 771ZM436 764Q428 769 428 779Q428 789 436 794Q445 799 453.5 794Q462 789 462 779Q462 769 453.5 764.5Q445 760 436 764ZM596 724Q588 729 588 739Q588 749 596 753Q605 758 613.5 753Q622 748 622 739Q622 729 613.5 724Q605 719 596 724ZM493 716Q484 721 484 731Q484 741 493 746Q501 751 509.5 746Q518 741 518 731Q518 721 509.5 716.5Q501 712 493 716ZM571 467Q563 472 563 482Q563 492 571 497Q580 502 588.5 497Q597 492 597 482Q597 472 588.5 467.5Q580 463 571 467ZM682 506Q673 511 673 521Q673 531 682 535Q690 540 698.5 535.5Q707 531 707 521Q707 511 698.5 506Q690 501 682 506ZM792 545Q783 550 783 560Q783 570 792 575Q800 580 808.5 575Q817 570 817 560Q817 550 808.5 545Q800 540 792 545ZM645 431Q637 436 637 446Q637 456 645 461Q654 466 662.5 461Q671 456 671 446Q671 436 662.5 431.5Q654 427 645 431ZM755 470Q747 475 747 485Q747 495 755 499Q764 504 772.5 499Q781 494 781 485Q781 475 772.5 470Q764 465 755 470ZM866 509Q858 514 858 523.5Q858 533 866 538Q875 543 883.5 538Q892 533 892 524Q892 514 883.5 509Q875 504 866 509ZM610 357Q602 362 602 372Q602 382 610 387Q619 392 627.5 387Q636 382 636 372Q636 362 627.5 357.5Q619 353 610 357ZM720 396Q712 401 712 411Q712 421 720 425Q729 430 737.5 425Q746 420 746 411Q746 401 737.5 396Q729 391 720 396ZM831 435Q823 440 823 449.5Q823 459 831 464Q840 469 848.5 464Q857 459 857 450Q857 440 848.5 435Q840 430 831 435ZM684 321Q676 326 676 336Q676 346 684 351Q693 356 701.5 351Q710 346 710 336Q710 326 701.5 321.5Q693 317 684 321ZM794 360Q786 365 786 375Q786 385 794 389Q803 394 811.5 389Q820 384 820 375Q820 365 811.5 360Q803 355 794 360Z" fill="#ac4142" />
  </g>
</svg>