<?xml version="1.0" encoding="UTF-8"?>
<svg width="16" height="16" viewBox="0 0 16 16" xmlns="http://www.w3.org/2000/svg">
  <g transform="translate(0.5081713867187494, 14.55375) scale(0.01462890625, -0.01462890625)">
    <path d="M117 715L117 802L0 802L0 94L117 94L117 533Q119 638 172.5 676Q226 714 338 704L338 810Q257 820 202.5 795.5Q148 771 117 715ZM555 419L1023 419Q1028 508 1013 580Q998 652 962 703.5Q926 755 868 783Q811 812 731 814Q661 814 607 790Q552 766 515 723.5Q478 681 458 622Q439 563 439 493L439 414Q439 338 459 277Q480 216 518.5 172.5Q557 129 612 106Q667 82 736 82Q795 82 842 98Q888 113 923 140.5Q958 168 981 205Q1003 243 1013 287L898 287Q881 237 841 208Q801 179 739 179Q699 179 665 194Q631 209 606.5 239.5Q582 270 569 315Q555 360 555 419ZM907 513L555 513Q555 597 603 657Q651 717 732 717Q811 717 859 657Q907 597 907 513Z" fill="#be2f31" />
  </g>
</svg>