<?xml version="1.0" encoding="UTF-8"?>
<svg width="16" height="16" viewBox="0 0 16 16" xmlns="http://www.w3.org/2000/svg">
  <g transform="translate(-0.46999999999999886, 15.415267578124999) scale(0.016542968749999998, -0.016542968749999998)">
    <path d="M0 604L65 669L130 604L65 539ZM194 798L259 863L324 798L259 733L194 798ZM195 539L130 474L242 362L630 751L454 928L389 863L454 798L389 733L454 668L389 603L259 733L194 668L324 538L260 474L195 539ZM712 337L916 542Q934 560 934 585.5Q934 611 916 629L841 705Q817 726 790 722.5Q763 719 744 696L718 722Q699 740 675.5 739Q652 738 637 722L270 356Q254 340 253 318Q252 296 270 275L355 190Q374 172 397.5 173.5Q421 175 436 190L802 557Q819 573 819 597Q819 621 802 638L775 665Q783 673 791 677.5Q799 682 810 674L885 598Q890 593 890 585.5Q890 578 885 573L681 368Q663 351 662 326Q661 301 681 281L727 234Q712 217 712 194Q712 171 729 154L898 -15Q916 -32 939 -31.5Q962 -31 979 -15L1007 14Q1024 30 1024 54Q1024 78 1007 95L838 264Q822 280 798.5 280.5Q775 281 758 265L712 312Q706 318 706.5 325Q707 332 712 337Z" fill="#75b5aa" />
  </g>
</svg>