<?xml version="1.0" encoding="UTF-8"?>
<svg width="16" height="16" viewBox="0 0 16 16" xmlns="http://www.w3.org/2000/svg">
  <g transform="translate(2.0150000000000006, 12.9875) scale(0.015585937499999999, -0.015585937499999999)">
    <path d="M320 576L256 576L256 512L320 512ZM320 704L256 704L256 640L320 640ZM704 832Q646 832 384 832L64 832Q39 831 20 812Q1 793 0 768L0 0Q1 -25 20 -44Q39 -63 64 -64L192 -64L192 -192L288 -96L384 -192L384 -64L704 -64Q729 -63 748 -44Q767 -25 768 0L768 768Q767 793 748 812Q729 831 704 832ZM704 32Q704 20 694.5 10.5Q685 1 672 0L384 0L384 64L192 64L192 0L96 0Q83 1 73.5 10.5Q64 20 64 32L64 128L704 128ZM704 192L192 192L192 768L705 768ZM320 320L256 320L256 256L320 256ZM320 448L256 448L256 384L320 384Z" fill="#ffffff" />
  </g>
</svg>