<?xml version="1.0" encoding="UTF-8"?>
<svg width="16" height="16" viewBox="0 0 16 16" xmlns="http://www.w3.org/2000/svg">
  <g transform="translate(1.3681835937500004, 14.981449519230768) scale(0.015585937499999999, -0.015585937499999999)">
    <path d="M181 -17L217 -17L183 -50Q178 -56 183.5 -61.5Q189 -67 195 -62L240 -17L257 -17L223 -50Q217 -56 222.5 -61.5Q228 -67 234 -62L279 -17L296 -17L262 -50Q257 -56 262.5 -61.5Q268 -67 273 -62L318 -17L335 -17L302 -50Q296 -56 301.5 -61.5Q307 -67 313 -62L358 -17L575 -17L575 -48L685 -1L575 46L575 15L358 15L313 60Q307 65 301.5 59.5Q296 54 302 49L335 15L318 15L273 60Q268 65 262.5 59.5Q257 54 262 49L296 15L279 15L234 60Q228 65 222.5 59.5Q217 54 223 49L257 15L240 15L195 60Q189 65 183.5 59.5Q178 54 183 49L217 15L181 15Q167 14 165.5 0.5Q164 -13 181 -17ZM212 903Q106 842 53 742Q0 642 0 534.5Q0 427 53 328Q106 228 212 167Q318 105 431 109Q544 113 637.5 167Q731 221 791 317Q851 412 851 535Q851 657 791 753Q731 848 637.5 902Q544 956 431 960Q318 964 212 903ZM263 255Q183 302 143 377Q102 453 102 534.5Q102 616 143 692Q183 768 263 814Q344 861 430 858Q516 855 586.5 814Q657 773 703 700Q748 628 748 535Q748 442 703 369Q657 296 586.5 255.5Q516 215 430 212Q344 209 263 255ZM567 535Q567 494 547 462Q527 430 496 412Q465 394 427 393Q390 392 354 412Q319 432 301 466Q284 499 284 535Q284 571 301 604Q319 637 354 657Q390 678 427 676Q465 675 496 657Q527 639 547 607Q567 576 567 535ZM283 780Q213 739 177 673Q142 606 142 534.5Q142 463 177 397Q213 330 283 289Q354 249 429 251Q505 254 567 290Q629 326 669 389Q709 453 709 535Q709 616 669 680Q629 744 567 780Q505 816 429 818Q354 821 283 780ZM335 378Q289 404 267 446Q244 489 244 535Q244 581 267 623Q289 665 335 692Q380 718 428 716Q476 714 515.5 691Q555 668 581 628Q606 587 606 535Q606 483 581 442Q555 401 515.5 378Q476 355 428 354Q380 352 335 378Z" fill="#6a9fb5" />
  </g>
</svg>