<?xml version="1.0" encoding="UTF-8"?>
<svg width="16" height="16" viewBox="0 0 16 16" xmlns="http://www.w3.org/2000/svg">
  <g transform="translate(0.8616406250000006, 14.9825) scale(0.015585937499999999, -0.015585937499999999)">
    <path d="M403 945L56 745Q30 730 15 704Q0 678 0 648L0 248Q0 218 15 192Q30 166 56 151L403 -49Q429 -64 458 -64Q487 -64 514 -49L861 151Q883 164 897.5 185Q912 206 916 230L916 666Q912 690 897.5 711Q883 732 861 745L514 945Q488 960 459 960Q430 960 403 945ZM480 886L827 686Q837 680 843 670Q849 660 849 648L849 248Q849 236 843 226Q837 216 827 210L480 10Q470 4 458.5 4Q447 4 437 10L90 210Q80 216 74 226Q68 236 68 248L68 648Q68 660 74 670Q80 680 90 686L437 886Q448 892 459 892Q470 892 480 886ZM459 798Q459 798 499 775Q540 752 589 723.5Q638 695 678 672Q719 648 719 648L610 586Q610 586 567 611Q524 636 524 636L545 648L459 698Q459 698 448 692Q437 686 437 686Q437 686 393.5 711Q350 736 350 736L459 798ZM459 498L350 561L437 611Q437 611 448 604.5Q459 598 459 598L480 611Q480 611 523.5 586Q567 561 567 561Q567 561 513 529.5Q459 498 459 498ZM394 636L307 586L199 648L307 711Q307 711 350.5 686Q394 661 394 661L372 648Q372 648 383 642Q394 636 394 636ZM329 348L329 373Q329 373 318 379Q307 385 307 385L307 486L415 423L415 298Q415 298 372 323Q329 348 329 348ZM264 310L264 209L155 273L155 573L264 511Q264 511 264 460.5Q264 410 264 410L242 423L242 323Q242 323 253 316.5Q264 310 264 310ZM415 123L307 185Q307 185 307 235Q307 285 307 285L329 273Q329 273 329 285.5Q329 298 329 298L415 248Q415 248 415 185.5Q415 123 415 123ZM610 385L589 373Q589 373 589 360.5Q589 348 589 348L502 298L502 423L610 486Q610 486 610 435.5Q610 385 610 385ZM676 398L676 423L654 410Q654 410 654 460.5Q654 511 654 511L762 573L762 448Q762 448 719 423Q676 398 676 398ZM589 298L589 273L676 323L676 348L762 398L762 273L502 123L502 248Q502 248 545.5 273Q589 298 589 298Z" fill="#46788d" />
  </g>
</svg>