<?xml version="1.0" encoding="UTF-8"?>
<svg width="16" height="16" viewBox="0 0 16 16" xmlns="http://www.w3.org/2000/svg">
  <g transform="translate(0.020000000000000462, 14.978832720588235) scale(0.015585937499999999, -0.015585937499999999)">
    <path d="M702 959L308 959Q192 961 130 944Q67 927 38.5 888Q10 849 5 786Q0 723 0 632L0 264Q0 68 41 2Q82 -64 288 -64L776 -64Q864 -64 914 -45Q964 -27 988.5 11.5Q1013 50 1018 107Q1024 165 1024 244L1024 632Q1024 729 1018 794Q1011 858 980 896Q949 934 884 948Q819 962 702 959ZM474 243Q474 195 465.5 176.5Q457 158 407 158L335 158Q284 158 275.5 179Q267 200 267 243L267 605Q267 653 281 683.5Q295 714 368 711L474 711L474 243ZM633 480Q572 515 572 585.5Q572 656 633 691Q693 726 754 691Q815 656 815 586Q815 516 754 481Q693 446 633 480Z" fill="#ac4142" />
  </g>
</svg>