<?xml version="1.0" encoding="UTF-8"?>
<svg width="16" height="16" viewBox="0 0 16 16" xmlns="http://www.w3.org/2000/svg">
  <g transform="translate(0.008310546875000713, 14.968946875933392) scale(0.015585937499999999, -0.015585937499999999)">
    <path d="M383 253Q384 239 377 237Q370 235 363 248Q326 316 284 358Q241 401 197 421.5Q153 442 108 443Q63 444 20 430Q-10 431 1.5 481Q13 531 20 550Q27 568 79 560.5Q131 553 163 543Q197 662 173 711.5Q149 761 141 773Q132 784 138 788.5Q144 793 144 793Q144 793 196.5 809Q249 825 279 831Q309 837 319.5 827.5Q330 818 337 791Q349 743 336 692Q323 642 303 600Q283 558 265 531Q246 504 246 504Q246 504 256 491.5Q266 479 290 472Q324 504 346 542Q369 580 382.5 619Q396 658 402 696Q409 734 410 766Q410 766 411.5 779.5Q413 793 432 781Q450 770 498.5 717.5Q547 665 559 583Q563 549 544.5 533.5Q526 518 526 518Q455 468 398 447.5Q341 427 333 421Q369 370 377 318.5Q385 267 383 253ZM411 369Q410 364 412.5 340Q415 316 411 292Q404 275 403.5 263Q403 251 417 240Q424 235 450 220Q477 206 512 184.5Q547 163 585 135Q624 107 654 74Q677 51 686 68.5Q695 86 678 100Q673 105 657.5 120Q642 135 643 142Q643 149 652.5 140.5Q662 132 666 127Q654 153 675 172.5Q696 192 726 155Q738 144 732.5 122.5Q727 101 717 93Q728 105 714 123Q700 141 685 125Q677 117 691 103.5Q705 90 710 85Q715 81 729 92Q743 103 749 113Q754 119 760.5 130.5Q767 142 777 184Q780 194 784.5 200Q789 206 799 216Q804 221 836 249Q867 276 905 313Q943 350 977 387Q1010 425 1018 450Q1027 475 1022.5 482.5Q1018 490 999 472Q989 463 961 441Q933 419 899 395.5Q865 372 831 352Q798 332 778 326Q737 315 726.5 327.5Q716 340 722 345Q726 348 769.5 404.5Q813 461 714 409Q677 396 646 418Q615 440 608 466Q592 517 583.5 527Q575 537 539 506Q520 490 491.5 475Q463 460 450 455Q411 446 399.5 414.5Q388 383 420 378Q451 374 466.5 375Q482 376 473 367Q465 358 457.5 349.5Q450 341 464 333Q479 325 500 310.5Q521 296 523 294Q524 292 533.5 292Q543 292 547 302Q551 311 549 314.5Q547 318 544 320Q541 321 543.5 324Q546 327 552 326Q559 325 570 329.5Q581 334 585 336Q588 339 618 341.5Q648 344 658 330Q646 326 639.5 329.5Q633 333 616 327Q608 324 590.5 317.5Q573 311 562 288Q555 271 546.5 246.5Q538 222 507 232Q476 242 450.5 255Q425 268 430 299Q435 330 431.5 349Q428 368 411 369Z" fill="#6a9fb5" />
  </g>
</svg>