<?xml version="1.0" encoding="UTF-8"?>
<svg width="16" height="16" viewBox="0 0 16 16" xmlns="http://www.w3.org/2000/svg">
  <g transform="translate(1.32921875, 14.556735491071429) scale(0.01462890625, -0.01462890625)">
    <path d="M495 763L638 874L702 842L693 656L495 763ZM374 324L655 619L457 728L374 324ZM848 766L746 819L737 631L906 540ZM718 590L438 321L691 443Q709 398 712 349Q716 300 704.5 252Q693 204 667 160Q641 116 599 81Q528 21 443 9Q359 -2 282.5 25.5Q206 53 148 117Q91 180 75 271Q63 336 77 395Q90 454 121.5 502.5Q153 551 201 586Q248 621 304 637L346 376L406 757L260 840L289 705Q220 686 162 644Q104 601 64.5 542Q25 483 9 411Q-8 338 6 259Q26 148 96 71Q166 -6 259 -40Q352 -74 455 -59Q557 -45 644 28Q695 71 727 124Q759 178 772.5 236Q786 294 781 353Q777 413 756 468L866 510L718 590ZM594 897L470 960L285 878L452 787Z" fill="#aa759f" />
  </g>
</svg>