<?xml version="1.0" encoding="UTF-8"?>
<svg width="16" height="16" viewBox="0 0 16 16" xmlns="http://www.w3.org/2000/svg">
  <g transform="translate(0.5099999999999998, 14.552420099431819) scale(0.01462890625, -0.01462890625)">
    <path d="M0 928Q0 934 4.5 938.5Q9 943 15 943L695 943Q763 943 823 917Q883 891 927.5 846.5Q972 802 998 741Q1024 681 1024 613L1024 555Q1024 548 1019.5 543.5Q1015 539 1009 539L820 539Q813 539 809 543.5Q805 548 805 555L805 613Q805 658 772.5 690.5Q740 723 695 723L235 723Q228 723 223.5 718.5Q219 714 219 708L219 -32Q219 -39 215 -43.5Q211 -48 204 -47Q161 -44 124 -26Q87 -8 59.5 22Q32 52 16 90Q0 129 0 173L0 928ZM417 503Q411 503 406.5 498.5Q402 494 403 488Q406 445 424 407Q442 370 471.5 342Q501 314 540 299Q578 283 622 283L768 283Q783 283 794 272Q805 261 805 246L805 -32Q805 -39 809 -43.5Q813 -48 820 -47Q863 -44 900 -26Q937 -8 964.5 22Q992 52 1008 90Q1024 129 1024 173L1024 246Q1024 299 1004 346Q984 393 949 427.5Q914 462 868 483Q821 503 768 503L417 503Z" fill="#ac4142" />
  </g>
</svg>