<?xml version="1.0" encoding="UTF-8"?>
<svg width="16" height="16" viewBox="0 0 16 16" xmlns="http://www.w3.org/2000/svg">
  <g transform="translate(-0.46999999999999886, 15.416492490096829) scale(0.016542968749999998, -0.016542968749999998)">
    <path d="M442 337Q407 343 373.5 345.5Q340 348 310 349Q341 341 371 332Q401 323 431 312Q419 284 410 256.5Q401 229 395 203Q347 187 289 177Q231 167 157 167Q128 133 106.5 98Q85 63 63 21L0 -7Q12 14 44 68Q76 122 124 188Q183 280 247 363Q312 446 381 520Q450 594 522 661Q594 728 668 788Q587 739 513 677Q438 615 368.5 542Q299 469 234 386Q170 302 109 210Q135 359 213 494Q291 630 400 728.5Q509 827 638 877Q767 928 893 908Q884 873 876 841.5Q868 810 857 775Q814 777 757 763Q700 749 700 749Q748 752 785.5 751.5Q823 751 848 746Q845 737 841.5 727Q838 717 835 707Q787 705 737 682Q686 659 635.5 613.5Q585 568 535 499Q486 431 442 337ZM480 -17Q484 54 499 129Q515 204 539.5 278.5Q564 353 598 425Q632 496 674 559Q747 601 807 600Q867 599 897 569.5Q927 540 919 490Q910 439 846 381Q821 360 785 338Q750 316 709 297Q668 278 626 265Q584 252 546 249Q592 151 659 90Q727 29 796.5 6.5Q866 -16 928 0Q990 16 1024 73Q975 59 921 63Q867 67 814 86Q761 105 711 139Q661 173 619 220Q685 231 742.5 251Q800 271 852 301Q970 374 993 462Q1015 551 975.5 610Q936 669 849 676Q763 683 661 593Q595 537 535 444Q476 352 443.5 258Q411 164 415 86Q419 9 480 -17Z" fill="#ac4142" />
  </g>
</svg>