<?xml version="1.0" encoding="UTF-8"?>
<svg width="16" height="16" viewBox="0 0 16 16" xmlns="http://www.w3.org/2000/svg">
  <g transform="translate(0.5099999999999998, 14.5539476879223) scale(0.01462890625, -0.01462890625)">
    <path d="M1024 338L1024 485Q1019 543 980 551.5Q941 560 878 558L878 265Q979 255 1000 284Q1021 313 1024 338ZM146 265L146 558Q83 560 44 551.5Q5 543 0 485L0 338Q3 313 24 284Q45 255 146 265ZM37 82L987 82L987 -64L37 -64L37 82ZM657 814Q648 885 606 922Q563 959 513.5 960Q464 961 421 925Q378 889 367 814ZM43 894Q58 922 89.5 923.5Q121 925 138 898Q152 875 142.5 850.5Q133 826 110 817L110 594L73 594L73 817Q51 825 41 848Q31 871 43 894ZM695 503Q695 471 667.5 455.5Q640 440 613 455Q585 471 585 503Q585 535 613 550Q640 566 667.5 550Q695 534 695 503ZM357 455Q384 440 411.5 455.5Q439 471 439 503Q439 534 411.5 550Q384 566 357 550Q329 535 329 503Q329 471 357 455ZM841 631L841 119L183 119L183 631Q183 692 226 734.5Q269 777 329 777L695 777Q755 777 798 734.5Q841 692 841 631ZM338 424Q384 398 429.5 424Q475 450 475 503Q475 556 429.5 582Q384 608 338 582Q293 556 293 503Q293 450 338 424ZM695 302L329 302L329 229L695 229ZM731 503Q731 556 685.5 582Q640 608 594 582Q549 556 549 503Q549 450 594 424Q640 398 685.5 424Q731 450 731 503Z" fill="#4d9085" />
  </g>
</svg>