<?xml version="1.0" encoding="UTF-8"?>
<svg width="16" height="16" viewBox="0 0 16 16" xmlns="http://www.w3.org/2000/svg">
  <g transform="translate(0.5099999999999998, 14.55375) scale(0.01462890625, -0.01462890625)">
    <path d="M760 227L271 227Q219 227 219 280Q219 333 271 333L760 333Q813 333 813 280Q813 227 760 227ZM779 563L657 480Q614 451 584.5 494.5Q555 538 598 567L721 650Q764 679 793.5 635.5Q823 592 779 563ZM919 170Q919 162 916 155.5Q913 149 908 143L817 53Q812 47 805 44Q798 41 790 41L234 41Q226 41 219 44Q212 47 207 53L116 143Q111 149 108 155.5Q105 162 105 170L105 726Q105 734 108 740.5Q111 747 116 753L207 843Q212 849 219 851.5Q226 854 234 854L790 854Q798 854 805 851.5Q812 849 817 843L908 753Q913 747 916 740.5Q919 734 919 726ZM996 813L877 932Q864 945 846.5 952.5Q829 960 810 960L214 960Q195 960 177.5 952.5Q160 945 146 932L28 813Q15 800 7.5 782.5Q0 765 0 746L0 150Q0 131 7.5 113.5Q15 96 28 83L147 -36Q160 -49 177.5 -56.5Q195 -64 214 -64L810 -64Q829 -64 846.5 -56.5Q864 -49 877 -36L996 83Q1009 96 1016.5 113.5Q1024 131 1024 150L1024 746Q1024 765 1016.5 782.5Q1009 800 996 813ZM502 524Q502 471 449 471Q396 471 396 524Q396 564 356.5 564Q317 564 317 524Q317 471 264 471Q211 471 211 524Q215 596 260 632Q305 668 357.5 668Q410 668 454 632Q498 596 502 524Z" fill="#75b5aa" />
  </g>
</svg>