<?xml version="1.0" encoding="UTF-8"?>
<svg width="16" height="16" viewBox="0 0 16 16" xmlns="http://www.w3.org/2000/svg">
  <g transform="translate(-0.006189485143440879, 14.981555397727274) scale(0.015585937499999999, -0.015585937499999999)">
    <path d="M645 669L782 528L747 465L509 166L270 458L235 528L372 669L645 669ZM601 888L549 820Q642 811 714 763Q786 716 829.5 645.5Q873 575 884 491Q895 406 866 323L906 244L985 250Q1034 366 1022 486Q1011 606 952 706.5Q893 807 791 876Q690 944 559 956L601 888ZM35 263Q-14 389 5 515Q24 641 94 741.5Q164 842 277 902Q390 963 528 958L569 890L518 822Q417 824 335 778Q253 731 202.5 656.5Q152 582 140 489Q128 395 167 302L81 325L35 263ZM973 223L890 217L853 291Q813 198 726 140Q640 82 540.5 73.5Q441 65 343 111Q245 157 181 272L92 295L47 235Q125 74 257 3Q389 -68 527.5 -62.5Q666 -57 789 17Q912 92 973 223Z" fill="#ac4142" />
  </g>
</svg>