<?xml version="1.0" encoding="UTF-8"?>
<svg width="16" height="16" viewBox="0 0 16 16" xmlns="http://www.w3.org/2000/svg">
  <g transform="translate(1.1600000000000001, 13.7) scale(0.00890625, -0.00890625)">
    <path d="M474.5 165.5Q474.5 165.5 493.25 184.25Q512 203 512 256Q512 309 474.5 346.5Q437 384 384 384Q331 384 293.5 346.5Q256 309 256 256Q256 203 293.5 165.5Q331 128 384 128Q437 128 474.5 165.5ZM863 162Q850 395 686.5 558.5Q523 722 290 735Q276 736 266 726Q256 716 256 703L256 575Q256 562 264.5 553Q273 544 286 543Q440 532 550 422Q660 312 671 158Q672 145 681 136.5Q690 128 703 128L831 128Q844 128 854 138Q864 148 863 162ZM1247 161Q1242 315 1191 458.5Q1140 602 1051.5 718.5Q963 835 846.5 923.5Q730 1012 586.5 1063Q443 1114 289 1119Q275 1120 266 1110Q256 1100 256 1087L256 959Q256 946 265 937Q274 928 287 927Q491 920 665 815.5Q839 711 943.5 537Q1048 363 1055 159Q1056 146 1065 137Q1074 128 1087 128L1215 128Q1228 128 1238 138Q1249 147 1247 161ZM1536 1120L1536 160Q1536 41 1451.5 -43.5Q1367 -128 1248 -128L288 -128Q169 -128 84.5 -43.5Q0 41 0 160L0 1120Q0 1239 84.5 1323.5Q169 1408 288 1408L1248 1408Q1367 1408 1451.5 1323.5Q1536 1239 1536 1120Z" fill="#d28445" />
  </g>
</svg>