<?xml version="1.0" encoding="UTF-8"?>
<svg width="16" height="16" viewBox="0 0 16 16" xmlns="http://www.w3.org/2000/svg">
  <g transform="translate(0.5099999999999998, 14.556064700356012) scale(0.01462890625, -0.01462890625)">
    <path d="M255 5Q383 -69 519 -64Q655 -59 767.5 5.5Q880 70 952 185Q1024 301 1024 448Q1024 595 952 711Q880 826 767.5 890.5Q655 955 519 960Q383 965 255 891Q128 817 64 697Q0 577 0 448Q0 319 64 199Q128 79 255 5ZM292 754Q403 748 466 757.5Q529 767 597 743Q655 722 680 680Q705 638 700.5 593Q696 548 666 510Q636 472 584 459Q581 457 581.5 455Q582 453 584 451L723 252L788 252L788 195L678 195L507 446L430 446L430 252L504 252L504 195L287 195L287 252L363 252L363 688Q348 690 330 691Q312 692 292 696ZM430 687Q464 687 498 690Q532 693 562 685Q596 675 613 652.5Q630 630 630 605Q630 572 614 548Q598 524 559 513Q517 502 473.5 503Q430 504 430 504Z" fill="#9dc0ce" />
  </g>
</svg>