<?xml version="1.0" encoding="UTF-8"?>
<svg width="16" height="16" viewBox="0 0 16 16" xmlns="http://www.w3.org/2000/svg">
  <g transform="translate(0.020000000000000462, 14.9825) scale(0.015585937499999999, -0.015585937499999999)">
    <path d="M284 472Q280 476 272.5 478Q265 480 255 480L193 480L193 408L255 408Q265 408 272.5 410Q280 412 284 417Q289 421 291.5 428Q294 435 294 445Q294 454 291.5 461Q289 468 284 472ZM0 768L0 128L1024 128L1024 768ZM302 267Q299 273 297.5 280.5Q296 288 296 296Q295 305 294.5 313Q294 321 293 329Q291 339 288 346.5Q285 354 280 358Q276 363 268 365.5Q260 368 250 368L193 368L193 267L137 267L137 524L275 524Q284 524 292 522.5Q300 521 307 519Q313 516 319 512Q325 508 330 503Q335 499 339 493Q343 487 345 481Q348 474 349.5 467.5Q351 461 351 453Q351 442 348.5 432Q346 422 341 414Q336 406 328.5 399.5Q321 393 310 389L310 388Q315 387 319.5 384.5Q324 382 327 379Q331 376 333.5 372.5Q336 369 338 365Q341 361 342.5 356.5Q344 352 345 348Q346 343 346.5 338Q347 333 347 328Q348 325 348 321.5Q348 318 348 314Q348 310 348.5 305.5Q349 301 349 297Q350 292 350.5 288Q351 284 352 280Q353 276 354.5 273Q356 270 358 267L302 267ZM671 327Q666 317 659 308Q652 299 643 291Q634 284 622.5 278Q611 272 597 268Q583 264 567.5 261.5Q552 259 534 259Q519 259 505 261Q491 263 477 266Q464 270 451.5 275.5Q439 281 429 289Q418 297 410 306.5Q402 316 396 328Q389 340 386 354Q383 368 384 384L459 384Q459 375 460.5 367.5Q462 360 465 354Q468 348 472.5 343Q477 338 482 334Q487 330 493.5 327.5Q500 325 507 323Q514 321 521.5 320Q529 319 537 319Q542 319 547.5 319.5Q553 320 559 321Q565 322 570.5 323.5Q576 325 581 327Q586 330 590.5 333.5Q595 337 598 341Q602 345 603.5 350.5Q605 356 605 363Q605 370 603 376Q601 382 596 386Q592 391 586 394.5Q580 398 572 401Q565 404 556.5 406.5Q548 409 539 411Q529 414 519.5 416Q510 418 501 421Q491 424 481.5 427Q472 430 462 433Q453 437 444.5 441.5Q436 446 429 452Q421 457 415 464.5Q409 472 405 480Q400 489 398 499Q396 509 396 521Q396 535 398.5 547Q401 559 407 568Q413 578 420.5 586.5Q428 595 437 602Q447 608 457.5 613Q468 618 480 622Q492 625 503.5 626.5Q515 628 527 628Q541 628 554.5 626.5Q568 625 580 622Q593 619 604.5 614Q616 609 625 602Q635 595 643 586Q651 577 657 567Q663 556 665.5 543Q668 530 668 514L593 514Q593 522 591.5 528.5Q590 535 587 541Q584 546 580 550Q576 554 572 557Q567 560 561.5 562Q556 564 550 565Q544 567 537.5 567.5Q531 568 524 568Q519 568 514.5 567.5Q510 567 505 566Q500 565 496 563Q492 561 488 559Q484 556 481 553Q478 550 475 547Q473 543 472 538Q471 533 471 528Q471 523 472 518.5Q473 514 474 511Q476 508 480 505Q484 502 490 499Q496 496 504 493.5Q512 491 522 488Q532 486 545.5 482.5Q559 479 576 474Q581 474 587.5 472Q594 470 603 467Q612 465 620.5 460.5Q629 456 638 451Q646 445 653.5 437.5Q661 430 668 420Q674 411 677 399Q680 387 680 372Q680 360 678 348.5Q676 337 671 327ZM907 477L830 477L830 267L774 267L774 477L697 477L697 524L907 524Z" fill="#46788d" />
  </g>
</svg>