<?xml version="1.0" encoding="UTF-8"?>
<svg width="16" height="16" viewBox="0 0 16 16" xmlns="http://www.w3.org/2000/svg">
  <g transform="translate(-0.46999999999999886, 15.411249999999999) scale(0.016542968749999998, -0.016542968749999998)">
    <path d="M819 607L819 697L0 697L0 289L205 289L205 199L1024 199L1024 607ZM187 524Q175 520 168 502.5Q161 485 161 459L161 356L119 347L119 510Q119 529 113.5 536Q108 543 93 545L93 553L160 553L160 522Q165 532 169.5 540Q174 548 187 553Q194 556 207 555.5Q220 555 230 548L213 514Q206 521 199.5 523.5Q193 526 187 524ZM270 493Q270 493 284 483.5Q298 474 325 461Q352 448 352 425Q352 402 352 402Q343 374 303 358.5Q263 343 223 379L257 403Q257 403 287.5 386Q318 369 320 399Q321 424 288.5 432Q256 440 240 468Q232 480 233.5 499Q235 518 250 535Q257 544 265.5 550.5Q274 557 285 558Q324 563 341.5 547.5Q359 532 359 532L330 505Q309 525 291 529Q273 533 266 524Q260 517 261 509Q262 501 270 493ZM453 327Q441 301 417 289.5Q393 278 359 280L359 288Q401 299 406.5 313Q412 327 440 376L358 550L396 558L458 416L520 558L561 546L453 327ZM753 362Q744 362 719.5 361Q695 360 695 360Q695 360 702.5 411.5Q710 463 710 480Q709 504 698 517.5Q687 531 661 530Q649 529 641 519Q633 509 632 487Q629 423 627 392Q625 361 625 361L582 357Q586 402 588 446Q590 490 589 532Q589 538 581.5 542.5Q574 547 561 550L561 562L630 562L627 527Q627 527 645 545Q663 563 689 562Q720 561 734.5 544.5Q749 528 751 508Q755 474 746.5 424.5Q738 375 738 375L762 375Q762 375 762 368.5Q762 362 753 362ZM847 420Q857 404 871 391Q885 378 919 397Q930 403 928.5 394Q927 385 927 385Q927 385 907 372Q887 359 867 359Q840 359 823 375.5Q806 392 801 410Q793 433 790.5 455.5Q788 478 790 494Q797 540 832.5 551Q868 562 868 562Q883 562 899.5 552.5Q916 543 934 528L902 506Q902 506 884 524Q866 542 850 536Q843 534 838 523.5Q833 513 832 495Q830 471 834.5 452Q839 433 847 420Z" fill="#825078" />
  </g>
</svg>