<?xml version="1.0" encoding="UTF-8"?>
<svg width="16" height="16" viewBox="0 0 16 16" xmlns="http://www.w3.org/2000/svg">
  <g transform="translate(1.6729980468749996, 14.55375) scale(0.01462890625, -0.01462890625)">
    <path d="M691 90Q691 62 670.5 42Q650 22 622 21Q585 21 578 22Q571 23 566 28L519 88Q515 93 509.5 96Q504 99 498 99L367 99Q361 99 356 96.5Q351 94 350 92L299 28Q294 23 286.5 22Q279 21 243 21Q214 21 194 41.5Q174 62 174 90L174 229L89 229L89 90Q89 26 134.5 -19Q180 -64 243 -64L622 -64Q685 -64 730 -19Q775 26 775 90L775 229L691 229ZM153 388Q106 389 105.5 436Q105 483 153 484L711 484Q763 484 758.5 435.5Q754 387 711 388ZM839 558Q839 585 820 604Q801 623 774 623L90 623Q39 623 32 593Q25 563 25 526Q14 519 7 507Q0 495 0 481L0 393Q0 379 7 367Q14 355 25 348L25 314Q25 287 44.5 268Q64 249 90 249L774 249Q801 249 820 268Q839 287 839 314L839 348Q851 355 858 367Q865 379 865 393L865 481Q865 495 858 507Q851 519 839 526ZM539 154L561 129L594 157L559 197L306 197L271 157L304 129L325 154ZM73 644L791 644Q783 711 752 769Q720 826 672.5 868.5Q625 911 563 936Q501 960 432 960Q363 960 302 936Q240 911 192 868.5Q144 826 113 769Q82 711 73 644Z" fill="#be2f31" />
  </g>
</svg>