<?xml version="1.0" encoding="UTF-8"?>
<svg width="16" height="16" viewBox="0 0 16 16" xmlns="http://www.w3.org/2000/svg">
  <g transform="translate(0.020000000000000462, 14.9825) scale(0.015585937499999999, -0.015585937499999999)">
    <path d="M480 839Q480 852 489 861Q498 870 510 870Q523 870 532 861Q541 852 541 839Q541 827 532 818Q523 809 510 809Q498 809 489 818Q480 827 480 839ZM117 564Q117 576 126 585Q135 594 147 594Q160 594 169 585Q178 576 178 564Q178 551 169 542Q160 533 147 533Q135 533 126 542Q117 551 117 564ZM843 562Q843 575 852 584Q861 593 873 593Q886 593 895 584Q904 575 904 562Q904 550 895 541Q886 532 873 532Q861 532 852 541Q843 550 843 562ZM205 521Q215 525 219.5 536Q224 547 219 557L206 588L259 588L259 348L152 348Q142 383 139 419.5Q136 456 139 492ZM427 515L427 585L554 585Q558 585 579 577.5Q600 570 600 548Q600 530 581.5 522.5Q563 515 544 515L427 515ZM254 135Q254 148 263 156.5Q272 165 285 165Q298 165 306.5 156Q315 147 315 135Q315 122 306.5 113Q298 104 285 104Q272 104 263 113Q254 122 254 135ZM705 133Q705 146 714 155Q723 164 736 164Q748 164 757 155Q766 146 766 133Q766 121 757 112Q748 103 736 103Q723 103 714 112Q705 121 705 133ZM715 202Q704 205 694 198.5Q684 192 682 181L667 110Q629 93 590 85Q550 76 510 76.5Q470 77 431 85Q391 94 354 111L339 183Q336 194 326.5 200Q317 206 306 204L243 190Q234 200 226 209.5Q218 219 210 229L517 229Q519 229 520.5 229.5Q522 230 522 233L522 341Q522 343 520.5 344Q519 345 517 345L427 345L427 413L524 413Q531 413 552.5 406Q574 399 584 362Q586 350 591.5 322Q597 294 602 282Q606 268 621.5 248.5Q637 229 656 229L814 229Q806 218 797.5 208Q789 198 779 189L715 202ZM885 489Q887 472 887 456Q887 440 886 423L847 423Q844 423 843 421.5Q842 420 842 417L842 400Q842 368 827.5 358Q813 348 798 347Q783 345 769.5 351.5Q756 358 754 367Q745 415 730.5 433Q716 451 693 469Q721 487 745.5 513.5Q770 540 770 576Q770 614 749.5 638.5Q729 663 711 675Q686 691 662 696Q638 701 630 701L233 701Q274 747 328 777.5Q382 808 442 820L489 770Q497 762 508.5 762Q520 762 529 770L581 820Q622 812 659 796Q697 780 729.5 756.5Q762 733 790 703Q817 673 838 637L802 556Q797 545 801 534.5Q805 524 816 519L885 489ZM974 487L973 500L1010 534Q1016 539 1014 547.5Q1012 556 1005 559L958 577L954 589L984 630Q988 636 985 644Q982 652 974 653L924 661L918 672L939 718Q942 725 937.5 732.5Q933 740 925 739L875 738L867 747L878 796Q880 804 874 810Q868 816 861 814L811 803L802 811L803 861Q804 869 796.5 873.5Q789 878 782 875L736 854L725 860L717 910Q716 918 708 921Q700 924 694 920L653 890L641 894L623 941Q620 949 612 950.5Q604 952 598 946L564 909L551 910L525 953Q521 960 512 960Q503 960 499 953L473 910L460 909L426 946Q421 952 412.5 950.5Q404 949 401 941L383 894L371 890L330 920Q324 924 316 921Q308 918 307 910L299 860L288 854L242 875Q235 878 227.5 873.5Q220 869 221 861L222 811L213 803L164 814Q156 816 150 810Q144 804 146 796L157 747L149 738L99 739Q91 739 86.5 732Q82 725 85 718L106 672L100 661L50 653Q42 652 39 644Q36 636 40 630L70 589L66 577L19 559Q12 556 10 547.5Q8 539 14 534L51 500L50 487L7 461Q0 457 0 448Q0 439 7 435L50 409L51 396L14 362Q8 356 10 348Q12 340 19 337L66 319L70 307L40 266Q36 260 39 252Q42 244 50 243L100 235L106 224L85 178Q82 171 86.5 163.5Q91 156 99 157L149 158L157 149L146 99Q144 92 150 86Q156 80 164 82L213 93L222 85L221 35Q220 27 227.5 22.5Q235 18 242 21L288 42L299 36L307 -14Q308 -22 316 -25Q324 -28 330 -24L371 6L383 2L401 -45Q404 -52 412.5 -54Q421 -56 426 -50L460 -13L473 -14L499 -57Q503 -64 512 -64Q521 -64 525 -57L551 -14L564 -13L598 -50Q604 -56 612 -54Q620 -52 623 -45L641 2L653 6L694 -24Q700 -28 708 -25Q716 -22 717 -14L725 36L736 42L782 21Q789 18 796.5 22.5Q804 27 803 35L802 85L811 93L861 82Q868 80 874 86Q880 92 878 99L867 149L875 158L925 157Q933 156 937.5 163.5Q942 171 939 178L918 224L924 235L974 243Q982 244 985 252Q988 260 984 266L954 307L958 319L1005 337Q1012 340 1014 348Q1016 356 1010 362L973 396L974 409L1017 435Q1024 439 1024 448Q1024 457 1017 461L974 487Z" fill="#ac4142" />
  </g>
</svg>