<?xml version="1.0" encoding="UTF-8"?>
<svg width="16" height="16" viewBox="0 0 16 16" xmlns="http://www.w3.org/2000/svg">
  <g transform="translate(0.8148828125000005, 14.9825) scale(0.015585937499999999, -0.015585937499999999)">
    <path d="M292 904Q292 886 304 871.5Q316 857 334 851Q334 849 334 846Q334 843 334 840Q262 820 201 778Q139 735 94.5 677Q50 619 25 547Q0 476 0 397Q0 302 36 218Q72 134 135 71Q198 8 282 -28Q366 -64 461 -64Q557 -64 641 -28Q725 8 787.5 71Q850 134 886 218Q922 302 922 397Q922 493 886 577Q850 661 787.5 723.5Q725 786 641 822Q557 858 461 858Q447 858 433 857Q419 856 405 855Q404 858 402.5 861Q401 864 399 867Q406 875 410.5 884.5Q415 894 415 904Q412 960 354 960Q296 960 292 904ZM342 946Q374 954 392.5 927.5Q411 901 389 876Q374 884 361.5 881Q349 878 339 864Q307 874 306.5 905.5Q306 937 342 946ZM461 9Q381 9 310 39Q239 70 186.5 122.5Q134 175 103 246Q73 317 73 397Q73 478 103 548Q134 619 186.5 672Q239 725 310 755Q381 786 461 786Q542 786 612 755Q683 725 736 672Q789 619 819 548Q850 478 850 397Q850 317 819 246Q789 175 736 122.5Q683 70 612 39Q542 9 461 9ZM121 330L154 337Q160 338 161.5 332Q163 326 156 325L123 317Q139 252 177.5 198Q216 144 270 108L290 139Q294 145 299 141.5Q304 138 301 133L280 101Q337 66 401.5 55Q466 44 532 57L524 90Q523 96 529 97.5Q535 99 537 93L544 60Q608 76 661.5 114Q715 152 751 206L726 222Q720 226 723.5 231Q727 236 732 233L732 233L758 217Q791 271 802.5 334Q814 397 801 465L774 459Q768 458 766.5 464Q765 470 771 471L799 477Q784 542 746.5 595.5Q709 649 655 685L637 657Q634 651 629 654.5Q624 658 627 663L645 691Q584 728 522 738.5Q460 749 396 738L403 706Q405 700 399 698.5Q393 697 391 703L384 736Q319 721 264.5 683Q210 645 174 592L202 574Q207 570 204 565Q201 560 195 563L167 581Q133 526 120.5 463.5Q108 401 121 330ZM370 366L364 355L237 355L356 410Q357 421 360 430.5Q363 440 368 448L322 495L385 471Q392 478 400 484Q408 490 417 494L417 622L473 503Q476 503 479 502.5Q482 502 485 501L476 492Q417 500 385 455.5Q353 411 370 366ZM492 368Q492 368 455 333Q417 298 372.5 255.5Q328 213 290 178Q253 143 253 143L424 428L664 653L492 368ZM557 397Q557 408 554.5 418.5Q552 429 548 438L554 449Q554 449 619 447.5Q684 446 684 446L567 394Q567 384 565 374.5Q563 365 559 356L606 307L544 331Q538 323 531 317Q524 311 516 306L514 172L461 291Q454 291 447.5 291.5Q441 292 434 294L444 303Q495 294 526 326Q557 358 557 397ZM446 371Q432 380 432 397Q432 414 446 423Q461 431 476 422.5Q491 414 491 397Q491 380 476 371.5Q461 363 446 371Z" fill="#46788d" />
  </g>
</svg>