<?xml version="1.0" encoding="UTF-8"?>
<svg width="16" height="16" viewBox="0 0 16 16" xmlns="http://www.w3.org/2000/svg">
  <g transform="translate(0.016722956730769976, 14.978857634171195) scale(0.015585937499999999, -0.015585937499999999)">
    <path d="M1019 445Q1017 459 1006.5 467Q996 475 983 476L943 611Q950 614 954.5 621Q959 628 959 637Q959 654 945 662.5Q931 671 917 665L730 893Q734 903 731.5 914Q729 925 719 931Q707 938 694 934Q681 930 675 918L384 928Q382 940 374 948.5Q366 957 354 959Q338 962 325 953.5Q312 945 309 929Q307 919 310 910Q313 901 319 895L227 788Q218 792 208.5 792Q199 792 190 789Q174 782 166.5 767Q159 752 162 735L83 683Q73 692 59 693.5Q45 695 33 686Q16 673 18.5 651Q21 629 41 620L26 340Q12 336 6 322Q0 308 9 295Q15 285 25 282.5Q35 280 45 283L248 75Q245 65 248 55Q251 45 260 40Q269 34 280 35.5Q291 37 298 44L407 -15Q402 -31 411.5 -46.5Q421 -62 440 -64Q459 -66 472 -52Q485 -38 482 -20L784 68Q791 51 809.5 46Q828 41 843 53Q858 65 857.5 84Q857 103 842 114L973 400Q993 395 1008.5 409.5Q1024 424 1020 445ZM301 741L288 683L280 682L247 720Q249 723 250.5 727Q252 731 253 736ZM339 884Q355 881 368 890Q381 899 384 914L673 904Q673 895 678 888Q683 881 691 878L685 849Q669 848 657 836.5Q645 825 643 810L315 772L339 884ZM849 418L888 529L947 454Q946 450 945 447Q944 444 944 440L849 418ZM822 364Q811 365 802.5 358.5Q794 352 792 341Q790 330 796.5 320.5Q803 311 814 309L812 121Q803 119 796 113.5Q789 108 785 100L619 136Q619 145 614 154Q609 163 599 167Q584 173 571 163Q558 153 559 137L506 124L559 287Q585 283 605 300.5Q625 318 625 344L832 392L822 364ZM422 6L346 78L479 110L448 12Q441 13 434.5 11.5Q428 10 422 6ZM340 83L146 266Q149 270 151 275.5Q153 281 153 286L512 325Q516 315 522.5 307Q529 299 539 294L482 118L340 83ZM224 702L245 678L194 673L199 700Q205 699 211.5 699.5Q218 700 224 702ZM251 672L278 640L261 562Q257 563 252.5 561.5Q248 560 243 558Q229 549 229 532.5Q229 516 242 507L129 334L193 665L251 672ZM440 671Q457 670 466.5 683Q476 696 471 711L650 777Q652 774 654.5 771Q657 768 660 766L567 402Q559 402 551 400Q543 398 535 393L292 669L294 676L415 690Q418 683 424.5 677.5Q431 672 440 671ZM149 307Q146 313 141.5 317Q137 321 131 324L249 504Q263 499 276.5 508Q290 517 289 533Q289 544 283 551Q277 558 268 561L284 634L516 372Q512 366 510.5 359.5Q509 353 509 346L149 307ZM621 365Q617 375 610.5 383Q604 391 595 395L687 756Q692 756 697.5 757Q703 758 708 760L883 536L840 416L621 365ZM962 470L897 553L917 610Q920 608 923 607.5Q926 607 929 607L969 474Q967 473 965 472Q963 471 962 470ZM636 780L468 718Q460 731 444 731.5Q428 732 418 719Q415 714 413.5 708Q412 702 413 697L295 684L308 742L636 780ZM186 704L179 671L94 661Q94 664 93 666.5Q92 669 91 671L168 722Q171 716 175.5 711.5Q180 707 186 704ZM94 654L178 663L113 327Q102 327 92.5 320Q83 313 79 303L63 306Q65 318 58.5 328Q52 338 40 341L55 617Q70 617 82 627.5Q94 638 94 654ZM306 68L321 71L380 16L305 57Q306 59 306.5 62Q307 65 306 68ZM468 4L504 116L560 130Q564 115 579.5 110Q595 105 608 115Q611 118 613.5 121.5Q616 125 617 129L782 93Q782 92 782 91.5Q782 91 782 90L473 0Q471 1 470 2Q469 3 468 4ZM819 122L822 308Q831 309 838.5 315.5Q846 322 848 332Q849 342 844 351Q839 360 829 363L840 394L948 419Q949 417 950.5 415Q952 413 954 411L822 122Q821 122 820.5 122Q820 122 819 122ZM331 887Q331 886 331.5 886Q332 886 332 886L307 771L250 764Q248 769 245.5 773Q243 777 239 780ZM721 882L905 656Q898 647 899 634Q900 621 911 613L892 560L725 773Q741 793 733 817.5Q725 842 699 848L705 875Q709 876 713 877.5Q717 879 721 882ZM305 75Q300 90 284 94Q268 98 256 87L56 291Q57 292 57 292Q57 292 57 292L77 289Q77 273 88 262Q99 251 115 251Q118 251 121.5 251.5Q125 252 128 253L315 77L305 75Z" fill="#6a9fb5" />
  </g>
</svg>