<?xml version="1.0" encoding="UTF-8"?>
<svg width="16" height="16" viewBox="0 0 16 16" xmlns="http://www.w3.org/2000/svg">
  <g transform="translate(1.1845703125, 14.125) scale(0.013671875, -0.013671875)">
    <path d="M985 836L781 957Q776 960 769.5 960Q763 960 757 957L610 871L463 956Q458 960 451.5 960Q445 960 439 956L12 707Q6 703 3 697.5Q0 692 0 686L0 218Q0 212 3 206.5Q6 201 12 198L436 -60Q439 -62 442.5 -63Q446 -64 449 -64Q452 -64 455 -63Q458 -62 461 -61L887 191Q892 195 895.5 200.5Q899 206 899 212L899 455Q899 461 895.5 467Q892 473 886 476Q881 479 874.5 479Q868 479 862 476L685 372L685 469L751 431Q753 429 756 428.5Q759 428 763 428Q766 428 769 428.5Q772 429 775 431L985 552Q991 555 994 560.5Q997 566 997 573L997 815Q997 821 994 826.5Q991 832 985 836ZM769 908L925 815L764 724L610 815ZM507 694L533 709L533 677ZM451 908L562 843L545 833Q540 830 536.5 824.5Q533 819 533 812L533 765L448 715Q443 712 439.5 706.5Q436 701 436 695Q436 688 439 682.5Q442 677 448 674L614 570L453 474L83 692L451 908ZM48 656L429 433L429 0L48 232ZM850 413L850 226L478 5L478 433L636 527L636 330Q636 324 639.5 318.5Q643 313 648 309Q654 306 660.5 306Q667 306 673 309L850 413ZM673 590L581 647L581 775L740 683L740 493L685 524L685 569Q685 575 682 580.5Q679 586 673 590ZM788 494L788 682L949 773L949 587Z" fill="#6a9fb5" />
  </g>
</svg>