<?xml version="1.0" encoding="UTF-8"?>
<svg width="16" height="16" viewBox="0 0 16 16" xmlns="http://www.w3.org/2000/svg">
  <g transform="translate(0.020000000000000462, 14.9825) scale(0.015585937499999999, -0.015585937499999999)">
    <path d="M0 245L494 -35L494 205L0 425ZM1024 425L530 205L530 -35L1024 244L1024 425ZM910 404L988 438L818 503L802 460Q825 450 852.5 435.5Q880 421 910 404ZM715 931L683 841Q677 822 687.5 799Q698 776 729 770L676 620Q643 634 615 626.5Q587 619 570 600L511 623L36 439L113 405Q161 433 213 457Q264 480 318 496Q372 512 426 520Q481 528 535 525L514 468Q473 467 437.5 457Q402 447 372 431Q425 439 479 437Q533 435 585 424.5Q637 414 685 397Q733 380 774 359Q772 368 766.5 377Q761 386 752 395L791 506Q800 529 787.5 564.5Q775 600 720 608L774 757Q812 747 834 765Q856 783 862 799L891 883L715 931ZM815 810Q814 806 807.5 803Q801 800 795 803L742 818Q734 821 731.5 825.5Q729 830 731 837L743 872L829 848Z" fill="#a35f27" />
  </g>
</svg>