<?xml version="1.0" encoding="UTF-8"?>
<svg width="16" height="16" viewBox="0 0 16 16" xmlns="http://www.w3.org/2000/svg">
  <g transform="translate(2.994532612645348, 14.55375) scale(0.01462890625, -0.01462890625)">
    <path d="M590 470Q670 374 680 287Q690 199 657 129.5Q624 60 562 12Q500 -35 436 -51Q361 -70 291 -62Q222 -53 164.5 -23.5Q107 6 65 54Q23 101 2 161Q28 119 76 93Q123 67 177.5 58.5Q232 50 287 58Q341 66 383 92Q429 122 459 161Q490 200 500.5 243.5Q511 287 501 332Q491 377 456 419Q456 419 435 444Q414 470 388.5 500.5Q363 531 342 556Q321 582 321 582Q303 603 308 629.5Q313 656 334 674Q356 692 382 691.5Q408 691 426 669L590 470ZM227 477Q192 519 182 564Q172 609 182.5 652.5Q193 696 223 735Q254 774 300 804Q341 830 396 838Q451 846 505.5 837.5Q560 829 607 803Q654 777 680 735Q660 795 618 842Q576 890 518.5 919.5Q461 949 391 958Q322 966 247 947Q182 931 120 884Q58 836 25.5 766.5Q-7 697 3 609Q13 522 92 426L254 230Q272 209 298 208.5Q324 208 345 225Q367 243 372 269.5Q377 296 359 317Q359 317 338 342Q318 367 293 397Q268 427 247 452Q227 477 227 477Z" fill="#6a9fb5" />
  </g>
</svg>