<?xml version="1.0" encoding="UTF-8"?>
<svg width="16" height="16" viewBox="0 0 16 16" xmlns="http://www.w3.org/2000/svg">
  <g transform="translate(0.013708084620787847, 14.977020505614938) scale(0.015585937499999999, -0.015585937499999999)">
    <path d="M336 381L239 327Q196 369 158.5 394.5Q121 420 98 451Q69 491 81 541.5Q93 592 159 643Q230 698 298 727Q366 756 422.5 765.5Q479 775 520 767Q561 758 578 737Q593 718 589 689Q584 660 563.5 630Q543 600 508 574Q473 547 427 532Q372 513 323 514.5Q274 516 246 547Q243 552 239 549Q235 546 236 542Q255 488 323.5 483.5Q392 479 454 494Q511 508 559 548Q606 588 629 636Q652 684 643 731Q635 778 582 807Q505 843 406 826Q308 809 219.5 762Q131 715 69 651Q6 587 0 529Q-3 496 15 467Q32 438 61.5 411.5Q91 385 128 359Q166 334 201 307Q145 277 106 249.5Q67 222 53 198Q38 175 34 151Q30 127 41 101Q61 56 115.5 65.5Q170 75 196 94Q237 123 261 178Q285 233 257 301L314 333L314 333Q314 330 313 327.5Q312 325 311 323Q298 280 302 241.5Q306 203 327 173Q336 161 352 159.5Q368 158 379 168Q390 177 400 200.5Q410 224 425 254Q421 222 425.5 198.5Q430 175 449 173Q461 172 471.5 182Q482 192 491 207Q514 246 536.5 294.5Q559 343 581 395Q586 373 593 353.5Q600 334 609 316Q612 311 611.5 307.5Q611 304 608 300L553 233Q533 210 539 198.5Q545 187 571 188Q609 192 644 217Q679 242 668 292Q664 311 660.5 316.5Q657 322 662 327Q677 349 692 375.5Q707 402 719 426Q724 405 730.5 384.5Q737 364 748 345Q722 322 705 296.5Q688 271 689 243Q690 231 698 225Q706 219 717 221Q747 226 774.5 248Q802 270 806 291Q809 302 807.5 315Q806 328 800 346Q859 365 904 357Q950 348 975 326Q1000 304 1002 276Q1004 248 975 229Q973 227 971 226Q969 225 968 223Q966 221 966.5 218.5Q967 216 971 216Q976 216 981 218.5Q986 221 990 223Q1046 256 1013 323Q980 390 889 392Q863 392 837.5 387Q812 382 788 371Q772 396 767 419.5Q762 443 766 462Q768 471 771 480Q774 489 776 497Q777 502 775.5 506Q774 510 765 512Q754 513 743.5 512.5Q733 512 722 509Q715 507 714 502Q713 497 710 490Q704 459 684.5 424.5Q665 390 643 353Q636 366 630.5 382.5Q625 399 627 420Q627 431 631 443.5Q635 456 638 468Q640 472 638 475.5Q636 479 627 481Q612 483 598.5 481Q585 479 579 475Q574 472 571 457.5Q568 443 562 429Q535 370 509.5 310.5Q484 251 471 234Q464 238 474 278.5Q484 319 495 363Q500 376 487.5 382.5Q475 389 462 379Q474 446 430.5 444.5Q387 443 342 386Q341 385 339.5 383.5Q338 382 336 381ZM227 234Q225 207 213 184.5Q201 162 180 145Q128 103 103.5 121.5Q79 140 105 185Q116 208 149 232Q182 256 222 279Q225 268 226.5 257Q228 246 227 234ZM356 223Q341 259 358 314.5Q375 370 409 395Q422 403 427.5 401.5Q433 400 432 393Q431 384 429 375.5Q427 367 425 358Q416 329 405 300.5Q394 272 382 244Q373 225 366.5 220Q360 215 356 223ZM573 214Q585 229 598 243.5Q611 258 623 273Q625 257 604.5 233Q584 209 573 214ZM721 248Q719 247 718.5 249Q718 251 719 257Q724 275 733.5 290.5Q743 306 758 319Q765 300 756.5 279Q748 258 721 248Z" fill="#f4bf75" />
  </g>
</svg>