<?xml version="1.0" encoding="UTF-8"?>
<svg width="16" height="16" viewBox="0 0 16 16" xmlns="http://www.w3.org/2000/svg">
  <g transform="translate(1.013671875, 14.126682544391702) scale(0.013671875, -0.013671875)">
    <path d="M326 324L1009 324Q1014 342 1017 361Q1020 380 1022 399L449 399Q390 399 390 458.5Q390 518 449 518L1019 518Q1017 537 1013 556Q1009 575 1003 593L571 593Q511 593 511 652.5Q511 712 571 712L951 712Q900 796 821 855Q741 915 647.5 941Q554 967 453 957Q351 946 255 891Q128 817 64 697Q0 577 0 448Q0 319 64 199Q128 79 255 5Q354 -52 459 -61Q563 -71 659 -41.5Q755 -12 835 52Q915 116 963 206L326 206Q267 206 267 265Q267 324 326 324Z" fill="#825078" />
  </g>
</svg>