<?xml version="1.0" encoding="UTF-8"?>
<svg width="16" height="16" viewBox="0 0 16 16" xmlns="http://www.w3.org/2000/svg">
  <g transform="translate(-0.7654008413461544, 14.1234619140625) scale(0.013671875, -0.013671875)">
    <path d="M1232 486L1159 444Q1162 465 1160 497Q1158 530 1150 568Q1142 606 1128 647Q1115 687 1096 722Q1065 780 1017 827.5Q969 875 969 875L1017 898Q1048 907 1104.5 892Q1161 877 1223 765Q1275 670 1281.5 594Q1288 518 1232 486ZM243 261Q198 337 152 367Q106 397 67 398Q50 398 41 394Q32 390 32 390Q12 376 5 341Q-3 306 2 261Q7 216 25 166Q42 115 73 71Q124 -4 172.5 -37Q221 -70 260 -63Q260 -63 260 -63Q260 -63 260 -63Q284 -48 295 -13Q305 22 302.5 67.5Q300 113 285 164Q270 215 243 261ZM422 328Q421 281 424.5 251Q428 221 460 189Q476 199 501 213Q526 227 539 233Q552 280 528.5 341.5Q505 403 442 461Q420 447 390.5 432.5Q361 418 344 414Q354 393 374.5 368.5Q395 344 422 328ZM865 479Q842 471 817 450Q791 429 769 399Q747 369 732 331Q717 294 714 253Q735 252 774.5 232.5Q814 213 835 192Q846 204 853.5 219Q861 234 865 251Q871 275 870.5 295Q870 315 867 322Q897 334 926.5 358Q956 382 968 404Q951 415 915 439.5Q879 464 865 479ZM771 661Q761 683 766.5 705.5Q772 728 779 758Q736 761 702 745Q668 729 653 714Q641 726 606.5 745.5Q572 765 543 762Q546 736 546.5 701Q547 666 542 634Q586 618 659.5 623.5Q733 629 771 661ZM645 960Q748 960 838 921Q928 882 995 814Q1062 746 1101 655Q1140 564 1140 461Q1140 357 1101 266Q1062 176 995 108Q928 40 838 1Q748 -38 645 -38Q578 -38 522.5 -25.5Q467 -13 417 15L302 -43Q317 -23 323.5 8Q330 39 328 77Q325 127 309 179Q293 231 267 277Q245 313 221.5 340.5Q198 368 173 386Q151 402 129.5 410Q108 418 86 419L151 451Q150 562 189 655Q228 748 295 816Q362 884 453 922Q543 960 645 960ZM409 714Q430 668 488 638Q546 608 616 608Q725 608 783 647Q841 686 840 756Q785 799 718.5 769.5Q652 740 652 740Q652 740 631 754Q609 768 576 776.5Q543 785 503 777Q462 770 423 728Q423 728 419.5 724.5Q416 721 409 714ZM312 504Q308 451 328 402Q348 353 397 317Q391 260 418.5 205Q446 150 519 130Q559 177 570.5 251Q582 325 523 408Q477 475 419.5 494Q362 513 312 504ZM1002 463Q996 467 989.5 471Q983 475 977 479Q902 524 838 488Q774 452 731 380Q694 319 688 240Q682 161 709 120Q716 121 723 121.5Q730 122 737 123Q804 133 837 163Q869 193 880.5 226Q892 259 891 284Q889 310 889 310Q955 341 979.5 381Q1004 421 1002 463Z" fill="#d28445" />
  </g>
</svg>