<?xml version="1.0" encoding="UTF-8"?>
<svg width="16" height="16" viewBox="0 0 16 16" xmlns="http://www.w3.org/2000/svg">
  <g transform="translate(2.8662109375, 14.125) scale(0.013671875, -0.013671875)">
    <path d="M751 960Q730 936 640 915Q550 894 434.5 876.5Q319 859 200 846Q80 832 0 823L0 583Q77 589 196 600Q315 610 431.5 626.5Q548 643 638 665Q728 688 748 719L751 960ZM750 635Q729 611 640 590Q550 569 434.5 551.5Q319 534 199 521Q80 507 0 499L0 258Q77 265 196 275Q315 286 431 302Q547 318 638 341Q728 363 747 394L750 635ZM751 313Q730 289 640 268Q550 247 434.5 229.5Q319 212 200 199Q81 186 1 177L1 -64Q77 -57 197 -47Q316 -36 432 -20Q548 -4 638 19Q729 42 748 73Z" fill="#90a959" />
  </g>
</svg>