<?xml version="1.0" encoding="UTF-8"?>
<svg width="16" height="16" viewBox="0 0 16 16" xmlns="http://www.w3.org/2000/svg">
  <g transform="translate(-1.0950000000000006, 13.350000000000001) scale(0.008359375, -0.008359375)">
    <path d="M1728 1088L1344 384L2112 384ZM448 1088L64 384L832 384ZM1269 1280Q1255 1240 1223.5 1208.5Q1192 1177 1152 1163L1152 -128L1760 -128Q1774 -128 1783 -137Q1792 -146 1792 -160L1792 -224Q1792 -238 1783 -247Q1774 -256 1760 -256L416 -256Q402 -256 393 -247Q384 -238 384 -224L384 -160Q384 -146 393 -137Q402 -128 416 -128L1024 -128L1024 1163Q984 1177 952.5 1208.5Q921 1240 907 1280L416 1280Q402 1280 393 1289Q384 1298 384 1312L384 1376Q384 1390 393 1399Q402 1408 416 1408L907 1408Q928 1465 977 1500.5Q1026 1536 1088 1536Q1150 1536 1199 1500.5Q1248 1465 1269 1408L1760 1408Q1774 1408 1783 1399Q1792 1390 1792 1376L1792 1312Q1792 1298 1783 1289Q1774 1280 1760 1280ZM1031.5 1287.5Q1031.5 1287.5 1043.25 1275.75Q1055 1264 1088 1264Q1121 1264 1144.5 1287.5Q1168 1311 1168 1344Q1168 1377 1144.5 1400.5Q1121 1424 1088 1424Q1055 1424 1031.5 1400.5Q1008 1377 1008 1344Q1008 1311 1031.5 1287.5ZM2176 384Q2176 311 2129.5 253Q2083 195 2012 162Q1941 129 1867.5 112.5Q1794 96 1728 96Q1662 96 1588.5 112.5Q1515 129 1444 162Q1373 195 1326.5 253Q1280 311 1280 384Q1280 395 1315 465Q1350 535 1407 639.5Q1464 744 1514 835Q1564 926 1616 1019Q1668 1112 1672 1119Q1690 1152 1728 1152Q1766 1152 1784 1119Q1788 1112 1840 1019Q1892 926 1942 835Q1992 744 2049 639.5Q2106 535 2141 465Q2176 395 2176 384ZM896 384Q896 311 849.5 253Q803 195 732 162Q661 129 587.5 112.5Q514 96 448 96Q382 96 308.5 112.5Q235 129 164 162Q93 195 46.5 253Q0 311 0 384Q0 395 35 465Q70 535 127 639.5Q184 744 234 835Q284 926 336 1019Q388 1112 392 1119Q410 1152 448 1152Q486 1152 504 1119Q508 1112 560 1019Q612 926 662 835Q712 744 769 639.5Q826 535 861 465Q896 395 896 384Z" fill="#be2f31" />
  </g>
</svg>