<?xml version="1.0" encoding="UTF-8"?>
<svg width="16" height="16" viewBox="0 0 16 16" xmlns="http://www.w3.org/2000/svg">
  <g transform="translate(0.5099999999999998, 14.55375) scale(0.01462890625, -0.01462890625)">
    <path d="M435 -64L0 168L0 740L45 716L45 209L389 25L389 468L126 608L126 291L311 193L311 385L209 439L209 372L266 342L266 277L164 331L164 528L356 425L356 104L81 250L81 697L435 509L435 -64ZM469 589L906 712L567 884L228 788L471 665L709 731L560 807L433 771L483 746L553 766L603 741L478 705L333 779L560 843L801 721L476 630L140 799L565 919L950 725L1006 741L572 960L35 808L469 589ZM1024 658L511 509L511 -64L565 -48L565 459L970 577L970 134L661 44L661 361L878 424L878 233L758 198L758 264L825 284L825 349L705 314L705 117L931 183L931 505L607 411L607 -36L1024 85L1024 658Z" fill="#ac4142" />
  </g>
</svg>