<?xml version="1.0" encoding="UTF-8"?>
<svg width="16" height="16" viewBox="0 0 16 16" xmlns="http://www.w3.org/2000/svg">
  <g transform="translate(2.887197265625, 14.55375) scale(0.01462890625, -0.01462890625)">
    <path d="M673 152L699 152Q699 95 690 54Q681 13 662 -13Q644 -38 621 -51Q598 -64 570 -64Q548 -64 526 -55.5Q504 -47 484 -30Q463 -14 444.5 31.5Q426 77 409 152L348 429L135 -54L0 -54L306 605Q294 669 279 716Q264 763 247 794Q230 825 209 840.5Q188 856 162 856Q142 856 124 848Q106 840 91 825Q76 810 67.5 785.5Q59 761 57 728L31 728Q33 781 43.5 823Q54 865 74 896Q94 928 119 944Q144 960 174 960Q193 960 211 952Q229 944 247 929Q264 913 279 886Q294 859 307 820Q313 801 321 771Q329 742 339 702Q349 662 361 612Q372 562 386 501L437 275Q452 204 468 157Q484 110 501 87Q518 63 538 51Q558 39 582 39Q622 39 645 67Q668 95 673 152Z" fill="#6a9fb5" />
  </g>
</svg>