<?xml version="1.0" encoding="UTF-8"?>
<svg width="16" height="16" viewBox="0 0 16 16" xmlns="http://www.w3.org/2000/svg">
  <g transform="translate(-1.0300000000000011, 15.901250000000001) scale(0.017636718750000002, -0.017636718750000002)">
    <path d="M15 364Q0 373 0 390Q0 407 15 416Q30 424 44.5 415.5Q59 407 59 390Q59 373 44.5 364.5Q30 356 15 364ZM184 485Q184 501 170 509Q156 517 142 509Q128 501 128 485Q128 469 142 461Q156 453 170 461Q184 469 184 485ZM306 556Q306 571 293 578.5Q280 586 266 579Q253 571 253 555.5Q253 540 266 533Q280 525 293 533Q306 541 306 556ZM330 481Q330 496 316 504Q302 512 289 504Q275 496 275 480.5Q275 465 289 457Q302 449 316 457Q330 465 330 481ZM352 404Q352 420 338 428Q324 436 310 428Q297 420 297 404Q297 388 310 380Q324 372 338 380Q352 388 352 404ZM373 326Q373 341 359 349Q345 357 332 349Q318 341 318 325.5Q318 310 332 302Q345 294 359 302Q373 310 373 326ZM459 375Q459 390 445.5 397.5Q432 405 419 398Q406 390 406 374.5Q406 359 419 352Q432 344 445.5 351.5Q459 359 459 375ZM449 454Q449 469 435.5 477Q422 485 409 477Q396 470 396 454.5Q396 439 409 431Q422 424 435.5 431.5Q449 439 449 454ZM439 532Q439 547 426 554.5Q413 562 400 555Q387 547 387 532Q387 517 400 510Q413 503 426 510Q439 517 439 532ZM427 609Q427 624 414.5 631Q402 638 390 631Q378 624 378 609.5Q378 595 390 588Q402 581 414.5 588Q427 595 427 609ZM547 649Q547 662 535.5 669Q524 676 512 669Q501 662 501 649Q501 636 512 629Q524 622 535.5 629Q547 636 547 649ZM659 601Q659 614 647 620.5Q635 627 624 621Q612 614 612 600.5Q612 587 624 581Q635 574 647 580.5Q659 587 659 601ZM651 523Q651 537 639 544Q627 551 615 544Q602 537 602 523Q602 509 614 502Q627 495 639 502Q651 509 651 523ZM643 445Q643 459 630.5 466Q618 473 605 466Q593 459 593 445Q593 431 605 424Q618 416 630.5 423.5Q643 431 643 445ZM634 365Q634 379 621.5 386Q609 393 597 386Q585 379 585 365Q585 351 597 344Q609 336 621.5 343.5Q634 351 634 365ZM723 389Q723 403 710.5 410Q698 417 686 410Q674 403 674 389Q674 375 686 368Q698 362 710.5 369Q723 376 723 389ZM706 309Q706 323 694 330Q682 337 670 330Q658 323 658 309.5Q658 296 670 289Q682 282 694 289Q706 296 706 309ZM739 467Q739 481 727 488Q715 495 703 488Q691 481 691 467.5Q691 454 703 447Q715 440 727 447Q739 454 739 467ZM754 544Q754 557 742.5 564Q731 571 720 564Q708 557 708 544Q708 531 720 524Q731 517 742.5 524Q754 531 754 544ZM815 406Q815 419 803 426Q791 433 779 426Q767 419 767 405.5Q767 392 779 385Q791 378 803 385Q815 392 815 406ZM791 328Q791 342 779 349Q767 356 756 349Q744 342 744 328.5Q744 315 756 308Q767 301 779 308Q791 315 791 328ZM837 481Q837 495 825.5 501.5Q814 508 803 501Q791 495 791 481.5Q791 468 803 461Q814 455 825.5 461.5Q837 468 837 481ZM909 414Q909 427 897.5 433.5Q886 440 874 434Q863 427 863 413.5Q863 400 874 394Q886 387 897.5 393.5Q909 400 909 414ZM879 340Q879 353 867.5 360Q856 367 844 360Q833 353 833 339.5Q833 326 844 319Q856 313 867.5 319.5Q879 326 879 340ZM935 270Q935 283 923.5 290Q912 297 900 290Q889 283 889 270Q889 257 900 250Q912 243 923.5 250Q935 257 935 270ZM971 342Q971 356 959.5 362.5Q948 369 936 362Q925 356 925 342.5Q925 329 936 322Q948 316 959.5 322.5Q971 329 971 342ZM1024 267Q1024 281 1012.5 287.5Q1001 294 989 287Q978 281 978 267.5Q978 254 989 247Q1001 241 1012.5 247.5Q1024 254 1024 267ZM548 572Q548 586 536 593Q524 600 511 593Q499 586 499 572Q499 558 511 551Q524 544 536 551Q548 558 548 572ZM549 494Q549 508 536.5 515.5Q524 523 511 516Q498 508 498 493.5Q498 479 511 472Q524 464 536.5 471.5Q549 479 549 494ZM549 414Q549 429 536.5 436.5Q524 444 511 436Q498 429 498 414Q498 399 511 392Q524 385 536.5 392Q549 399 549 414ZM549 333Q549 347 536.5 354.5Q524 362 511 355Q498 347 498 332.5Q498 318 511 311Q524 304 536.5 311Q549 318 549 333ZM548 248Q548 263 536 270Q524 277 511 270Q499 263 499 248.5Q499 234 511 227Q524 220 536 227Q548 234 548 248ZM625 283Q625 296 612.5 303Q600 310 588 304Q576 297 576 283Q576 269 588 262Q600 255 612.5 262Q625 269 625 283ZM468 293Q468 308 455.5 315.5Q443 323 430 315Q417 308 417 293Q417 278 430 270Q443 263 455.5 270.5Q468 278 468 293ZM222 414Q222 431 207.5 439Q193 447 179 439Q164 431 164 414.5Q164 398 179 390Q193 381 207.5 389.5Q222 398 222 414ZM257 342Q257 359 242.5 367Q228 375 214 367Q200 359 200 342.5Q200 326 214 317Q228 309 242.5 317.5Q257 326 257 342ZM115 329Q115 347 100 355.5Q85 364 70 355Q55 347 55 329.5Q55 312 70 303Q85 295 100 303.5Q115 312 115 329Z" fill="#825078" />
  </g>
</svg>