<?xml version="1.0" encoding="UTF-8"?>
<svg width="16" height="16" viewBox="0 0 16 16" xmlns="http://www.w3.org/2000/svg">
  <g transform="translate(0.020000000000000462, 14.98509765625) scale(0.015585937499999999, -0.015585937499999999)">
    <path d="M145 774L0 510L223 123L386 123L318 240L630 242Q630 242 668 310Q706 378 706 378Q706 378 633 378Q560 378 472 378.5Q384 379 311 379Q238 379 238 379L161 511L307 772ZM865 382Q865 380 841 340Q818 299 790 251Q762 203 739 163Q716 123 716 123Q716 123 741 123Q767 122 797.5 122.5Q828 123 853 123Q879 123 879 123L1024 385L801 774L638 774L707 657Q707 657 658 657Q610 656 551.5 656Q493 656 444 655Q395 655 394 655L318 518L788 518Z" fill="#d28445" />
  </g>
</svg>