<?xml version="1.0" encoding="UTF-8"?>
<svg width="16" height="16" viewBox="0 0 16 16" xmlns="http://www.w3.org/2000/svg">
  <g transform="translate(1.8955078125, 14.125) scale(0.013671875, -0.013671875)">
    <path d="M0 619Q0 677 15 737Q31 798 66.5 847.5Q102 897 161 928Q220 960 306 960L893 960Q892 903 868 859Q843 814 804.5 783.5Q766 753 719 736Q673 720 628 719Q628 719 592 719Q557 719 505.5 719Q454 719 396 719Q339 719 294 719Q215 719 216 669Q217 619 217 619L0 619ZM0 566Q0 538 17 497Q34 456 69 419Q104 382 157 355Q211 328 284 328L628 328Q678 328 679.5 253.5Q681 179 630 179L284 179Q242 179 194 164Q145 150 103 119.5Q61 89 33 44Q4 -2 1 -64L628 -64Q680 -64 727 -39Q775 -13 811 29.5Q847 72 869 127Q891 182 892 241Q894 302 875 360Q856 418 822.5 464Q789 510 744 538Q698 566 646 566L0 566Z" fill="#46788d" />
  </g>
</svg>