<?xml version="1.0" encoding="UTF-8"?>
<svg width="16" height="16" viewBox="0 0 16 16" xmlns="http://www.w3.org/2000/svg">
  <g transform="translate(4.042880859375, 14.550935825663966) scale(0.01462890625, -0.01462890625)">
    <path d="M384 816L386 918Q389 962 438 960Q487 958 485 904L474 584Q473 542 424 538.5Q375 535 370 591Q371 639 350 685Q328 732 297.5 763Q267 794 233 802Q200 811 178 784Q173 777 164 742Q154 708 149.5 665.5Q145 623 149 582Q153 541 173 521Q202 484 263 487.5Q324 491 437 432Q514 391 527.5 331Q541 271 541 245Q533 173 492 120Q451 67 389.5 42.5Q328 18 253 26Q178 33 101 82L101 -21Q99 -69 48.5 -64Q-2 -59 0 -11L6 317Q10 374 58.5 373.5Q107 373 107 315Q106 231 156 180Q206 129 284 123Q334 121 385 157Q436 193 438 255Q438 255 434.5 289.5Q431 324 363 356Q299 386 220 391Q141 396 92 457Q65 491 56 541Q46 590 48.5 643Q51 696 62 746Q73 796 87 831Q95 852 123 875Q151 898 192 904.5Q233 911 283 894Q332 876 384 816Z" fill="#d28445" />
  </g>
</svg>