<?xml version="1.0" encoding="UTF-8"?>
<svg width="16" height="16" viewBox="0 0 16 16" xmlns="http://www.w3.org/2000/svg">
  <g transform="translate(0.013469655106705287, 14.986396484375) scale(0.015585937499999999, -0.015585937499999999)">
    <path d="M282 272L282 315L298 315Q301 295 313.5 287Q326 279 340 279Q355 279 366.5 287.5Q378 296 378 318Q378 341 358.5 351Q339 361 324 369Q310 377 296.5 390Q283 403 283 427Q283 452 302.5 465.5Q322 479 341 480Q360 481 369.5 479.5Q379 478 402 473L402 432L386 432Q382 450 371.5 458Q361 466 347 466Q334 466 323.5 457.5Q313 449 312 432Q312 416 322 407.5Q332 399 352 387Q373 375 389.5 363Q406 351 406 322Q405 291 386 277.5Q367 264 342 264Q324 264 310.5 266Q297 268 282 272ZM460 339Q463 320 473.5 301.5Q484 283 508 283Q532 283 545 297.5Q558 312 561 317L574 307Q568 295 549.5 277.5Q531 260 499 260Q467 260 447 287Q427 314 427 357Q427 378 444 404.5Q461 431 500 431Q539 431 550.5 402.5Q562 374 566 362L460 339ZM530 370Q526 383 517 400Q508 417 486 414Q465 411 460 390.5Q455 370 457 354L530 370ZM632 296Q632 281 638.5 278.5Q645 276 650 275L650 266L588 266L588 275Q591 276 598.5 278.5Q606 281 606 296L606 459Q605 465 602 471Q599 477 585 477L585 489L632 489ZM776 459L760 459Q759 460 756.5 467.5Q754 475 742 474Q729 474 724.5 464Q720 454 720 437L720 415L756 415L756 399L720 399L720 296Q720 282 726 279Q732 276 737 275L737 266L674 266L674 275Q680 276 686 279Q692 282 692 296L692 399L673 399L673 407Q692 410 690 417.5Q688 425 696 450Q704 474 722 481.5Q740 489 755 489Q771 489 773.5 488Q776 487 776 487L776 459ZM164 324L145 353L266 311L159 239L171 273Q16 280 3 327Q-10 373 68 431.5Q146 490 291 547Q435 604 595 633Q755 661 863 657Q970 653 1007 622.5Q1044 592 999 538Q954 485 809 415L823 450L790 464Q927 536 940 577Q952 618 889 632Q826 646 711 635Q596 625 480 595Q363 565 262 522Q161 479 106 438.5Q51 398 58 366Q65 333 164 324Z" fill="#46788d" />
  </g>
</svg>