<?xml version="1.0" encoding="UTF-8"?>
<svg width="16" height="16" viewBox="0 0 16 16" xmlns="http://www.w3.org/2000/svg">
  <g transform="translate(1.0798437500000002, 14.9825) scale(0.015585937499999999, -0.015585937499999999)">
    <path d="M444 960L0 704L0 192L444 -64L888 192L888 704ZM701 128Q687 187 632 220Q577 253 530 302Q552 247 582 192Q612 137 599 69L444 -20L283 72Q328 114 329 177.5Q330 241 349 307Q312 261 279.5 207.5Q247 154 182 131L38 214L38 391Q98 368 155.5 400Q213 432 282 448Q221 458 156 459.5Q91 461 38 512L38 682L183 766Q195 704 251 671Q307 638 355 587Q333 644 302 699.5Q271 755 287 826L444 916L609 821Q558 781 557 714.5Q556 648 536 580Q575 629 608.5 684.5Q642 740 715 760L850 682L850 505Q790 529 732 496.5Q674 464 605 448Q666 438 731 436.5Q796 435 850 384L850 214L701 128ZM392 359Q341 389 341 448Q341 507 392 537Q444 566 495.5 536.5Q547 507 547 448Q547 389 495.5 359.5Q444 330 392 359ZM516 448Q516 489 480 510Q444 531 408 510Q372 490 372 448Q372 406 408 386Q444 365 480 386Q516 407 516 448Z" fill="#7f7f7f" />
  </g>
</svg>