<?xml version="1.0" encoding="UTF-8"?>
<svg width="16" height="16" viewBox="0 0 16 16" xmlns="http://www.w3.org/2000/svg">
  <g transform="translate(2.712693025056306, 14.9825) scale(0.015585937499999999, -0.015585937499999999)">
    <path d="M417 -64Q489 -19 493.5 52.5Q498 124 452 169Q430 191 384 214Q338 236 284.5 262Q231 288 179 318Q126 348 91 384Q39 439 15 518Q-10 597 5 679Q20 761 81 837Q141 912 259 960Q183 904 184.5 837Q186 770 233 721Q246 708 313.5 676.5Q381 645 449 612Q516 580 568 530Q620 480 649 418Q678 356 679 284Q680 212 644 135Q605 52 539.5 6Q474 -40 417 -64Z" fill="#b2c38b" />
  </g>
</svg>