<?xml version="1.0" encoding="UTF-8"?>
<svg width="16" height="16" viewBox="0 0 16 16" xmlns="http://www.w3.org/2000/svg">
  <g transform="translate(0.014821777343749882, 14.982677112926137) scale(0.015585937499999999, -0.015585937499999999)">
    <path d="M497 822L399 651Q482 595 548 521Q614 447 658.5 361Q703 275 724 181Q744 87 738 -8L489 -8Q491 58 480 121Q468 184 441 240.5Q414 297 373 347Q331 397 274 437L224 349Q265 320 297 282Q329 243 350.5 197.5Q372 152 382 100Q393 48 389 -7L89 -7Q30 -3 9.5 42Q-11 87 12 131L73 236L137 199L77 95Q73 85 75.5 77Q78 69 92 67L312 67Q301 149 256 213Q211 277 123 323L248 540Q324 500 382 445Q440 390 479 327Q518 264 539 197Q559 130 562 67L662 67Q657 156 630 238Q602 319 555 390.5Q508 462 443 521Q378 581 297 624L434 862Q464 903 512.5 904Q561 905 590 862L1012 130Q1039 78 1009 35.5Q979 -7 927 -7L833 -7L833 67L929 67Q941 67 946.5 75Q952 83 946 95L527 822Q521 829 512 829Q503 829 497 822Z" fill="#ac4142" />
  </g>
</svg>