<?xml version="1.0" encoding="UTF-8"?>
<svg width="16" height="16" viewBox="0 0 16 16" xmlns="http://www.w3.org/2000/svg">
  <g transform="translate(1.0954296875000002, 14.9825) scale(0.015585937499999999, -0.015585937499999999)">
    <path d="M443 960L0 704L0 192L444 -64L886 191L886 705L443 960ZM98 243L98 647L443 850L790 652L790 246L445 42L98 243ZM275 343L275 199L150 268L150 416L275 343ZM298 565L408 630L283 703L172 638ZM447 610L335 543L449 478L561 543L447 610ZM426 440L314 504L314 371L426 309L426 440ZM591 561L714 633L601 700L478 627L591 561ZM562 720L436 794L313 721L439 648L562 720ZM150 599L150 464L275 396L275 527ZM609 338L609 194L736 269L736 416L609 338ZM609 520L609 390L736 465L736 594L609 520ZM470 438L470 309L583 375L583 504L470 438ZM470 259L470 112L583 179L583 321L470 259ZM426 259L314 322L314 174L426 113Z" fill="#46788d" />
  </g>
</svg>