<?xml version="1.0" encoding="UTF-8"?>
<svg width="16" height="16" viewBox="0 0 16 16" xmlns="http://www.w3.org/2000/svg">
  <g transform="translate(0.5075423437500001, 14.548843664701149) scale(0.01462890625, -0.01462890625)">
    <path d="M1014 583Q987 658 912 680.5Q837 703 775 661L665 753Q687 826 642.5 892Q598 958 517 960Q475 961 441 943Q406 925 384 895.5Q362 866 355 829Q347 791 359 753L248 661Q185 704 109 679.5Q33 655 8 577Q-15 505 24.5 444Q64 383 132 371L175 217Q117 168 120 89Q123 10 190 -36Q256 -81 330 -55.5Q404 -30 430 40L594 40Q607 4 635 -21Q663 -47 698 -57.5Q733 -68 771 -62Q809 -56 841 -31Q905 18 903.5 96Q902 174 845 220L889 370Q960 381 1000.5 445.5Q1041 510 1014 583ZM587 128L437 128Q424 190 371 227Q318 264 256 254L221 380Q284 406 309 470Q334 534 306 595L407 679Q451 640 511.5 640Q572 640 617 679L718 595Q690 534 714.5 470.5Q739 407 801 381L763 255Q702 263 651 226Q600 189 587 128Z" fill="#e1ad83" />
  </g>
</svg>