<?xml version="1.0" encoding="UTF-8"?>
<svg width="16" height="16" viewBox="0 0 16 16" xmlns="http://www.w3.org/2000/svg">
  <g transform="translate(0.5904589843750001, 14.552449652777778) scale(0.01462890625, -0.01462890625)">
    <path d="M418 960L103 812Q75 797 83 773Q91 749 130 726L372 581Q376 561 364 542Q352 523 332 519Q268 557 204.5 595.5Q141 634 77 670Q4 694 3 645Q2 596 2 556L21 294Q25 264 49.5 261.5Q74 259 109 280L306 399Q323 392 337 375Q351 358 350 339L114 195Q100 183 99.5 161Q99 139 118 129Q152 105 186 81Q221 57 255.5 33Q290 9 325 -15Q359 -39 394 -62Q415 -69 435.5 -53.5Q456 -38 454 -15L459 283Q473 301 497.5 300.5Q522 300 538 283L535 -11Q538 -56 576 -56Q614 -56 645 -32L885 132Q919 162 901.5 182Q884 202 860 215L656 329Q652 349 662 370.5Q672 392 694 397L929 263Q944 257 962.5 260Q981 263 981 285Q986 329 990 375Q994 421 998 466.5Q1002 512 1005 556Q1008 600 1011 640Q1003 660 979.5 667.5Q956 675 937 663L677 517Q665 528 645.5 549Q626 570 654 584L901 723Q938 749 920 779Q902 809 874 823L598 956Q560 963 551 946.5Q542 930 540 906L542 656Q526 643 503.5 643Q481 643 466 658L466 920Q461 935 448 947.5Q435 960 418 960ZM374 823Q375 794 375.5 766Q376 738 376 709Q349 726 322 742Q295 758 268 774Q295 788 321 801.5Q347 815 374 829L374 823ZM747 768L634 706L638 823ZM573 470Q579 465 573.5 460Q568 455 564 452Q550 440 544.5 422Q539 404 539 386Q527 403 505.5 407Q484 411 469 396Q464 392 462 399Q460 406 460 410Q458 428 447.5 442Q437 456 423 466Q438 475 449.5 488.5Q461 502 463 521Q468 526 474 522.5Q480 519 486 516Q502 511 518.5 514Q535 517 549 525Q540 504 549.5 489.5Q559 475 573 470ZM219 452L116 396L110 518ZM890 392L782 447L895 510ZM344 101L244 164L346 233ZM753 165L651 99L653 227Z" fill="#d28445" />
  </g>
</svg>