<?xml version="1.0" encoding="UTF-8"?>
<svg width="16" height="16" viewBox="0 0 16 16" xmlns="http://www.w3.org/2000/svg">
  <g transform="translate(0.017789713541668035, 14.98694598858173) scale(0.015585937499999999, -0.015585937499999999)">
    <path d="M357 936Q275 910 211 863Q147 815 101.5 754Q56 693 31 621Q6 549 1 474Q-6 381 23 292Q52 204 109.5 131.5Q167 59 250 9Q332 -42 431 -58Q526 -73 620 -52Q714 -31 793.5 20.5Q873 72 931 152Q989 233 1012 338Q1043 482 998 610Q952 738 856.5 825Q761 912 629 946Q497 980 357 936ZM971 355Q930 395 883 420.5Q836 446 786 455Q794 532 836 571.5Q878 611 946 624Q971 563 978.5 494.5Q986 426 971 355ZM370 894Q460 923 547 915Q633 908 708.5 872.5Q784 837 843 778Q903 718 938 642Q858 626 816 579.5Q774 533 766 459Q737 463 704 460.5Q671 458 638 449Q608 471 570 483Q531 495 495.5 507Q460 519 433 536Q407 553 402 585Q395 641 431.5 671Q468 701 507 701Q557 701 584 673Q611 645 611 575L652 575Q660 665 612.5 704.5Q565 744 508 742Q414 739 385 680Q356 621 360 582Q367 506 443 483.5Q519 461 585 430Q555 416 528 396.5Q501 377 478 353Q429 388 378 414Q326 439 272 455Q218 471 161 478Q105 486 46 485Q51 552 75 616Q99 680 140.5 734Q182 788 240 829Q297 871 370 894ZM511 194Q480 195 457.5 201.5Q435 208 419 218Q441 284 490 337Q539 390 608 418Q643 397 654 359Q665 321 653 284Q641 247 605 220Q569 193 511 194ZM44 465Q109 465 166 457Q224 448 276 432Q328 416 375 392Q422 369 465 338Q444 314 428.5 287Q413 260 402 231Q369 263 368 300Q367 337 367 337L325 337Q323 286 340.5 248.5Q358 211 390 188Q380 139 384.5 89.5Q389 40 409 -9Q315 12 246 62Q176 111 130 176Q84 241 63 316Q41 391 44 465ZM433 -14Q412 33 405.5 81.5Q399 130 408 177Q430 165 456.5 159Q483 153 512 153Q579 153 623 182Q667 211 686 253.5Q705 296 698 345Q691 393 656 433Q700 443 742 441Q785 438 824.5 424.5Q864 411 900 387Q936 363 966 332Q942 238 888 167Q834 96 761 51Q688 6 603 -11Q518 -29 433 -14Z" fill="#75b5aa" />
  </g>
</svg>