<?xml version="1.0" encoding="UTF-8"?>
<svg width="16" height="16" viewBox="0 0 16 16" xmlns="http://www.w3.org/2000/svg">
  <g transform="translate(-0.47165429687500193, 15.412144214527027) scale(0.016542968749999998, -0.016542968749999998)">
    <path d="M944 461Q949 449 941.5 443Q934 437 926 452Q866 563 820 562.5Q774 562 684 556L695 580Q769 583 823 585.5Q877 588 944 461ZM1010 527Q1001 550 972 567.5Q943 585 922 598Q908 624 878 650Q848 676 812.5 695.5Q777 715 741 724Q706 733 683 725Q687 712 689 698.5Q691 685 692 672Q771 687 828.5 658Q886 629 945 548Q949 543 946.5 536Q944 529 941 534Q892 605 832.5 641Q773 677 692 651Q691 623 681 596Q671 569 659 544Q668 492 657 426Q646 360 624 286Q669 324 725 340Q781 355 835.5 347.5Q890 340 936 308Q982 277 1007 220Q1014 256 1018 301Q1023 345 1024 388.5Q1025 432 1021 469Q1018 506 1010 527ZM935 329Q884 387 812.5 390.5Q741 394 690 386Q680 385 684 394.5Q688 404 698 409Q732 417 798.5 416.5Q865 416 936 352Q945 336 942.5 333Q940 330 935 329ZM962 361Q929 417 855 436Q781 455 699 441Q695 444 694.5 448.5Q694 453 703 463Q797 476 862.5 460Q928 444 966 383Q971 367 970 362.5Q969 358 962 361ZM996 182Q970 261 917 295Q864 329 805 330Q746 331 693 306Q639 281 613 242Q602 224 597 209Q592 194 592 181L604 95Q619 60 681 26Q743 -8 781 -8Q907 5 955.5 63Q1004 121 996 182ZM575 212Q599 286 615.5 363Q632 440 629 495Q606 461 570 433Q534 405 492 392Q505 380 521.5 369.5Q538 359 559 350Q568 345 563.5 336.5Q559 328 551 332Q525 344 505 357.5Q485 371 470 386Q449 382 404.5 383.5Q360 385 338 389Q312 352 300.5 330Q289 308 260 269L227 212Q236 182 246 159.5Q256 137 270 117Q295 87 357 50Q419 13 441 13Q456 13 474 33Q492 54 510 84Q528 114 545 149Q562 183 575 212ZM443 134Q408 161 363.5 186.5Q319 212 331 250Q334 259 343 257Q352 255 350 245Q342 220 378.5 199.5Q415 179 454 150Q462 144 456.5 136.5Q451 129 443 134ZM488 226L401 297Q394 304 400 311Q406 318 414 312L501 241Q508 234 502.5 227Q497 220 488 226ZM30 694Q45 698 51.5 718Q58 738 62 763L24 765Q6 765 10.5 739.5Q15 714 30 694ZM74 623Q104 671 112 705.5Q120 740 106 760L81 762Q78 735 70 710.5Q62 686 41 677Q49 664 57.5 650.5Q66 637 74 623ZM105 484Q110 459 118 434Q126 409 138 383L188 468Q167 455 146.5 459.5Q126 464 105 484ZM98 518Q109 501 126 487.5Q143 474 163 481Q170 484 176.5 489.5Q183 495 189 503Q149 558 140.5 624.5Q132 691 158 755L129 758Q141 731 129.5 692.5Q118 654 84 603Q84 586 87 559Q90 532 98 518ZM292 871Q239 840 209 792Q179 743 172 689.5Q165 636 181 582Q197 529 236 487L0 85L85 35L317 430Q375 404 436 411Q496 418 545.5 450Q595 482 626 536Q657 589 657 657Q657 728 622 784Q588 839 535 870.5Q482 902 417 904Q352 906 292 871ZM311 477Q260 507 235 556Q210 604 210 656.5Q210 709 235 758Q260 807 311 837Q362 867 416 865Q471 863 515.5 836.5Q560 810 589 763Q617 717 617 657Q617 597 589 550Q560 503 515.5 477Q471 451 416 449Q362 447 311 477Z" fill="#be7953" />
  </g>
</svg>