<?xml version="1.0" encoding="UTF-8"?>
<svg width="16" height="16" viewBox="0 0 16 16" xmlns="http://www.w3.org/2000/svg">
  <g transform="translate(0.008367729397767865, 14.9825) scale(0.015585937499999999, -0.015585937499999999)">
    <path d="M701 721Q701 721 715.5 768Q730 815 723 853Q717 891 693.5 923.5Q670 956 670 956L761 926L905 960Q906 943 883 937Q860 931 839 916Q795 883 791 812.5Q787 742 787 720Q813 711 833 681.5Q853 652 853 537Q853 526 861 508.5Q869 491 876 477Q901 431 913 397.5Q925 364 928 340Q932 307 925.5 290Q919 273 915 273Q890 272 870.5 283Q851 294 813 323Q772 353 749 361Q726 369 726 369Q732 336 740 307.5Q748 279 763 265Q763 265 772.5 263.5Q782 262 801 265Q838 272 873.5 261.5Q909 251 930 222Q946 199 962.5 151.5Q979 104 905 41Q872 13 832 2Q793 -9 758.5 -11.5Q724 -14 701 -11Q678 -8 678 -8Q650 -36 606 -50Q563 -64 515 -64Q467 -64 422 -50Q376 -36 345 -7Q298 -17 253 -12Q207 -7 169 9.5Q131 26 104 52Q76 79 65 112Q51 153 76 195Q101 237 125 253Q147 266 184 268.5Q221 271 268 264Q306 258 351 247Q395 235 442.5 221Q490 207 540 193Q589 178 636 166Q601 185 561 203Q521 221 476.5 238.5Q432 256 383 273Q335 290 284 307L297 368Q223 346 186.5 306Q150 266 107 274Q96 289 94.5 315Q93 341 103 373Q116 414 139 459Q162 504 172 536Q168 619 184 664Q200 709 237 722Q239 755 237 787.5Q235 820 227 851Q215 896 188.5 912.5Q162 929 140 938Q118 946 120 953Q122 960 122 960L257 928L269 928L354 957Q354 957 325 916.5Q296 876 298 832Q298 803 309.5 773.5Q321 744 321 723Q334 716 350 706.5Q366 697 366 697L411 697Q411 697 399.5 726.5Q388 756 391 789Q393 817 408 839Q423 861 455 867Q461 867 467 879Q473 891 501 892Q543 894 555 880.5Q567 867 567 867Q567 867 589.5 860Q612 853 626 820Q641 788 627 742.5Q613 697 613 697L661 697L701 721Z" fill="#4d9085" />
  </g>
</svg>