<?xml version="1.0" encoding="UTF-8"?>
<svg width="16" height="16" viewBox="0 0 16 16" xmlns="http://www.w3.org/2000/svg">
  <g transform="translate(0.02141690340909186, 14.98583984375) scale(0.015585937499999999, -0.015585937499999999)">
    <path d="M1023 359Q1026 324 1018 281Q1011 237 989.5 193.5Q968 150 931 111Q893 73 836 49Q749 43 659 40Q569 36 481.5 35.5Q394 35 312 38Q229 42 158 51Q134 58 107 86Q80 115 56 157Q32 199 16 250Q0 301 0 354Q37 310 94 279Q150 249 215 229.5Q280 210 349 202Q419 193 483 194Q547 195 612 203Q677 210 744.5 229Q812 248 881 279Q951 311 1023 359ZM486 861Q501 815 507 743Q514 671 514 586Q514 501 509 408Q504 315 497 227Q524 224 567 228Q610 233 658.5 243Q707 253 756 268Q806 283 846 300Q791 399 734 497Q677 594 628 673Q579 752 541 803Q503 855 486 861ZM790 304Q765 296 740 290.5Q715 285 688 285Q679 341 659 411Q638 482 618.5 542.5Q599 603 587 643Q575 682 582 677Q596 661 622 622Q648 583 678 533Q708 483 739 427Q770 370 795 319Q797 314 796.5 310Q796 306 790 304ZM471 732Q466 767 429 726Q392 684 342.5 608Q293 532 241 443Q189 355 154 296Q169 283 206 270Q243 256 289 246Q335 236 383 230Q431 224 467 226Q471 301 475 377Q479 452 481 519.5Q483 587 481 642Q479 697 471 732ZM326 286Q325 279 321 277Q317 275 312 276Q291 281 270.5 286Q250 291 231 300Q221 305 218.5 312Q216 319 221 329Q254 391 288 448.5Q322 506 357 556Q361 554 359 530Q358 505 353 467Q348 429 341 381Q334 334 326 286Z" fill="#d28445" />
  </g>
</svg>