<?xml version="1.0" encoding="UTF-8"?>
<svg width="16" height="16" viewBox="0 0 16 16" xmlns="http://www.w3.org/2000/svg">
  <g transform="translate(0.5197526041666674, 14.549361328125) scale(0.01462890625, -0.01462890625)">
    <path d="M1005 504Q990 564 922 594Q854 624 783 591Q777 590 780 595.5Q783 601 791 603Q860 612 910.5 666Q961 720 966 823Q966 823 933 838Q899 853 848 865Q797 877 738 877Q679 877 627 846Q623 836 590.5 854Q558 872 468 878Q440 879 434.5 899Q429 919 424 922Q413 911 407 897Q401 883 400 866Q385 869 372 876Q359 883 356 910Q346 910 339 883Q332 856 340 842Q326 832 320.5 835Q315 838 304 846Q261 876 217 882Q173 889 132.5 881.5Q92 874 58 858Q24 842 0 828Q-1 793 9 756Q19 718 40.5 686Q62 654 96 632Q130 609 176 606Q199 537 245 483Q291 429 352 391Q332 355 313 317Q295 280 276.5 243.5Q258 207 240 172Q222 137 204 107Q204 100 191 103Q178 106 172 99Q169 96 168 95Q167 94 164 91Q164 86 155 87Q146 88 144 91Q140 91 137 91Q134 91 133 89Q130 83 133.5 78.5Q137 74 140 71Q119 73 115.5 64Q112 55 120 51Q152 53 152 47.5Q152 42 164 39L124 39Q116 39 107.5 34Q99 29 100 23Q100 16 103.5 11.5Q107 7 112 11Q119 16 131.5 18Q144 20 164 19Q157 14 154 7Q151 0 152 -9Q152 -15 159 -16.5Q166 -18 168 -9Q172 2 182.5 9.5Q193 17 208 19Q217 19 220.5 39Q224 59 228 63Q237 75 248 87Q259 99 268 111Q264 101 261.5 94.5Q259 88 260 84Q263 69 275 60.5Q287 52 304 51Q339 44 359.5 41.5Q380 39 392 31Q380 22 373.5 22.5Q367 23 359 12Q357 6 362.5 0Q368 -6 380 -5Q379 -20 385 -22Q391 -24 398 -19Q403 -15 407 -7Q411 1 428 7Q431 10 436 13Q441 16 444 19Q448 14 456.5 15Q465 16 484 15Q506 -1 512 -1Q518 -1 540 -25Q543 -29 550 -23Q557 -17 556 -5Q571 -7 572.5 1.5Q574 10 566 16Q559 20 548 23.5Q537 27 532 31Q636 45 651.5 58Q667 71 667 79Q675 79 680 78.5Q685 78 689 75Q698 67 700.5 49.5Q703 32 711 23Q717 13 729.5 16Q742 19 763 -5Q765 -13 772 -12.5Q779 -12 779 -5Q779 5 776.5 11Q774 17 767 23Q788 23 797 22.5Q806 22 819 15Q827 12 829.5 16.5Q832 21 831 31Q828 37 822.5 40Q817 43 811 43Q802 43 786.5 43Q771 43 771 43Q774 46 779.5 48Q785 50 792 54Q796 57 802 55.5Q808 54 819 58Q826 61 823 69Q820 77 807 79Q863 84 920 109Q976 134 1004 170Q1032 206 1018 250Q1004 294 919 339Q874 363 847.5 383.5Q821 404 831 425Q851 474 895.5 450.5Q940 427 1005 504Z" fill="#75b5aa" />
  </g>
</svg>