<?xml version="1.0" encoding="UTF-8"?>
<svg width="16" height="16" viewBox="0 0 16 16" xmlns="http://www.w3.org/2000/svg">
  <g transform="translate(1.3950488281249998, 14.55375) scale(0.01462890625, -0.01462890625)">
    <path d="M644 830L699 775L782 768Q785 768 787.5 766Q790 764 791 760L903 2L600 -64L644 830ZM572 -64L0 43L78 645Q81 665 85.5 670Q90 675 111 682L204 710Q211 742 227 785Q243 828 269.5 867Q296 906 333 933Q370 960 420 960Q433 960 447 952.5Q461 945 473 929Q518 931 545 899.5Q572 868 585 828L616 838L572 -64ZM455 887Q431 877 406 847.5Q381 818 366 761L469 792Q469 826 465 849Q461 872 455 887ZM245 723L326 748Q340 823 370.5 863.5Q401 904 433 919Q429 922 424.5 923Q420 924 416 924Q380 924 352 904Q324 883 303 852.5Q282 822 268 787Q253 752 245 723ZM478 593Q478 593 458 600.5Q438 608 398 608Q294 608 242 550Q190 492 190 420Q190 334 247 309.5Q304 285 304 234Q304 221 294.5 207.5Q285 194 263 194Q229 194 197 216.5Q165 239 165 239L138 150Q138 150 176.5 119Q215 88 290 88Q353 88 394.5 131.5Q436 175 436 249Q436 342 367 374.5Q298 407 298 447Q298 454 307 474.5Q316 495 362 495Q394 495 416.5 486Q439 477 439 477L478 593ZM503 803L553 818Q543 847 528.5 869Q514 891 492 894Q498 874 501 851Q504 828 503 803Z" fill="#90a959" />
  </g>
</svg>