<?xml version="1.0" encoding="UTF-8"?>
<svg width="16" height="16" viewBox="0 0 16 16" xmlns="http://www.w3.org/2000/svg">
  <g transform="translate(0.023224676724137923, 14.9825) scale(0.015585937499999999, -0.015585937499999999)">
    <path d="M4 557Q14 579 33.5 609.5Q53 640 53 640Q53 640 68.5 659Q84 678 83 642Q83 631 83 615.5Q83 600 88 595Q97 584 117.5 570Q138 556 166 543Q179 537 199 528Q219 519 227 520L518 912Q518 912 524 918.5Q530 925 535 925Q540 925 544.5 923Q549 921 552 915Q554 912 553.5 901.5Q553 891 553 884Q553 868 554 801Q555 734 556 660.5Q557 587 557 528Q558 469 558 469Q558 469 599 470.5Q640 472 693 486Q752 500 809 524Q866 548 871 554Q873 557 873.5 559.5Q874 562 873 564Q871 568 863.5 568.5Q856 569 851 570Q848 570 848.5 571.5Q849 573 851 575Q859 582 884.5 588.5Q910 595 936 606Q967 619 991.5 631Q1016 643 1018 644Q1021 645 1022 644.5Q1023 644 1023 643Q1024 642 1024 641Q1024 640 1022 637Q1019 634 1000.5 610Q982 586 960 560Q938 533 919 513Q900 493 898 493Q894 492 893 495Q892 498 892 498Q892 498 892 510.5Q892 523 888 522Q881 520 852.5 503Q824 486 775 469Q766 465 754 463.5Q742 462 736 459Q724 453 711.5 451.5Q699 450 688 447Q643 434 610 432Q577 430 573 430Q562 429 560 419Q558 409 558 409L553 70Q553 70 554.5 66Q556 62 564 68Q572 73 582 81Q592 89 598 96Q603 103 609 104Q615 105 617 104Q621 101 624.5 97Q628 93 628 88Q628 85 608 63Q588 41 564 18Q543 -3 525 -16Q507 -29 507 -29Q507 -29 495 -27Q483 -25 486 -2Q487 10 487 77Q488 144 487.5 220Q487 296 487 357Q487 419 487 419Q487 419 483 424.5Q479 430 462 430Q450 430 423.5 430.5Q397 431 344 443Q323 447 297.5 454Q272 461 241 472Q170 499 137 517Q104 535 88 544Q83 548 72 550.5Q61 553 49 553Q37 552 27 550Q17 548 14 544Q9 538 2.5 539.5Q-4 541 4 557ZM357 481Q393 474 440 473.5Q487 473 487 473Q487 473 487 521Q488 569 488.5 627Q489 685 489 735Q489 784 488 788Q485 794 473 776.5Q461 759 461 759L269 503Q269 503 295 495Q321 487 357 481Z" fill="#be2f31" />
  </g>
</svg>