<?xml version="1.0" encoding="UTF-8"?>
<svg width="16" height="16" viewBox="0 0 16 16" xmlns="http://www.w3.org/2000/svg">
  <g transform="translate(0.5682862519054888, 14.55375) scale(0.01462890625, -0.01462890625)">
    <path d="M115 712L477 960Q518 900 505 828.5Q492 757 432 716L214 567Q179 542 176 507Q173 473 190.5 446Q208 419 242 409Q275 398 313 421L458 521Q499 461 486 389Q473 317 412 276Q291 205 192 237Q93 270 42 351.5Q-9 433 3 537Q14 640 115 712ZM603 620Q543 579 529.5 507Q516 435 557 375L702 475Q740 498 773 488Q806 478 824 452Q842 426 839 391Q836 356 802 329L584 180Q524 139 510.5 67.5Q497 -4 538 -64L901 184Q1004 259 1014 363Q1023 467 970.5 547.5Q918 628 819 659Q719 691 603 620Z" fill="#6a9fb5" />
  </g>
</svg>