<?xml version="1.0" encoding="UTF-8"?>
<svg width="16" height="16" viewBox="0 0 16 16" xmlns="http://www.w3.org/2000/svg">
  <g transform="translate(0.9561816406250001, 14.55375) scale(0.01462890625, -0.01462890625)">
    <path d="M111 348L229 -12L203 -19L211 -50L239 -42L246 -64L276 -54L269 -33L832 128L830 111L862 107L865 137L899 146L890 177L870 171L930 660L944 649L963 674L935 696L939 734L908 738L906 719L664 907L672 908L669 939L629 934L596 960L576 935L585 929L55 862L49 897L18 892L24 858L0 855L4 824L29 827L111 348ZM547 797L506 791L481 815L459 793L467 785L151 738L131 781L600 847L809 685L643 655L534 763L552 766L547 797ZM117 811L105 837L571 895L559 879L565 874L117 811ZM644 853L655 854L651 877L880 698L851 693L644 853ZM641 884L609 880L586 897L620 901ZM81 833L73 830L85 806L65 803L60 831L81 833ZM837 162L259 -3L142 356L70 772L98 776L118 733L85 728L90 697L132 703L145 676L173 690L165 708L495 757L605 648L577 643L583 612L632 621L654 599L676 622L670 628L843 660L870 639L889 664L885 667L898 670L895 687L901 682L837 162ZM671 502L637 495L534 618L553 622L547 653L511 646L490 672L466 652L476 640L176 585L163 616L134 604L144 579L111 573L116 542L157 549L181 492L146 485L152 454L193 462L205 433L234 446L225 469L373 500L407 446L378 440L384 409L424 417L443 388L470 404L457 424L625 460L644 437L668 458L660 468L677 472L671 502ZM439 453L406 507L430 511L423 542L389 535L372 562L345 545L356 528L212 498L189 555L499 612L602 488L439 453ZM483 289L453 281L417 344L444 351L436 381L401 372L387 396L360 381L369 364L238 330L227 360L198 349L207 322L170 313L178 282L218 293L242 229L210 221L217 190L253 199L261 176L290 187L283 207L438 245L451 221L478 237L469 253L490 258L483 289ZM272 236L249 300L386 336L421 273L272 236Z" fill="#be2f31" />
  </g>
</svg>