<?xml version="1.0" encoding="UTF-8"?>
<svg width="16" height="16" viewBox="0 0 16 16" xmlns="http://www.w3.org/2000/svg">
  <g transform="translate(0.5099999999999998, 14.55375) scale(0.01462890625, -0.01462890625)">
    <path d="M479 -33L196 501L5 649L479 -33ZM1021 649L830 501L547 -33L1021 649ZM782 496L242 496L512 -36L782 496ZM204 542L0 697L124 843L300 756L204 542ZM335 742L242 534L782 534L689 742L335 742ZM820 542L1024 697L900 843L724 756L820 542ZM689 780L335 780L163 865L319 932L705 932L861 865Q861 865 834 852Q807 839 775 823Q743 807 716 793Q689 780 689 780Z" fill="#d28445" />
  </g>
</svg>