<?xml version="1.0" encoding="UTF-8"?>
<svg width="16" height="16" viewBox="0 0 16 16" xmlns="http://www.w3.org/2000/svg">
  <g transform="translate(0.5099999999999998, 14.55375) scale(0.01462890625, -0.01462890625)">
    <path d="M722 915L0 733L170 -19L1024 244L722 915ZM931 288L816 254L785 426L759 420L632 736L727 761ZM721 777L625 752L593 831L687 855L721 777ZM576 826L607 747L259 656L252 678L97 604L74 698L576 826ZM226 75L147 396L468 485L571 180L226 75ZM548 620L121 504L97 603L270 618L263 638L613 731L739 413L712 405L814 253L696 217L548 620ZM297 204Q247 232 249.5 289Q252 346 303 374Q354 401 404 378Q454 355 457 292Q460 233 403.5 204Q347 175 297 204ZM442 295Q438 348 396 367Q354 386 310 363Q265 339 265 289Q265 239 308 214Q349 192 398 216Q447 240 442 295ZM323 238L332 331L352 337L408 265L393 257L376 277L342 267L340 243L323 238ZM342 281L369 289L345 320L342 281Z" fill="#be2f31" />
  </g>
</svg>