<?xml version="1.0" encoding="UTF-8"?>
<svg width="16" height="16" viewBox="0 0 16 16" xmlns="http://www.w3.org/2000/svg">
  <g transform="translate(0.5114628906249994, 14.55375) scale(0.01462890625, -0.01462890625)">
    <path d="M198 143Q198 143 204 147Q210 151 215 146Q215 146 215.5 145.5Q216 145 216 144L860 787Q860 787 860 787.5Q860 788 860 788Q863 790 872.5 810Q882 830 878 830L820 775Q816 773 813.5 771.5Q811 770 809 770Q793 757 766 728.5Q739 700 698 656L808 776Q811 781 817.5 789Q824 797 826 801Q835 812 846 822Q857 832 857 832L849 833Q849 833 841.5 826Q834 819 830 815Q826 811 822 811Q818 811 818 811Q805 796 785 782Q765 768 765 768L795 816Q795 816 765 791.5Q735 767 695 738Q655 710 616 686.5Q577 663 567 657Q550 646 560.5 662.5Q571 679 573 691Q573 691 554.5 666.5Q536 642 512 621Q485 598 509 632Q533 666 533 666L26 155L21 146Q21 146 53.5 177.5Q86 209 93 208Q94 208 94.5 208Q95 208 96 207L96 207L223 330Q180 287 145 252.5Q110 218 97 207Q100 204 99 199Q98 194 95 191Q91 186 61 157Q31 128 27 124Q23 121 22.5 118Q22 115 22 115Q23 112 38.5 126Q54 140 57 142Q60 144 30 111.5Q0 79 0 79L10 84Q10 84 30 103.5Q50 123 54 118Q58 113 47 102.5Q36 92 36 92Q36 84 25.5 73Q15 62 1 50Q1 50 2.5 49Q4 48 9 51Q12 53 31 72Q51 90 73.5 111.5Q96 133 114 151Q132 168 132 168Q132 168 152 181.5Q172 195 232 254Q232 254 191 209.5Q150 165 146 159Q134 143 106.5 118Q79 93 79 93L78 77L29 27L29 22L162 146L226 208L166 138L284 249L32 -8Q32 -8 37.5 -4.5Q43 -1 50 1Q57 3 110 54.5Q163 106 198 143ZM281 391L420 530Q420 530 399 507.5Q378 485 326 433L281 391ZM1022 889Q1021 886 998 856Q975 825 948 790Q921 755 899 726Q877 697 877 697Q877 697 859 673Q840 650 815 615.5Q790 581 763 543Q736 504 720 474Q706 457 690 443.5Q674 430 667 422Q661 415 658 420.5Q655 426 652 422Q650 420 591 360Q532 299 462 227.5Q392 156 333 97Q275 37 275 37L379 170L210 -3L210 1L297 119L155 -21L179 20L124 -26L357 234Q357 234 321 196Q285 158 241.5 113.5Q198 69 162 34Q126 -2 127 1Q128 8 157 48.5Q186 89 186 89Q186 89 144.5 47Q103 5 94 -3Q85 -11 80.5 -7.5Q76 -4 76 -4Q76 -4 101.5 22Q127 48 157 78Q175 97 192 114Q209 131 214 140L862 786Q866 786 873 789.5Q880 793 891 806Q909 825 921.5 838Q934 851 934 851L950 853L1009 922Q1009 922 1014 922Q1019 922 1019 918Q1019 913 1022 914.5Q1025 916 1022 911Q1019 906 1016.5 901.5Q1014 897 1018 897Q1021 898 1023 896Q1025 894 1022 889Z" fill="#46788d" />
  </g>
</svg>