<?xml version="1.0" encoding="UTF-8"?>
<svg width="16" height="16" viewBox="0 0 16 16" xmlns="http://www.w3.org/2000/svg">
  <g transform="translate(3.7199999999999998, 13.350000000000001) scale(0.008359375, -0.008359375)">
    <path d="M736 960Q736 947 726.5 937.5Q717 928 704 928Q691 928 681.5 937.5Q672 947 672 960Q672 1006 618 1031Q564 1056 512 1056Q499 1056 489.5 1065.5Q480 1075 480 1088Q480 1101 489.5 1110.5Q499 1120 512 1120Q562 1120 611.5 1104Q661 1088 698.5 1050Q736 1012 736 960ZM896 960Q896 1032 861.5 1094Q827 1156 771.5 1195.5Q716 1235 648.5 1257.5Q581 1280 512 1280Q443 1280 375.5 1257.5Q308 1235 252.5 1195.5Q197 1156 162.5 1094Q128 1032 128 960Q128 859 196 780Q206 769 226.5 747Q247 725 257 714Q385 561 398 416L626 416Q639 561 767 714Q777 725 797.5 747Q818 769 828 780Q896 859 896 960ZM1024 960Q1024 805 921 692Q876 643 846.5 605Q817 567 787 509.5Q757 452 753 402Q800 374 800 320Q800 283 775 256Q800 229 800 192Q800 140 755 111Q768 88 768 64Q768 18 736.5 -7Q705 -32 659 -32Q639 -76 599 -102Q559 -128 512 -128Q465 -128 425 -102Q385 -76 365 -32Q319 -32 287.5 -7Q256 18 256 64Q256 88 269 111Q224 140 224 192Q224 229 249 256Q224 283 224 320Q224 374 271 402Q267 452 237 509.5Q207 567 177.5 605Q148 643 103 692Q0 805 0 960Q0 1059 44.5 1144.5Q89 1230 161.5 1286.5Q234 1343 325.5 1375.5Q417 1408 512 1408Q607 1408 698.5 1375.5Q790 1343 862.5 1286.5Q935 1230 979.5 1144.5Q1024 1059 1024 960Z" fill="#f4bf75" />
  </g>
</svg>