<?xml version="1.0" encoding="UTF-8"?>
<svg width="16" height="16" viewBox="0 0 16 16" xmlns="http://www.w3.org/2000/svg">
  <g transform="translate(-0.4760099139636063, 15.411249999999999) scale(0.016542968749999998, -0.016542968749999998)">
    <path d="M851 487Q864 512 876 522Q888 532 909 552Q864 545 813.5 500Q763 455 727 411Q688 363 646 302.5Q604 242 610 192Q619 233 640.5 241Q662 249 725 325Q758 366 791.5 402Q825 438 851 487ZM825 394Q792 351 753 295.5Q714 240 715 201Q735 225 758 251.5Q781 278 840 344Q861 373 898 420.5Q935 468 959 502Q917 487 880 451.5Q843 416 825 394ZM565 690Q568 679 559.5 667Q551 655 541 660Q535 673 545.5 689.5Q556 706 565 690ZM470 663Q464 681 478 702Q492 723 506 718Q503 728 501 742Q499 756 491 764Q471 784 448 746.5Q425 709 417 734Q433 750 452 770.5Q471 791 495 786Q526 781 518 755Q510 729 526 718Q531 713 536.5 721Q542 729 550 721Q543 701 529.5 697.5Q516 694 516 694Q514 687 508.5 672.5Q503 658 486 655Q480 653 476 655.5Q472 658 470 663ZM974 483Q961 443 929 394Q897 345 860 305Q843 286 812 257Q781 229 743.5 202.5Q706 176 666 158Q627 139 593 141Q561 143 549.5 171.5Q538 200 550 236Q561 271 589 321Q617 370 659 420.5Q701 471 755 516Q808 560 870 585Q896 597 932 599.5Q968 602 977 589Q991 570 987 540Q983 510 974 483ZM346 883Q323 869 305 854.5Q287 840 277 840Q260 840 240.5 840.5Q221 841 204 842Q204 823 208 803Q212 783 215 764Q231 728 243 710Q255 692 257 690Q268 685 275.5 691.5Q283 698 290 706Q302 727 312 747.5Q322 768 327 792Q338 795 335.5 786.5Q333 778 333 775Q324 750 314.5 721.5Q305 693 284 677Q273 668 258.5 668.5Q244 669 238 680Q235 685 226 695.5Q217 706 210 713Q187 690 166 666Q145 642 130 613Q82 625 48 613Q14 601 22 563Q25 553 38 544Q51 535 74 530Q28 485 11.5 411Q-5 337 37 307Q26 296 15.5 285Q5 274 2 260Q-4 242 5 234Q14 226 26 225Q50 221 68 229.5Q86 238 102 247Q139 226 168.5 223.5Q198 221 240 219Q244 218 252 209.5Q260 201 260 201Q260 201 238.5 203Q217 205 203 201Q182 194 169.5 178Q157 162 171 145Q191 121 227 113Q263 105 297 114Q320 90 310 58.5Q300 27 264 13Q296 15 327 36.5Q358 58 361 102Q361 119 352.5 131Q344 143 335 154Q335 154 340 180Q345 206 309 225Q322 228 343 236Q364 244 364 244Q378 229 396 224Q414 219 429 244Q436 259 424.5 270Q413 281 413 281L433 312Q465 282 478.5 238Q492 194 509 162Q542 112 593.5 113.5Q645 115 689 141Q737 170 778 203Q818 235 854 273.5Q890 312 921 357Q953 401 981 454Q996 481 1015.5 528.5Q1035 576 1015 610Q1003 626 978 633Q953 640 929 636Q886 626 838 627Q790 628 746.5 634.5Q703 641 669 652Q635 662 619 671Q617 671 621 683Q625 695 621 701Q626 705 630.5 707.5Q635 710 643 708Q657 701 674 702Q691 703 706 706Q698 723 688 750.5Q678 778 665 797L606 762Q582 825 514.5 836.5Q447 848 385 812Z" fill="#c97071" />
  </g>
</svg>