<?xml version="1.0" encoding="UTF-8"?>
<svg width="16" height="16" viewBox="0 0 16 16" xmlns="http://www.w3.org/2000/svg">
  <g transform="translate(3.666509915865385, 14.9825) scale(0.015585937499999999, -0.015585937499999999)">
    <path d="M384 24Q414 41 424 67Q434 93 443 135L474 232Q489 252 504.5 274Q520 296 525 308Q532 328 526 406Q520 484 515 531L556 644Q557 669 545 705Q533 740 514 782Q495 824 471 869Q447 915 424 960L382 664L362 632Q321 648 279.5 647Q238 646 196 632L176 664L134 960Q112 920 89 875Q65 829 45 785.5Q25 742 12 705Q-1 667 0 644L43 531Q38 484 31.5 406Q25 328 33 308Q38 296 53.5 273.5Q69 251 85 231L116 133Q123 88 135.5 63.5Q148 39 174 24Q176 -20 209 -42Q242 -64 280.5 -64Q319 -64 351 -41Q384 -19 384 24ZM327 426Q354 463 394.5 464Q435 465 401 426ZM325 402L345 402Q346 372 375.5 371Q405 370 407 402L433 402Q431 351 379.5 350.5Q328 350 325 402ZM166 388Q174 388 174.5 394Q175 400 171 402L187 402Q190 402 192 397.5Q194 393 193 389Q191 376 179.5 377Q168 378 166 388ZM126 402L146 402Q147 372 176.5 371Q206 370 208 402L234 402Q232 351 180.5 350.5Q129 350 126 402ZM253 20Q257 22 261 24Q265 26 268 29Q273 28 278.5 27.5Q284 27 290 29Q293 26 296.5 24Q300 22 305 20Q292 12 278 12.5Q264 13 253 20ZM157 426Q122 463 162.5 463.5Q203 464 231 426ZM61 601L42 651Q44 676 65.5 727.5Q87 779 111 828L120 768Q117 751 104 697Q91 643 61 601ZM168 92Q160 116 155.5 146.5Q151 177 151 214L117 256L166 270L221 333L229 174Q227 169 222.5 160Q218 151 218 146Q218 135 233 122Q248 109 261 100L260 81Q243 49 211 54.5Q179 60 168 92ZM217 13Q220 13 224 13Q228 13 232 14Q250 -9 282 -7Q314 -5 327 14Q330 13 334 13Q338 13 341 13Q329 -25 278 -24Q227 -23 217 13ZM407 214Q407 179 403 146.5Q399 114 390 92Q375 53 342.5 54Q310 55 298 81L296 101Q310 111 325 123.5Q340 136 340 146Q340 152 336 160.5Q332 169 329 174L338 333L392 270L441 256Q433 246 424.5 235.5Q416 225 407 214ZM497 602Q465 648 452.5 707Q440 766 439 773L447 828Q471 779 492.5 727.5Q514 676 516 651L497 602ZM365 388Q373 388 373.5 394Q374 400 370 402L386 402Q389 402 391 397.5Q393 393 392 389Q390 376 378.5 377Q367 378 365 388Z" fill="#825078" />
  </g>
</svg>