<?xml version="1.0" encoding="UTF-8"?>
<svg width="16" height="16" viewBox="0 0 16 16" xmlns="http://www.w3.org/2000/svg">
  <g transform="translate(2.950310546875001, 14.556652090713563) scale(0.01462890625, -0.01462890625)">
    <path d="M2 651Q3 658 13 705Q24 752 59 806.5Q94 861 161 907Q227 954 339 960Q399 963 450 947Q500 931 540.5 903.5Q581 876 610 840Q640 805 658 769Q682 719 685 670.5Q688 622 688 622Q690 585 667 559Q645 533 614 526.5Q583 520 551 537Q520 554 505 601Q494 641 481.5 694Q469 747 354 770Q324 776 268.5 744.5Q213 713 206 669L628 366Q681 333 687 294.5Q693 256 685 209Q680 181 656 132Q632 82 586 36Q540 -10 472 -41Q403 -71 308 -62Q214 -53 153 -9Q91 35 56.5 90Q22 145 10 200Q-1 255 3 286Q18 338 51 354Q84 371 116.5 363.5Q149 356 173 330Q196 304 193 271Q194 207 233 170Q272 133 322.5 125.5Q373 118 422 142Q471 165 492 223L53 538Q8 565 3.5 600.5Q-1 636 2 651Z" fill="#be2f31" />
  </g>
</svg>