<?xml version="1.0" encoding="UTF-8"?>
<svg width="16" height="16" viewBox="0 0 16 16" xmlns="http://www.w3.org/2000/svg">
  <g transform="translate(-0.07848307291666679, 15.411249999999999) scale(0.016542968749999998, -0.016542968749999998)">
    <path d="M526 523L501 526Q492 526 491 517Q490 508 499 507L524 505Q534 504 535 513.5Q536 523 526 523ZM541 546L516 548Q506 549 505.5 539.5Q505 530 514 529L539 527Q549 526 549.5 535.5Q550 545 541 546ZM843 722L830 724Q825 724 824.5 719Q824 714 829 714L843 712Q847 712 847.5 717Q848 722 843 722ZM851 734L838 735Q833 736 832.5 731Q832 726 837 725L850 724Q855 724 855.5 729Q856 734 851 734ZM223 291L209 292Q204 292 204 287.5Q204 283 208 282L222 281Q227 280 227.5 285Q228 290 223 291ZM231 302L217 304Q212 304 211.5 299Q211 294 216 294L230 293Q235 292 235 297Q235 302 231 302ZM188 576L129 692L224 676L316 494L295 462L274 502Q274 503 273 504Q272 505 270 505L223 509L208 538Q203 547 195 542.5Q187 538 191 530L200 511L93 520Q91 521 90 520Q89 519 88 518L1 389Q0 388 0 386.5Q0 385 1 384L36 314Q39 310 43 312Q47 314 45 319L14 380L64 371L112 276L86 237L55 298Q53 303 48.5 300.5Q44 298 46 294L81 225Q82 224 83 223.5Q84 223 85 222L166 215Q171 215 171.5 220Q172 225 167 225L95 232L121 270L227 260L254 217L189 223Q184 223 183.5 218.5Q183 214 188 213L263 207Q264 207 265.5 207.5Q267 208 268 209L292 245Q295 249 291 252Q287 255 284 251L264 221L236 265L288 341L342 337L296 268Q293 264 297 261.5Q301 259 304 263L355 338Q356 339 356 340.5Q356 342 355 343L333 388L418 380Q428 379 429 388Q430 397 420 399L322 407L304 443L332 484L534 466L585 384L463 395Q453 395 452.5 386Q452 377 461 376L603 364Q606 364 608 365Q610 366 611 368L658 436Q663 445 655 449.5Q647 454 642 447L604 390L551 475L649 620L753 611L665 481Q660 473 667.5 468Q675 463 681 470L777 613Q779 615 779 618Q779 621 778 623L765 649L787 647Q792 647 792.5 651.5Q793 656 788 657L759 659L739 699L741 702L848 692L875 649L810 655Q805 655 804.5 650.5Q804 646 809 645L884 638Q885 638 886 638.5Q887 639 888 640L913 677Q916 681 911.5 683.5Q907 686 905 682L884 652L857 697L908 773L963 768L917 700Q914 696 918 693Q922 690 925 695L976 770Q976 771 976.5 772.5Q977 774 976 775L895 934Q895 935 893.5 935.5Q892 936 891 936L714 952Q712 952 711 951.5Q710 951 709 950L653 868L624 925Q623 927 621 928.5Q619 930 617 930L279 960Q277 960 274.5 959Q272 958 270 956L105 710Q103 708 103 705.5Q103 703 104 701L172 568Q176 560 184 564Q192 568 188 576ZM288 453L267 422L248 459L269 490L288 453ZM261 496L243 469L228 499L261 496ZM206 501L230 452L125 462L101 510L206 501ZM13 390L92 506L116 457L65 381L13 390ZM119 285L73 375L122 447L167 357L119 285ZM228 270L127 279L176 351L276 342L228 270ZM176 361L131 451L231 442L277 352L176 361ZM342 347L288 351L267 393L321 389L342 347ZM311 408L283 411L298 434L311 408ZM882 927L853 884L746 893L722 941L882 927ZM599 913L543 830L341 848L294 940ZM128 712L277 932L324 840L226 694L128 712ZM328 512L241 683L334 820L421 649L328 512ZM535 485L344 502L437 639L628 622L535 485ZM438 657L351 828L542 811L629 641L438 657ZM667 726L702 657Q703 656 704 655Q705 654 706 654L742 651L753 629L651 639L559 819L615 902L641 850L622 821Q621 820 621 818.5Q621 817 621 816L657 746Q659 741 663.5 743.5Q668 746 666 750L635 811L663 806L722 691L707 669L676 730Q674 734 669.5 732Q665 730 667 726ZM646 840L658 817L634 821L646 840ZM737 661L715 663L727 681L737 661ZM659 858L713 937L737 889L686 812L681 813ZM739 717L694 807L742 879L788 789L739 717ZM848 702L748 711L796 783L897 774ZM797 793L751 883L852 874L897 784L797 793ZM909 783L861 878L890 922L963 778L909 783ZM699 377L718 366L737 377L737 399L718 410L699 399ZM791 595L787 579L806 502L787 442L815 267L768 264L764 232L718 226L737 205L715 194L723 143L696 116L613 128L503 223L478 228L605 116L694 102L735 138L728 187L757 202L744 217L778 223L783 253L834 261L801 441L818 504L791 595ZM601 112L588 47L605 -10L656 -64L628 -64L585 -13L568 43L585 122L601 112ZM325 193L342 280L358 279L342 192Q326 149 309.5 117Q293 85 274 76L165 -64L122 -64L243 71Q253 86 272 103.5Q291 121 325 193Z" fill="#cc00a3" />
  </g>
</svg>