<?xml version="1.0" encoding="UTF-8"?>
<svg width="16" height="16" viewBox="0 0 16 16" xmlns="http://www.w3.org/2000/svg">
  <g transform="translate(1.8079133157169116, 14.981647644042969) scale(0.015585937499999999, -0.015585937499999999)">
    <path d="M721 652Q709 807 612 884Q515 960 402 960Q289 960 193 884Q97 808 86 658Q29 631 11 583Q-7 535 6 489Q19 443 60 412Q100 381 160 388L160 325L235 325L361 -29Q373 -61 408 -64Q443 -67 459 -29L582 325L658 325L658 387Q710 390 745 421Q779 452 789.5 493.5Q800 535 785 579Q769 623 721 652ZM174 340L174 382L199 382Q204 369 213 358Q222 347 234 340L174 340ZM643 340L572 340L445 -24Q436 -48 410 -48.5Q384 -49 374 -24L249 332Q276 321 301 326.5Q326 332 346 351L346 252Q347 215 382 215Q417 215 419 252L419 366Q457 320 513 325.5Q569 331 597 382L643 382L643 340ZM229 866Q239 873 246 863.5Q253 854 243 847Q243 847 216.5 820.5Q190 794 173 743Q170 732 158.5 736Q147 740 151 751Q170 808 199 836.5Q228 865 229 866ZM51 616Q57 625 77 640.5Q97 656 136 651Q148 650 146.5 638.5Q145 627 133 628Q105 631 90.5 621Q76 611 71 603Q64 592 54 598.5Q44 605 51 616ZM335 615Q334 620 337 623.5Q340 627 345 627L447 627Q452 627 455 623.5Q458 620 457 615Q446 565 396 565Q346 565 335 615ZM368 586Q369 599 395.5 599.5Q422 600 424 586Q423 572 396.5 571.5Q370 571 368 586ZM675 639Q686 633 681 623Q676 613 665 618Q648 626 626.5 622Q605 618 597 601Q591 591 580.5 595.5Q570 600 575 611Q586 635 616 644Q646 653 675 639ZM29 570Q22 574 22 582Q22 590 29 594Q36 598 42.5 594Q49 590 49 582Q49 574 42.5 570Q36 566 29 570ZM246 620Q231 629 231 646.5Q231 664 246 673Q262 682 277.5 673Q293 664 293 646Q293 629 277.5 620Q262 611 246 620ZM521 620Q505 629 505 646.5Q505 664 521 673Q536 682 551.5 673Q567 664 567 646Q567 629 551.5 620Q536 611 521 620ZM559 558Q552 562 552 571Q552 580 559 584Q567 588 574.5 584Q582 580 582 571Q582 562 574.5 558Q567 554 559 558ZM259 867Q251 872 251 880.5Q251 889 259 893Q266 898 273.5 893.5Q281 889 281 880Q281 872 273.5 867.5Q266 863 259 867Z" fill="#825078" />
  </g>
</svg>