<?xml version="1.0" encoding="UTF-8"?>
<svg width="16" height="16" viewBox="0 0 16 16" xmlns="http://www.w3.org/2000/svg">
  <g transform="translate(0.5209716796874994, 14.52960443968414) scale(0.01462890625, -0.01462890625)">
    <path d="M669 -9Q710 29 743 76.5Q776 124 799 179Q800 181 833 262Q866 343 905.5 439Q945 535 978 615Q1010 695 1011 695Q1029 742 1023 785Q1016 827 991.5 860Q967 893 926 911Q886 930 836 929L326 929Q247 933 170.5 913Q94 893 27 854Q-23 822 11 777.5Q45 733 89 773Q264 860 416 811Q569 762 655 641.5Q741 521 738 361Q736 201 599 64L600 63Q548 24 589 -18Q630 -60 669 -9Z" fill="#ac4142" />
  </g>
</svg>