<?xml version="1.0" encoding="UTF-8"?>
<svg width="16" height="16" viewBox="0 0 16 16" xmlns="http://www.w3.org/2000/svg">
  <g transform="translate(1, 13) scale(0.0078125, -0.0078125)">
    <path d="M512 1536Q525 1536 534.5 1526.5Q544 1517 544 1504L544 32Q544 12 527 4L47 -252Q40 -256 32 -256Q19 -256 9.5 -246.5Q0 -237 0 -224L0 1248Q0 1268 17 1276L497 1532Q504 1536 512 1536ZM1760 1536Q1773 1536 1782.5 1526.5Q1792 1517 1792 1504L1792 32Q1792 12 1775 4L1295 -252Q1288 -256 1280 -256Q1267 -256 1257.5 -246.5Q1248 -237 1248 -224L1248 1248Q1248 1268 1265 1276L1745 1532Q1752 1536 1760 1536ZM640 1536Q648 1536 654 1533L1166 1277Q1184 1267 1184 1248L1184 -224Q1184 -237 1174.5 -246.5Q1165 -256 1152 -256Q1144 -256 1138 -253L626 3Q608 13 608 32L608 1504Q608 1517 617.5 1526.5Q627 1536 640 1536Z" fill="#ee9e2e" />
  </g>
</svg>