<?xml version="1.0" encoding="UTF-8"?>
<svg width="16" height="16" viewBox="0 0 16 16" xmlns="http://www.w3.org/2000/svg">
  <g transform="translate(0.5217589343397001, 14.554335156249998) scale(0.01462890625, -0.01462890625)">
    <path d="M980 655Q942 742 874 811Q806 881 717 919.5Q628 958 522 960Q416 962 301 914Q365 876 423 831Q481 785 533.5 733.5Q586 682 634 624Q683 566 729 501Q735 540 733 582Q730 624 720 666.5Q710 709 694 751Q677 793 656 832L656 832L656 832Q704 786 728 753.5Q752 721 764 676Q784 613 800 553Q816 492 830.5 432Q845 372 856 312Q868 252 878 192Q823 241 744 286Q664 330 569.5 374.5Q475 419 370 465Q265 512 158 566L175 523Q175 523 217.5 498Q260 473 268 463Q318 373 355 290Q392 208 419.5 140Q447 72 468 23Q488 -25 506 -47Q489 -43 449 -25Q408 -7 366 12.5Q324 32 292 48Q260 64 260 64Q249 148 232 231Q215 313 193 394Q171 475 145 555Q119 635 90 714Q150 651 232 606Q315 562 400 535.5Q485 509 563 498Q641 488 693 492Q652 544 610 595Q568 647 514.5 695.5Q461 744 390 789Q320 833 222 870Q63 759 21 599Q-22 438 27 290.5Q76 143 204 38Q331 -66 513 -64Q678 -57 789 16Q900 90 958 196.5Q1016 303 1021 426Q1026 549 980 655ZM790 660Q788 663 782.5 679.5Q777 696 775 700Q792 683 818 656.5Q844 630 875 612Q900 580 916 550.5Q932 521 949 499Q896 546 848.5 592.5Q801 639 790 660Z" fill="#aa759f" />
  </g>
</svg>