<?xml version="1.0" encoding="UTF-8"?>
<svg width="16" height="16" viewBox="0 0 16 16" xmlns="http://www.w3.org/2000/svg">
  <g transform="translate(0.5099999999999996, 14.55375) scale(0.01462890625, -0.01462890625)">
    <path d="M676 264Q665 260 630 262.5Q595 265 527 301Q453 341 433 371Q413 401 411 411Q412 423 411.5 435Q411 447 409 459L410 458Q410 458 420 488.5Q430 519 514 571Q590 618 626.5 619.5Q663 621 670 618Q674 615 678 612.5Q682 610 687 608Q695 603 704 599.5Q713 596 722 593Q732 584 747 551Q762 518 764 444Q766 370 749.5 336.5Q733 303 721 293Q709 287 697.5 280Q686 273 676 264ZM887 288Q882 291 877 293Q872 295 867 297L872 297Q872 297 850.5 323Q829 349 827 450Q824 551 845 579Q866 607 866 607L860 607Q885 619 905.5 639Q926 659 940 685Q976 754 953.5 828Q931 902 862 938Q794 974 720 951.5Q646 929 609 861Q594 833 589.5 802.5Q585 772 590 743L588 747Q588 747 579 713.5Q570 680 485 627Q399 574 359 582.5Q319 591 319 591L323 587Q320 588 317.5 589.5Q315 591 313 592Q244 629 170 606Q96 583 60 515Q24 447 46.5 372.5Q69 298 137 262Q188 235 244 241Q300 247 342 281L341 279Q341 279 376.5 288Q412 297 502 249Q573 211 592 177.5Q611 144 612 130Q610 78 636 31Q662 -16 711 -42Q780 -78 854 -55.5Q928 -33 964 35Q1000 104 977.5 178Q955 252 887 288ZM663 879Q705 924 762.5 929.5Q820 935 861 898L860 898Q842 914 804 911Q766 908 728 883Q733 878 736 871.5Q739 865 739 858Q740 842 729 830Q718 818 701 817Q699 817 696.5 817.5Q694 818 692 818Q691 818 690.5 818Q690 818 689 819Q678 822 671 817Q664 812 661 809Q642 771 641.5 736Q641 701 660 682Q621 719 622 776.5Q623 834 663 879ZM116 527Q158 572 215.5 577.5Q273 583 314 546L313 546Q295 562 257 559Q219 556 181 531Q186 526 188.5 519.5Q191 513 192 506Q193 490 182 478Q171 466 154 465Q152 465 149.5 465.5Q147 466 144 466Q144 466 143.5 466Q143 466 142 467Q131 470 124 465Q117 460 114 456Q94 419 94 384Q94 349 113 330Q74 367 75 424.5Q76 482 116 527ZM696 228Q737 274 794.5 279.5Q852 285 893 248L892 248Q874 264 836 261Q798 258 760 233Q765 228 768 221.5Q771 215 771 208Q772 192 761 180Q750 168 734 167Q731 167 728.5 167Q726 167 724 168Q723 168 722.5 168Q722 168 721 169Q710 172 703 167Q696 162 693 158Q674 121 673.5 85.5Q673 50 692 32Q653 69 654 126.5Q655 184 696 228Z" fill="#46788d" />
  </g>
</svg>