<?xml version="1.0" encoding="UTF-8"?>
<svg width="16" height="16" viewBox="0 0 16 16" xmlns="http://www.w3.org/2000/svg">
  <g transform="translate(0.4987469951923079, 14.55375) scale(0.01462890625, -0.01462890625)">
    <path d="M91 488Q144 585 211 652Q278 719 350 759Q422 799 495 816Q568 832 632 829Q647 872 656 905.5Q665 939 668 960L722 960Q712 932 699.5 897.5Q687 863 671 825Q705 820 734 809.5Q763 799 787 785Q673 806 577 792Q482 778 403 738Q324 698 261 638Q197 577 147 504Q131 506 117 502Q103 498 91 488ZM982 431L850 431Q872 483 877 535Q882 586 868 631Q854 676 819 712Q784 747 726 768Q776 744 806 707Q835 671 846.5 626.5Q858 582 851 532Q845 482 824 430L505 430Q526 477 545 522Q565 568 583 611.5Q601 655 618 696Q635 736 651 774L612 770Q599 734 585 694Q570 654 553.5 611Q537 568 520 522Q502 477 484 430L336 429Q310 422 308.5 373.5Q307 325 307 325Q326 341 362.5 354.5Q399 368 461 380Q434 310 407 239.5Q380 169 355 100L366 101Q378 129 389.5 158.5Q401 188 415 219Q433 260 450.5 301.5Q468 343 486 384Q516 389 551 394Q587 399 628.5 403Q670 407 717 411Q765 414 819 417Q804 385 784 352Q764 319 739 288Q714 257 684 228Q654 199 620 173Q659 196 693 225Q727 253 755.5 284.5Q784 316 807 350Q829 384 845 419Q877 421 911 422.5Q945 424 982 425ZM46 346Q38 272 56 213Q74 155 112 114.5Q150 74 205 53Q261 31 329 32Q320 7 313 -17Q306 -41 298 -64Q309 -39 319 -15Q329 9 338 32Q400 33 470 54Q540 75 612 118Q501 77 402 69Q303 60 227 87.5Q151 115 104 179Q56 243 46 346Z" fill="#7c4426" />
  </g>
</svg>