<?xml version="1.0" encoding="UTF-8"?>
<svg width="16" height="16" viewBox="0 0 16 16" xmlns="http://www.w3.org/2000/svg">
  <g transform="translate(2.6748046875, 14.125142415364584) scale(0.013671875, -0.013671875)">
    <path d="M3 575L3 780Q28 733 142 710Q256 687 388 687.5Q520 688 636 711Q751 735 779 780L779 575Q737 526 622 503Q508 481 381 482.5Q254 484 144 508Q35 532 3 575ZM2 305L2 510Q30 462 146 440Q262 418 395 419Q528 420 641 444Q755 467 778 510L778 305Q745 263 637 239Q530 216 404 214Q278 212 163 234Q49 256 2 305ZM0 28L0 233Q16 191 128 168Q239 144 372 142.5Q505 141 624 162Q744 184 776 233L776 28Q737 -16 629 -40Q521 -63 397 -64Q273 -65 160 -42Q48 -19 0 28ZM778 857Q778 887 724 910Q669 933 584 946Q499 959 396 960Q293 961 196 946Q3 917 3 857.5Q3 798 196 768Q293 753 396 754Q499 755 584 768Q669 781 724 804Q778 827 778 857Z" fill="#4d9085" />
  </g>
</svg>