<?xml version="1.0" encoding="UTF-8"?>
<svg width="16" height="16" viewBox="0 0 16 16" xmlns="http://www.w3.org/2000/svg">
  <g transform="translate(1.3042831143465907, 14.565980724897543) scale(0.01462890625, -0.01462890625)">
    <path d="M457 494L428 402Q417 360 416.5 342Q416 324 422 314Q423 312 427 302.5Q431 293 436 272Q444 241 450.5 204.5Q457 168 457 166Q456 138 456.5 108Q457 78 459 49L78 49Q46 49 23 72Q0 95 0 128L0 836Q0 869 23 892Q46 915 78 915L664 915Q631 879 598 829Q566 779 538 722.5Q510 666 489 607Q468 548 457 494ZM871 938Q911 902 915 846Q918 790 899 725.5Q880 661 845 594Q810 527 774 469Q720 452 669.5 423.5Q619 395 619 395Q619 395 626 398.5Q633 402 652 410Q665 415 697 423Q729 431 753 437Q713 377 684 339.5Q655 302 655 302Q655 302 605.5 272Q556 242 535 177Q547 247 567.5 320Q588 393 617 470Q630 504 656 563Q683 622 715.5 684.5Q748 747 784 803Q820 859 852 887Q817 860 781 817Q745 775 710 720.5Q675 666 643 601Q610 536 583 463Q566 415 554 368Q541 321 532.5 276Q524 231 518 189Q513 147 512 109Q510 59 514.5 16Q519 -27 529 -60L523 -64Q512 -37 504.5 16Q497 69 499 167Q499 171 498.5 173.5Q498 176 498 176Q498 176 492.5 210.5Q487 245 478 280Q474 296 469.5 309.5Q465 323 460 331Q457 335 459.5 351.5Q462 368 469 394Q481 373 492.5 352Q504 331 509 313Q509 313 500 350Q491 387 475 415Q479 426 483 439Q487 452 491 465Q503 445 513.5 426Q524 407 528 388Q523 412 516 436.5Q509 461 498 485Q508 535 528 592Q547 648 573.5 703Q600 758 632 807Q664 856 697 892Q733 930 779.5 953Q826 976 871 938Z" fill="#4d9085" />
  </g>
</svg>