<?xml version="1.0" encoding="UTF-8"?>
<svg width="16" height="16" viewBox="0 0 16 16" xmlns="http://www.w3.org/2000/svg">
  <g transform="translate(0.5048798828124994, 14.556492919921876) scale(0.01462890625, -0.01462890625)">
    <path d="M645 639L321 315Q253 252 180 260Q106 268 57 317Q8 366 0 439Q-8 513 56 580L316 841Q341 864 365 841Q389 818 365 792L105 531Q65 487 70 441Q75 394 106 364Q137 334 184 330Q230 325 272 364L595 688Q620 711 644 688.5Q668 666 645 639ZM753 796Q698 851 620 851Q542 851 488 796L164 472Q140 450 163.5 424.5Q187 399 213 423L537 747Q571 782 620 782Q669 782 703 747Q728 724 752 747Q776 770 753 796ZM811 472L488 149Q453 114 404 114Q355 114 321 149Q296 172 272 149Q248 126 272 99Q326 45 404 45Q482 45 537 100L860 423Q884 450 860 472.5Q836 495 811 472ZM703 580L380 257Q356 232 380 207.5Q404 183 429 207L753 531Q796 571 842 566Q889 562 919 531.5Q949 501 954 455Q959 408 919 364L659 104Q635 76 659 54.5Q683 33 708 55L968 315Q1031 386 1024 459Q1016 533 968 581Q920 629 846 636Q773 643 703 580Z" fill="#825078" />
  </g>
</svg>