<?xml version="1.0" encoding="UTF-8"?>
<svg width="16" height="16" viewBox="0 0 16 16" xmlns="http://www.w3.org/2000/svg">
  <g transform="translate(0.3929687499999999, 12.68111328125) scale(0.01462890625, -0.01462890625)">
    <path d="M768 768Q659 766 587 713Q515 660 512 581Q515 494 524 413.5Q533 333 512 192Q503 406 413.5 502.5Q324 599 256 598Q256 622 241.5 631Q227 640 225.5 640Q224 640 217 634.5Q210 629 206 618Q192 633 181 635Q170 637 170 636L161 599Q154 601 102.5 557.5Q51 514 42 393Q56 376 104.5 366.5Q153 357 202 365Q242 360 243 337Q244 314 232 301Q192 267 151.5 290.5Q111 314 64 320Q16 316 16 288Q16 260 64 256Q106 252 136 224Q166 196 256 192Q126 125 181.5 35Q237 -55 256 -64L192 -64Q146 -68 136 -96Q126 -124 128 -128L512 -128Q658 -129 744 -76.5Q830 -24 832 94Q831 136 813.5 178Q796 220 768 256Q721 330 755 371.5Q789 413 832 384Q877 345 947 359.5Q1017 374 1024 512Q1021 621 949 693Q877 765 768 768ZM160 448Q146 448 137 457Q128 466 128 480Q128 494 137 503Q146 512 160 512Q174 512 183 503Q192 494 192 480Q192 466 183 457Q174 448 160 448Z" fill="#ac4142" />
  </g>
</svg>