<?xml version="1.0" encoding="UTF-8"?>
<svg width="16" height="16" viewBox="0 0 16 16" xmlns="http://www.w3.org/2000/svg">
  <g transform="translate(0.5099999999999998, 14.55375) scale(0.01462890625, -0.01462890625)">
    <path d="M1024 448Q1024 342 984 249Q944 155 874.5 85.5Q805 16 711 -24Q618 -64 512 -64Q460 -64 411 -54Q362 -44 317 -25.5Q272 -7 231 20Q191 46 156 80Q195 88 232.5 95.5Q270 103 304 109Q356 119 419 133Q481 147 538.5 163.5Q596 180 641 198Q685 215 703 232Q703 232 716.5 263Q730 294 741 320Q747 328 749.5 333.5Q752 339 752 340Q757 361 739 384Q721 407 691 428.5Q661 450 625 468Q588 486 557 498Q513 514 489 525.5Q465 537 441 549Q432 554 422 559Q412 564 400 570Q430 579 458.5 585Q487 591 509 596Q537 603 600 615Q662 627 732 639.5Q802 652 868 664Q933 675 968 681Q995 629 1009.5 570Q1024 511 1024 448ZM223 485Q223 485 225 489Q227 493 233 498Q250 542 280.5 609.5Q311 677 311 677Q327 704 369 728Q411 751 465 771.5Q519 792 578 809Q638 826 689 840Q713 847 741.5 855Q770 863 800 871Q738 913 665 936.5Q592 960 512 960Q406 960 313 920Q219 880 149.5 810.5Q80 741 40 647Q0 554 0 448Q0 398 9 350Q19 303 36 259Q53 215 78 175Q103 136 135 102Q181 116 226.5 128.5Q272 141 311 151Q352 162 403 176Q453 189 504 205.5Q555 222 603 240Q650 259 685 279Q663 294 609 314Q555 334 468 362Q417 378 371 393Q325 408 291 423Q257 438 238 454Q220 469 223 485Z" fill="#ac4142" />
  </g>
</svg>