<?xml version="1.0" encoding="UTF-8"?>
<svg width="16" height="16" viewBox="0 0 16 16" xmlns="http://www.w3.org/2000/svg">
  <g transform="translate(0.5099999999999998, 14.55375) scale(0.01462890625, -0.01462890625)">
    <path d="M299 -64L0 -64L0 235L299 235ZM299 597L0 597L0 299L299 299L299 597ZM661 235L363 235L363 -64L661 -64ZM661 597L363 597L363 299L661 299L661 597ZM661 960L363 960L363 661L661 661ZM1024 960L725 960L725 661L1024 661ZM1024 597L725 597L725 299L1024 299L1024 597Z" fill="#4d9085" />
  </g>
</svg>