<?xml version="1.0" encoding="UTF-8"?>
<svg width="16" height="16" viewBox="0 0 16 16" xmlns="http://www.w3.org/2000/svg">
  <g transform="translate(1.2707031249999998, 14.55375) scale(0.01462890625, -0.01462890625)">
    <path d="M182 600L323 519L57 366Q0 330 0 267Q0 204 57 169L460 -64L862 168Q920 202 920 266Q920 330 862 365L596 519L742 603Q768 619 783.5 645Q799 671 799 702Q796 740 780 765.5Q764 791 702 824Q713 796 705 768Q697 740 674 722L460 598L406 629Q367 661 367.5 704.5Q368 748 399 775Q442 804 459.5 857.5Q477 911 460 960L184 800Q128 766 127 700Q126 634 182 600ZM234 310L459 440L688 308Q717 289 718.5 250Q720 211 681 190L519 96Q492 82 476.5 56Q461 30 460 -1Q459 30 443 56Q427 82 400 96L232 194Q197 219 200.5 255.5Q204 292 234 310Z" fill="#d28445" />
  </g>
</svg>