<?xml version="1.0" encoding="UTF-8"?>
<svg width="16" height="16" viewBox="0 0 16 16" xmlns="http://www.w3.org/2000/svg">
  <g transform="translate(2.0752929687499995, 14.5244921875) scale(0.01462890625, -0.01462890625)">
    <path d="M748 263Q748 263 759.5 318.5Q771 374 740 488Q722 551 685 602Q648 652 610 688Q572 724 544 743Q515 762 515 762Q568 681 586 616Q605 551 605.5 503.5Q606 456 596 427Q586 397 582 388Q571 387 508 435Q446 483 375.5 541Q305 599 248 647Q191 696 191 696Q191 696 218 658Q245 620 283.5 571Q322 522 363 474Q404 426 432 404Q434 403 396 430Q358 457 304 496Q250 535 193 579Q136 622 99 654Q148 577 211 504Q274 432 330.5 376.5Q387 321 426 288Q465 255 465 255Q465 255 436.5 234Q408 213 315 205Q269 201 227 210Q185 219 147.5 234.5Q110 250 78 269Q45 288 16 305Q75 220 137 171Q200 122 258 96.5Q316 71 365 64Q415 56 449 55Q565 52 609.5 91.5Q654 131 715 122Q781 112 795.5 78.5Q810 45 810 45L810 -64L0 -64L0 956L572 956L810 718L810 145Q799 181 784 210.5Q769 240 748 263Z" fill="#d28445" />
  </g>
</svg>