<?xml version="1.0" encoding="UTF-8"?>
<svg width="16" height="16" viewBox="0 0 16 16" xmlns="http://www.w3.org/2000/svg">
  <g transform="translate(-0.08790264423076838, 14.99234580518522) scale(0.015585937499999999, -0.015585937499999999)">
    <path d="M660 938Q519 980 387 945Q256 909 162 820.5Q68 732 24 603Q-20 474 14 331Q48 187 145 92Q241 -4 365 -41.5Q489 -79 623 -53Q756 -26 863 75Q971 175 1005 307Q1040 438 1010 564Q980 690 891 793Q801 895 660 938ZM948 350L380 23Q351 32 323.5 44.5Q296 57 270 74L801 380Q809 385 809 394Q809 403 802 408L504 628L793 795Q842 755 878 703Q913 651 933 593Q953 535 957 473Q961 411 948 350ZM648 330L565 282L269 493L359 544L648 330ZM390 562L473 610L763 396L679 348L390 562ZM613 882L85 577Q110 657 162 723Q214 788 284.5 830.5Q355 873 439 888Q524 903 613 882ZM74 533L657 869Q686 859 713 845.5Q740 832 764 816L231 509Q224 504 222.5 495.5Q221 487 229 481L533 264L241 95Q187 137 150 189Q113 240 92.5 296.5Q72 353 67 413Q63 473 74 532ZM936 305Q909 226 857 163Q804 101 735 61Q666 21 586 7Q507 -7 426 11Z" fill="#aa759f" />
  </g>
</svg>