<?xml version="1.0" encoding="UTF-8"?>
<svg width="16" height="16" viewBox="0 0 16 16" xmlns="http://www.w3.org/2000/svg">
  <g transform="translate(0.018701171874999645, 14.97844765625) scale(0.015585937499999999, -0.015585937499999999)">
    <path d="M0 626L273 898Q325 886 371 863Q417 840 454.5 805Q492 770 520 722Q547 675 562 614Q583 599 612 599.5Q641 600 664 614Q672 668 696 713Q720 758 755.5 792Q791 826 835 849Q880 872 929 881Q934 881 935.5 873.5Q937 866 930 863Q863 841 819 814Q775 786 747.5 753Q720 720 706 683Q692 646 685 607L404 328Q372 312 337 312.5Q302 313 279 338Q267 388 241 433Q215 478 179 514Q143 550 99 576Q55 602 5 615Q2 616 1 619Q0 622 0 626ZM372 209Q442 192 493.5 139Q545 86 562 15Q578 -2 603.5 -2.5Q629 -3 651 9L848 203Q858 259 892 306Q926 353 1020 383Q1025 385 1024 390Q1023 395 1019 396Q950 382 897.5 333.5Q845 285 834 208Q817 199 797 198.5Q777 198 762 208Q741 294 686 344.5Q631 395 557 412L367 219Q366 216 368 213Q370 210 372 209ZM604 640Q623 714 663.5 766Q704 818 733 847Q695 821 656 788.5Q617 756 579 718Q587 704 593.5 683.5Q600 663 604 640ZM796 229Q812 289 844 330Q876 371 900 395Q869 374 838 348Q807 322 776 292Q783 281 788 264.5Q793 248 796 229Z" fill="#6a9fb5" />
  </g>
</svg>