<?xml version="1.0" encoding="UTF-8"?>
<svg width="16" height="16" viewBox="0 0 16 16" xmlns="http://www.w3.org/2000/svg">
  <g transform="translate(1.4539062500000002, 14.9825) scale(0.015585937499999999, -0.015585937499999999)">
    <path d="M108 -30L58 899L0 895L38 -30ZM486 744Q582 744 635 691Q688 638 685 531L538 527Q540 585 521.5 598Q503 611 489 611Q476 611 459.5 603.5Q443 596 443 565Q443 527 482 504Q521 481 568 453Q615 425 654 383Q693 341 693 264Q693 178 634 137Q575 96 489 96Q401 96 336 138Q271 180 280 313L434 313Q433 259 445.5 237.5Q458 216 487 216Q510 216 520.5 228Q531 240 531 262Q531 301 493 326Q454 351 408 379Q362 407 323 448Q285 489 285 561Q285 643 337 693.5Q389 744 486 744ZM840 960L760 953L760 799L695 863L633 791L633 947L113 907L167 -30L840 -64Z" fill="#6a9fb5" />
  </g>
</svg>