<?xml version="1.0" encoding="UTF-8"?>
<svg width="16" height="16" viewBox="0 0 16 16" xmlns="http://www.w3.org/2000/svg">
  <g transform="translate(1.0510575181159414, 14.55375) scale(0.01462890625, -0.01462890625)">
    <path d="M757 832L728 832L728 715Q725 693 712 687Q699 681 680 686L109 832L69 832Q0 832 4 896Q8 960 69 960L757 960Q824 960 827.5 896Q831 832 757 832ZM122 685L693 546Q725 538 733 570.5Q741 603 709 611L138 750Q106 758 98 725.5Q90 693 122 685ZM122 546L693 407Q725 399 733 431.5Q741 464 709 472L138 612Q106 620 98 587Q90 554 122 546ZM122 408L693 268Q725 260 733 292.5Q741 325 709 333L138 473Q106 481 98 448.5Q90 416 122 408ZM664 56L144 189Q128 194 115.5 189.5Q103 185 98 160L98 59L51 59Q0 59 0 -2.5Q0 -64 51 -64L775 -64Q821 -64 827 -2.5Q833 59 758 59ZM696 122Q791 121 836.5 86.5Q882 52 883 -25Q884 -59 917.5 -58Q951 -57 950 -24Q948 39 927 80Q907 120 874 144Q841 168 798 178Q754 189 705 190L138 329Q106 337 98 304.5Q90 272 122 264L696 122Z" fill="#ac4142" />
  </g>
</svg>