<?xml version="1.0" encoding="UTF-8"?>
<svg width="16" height="16" viewBox="0 0 16 16" xmlns="http://www.w3.org/2000/svg">
  <g transform="translate(0.31982421875, 14.68123046875) scale(0.01462890625, -0.01462890625)">
    <path d="M532 -42Q575 112 599 200Q624 289 641.5 355Q659 421 678 487Q696 554 727 663L747 652Q755 647 761 650.5Q767 654 767 663L767 803Q783 861 795 902.5Q807 944 811 958L901 958L1050 819L952 734L1026 654L537 -42Q535 -45 533.5 -44.5Q532 -44 532 -42L532 -42ZM586 843Q589 843 591.5 841.5Q594 840 594 838L594 766Q594 764 591.5 762.5Q589 761 586 761L465 761Q462 761 459.5 762.5Q457 764 457 766L457 838Q457 840 459.5 841.5Q462 843 465 843L586 843ZM735 923L602 846Q603 844 603.5 842Q604 840 604 838L604 766Q604 763 603 761Q602 759 601 757L735 679Q742 675 746.5 678Q751 681 751 689L751 913Q751 921 746.5 924Q742 927 735 923L735 923ZM446 766L446 838Q446 840 447 842Q448 844 449 846L316 923Q309 927 304 924Q299 921 299 913L299 689Q299 681 304 678Q309 675 316 679L450 757Q448 759 447 761.5Q446 764 446 766L446 766ZM513 -42L518 -42Q475 112 451 200Q427 289 409 355Q391 421 373 487Q355 554 323 663L303 652Q295 647 289.5 650.5Q284 654 284 663L284 803Q267 861 255 902.5Q243 944 239 958L149 958L0 819L98 734L24 654L513 -42ZM558 648Q558 633 547.5 622Q537 611 521 611Q506 611 495.5 622Q485 633 485 648Q485 663 495.5 673.5Q506 684 521 684Q537 684 547.5 673.5Q558 663 558 648ZM558 432Q558 417 547.5 406.5Q537 396 521 396Q506 396 495.5 406.5Q485 417 485 432Q485 447 495.5 457.5Q506 468 521 468Q537 468 547.5 457.5Q558 447 558 432ZM558 216Q558 201 547.5 190.5Q537 180 521 180Q506 180 495.5 190.5Q485 201 485 216Q485 231 495.5 241.5Q506 252 521 252Q537 252 547.5 241.5Q558 231 558 216Z" fill="#ee9e2e" />
  </g>
</svg>