<?xml version="1.0" encoding="UTF-8"?>
<svg width="16" height="16" viewBox="0 0 16 16" xmlns="http://www.w3.org/2000/svg">
  <g transform="translate(1.3584765625, 14.553318634815705) scale(0.01462890625, -0.01462890625)">
    <path d="M492 128Q542 164 577.5 210.5Q613 257 614 320Q613 384 577.5 428.5Q542 473 492 510Q436 571 452.5 638Q469 705 551 706Q631 697 695 653Q760 610 806.5 552Q853 494 879 431Q906 368 908 320Q908 267 877 208Q845 149 801 97Q757 45 710 6Q663 -32 632 -46Q574 -73 530 -61Q487 -49 465.5 -17Q444 15 448 56Q453 97 492 128ZM278 943Q246 929 199 891Q152 852 107.5 800.5Q63 749 32 690Q0 631 0 576Q0 520 32 461Q64 401 108 350Q152 299 199 261Q246 223 278 210Q336 175 379 192Q421 208 442 246.5Q463 285 459 330Q454 375 418 398Q368 435 332.5 474Q297 513 296 576Q297 640 332.5 686Q368 732 418 769Q469 815 468 857Q468 898 439.5 925Q411 952 365 959Q319 966 278 943Z" fill="#90a959" />
  </g>
</svg>