<?xml version="1.0" encoding="UTF-8"?>
<svg width="16" height="16" viewBox="0 0 16 16" xmlns="http://www.w3.org/2000/svg">
  <g transform="translate(1.4392810894691783, 14.9825) scale(0.015585937499999999, -0.015585937499999999)">
    <path d="M62 20L206 20Q223 20 237 28.5Q251 37 260 51L350 211Q366 239 366 271.5Q366 304 350 332L242 523L8 112Q-9 81 8 50.5Q25 20 62 20ZM305 960L161 960Q135 960 117 942.5Q99 925 99 899Q99 891 101 883Q103 875 107 868L305 519Q322 490 350.5 473.5Q379 457 413 457L627 457L359 929Q351 943 336.5 951.5Q322 960 305 960ZM825 112L696 341Q680 370 651 387Q622 404 589 403L375 403L573 51Q581 37 595.5 28.5Q610 20 627 20L772 20Q806 20 824.5 50Q843 80 825 112ZM417 -64Q469 -64 498.5 -19.5Q528 25 499 78L417 219L336 78Q308 25 337 -19.5Q366 -64 417 -64Z" fill="#aa759f" />
  </g>
</svg>