<?xml version="1.0" encoding="UTF-8"?>
<svg width="16" height="16" viewBox="0 0 16 16" xmlns="http://www.w3.org/2000/svg">
  <g transform="translate(0.5269387335526314, 14.55375) scale(0.01462890625, -0.01462890625)">
    <path d="M1020 134Q1018 158 1009 257Q999 357 988.5 467Q978 577 969 665Q961 752 961 752Q958 790 942 807.5Q926 825 910 832Q907 867 886.5 878.5Q866 890 857 890Q852 890 750 890Q648 890 524 890Q400 890 292 890Q184 890 167 890Q130 890 120 871Q110 852 110 852L108 830Q78 818 73 797Q68 776 68 776Q68 776 57 676Q46 576 33.5 451Q21 326 11 213Q0 100 0 73Q0 21 30 13.5Q60 6 60 6Q60 6 182 6Q305 6 460 6Q615 6 757 6Q899 6 937 6Q1013 6 1018.5 46Q1024 86 1020 134ZM331 426Q337 442 358.5 447.5Q380 453 396 448Q396 448 415.5 441.5Q435 435 468 430Q508 424 536 436Q564 448 565 463Q565 467 566 483.5Q567 500 549 509Q535 517 519.5 521.5Q504 526 483 531Q459 538 436 542Q413 546 393 557Q357 577 348.5 595Q340 613 340 630Q340 653 358.5 676.5Q377 700 398 713Q440 739 498 740.5Q556 742 596 725Q611 718 625.5 707.5Q640 697 633 682Q627 667 605.5 661.5Q584 656 569 663Q541 675 511 674.5Q481 674 468 666Q459 661 449 637Q439 613 514 599Q538 595 566 589Q594 583 615 572Q656 550 669 521.5Q682 493 681 472Q679 437 660 414.5Q641 392 617 376Q595 361 564.5 354Q534 347 504 347Q450 347 409 357Q368 367 356 372Q341 380 331.5 392Q322 404 331 426ZM952 135Q952 135 938.5 116Q925 97 897 97L117 97Q89 97 76 116Q63 135 63 135L52 241Q54 228 66.5 213.5Q79 199 116 199Q144 199 259 199Q374 199 506.5 199Q639 199 753 199Q868 199 895 199Q934 199 947.5 215.5Q961 232 964 245L952 135Z" fill="#a35f27" />
  </g>
</svg>