<?xml version="1.0" encoding="UTF-8"?>
<svg width="16" height="16" viewBox="0 0 16 16" xmlns="http://www.w3.org/2000/svg">
  <g transform="translate(1.0000000000000007, 12.99609375) scale(0.0078125, -0.0078125)">
    <path d="M1426.5 416.5Q1426.5 416.5 1449.25 469.75Q1472 523 1472 640Q1472 757 1426.5 863.5Q1381 970 1303.5 1047.5Q1226 1125 1119.5 1170.5Q1013 1216 896 1216Q779 1216 672.5 1170.5Q566 1125 488.5 1047.5Q411 970 365.5 863.5Q320 757 320 640Q320 523 365.5 416.5Q411 310 488.5 232.5Q566 155 672.5 109.5Q779 64 896 64Q1013 64 1119.5 109.5Q1226 155 1303.5 232.5Q1381 310 1426.5 416.5ZM1748 363Q1744 348 1728 343L1436 247L1436 -59Q1436 -75 1423 -85Q1408 -95 1394 -89L1102 5L922 -243Q912 -256 896 -256Q880 -256 870 -243L690 5L398 -89Q384 -95 369 -85Q356 -75 356 -59L356 247L64 343Q48 348 44 363Q39 380 48 392L228 640L48 888Q39 901 44 917Q48 932 64 937L356 1033L356 1339Q356 1355 369 1365Q384 1375 398 1369L690 1275L870 1523Q879 1535 896 1535Q913 1535 922 1523L1102 1275L1394 1369Q1408 1375 1423 1365Q1436 1355 1436 1339L1436 1033L1728 937Q1744 932 1748 917Q1753 901 1744 888L1564 640L1744 392Q1753 380 1748 363Z" fill="#f4bf75" />
  </g>
</svg>