<?xml version="1.0" encoding="UTF-8"?>
<svg width="16" height="16" viewBox="0 0 16 16" xmlns="http://www.w3.org/2000/svg">
  <g transform="translate(1.3413460103581456, 14.977065878576454) scale(0.015585937499999999, -0.015585937499999999)">
    <path d="M807 502Q873 608 850 708Q826 809 753.5 875Q681 941 578 957Q475 974 381 913L143 761Q100 733 70 693Q40 653 26.5 605Q13 557 17 504Q22 450 48 394Q-18 294 4 194Q26 94 98 26Q170 -42 273 -61Q377 -80 474 -17L712 134Q761 166 791 209Q820 251 832 299Q844 347 837 399Q831 451 807 502ZM212 663L449 815Q508 850 566 841Q625 832 667.5 796Q710 760 727 705Q744 650 720 593Q691 616 661 630Q631 644 606 651Q615 687 583.5 708.5Q552 730 522 711L284 560Q240 529 271 486.5Q302 444 346 471L437 528Q513 571 581 550Q650 528 687.5 474.5Q725 421 719 352Q714 283 643 232L406 81Q352 47 294 54Q235 61 191.5 95.5Q148 130 129 185Q110 240 135 303Q162 283 190.5 268.5Q219 254 249 245Q242 203 274 185Q306 167 334 184L571 336Q615 369 584 410Q553 451 509 425L418 367Q343 323 274 345Q206 367 168 420.5Q130 474 135 544Q140 613 212 663Z" fill="#d28445" />
  </g>
</svg>