<?xml version="1.0" encoding="UTF-8"?>
<svg width="16" height="16" viewBox="0 0 16 16" xmlns="http://www.w3.org/2000/svg">
  <g transform="translate(1, 14.125) scale(0.013671875, -0.013671875)">
    <path d="M0 448Q0 510 44 554Q88 598 150 598Q106 642 106 704Q106 766 150 810Q194 854 256 854Q318 854 362 810Q362 872 406 916Q450 960 512 960Q574 960 618 916Q662 872 662 810Q706 854 768 854Q830 854 874 810Q918 766 918 704Q918 642 874 598Q936 598 980 554Q1024 510 1024 448Q1024 448 1024 368Q1024 288 1024 192Q1024 96 1024 16Q1024 -64 1024 -64L0 -64L0 448ZM566 414L511 146L456 414L377 414L472 -43L550 -43L645 414Q645 414 605.5 414Q566 414 566 414ZM834 280L912 280Q912 335 873 374Q834 413 779 413Q723 413 684 374Q645 335 645 280L645 91Q645 35 684 -4Q723 -43 779 -43Q834 -43 873 -4Q912 35 912 91L912 224L779 224L779 146L834 146L834 91Q833 38 780 35.5Q727 33 723 91L723 280Q725 334 777.5 335.5Q830 337 834 280ZM204 241Q197 248 192.5 258Q188 268 188 280Q190 334 243 335Q296 336 299 280L377 280Q377 335 338 374Q299 413 244 413Q188 413 149 374Q110 335 110 280Q110 218 152 182Q194 146 244 146Q300 143 298.5 90Q297 37 244 35Q221 35 204.5 51.5Q188 68 188 91L110 91Q110 35 149 -4Q188 -43 244 -43Q299 -43 338 -4Q377 35 377 91Q377 118 366.5 142.5Q356 167 338 185Q320 203 295.5 213.5Q271 224 244 224Q232 224 222 228.5Q212 233 204 241ZM817 505L651 505L768 623Q789 623 807.5 633Q826 643 838 663Q862 703 838.5 744Q815 785 769 785Q733 785 710 760.5Q687 736 687 704L569 587L569 753Q588 771 592.5 798Q597 825 582 851Q559 891 512 891Q465 891 442 851Q427 825 431.5 798Q436 771 455 753L455 587L337 704Q337 730 321 752.5Q305 775 277 782Q232 795 198.5 761.5Q165 728 178 683Q185 655 207.5 639Q230 623 256 623L373 505L207 505Q174 540 122 524Q70 508 69 448L955 448Q952 510 901 524.5Q850 539 817 505Z" fill="#ee9e2e" />
  </g>
</svg>