<?xml version="1.0" encoding="UTF-8"?>
<svg width="16" height="16" viewBox="0 0 16 16" xmlns="http://www.w3.org/2000/svg">
  <g transform="translate(0.5099999999999998, 14.55375) scale(0.01462890625, -0.01462890625)">
    <path d="M1024 560Q914 553 785 539Q656 524 543.5 513Q431 502 352 501Q273 501 263 523Q260 551 337 586Q413 622 529 656.5Q645 691 779 721Q913 750 1024 764ZM0 361L0 139Q121 154 268 185Q415 216 541 253.5Q667 291 748 329Q829 366 819 393Q808 419 719 419Q631 419 507.5 407.5Q384 396 246 380Q109 365 0 361ZM988 822L0 822L0 552Q92 589 211 628Q331 666 462.5 701Q594 736 729 767Q865 798 988 822ZM52 74L1024 74L1024 342Q919 300 790 259Q661 217 528.5 181.5Q396 146 272 118Q148 90 52 74Z" fill="#ffffff" />
  </g>
</svg>