<?xml version="1.0" encoding="UTF-8"?>
<svg width="16" height="16" viewBox="0 0 16 16" xmlns="http://www.w3.org/2000/svg">
  <g transform="translate(0.5099999999999998, 14.556064700356012) scale(0.01462890625, -0.01462890625)">
    <path d="M255 891Q128 817 64 697Q0 577 0 448Q0 319 64 199Q128 79 255 5Q383 -69 519 -64Q655 -59 767.5 5.5Q880 70 952 185Q1024 301 1024 448Q1024 595 952 711Q880 826 767.5 890.5Q655 955 519 960Q383 965 255 891ZM353 143Q261 143 241 186Q220 229 220 280Q220 331 213 373Q207 415 143 413L143 486Q203 479 210 523Q216 567 217.5 621.5Q219 676 241 719Q262 762 352 751L352 695Q302 693 293 665Q285 637 286 598Q287 559 282 518Q276 476 231 450Q276 420 283 376Q289 332 288.5 292.5Q288 253 297 227Q305 202 353 209L353 143ZM344 410Q324 422 324 446Q324 470 344 481Q365 493 385.5 481Q406 469 406 446Q406 422 385.5 410Q365 398 344 410ZM491 410Q471 422 471 446Q471 470 491 481Q512 493 532.5 481Q553 469 553 446Q553 422 532.5 410Q512 398 491 410ZM638 410Q618 422 618 446Q618 470 638 481Q659 493 679.5 481Q700 469 700 446Q700 422 679.5 410Q659 398 638 410ZM671 143L671 209Q719 202 727 227Q736 253 735.5 292.5Q735 332 741 376Q748 420 793 450Q748 476 742 518Q737 559 738 598Q739 637 731 665Q722 693 672 695L672 751Q762 762 783 719Q805 676 806.5 621.5Q808 567 814 523Q821 479 881 486L881 413Q817 415 811 373Q804 331 804 280Q804 229 783 186Q763 143 671 143Z" fill="#66783e" />
  </g>
</svg>