<?xml version="1.0" encoding="UTF-8"?>
<svg width="16" height="16" viewBox="0 0 16 16" xmlns="http://www.w3.org/2000/svg">
  <g transform="translate(0.006054687499999822, 14.9825) scale(0.015585937499999999, -0.015585937499999999)">
    <path d="M638 905Q638 905 675 881Q711 856 759.5 810.5Q808 765 855 700Q903 635 925 554Q966 409 951 338Q936 267 936 267Q936 267 956 242Q976 217 1000 161Q1035 76 1022.5 33.5Q1010 -9 1010 -9Q1010 -9 994.5 32.5Q979 74 893 86Q815 98 758.5 47.5Q702 -3 553 1Q510 2 447 12Q383 21 309 54Q235 87 155 149Q75 212 0 320Q36 300 79 275Q121 251 168.5 231Q216 211 270 199Q323 188 383 193Q502 202 538 229.5Q574 257 574 257Q574 257 524 299Q474 342 402 413Q330 484 249 576Q168 668 106 767Q153 726 226 671Q300 615 368.5 565Q437 515 486 480Q534 446 532 448Q496 475 444 537Q391 598 342 661Q293 724 258 772Q223 820 223 820Q223 820 296 758Q369 697 459.5 623Q550 549 629 487Q709 426 723 427Q729 439 742 477Q754 514 753.5 575Q753 636 729 719Q705 802 638 905Z" fill="#d28445" />
  </g>
</svg>