<?xml version="1.0" encoding="UTF-8"?>
<svg width="16" height="16" viewBox="0 0 16 16" xmlns="http://www.w3.org/2000/svg">
  <g transform="translate(0.51, 14.55375) scale(0.01462890625, -0.01462890625)">
    <path d="M39 227L39 660Q39 678 51.5 691Q64 704 82 704L942 704Q960 704 972.5 691Q985 678 985 660L985 227Q985 209 972.5 196Q960 183 942 183L82 183Q64 183 51.5 196Q39 209 39 227L39 227ZM912 721L774 721L774 818L912 818ZM774 164L912 164L912 76L774 76ZM881 838L805 838L815 960L872 960ZM805 58L881 58L872 -64L815 -64ZM693 721L555 721L555 818L693 818ZM555 164L693 164L693 76L555 76ZM662 838L586 838L597 960L654 960ZM586 58L662 58L654 -64L597 -64L586 58ZM475 721L337 721L337 818L475 818ZM337 164L475 164L475 76L337 76ZM444 838L368 838L378 960L435 960ZM368 58L444 58L435 -64L378 -64ZM256 721L118 721L118 818L256 818ZM118 164L256 164L256 76L118 76L118 164ZM225 838L149 838L160 960L217 960L225 838ZM149 58L225 58L217 -64L160 -64L149 58ZM781 358Q735 305 649 282Q564 258 475 262Q386 266 311 298Q235 331 209 391L129 391Q150 312 238 272Q327 231 433 227Q539 223 638 256Q737 289 781 358ZM895 499Q874 577 786 618Q697 659 591 663Q485 667 386 634Q287 601 243 532Q289 584 375 608Q460 632 549 628Q638 624 713 591Q789 559 815 499L895 499ZM342 396L333 397Q333 397 332 396.5Q331 396 331 395L326 334Q326 331 327 330Q328 329 330 329Q332 329 333.5 329.5Q335 330 336 333Q337 335 338.5 336.5Q340 338 341 338Q342 338 344 337.5Q346 337 349 335Q359 328 371.5 324.5Q384 321 406 321Q438 321 457 341.5Q476 362 476 392Q476 408 472 419.5Q468 431 458 439Q448 448 438.5 454Q429 460 417 464Q406 467 393.5 472.5Q381 478 375 484Q369 490 368 497.5Q367 505 367 514Q367 520 375 531.5Q383 543 401 543Q411 543 419 539.5Q427 536 433 529Q441 521 445.5 512Q450 503 453 496Q453 495 454.5 494Q456 493 457 494L464 496Q464 496 464.5 496.5Q465 497 465 498L460 553Q460 554 459.5 556Q459 558 457 558Q456 558 454.5 557.5Q453 557 452 556L448 552Q447 551 445 550.5Q443 550 441 551Q436 553 426 555Q416 557 398 557Q383 557 373 553.5Q363 550 352 542Q338 531 333 520Q328 509 328 495Q328 481 332 469Q336 457 344 449Q356 439 369.5 431.5Q383 424 390 421Q422 410 429.5 400.5Q437 391 437 371Q437 352 423 344Q409 336 397 336Q386 336 375 341.5Q364 347 357 358Q351 367 348 376.5Q345 386 344 394Q344 395 343.5 395.5Q343 396 342 396ZM648 551L648 543Q648 541 648 540.5Q648 540 649 540L659 540Q666 540 669 536Q672 532 672 529Q672 527 671.5 522.5Q671 518 669 512Q665 501 658.5 484Q652 467 648 455Q645 446 635.5 422Q626 398 619 382L617 382L593 453Q588 467 581 490Q574 513 572 521Q571 525 571 527.5Q571 530 571 532Q571 535 575 537.5Q579 540 584 540L598 540Q600 540 600.5 541Q601 542 601 543L601 550Q601 552 600.5 552.5Q600 553 598 553Q595 553 583.5 552.5Q572 552 547 552Q518 552 507.5 552.5Q497 553 495 553Q493 553 493 552.5Q493 552 493 551L493 543Q493 542 493 541Q493 540 494 540L503 540Q508 540 511 537.5Q514 535 516 529Q519 523 528.5 496Q538 469 545 452Q552 435 569 390.5Q586 346 595 327Q596 324 597.5 321.5Q599 319 602 319Q605 319 606.5 320.5Q608 322 610 325Q614 332 633.5 378Q653 424 659 437Q668 457 678 482Q688 507 698 523Q704 534 711 537Q718 540 722 540L729 540Q731 540 731 540.5Q731 541 731 542L731 550Q731 552 731 552.5Q731 553 729 553Q727 553 719 552.5Q711 552 688 552Q672 552 662 552.5Q652 553 649 553Q648 553 648 552.5Q648 552 648 551Z" fill="#75b5aa" />
  </g>
</svg>