<?xml version="1.0" encoding="UTF-8"?>
<svg width="16" height="16" viewBox="0 0 16 16" xmlns="http://www.w3.org/2000/svg">
  <g transform="translate(1, 14.125) scale(0.013671875, -0.013671875)">
    <path d="M439 960L146 960L0 814L0 521L585 -64L1024 375L439 960ZM73 558L73 777L183 887L402 887L914 375L585 46L73 558ZM512 667L293 448L585 155L805 375ZM402 448L512 558L695 375L585 265L402 448ZM238 672Q219 683 219 704Q219 725 238 736Q256 746 274.5 735.5Q293 725 293 704Q293 683 274.5 672.5Q256 662 238 672ZM366 704Q366 767 311 799Q256 831 201 799Q146 767 146 704Q146 641 201 609Q256 577 311 609Q366 641 366 704Z" fill="#90a959" />
  </g>
</svg>