<?xml version="1.0" encoding="UTF-8"?>
<svg width="16" height="16" viewBox="0 0 16 16" xmlns="http://www.w3.org/2000/svg">
  <g transform="translate(-0.46999999999999886, 15.411249999999999) scale(0.016542968749999998, -0.016542968749999998)">
    <path d="M256 551Q269 602 291 640Q314 679 346 704.5Q378 730 419 743Q461 756 512 756Q589 756 636 732Q683 707 716.5 676Q750 645 778 615Q806 586 845 576Q896 563 941 582.5Q986 602 1024 653Q1011 602 989 564Q966 525 934 499.5Q902 474 861 461Q819 448 768 448Q691 448 644 472Q597 497 563.5 528Q530 559 502 589Q474 618 435 628Q384 641 339 621.5Q294 602 256 551ZM0 243Q13 294 35 332Q58 371 90 396.5Q122 422 163 435Q205 448 256 448Q333 448 380 424Q427 399 460.5 368Q494 337 522 307Q550 278 589 268Q640 255 685 274.5Q730 294 768 345Q755 294 733 256Q710 217 678 191.5Q646 166 605 153Q563 140 512 140Q435 140 388 164Q341 189 307.5 220Q274 251 246 281Q218 310 179 320Q128 333 83 313.5Q38 294 0 243Z" fill="#75b5aa" />
  </g>
</svg>