<?xml version="1.0" encoding="UTF-8"?>
<svg width="16" height="16" viewBox="0 0 16 16" xmlns="http://www.w3.org/2000/svg">
  <g transform="translate(4.223873697916667, 14.9825) scale(0.015585937499999999, -0.015585937499999999)">
    <path d="M111 105Q113 122 107.5 133Q102 144 92 152Q82 160 68 165Q54 170 39 174L32 176L74 187Q42 218 19 256.5Q-4 295 1 364L1 367L36 347Q26 370 28.5 406Q31 442 41 483Q52 526 69 571Q86 616 103 655L105 658L126 631Q124 655 136.5 685.5Q149 716 170 748Q193 782 221.5 815.5Q250 849 278 876L280 878L295 851Q319 902 370 926Q421 950 478 960L480 960L480 958Q484 928 483.5 888Q483 848 477 809Q472 770 460 736Q448 702 427 680L452 681L451 678Q436 638 418 590.5Q400 543 381 498Q362 457 343 423Q324 389 304 370L336 379L336 376Q323 317 282.5 262Q242 207 200 181L230 167L223 167Q209 165 199 160.5Q189 156 182 147Q175 138 169.5 125Q164 112 159 93L159 -64L111 5L111 105ZM316 841L292 802L290 798L278 830Q222 773 184 710.5Q146 648 148 584L148 581L118 601Q90 522 69 455.5Q48 389 66 306L67 303L31 318Q31 317 31.5 316.5Q32 316 32 316Q43 281 59 254.5Q75 228 109 209L167 208Q162 283 176 353Q190 424 215 492.5Q240 561 273 627Q305 693 337 759L334 762Q286 708 250 646Q214 583 187.5 517Q161 451 143 383Q126 315 116 251Q73 350 93.5 426Q114 502 130 568L165 548Q161 609 192.5 673Q224 737 271 795L289 763Q324 835 359 870Q394 905 459 928Q411 915 377.5 897.5Q344 880 316 841Z" fill="#be2f31" />
  </g>
</svg>