<?xml version="1.0" encoding="UTF-8"?>
<svg width="16" height="16" viewBox="0 0 16 16" xmlns="http://www.w3.org/2000/svg">
  <g transform="translate(0.512815329798977, 14.553870473345587) scale(0.01462890625, -0.01462890625)">
    <path d="M941 869L34 518Q6 505 0.5 484.5Q-5 464 25 451L258 376L820 726Q843 742 859.5 739Q876 736 855 718L372 278L357 92Q367 70 384 68Q401 66 413 77L547 204L776 32Q816 8 838.5 21.5Q861 35 869 79L1020 794Q1031 847 1011.5 868.5Q992 890 941 869Z" fill="#9dc0ce" />
  </g>
</svg>