<?xml version="1.0" encoding="UTF-8"?>
<svg width="16" height="16" viewBox="0 0 16 16" xmlns="http://www.w3.org/2000/svg">
  <g transform="translate(-0.342167968750001, 15.901250000000001) scale(0.017636718750000002, -0.017636718750000002)">
    <path d="M946 300L946 355L929 355L855 593L874 593L874 629L730 681L865 880L868 960L798 928L650 710L472 774L81 625L81 593L100 593L23 346L0 346L0 299Q0 299 16 274.5Q32 250 133 250Q227 248 242.5 269.5Q258 291 258 291L258 346L246 346L169 593L570 593L313 212L278 236L270 290L213 213L286 159L158 -27L215 -64L343 123L414 71L474 159L408 146L378 167L669 593L780 593L706 355L688 355L688 307Q688 307 704 282.5Q720 258 821 258Q918 258 932 279Q946 300 946 300ZM120 346L50 346L120 576ZM214 346L146 346L146 581ZM803 355L738 355L803 580ZM834 355L834 580L902 355Z" fill="#d28445" />
  </g>
</svg>