<?xml version="1.0" encoding="UTF-8"?>
<svg width="16" height="16" viewBox="0 0 16 16" xmlns="http://www.w3.org/2000/svg">
  <g transform="translate(0.3550976562500008, 14.984625355113636) scale(0.015585937499999999, -0.015585937499999999)">
    <path d="M256 -64Q256 -64 311 -30.5Q366 3 392 26Q405 37 435 67Q464 96 496.5 129.5Q529 163 558 193Q587 223 599 235Q624 258 655 289.5Q686 321 709 360Q732 410 745 429.5Q758 449 756 463Q749 480 728 494Q707 508 688 524Q761 531 777.5 539.5Q794 548 817 544Q838 541 849 542Q860 543 877 535Q884 532 889.5 527Q895 522 899 517L953 457Q914 525 906.5 529Q899 533 873 569Q906 551 929 530Q952 509 981 482Q981 482 960 510Q939 538 925 552Q925 552 925 552Q925 552 925 552Q913 584 914 585.5Q915 587 900 608Q858 653 841 644Q824 635 748 650Q735 653 724.5 659.5Q714 666 711 678Q701 723 709 752Q717 781 755 819Q773 836 785.5 843.5Q798 851 795 863Q790 891 761 908Q733 925 691.5 935Q650 945 602 950Q554 954 511 958Q430 963 403 957Q376 951 336 946Q369 945 365 940.5Q361 936 366 933Q369 930 416.5 925.5Q464 921 476 913Q505 898 540.5 880Q576 862 582 848Q579 836 557 810.5Q535 785 520 752Q501 714 492 677Q483 640 472 634Q396 616 324 606Q252 596 190 598Q175 599 109 602.5Q43 606 43 606L161 590Q108 586 61.5 581Q15 576 0 569Q89 581 148 574Q207 567 243 567Q317 565 361 551.5Q405 538 476 533Q467 501 507.5 450Q548 399 538 366Q507 327 462 261Q416 195 373 128.5Q330 62 297 7Q263 -48 256 -64Z" fill="#aa759f" />
  </g>
</svg>