<?xml version="1.0" encoding="UTF-8"?>
<svg width="16" height="16" viewBox="0 0 16 16" xmlns="http://www.w3.org/2000/svg">
  <g transform="translate(0.5099999999999998, 14.55375) scale(0.01462890625, -0.01462890625)">
    <path d="M512 606L376 684L376 960L650 960L650 684ZM376 684L138 822L0 586L240 448L376 526ZM784 448L1024 586L888 822L650 684L650 526ZM512 606L376 526L376 370L512 290L650 370L650 526ZM240 448L0 310L136 74L376 212L376 370ZM650 370L650 212L888 74L1024 310L784 448ZM376 212L376 -64L650 -64L650 212L512 290Z" fill="#d28445" />
  </g>
</svg>