<?xml version="1.0" encoding="UTF-8"?>
<svg width="16" height="16" viewBox="0 0 16 16" xmlns="http://www.w3.org/2000/svg">
  <g transform="translate(0.020000000000000462, 14.9825) scale(0.015585937499999999, -0.015585937499999999)">
    <path d="M1015 337Q1004 337 995.5 338Q987 339 982 341Q977 343 972 347.5Q967 352 962 359L837 537L917 653Q922 660 929 666Q936 672 945 678Q953 683 967.5 686Q982 689 1002 689L1002 706L864 706L864 689Q872 689 878.5 686.5Q885 684 890 680Q895 676 897 671.5Q899 667 899 662Q899 660 899 658.5Q899 657 899 655Q899 653 898 651.5Q897 650 895 648L828 550L753 662L750 665Q750 665 749.5 666.5Q749 668 748 670Q748 674 750.5 677Q753 680 758 683Q762 686 769 687.5Q776 689 784 689L784 706L623 706L623 689L633 689Q644 689 653 688Q662 687 667 685Q673 683 677.5 679Q682 675 686 670L792 511L699 372Q696 367 690 361.5Q684 356 675 349Q666 343 651 340Q636 337 614 337L614 319L647 319Q642 292 635 272Q628 252 619 239Q609 223 585.5 215Q562 207 526 207L450 207Q440 207 434 208.5Q428 210 426 212Q425 214 424 218.5Q423 223 423 230L423 381L472 381Q492 381 505 377.5Q518 374 523 366Q529 359 531.5 346Q534 333 534 314L548 314L548 466L534 466Q534 447 532 434Q530 421 525 414Q520 407 507 403Q494 399 472 399L423 399L423 537Q423 544 424 548.5Q425 553 426 555Q428 557 434 558Q440 559 450 559L521 559Q554 559 575.5 553Q597 547 607 534Q616 521 622.5 499.5Q629 478 633 448L646 448L628 577L369 577L361 702L9 702L0 573L13 573Q17 608 22.5 630.5Q28 653 36 663Q44 674 64 679Q84 684 116 684L147 684Q152 684 155 682.5Q158 681 159 678Q160 675 160 671Q160 667 160 662L160 363Q160 357 158.5 352Q157 347 153 343Q149 340 136.5 338.5Q124 337 102 337L76 337L76 319L290 319L290 337L271 337Q250 337 237 338.5Q224 340 221 343Q217 347 215.5 352Q214 357 214 363L214 662Q214 667 214 670.5Q214 674 215 676Q215 678 217 680Q219 682 222 684L254 684Q286 684 305.5 679Q325 674 333 663Q341 653 346.5 631.5Q352 610 356 577L312 577L312 559L325 559Q342 559 351.5 558Q361 557 364 554Q367 552 368.5 546.5Q370 541 370 533L370 234Q370 226 368.5 220.5Q367 215 364 212Q361 210 351.5 208.5Q342 207 325 207L312 207L312 190L641 190L661 319L757 319L757 337Q747 337 740 339.5Q733 342 729 347Q725 352 723 356Q721 360 721 363Q721 365 721.5 366.5Q722 368 722 370Q722 372 723 373.5Q724 375 726 377L806 497L895 359Q895 357 895.5 356Q896 355 897 355L899 355Q899 351 897 348Q895 345 890 342Q885 339 878.5 338Q872 337 864 337L864 319L1024 319L1024 337L1015 337Z" fill="#7c4426" />
  </g>
</svg>