<?xml version="1.0" encoding="UTF-8"?>
<svg width="16" height="16" viewBox="0 0 16 16" xmlns="http://www.w3.org/2000/svg">
  <g transform="translate(0.015004507211538787, 14.982704199735451) scale(0.015585937499999999, -0.015585937499999999)">
    <path d="M501 544Q493 542 482 543Q471 544 463 536Q463 536 463 536Q463 536 463 536Q439 588 418 651Q397 715 387 775.5Q377 836 383 885Q388 934 417 956Q463 939 484 883Q505 827 510.5 760.5Q516 694 511 633Q507 571 501 544ZM558 529Q561 528 564 527Q567 526 571 524Q609 551 642 585Q674 619 701 657.5Q728 696 748 738Q769 780 784 822Q787 860 782 877.5Q777 895 765 897Q723 895 683 845Q643 795 613.5 732Q584 669 568 609Q552 550 558 529ZM513 550Q512 548 512.5 547Q513 546 514 545Q526 537 535 535.5Q544 534 545 537Q553 606 577 673Q601 740 642 804Q650 873 634 911Q618 949 605 956Q591 963 561.5 929.5Q532 896 517 822Q522 772 526.5 705Q531 638 513 550ZM372 805Q335 859 294.5 880.5Q254 902 243 893Q232 882 234 834.5Q236 787 293 691Q329 660 373.5 612.5Q418 565 446 522Q448 526 450.5 528.5Q453 531 457 533Q433 581 412 647Q391 713 372 805ZM605 474Q605 471 605 463.5Q605 456 603 448Q632 437 677 433Q723 429 770.5 430Q818 431 860 435Q902 439 924 445Q969 455 1000 479.5Q1031 504 1023 522Q1016 537 1002.5 545Q989 553 973 556Q917 558 865 553Q814 548 768 537Q722 526 681 510Q640 494 605 474ZM596 502Q599 499 601 495.5Q603 492 604 489Q673 527 751 546.5Q829 566 908 569Q947 600 977.5 644Q1008 688 925 689Q906 689 878 681Q850 673 820 662Q774 619 720.5 576.5Q667 534 596 502ZM834 694Q851 716 864 741.5Q877 767 882 800Q885 825 862.5 828.5Q840 832 792 808Q776 762 753 720Q730 678 702.5 642Q675 606 644 575Q612 544 577 520Q580 519 582.5 516.5Q585 514 586 513Q609 518 643 539Q676 559 711.5 586Q747 613 779 642Q812 671 834 694ZM524 369L509 365Q500 327 495 272.5Q490 218 487 156Q499 28 530 -18Q561 -64 575 -61Q607 -57 616 -2Q625 53 620 85Q614 123 604 164Q595 204 582.5 242Q570 280 556 313Q541 346 524 369ZM463 383Q461 384 459.5 385Q458 386 457 387Q402 368 343 323Q284 277 239.5 225Q195 173 173 125Q151 77 170 52Q194 27 241 60Q287 92 334.5 150Q382 208 419 274Q456 341 463 383ZM452 390Q445 395 439 400.5Q433 406 428 414L417 412Q367 390 313.5 374Q260 358 206 346Q153 316 100.5 268.5Q48 221 62 193Q78 162 130 176.5Q182 191 208 203Q265 268 326 317Q387 366 452 390ZM633 87Q653 57 688.5 19.5Q724 -18 754 -5Q787 9 767.5 70.5Q748 132 728 173Q684 214 643.5 262.5Q603 311 571 375Q567 378 564 380.5Q561 383 559 386Q556 380 548 376.5Q540 373 540 373L540 368Q583 296 602 222.5Q621 149 633 87ZM789 312Q835 299 912.5 288.5Q990 278 1011 321Q1016 333 984 365Q952 397 857 423Q779 415 717 416Q655 417 597 437Q596 429 591 423Q586 417 592 411Q650 394 700.5 367Q751 340 789 312ZM916 119Q934 139 906 180Q878 222 825.5 266.5Q773 311 706 349Q640 387 580 400Q579 399 578 398Q577 397 575 396Q603 334 648 277Q693 220 742 179.5Q791 139 838 121Q885 102 916 119ZM339 128Q330 87 326 28.5Q322 -30 349 -42Q383 -56 418 8.5Q453 73 474 138Q477 207 481.5 267.5Q486 328 495 362L472 369L467 365Q455 315 417.5 249.5Q380 184 339 128ZM83 467Q50 462 24 443Q-2 424 0 409Q3 386 54 366Q105 346 197 357Q276 371 332.5 389Q389 407 424 420Q427 427 427 434.5Q427 442 424 450Q363 451 299 471.5Q235 492 83 467ZM285 682Q236 720 182 742.5Q128 765 94 753Q56 739 94 689.5Q132 640 189 597Q242 567 308 538.5Q374 510 431 496Q432 499 437 502Q442 505 444 510Q444 510 444 510Q444 510 443 510Q437 528 388 584Q339 640 285 682ZM421 458Q421 465 422 470.5Q423 476 426 480L403 496Q360 507 305 530.5Q250 554 202 577Q78 602 20.5 568.5Q-37 535 78 479Q216 501 290 482.5Q364 464 421 458Z" fill="#a35f27" />
  </g>
</svg>