<?xml version="1.0" encoding="UTF-8"?>
<svg width="16" height="16" viewBox="0 0 16 16" xmlns="http://www.w3.org/2000/svg">
  <g transform="translate(0.5278302402569974, 14.562604072312805) scale(0.01462890625, -0.01462890625)">
    <path d="M89 876Q31 820 12 748Q-8 677 6 607.5Q20 538 66 480Q112 422 185 393L142 229Q78 229 36.5 180Q-5 131 3 63Q8 21 32 -9Q57 -39 91 -53Q125 -67 164 -63Q203 -59 237 -33Q302 16 296 95.5Q290 175 221 211L268 380Q344 371 387 386.5Q430 402 475 439L680 228Q660 194 660 156Q660 119 676 86.5Q692 54 723 31Q753 8 793 4Q835 0 869 17Q904 34 925 64.5Q946 95 951 134Q956 173 938 212Q909 275 845.5 292.5Q782 310 730 279L523 490Q556 533 572 587Q588 641 580 699L748 746Q777 689 834.5 664.5Q892 640 955 686Q990 709 1006 745Q1022 781 1019.5 819.5Q1017 858 996 892Q975 926 937 945Q864 981 800 936.5Q736 892 734 815L564 768Q535 845 478 892Q421 938 353.5 952Q286 966 216 947Q145 928 89 876ZM224 537Q188 558 170 593Q152 627 152 664.5Q152 702 170 737Q188 772 224 793Q260 815 298 813Q337 812 369 793.5Q401 775 421 741Q442 708 442 665Q442 622 421 589Q401 555 369 536.5Q337 518 298 517Q260 515 224 537Z" fill="#825078" />
  </g>
</svg>