<?xml version="1.0" encoding="UTF-8"?>
<svg width="16" height="16" viewBox="0 0 16 16" xmlns="http://www.w3.org/2000/svg">
  <g transform="translate(1.1244140624999996, 14.55308504971591) scale(0.01462890625, -0.01462890625)">
    <path d="M314 930L314 674Q314 662 305.5 653.5Q297 645 285 645L29 645Q17 645 8.5 653.5Q0 662 0 674L0 780Q0 788 3.5 794.5Q7 801 14 805L259 955Q279 964 296.5 956.5Q314 949 314 930ZM940 677L940 930Q940 942 931.5 950.5Q923 959 911 959L405 959Q393 959 384.5 950.5Q376 942 376 930L376 -35Q376 -47 384.5 -55.5Q393 -64 405 -64L688 -64Q700 -64 708.5 -55.5Q717 -47 717 -35L717 618Q717 630 725.5 638.5Q734 647 746 647L911 647Q923 647 931.5 656Q940 665 940 677Z" fill="#90a959" />
  </g>
</svg>