<?xml version="1.0" encoding="UTF-8"?>
<svg width="16" height="16" viewBox="0 0 16 16" xmlns="http://www.w3.org/2000/svg">
  <g transform="translate(2.8384688926940638, 14.9825) scale(0.015585937499999999, -0.015585937499999999)">
    <path d="M617 375Q659 298 662 222Q664 146 629.5 84.5Q595 23 526 -18Q456 -58 355 -64Q260 -63 189 -22Q118 19 72.5 82Q27 145 10 221Q-8 297 6 368Q12 323 35 287Q58 251 90 231Q122 211 158 211Q195 212 230 241Q286 299 282 346Q278 393 220 515Q266 486 311 472Q357 458 401.5 460Q446 462 489 479Q532 497 574 529Q567 485 584.5 446.5Q602 408 617 375ZM175 506Q172 536 136.5 553Q101 570 68 530Q53 512 42.5 489.5Q32 467 23 440Q11 333 63.5 282.5Q116 232 170 233Q138 249 132.5 311Q127 373 150 423Q162 454 169.5 471Q177 488 175 506ZM389 488Q293 491 230 540Q166 590 138 661Q110 732 118 813Q127 894 175 960Q210 940 235.5 911Q261 882 279 846Q332 855 386.5 855Q441 855 498 846Q514 879 540.5 908.5Q567 938 603 960Q650 886 659 806Q669 726 642 658Q615 590 552 543Q488 495 389 488ZM617 744Q612 787 556.5 764.5Q501 742 426 701Q397 686 386 688.5Q375 691 352 701Q275 738 223 765Q171 792 161 744Q156 669 200.5 625.5Q245 582 316 564Q312 547 333.5 537Q355 527 389 541Q426 526 445.5 537.5Q465 549 462 564Q537 582 579 627.5Q621 673 617 744ZM417 582Q389 565 388.5 565Q388 565 361 582Q372 593 388.5 593.5Q405 594 417 582ZM200 697Q209 651 254 628Q299 605 335 644Q319 666 300 683Q281 700 263 711Q270 694 269 674.5Q268 655 259 640Q250 655 249 676.5Q248 698 256 714Q224 732 209 729.5Q194 727 200 697ZM523 714Q531 698 530.5 676.5Q530 655 521 640Q512 655 511 674Q510 693 517 711Q499 700 480 683Q461 666 445 644Q480 605 525 628Q570 651 580 697Q585 726 570.5 729Q556 732 523 714Z" fill="#75b5aa" />
  </g>
</svg>