<?xml version="1.0" encoding="UTF-8"?>
<svg width="16" height="16" viewBox="0 0 16 16" xmlns="http://www.w3.org/2000/svg">
  <g transform="translate(0.5099999999999998, 14.55375) scale(0.01462890625, -0.01462890625)">
    <path d="M753 917L587 754L0 754L0 -21L920 -20L920 549L1024 653L753 917ZM75 700L537 700L491 654L513 633L75 633L75 700ZM847 30L75 30L75 565L583 565L762 391L847 476ZM787 630L787 492L724 492L724 630L590 630L590 693L723 693L723 822L787 822L787 693L920 693L920 630L787 630ZM289 387L289 492L636 492L636 387L583 387L583 436L503 436L503 149L558 149L558 86L381 86L381 149L437 149L437 436L339 436L339 387L289 387Z" fill="#8f5536" />
  </g>
</svg>