<?xml version="1.0" encoding="UTF-8"?>
<svg width="16" height="16" viewBox="0 0 16 16" xmlns="http://www.w3.org/2000/svg">
  <g transform="translate(0.5099999999999998, 13.885000000000002) scale(0.008359375, -0.008359375)">
    <path d="M256 224L256 32Q256 19 246.5 9.5Q237 0 224 0L32 0Q19 0 9.5 9.5Q0 19 0 32L0 224Q0 237 9.5 246.5Q19 256 32 256L224 256Q237 256 246.5 246.5Q256 237 256 224ZM256 608L256 416Q256 403 246.5 393.5Q237 384 224 384L32 384Q19 384 9.5 393.5Q0 403 0 416L0 608Q0 621 9.5 630.5Q19 640 32 640L224 640Q237 640 246.5 630.5Q256 621 256 608ZM256 992L256 800Q256 787 246.5 777.5Q237 768 224 768L32 768Q19 768 9.5 777.5Q0 787 0 800L0 992Q0 1005 9.5 1014.5Q19 1024 32 1024L224 1024Q237 1024 246.5 1014.5Q256 1005 256 992ZM1792 224L1792 32Q1792 19 1782.5 9.5Q1773 0 1760 0L416 0Q403 0 393.5 9.5Q384 19 384 32L384 224Q384 237 393.5 246.5Q403 256 416 256L1760 256Q1773 256 1782.5 246.5Q1792 237 1792 224ZM256 1376L256 1184Q256 1171 246.5 1161.5Q237 1152 224 1152L32 1152Q19 1152 9.5 1161.5Q0 1171 0 1184L0 1376Q0 1389 9.5 1398.5Q19 1408 32 1408L224 1408Q237 1408 246.5 1398.5Q256 1389 256 1376ZM1792 608L1792 416Q1792 403 1782.5 393.5Q1773 384 1760 384L416 384Q403 384 393.5 393.5Q384 403 384 416L384 608Q384 621 393.5 630.5Q403 640 416 640L1760 640Q1773 640 1782.5 630.5Q1792 621 1792 608ZM1792 992L1792 800Q1792 787 1782.5 777.5Q1773 768 1760 768L416 768Q403 768 393.5 777.5Q384 787 384 800L384 992Q384 1005 393.5 1014.5Q403 1024 416 1024L1760 1024Q1773 1024 1782.5 1014.5Q1792 1005 1792 992ZM1792 1376L1792 1184Q1792 1171 1782.5 1161.5Q1773 1152 1760 1152L416 1152Q403 1152 393.5 1161.5Q384 1171 384 1184L384 1376Q384 1389 393.5 1398.5Q403 1408 416 1408L1760 1408Q1773 1408 1782.5 1398.5Q1792 1389 1792 1376Z" fill="#75b5aa" />
  </g>
</svg>