<?xml version="1.0" encoding="UTF-8"?>
<svg width="16" height="16" viewBox="0 0 16 16" xmlns="http://www.w3.org/2000/svg">
  <g transform="translate(-0.4659680989583303, 15.41190242991728) scale(0.016542968749999998, -0.016542968749999998)">
    <path d="M935 618Q929 602 917 602Q905 602 899 618Q893 634 899 650Q905 666 917 666Q929 666 935 650Q941 634 935 618ZM977 679Q966 679 960.5 663.5Q955 648 961 632Q966 617 977 617Q988 617 994 632Q999 648 993.5 663.5Q988 679 977 679ZM990 585Q1001 596 1007.5 614Q1014 632 1014 654Q1014 711 982 732Q950 753 923 723Q903 736 883 727Q863 718 852 691Q835 676 829 661Q823 646 815 594Q804 572 792 551Q780 530 741 532Q757 552 736.5 571.5Q716 591 688 580Q681 599 639.5 625.5Q598 652 568 664Q511 685 448 684Q385 683 336 666Q269 642 226 588Q183 534 168 472L51 513Q14 529 3 518.5Q-8 508 16 485Q79 433 106.5 419Q134 405 148 389Q102 339 97 312.5Q92 286 105 240Q114 208 173.5 193Q233 178 248 186Q260 193 270 204Q280 215 280 218Q280 236 257.5 267Q235 298 258 329Q273 317 311 303.5Q349 290 368 287Q358 272 356 254Q354 236 357 220Q360 191 395.5 177.5Q431 164 468 158Q503 161 535 156Q567 151 592 190Q596 214 591.5 242Q587 270 574 290Q584 287 593 288Q602 289 612 292Q613 256 630.5 228.5Q648 201 678 201Q720 198 745.5 206.5Q771 215 790 248Q802 281 778 318Q754 355 713 390Q785 386 798 425.5Q811 465 857 466Q899 467 917.5 471Q936 475 943 488Q918 491 900.5 502.5Q883 514 871 536Q868 542 873.5 545Q879 548 882 542Q892 524 908.5 512.5Q925 501 957 500Q985 499 996 504Q1007 509 1021 532Q1028 545 1018.5 556.5Q1009 568 990 585ZM677 466Q666 414 640 360Q614 306 586 313Q529 329 476.5 328.5Q424 328 388 311Q361 311 335.5 323.5Q310 336 284 342Q268 350 239 379Q210 408 166 407Q142 431 141 438.5Q140 446 167 446Q218 433 242.5 420.5Q267 408 309 377Q369 344 417 362.5Q465 381 502 383Q535 386 558.5 370.5Q582 355 603 365Q621 373 633 400Q645 427 657 472Q674 544 692.5 552.5Q711 561 722 550Q719 541 703.5 529Q688 517 677 466ZM936 609Q924 573 900 573Q876 573 864 609Q852 644 864 679.5Q876 715 900 715Q924 715 936 679.5Q948 644 936 609ZM943 588Q959 618 956.5 653.5Q954 689 934 713Q939 719 945 722Q951 725 958 725Q982 725 993.5 689.5Q1005 654 994 619Q985 595 970.5 587Q956 579 943 588Z" fill="#ac4142" />
  </g>
</svg>