<?xml version="1.0" encoding="UTF-8"?>
<svg width="16" height="16" viewBox="0 0 16 16" xmlns="http://www.w3.org/2000/svg">
  <g transform="translate(0.6709179687499995, 14.556064700356012) scale(0.01462890625, -0.01462890625)">
    <path d="M250 891Q125 817 63 697Q0 577 0 448Q0 319 63 199Q125 79 250 5Q375 -69 508 -64Q641 -59 751 5.5Q861 70 932 185Q1002 301 1002 448Q1002 595 932 711Q861 826 751 890.5Q641 955 508 960Q375 965 250 891ZM852 284Q851 255 819.5 254.5Q788 254 663 289Q666 235 661 182.5Q656 130 643 106Q594 111 521 125Q448 140 374.5 158.5Q301 177 240 198Q179 219 155 236Q148 292 144 346Q140 399 139.5 449.5Q139 500 142 548Q145 595 152 638Q162 659 235.5 641.5Q309 624 339 612Q336 665 337.5 723.5Q339 782 356 801Q402 794 469 779Q537 763 603 746Q669 729 722 715Q775 700 793 695Q816 688 835 677.5Q854 667 856 612Q859 555 859 502Q859 449 857.5 405.5Q856 362 855 331Q853 299 852 284ZM653 495Q655 482 657 448Q658 414 659.5 378.5Q661 343 662 316Q663 289 663 289L385 365Q368 371 357 384.5Q346 398 345 416L339 612Q339 612 385.5 602.5Q432 593 492 578Q602 551 626.5 532Q651 513 653 495Z" fill="#90a959" />
  </g>
</svg>