<?xml version="1.0" encoding="UTF-8"?>
<svg width="16" height="16" viewBox="0 0 16 16" xmlns="http://www.w3.org/2000/svg">
  <g transform="translate(0.81172119140625, 14.561725866439495) scale(0.01462890625, -0.01462890625)">
    <path d="M410 -13Q410 -27 376 -21Q342 -16 293 2.5Q244 21 190 49Q136 78 95 112Q215 -23 365 -52Q516 -82 649.5 -32Q783 18 878 134Q972 250 980 406Q956 329 898 284Q840 239 761 228.5Q682 218 588 244Q494 269 398 332Q282 417 236 517Q190 617 205 705Q220 793 291 857Q362 920 480 932Q559 938 634 910Q710 882 763.5 835.5Q817 789 839 731Q861 674 834 620Q801 559 737 549Q673 539 611.5 564Q550 589 507 640Q464 692 473 754Q477 795 503 811.5Q529 828 517 787Q502 741 531 704Q560 666 605 648Q650 630 696 637Q742 645 761 688Q780 736 745 776Q709 815 652.5 837Q596 859 535 859Q474 858 440 826Q357 742 396 655Q434 568 525 514Q616 460 724 456Q832 452 887 534Q926 596 905 671Q884 747 823 812.5Q762 878 670 921Q579 964 476 960Q311 957 197 875Q83 792 34 673Q-15 554 7 420Q29 285 134 179Q194 121 245 87Q296 52 333.5 33Q371 14 391 5Q412 -4 410 -13Z" fill="#8f5536" />
  </g>
</svg>