<?xml version="1.0" encoding="UTF-8"?>
<svg width="16" height="16" viewBox="0 0 16 16" xmlns="http://www.w3.org/2000/svg">
  <g transform="translate(1, 14.125) scale(0.013671875, -0.013671875)">
    <path d="M0 960L0 -64L1024 -64L1024 960ZM589 516L443 516L443 64L363 64L363 516L218 516L218 590L589 590ZM887 110Q869 87 836 73Q803 59 764.5 56.5Q726 54 686 62Q647 70 617 90L617 190Q650 153 683 143Q716 133 743 131Q827 124 836.5 174Q846 224 813 253Q788 273 753 291Q719 308 688.5 329.5Q658 351 637 380Q616 410 617 453Q617 516 661 555Q705 594 777 597Q805 599 839.5 595.5Q874 592 898 576L898 482Q869 509 830 518Q790 528 756.5 521.5Q723 515 704 492Q686 468 701 429Q727 381 798 357Q869 333 907 256Q923 213 916 176Q909 139 887 110Z" fill="#6a9fb5" />
  </g>
</svg>