<?xml version="1.0" encoding="UTF-8"?>
<svg width="16" height="16" viewBox="0 0 16 16" xmlns="http://www.w3.org/2000/svg">
  <g transform="translate(2.1445877878289465, 14.553635711669923) scale(0.01462890625, -0.01462890625)">
    <path d="M283 960Q398 959 493 914Q588 869 656 798.5Q724 728 762 639Q800 551 800 462Q801 361 764 265Q727 169 658.5 95Q590 21 493 -23Q395 -67 274 -64Q463 -53 574 93Q685 239 696 418.5Q707 598 606 759Q506 920 272 960ZM479 622Q484 643 491.5 672Q499 701 467 703L118 703Q95 703 81 689.5Q67 676 65 654Q63 629 79.5 612.5Q96 596 113 596L331 596Q354 597 368 580Q382 563 382 549Q381 529 365 517Q349 505 326 503L151 503Q88 492 95 445Q102 398 140 392L299 392Q328 392 337 375.5Q346 359 346 345Q346 326 332 311.5Q318 297 296 298L41 298Q-5 298 0.5 245Q6 192 35 190L355 190Q376 189 392.5 195Q409 201 414 227L434 299Q459 302 486.5 301Q514 300 519 331L558 553Q560 568 563.5 594.5Q567 621 534 622Z" fill="#6a9fb5" />
  </g>
</svg>