<?xml version="1.0" encoding="UTF-8"?>
<svg width="16" height="16" viewBox="0 0 16 16" xmlns="http://www.w3.org/2000/svg">
  <g transform="translate(0.5099999999999998, 13.383941945043103) scale(0.01462890625, -0.01462890625)">
    <path d="M604 434Q636 422 684 404Q732 387 788.5 370Q845 353 906 339Q967 325 1024 318L1024 94L0 94L0 299Q38 307 90 318Q143 330 198.5 345.5Q254 361 307 379Q360 398 398 420Q423 434 485 444.5Q547 455 604 434ZM519 600Q553 600 580 590Q607 580 627 560Q647 540 659 509Q671 478 674 437Q708 425 749 411Q790 397 835.5 384Q881 371 929 361Q977 350 1024 345L1024 533Q976 541 931 534Q886 528 847 513Q808 498 775 479Q742 459 717 440Q713 489 698 526.5Q683 564 657 590Q631 616 596.5 629.5Q562 643 518 642Q477 642 442.5 627.5Q408 613 382 584Q354 553 340 511Q326 469 328 419Q279 461 231 485Q183 510 140 521Q97 532 61 532Q25 531 0 523L0 326Q40 334 90 345Q139 357 189.5 371Q240 385 288 401Q335 417 371 435Q371 472 382 502.5Q393 533 414 555Q433 577 460 588.5Q487 600 519 600Z" fill="#ac4142" />
  </g>
</svg>