<?xml version="1.0" encoding="UTF-8"?>
<svg width="16" height="16" viewBox="0 0 16 16" xmlns="http://www.w3.org/2000/svg">
  <g transform="translate(1.6409375000000006, 14.985600428427418) scale(0.015585937499999999, -0.015585937499999999)">
    <path d="M744 950Q696 950 656 869Q615 789 585.5 676.5Q556 564 539 445Q523 325 524 249Q555 352 600.5 413.5Q646 475 696 486Q654 442 627 383Q599 325 583.5 257Q568 189 564 116Q559 42 564 -31Q510 -44 472 -47.5Q434 -51 421 -41L421 31Q423 24 425.5 20Q428 16 432 15Q437 76 431 131Q425 185 406.5 229.5Q388 274 354 306Q320 337 269 350Q334 354 376.5 323.5Q419 293 451 222Q452 367 475 501Q498 636 537.5 738.5Q577 841 630 902Q683 962 744 960Q763 959 781 946.5Q799 934 816 911Q801 927 780 938Q759 949 744 950ZM156 191Q130 248 85 290Q40 332 0 335Q30 308 55 269Q81 230 100 182.5Q119 135 131 82Q142 28 142 -28Q130 0 128 9Q126 18 121 33Q120 7 123.5 -8Q127 -23 127 -61Q161 -65 192 -63Q223 -61 250 -48Q244 39 256 108.5Q268 178 341 186Q303 190 280 182Q257 174 230 155Q226 230 217 307Q208 384 196.5 459.5Q185 535 171 609Q157 682 142 751Q145 668 148 590Q150 511 152 440Q154 369 155 306Q156 242 156 191Z" fill="#90a959" />
  </g>
</svg>