<?xml version="1.0" encoding="UTF-8"?>
<svg width="16" height="16" viewBox="0 0 16 16" xmlns="http://www.w3.org/2000/svg">
  <g transform="translate(1.44625, 14.55375) scale(0.01462890625, -0.01462890625)">
    <path d="M0 398L0 960L384 960L384 771Q320 743 260 704Q201 666 151 618.5Q101 571 62 516Q23 460 0 398ZM0 128L0 -64L384 -64L384 128Q384 248 464 313Q544 378 640 408Q736 438 816 443Q896 448 896 448L896 832Q896 832 756 821Q616 810 448 744Q280 678 140 535Q0 392 0 128Z" fill="#6a9fb5" />
  </g>
</svg>