<?xml version="1.0" encoding="UTF-8"?>
<svg width="16" height="16" viewBox="0 0 16 16" xmlns="http://www.w3.org/2000/svg">
  <g transform="translate(0.5159738474748448, 14.55375) scale(0.01462890625, -0.01462890625)">
    <path d="M963 -61Q960 -62 956.5 -63Q953 -64 950 -64Q942 -64 935 -60Q928 -56 925 -49L649 491L575 385Q570 379 564 375.5Q558 372 551 372Q547 372 543 373.5Q539 375 535 377Q525 384 523 395.5Q521 407 528 417L619 548L456 867L274 470Q269 459 258 455Q247 451 236 456Q225 461 221 472Q217 483 222 494L429 944Q433 951 439.5 955.5Q446 960 454 960Q463 960 470 956Q477 952 480 945L975 -23Q980 -33 976.5 -44.5Q973 -56 963 -61ZM304 263Q298 275 284 275Q270 275 259 275Q229 277 199 277Q169 277 138 278Q123 278 81.5 282Q40 286 46 251Q50 229 85 228.5Q120 228 136 228Q131 190 127.5 151.5Q124 113 119 75Q117 62 112 41Q107 20 116 10Q130 -5 145 8Q160 21 164 34Q169 47 169.5 62Q170 77 172 91Q176 112 178 133.5Q180 155 182 177Q183 186 183.5 195.5Q184 205 186 214Q189 224 189 225.5Q189 227 199 229Q217 232 237.5 228.5Q258 225 276 225Q290 225 301 237.5Q312 250 304 263ZM558 242Q568 252 567 267Q566 282 549 283Q542 284 536.5 280.5Q531 277 525 273Q499 253 477 228Q455 203 433 179Q424 193 382.5 255.5Q341 318 321 265Q315 249 330.5 230Q346 211 354 198Q359 191 364 183.5Q369 176 374 169Q376 165 382 157.5Q388 150 389 145Q390 138 385 134Q380 130 375 125Q357 108 338.5 91.5Q320 75 302 58Q291 49 271 28Q251 7 278 -5Q297 -14 316.5 6Q336 26 348 37Q365 52 382 67.5Q399 83 416 99Q428 77 441 45.5Q454 14 475 -2Q484 -9 493 -9.5Q502 -10 511 -3Q524 8 521 19Q518 30 511 43Q502 57 493.5 71.5Q485 86 477 101Q474 107 469 114.5Q464 122 462 128Q457 133 457.5 137.5Q458 142 466 146Q469 149 473 153Q477 157 480 161Q500 181 519 202Q538 223 558 242Q562 246 553 237.5Q544 229 558 242ZM725 12Q735 17 742 29Q749 41 741 52Q733 63 721.5 60Q710 57 700 55Q675 48 650.5 43Q626 38 601 38Q613 91 626 144Q639 197 647 251Q648 264 646 275.5Q644 287 627 288Q618 288 610.5 282.5Q603 277 599 269Q593 256 591.5 238.5Q590 221 587 207Q585 194 582 180.5Q579 167 577 154Q571 128 565 102Q559 76 553 50Q551 39 547.5 26Q544 13 550 3Q561 -14 585 -12.5Q609 -11 625 -9Q650 -6 675.5 -1.5Q701 3 725 12Q733 16 723 12Q713 8 725 12Z" fill="#d28445" />
  </g>
</svg>