<?xml version="1.0" encoding="UTF-8"?>
<svg width="16" height="16" viewBox="0 0 16 16" xmlns="http://www.w3.org/2000/svg">
  <g transform="translate(0.5099999999999998, 14.55375) scale(0.01462890625, -0.01462890625)">
    <path d="M750 34L275 34L275 -18L750 -18ZM837 117L837 166L189 166L189 117ZM869 182L869 230L157 230L157 182ZM806 52L806 101L220 101L220 52ZM681 384L608 384Q559 386 560.5 429.5Q562 473 608 474L816 474L817 562L209 562L209 474L417 474Q463 473 465.5 430Q468 387 417 384L345 384Q296 384 296 339.5Q296 295 345 295L681 295Q728 295 728 339.5Q728 384 681 384ZM219 912L219 598L807 598L807 912L219 912ZM915 642L992 642Q1005 642 1014.5 633Q1024 624 1024 610L1024 525Q1024 512 1014.5 502.5Q1005 493 992 493L915 493L915 29Q915 -6 890 -31Q865 -56 830 -56L194 -56Q159 -56 134 -31Q109 -6 109 29L109 493L32 493Q19 493 9.5 502.5Q0 512 0 525L0 611Q0 624 9.5 633Q19 642 32 642L109 642L109 699L175 699L175 952L849 952L849 699L915 699L915 642Z" fill="#8f5536" />
  </g>
</svg>