<?xml version="1.0" encoding="UTF-8"?>
<svg width="16" height="16" viewBox="0 0 16 16" xmlns="http://www.w3.org/2000/svg">
  <g transform="translate(0.02000000000000071, 14.9825) scale(0.015585937499999999, -0.015585937499999999)">
    <path d="M771 254Q760 251 750 249.5Q740 248 728 248Q679 248 623 322Q567 395 519 494.5Q471 594 439 695Q407 797 407 854Q407 896 416 914Q425 932 439 944Q379 937 316 923Q253 909 196.5 889.5Q140 870 95 845Q51 821 28 793Q18 779 12.5 757.5Q7 736 7 708Q7 619 49 488Q91 356 155 233.5Q219 111 294 23Q370 -64 436 -64Q467 -64 507 -40Q548 -16 592 26.5Q636 69 682 127Q729 186 771 254ZM688 960Q750 960 809 954Q868 949 914.5 935Q961 921 989 898Q1017 875 1017 841Q1017 770 998 696Q978 622 950 561.5Q922 501 891 463Q860 424 837 424Q796 424 753 474Q710 523 674.5 594Q639 665 616 743Q593 821 593 878Q593 929 615 944.5Q637 960 688 960Z" fill="#d28445" />
  </g>
</svg>