<?xml version="1.0" encoding="UTF-8"?>
<svg width="16" height="16" viewBox="0 0 16 16" xmlns="http://www.w3.org/2000/svg">
  <g transform="translate(1.5267089843749995, 14.55375) scale(0.01462890625, -0.01462890625)">
    <path d="M521 717L712 613L712 318L434 162L174 318L174 561L0 648L0 196L434 -64L885 196L885 717L677 821Q677 821 652 805Q628 789 598.5 769.5Q569 750 545 733Q521 717 521 717ZM590 873L417 960L260 856L434 769Q434 769 458 785Q483 802 512 821.5Q541 841 566 857Q590 873 590 873Z" fill="#6a9fb5" />
  </g>
</svg>