<?xml version="1.0" encoding="UTF-8"?>
<svg width="16" height="16" viewBox="0 0 16 16" xmlns="http://www.w3.org/2000/svg">
  <g transform="translate(1.8513476562500006, 14.9825) scale(0.015585937499999999, -0.015585937499999999)">
    <path d="M159 142Q128 161 128 198Q128 235 159 253Q191 271 223 252.5Q255 234 255 198Q255 161 223 142.5Q191 124 159 142ZM171 163Q191 152 211 163.5Q231 175 231 198Q231 221 211 232.5Q191 244 171 232Q151 221 151 198Q151 175 171 163ZM748 444Q764 391 764.5 333Q765 275 748 218Q678 246 670.5 324Q663 402 748 444ZM536 150Q573 149 608 133Q643 117 671 84Q638 51 599 25Q560 -1 517.5 -16.5Q475 -32 429 -37Q384 -43 338 -35Q345 55 405 103.5Q465 152 536 150ZM144 603L144 525Q144 473 163 428Q183 382 217 348Q251 314 297 294Q343 274 395 274Q447 274 492 294Q538 314 572 348Q606 382 626 428Q646 473 646 525L646 603Q677 575 700.5 540.5Q724 506 740 466Q688 445 666 406Q643 367 645.5 326Q648 285 673 249Q698 212 740 195Q730 170 716.5 147Q703 124 687 103Q632 162 566 172Q499 181 441.5 156.5Q384 132 347 81Q310 30 314 -31Q252 -17 199 16Q146 50 107 97.5Q68 145 46 205Q24 264 24 331Q24 411 56 481.5Q88 552 144 603ZM263 927L263 520Q266 456 306 423Q346 390 393.5 389Q441 388 482 421Q522 453 526 520L526 927Q552 917 576 903.5Q600 890 622 873L622 525Q622 478 604 437Q586 396 555.5 365Q525 334 483 316Q442 298 395 298Q348 298 306 316Q265 334 234 365Q203 396 185 437Q167 478 167 525L167 873Q190 890 214 903.5Q238 917 263 927ZM502 960L502 520Q502 467 469 440Q436 413 396.5 412.5Q357 412 323 439Q290 465 287 520L287 960Q250 951 196.5 921.5Q143 892 144 879L144 635Q111 608 84 574Q58 540 39 501.5Q20 463 10 420Q0 377 0 331Q0 249 31 177Q62 105 115.5 51.5Q169 -2 241 -33Q313 -64 395 -64Q476 -64 548 -33Q620 -2 673.5 51.5Q727 105 758 177Q789 249 789 331Q789 377 779 420Q769 463 750.5 501.5Q732 540 705 574Q679 608 646 635L646 879Q649 891 590.5 922.5Q532 954 502 960Z" fill="#a35f27" />
  </g>
</svg>