<?xml version="1.0" encoding="UTF-8"?>
<svg width="16" height="16" viewBox="0 0 16 16" xmlns="http://www.w3.org/2000/svg">
  <g transform="translate(0.5099999999999998, 14.557041503906252) scale(0.01462890625, -0.01462890625)">
    <path d="M913 692Q877 714 877 756.5Q877 799 913 820Q950 841 987 820Q1024 799 1024 756Q1024 714 987 692.5Q950 671 913 692ZM893 249L893 606L1009 606L1009 76L852 76L564 616L564 307Q560 257 542 213Q523 168 487.5 135Q452 102 399 84Q346 65 272 66Q207 67 159 84Q110 101 77 132Q44 163 25 207Q6 251 0 306L0 786L129 786L129 369Q129 271 165.5 225.5Q202 180 281 180Q362 180 397 223.5Q432 267 432 369L432 786L602 786L893 249Z" fill="#ac4142" />
  </g>
</svg>