<?xml version="1.0" encoding="UTF-8"?>
<svg width="16" height="16" viewBox="0 0 16 16" xmlns="http://www.w3.org/2000/svg">
  <g transform="translate(0.020000000000000642, 14.9825) scale(0.015585937499999999, -0.015585937499999999)">
    <path d="M507 40L905 -64L1018 346L960 454L1019 562L895 960L490 860L430 753L305 753L5 454L305 154L428 154Q448 119 470 81.5Q492 44 507 40ZM748 803Q747 802 720 755Q693 708 660.5 652Q628 596 602 550Q575 503 575 503L216 505Q216 505 253 542.5Q290 580 333 627Q401 699 428 721.5Q455 744 478 748Q493 750 533.5 760.5Q574 771 615 782Q697 805 724 809Q751 813 748 803ZM859 721Q860 715 872 672Q884 629 897.5 580Q911 531 922 491Q933 452 933 452L863 196Q857 173 850 160Q843 147 840 151Q837 154 810 198.5Q783 243 750 302Q708 374 689.5 413.5Q671 453 675 462Q679 474 705 521Q731 568 760.5 619.5Q790 671 814 712Q839 753 842 753Q844 753 849 743.5Q854 734 859 721ZM748 89Q747 88 699 100Q651 111 594 125.5Q537 140 490 152Q442 164 442 164Q442 164 408 199Q374 235 332.5 277.5Q291 320 257 356Q223 393 222 395Q221 397 276 398Q331 399 397 399Q463 399 519 399Q574 399 574 399Q574 399 602 351Q630 303 663 245.5Q696 188 723 139Q750 90 748 89Z" fill="#46788d" />
  </g>
</svg>