<?xml version="1.0" encoding="UTF-8"?>
<svg width="16" height="16" viewBox="0 0 16 16" xmlns="http://www.w3.org/2000/svg">
  <g transform="translate(-1.0300000000000011, 15.901250000000001) scale(0.017636718750000002, -0.017636718750000002)">
    <path d="M543 641L706 198L649 198L551 463L430 198L372 198L525 534L493 621Q483 640 466 642Q449 644 449 644L420 644L420 698L445 698Q469 697 496 689Q523 681 543 641ZM203 473L35 373L51 347L210 442L450 424L463 453L203 473ZM205 617L0 443L20 420L210 581L471 470L483 497L205 617ZM281 408L169 332L186 306L290 378L427 374L441 404L281 408ZM300 340L239 248L265 231L317 310L399 311L413 342L300 340ZM840 441L997 344L1013 370L848 473L636 455L647 425L840 441ZM1011 429L1024 458L839 622L610 524L621 495L833 586L1011 429ZM720 305L772 237L796 255L735 335L680 335L691 305L720 305ZM757 379L860 303L878 328L766 411L656 401L667 371L757 379Z" fill="#8f5536" />
  </g>
</svg>