<?xml version="1.0" encoding="UTF-8"?>
<svg width="16" height="16" viewBox="0 0 16 16" xmlns="http://www.w3.org/2000/svg">
  <g transform="translate(0.020000000000000462, 14.983444602272726) scale(0.015585937499999999, -0.015585937499999999)">
    <path d="M933 631L894 562L832 562L871 631ZM143 631L89 631L126 561L182 562L143 631ZM446 109L505 0L564 108Q536 102 506 102Q476 102 446 109ZM759 374Q759 301 724 244Q688 188 633 156Q578 124 511 122Q444 119 381 155Q324 188 292 240Q261 292 256 349.5Q251 407 271 464Q291 520 338 561Q311 597 302 640Q293 683 301 725.5Q309 768 334 806Q359 843 402 867Q454 898 510 896Q566 894 612 867.5Q658 841 687 793Q717 746 717 686Q717 650 706 618.5Q695 587 676 561Q714 527 736.5 479Q759 431 759 374ZM483 643Q508 628 533.5 643Q559 658 559 687Q559 716 533.5 730.5Q508 745 483 731Q458 716 458 686.5Q458 657 483 643ZM580 374Q580 415 544 436Q508 457 472 436Q437 415 437 373.5Q437 332 472 312Q508 291 544 312Q580 333 580 374ZM300 565Q275 608 269 659.5Q263 711 280 761L260 797L0 797L77 653L157 653L250 489Q259 511 272 530Q285 549 300 565ZM765 488L857 653L945 653L1024 794L757 794L736 758Q752 704 745 655.5Q738 607 714 565Q730 547 743 528Q756 509 765 488Z" fill="#46788d" />
  </g>
</svg>