<?xml version="1.0" encoding="UTF-8"?>
<svg width="16" height="16" viewBox="0 0 16 16" xmlns="http://www.w3.org/2000/svg">
  <g transform="translate(0.5099999999999998, 14.55375) scale(0.01462890625, -0.01462890625)">
    <path d="M39 -64Q23 -64 11.5 -52.5Q0 -41 0 -25L0 921Q0 937 11.5 948.5Q23 960 39 960L985 960Q1001 960 1012.5 948.5Q1024 937 1024 921L1024 -25Q1024 -41 1012.5 -52.5Q1001 -64 985 -64L39 -64ZM535 755Q476 760 410.5 743.5Q345 727 272 671Q233 641 213 601Q192 560 192.5 524.5Q193 489 216 466Q239 442 287 445Q277 464 275 499Q272 534 284 572Q296 610 325 645Q354 679 405 698L419 101L545 101L788 752L727 752L543 217L535 755Z" fill="#aa759f" />
  </g>
</svg>