<?xml version="1.0" encoding="UTF-8"?>
<svg width="16" height="16" viewBox="0 0 16 16" xmlns="http://www.w3.org/2000/svg">
  <g transform="translate(0.9973510742187504, 14.123177963544181) scale(0.013671875, -0.013671875)">
    <path d="M557 638Q574 592 607 557Q639 523 681 503.5Q723 484 770 482Q818 479 864 496Q911 513 945 546Q980 578 999 620Q1018 662 1021 709Q1024 756 1007 803Q990 849 957 884Q924 918 882.5 937.5Q841 957 793 960Q746 962 699 945Q653 928 619 896Q584 863 564.5 821Q545 779 543 732Q540 685 557 638ZM255 193Q219 131 239 62Q259 -7 321 -42Q384 -77 453 -57.5Q522 -38 557 24Q592 87 572.5 156Q553 225 490 260Q427 294 358.5 274.5Q290 255 255 193ZM5 527Q-3 487 20 452.5Q43 418 83 410Q124 402 158.5 425Q193 448 201 489Q209 529 186 563.5Q163 598 122 606Q81 614 47 591Q13 568 5 527Z" fill="#46788d" />
  </g>
</svg>