<?xml version="1.0" encoding="UTF-8"?>
<svg width="16" height="16" viewBox="0 0 16 16" xmlns="http://www.w3.org/2000/svg">
  <g transform="translate(0.43986328125000096, 15.410422851562501) scale(0.016542968749999998, -0.016542968749999998)">
    <path d="M338 239Q280 273 251 329Q221 385 221 444.5Q221 504 251 560Q280 615 338 650Q396 684 459 681Q521 679 572 649Q623 619 656 566Q689 513 689 444Q689 376 656 323Q623 270 572 240Q521 210 459 207Q396 205 338 239ZM144 207Q138 218 129.5 224Q121 230 111 234L0 178L1 157L114 102L155 131L507 131Q569 145 603.5 165Q638 185 664 209Q672 217 683.5 217.5Q695 218 695 208L696 91Q670 62 667.5 57Q665 52 677 27L713 -48Q724 -66 732.5 -64Q741 -62 743 -56L787 35Q802 60 786 67Q770 74 767 91L767 462Q765 507 755 546.5Q745 586 679 672Q680 676 683 680Q686 684 690 687L759 687Q773 674 785 663Q797 652 811 661L906 713Q914 718 914 723Q914 728 903 733L812 783Q793 793 785.5 785Q778 777 761 761L413 761Q381 758 335.5 738Q290 718 235 675Q231 672 223 672Q215 672 213 680L214 792Q212 808 229.5 819Q247 830 240 850L187 952Q183 961 178.5 960Q174 959 169 951L112 844Q118 830 126 822Q134 814 143 808L143 400Q145 362 174 307Q203 252 233 225L226 209Q218 204 191.5 203Q165 202 144 207Z" fill="#46788d" />
  </g>
</svg>