<?xml version="1.0" encoding="UTF-8"?>
<svg width="16" height="16" viewBox="0 0 16 16" xmlns="http://www.w3.org/2000/svg">
  <g transform="translate(0.013072916666667322, 14.978072176846592) scale(0.015585937499999999, -0.015585937499999999)">
    <path d="M1021 22Q1015 63 978.5 80Q942 97 908 78L863 123L639 739L640 811Q676 819 692 854Q708 889 688 922Q666 960 622 960Q578 960 557 922Q538 889 552.5 855.5Q567 822 600 812L599 743L193 259L144 245Q127 273 94 280.5Q61 288 33 267Q-2 241 3 197.5Q8 154 48 137Q86 120 120 143.5Q154 167 154 206L214 223L827 103L880 50Q864 21 874 -12Q884 -45 917 -58Q958 -75 992.5 -48Q1027 -21 1021 23ZM796 191L632 357L637 629L796 191ZM598 680L593 369L261 277L598 680ZM300 247L602 331L778 153L300 247Z" fill="#6a9fb5" />
  </g>
</svg>