<?xml version="1.0" encoding="UTF-8"?>
<svg width="16" height="16" viewBox="0 0 16 16" xmlns="http://www.w3.org/2000/svg">
  <g transform="translate(0.51, 14.55375) scale(0.01462890625, -0.01462890625)">
    <path d="M39 267L39 620Q39 638 51.5 651Q64 664 82 664L942 664Q960 664 972.5 651Q985 638 985 620L985 267Q985 249 972.5 236Q960 223 942 223L82 223Q64 223 51.5 236Q39 249 39 267ZM936 576Q936 592 924.5 603.5Q913 615 897 615Q881 615 870 603.5Q859 592 859 576Q859 560 870 548.5Q881 537 897 537Q913 537 924.5 548.5Q936 560 936 576ZM912 681L912 778L774 778L774 681ZM774 204L774 116L912 116L912 204ZM881 798L872 960L815 960L805 798L881 798ZM805 98L815 -64L872 -64L881 98L805 98ZM693 681L693 778L555 778L555 681ZM555 204L555 116L693 116L693 204ZM662 798L654 960L597 960L586 798L662 798ZM586 98L597 -64L654 -64L662 98L586 98ZM475 681L475 778L337 778L337 681ZM337 204L337 116L475 116L475 204ZM444 798L435 960L378 960L368 798L444 798ZM368 98L378 -64L435 -64L444 98L368 98ZM256 681L256 778L118 778L118 681ZM118 204L118 116L256 116L256 204L118 204ZM225 798L217 960L160 960L149 798L225 798ZM149 98L160 -64L217 -64L225 98L149 98Z" fill="#ac4142" />
  </g>
</svg>