<?xml version="1.0" encoding="UTF-8"?>
<svg width="16" height="16" viewBox="0 0 16 16" xmlns="http://www.w3.org/2000/svg">
  <g transform="translate(0.5099999999999998, 14.55375) scale(0.01462890625, -0.01462890625)">
    <path d="M756 112L268 112Q229 112 201 139.5Q173 167 173 206L173 695Q173 734 201 762Q229 790 268 790L756 790Q795 790 823 762Q851 734 851 695L851 206Q851 167 823 139.5Q795 112 756 112ZM676 618L356 618L356 297L676 297ZM365 960L305 960L305 816L365 816ZM484 960L425 960L425 816L484 816ZM604 960L545 960L545 816L604 816ZM724 960L664 960L664 816L724 816ZM146 301L0 301L0 241L146 241ZM146 420L0 420L0 361L146 361ZM146 540L0 540L0 480L146 480ZM146 660L0 660L0 600L146 600ZM1024 301L878 301L878 241L1024 241ZM1024 420L878 420L878 361L1024 361ZM1024 540L878 540L878 480L1024 480ZM1024 660L878 660L878 600L1024 600ZM365 80L305 80L305 -64L365 -64ZM484 80L425 80L425 -64L484 -64ZM604 80L545 80L545 -64L604 -64ZM724 80L664 80L664 -64L724 -64ZM303 702Q303 721 287 730Q271 739 255 730Q239 721 239 702.5Q239 684 255 675Q271 665 287 674.5Q303 684 303 702Z" fill="#825078" />
  </g>
</svg>