<?xml version="1.0" encoding="UTF-8"?>
<svg width="16" height="16" viewBox="0 0 16 16" xmlns="http://www.w3.org/2000/svg">
  <g transform="translate(1, 14.125) scale(0.013671875, -0.013671875)">
    <path d="M585 192L439 192L439 338L585 338ZM731 317L648 401Q643 406 636 408.5Q629 411 622 411L402 411Q387 411 376.5 400.5Q366 390 366 375L366 155Q366 148 368.5 142Q371 136 375 131L460 46L329 46Q314 46 303.5 56.5Q293 67 293 82L293 448Q293 463 303.5 474Q314 485 329 485L695 485Q710 485 720.5 474Q731 463 731 448L731 317ZM951 192L878 265L878 412L951 485ZM548 767Q512 746 512 704Q512 662 548 641Q585 620 621.5 641Q658 662 658 704Q658 746 621.5 767Q585 788 548 767ZM951 558L805 411L805 485Q805 511 788.5 531Q772 551 747 556Q774 585 789.5 623Q805 661 805 704Q805 749 787 789Q770 829 740.5 859Q711 889 671 906Q631 923 585 923Q542 923 503 908Q465 892 435.5 864.5Q406 837 388 800Q370 763 366 721Q337 747 299.5 762Q262 777 219 777Q174 777 134 760Q94 743 64 713Q34 683 17 643Q0 603 0 558Q0 512 17 472Q34 432 64 402.5Q94 373 134 356Q174 338 219 338L146 338L146 192L219 192L219 46Q219 15 240.5 -6Q262 -27 293 -27L731 -27Q762 -27 783.5 -6Q805 15 805 46L805 119L951 -27L1024 -27L1024 558L951 558ZM293 558Q293 600 256.5 620.5Q220 641 183 621Q142 599 148 544Q154 489 219 485L219 411Q159 413 123 447Q87 480 77 524Q67 568 84 614Q101 659 146 684Q183 705 222 704Q261 702 293 683.5Q325 665 345 633Q366 600 366 558L293 558ZM512 577Q475 598 457 633Q439 667 439 704Q439 741 457 775Q475 810 512 831Q548 852 587 850Q626 849 658 830.5Q690 812 711 779Q731 746 731 704Q731 662 711 629Q690 596 658 577.5Q626 559 587 558Q548 556 512 577Z" fill="#aa759f" />
  </g>
</svg>