<?xml version="1.0" encoding="UTF-8"?>
<svg width="16" height="16" viewBox="0 0 16 16" xmlns="http://www.w3.org/2000/svg">
  <g transform="translate(0.020000000000000462, 14.9825) scale(0.015585937499999999, -0.015585937499999999)">
    <path d="M583 314Q584 313 586.5 311.5Q589 310 591 310L634 310Q636 310 638 311.5Q640 313 641 314L652 326Q654 327 654.5 328.5Q655 330 655 331L667 373Q668 376 667.5 378.5Q667 381 665 383L656 391Q655 392 652.5 391.5Q650 391 648 391L609 391Q608 393 606 394Q604 395 602 393L586 383Q585 383 584.5 381Q584 379 583 378L570 338Q569 335 569.5 331.5Q570 328 573 325L583 314ZM626 285L527 285Q524 284 522 282Q520 280 519 277L513 256Q512 252 514.5 248.5Q517 245 521 244L538 244L479 75Q478 70 479.5 65.5Q481 61 486 59L489 57L580 57Q584 57 586.5 59.5Q589 62 591 66L596 85Q598 89 596 93.5Q594 98 590 99L590 99L590 99L586 98L577 98L635 270Q637 277 634 280.5Q631 284 626 285ZM873 281Q872 283 870 284.5Q868 286 865 286L833 286L997 450L813 633L978 802L978 875L955 905L622 905L595 876L595 852L503 945L440 884L420 905L91 905L65 874L65 798L90 774L114 774L114 562L0 448L114 334L114 73L156 49L251 49L325 127L501 -49L619 69Q620 66 621.5 65Q623 64 626 63L630 65L706 65Q710 65 712.5 66Q715 67 716 70L722 86Q723 90 721 93.5Q719 97 715 98Q713 97 711.5 97Q710 97 709 97L736 184L755 203L796 203L755 74Q754 69 756 66.5Q758 64 762 62L766 64L840 64Q843 64 845.5 65Q848 66 850 69L856 83Q858 88 856 91.5Q854 95 850 96Q849 97 848.5 96.5Q848 96 843 96L877 202L927 202L885 73Q884 69 886 66Q888 63 893 62L896 65L977 65Q981 65 983.5 66Q986 67 987 70L994 86Q996 90 994 93.5Q992 97 987 98Q987 99 985.5 98Q984 97 983 97L977 97L1023 248Q1024 251 1024 254.5Q1024 258 1022 259L1022 259L1007 280Q1005 282 1003 283.5Q1001 285 999 285L940 285Q938 285 936 283.5Q934 282 932 281L916 261L890 261L873 281ZM503 930L595 838L595 799L622 766L635 766L399 538L399 766L426 766L448 800L448 873L446 875L503 930ZM15 448L114 546L114 349L15 448ZM332 136L808 624L982 449L818 285Q816 285 814.5 283.5Q813 282 811 281L794 261L771 261L753 281Q752 282 749.5 283.5Q747 285 745 285L673 285Q669 285 666.5 283Q664 281 662 277L656 257Q655 253 656.5 249.5Q658 246 662 244L675 244L622 90L499 -34L332 136Z" fill="#90a959" />
  </g>
</svg>