<?xml version="1.0" encoding="UTF-8"?>
<svg width="16" height="16" viewBox="0 0 16 16" xmlns="http://www.w3.org/2000/svg">
  <g transform="translate(1.1421875000000004, 14.9825) scale(0.015585937499999999, -0.015585937499999999)">
    <path d="M39 303L196 181Q189 165 193 125Q197 86 222.5 44.5Q248 3 301 -29Q353 -62 441 -64Q530 -66 583 -34Q635 -1 661.5 42Q688 85 693 127Q699 169 692 187L841 304L880 750Q880 760 874.5 769Q869 778 861 782L462 956Q454 960 441.5 960Q429 960 420 956L19 779Q10 775 4.5 766Q-1 757 0 747L39 303ZM62 674L383 470L380 134L80 350L62 674ZM500 467L817 662L800 353L497 134L500 467ZM82 749L293 841L334 813L217 683L222 681L447 771L370 675L519 732L447 636L527 585L445 538L82 749ZM475 749L547 838L331 757L398 829L340 867L441 913L800 749L576 616L504 656L614 804L475 749Z" fill="#6a9fb5" />
  </g>
</svg>