<?xml version="1.0" encoding="UTF-8"?>
<svg width="16" height="16" viewBox="0 0 16 16" xmlns="http://www.w3.org/2000/svg">
  <g transform="translate(0.5099999999999998, 14.55375) scale(0.01462890625, -0.01462890625)">
    <path d="M987 851L583 851L583 933L0 830L0 66L583 -37L583 49L987 49Q1003 49 1013.5 60Q1024 71 1024 86L1024 814Q1024 829 1013.5 840Q1003 851 987 851ZM694 415L583 415L583 602L681 602L787 496L787 318L715 318L715 394Q715 403 709 408.5Q703 414 694 415ZM720 623L808 711L896 623L808 534ZM583 373L673 373L673 217L583 217ZM294 283L222 285L138 609L201 613L259 367L319 621L389 624L294 283ZM715 196L715 276L808 276Q817 276 823 282Q829 288 829 297L829 496L941 608Q948 615 947 623.5Q946 632 941 638L823 756Q817 762 808 762Q799 762 793 756L681 644L583 644L583 798L969 798L969 106L583 106L583 175L694 175Q703 176 709 181.5Q715 187 715 196Z" fill="#d28445" />
  </g>
</svg>