<?xml version="1.0" encoding="UTF-8"?>
<svg width="16" height="16" viewBox="0 0 16 16" xmlns="http://www.w3.org/2000/svg">
  <g transform="translate(0.03825781249999782, 14.9825) scale(0.015585937499999999, -0.015585937499999999)">
    <path d="M988 843L710 793L759 960L374 885L368 783L30 844Q13 845 4.5 833.5Q-4 822 3 805L491 -51Q499 -64 514 -64Q529 -64 537 -51L1015 805Q1023 820 1013.5 833Q1004 846 988 843ZM514 -27L36 811L366 752L350 489L485 520L448 336L550 367L499 120Q498 108 509.5 104.5Q521 101 528 118L829 718L681 689L701 759L983 811L514 -27Z" fill="#ee9e2e" />
  </g>
</svg>