<?xml version="1.0" encoding="UTF-8"?>
<svg width="16" height="16" viewBox="0 0 16 16" xmlns="http://www.w3.org/2000/svg">
  <g transform="translate(0.020000000000000462, 14.9825) scale(0.015585937499999999, -0.015585937499999999)">
    <path d="M238 943Q207 943 185.5 922Q164 901 164 872L164 627L74 627Q43 627 21.5 606Q0 585 0 555L0 24Q0 -5 21.5 -26Q43 -47 74 -47L622 -47Q653 -47 675 -26Q697 -5 697 24L697 112L950 112Q981 112 1002.5 133Q1024 154 1024 183L1024 714Q1024 743 1002.5 763.5Q981 784 950 784L860 784L860 872Q860 901 838.5 922Q817 943 786 943L238 943ZM238 903L786 903Q800 903 809 894Q818 885 818 872L818 784L402 784Q371 784 349 763.5Q327 743 327 714L327 627L206 627L206 872Q206 885 215 894Q224 903 238 903ZM402 745L818 745L818 342Q818 329 809 319.5Q800 310 786 310L697 310L697 555Q697 585 675 606Q653 627 622 627L369 627L369 714Q369 727 378.5 736Q388 745 402 745ZM860 745L950 745Q964 745 973 736Q982 727 982 714L982 183Q982 170 973 161Q964 152 950 152L697 152L697 269L786 269Q817 269 838.5 290.5Q860 312 860 342L860 745ZM74 586L164 586L164 342Q164 312 185.5 290.5Q207 269 238 269L327 269L327 183Q327 154 349 133Q371 112 402 112L655 112L655 24Q655 11 645.5 2Q636 -7 622 -7L74 -7Q60 -7 51 2Q42 11 42 24L42 555Q42 568 51 577Q60 586 74 586ZM206 586L327 586L327 310L238 310Q224 310 215 319.5Q206 329 206 342L206 586ZM369 586L622 586Q636 586 645.5 577Q655 568 655 555L655 310L369 310L369 586ZM369 269L655 269L655 152L402 152Q388 152 378.5 161Q369 170 369 183L369 269Z" fill="#a35f27" />
  </g>
</svg>