<?xml version="1.0" encoding="UTF-8"?>
<svg width="16" height="16" viewBox="0 0 16 16" xmlns="http://www.w3.org/2000/svg">
  <g transform="translate(0.020000000000000462, 14.984966129351266) scale(0.015585937499999999, -0.015585937499999999)">
    <path d="M366 293Q348 295 314 357Q280 419 257.5 506Q235 593 239 688Q243 782 301 848Q355 903 430 918Q504 934 580.5 920.5Q657 907 727 870Q796 834 839 784Q722 814 645 740Q567 665 515 564.5Q463 464 429 376Q395 289 366 293ZM512 13Q359 12 245 100Q132 187 84.5 314Q37 441 69 584Q100 726 237 835Q167 758 164 646Q160 534 192.5 429.5Q225 325 278 249Q331 173 374 168Q429 165 470 237Q511 309 551.5 401Q592 493 638 577Q684 662 749 685Q843 715 895 619Q946 522 929 391Q912 260 814 143Q716 25 512 13ZM529 883Q397 880 395 843Q393 806 525 805Q656 806 658 843.5Q660 881 529 883ZM1024 448Q1024 595 952 711Q880 826 767.5 890.5Q655 955 519 960Q383 965 255 891Q128 817 64 697Q0 577 0 448Q0 319 64 199Q128 79 255 5Q383 -69 519 -64Q655 -59 767.5 5.5Q880 70 952 185Q1024 301 1024 448Z" fill="#7f7f7f" />
  </g>
</svg>