<?xml version="1.0" encoding="UTF-8"?>
<svg width="16" height="16" viewBox="0 0 16 16" xmlns="http://www.w3.org/2000/svg">
  <g transform="translate(0.020000000000000462, 14.9825) scale(0.015585937499999999, -0.015585937499999999)">
    <path d="M626 692L576 782L448 782L397 692L512 492ZM768 448L640 670L526 470L654 250ZM384 670L256 448L371 248L498 470ZM512 448L384 226L512 4L640 226ZM256 892L0 892L128 670ZM896 670L1024 892L768 892ZM140 648L244 468L372 692L268 872ZM756 872L652 692L780 468L884 650Z" fill="#7f7f7f" />
  </g>
</svg>