<?xml version="1.0" encoding="UTF-8"?>
<svg width="16" height="16" viewBox="0 0 16 16" xmlns="http://www.w3.org/2000/svg">
  <g transform="translate(-1.0300000000000011, 15.901250000000001) scale(0.017636718750000002, -0.017636718750000002)">
    <path d="M969 647L1009 727L1020 657L980 580Q951 635 914 644Q877 653 846 626Q815 599 798 542Q781 485 793 410Q762 479 770 552Q778 625 808.5 670.5Q839 716 883 718Q928 720 969 647ZM744 345Q772 290 807.5 262Q843 234 884 234Q920 235 955.5 262.5Q991 290 1014 334L1024 281Q993 221 952 198Q911 176 870.5 186.5Q830 197 796 238Q762 278 744 345ZM0 724L70 724L168 393L233 616L201 724L271 724L369 393L466 724L729 724L729 691L630 520Q664 513 690 482Q717 452 729 410Q741 368 735 320Q729 273 697 231Q672 198 637 187Q603 175 569 183Q535 191 505 219Q476 246 462 291L517 314Q535 263 576.5 250Q618 237 643 279Q651 289 659 321Q667 353 660.5 386Q654 419 627 443Q600 468 539 462L539 494L633 657L516 657L372 169L268 517Q268 517 252 463Q236 408 216.5 343Q197 278 180 224Q164 169 164 169L0 724Z" fill="#46788d" />
  </g>
</svg>