<?xml version="1.0" encoding="UTF-8"?>
<svg width="16" height="16" viewBox="0 0 16 16" xmlns="http://www.w3.org/2000/svg">
  <g transform="translate(0.010397949218750565, 14.9811640625) scale(0.015585937499999999, -0.015585937499999999)">
    <path d="M251 322Q251 322 225.5 316Q200 310 198 270Q196 218 213 168.5Q230 119 331 122Q364 123 387 124Q410 125 426 137Q461 164 475.5 202.5Q490 241 510 241Q536 241 549.5 204.5Q563 168 586 145Q603 122 679.5 122.5Q756 123 772 135Q815 148 822 198Q829 248 828 269Q825 315 790.5 319Q756 323 756 323ZM612 624L633 624L656 529L590 529ZM423 774Q365 768 308 758Q251 748 212 690Q212 690 207.5 615.5Q203 541 205 431Q159 431 114 450Q69 469 38 480Q25 476 8.5 464Q-8 452 5 437Q18 415 66 401Q113 388 182.5 381Q252 374 336 372Q421 370 509 371Q585 371 659 373Q733 375 795.5 379Q858 383 905 389Q952 396 974 405Q1040 426 1022 459Q1004 492 965 471Q912 447 876.5 440.5Q841 434 825 434L818 690Q797 721 751.5 744.5Q706 768 601 773Q593 718 520.5 708.5Q448 699 423 774ZM269 682L308 682L341 511L381 682L418 682L455 510L491 682L531 682L475 437L434 437L398 608L362 437L318 437ZM588 682L653 682L722 436L681 438L667 490L582 490L572 437L531 437Z" fill="#aa759f" />
  </g>
</svg>