<?xml version="1.0" encoding="UTF-8"?>
<svg width="16" height="16" viewBox="0 0 16 16" xmlns="http://www.w3.org/2000/svg">
  <g transform="translate(0.020000000000000462, 14.9825) scale(0.015585937499999999, -0.015585937499999999)">
    <path d="M424 347L521 732L617 353L673 679Q678 714 672 725.5Q666 737 650 751L868 751Q850 735 835 711.5Q820 688 807 654Q795 600 784 545Q773 489 762 432Q751 375 742 317Q732 258 723 198Q719 179 725 159Q731 139 749 119L546 119Q553 139 554 160.5Q555 182 551 205L522 367Q522 367 516 342Q510 316 502.5 283.5Q495 251 489 220Q482 189 482 179Q479 154 486.5 136.5Q494 119 494 119L288 119Q320 145 323.5 162Q327 179 318 222Q307 276 294 330Q282 385 268 441Q254 497 239 555Q223 613 206 672Q203 710 180.5 731.5Q158 753 158 753L365 753Q365 753 359 720Q353 687 363 637Q374 572 389.5 498.5Q405 425 424 347ZM230 797L230 870Q235 882 249.5 897Q264 912 282 927L282 937L0 937L0 927Q20 910 36 893.5Q52 877 52 866L52 30Q52 21 34.5 1.5Q17 -18 0 -29L0 -41L281 -41L281 -31Q273 -25 249.5 -4Q226 17 229 34L229 432L164 684Q161 697 152 710Q143 723 126 736Q107 754 120 776.5Q133 799 149 797L230 797ZM870 799Q894 799 905.5 776Q917 753 897 734Q877 715 866 695Q855 675 852 662Q838 605 824.5 534.5Q811 464 798 386L800 38Q802 20 777.5 -2.5Q753 -25 746 -31L746 -41L1024 -41L1024 -29Q1007 -18 989.5 1.5Q972 21 972 30L972 866Q972 877 988 893.5Q1004 910 1024 927L1024 937L744 937L744 927Q763 912 777 897Q791 882 796 870L796 799L870 799ZM601 867Q603 879 619.5 896.5Q636 914 655 929L655 937L373 937L373 927Q393 910 410 893Q427 876 427 860L425 515L483 750Q492 778 518.5 778Q545 778 554 751L613 515Q613 547 612 587Q611 626 609.5 671Q608 716 606 766Q604 815 601 867ZM429 92L429 30Q423 12 407.5 -3.5Q392 -19 376 -30L376 -40L658 -40L658 -30Q642 -20 628 -6.5Q614 7 602 27L602 92L429 92Z" fill="#ac4142" />
  </g>
</svg>