<?xml version="1.0" encoding="UTF-8"?>
<svg width="16" height="16" viewBox="0 0 16 16" xmlns="http://www.w3.org/2000/svg">
  <g transform="translate(0.5099999999999998, 14.55375) scale(0.01462890625, -0.01462890625)">
    <path d="M789 319L822 186L730 186L760 319L789 319ZM629 960L1024 960L1024 -64L0 -64L0 960L395 960Q395 899 431 868Q468 837 512 837Q556 837 593 868Q629 899 629 960ZM305 408L237 408L316 46L384 46L438 292L489 46L556 46L643 408L576 408L523 158L472 408L409 408L352 161L305 408ZM933 46L826 408L719 408L631 46L700 46L717 126L839 126L862 46Z" fill="#ac4142" />
  </g>
</svg>