<?xml version="1.0" encoding="UTF-8"?>
<svg width="16" height="16" viewBox="0 0 16 16" xmlns="http://www.w3.org/2000/svg">
  <g transform="translate(0.5051236979166676, 14.55003547127016) scale(0.01462890625, -0.01462890625)">
    <path d="M986 256Q963 200 927 149Q891 99 843.5 58.5Q796 18 738 -11Q679 -40 611 -54Q516 -73 427 -57Q338 -41 263 1.5Q188 44 130 109Q72 174 39 253Q65 278 108.5 323Q152 368 202 415Q238 381 276 348Q314 316 353.5 290.5Q393 265 433 249Q473 234 513 234Q552 234 592 249Q632 264 671.5 289.5Q711 315 750 347Q789 380 825 416Q868 376 909.5 332.5Q951 289 986 256ZM855 443Q895 403 932 364Q969 325 1000 296Q1022 367 1024 443Q1026 519 1004 594Q972 564 934 524.5Q896 485 855 443ZM427 506L427 387L502 347Q507 344 514 344Q521 344 527 347L598 385L598 504L523 541Q517 544 510 544Q503 544 498 541L427 506ZM201 470Q237 505 275 538Q314 572 353.5 598Q393 624 433 640Q473 657 513 657Q552 657 592 641Q631 625 671 599.5Q711 574 750 540Q788 507 825 471Q867 514 910.5 558.5Q954 603 990 635Q974 675 951 713Q928 751 898 786Q803 894 676 934Q549 974 424.5 952Q300 930 194 849Q89 769 37 637Q62 613 106 566Q150 519 201 470ZM511 617Q545 617 580 603Q615 589 650.5 565.5Q686 542 723 510Q759 479 797 443Q763 409 728 379Q693 348 657.5 324.5Q622 301 586 288Q550 274 513 274Q476 274 440 288Q403 303 367.5 327Q332 351 297 381Q262 412 229 443Q262 475 296 506Q331 537 366.5 561.5Q402 586 438 601Q474 617 511 617ZM531 581Q520 584 507.5 584Q495 584 490 581Q490 581 452.5 562Q415 543 402 537Q390 531 389 519Q388 507 388 507L388 382Q388 372 391 366.5Q394 361 401 356L492 310Q501 306 515 306.5Q529 307 535 309L621 353Q629 359 633 364.5Q637 370 638 375L638 506Q638 515 633 523Q628 531 616 538L531 581ZM172 442Q123 490 84 531.5Q45 573 22 595Q-1 517 0.5 440.5Q2 364 24 294Q47 316 85.5 356Q124 396 172 442Z" fill="#6a9fb5" />
  </g>
</svg>