<?xml version="1.0" encoding="UTF-8"?>
<svg width="16" height="16" viewBox="0 0 16 16" xmlns="http://www.w3.org/2000/svg">
  <g transform="translate(0.80708984375, 14.9825) scale(0.015585937499999999, -0.015585937499999999)">
    <path d="M710 611L462 467L213 611L462 747L710 611ZM484 429L484 167L731 303L731 572L484 429ZM32 169L440 -62L440 117L185 257L32 169ZM440 167L440 429L192 572L192 303L440 167ZM484 958L484 785L755 636L902 721L484 958ZM738 257L484 117L484 -62L891 169L738 257ZM775 598L775 286L923 201L923 683ZM169 636L440 785L440 958L22 721L169 636ZM148 286L148 598L0 683L0 201Z" fill="#6a9fb5" />
  </g>
</svg>