<?xml version="1.0" encoding="UTF-8"?>
<svg width="16" height="16" viewBox="0 0 16 16" xmlns="http://www.w3.org/2000/svg">
  <g transform="translate(-1.0300000000000011, 15.902265908172513) scale(0.017636718750000002, -0.017636718750000002)">
    <path d="M733 330Q640 249 514 229Q387 208 272.5 231Q158 254 78 312Q-1 370 0 447Q2 526 81 585Q160 643 273.5 665.5Q387 688 513 667Q638 646 734 565Q678 598 603 613Q529 627 452.5 625Q376 623 306 605Q235 587 188 554L223 399L268 558L301 558L346 399L382 558L419 558L363 351L330 351L285 514L239 351L206 351L159 531Q141 513 130.5 492Q120 471 119 447Q116 393 176 348Q236 304 328 283Q420 262 529 270Q638 278 733 330ZM930 389L930 543L887 543L887 354L1024 354L1024 389L930 389ZM784 425L827 425Q825 404 813.5 395Q802 386 788 384Q758 381 743 399.5Q728 418 728 447Q727 464 733 480.5Q739 497 754 505Q771 515 793 510.5Q815 506 821 480L862 480Q857 517 829 534Q801 550 769 546.5Q737 543 711 519Q685 494 686 447Q689 365 750.5 353Q812 341 834 375L838 353L865 353L865 456L784 456L784 425ZM569 539L569 476Q589 501 627 489.5Q665 478 665 424Q665 404 660 391.5Q655 379 649 370Q640 355 613.5 348Q587 341 568 364L568 351L542 351L542 539L569 539ZM568 414Q568 390 579.5 380.5Q591 371 603 371Q611 371 617.5 374.5Q624 378 629 385Q633 391 635 400.5Q637 410 637 421Q637 435 634.5 446Q632 457 622 463Q613 470 600.5 469Q588 468 581 461Q575 455 571 443Q567 431 568 414ZM525 411L427 411Q427 375 454 372Q481 369 492 384Q494 387 495.5 390Q497 393 497 397L524 397Q522 389 519.5 382.5Q517 376 512 370Q502 356 484.5 350.5Q467 345 448 349Q428 352 413.5 369.5Q399 387 399 417Q396 460 429 483Q462 506 499 483Q511 476 518 458Q525 440 525 411ZM498 433Q497 470 463.5 469.5Q430 469 427 433L498 433Z" fill="#be2f31" />
  </g>
</svg>