<?xml version="1.0" encoding="UTF-8"?>
<svg width="16" height="16" viewBox="0 0 16 16" xmlns="http://www.w3.org/2000/svg">
  <g transform="translate(0.020000000000000462, 14.984966129351266) scale(0.015585937499999999, -0.015585937499999999)">
    <path d="M760 567L825 678L703 606Q693 593 693.5 579Q694 565 704 556Q712 547 731.5 548Q751 549 760 567ZM215 339Q215 320 266 265Q317 210 517 210Q614 206 672 238Q730 269 755 316.5Q780 364 776 420Q771 477 745 523Q710 512 684.5 536.5Q659 561 670 595Q648 609 624 615Q600 621 577 619Q445 619 408.5 564.5Q372 510 372 432Q379 340 325.5 326.5Q272 313 243 339Q283 339 305.5 366Q328 393 323 438Q284 439 263.5 434Q243 429 222 404Q203 422 185.5 429.5Q168 437 119 435Q116 389 143 362.5Q170 336 215 339ZM286 57Q173 122 117 228Q61 334 61 448Q61 562 117 668Q173 774 286 839Q398 903 518 899Q638 895 737 838Q836 781 900 679Q963 578 963 448Q963 318 900 217Q836 115 737 58Q638 1 518 -3Q398 -7 286 57ZM1024 448Q1024 595 952 711Q880 826 767.5 890.5Q655 955 519 960Q383 965 255 891Q128 817 64 697Q0 577 0 448Q0 319 64 199Q128 79 255 5Q383 -69 519 -64Q655 -59 767.5 5.5Q880 70 952 185Q1024 301 1024 448Z" fill="#825078" />
  </g>
</svg>