<?xml version="1.0" encoding="UTF-8"?>
<svg width="16" height="16" viewBox="0 0 16 16" xmlns="http://www.w3.org/2000/svg">
  <g transform="translate(0.01727471324060705, 14.9825) scale(0.015585937499999999, -0.015585937499999999)">
    <path d="M365 288Q232 301 171 379Q110 456 112 546.5Q114 637 174 714Q234 791 344 801L669 801Q789 792 851 716Q913 641 915 550.5Q917 460 858 382Q800 303 678 288L365 288ZM688 178Q867 206 948 320Q1029 433 1023.5 561.5Q1018 690 931 796Q844 902 687 914L339 914Q175 890 91 789Q7 687 0.5 566.5Q-6 446 64 337Q133 228 275 190L475 -18L475 178L688 178ZM257 662Q244 698 213.5 686Q183 674 196 639L273 430Q285 394 317.5 397Q350 400 358 428L432 627L493 627L493 437Q493 399 523.5 397Q554 395 557 427L559 627L692 627L692 424Q693 398 725 397.5Q757 397 758 431L758 627L813 627Q844 627 844.5 655.5Q845 684 813 684L427 684Q410 693 398 688Q386 683 381 669L318 482L257 662Z" fill="#46788d" />
  </g>
</svg>