<?xml version="1.0" encoding="UTF-8"?>
<svg width="16" height="16" viewBox="0 0 16 16" xmlns="http://www.w3.org/2000/svg">
  <g transform="translate(-1.1199999999999992, 13.7) scale(0.00890625, -0.00890625)">
    <path d="M555 1009.5Q555 1009.5 567.5 1021.75Q580 1034 580 1075Q580 1116 555 1141Q530 1166 489 1166Q446 1166 413 1140.5Q380 1115 380 1075Q380 1036 413 1010.5Q446 985 489 985Q530 985 555 1009.5ZM1323 568Q1323 596 1297.5 618Q1272 640 1232 640Q1205 640 1182.5 617.5Q1160 595 1160 568Q1160 540 1182.5 517.5Q1205 495 1232 495Q1272 495 1297.5 517Q1323 539 1323 568ZM1062.5 1009.5Q1062.5 1009.5 1074.75 1021.75Q1087 1034 1087 1075Q1087 1116 1062.5 1141Q1038 1166 997 1166Q954 1166 921 1140.5Q888 1115 888 1075Q888 1036 921 1010.5Q954 985 997 985Q1038 985 1062.5 1009.5ZM1722 568Q1722 596 1696 618Q1670 640 1631 640Q1604 640 1581.5 617.5Q1559 595 1559 568Q1559 540 1581.5 517.5Q1604 495 1631 495Q1670 495 1696 517Q1722 539 1722 568ZM1456 965Q1425 969 1386 969Q1217 969 1075 892Q933 815 851.5 683.5Q770 552 770 396Q770 318 793 244Q758 241 725 241Q699 241 675 242.5Q651 244 620 249Q589 254 575.5 256Q562 258 521 266.5Q480 275 471 277L218 150L290 368Q0 571 0 858Q0 1027 97.5 1169Q195 1311 361.5 1392.5Q528 1474 725 1474Q901 1474 1057.5 1408Q1214 1342 1319.5 1225.5Q1425 1109 1456 965ZM2048 404Q2048 287 1979.5 180.5Q1911 74 1794 -13L1849 -194L1650 -85Q1500 -122 1432 -122Q1263 -122 1121 -51.5Q979 19 897.5 140Q816 261 816 404Q816 547 897.5 668Q979 789 1121 859.5Q1263 930 1432 930Q1593 930 1735 859.5Q1877 789 1962.5 667.5Q2048 546 2048 404Z" fill="#90a959" />
  </g>
</svg>