<?xml version="1.0" encoding="UTF-8"?>
<svg width="16" height="16" viewBox="0 0 16 16" xmlns="http://www.w3.org/2000/svg">
  <g transform="translate(3.037109375000001, 15.411383411038305) scale(0.016542968749999998, -0.016542968749999998)">
    <path d="M0 734L0 790Q55 790 69.5 808.5Q84 827 84 836Q84 854 63.5 863.5Q43 873 44 900Q46 961 105.5 960Q165 959 180 900Q197 831 150 779.5Q103 728 0 734ZM250 748L600 748L600 830L250 830ZM0 586L250 586L250 668L0 668ZM346 586L600 586L600 668L346 668ZM0 426L250 426L250 508L0 508ZM346 426L600 426L600 508L346 508ZM250 264L250 346L40 346L40 -64L250 -64L250 18L132 18L132 264ZM346 346L346 264L464 264L464 18L346 18L346 -64L556 -64L556 346Z" fill="#e1ad83" />
  </g>
</svg>