<?xml version="1.0" encoding="UTF-8"?>
<svg width="16" height="16" viewBox="0 0 16 16" xmlns="http://www.w3.org/2000/svg">
  <g transform="translate(2.3825000000000003, 14.55375) scale(0.01462890625, -0.01462890625)">
    <path d="M0 432L71 432L71 694L384 880L697 694L697 362Q697 323 683.5 290.5Q670 258 646 224Q617 184 579 151Q541 117 503 90.5Q465 64 433 46Q401 28 384 19Q367 28 337 45Q307 62 271 86.5Q235 111 197 142Q159 174 128 211L540 211Q563 233 574.5 245.5Q586 258 605 285L10 285Q32 208 90 144Q148 80 209 33.5Q270 -13 317 -38Q364 -64 364 -64Q364 -64 417 -39Q471 -14 539.5 32Q608 78 672 143Q737 207 758 285Q763 302 765.5 322Q768 342 768 362L768 736L384 960L0 736L0 432ZM564 634L564 573L198 573L198 634ZM594 525L594 464L168 464L168 525ZM587 419L587 358L160 358L160 419ZM465 739L465 678L297 678L297 739Z" fill="#aa759f" />
  </g>
</svg>