<?xml version="1.0" encoding="UTF-8"?>
<svg width="16" height="16" viewBox="0 0 16 16" xmlns="http://www.w3.org/2000/svg">
  <g transform="translate(0.5099999999999998, 14.55375) scale(0.01462890625, -0.01462890625)">
    <path d="M954 900L72 900Q41 900 20.5 879.5Q0 859 0 828L0 72Q0 41 20.5 18.5Q41 -4 72 -4L950 -4Q981 -4 1002.5 18.5Q1024 41 1024 72L1024 828Q1024 859 1004.5 879.5Q985 900 954 900ZM572 471L670 384L670 649L750 649L750 384L848 471L901 411L710 242L519 411L572 471ZM194 398L138 454L279 596L138 738L194 794L393 596L194 398ZM918 94L504 94L504 174L918 174Z" fill="#8f5536" />
  </g>
</svg>