<?xml version="1.0" encoding="UTF-8"?>
<svg width="16" height="16" viewBox="0 0 16 16" xmlns="http://www.w3.org/2000/svg">
  <g transform="translate(0.020000000000000462, 14.9825) scale(0.015585937499999999, -0.015585937499999999)">
    <path d="M1021 467L776 887Q773 892 768 895Q763 898 757 898L274 898Q268 898 262 895Q256 892 253 887L3 454Q0 449 0 443Q0 437 3 432L245 12Q248 6 254.5 2Q261 -2 267 -2L754 -2Q760 -2 764.5 2Q769 6 772 12L1021 445Q1024 450 1024 456Q1024 462 1021 467ZM753 13L514 434L258 434L459 85Q461 82 459 78Q457 74 452 74L328 74L120 434L18 434L18 448L122 448L324 800Q325 802 327 803Q329 804 332 804L452 804Q456 804 457.5 801Q459 798 457 795L259 448L513 448L757 863L768 857L526 440L765 19L753 13ZM916 431L769 172Q766 167 763 168Q760 169 758 172L696 284Q694 286 694 288.5Q694 291 696 292L781 436L695 589L759 707Q761 710 763.5 710Q766 710 767 707L916 446Q918 443 918 439Q918 435 916 431Z" fill="#ac4142" />
  </g>
</svg>