<?xml version="1.0" encoding="UTF-8"?>
<svg width="16" height="16" viewBox="0 0 16 16" xmlns="http://www.w3.org/2000/svg">
  <g transform="translate(1.1024707031249994, 14.556536458333333) scale(0.01462890625, -0.01462890625)">
    <path d="M145 807L248 807Q252 853 301.5 857.5Q351 862 374 828Q400 791 381.5 747Q363 703 280 704L0 704L0 601L280 601Q380 601 436.5 653.5Q493 706 493 781Q491 866 438 911Q385 956 321.5 960Q258 964 204 926Q150 888 145 807ZM509 193L198 193L198 296L509 296Q618 295 669 240Q721 185 721.5 118.5Q722 52 675 -5Q629 -61 541 -64Q463 -64 418.5 -15Q374 34 374 90L477 90Q477 74 492.5 56.5Q508 39 541 39Q616 43 618.5 118Q621 193 509 193ZM555 602L646 602Q644 648 675 673Q706 698 743.5 699.5Q781 701 812 678Q842 654 841 602Q841 560 807.5 529.5Q774 499 692 499L0 499L0 396L707 396Q768 396 812 414Q857 432 886 461Q915 490 929 527Q943 564 943 602Q943 702 882 752Q822 802 749 802Q676 802 615 752Q555 702 555 602ZM135 296L0 296L0 193L135 193Z" fill="#6a9fb5" />
  </g>
</svg>