<?xml version="1.0" encoding="UTF-8"?>
<svg width="16" height="16" viewBox="0 0 16 16" xmlns="http://www.w3.org/2000/svg">
  <g transform="translate(3.2990951492537333, 14.969326171875) scale(0.015585937499999999, -0.015585937499999999)">
    <path d="M0 863Q10 895 59 918Q108 941 166 951.5Q224 962 275 959Q326 956 341 935Q341 935 368 869Q395 803 416 706.5Q437 610 434 502Q432 393 373 308Q367 285 371 243Q375 202 385.5 162Q396 122 412 93Q427 64 443 65Q475 67 519.5 69.5Q564 72 596 51Q618 37 573 5Q528 -27 419 -48Q274 -75 221.5 -60Q169 -45 194 -17Q207 -2 257.5 14.5Q308 31 318 42Q332 58 334 94Q335 130 327.5 170Q320 210 305 245Q290 279 272 291Q197 321 145 414Q93 507 61 606.5Q29 706 14 784Q0 863 0 863ZM320 316Q381 356 395 440Q408 523 399 607.5Q390 692 373 756Q355 820 355 820Q313 847 293 817Q273 786 249 748.5Q225 711 185 691Q144 671 61 718Q61 718 74 662Q88 607 118.5 536.5Q149 466 199 401Q248 336 320 316Z" fill="#be2f31" />
  </g>
</svg>