<?xml version="1.0" encoding="UTF-8"?>
<svg width="16" height="16" viewBox="0 0 16 16" xmlns="http://www.w3.org/2000/svg">
  <g transform="translate(0.019589843749997726, 14.983365885416667) scale(0.015585937499999999, -0.015585937499999999)">
    <path d="M1015 828Q1023 843 1024 853Q1025 863 1007 861L858 861Q828 863 787 827.5Q746 792 704 743Q687 790 661 823.5Q635 857 588 857L418 857Q418 857 385.5 843Q353 829 321 745Q310 770 259.5 811.5Q209 853 186 861Q164 869 96.5 868Q29 867 12 863Q-4 858 0 848Q4 838 4 838Q18 822 47 768Q75 713 114.5 648.5Q154 584 202 525Q251 466 305 440L106 70Q95 55 97.5 44.5Q100 34 117 28L295 31Q325 35 347 50Q369 65 385 88L513 282L661 69Q677 51 701.5 43Q726 35 739 35L901 35Q919 36 924 41Q929 46 926 61L722 440Q782 471 827 525Q872 580 906.5 638Q941 696 967 749Q993 801 1015 828ZM590 763L647 764Q636 750 621.5 743.5Q607 737 588 738L590 763ZM616 721Q634 718 639.5 706.5Q645 695 641 660Q637 624 609 630Q581 636 579 656Q577 676 588 700Q599 724 616 721ZM554 631Q553 616 547 603Q541 590 511 587Q478 584 471 605.5Q464 627 464 627Q495 606 515 608.5Q535 611 554 631ZM431 763L433 738Q414 737 399 743.5Q384 750 374 764L431 763ZM442 656Q440 636 412 630Q384 624 380 660Q376 695 381.5 706.5Q387 718 405 721Q422 724 433 700Q444 676 442 656ZM668 448Q668 448 697 396Q727 344 763.5 279.5Q800 215 831 158Q863 101 867 90Q821 73 760.5 77Q700 81 672 108Q659 122 633 162Q608 203 583 246Q558 289 539 323Q521 356 521 356L353 108Q338 86 322 81Q306 76 281 73L148 73L266 287Q315 357 362 403Q409 449 455.5 479.5Q502 510 550 530Q598 550 649 567Q721 593 782 621Q843 649 910 711Q896 683 869 645Q843 607 810 569.5Q777 532 740 500Q703 467 668 448Z" fill="#d28445" />
  </g>
</svg>