<?xml version="1.0" encoding="UTF-8"?>
<svg width="16" height="16" viewBox="0 0 16 16" xmlns="http://www.w3.org/2000/svg">
  <g transform="translate(-0.46999999999999886, 15.413867558346519) scale(0.016542968749999998, -0.016542968749999998)">
    <path d="M255 5Q128 79 64 199Q0 319 0 448Q0 577 64 697Q128 817 255 891Q383 965 519 960Q655 955 767.5 890.5Q880 826 952 711Q1024 595 1024 448Q1024 301 952 185Q880 70 767.5 5.5Q655 -59 519 -64Q383 -69 255 5ZM584 567Q587 627 588 662Q589 697 587 747L512 675Q516 662 520.5 637Q525 612 525 612Q525 612 547 597Q569 582 584 567ZM675 16L525 261Q480 262 421 269.5Q362 277 262 262Q265 293 277.5 321.5Q290 350 310 373Q295 380 279.5 385Q264 390 247 394Q253 416 293.5 437Q334 458 342 461Q338 456 326 441Q314 426 308 413Q328 410 350 398.5Q372 387 372 387Q372 387 350 362.5Q328 338 314 304Q398 318 460.5 307Q523 296 795 273Q830 317 830 319Q830 321 809 359Q776 376 737 403Q697 430 656 462.5Q615 495 576 530Q537 565 504 597L437 821Q382 780 362 712Q342 644 312 591Q282 569 258 523Q234 477 214 418.5Q194 360 177 294Q160 228 146 166Q162 142 207 101Q252 60 321 28Q390 -4 479 -13Q569 -23 675 16ZM504 469Q538 474 563.5 460Q589 446 612 430L562 415Q543 426 526 431.5Q509 437 494 435L504 469ZM973 448Q973 581 908 684Q843 788 742 846Q641 904 518 909Q396 913 281 847Q198 799 145 728Q92 657 69 575.5Q46 494 53 409Q60 323 97 246Q120 311 144 368Q167 425 191 473Q215 521 240 559Q265 598 291 626Q318 708 356.5 775Q395 842 445 883L500 714L609 820Q609 820 611 794Q614 768 616.5 727Q619 686 620 637Q621 588 618 544Q644 517 690 483Q736 448 780.5 417.5Q825 387 858 366Q890 345 890 345Q890 345 853 294.5Q816 244 807 240Q788 232 724 240.5Q660 249 598 254L756 58Q804 88 844 128Q884 169 912.5 218.5Q941 268 957 326Q973 384 973 448Z" fill="#d28445" />
  </g>
</svg>