<?xml version="1.0" encoding="UTF-8"?>
<svg width="16" height="16" viewBox="0 0 16 16" xmlns="http://www.w3.org/2000/svg">
  <g transform="translate(0.5099999999999998, 14.55375) scale(0.01462890625, -0.01462890625)">
    <path d="M296 223L249 238L247 803L140 751L134 271L95 282L92 729L0 684L0 212L424 8L424 888L301 829L296 223ZM477 872L477 477L1024 468L1024 703L477 872ZM600 677L935 612L935 575L600 616Q600 616 600 646.5Q600 677 600 677ZM477 419L477 24L1024 193L1024 428L477 419ZM600 283L935 322L935 284L600 222Q600 222 600 252.5Q600 283 600 283Z" fill="#d28445" />
  </g>
</svg>