<?xml version="1.0" encoding="UTF-8"?>
<svg width="16" height="16" viewBox="0 0 16 16" xmlns="http://www.w3.org/2000/svg">
  <g transform="translate(0.5081713867187494, 14.55375) scale(0.01462890625, -0.01462890625)">
    <path d="M978 855L605 855L605 948L535 948L0 855L0 41L532 -52L605 -52L605 41L954 41Q969 41 984.5 42Q1000 43 1013 52Q1023 68 1023 86.5Q1023 105 1024 122L1024 810Q1026 830 1012 843.5Q998 857 978 855ZM388 290Q373 282 353.5 286Q334 290 316 289Q305 347 292.5 404.5Q280 462 269 520Q259 463 246.5 407Q234 351 222 295Q206 296 189 297Q172 298 155 299Q141 376 125 452.5Q109 529 95 606Q110 607 125 607.5Q140 608 155 609Q164 553 173.5 497.5Q183 442 191 386Q203 444 215.5 501Q228 558 240 615Q257 616 273.5 616.5Q290 617 307 618Q318 559 330 500.5Q342 442 355 383Q365 444 375.5 504Q386 564 396 625Q414 625 431.5 626Q449 627 466 628Q456 586 447 544Q437 501 427.5 458.5Q418 416 409 374Q399 332 388 290ZM968 96L605 96L605 169L907 169L907 215L605 215L605 274L907 274L907 320L605 320L605 378L907 378L907 425L605 425L605 483L907 483L907 529L605 529L605 588L907 588L907 634L605 634L605 692L907 692L907 739L605 739L605 800L968 800L968 96Z" fill="#4d9085" />
  </g>
</svg>