<?xml version="1.0" encoding="UTF-8"?>
<svg width="16" height="16" viewBox="0 0 16 16" xmlns="http://www.w3.org/2000/svg">
  <g transform="translate(0.020000000000000462, 14.984966129351267) scale(0.015585937499999999, -0.015585937499999999)">
    <path d="M270 695Q262 705 245 723.5Q228 742 216 748Q197 743 209.5 720Q222 697 229 676Q230 665 217.5 665Q205 665 188 662Q156 658 140.5 634Q125 610 115 583Q95 531 92 476Q90 421 103.5 368.5Q117 316 148 269Q179 221 226 184Q263 158 319.5 146Q376 134 416 166Q442 187 471 233.5Q500 280 537 249Q574 223 585.5 185Q597 147 687 149Q740 152 784 177Q827 203 858.5 242Q890 281 909 329Q927 377 930 424Q933 470 928 519Q923 568 879 637Q851 673 830.5 666Q810 659 804 669Q790 687 812 710Q834 733 811 751Q804 756 792.5 741Q781 726 768 708Q761 704 756 699.5Q751 695 743 692Q733 688 716.5 689.5Q700 691 695 680Q690 668 722.5 665Q755 662 755 646Q755 640 739.5 627Q724 614 722 585Q719 552 731 536Q743 520 739 456Q738 429 718 399.5Q698 370 663 391Q639 417 620 443Q601 469 568 492Q532 516 499.5 514.5Q467 513 422 466Q402 447 385.5 410.5Q369 374 336 383Q294 394 289.5 428Q285 462 289 494Q292 541 304 571.5Q316 602 270 645Q279 666 300.5 665Q322 664 319 678Q310 693 291 690Q272 687 270 695ZM255 5Q128 79 64 199Q0 319 0 448Q0 577 64 697Q128 817 255 891Q383 965 519 960Q655 955 767.5 890.5Q880 826 952 711Q1024 595 1024 448Q1024 301 952 185Q880 70 767.5 5.5Q655 -59 519 -64Q383 -69 255 5Z" fill="#8f5536" />
  </g>
</svg>