<?xml version="1.0" encoding="UTF-8"?>
<svg width="16" height="16" viewBox="0 0 16 16" xmlns="http://www.w3.org/2000/svg">
  <g transform="translate(0.5099999999999998, 14.55375) scale(0.01462890625, -0.01462890625)">
    <path d="M880 294Q884 282 886.5 263Q889 244 889 219Q889 195 886.5 176Q884 157 880 145Q876 132 867.5 125.5Q859 119 845 119Q832 119 823 125.5Q814 132 810 145Q806 157 803.5 176Q801 195 801 219Q801 244 803.5 263Q806 282 810 294Q814 306 823 312.5Q832 319 845 319Q859 319 867.5 312.5Q876 306 880 294ZM1024 960L1024 -64L0 -64L0 960ZM563 199L385 500L563 793L481 793L344 560L208 793L122 793L297 496L117 199L198 199L339 437L477 199L563 199ZM714 362L664 362L611 313L611 275L653 275L653 81L714 81L714 362ZM950 219Q950 254 944.5 280.5Q939 307 927 326Q915 345 894.5 354.5Q874 364 845 364Q816 364 795.5 354.5Q775 345 764 326Q752 307 746 280.5Q740 254 740 219Q740 184 746 157Q752 130 764 111Q775 93 795.5 83.5Q816 74 845 74Q874 74 894.5 83.5Q915 93 927 111Q939 130 944.5 157Q950 184 950 219Z" fill="#be7953" />
  </g>
</svg>