<?xml version="1.0" encoding="UTF-8"?>
<svg width="16" height="16" viewBox="0 0 16 16" xmlns="http://www.w3.org/2000/svg">
  <g transform="translate(0.5099999999999998, 14.55375) scale(0.01462890625, -0.01462890625)">
    <path d="M295 905Q275 905 256 894Q237 883 227 865L10 488Q0 470 0 448Q0 426 10 408L227 31Q237 13 256 2Q275 -9 295 -9L729 -9Q749 -9 768 2Q787 13 797 31L1014 408Q1024 426 1024 448Q1024 470 1014 488L797 865Q787 883 768 894Q749 905 729 905ZM376 684Q378 684 380.5 682.5Q383 681 384 679L512 451L640 679Q641 682 643.5 683Q646 684 648 684L723 684Q728 684 731 679Q734 674 731 670L608 448L731 226Q734 222 731 217Q728 212 723 212L648 212Q645 212 643 213.5Q641 215 640 217L512 445L384 217Q383 215 380.5 213.5Q378 212 376 212L301 212Q296 212 293 217Q290 222 293 226L416 448L293 670Q291 674 293 678.5Q295 683 299 684L376 684Z" fill="#9dc0ce" />
  </g>
</svg>