<?xml version="1.0" encoding="UTF-8"?>
<svg width="16" height="16" viewBox="0 0 16 16" xmlns="http://www.w3.org/2000/svg">
  <g transform="translate(0.5121672453703701, 14.561064453124999) scale(0.01462890625, -0.01462890625)">
    <path d="M16 382L373 603L950 247Q869 110 731 49Q594 -13 451.5 3Q309 19 187 113Q65 207 16 382ZM849 896L412 626L970 282Q1011 369 1020 455Q1030 540 1013 619.5Q996 699 954 770Q912 840 849 896ZM7 424L335 626L79 784Q54 745 36 702Q19 660 10 615Q1 570 0 522Q-1 475 7 424Z" fill="#90a959" />
  </g>
</svg>