<?xml version="1.0" encoding="UTF-8"?>
<svg width="16" height="16" viewBox="0 0 16 16" xmlns="http://www.w3.org/2000/svg">
  <g transform="translate(0.5099999999999998, 14.55375) scale(0.01462890625, -0.01462890625)">
    <path d="M310 312Q287 289 231 232Q175 175 120 119Q92 152 70 190Q47 228 31.5 269.5Q16 311 8 356Q0 401 0 448Q0 495 8 540Q16 585 31.5 626.5Q47 668 70 706Q92 744 120 777Q142 754 169 727Q195 700 221 674Q247 648 271 624Q295 600 311 583Q339 556 351 518Q362 480 360.5 442Q359 404 346 369Q332 334 310 312ZM652 652L839 842Q806 870 768 891Q730 913 689 928.5Q648 944 603 952Q559 960 512 960Q465 960 421 952Q376 944 334.5 928.5Q293 913 255 891Q217 869 184 841L360 664Q397 629 437 614Q476 598 514.5 598.5Q553 599 588 613Q624 628 652 652ZM903 779Q880 756 853 729Q827 702 800.5 675Q774 648 750 624Q727 600 710 583Q682 556 670 518Q659 480 660.5 442Q662 404 675 369Q689 334 711 312Q723 300 744 279Q765 257 791 230.5Q817 204 846 175Q875 145 903 117Q931 151 954 189Q976 227 991.5 269Q1007 311 1016 356Q1024 401 1024 448Q1024 495 1016 540Q1007 585 991.5 627Q976 669 954 707Q931 745 903 779ZM841 55L652 247Q624 271 588 286Q553 300 514.5 300.5Q476 301 437 285Q397 270 360 235L183 56Q216 28 254 6Q292 -17 333.5 -32.5Q375 -48 420 -56Q465 -64 512 -64Q559 -64 604 -56Q648 -48 689.5 -32.5Q731 -17 769 5Q807 27 841 55Z" fill="#825078" />
  </g>
</svg>