<?xml version="1.0" encoding="UTF-8"?>
<svg width="16" height="16" viewBox="0 0 16 16" xmlns="http://www.w3.org/2000/svg">
  <g transform="translate(0.5099999999999998, 14.55375) scale(0.01462890625, -0.01462890625)">
    <path d="M14 764L142 764L395 456L106 127L0 127L0 157L248 452L14 738L14 764ZM343 865L181 865L181 842L499 461L163 56L163 22L317 22L685 461L343 865ZM1011 836L1011 879L849 879L627 622L737 506L1011 836ZM725 413L707 413L629 331L629 309L873 17L1024 17L1024 62L725 413Z" fill="#825078" />
  </g>
</svg>