<?xml version="1.0" encoding="UTF-8"?>
<svg width="16" height="16" viewBox="0 0 16 16" xmlns="http://www.w3.org/2000/svg">
  <g transform="translate(-0.004252884053737915, 14.9825) scale(0.015585937499999999, -0.015585937499999999)">
    <path d="M641 901L844 901L239 -5L35 -5L338 448L0 901L204 901L440 600L641 901ZM544 205Q560 193 576 171.5Q592 150 610 120Q643 193 678 260Q713 328 750.5 387Q788 446 827 495Q866 545 906 583Q909 588 980 603Q1051 618 1015 584Q946 518 891 444Q837 369 793.5 293.5Q750 218 716 145Q682 73 654 11Q651 8 634.5 1.5Q618 -5 581 -2Q548 -2 533 33Q518 68 443 149Q411 187 453.5 217Q496 247 544 205Z" fill="#90a959" />
  </g>
</svg>