<?xml version="1.0" encoding="UTF-8"?>
<svg width="16" height="16" viewBox="0 0 16 16" xmlns="http://www.w3.org/2000/svg">
  <g transform="translate(4.255, 14.55375) scale(0.01462890625, -0.01462890625)">
    <path d="M400 321L400 -64L512 -64L512 960L345 960Q283 960 228 939Q173 919 132 877.5Q91 836 66 775Q42 714 42 633Q42 517 84 450Q126 383 195 349L0 -64L129 -64L307 321L400 321ZM400 411L340 411Q267 411 215 458.5Q163 506 163 630Q163 759 217.5 811Q272 863 340 863L400 863Q400 863 400 792Q400 722 400 637Q400 552 400 482Q400 411 400 411Z" fill="#ac4142" />
  </g>
</svg>