<?xml version="1.0" encoding="UTF-8"?>
<svg width="16" height="16" viewBox="0 0 16 16" xmlns="http://www.w3.org/2000/svg">
  <g transform="translate(0.5099999999999998, 14.55375) scale(0.01462890625, -0.01462890625)">
    <path d="M512 960Q406 960 313 920Q219 880 149.5 810.5Q80 741 40 647Q0 554 0 448Q0 342 40 249Q80 155 149.5 85.5Q219 16 313 -24Q406 -64 512 -64Q618 -64 711 -24Q805 16 874.5 85.5Q944 155 984 249Q1024 342 1024 448Q1024 554 984 647Q944 741 874.5 810.5Q805 880 711 920Q618 960 512 960ZM48 448Q48 542 83 624Q119 706 180 767.5Q241 829 324 865Q406 900 500 900Q547 900 588 882Q629 865 659.5 834Q690 803 708 762Q726 721 726 674Q726 627 708 586Q690 545 659.5 514.5Q629 484 588 466Q547 448 500 448L500 448Q450 445 407 425Q363 404 331 370.5Q299 337 280 292Q262 248 262 198Q262 149 279 106.5Q296 64 325 31Q264 56 213 98Q162 140 125 194.5Q88 249 68 313Q48 378 48 448ZM512 765Q540 765 559 745.5Q578 726 578 698Q578 671 559 651.5Q540 632 512 632Q484 632 465 651.5Q446 671 446 698Q446 726 465 745.5Q484 765 512 765ZM512 264Q540 264 559 244.5Q578 225 578 198Q578 170 559 150.5Q540 131 512 131Q484 131 465 150.5Q446 170 446 198Q446 225 465 244.5Q484 264 512 264Z" fill="#f4bf75" />
  </g>
</svg>