<?xml version="1.0" encoding="UTF-8"?>
<svg width="16" height="16" viewBox="0 0 16 16" xmlns="http://www.w3.org/2000/svg">
  <g transform="translate(0.5150794813368064, 14.55375) scale(0.01462890625, -0.01462890625)">
    <path d="M535 293Q570 261 601.5 248Q633 235 690 235L868 235Q868 235 868.5 215Q869 195 862 185Q854 169 838.5 159Q823 149 803 149L488 149L488 23L791 23Q838 23 874 31Q910 39 950 67Q972 83 997 103Q1022 123 1024 209L1024 807L868 807L868 361L726 361Q681 361 658.5 382.5Q636 404 636 447L636 807L478 807L478 435Q477 391 491 356Q505 321 535 293ZM339 770Q270 775 259.5 750Q249 725 257 669Q268 612 287.5 570Q307 528 299 505Q295 493 276.5 487.5Q258 482 233 474Q201 464 174.5 456.5Q148 449 149 447Q181 435 214.5 424Q248 413 259 409Q279 400 277.5 383Q276 366 266 352Q245 318 226.5 293.5Q208 269 192 245Q184 233 179 222Q174 211 164 195Q156 182 156.5 169.5Q157 157 164 146Q172 132 184 130Q196 128 237 130Q243 130 250 121.5Q257 113 247 95Q228 60 228 41.5Q228 23 218 23L85 23Q57 23 34 49Q11 75 4 100Q-9 147 14 204Q37 261 80 310Q98 333 110.5 348.5Q123 364 116 368Q60 393 46.5 396Q33 399 34 421Q35 435 37.5 449.5Q40 464 43 479Q50 499 61.5 500Q73 501 98 512Q125 523 137 525Q149 527 146 541Q129 600 113 657.5Q97 715 106 763Q112 797 137 826.5Q162 856 209 873L366 873Q370 873 369 860Q368 847 368 831Q367 801 368.5 784Q370 767 339 770Z" fill="#ac4142" />
  </g>
</svg>