<?xml version="1.0" encoding="UTF-8"?>
<svg width="16" height="16" viewBox="0 0 16 16" xmlns="http://www.w3.org/2000/svg">
  <g transform="translate(0.5790898437500012, 14.993852719907407) scale(0.015585937499999999, -0.015585937499999999)">
    <path d="M404 852Q404 852 430.5 914Q457 976 486 957Q495 951 518.5 901Q542 851 542 851Q542 851 566 863.5Q590 876 594 868Q617 799 620 739Q622 679 609.5 627Q597 575 573 530Q549 485 519 446Q559 409 583 370Q608 332 619.5 291Q631 250 631 206Q632 162 624 113Q699 113 754 163Q809 213 905 218Q949 218 952 183Q955 148 923 140Q889 136 854 117Q819 98 777.5 73Q736 48 684 22Q632 -4 564 -23Q556 -36 527 -43Q499 -49 460.5 -52.5Q422 -56 378 -58Q334 -60 293 -64Q206 -65 211.5 -18Q217 29 248 40Q228 51 223.5 60Q219 69 215 68Q193 -47 144 -41.5Q95 -36 58 -26Q31 -11 46 15Q61 41 61 41Q34 29 15.5 69.5Q-3 110 0 161Q3 201 33.5 234Q64 267 64 267Q62 367 94 437Q126 507 204 562Q177 594 158.5 644Q140 694 181 754Q235 769 268 813.5Q301 858 404 852Z" fill="#6a9fb5" />
  </g>
</svg>