<?xml version="1.0" encoding="UTF-8"?>
<svg width="16" height="16" viewBox="0 0 16 16" xmlns="http://www.w3.org/2000/svg">
  <g transform="translate(0.9006054687500002, 14.972102933305033) scale(0.015585937499999999, -0.015585937499999999)">
    <path d="M675 214Q559 243 507 208.5Q455 174 455 174Q455 145 474 107Q492 69 524.5 33.5Q557 -2 600 -28Q643 -55 693 -61Q791 -74 849.5 -44.5Q908 -15 908 -15Q908 -15 893 15Q878 45 849 84.5Q820 124 776 162Q733 199 675 214ZM236 214Q178 199 134 162Q91 124 61.5 84.5Q32 45 18 15Q3 -15 3 -15Q3 -15 61.5 -44.5Q120 -74 218 -61Q267 -55 311 -28Q354 -2 386 33.5Q418 69 437 107Q456 145 455 174Q455 174 403 208.5Q351 243 236 214ZM68 787L126 455L0 455L27 375L884 375L911 455L785 455L842 787Q791 879 671 920Q551 962 423.5 959.5Q296 957 192 913Q88 869 68 787ZM486 494L482 500Q482 500 482.5 500.5Q483 501 484 501L486 494ZM505 509L499 513Q499 513 499.5 513.5Q500 514 500 514ZM517 530Q517 530 513.5 530.5Q510 531 510 531Q510 532 510.5 532.5Q511 533 511 533L517 530ZM521 554L514 552Q514 553 514 553.5Q514 554 514 554L521 554ZM516 577L510 573Q509 574 509 574.5Q509 575 509 575ZM417 498L421 505Q421 505 421.5 504.5Q422 504 422 504L417 498ZM463 486L461 494Q462 494 462.5 494Q463 494 463 494L463 486ZM439 488Q439 488 439.5 491.5Q440 495 440 495Q440 495 440.5 495Q441 495 442 495ZM422 504L443 526L440 495Q435 497 430.5 499Q426 501 422 504ZM479 605L483 611L481 604Q480 604 479.5 604.5Q479 605 479 605ZM404 580L399 585L405 582Q405 582 405 581.5Q405 581 404 580ZM390 562L398 562Q398 561 398 560.5Q398 560 398 560L390 562ZM391 538L398 541Q398 540 398 539.5Q398 539 399 538ZM503 597L498 591Q498 592 497.5 592.5Q497 593 497 593L503 597ZM400 516L406 521Q406 520 406.5 519.5Q407 519 407 519ZM461 494Q456 493 451.5 493.5Q447 494 442 495Q442 495 448 509Q454 523 454 523ZM460 617L460 610Q460 610 459.5 610Q459 610 458 610L460 617ZM436 615L439 608Q438 608 437.5 607.5Q437 607 437 607L436 615ZM414 603L420 598Q419 598 419 597.5Q419 597 418 597L414 603ZM484 501L473 529L499 513Q496 509 492 506Q488 503 484 501ZM399 538L429 541L406 521Q403 525 401.5 529.5Q400 534 399 538ZM398 541Q397 546 397 551Q397 556 398 560L426 551L398 541ZM421 505Q417 508 413.5 511.5Q410 515 407 519L435 532L421 505ZM523 552Q519 619 455.5 618.5Q392 618 388 552Q388 524 408 504.5Q428 485 455 485Q483 485 503 504.5Q523 524 523 552ZM404 580Q402 576 400.5 571.5Q399 567 398 562L428 561Q428 561 416 570.5Q404 580 404 580ZM463 494Q468 495 473 496.5Q478 498 482 500L464 524L463 494ZM514 554Q513 559 512 564Q511 569 510 573L484 558L514 554ZM514 552L484 547Q484 547 497.5 540Q511 533 511 533Q512 538 513 542.5Q514 547 514 552ZM500 514Q503 518 505.5 522.5Q508 527 510 531L480 537L500 514ZM509 575Q507 580 504 584Q501 588 498 591L480 568L509 575ZM497 593Q493 596 489 599Q485 602 481 604L472 575L497 593ZM418 597Q414 594 411 590Q408 586 406 582L434 571ZM439 608L452 580L458 610Q453 610 448.5 609.5Q444 609 439 608ZM437 607Q432 606 428 603.5Q424 601 420 598L442 577L437 607ZM479 605Q475 607 470 608.5Q465 610 460 610L463 580L479 605ZM446 534Q438 539 438 549Q438 559 446 564Q455 570 464 564.5Q473 559 473 549Q473 539 464 534Q455 529 446 534ZM415 482Q374 505 374 552Q374 599 415 622Q455 645 495.5 621.5Q536 598 536 552Q536 505 495.5 481.5Q455 458 415 482ZM409 471Q362 498 362 552Q362 606 409 632Q455 659 501.5 632Q548 605 548 552Q548 498 501.5 471Q455 444 409 471Z" fill="#75b5aa" />
  </g>
</svg>