<?xml version="1.0" encoding="UTF-8"?>
<svg width="16" height="16" viewBox="0 0 16 16" xmlns="http://www.w3.org/2000/svg">
  <g transform="translate(1.8921794181034484, 14.55375) scale(0.01462890625, -0.01462890625)">
    <path d="M791 297Q788 317 800 356Q813 396 823 449Q833 502 833 566Q834 631 806 701Q789 740 757 785Q726 831 678 869.5Q630 908 564 934Q499 960 414 960Q345 960 281 937Q217 914 165.5 879Q114 844 78 802Q42 761 29 723Q4 651 2 596Q1 542 9.5 495.5Q18 449 30 407Q42 365 45 318Q43 302 31.5 300.5Q20 299 20 299Q8 293 3 281Q-2 269 2 257Q17 209 41.5 173.5Q66 138 107 139Q119 140 137 135Q155 130 162 121Q162 121 179.5 103Q197 85 209 57Q226 17 238 -23.5Q250 -64 268 -64Q268 -64 312 -64Q356 -64 410.5 -64Q465 -64 514 -64Q562 -64 572 -64Q595 -64 604 -33.5Q613 -3 614 49Q614 75 641 95Q668 115 684 115Q701 115 720 115Q739 115 739 115Q778 120 803 178.5Q828 237 826 280Q817 286 805 280.5Q793 275 791 297ZM316 336Q233 288 190.5 270Q148 252 126 319Q126 319 114.5 354.5Q103 390 110 424Q116 447 138 462Q160 477 171 483Q198 498 256 493.5Q314 489 314 489Q355 463 357 412Q359 361 316 336ZM410 208Q410 208 401 179.5Q392 151 391 136Q390 122 378 111.5Q366 101 359 115Q351 128 341 142Q331 156 336 183Q340 210 351 244.5Q362 279 372 298Q382 316 396 327Q410 338 410 338L410 208ZM462 115Q452 104 445 118.5Q438 133 437 147Q436 162 432.5 185Q429 208 429 208L429 338Q429 338 441 327Q453 316 463 298Q472 279 481.5 244.5Q491 210 495 183Q499 156 487.5 143Q476 130 462 115ZM720 319Q698 252 655.5 270Q613 288 530 336Q487 361 489 412Q491 463 532 489Q532 489 590 493.5Q648 498 675 483Q686 477 708 462Q730 447 736 424Q743 390 731.5 354.5Q720 319 720 319Z" fill="#d28445" />
  </g>
</svg>