<?xml version="1.0" encoding="UTF-8"?>
<svg width="16" height="16" viewBox="0 0 16 16" xmlns="http://www.w3.org/2000/svg">
  <g transform="translate(0.5099999999999998, 14.554054768880208) scale(0.01462890625, -0.01462890625)">
    <path d="M1009 897Q1013 898 1016.5 898.5Q1020 899 1024 900Q948 795 886 685Q824 574 776 458.5Q728 343 694 224Q659 105 637 -17Q590 -13 546 -3Q503 6 461.5 19.5Q420 33 379 51Q339 69 298 92Q332 195 400 308Q467 420 560 527.5Q653 635 767 731Q881 827 1009 897ZM923 875Q810 842 691 783Q573 724 464.5 647Q356 570 265 480Q173 390 114 295Q159 256 202.5 224.5Q246 193 285 182Q341 284 414 387Q487 489 570.5 580.5Q654 672 743 748Q833 824 923 875ZM981 912Q830 917 697 898Q565 878 444.5 832Q324 786 214 712Q104 639 0 536Q13 504 43.5 466Q74 428 127 382Q219 497 328 585Q436 673 548.5 737Q661 801 772 844Q883 887 981 912Z" fill="#46788d" />
  </g>
</svg>