<?xml version="1.0" encoding="UTF-8"?>
<svg width="16" height="16" viewBox="0 0 16 16" xmlns="http://www.w3.org/2000/svg">
  <g transform="translate(0.022556423611113346, 14.981001352163462) scale(0.015585937499999999, -0.015585937499999999)">
    <path d="M1022 2Q1029 25 1009 66Q989 107 955 157Q911 220 852 268Q793 317 730.5 348Q668 379 609 392Q549 405 505 399L506 404Q535 439 565.5 475Q596 511 627 535Q686 502 738 514.5Q790 527 839 579Q863 603 872.5 621.5Q882 640 878 653Q871 675 853.5 685.5Q836 696 809 696Q783 694 749 674.5Q715 655 698 640Q637 667 594 683Q551 699 524 704Q475 713 429 709Q383 706 340.5 690Q298 674 258 646Q219 618 183 578Q144 534 126.5 508.5Q109 483 113 475Q116 471 124.5 471Q133 471 144 473Q168 480 210 496Q252 512 251 523Q252 555 259 576Q266 597 303 622Q357 658 404.5 654.5Q452 651 519 602Q543 585 562 573Q581 561 592 555Q546 516 507 475Q468 434 439 390Q381 375 314 346Q247 317 186 277.5Q125 238 77 190Q28 142 7 89Q1 74 0 65.5Q-1 57 5 53Q38 40 90 53Q141 67 198.5 100.5Q256 134 314 184Q372 235 419 294Q464 299 541 295Q618 290 690.5 274Q763 258 813 230Q863 202 854 162Q847 145 846 139Q845 133 846 128Q855 103 904.5 64Q954 25 996 4Q1007 -1 1014 -1.5Q1021 -2 1022 2ZM742 626Q736 629 762 641.5Q788 654 812 658Q837 662 848 654Q859 646 850 637L850 637Q831 619 791 619Q751 619 742 626ZM153 116Q123 99 97.5 91Q72 83 62 99Q58 125 77.5 151Q97 177 138 204Q186 235 238 255Q290 275 345 286L354 285Q313 236 261.5 192Q210 148 153 116ZM240 596Q234 585 229.5 574Q225 563 223 552Q221 543 219 537Q217 531 213 527Q207 520 201.5 517Q196 514 192 515Q189 516 188.5 517.5Q188 519 190 521Q192 525 197.5 536.5Q203 548 211 567Q219 585 226.5 595Q234 605 240 607Q245 609 245 606Q245 603 240 596ZM448 696Q474 696 503.5 690Q533 684 566 671Q584 664 608.5 653.5Q633 643 663 628Q694 614 716.5 606.5Q739 599 752 598Q755 596 754 594.5Q753 593 747 593Q722 595 698 600Q674 605 650 615L563 656Q533 669 503.5 678Q474 687 446 692Q444 693 444.5 694Q445 695 448 696ZM745 311Q709 329 668 341.5Q627 354 581 361Q529 364 502.5 367Q476 370 475 373Q474 375 477.5 376.5Q481 378 489 380Q554 386 625 366.5Q696 347 771 305Q792 292 780 295.5Q768 299 745 311ZM854 242Q849 247 847.5 249Q846 251 848 250Q857 244 866.5 235Q876 226 885 213Q900 195 904.5 180Q909 165 904 152L900 148Q898 149 895.5 153.5Q893 158 890 167Q885 191 880.5 204Q876 217 854 242ZM898 115Q893 127 897.5 134Q902 141 910 128L935 91Q938 87 938.5 85.5Q939 84 937 84Q929 84 917 93.5Q905 103 898 115ZM541 855Q531 839 527 824Q523 809 526 794Q529 780 536.5 769Q544 758 558 751Q570 743 589.5 740.5Q609 738 636 740Q671 742 688 749Q705 756 706 768Q708 788 700.5 809Q693 830 676 853Q658 877 638.5 888Q619 899 597 897Q581 895 567 884.5Q553 874 541 855ZM600 844Q594 849 595.5 856Q597 863 603 867L618 866Q623 863 626 859.5Q629 856 631 851Q635 838 621.5 838.5Q608 839 600 844ZM668 770Q670 769 671.5 767.5Q673 766 673 765Q672 763 667 761Q662 759 653 759L635 760Q627 761 634 766Q641 771 654 771L668 770Z" fill="#be2f31" />
  </g>
</svg>