<?xml version="1.0" encoding="UTF-8"?>
<svg width="16" height="16" viewBox="0 0 16 16" xmlns="http://www.w3.org/2000/svg">
  <g transform="translate(0.5810937500000009, 14.9825) scale(0.015585937499999999, -0.015585937499999999)">
    <path d="M172 780Q176 780 179 783Q182 786 182 790L182 954Q182 958 178.5 959.5Q175 961 172 958L2 790Q-1 788 0.5 784Q2 780 6 780ZM190 814L190 470Q190 468 191 466.5Q192 465 193 465L532 465Q536 465 537.5 469Q539 473 536 476L197 815Q195 817 192.5 816Q190 815 190 814ZM193 459L531 459Q534 459 536.5 456.5Q539 454 539 450L539 116Q539 112 535.5 110.5Q532 109 529 112L191 452Q189 454 190 456.5Q191 459 193 459ZM181 287L181 523Q181 527 177.5 528.5Q174 530 171 528L54 410Q52 408 52 404.5Q52 401 54 398L171 282Q174 280 177.5 281.5Q181 283 181 287ZM373 3L257 119Q255 121 255 125Q255 129 257 131L374 245Q376 247 380 247Q384 247 386 245L502 129Q505 126 505 122.5Q505 119 502 116L386 3Q383 0 379.5 0Q376 0 373 3ZM338 -55L507 114Q510 116 513 116Q516 116 519 113L684 -51Q686 -55 686 -59Q686 -63 680 -64L347 -64Q342 -64 338.5 -61.5Q335 -59 338 -55ZM580 60Q577 64 578 66.5Q579 69 584 70L827 70L950 -52Q953 -55 951.5 -58Q950 -61 945 -61L701 -61L580 60Z" fill="#d28445" />
  </g>
</svg>