<?xml version="1.0" encoding="UTF-8"?>
<svg width="16" height="16" viewBox="0 0 16 16" xmlns="http://www.w3.org/2000/svg">
  <g transform="translate(2.0150000000000006, 12.9875) scale(0.015585937499999999, -0.015585937499999999)">
    <path d="M320 256L320 320L256 320L256 256ZM320 384L320 448L256 448L256 384ZM320 512L320 576L256 576L256 512ZM192 448L256 448L256 512L192 512ZM576 768L0 768L0 -128L768 -128L768 576ZM704 -64L64 -64L64 704L256 704L256 640L320 640L320 704L512 704L704 512ZM192 576L256 576L256 640L192 640ZM192 320L256 320L256 384L192 384ZM192 192L128 128L128 0L384 0L384 128L320 192L256 192L256 256L192 256ZM320 128L320 64L192 64L192 128Z" fill="#ac4142" />
  </g>
</svg>