<?xml version="1.0" encoding="UTF-8"?>
<svg width="16" height="16" viewBox="0 0 16 16" xmlns="http://www.w3.org/2000/svg">
  <g transform="translate(1.1244140624999996, 14.55375) scale(0.01462890625, -0.01462890625)">
    <path d="M2 629L125 960L915 960L915 929L576 485Q681 442 752.5 473.5Q824 505 884 574Q892 577 902 572.5Q912 568 922 556Q883 499 838 453Q794 407 743 382Q692 357 633 355Q573 354 505 385L226 16L654 17Q712 18 756 38Q799 58 828.5 93Q858 128 876 177Q894 225 902 282L940 282Q938 244 935 203Q932 162 928 118.5Q924 75 919 29Q913 -16 907 -64L0 -64L0 -32L355 430Q289 451 214 441.5Q139 432 63 326Q52 322 42 326.5Q32 331 24 343Q66 406 109 450Q152 495 200.5 518.5Q249 542 304 545Q360 547 427 525L696 882L302 882Q262 877 225 856Q188 836 155.5 802.5Q123 769 97 725Q71 681 54 629L2 629Z" fill="#46788d" />
  </g>
</svg>